*
*
G04 PADS VX.2.4 Build Number: 11282995 generated Gerber (RS-274-X) file*
G04 PC Version=2.1*
*
%IN "HT66F2360_TuYa_WIFI_Pet"*%
*
%MOIN*%
*
%FSLAX35Y35*%
*
*
*
*
G04 PC Standard Apertures*
*
*
G04 Thermal Relief Aperture macro.*
%AMTER*
1,1,$1,0,0*
1,0,$1-$2,0,0*
21,0,$3,$4,0,0,45*
21,0,$3,$4,0,0,135*
%
*
*
G04 Annular Aperture macro.*
%AMANN*
1,1,$1,0,0*
1,0,$2,0,0*
%
*
*
G04 Odd Aperture macro.*
%AMODD*
1,1,$1,0,0*
1,0,$1-0.005,0,0*
%
*
*
G04 PC Custom Aperture Macros*
*
*
*
*
*
*
G04 PC Aperture Table*
*
%ADD010C,0.001*%
%ADD011C,0.01*%
%ADD012C,0.04724*%
%ADD016R,0.05906X0.05906*%
%ADD017C,0.05906*%
%ADD018C,0.01181*%
%ADD021O,0.09055X0.05118*%
%ADD024C,0.1378*%
%ADD025C,0.07874*%
%ADD026R,0.06X0.06*%
%ADD027C,0.06*%
%ADD029C,0.11024*%
%ADD030C,0.09843*%
%ADD033C,0.01968*%
%ADD037C,0.02953*%
%ADD038R,0.02362X0.04724*%
%ADD039R,0.05118X0.08268*%
%ADD040R,0.13937X0.10236*%
%ADD041R,0.14409X0.10236*%
*
*
*
*
G04 PC Circuitry*
G04 Layer Name HT66F2360_TuYa_WIFI_Pet - circuitry*
%LPD*%
*
*
G04 PC Custom Flashes*
G04 Layer Name HT66F2360_TuYa_WIFI_Pet - flashes*
%LPD*%
*
*
G04 PC Circuitry*
G04 Layer Name HT66F2360_TuYa_WIFI_Pet - circuitry*
%LPD*%
*
G54D10*
G54D11*
G01X100500Y104437D02*
Y305224D01*
X104437Y309161*
X352469*
X360343Y301287*
Y257980*
X370185Y248138*
Y120185*
X360343Y110343*
Y102469*
X358374Y100500*
X104437*
X100500Y104437*
X165461Y299319D02*
G75*
G03X165461I-5906J0D01*
G01Y110343D02*
G03X165461I-5906J0D01*
G01X366248Y131996D02*
G03X366248I-5905J0D01*
G01Y238295D02*
G03X366248I-5905J0D01*
G54D12*
G01X110047Y132390D03*
Y159161D03*
G54D16*
X204831Y259949D03*
X116248Y232390D03*
X218610Y287508D03*
X350343Y299161D03*
Y110500D03*
X280343Y110343D03*
X265343Y299161D03*
G54D17*
X204831Y249949D03*
X194831Y259949D03*
Y249949D03*
X184831Y259949D03*
Y249949D03*
X174831Y259949D03*
Y249949D03*
X106248Y232390D03*
X116248Y242390D03*
X106248D03*
X116248Y252390D03*
X106248D03*
X116248Y262390D03*
X106248D03*
X218610Y277508D03*
Y267508D03*
Y257508D03*
Y247508D03*
Y237508D03*
X340343Y299161D03*
X330343D03*
X320343D03*
X310343D03*
X300343D03*
X290343D03*
X280343D03*
X340343Y110500D03*
X330343D03*
X320343D03*
X310343D03*
X300343D03*
X270343Y110343D03*
X260343D03*
X250343D03*
X240343D03*
X230343D03*
X220343D03*
X210343D03*
X228446Y206393D03*
X220572D03*
X255343Y299161D03*
X245343D03*
X235343D03*
X225343D03*
X215343D03*
X205343D03*
X195343D03*
X185343D03*
X175343D03*
G54D18*
X118142Y216642D03*
Y200894D03*
G54D21*
X109677Y196168D03*
Y221365D03*
G54D24*
X202075Y275697D03*
Y181996D03*
X110343D03*
Y275697D03*
G54D25*
X141209Y277665D03*
X151209D03*
X161209D03*
X171209D03*
G54D26*
X232390Y267823D03*
Y234358D03*
X153650Y191051D03*
X311130Y128059D03*
G54D27*
X232390Y277823D03*
Y287823D03*
Y244358D03*
Y254358D03*
X143650Y191051D03*
X133650D03*
X311130Y138059D03*
Y148059D03*
G54D29*
X340657Y242232D03*
Y261917D03*
Y281602D03*
X305618Y238295D03*
Y285539D03*
X249712Y261917D03*
X340657Y130028D03*
Y149713D03*
X305618Y175303D03*
Y222547D03*
X249712Y198925D03*
X340657Y179240D03*
Y198925D03*
Y218610D03*
G54D30*
X257586Y285539D03*
Y238295D03*
Y222547D03*
Y175303D03*
G54D33*
X185146Y153650D03*
X155618D03*
G54D37*
X186524Y112311D03*
X179831D03*
X139280D03*
X132587D03*
X110933Y295382D03*
X117626D03*
X136524D03*
X143217D03*
G54D38*
X189870Y117429D03*
X176484D03*
X142626D03*
X129240D03*
X107587Y290264D03*
X120972D03*
X133177D03*
X146563D03*
G54D39*
X191248Y107193D03*
X175106D03*
X144004D03*
X127862D03*
X106209Y300500D03*
X122350D03*
X131799D03*
X147941D03*
G54D40*
X139037Y153650D03*
G54D41*
X201097D03*
G74*
X0Y0D02*
M02*
