*
*
G04 PADS VX.2.4 Build Number: 11282995 generated Gerber (RS-274-X) file*
G04 PC Version=2.1*
*
%IN "HT66F2360_TuYa_WIFI_Pet"*%
*
%MOIN*%
*
%FSLAX35Y35*%
*
*
*
*
G04 PC Standard Apertures*
*
*
G04 Thermal Relief Aperture macro.*
%AMTER*
1,1,$1,0,0*
1,0,$1-$2,0,0*
21,0,$3,$4,0,0,45*
21,0,$3,$4,0,0,135*
%
*
*
G04 Annular Aperture macro.*
%AMANN*
1,1,$1,0,0*
1,0,$2,0,0*
%
*
*
G04 Odd Aperture macro.*
%AMODD*
1,1,$1,0,0*
1,0,$1-0.005,0,0*
%
*
*
G04 PC Custom Aperture Macros*
*
*
*
*
*
*
G04 PC Aperture Table*
*
%ADD010C,0.001*%
%ADD011C,0.01*%
*
*
*
*
G04 PC Circuitry*
G04 Layer Name HT66F2360_TuYa_WIFI_Pet - circuitry*
%LPD*%
*
*
G04 PC Custom Flashes*
G04 Layer Name HT66F2360_TuYa_WIFI_Pet - flashes*
%LPD*%
*
*
G04 PC Circuitry*
G04 Layer Name HT66F2360_TuYa_WIFI_Pet - circuitry*
%LPD*%
*
G54D10*
G54D11*
G01X105854Y210447D02*
X113854D01*
X109854Y206447D02*
Y214447D01*
X112763Y215728D02*
X111854Y212447D01*
X112763Y215728D02*
X113673Y212447D01*
X112195Y213541D02*
X113332D01*
X109004Y210447D02*
X117004D01*
X113004Y206447D02*
Y214447D01*
X115913Y215728D02*
X115004Y212447D01*
X115913Y215728D02*
X116822Y212447D01*
X115345Y213541D02*
X116481D01*
X109854Y211431D02*
G75*
G03Y209463I0J-984D01*
G01X113004*
G03Y211431I-0J984*
G01X109854*
X105854Y235644D02*
X113854D01*
X109854Y231644D02*
Y239644D01*
X112763Y240925D02*
X111854Y237644D01*
X112763Y240925D02*
X113673Y237644D01*
X112195Y238738D02*
X113332D01*
X109004Y235644D02*
X117004D01*
X113004Y231644D02*
Y239644D01*
X115913Y240925D02*
X115004Y237644D01*
X115913Y240925D02*
X116822Y237644D01*
X115345Y238738D02*
X116481D01*
X109854Y236628D02*
G03Y234660I0J-984D01*
G01X113004*
G03Y236628I-0J984*
G01X109854*
X107799Y142669D02*
X115799D01*
Y150669*
X107799*
Y142669*
X111799Y146669D02*
Y150669D01*
X107799Y169441D02*
X115799D01*
Y177441*
X107799*
Y169441*
X111799Y173441D02*
Y177441D01*
X202583Y270228D02*
X210583Y278228D01*
X202583D02*
X210583Y270228D01*
X202583Y260228D02*
X210583Y268228D01*
X202583D02*
X210583Y260228D01*
X192583Y270228D02*
X200583Y278228D01*
X192583D02*
X200583Y270228D01*
X192583Y260228D02*
X200583Y268228D01*
X192583D02*
X200583Y260228D01*
X182583Y270228D02*
X190583Y278228D01*
X182583D02*
X190583Y270228D01*
X182583Y260228D02*
X190583Y268228D01*
X182583D02*
X190583Y260228D01*
X172583Y270228D02*
X180583Y278228D01*
X172583D02*
X180583Y270228D01*
X172583Y260228D02*
X180583Y268228D01*
X172583D02*
X180583Y260228D01*
X115894Y230921D02*
X123894D01*
X119894Y226921D02*
Y234921D01*
X121894Y236203D02*
Y232921D01*
Y236203D02*
X122916D01*
X123257Y236046*
X123371Y235890*
X123485Y235578*
Y235265*
X123371Y234953*
X123257Y234796*
X122916Y234640*
X121894D02*
X122916D01*
X123257Y234484*
X123371Y234328*
X123485Y234015*
Y233546*
X123371Y233234*
X123257Y233078*
X122916Y232921*
X121894*
X115894Y215173D02*
X123894D01*
X119894Y211173D02*
Y219173D01*
X121894Y220454D02*
Y217173D01*
Y220454D02*
X122916D01*
X123257Y220298*
X123371Y220142*
X123485Y219829*
Y219517*
X123371Y219204*
X123257Y219048*
X122916Y218892*
X121894D02*
X122916D01*
X123257Y218736*
X123371Y218579*
X123485Y218267*
Y217798*
X123371Y217486*
X123257Y217329*
X122916Y217173*
X121894*
X114000Y242669D02*
X122000Y250669D01*
X114000D02*
X122000Y242669D01*
X104000D02*
X112000Y250669D01*
X104000D02*
X112000Y242669D01*
X114000Y252669D02*
X122000Y260669D01*
X114000D02*
X122000Y252669D01*
X104000D02*
X112000Y260669D01*
X104000D02*
X112000Y252669D01*
X114000Y262669D02*
X122000Y270669D01*
X114000D02*
X122000Y262669D01*
X104000D02*
X112000Y270669D01*
X104000D02*
X112000Y262669D01*
X114000Y272669D02*
X122000Y280669D01*
X114000D02*
X122000Y272669D01*
X104000D02*
X112000Y280669D01*
X104000D02*
X112000Y272669D01*
X199826Y285976D02*
X207826D01*
X199826Y293976*
X207826*
X199826Y285976*
X199827Y192276D02*
X207827D01*
X199827Y200276*
X207827*
X199827Y192276*
X108095D02*
X116095D01*
X116095D02*
X108095Y200276D01*
X108095D02*
X116095D01*
X116095D02*
X108095Y192276D01*
Y285976D02*
X116095D01*
X116095D02*
X108095Y293976D01*
X108095D02*
X116095D01*
X116095D02*
X108095Y285976D01*
X138961Y291945D02*
X146961D01*
X142961Y287945D02*
Y295945D01*
X144961Y297226D02*
Y293945D01*
Y297226D02*
X145756D01*
X146097Y297070*
X146324Y296757*
X146438Y296445*
X146552Y295976*
Y295195*
X146438Y294726*
X146324Y294414*
X146097Y294101*
X145756Y293945*
X144961*
X148961Y291945D02*
X156961D01*
X152961Y287945D02*
Y295945D01*
X154961Y297226D02*
Y293945D01*
Y297226D02*
X155756D01*
X156097Y297070*
X156324Y296757*
X156438Y296445*
X156552Y295976*
Y295195*
X156438Y294726*
X156324Y294414*
X156097Y294101*
X155756Y293945*
X154961*
X158961Y291945D02*
X166961D01*
X162961Y287945D02*
Y295945D01*
X164961Y297226D02*
Y293945D01*
Y297226D02*
X165756D01*
X166097Y297070*
X166324Y296757*
X166438Y296445*
X166552Y295976*
Y295195*
X166438Y294726*
X166324Y294414*
X166097Y294101*
X165756Y293945*
X164961*
X168961Y291945D02*
X176961D01*
X172961Y287945D02*
Y295945D01*
X174961Y297226D02*
Y293945D01*
Y297226D02*
X175756D01*
X176097Y297070*
X176324Y296757*
X176438Y296445*
X176552Y295976*
Y295195*
X176438Y294726*
X176324Y294414*
X176097Y294101*
X175756Y293945*
X174961*
X216362Y297787D02*
X224362Y305787D01*
X216362D02*
X224362Y297787D01*
X216362Y287787D02*
X224362Y295787D01*
X216362D02*
X224362Y287787D01*
X216362Y277787D02*
X224362Y285787D01*
X216362D02*
X224362Y277787D01*
X216362Y267787D02*
X224362Y275787D01*
X216362D02*
X224362Y267787D01*
X216362Y257787D02*
X224362Y265787D01*
X216362D02*
X224362Y257787D01*
X216362Y247787D02*
X224362Y255787D01*
X216362D02*
X224362Y247787D01*
X234142Y278102D02*
X238142Y282102D01*
X234142Y286102*
X230142Y282102*
X234142Y278102*
Y282102D02*
Y286102D01*
Y288102D02*
X238142Y292102D01*
X234142Y296102*
X230142Y292102*
X234142Y288102*
Y292102D02*
Y296102D01*
Y298102D02*
X238142Y302102D01*
X234142Y306102*
X230142Y302102*
X234142Y298102*
Y302102D02*
Y306102D01*
Y244638D02*
X238142Y248638D01*
X234142Y252638*
X230142Y248638*
X234142Y244638*
Y248638D02*
Y252638D01*
Y254638D02*
X238142Y258638D01*
X234142Y262638*
X230142Y258638*
X234142Y254638*
Y258638D02*
Y262638D01*
Y264638D02*
X238142Y268638D01*
X234142Y272638*
X230142Y268638*
X234142Y264638*
Y268638D02*
Y272638D01*
X348094Y309441D02*
X356094Y317441D01*
X348094D02*
X356094Y309441D01*
X338094D02*
X346094Y317441D01*
X338094D02*
X346094Y309441D01*
X328094D02*
X336094Y317441D01*
X328094D02*
X336094Y309441D01*
X318094D02*
X326094Y317441D01*
X318094D02*
X326094Y309441D01*
X308094D02*
X316094Y317441D01*
X308094D02*
X316094Y309441D01*
X298094D02*
X306094Y317441D01*
X298094D02*
X306094Y309441D01*
X288094D02*
X296094Y317441D01*
X288094D02*
X296094Y309441D01*
X278094D02*
X286094Y317441D01*
X278094D02*
X286094Y309441D01*
X348094Y120780D02*
X356094Y128780D01*
X348094D02*
X356094Y120780D01*
X338094D02*
X346094Y128780D01*
X338094D02*
X346094Y120780D01*
X328094D02*
X336094Y128780D01*
X328094D02*
X336094Y120780D01*
X318094D02*
X326094Y128780D01*
X318094D02*
X326094Y120780D01*
X308094D02*
X316094Y128780D01*
X308094D02*
X316094Y120780D01*
X298094D02*
X306094Y128780D01*
X298094D02*
X306094Y120780D01*
X278094Y120623D02*
X286094Y128623D01*
X278094D02*
X286094Y120623D01*
X268094D02*
X276094Y128623D01*
X268094D02*
X276094Y120623D01*
X258094D02*
X266094Y128623D01*
X258094D02*
X266094Y120623D01*
X248094D02*
X256094Y128623D01*
X248094D02*
X256094Y120623D01*
X238094D02*
X246094Y128623D01*
X238094D02*
X246094Y120623D01*
X228094D02*
X236094Y128623D01*
X228094D02*
X236094Y120623D01*
X218094D02*
X226094Y128623D01*
X218094D02*
X226094Y120623D01*
X208094D02*
X216094Y128623D01*
X208094D02*
X216094Y120623D01*
X155402Y201331D02*
X159402Y205331D01*
X155402Y209331*
X151402Y205331*
X155402Y201331*
Y205331D02*
Y209331D01*
X145402Y201331D02*
X149402Y205331D01*
X145402Y209331*
X141402Y205331*
X145402Y201331*
Y205331D02*
Y209331D01*
X135402Y201331D02*
X139402Y205331D01*
X135402Y209331*
X131402Y205331*
X135402Y201331*
Y205331D02*
Y209331D01*
X338409Y252512D02*
X346409D01*
Y260512*
X338409*
Y252512*
X342409Y256512D02*
Y260512D01*
X338409Y272197D02*
X346409D01*
Y280197*
X338409*
Y272197*
X342409Y276197D02*
Y280197D01*
X338409Y291882D02*
X346409D01*
Y299882*
X338409*
Y291882*
X342409Y295882D02*
Y299882D01*
X303370Y248575D02*
X311370D01*
Y256575*
X303370*
Y248575*
X307370Y252575D02*
Y256575D01*
X303370Y295819D02*
X311370D01*
Y303819*
X303370*
Y295819*
X307370Y299819D02*
Y303819D01*
X255338Y295819D02*
X263338Y303819D01*
Y295819*
X255338Y303819*
Y295819*
X247464Y272197D02*
X255464D01*
Y280197*
X247464*
Y272197*
X251464Y276197D02*
Y280197D01*
X255338Y248575D02*
X263338Y256575D01*
Y248575*
X255338Y256575*
Y248575*
X338409Y140307D02*
X346409D01*
Y148307*
X338409*
Y140307*
X342409Y144307D02*
Y148307D01*
X338409Y159992D02*
X346409D01*
Y167992*
X338409*
Y159992*
X342409Y163992D02*
Y167992D01*
X303370Y185583D02*
X311370D01*
Y193583*
X303370*
Y185583*
X307370Y189583D02*
Y193583D01*
X303370Y232827D02*
X311370D01*
Y240827*
X303370*
Y232827*
X307370Y236827D02*
Y240827D01*
X255338Y232827D02*
X263338Y240827D01*
Y232827*
X255338Y240827*
Y232827*
X247464Y209205D02*
X255464D01*
Y217205*
X247464*
Y209205*
X251464Y213205D02*
Y217205D01*
X255338Y185583D02*
X263338Y193583D01*
Y185583*
X255338Y193583*
Y185583*
X182898Y163929D02*
X190898D01*
Y171929*
X182898*
Y163929*
X186898Y167929D02*
Y171929D01*
X153370Y163929D02*
X161370D01*
Y171929*
X153370*
Y163929*
X157370Y167929D02*
Y171929D01*
X226198Y220672D02*
X234198D01*
X230198Y216672D02*
Y224672D01*
X233903Y225172D02*
X233789Y225485D01*
X233562Y225797*
X233334Y225953*
X232880*
X232653Y225797*
X232425Y225485*
X232312Y225172*
X232198Y224703*
Y223922*
X232312Y223453*
X232425Y223141*
X232653Y222828*
X232880Y222672*
X233334*
X233562Y222828*
X233789Y223141*
X233903Y223453*
X218324Y220672D02*
X226324D01*
X222324Y216672D02*
Y224672D01*
X226029Y225172D02*
X225915Y225485D01*
X225688Y225797*
X225460Y225953*
X225006*
X224779Y225797*
X224551Y225485*
X224438Y225172*
X224324Y224703*
Y223922*
X224438Y223453*
X224551Y223141*
X224779Y222828*
X225006Y222672*
X225460*
X225688Y222828*
X225915Y223141*
X226029Y223453*
X263094Y309441D02*
X271094Y317441D01*
X263094D02*
X271094Y309441D01*
X253094D02*
X261094Y317441D01*
X253094D02*
X261094Y309441D01*
X243094D02*
X251094Y317441D01*
X243094D02*
X251094Y309441D01*
X233094D02*
X241094Y317441D01*
X233094D02*
X241094Y309441D01*
X223094D02*
X231094Y317441D01*
X223094D02*
X231094Y309441D01*
X213094D02*
X221094Y317441D01*
X213094D02*
X221094Y309441D01*
X203094D02*
X211094Y317441D01*
X203094D02*
X211094Y309441D01*
X193094D02*
X201094Y317441D01*
X193094D02*
X201094Y309441D01*
X183094D02*
X191094Y317441D01*
X183094D02*
X191094Y309441D01*
X173094D02*
X181094Y317441D01*
X173094D02*
X181094Y309441D01*
X312882Y138339D02*
X316882Y142339D01*
X312882Y146339*
X308882Y142339*
X312882Y138339*
Y142339D02*
Y146339D01*
Y148339D02*
X316882Y152339D01*
X312882Y156339*
X308882Y152339*
X312882Y148339*
Y152339D02*
Y156339D01*
Y158339D02*
X316882Y162339D01*
X312882Y166339*
X308882Y162339*
X312882Y158339*
Y162339D02*
Y166339D01*
X184276Y126591D02*
X192276D01*
X188276Y122591D02*
Y130591D01*
X177583Y126591D02*
X185583D01*
X181583Y122591D02*
Y130591D01*
X137031Y126591D02*
X145031D01*
X141031Y122591D02*
Y130591D01*
X130339Y126591D02*
X138339D01*
X134339Y122591D02*
Y130591D01*
X108685Y309661D02*
X116685D01*
X112685Y305661D02*
Y313661D01*
X115378Y309661D02*
X123378D01*
X119378Y305661D02*
Y313661D01*
X134276Y309661D02*
X142276D01*
X138276Y305661D02*
Y313661D01*
X140969Y309661D02*
X148969D01*
X144969Y305661D02*
Y313661D01*
X338409Y189520D02*
X346409D01*
Y197520*
X338409*
Y189520*
X342409Y193520D02*
Y197520D01*
X338409Y209205D02*
X346409D01*
Y217205*
X338409*
Y209205*
X342409Y213205D02*
Y217205D01*
X338409Y228890D02*
X346409D01*
Y236890*
X338409*
Y228890*
X342409Y232890D02*
Y236890D01*
X102252Y118717D02*
Y319504D01*
X106189Y323441*
X354220*
X362094Y315567*
Y272260*
X371937Y262417*
Y134465*
X362094Y124622*
Y116748*
X360126Y114780*
X106189*
X102252Y118717*
X167213Y313598D02*
G03X167213I-5906J0D01*
G01Y124622D02*
G03X167213I-5906J0D01*
G01X368000Y146276D02*
G03X368000I-5906J0D01*
G01Y252575D02*
G03X368000I-5906J0D01*
G01X222173Y219110D02*
X242173D01*
X232173Y229110D02*
Y209110D01*
X390154Y364500D02*
X648154D01*
X390154Y340500D02*
X648154D01*
X390154Y316500D02*
X648154D01*
X390154Y292500D02*
X648154D01*
X390154Y268500D02*
X648154D01*
X390154Y244500D02*
X648154D01*
X390154Y220500D02*
X648154D01*
X390154Y196500D02*
X648154D01*
X390154Y172500D02*
X648154D01*
X390154Y148500D02*
X648154D01*
X390154Y124500D02*
X648154D01*
X390154Y100500D02*
X648154D01*
X390154Y364500D02*
Y100500D01*
X474154Y364500D02*
Y100500D01*
X510154Y364500D02*
Y100500D01*
X546154Y364500D02*
Y100500D01*
X600154Y364500D02*
Y100500D01*
X648154Y364500D02*
Y100500D01*
X425654Y353250D02*
X425108Y354000D01*
X424290Y354375*
X423199*
X422381Y354000*
X421835Y353250*
Y352500*
X422108Y351750*
X422381Y351375*
X422926Y351000*
X424563Y350250*
X425108Y349875*
X425381Y349500*
X425654Y348750*
Y347625*
X425108Y346875*
X424290Y346500*
X423199*
X422381Y346875*
X421835Y347625*
X428108Y354375D02*
Y346500D01*
X434381Y354375D02*
X430563Y346500D01*
Y354375D02*
X434381D01*
X430563Y346500D02*
X434381D01*
X436835Y354375D02*
Y346500D01*
Y354375D02*
X440381D01*
X436835Y350625D02*
X439017D01*
X436835Y346500D02*
X440381D01*
X484017Y354375D02*
X483472Y354000D01*
X482926Y353250*
X482654Y352500*
X482381Y351375*
Y349500*
X482654Y348375*
X482926Y347625*
X483472Y346875*
X484017Y346500*
X485108*
X485654Y346875*
X486199Y347625*
X486472Y348375*
X486744Y349500*
Y351375*
X486472Y352500*
X486199Y353250*
X485654Y354000*
X485108Y354375*
X484017*
X484835Y348000D02*
X486472Y345750D01*
X491108Y354375D02*
Y346500D01*
X489199Y354375D02*
X493017D01*
X495472D02*
X497654Y350625D01*
Y346500*
X499835Y354375D02*
X497654Y350625D01*
X522199Y353250D02*
X521654Y354000D01*
X520835Y354375*
X519744*
X518926Y354000*
X518381Y353250*
Y352500*
X518654Y351750*
X518926Y351375*
X519472Y351000*
X521108Y350250*
X521654Y349875*
X521926Y349500*
X522199Y348750*
Y347625*
X521654Y346875*
X520835Y346500*
X519744*
X518926Y346875*
X518381Y347625*
X524654Y354375D02*
X526835Y350625D01*
Y346500*
X529017Y354375D02*
X526835Y350625D01*
X531472Y354375D02*
Y346500D01*
Y354375D02*
X533654Y346500D01*
X535835Y354375D02*
X533654Y346500D01*
X535835Y354375D02*
Y346500D01*
X557654Y354375D02*
Y346500D01*
Y354375D02*
X560108D01*
X560926Y354000*
X561199Y353625*
X561472Y352875*
Y351750*
X561199Y351000*
X560926Y350625*
X560108Y350250*
X557654*
X563926Y354375D02*
Y346500D01*
X567199*
X571835Y354375D02*
X569654Y346500D01*
X571835Y354375D02*
X574017Y346500D01*
X570472Y349125D02*
X573199D01*
X578381Y354375D02*
Y346500D01*
X576472Y354375D02*
X580290D01*
X582744D02*
Y346500D01*
Y354375D02*
X586290D01*
X582744Y350625D02*
X584926D01*
X582744Y346500D02*
X586290D01*
X588744Y354375D02*
Y346500D01*
Y354375D02*
X590654D01*
X591472Y354000*
X592017Y353250*
X592290Y352500*
X592563Y351375*
Y349500*
X592290Y348375*
X592017Y347625*
X591472Y346875*
X590654Y346500*
X588744*
X616835Y354375D02*
Y346500D01*
X614926Y354375D02*
X618744D01*
X622835D02*
X622290Y354000D01*
X621744Y353250*
X621472Y352500*
X621199Y351375*
Y349500*
X621472Y348375*
X621744Y347625*
X622290Y346875*
X622835Y346500*
X623926*
X624472Y346875*
X625017Y347625*
X625290Y348375*
X625563Y349500*
Y351375*
X625290Y352500*
X625017Y353250*
X624472Y354000*
X623926Y354375*
X622835*
X628017D02*
Y346500D01*
X631290*
X396426Y328500D02*
Y328875D01*
X396699Y329625*
X396972Y330000*
X397517Y330375*
X398608*
X399154Y330000*
X399426Y329625*
X399699Y328875*
Y328125*
X399426Y327375*
X398881Y326250*
X396154Y322500*
X399972*
X405972Y327750D02*
X405699Y326625D01*
X405154Y325875*
X404335Y325500*
X404063*
X403244Y325875*
X402699Y326625*
X402426Y327750*
Y328125*
X402699Y329250*
X403244Y330000*
X404063Y330375*
X404335*
X405154Y330000*
X405699Y329250*
X405972Y327750*
Y325875*
X405699Y324000*
X405154Y322875*
X404335Y322500*
X403790*
X402972Y322875*
X402699Y323625*
X408699Y323250D02*
X408426Y322875D01*
X408699Y322500*
X408972Y322875*
X408699Y323250*
X414972Y330375D02*
X412244D01*
X411972Y327000*
X412244Y327375*
X413063Y327750*
X413881*
X414699Y327375*
X415244Y326625*
X415517Y325500*
X415244Y324750*
X414972Y323625*
X414426Y322875*
X413608Y322500*
X412790*
X411972Y322875*
X411699Y323250*
X411426Y324000*
X418517Y330375D02*
X421517D01*
X419881Y327375*
X420699*
X421244Y327000*
X421517Y326625*
X421790Y325500*
Y324750*
X421517Y323625*
X420972Y322875*
X420154Y322500*
X419335*
X418517Y322875*
X418244Y323250*
X417972Y324000*
X490563Y330375D02*
X489744Y330000D01*
X489472Y329250*
Y328500*
X489744Y327750*
X490290Y327375*
X491381Y327000*
X492199Y326625*
X492744Y325875*
X493017Y325125*
Y324000*
X492744Y323250*
X492472Y322875*
X491654Y322500*
X490563*
X489744Y322875*
X489472Y323250*
X489199Y324000*
Y325125*
X489472Y325875*
X490017Y326625*
X490835Y327000*
X491926Y327375*
X492472Y327750*
X492744Y328500*
Y329250*
X492472Y330000*
X491654Y330375*
X490563*
X522154Y328500D02*
X534154D01*
X528154Y322500D02*
Y334500D01*
X554790Y330375D02*
X556972Y326625D01*
Y322500*
X559154Y330375D02*
X556972Y326625D01*
X561608Y330375D02*
Y322500D01*
Y330375D02*
X565154D01*
X561608Y326625D02*
X563790D01*
X561608Y322500D02*
X565154D01*
X571426Y329250D02*
X570881Y330000D01*
X570063Y330375*
X568972*
X568154Y330000*
X567608Y329250*
Y328500*
X567881Y327750*
X568154Y327375*
X568699Y327000*
X570335Y326250*
X570881Y325875*
X571154Y325500*
X571426Y324750*
Y323625*
X570881Y322875*
X570063Y322500*
X568972*
X568154Y322875*
X567608Y323625*
X607972Y329250D02*
Y322500D01*
X605517Y325875D02*
X610426D01*
X617790Y331875D02*
X612881Y319875D01*
X620244Y325875D02*
X625154D01*
X629244Y330375D02*
X628426Y330000D01*
X627881Y328875*
X627608Y327000*
Y325875*
X627881Y324000*
X628426Y322875*
X629244Y322500*
X629790*
X630608Y322875*
X631154Y324000*
X631426Y325875*
Y327000*
X631154Y328875*
X630608Y330000*
X629790Y330375*
X629244*
X634154Y323250D02*
X633881Y322875D01*
X634154Y322500*
X634426Y322875*
X634154Y323250*
X638517Y330375D02*
X637699Y330000D01*
X637154Y328875*
X636881Y327000*
Y325875*
X637154Y324000*
X637699Y322875*
X638517Y322500*
X639063*
X639881Y322875*
X640426Y324000*
X640699Y325875*
Y327000*
X640426Y328875*
X639881Y330000*
X639063Y330375*
X638517*
X396699Y306375D02*
X399699D01*
X398063Y303375*
X398881*
X399426Y303000*
X399699Y302625*
X399972Y301500*
Y300750*
X399699Y299625*
X399154Y298875*
X398335Y298500*
X397517*
X396699Y298875*
X396426Y299250*
X396154Y300000*
X405972Y306375D02*
X403244D01*
X402972Y303000*
X403244Y303375*
X404063Y303750*
X404881*
X405699Y303375*
X406244Y302625*
X406517Y301500*
X406244Y300750*
X405972Y299625*
X405426Y298875*
X404608Y298500*
X403790*
X402972Y298875*
X402699Y299250*
X402426Y300000*
X409244Y299250D02*
X408972Y298875D01*
X409244Y298500*
X409517Y298875*
X409244Y299250*
X414699Y306375D02*
X411972Y301125D01*
X416063*
X414699Y306375D02*
Y298500D01*
X419063Y306375D02*
X422063D01*
X420426Y303375*
X421244*
X421790Y303000*
X422063Y302625*
X422335Y301500*
Y300750*
X422063Y299625*
X421517Y298875*
X420699Y298500*
X419881*
X419063Y298875*
X418790Y299250*
X418517Y300000*
X489335Y306375D02*
X486608D01*
X486335Y303000*
X486608Y303375*
X487426Y303750*
X488244*
X489063Y303375*
X489608Y302625*
X489881Y301500*
X489608Y300750*
X489335Y299625*
X488790Y298875*
X487972Y298500*
X487154*
X486335Y298875*
X486063Y299250*
X485790Y300000*
X495063Y306375D02*
X492335Y301125D01*
X496426*
X495063Y306375D02*
Y298500D01*
X522154D02*
X534154Y310500D01*
X522154D02*
X534154Y298500D01*
X554790Y306375D02*
X556972Y302625D01*
Y298500*
X559154Y306375D02*
X556972Y302625D01*
X561608Y306375D02*
Y298500D01*
Y306375D02*
X565154D01*
X561608Y302625D02*
X563790D01*
X561608Y298500D02*
X565154D01*
X571426Y305250D02*
X570881Y306000D01*
X570063Y306375*
X568972*
X568154Y306000*
X567608Y305250*
Y304500*
X567881Y303750*
X568154Y303375*
X568699Y303000*
X570335Y302250*
X570881Y301875*
X571154Y301500*
X571426Y300750*
Y299625*
X570881Y298875*
X570063Y298500*
X568972*
X568154Y298875*
X567608Y299625*
X607972Y305250D02*
Y298500D01*
X605517Y301875D02*
X610426D01*
X617790Y307875D02*
X612881Y295875D01*
X620244Y301875D02*
X625154D01*
X629244Y306375D02*
X628426Y306000D01*
X627881Y304875*
X627608Y303000*
Y301875*
X627881Y300000*
X628426Y298875*
X629244Y298500*
X629790*
X630608Y298875*
X631154Y300000*
X631426Y301875*
Y303000*
X631154Y304875*
X630608Y306000*
X629790Y306375*
X629244*
X634154Y299250D02*
X633881Y298875D01*
X634154Y298500*
X634426Y298875*
X634154Y299250*
X638517Y306375D02*
X637699Y306000D01*
X637154Y304875*
X636881Y303000*
Y301875*
X637154Y300000*
X637699Y298875*
X638517Y298500*
X639063*
X639881Y298875*
X640426Y300000*
X640699Y301875*
Y303000*
X640426Y304875*
X639881Y306000*
X639063Y306375*
X638517*
X398881Y282375D02*
X396154Y277125D01*
X400244*
X398881Y282375D02*
Y274500D01*
X406517Y282375D02*
X403790Y274500D01*
X402699Y282375D02*
X406517D01*
X409244Y275250D02*
X408972Y274875D01*
X409244Y274500*
X409517Y274875*
X409244Y275250*
X412244Y280500D02*
Y280875D01*
X412517Y281625*
X412790Y282000*
X413335Y282375*
X414426*
X414972Y282000*
X415244Y281625*
X415517Y280875*
Y280125*
X415244Y279375*
X414699Y278250*
X411972Y274500*
X415790*
X420972Y282375D02*
X418244Y277125D01*
X422335*
X420972Y282375D02*
Y274500D01*
X487290Y280875D02*
X487835Y281250D01*
X488654Y282375*
Y274500*
X492472Y282375D02*
X491654Y282000D01*
X491381Y281250*
Y280500*
X491654Y279750*
X492199Y279375*
X493290Y279000*
X494108Y278625*
X494654Y277875*
X494926Y277125*
Y276000*
X494654Y275250*
X494381Y274875*
X493563Y274500*
X492472*
X491654Y274875*
X491381Y275250*
X491108Y276000*
Y277125*
X491381Y277875*
X491926Y278625*
X492744Y279000*
X493835Y279375*
X494381Y279750*
X494654Y280500*
Y281250*
X494381Y282000*
X493563Y282375*
X492472*
X522154Y274500D02*
X534154D01*
Y286500*
X522154*
Y274500*
X528154Y280500D02*
Y286500D01*
X554790Y282375D02*
X556972Y278625D01*
Y274500*
X559154Y282375D02*
X556972Y278625D01*
X561608Y282375D02*
Y274500D01*
Y282375D02*
X565154D01*
X561608Y278625D02*
X563790D01*
X561608Y274500D02*
X565154D01*
X571426Y281250D02*
X570881Y282000D01*
X570063Y282375*
X568972*
X568154Y282000*
X567608Y281250*
Y280500*
X567881Y279750*
X568154Y279375*
X568699Y279000*
X570335Y278250*
X570881Y277875*
X571154Y277500*
X571426Y276750*
Y275625*
X570881Y274875*
X570063Y274500*
X568972*
X568154Y274875*
X567608Y275625*
X607972Y281250D02*
Y274500D01*
X605517Y277875D02*
X610426D01*
X617790Y283875D02*
X612881Y271875D01*
X620244Y277875D02*
X625154D01*
X629244Y282375D02*
X628426Y282000D01*
X627881Y280875*
X627608Y279000*
Y277875*
X627881Y276000*
X628426Y274875*
X629244Y274500*
X629790*
X630608Y274875*
X631154Y276000*
X631426Y277875*
Y279000*
X631154Y280875*
X630608Y282000*
X629790Y282375*
X629244*
X634154Y275250D02*
X633881Y274875D01*
X634154Y274500*
X634426Y274875*
X634154Y275250*
X638517Y282375D02*
X637699Y282000D01*
X637154Y280875*
X636881Y279000*
Y277875*
X637154Y276000*
X637699Y274875*
X638517Y274500*
X639063*
X639881Y274875*
X640426Y276000*
X640699Y277875*
Y279000*
X640426Y280875*
X639881Y282000*
X639063Y282375*
X638517*
X396699Y258375D02*
X399699D01*
X398063Y255375*
X398881*
X399426Y255000*
X399699Y254625*
X399972Y253500*
Y252750*
X399699Y251625*
X399154Y250875*
X398335Y250500*
X397517*
X396699Y250875*
X396426Y251250*
X396154Y252000*
X405972Y258375D02*
X403244D01*
X402972Y255000*
X403244Y255375*
X404063Y255750*
X404881*
X405699Y255375*
X406244Y254625*
X406517Y253500*
X406244Y252750*
X405972Y251625*
X405426Y250875*
X404608Y250500*
X403790*
X402972Y250875*
X402699Y251250*
X402426Y252000*
X487290Y256875D02*
X487835Y257250D01*
X488654Y258375*
Y250500*
X491381Y256500D02*
Y256875D01*
X491654Y257625*
X491926Y258000*
X492472Y258375*
X493563*
X494108Y258000*
X494381Y257625*
X494654Y256875*
Y256125*
X494381Y255375*
X493835Y254250*
X491108Y250500*
X494926*
X528154D02*
X534154Y256500D01*
X528154Y262500*
X522154Y256500*
X528154Y250500*
Y256500D02*
Y262500D01*
X554790Y258375D02*
X556972Y254625D01*
Y250500*
X559154Y258375D02*
X556972Y254625D01*
X561608Y258375D02*
Y250500D01*
Y258375D02*
X565154D01*
X561608Y254625D02*
X563790D01*
X561608Y250500D02*
X565154D01*
X571426Y257250D02*
X570881Y258000D01*
X570063Y258375*
X568972*
X568154Y258000*
X567608Y257250*
Y256500*
X567881Y255750*
X568154Y255375*
X568699Y255000*
X570335Y254250*
X570881Y253875*
X571154Y253500*
X571426Y252750*
Y251625*
X570881Y250875*
X570063Y250500*
X568972*
X568154Y250875*
X567608Y251625*
X607972Y257250D02*
Y250500D01*
X605517Y253875D02*
X610426D01*
X617790Y259875D02*
X612881Y247875D01*
X620244Y253875D02*
X625154D01*
X629244Y258375D02*
X628426Y258000D01*
X627881Y256875*
X627608Y255000*
Y253875*
X627881Y252000*
X628426Y250875*
X629244Y250500*
X629790*
X630608Y250875*
X631154Y252000*
X631426Y253875*
Y255000*
X631154Y256875*
X630608Y258000*
X629790Y258375*
X629244*
X634154Y251250D02*
X633881Y250875D01*
X634154Y250500*
X634426Y250875*
X634154Y251250*
X638517Y258375D02*
X637699Y258000D01*
X637154Y256875*
X636881Y255000*
Y253875*
X637154Y252000*
X637699Y250875*
X638517Y250500*
X639063*
X639881Y250875*
X640426Y252000*
X640699Y253875*
Y255000*
X640426Y256875*
X639881Y258000*
X639063Y258375*
X638517*
X399972Y234375D02*
X397244Y226500D01*
X396154Y234375D02*
X399972D01*
X403790D02*
X402972Y234000D01*
X402699Y233250*
Y232500*
X402972Y231750*
X403517Y231375*
X404608Y231000*
X405426Y230625*
X405972Y229875*
X406244Y229125*
Y228000*
X405972Y227250*
X405699Y226875*
X404881Y226500*
X403790*
X402972Y226875*
X402699Y227250*
X402426Y228000*
Y229125*
X402699Y229875*
X403244Y230625*
X404063Y231000*
X405154Y231375*
X405699Y231750*
X405972Y232500*
Y233250*
X405699Y234000*
X404881Y234375*
X403790*
X408972Y227250D02*
X408699Y226875D01*
X408972Y226500*
X409244Y226875*
X408972Y227250*
X415517Y234375D02*
X412790Y226500D01*
X411699Y234375D02*
X415517D01*
X420699D02*
X417972Y229125D01*
X422063*
X420699Y234375D02*
Y226500D01*
X491790Y234375D02*
X489063Y229125D01*
X493154*
X491790Y234375D02*
Y226500D01*
X522154D02*
X534154D01*
X522154Y238500*
X534154*
X522154Y226500*
X554790Y234375D02*
X556972Y230625D01*
Y226500*
X559154Y234375D02*
X556972Y230625D01*
X561608Y234375D02*
Y226500D01*
Y234375D02*
X565154D01*
X561608Y230625D02*
X563790D01*
X561608Y226500D02*
X565154D01*
X571426Y233250D02*
X570881Y234000D01*
X570063Y234375*
X568972*
X568154Y234000*
X567608Y233250*
Y232500*
X567881Y231750*
X568154Y231375*
X568699Y231000*
X570335Y230250*
X570881Y229875*
X571154Y229500*
X571426Y228750*
Y227625*
X570881Y226875*
X570063Y226500*
X568972*
X568154Y226875*
X567608Y227625*
X607972Y233250D02*
Y226500D01*
X605517Y229875D02*
X610426D01*
X617790Y235875D02*
X612881Y223875D01*
X620244Y229875D02*
X625154D01*
X629244Y234375D02*
X628426Y234000D01*
X627881Y232875*
X627608Y231000*
Y229875*
X627881Y228000*
X628426Y226875*
X629244Y226500*
X629790*
X630608Y226875*
X631154Y228000*
X631426Y229875*
Y231000*
X631154Y232875*
X630608Y234000*
X629790Y234375*
X629244*
X634154Y227250D02*
X633881Y226875D01*
X634154Y226500*
X634426Y226875*
X634154Y227250*
X638517Y234375D02*
X637699Y234000D01*
X637154Y232875*
X636881Y231000*
Y229875*
X637154Y228000*
X637699Y226875*
X638517Y226500*
X639063*
X639881Y226875*
X640426Y228000*
X640699Y229875*
Y231000*
X640426Y232875*
X639881Y234000*
X639063Y234375*
X638517*
X398881Y210375D02*
X396154Y205125D01*
X400244*
X398881Y210375D02*
Y202500D01*
X403244Y210375D02*
X406244D01*
X404608Y207375*
X405426*
X405972Y207000*
X406244Y206625*
X406517Y205500*
Y204750*
X406244Y203625*
X405699Y202875*
X404881Y202500*
X404063*
X403244Y202875*
X402972Y203250*
X402699Y204000*
X409244Y203250D02*
X408972Y202875D01*
X409244Y202500*
X409517Y202875*
X409244Y203250*
X412517Y210375D02*
X415517D01*
X413881Y207375*
X414699*
X415244Y207000*
X415517Y206625*
X415790Y205500*
Y204750*
X415517Y203625*
X414972Y202875*
X414154Y202500*
X413335*
X412517Y202875*
X412244Y203250*
X411972Y204000*
X418244Y208875D02*
X418790Y209250D01*
X419608Y210375*
Y202500*
X491790Y210375D02*
X489063Y205125D01*
X493154*
X491790Y210375D02*
Y202500D01*
X522154D02*
X534154Y214500D01*
Y202500*
X522154Y214500*
Y202500*
X554790Y210375D02*
X556972Y206625D01*
Y202500*
X559154Y210375D02*
X556972Y206625D01*
X561608Y210375D02*
Y202500D01*
Y210375D02*
X565154D01*
X561608Y206625D02*
X563790D01*
X561608Y202500D02*
X565154D01*
X571426Y209250D02*
X570881Y210000D01*
X570063Y210375*
X568972*
X568154Y210000*
X567608Y209250*
Y208500*
X567881Y207750*
X568154Y207375*
X568699Y207000*
X570335Y206250*
X570881Y205875*
X571154Y205500*
X571426Y204750*
Y203625*
X570881Y202875*
X570063Y202500*
X568972*
X568154Y202875*
X567608Y203625*
X607972Y209250D02*
Y202500D01*
X605517Y205875D02*
X610426D01*
X617790Y211875D02*
X612881Y199875D01*
X620244Y205875D02*
X625154D01*
X629244Y210375D02*
X628426Y210000D01*
X627881Y208875*
X627608Y207000*
Y205875*
X627881Y204000*
X628426Y202875*
X629244Y202500*
X629790*
X630608Y202875*
X631154Y204000*
X631426Y205875*
Y207000*
X631154Y208875*
X630608Y210000*
X629790Y210375*
X629244*
X634154Y203250D02*
X633881Y202875D01*
X634154Y202500*
X634426Y202875*
X634154Y203250*
X638517Y210375D02*
X637699Y210000D01*
X637154Y208875*
X636881Y207000*
Y205875*
X637154Y204000*
X637699Y202875*
X638517Y202500*
X639063*
X639881Y202875*
X640426Y204000*
X640699Y205875*
Y207000*
X640426Y208875*
X639881Y210000*
X639063Y210375*
X638517*
X396154Y184875D02*
X396699Y185250D01*
X397517Y186375*
Y178500*
X403517Y183750D02*
X403244Y182625D01*
X402699Y181875*
X401881Y181500*
X401608*
X400790Y181875*
X400244Y182625*
X399972Y183750*
Y184125*
X400244Y185250*
X400790Y186000*
X401608Y186375*
X401881*
X402699Y186000*
X403244Y185250*
X403517Y183750*
Y181875*
X403244Y180000*
X402699Y178875*
X401881Y178500*
X401335*
X400517Y178875*
X400244Y179625*
X406244Y179250D02*
X405972Y178875D01*
X406244Y178500*
X406517Y178875*
X406244Y179250*
X412244Y185250D02*
X411972Y186000D01*
X411154Y186375*
X410608*
X409790Y186000*
X409244Y184875*
X408972Y183000*
Y181125*
X409244Y179625*
X409790Y178875*
X410608Y178500*
X410881*
X411699Y178875*
X412244Y179625*
X412517Y180750*
Y181125*
X412244Y182250*
X411699Y183000*
X410881Y183375*
X410608*
X409790Y183000*
X409244Y182250*
X408972Y181125*
X416335Y186375D02*
X415517Y186000D01*
X415244Y185250*
Y184500*
X415517Y183750*
X416063Y183375*
X417154Y183000*
X417972Y182625*
X418517Y181875*
X418790Y181125*
Y180000*
X418517Y179250*
X418244Y178875*
X417426Y178500*
X416335*
X415517Y178875*
X415244Y179250*
X414972Y180000*
Y181125*
X415244Y181875*
X415790Y182625*
X416608Y183000*
X417699Y183375*
X418244Y183750*
X418517Y184500*
Y185250*
X418244Y186000*
X417426Y186375*
X416335*
X427517Y183750D02*
X430517Y178500D01*
Y183750D02*
X427517Y178500D01*
X442790Y186375D02*
X440063D01*
X439790Y183000*
X440063Y183375*
X440881Y183750*
X441699*
X442517Y183375*
X443063Y182625*
X443335Y181500*
X443063Y180750*
X442790Y179625*
X442244Y178875*
X441426Y178500*
X440608*
X439790Y178875*
X439517Y179250*
X439244Y180000*
X445790Y184875D02*
X446335Y185250D01*
X447154Y186375*
Y178500*
X449881Y179250D02*
X449608Y178875D01*
X449881Y178500*
X450154Y178875*
X449881Y179250*
X452608Y184875D02*
X453154Y185250D01*
X453972Y186375*
Y178500*
X457790Y186375D02*
X456972Y186000D01*
X456699Y185250*
Y184500*
X456972Y183750*
X457517Y183375*
X458608Y183000*
X459426Y182625*
X459972Y181875*
X460244Y181125*
Y180000*
X459972Y179250*
X459699Y178875*
X458881Y178500*
X457790*
X456972Y178875*
X456699Y179250*
X456426Y180000*
Y181125*
X456699Y181875*
X457244Y182625*
X458063Y183000*
X459154Y183375*
X459699Y183750*
X459972Y184500*
Y185250*
X459699Y186000*
X458881Y186375*
X457790*
X489472Y184500D02*
Y184875D01*
X489744Y185625*
X490017Y186000*
X490563Y186375*
X491654*
X492199Y186000*
X492472Y185625*
X492744Y184875*
Y184125*
X492472Y183375*
X491926Y182250*
X489199Y178500*
X493017*
X522154Y184500D02*
X534154D01*
X528154Y178500D02*
Y190500D01*
X532899Y193800D02*
X531154Y187500D01*
X532899Y193800D02*
X534644Y187500D01*
X531808Y189600D02*
X533990D01*
X554790Y186375D02*
X556972Y182625D01*
Y178500*
X559154Y186375D02*
X556972Y182625D01*
X561608Y186375D02*
Y178500D01*
Y186375D02*
X565154D01*
X561608Y182625D02*
X563790D01*
X561608Y178500D02*
X565154D01*
X571426Y185250D02*
X570881Y186000D01*
X570063Y186375*
X568972*
X568154Y186000*
X567608Y185250*
Y184500*
X567881Y183750*
X568154Y183375*
X568699Y183000*
X570335Y182250*
X570881Y181875*
X571154Y181500*
X571426Y180750*
Y179625*
X570881Y178875*
X570063Y178500*
X568972*
X568154Y178875*
X567608Y179625*
X607972Y185250D02*
Y178500D01*
X605517Y181875D02*
X610426D01*
X617790Y187875D02*
X612881Y175875D01*
X620244Y181875D02*
X625154D01*
X629244Y186375D02*
X628426Y186000D01*
X627881Y184875*
X627608Y183000*
Y181875*
X627881Y180000*
X628426Y178875*
X629244Y178500*
X629790*
X630608Y178875*
X631154Y180000*
X631426Y181875*
Y183000*
X631154Y184875*
X630608Y186000*
X629790Y186375*
X629244*
X634154Y179250D02*
X633881Y178875D01*
X634154Y178500*
X634426Y178875*
X634154Y179250*
X638517Y186375D02*
X637699Y186000D01*
X637154Y184875*
X636881Y183000*
Y181875*
X637154Y180000*
X637699Y178875*
X638517Y178500*
X639063*
X639881Y178875*
X640426Y180000*
X640699Y181875*
Y183000*
X640426Y184875*
X639881Y186000*
X639063Y186375*
X638517*
X396426Y160500D02*
Y160875D01*
X396699Y161625*
X396972Y162000*
X397517Y162375*
X398608*
X399154Y162000*
X399426Y161625*
X399699Y160875*
Y160125*
X399426Y159375*
X398881Y158250*
X396154Y154500*
X399972*
X402972Y162375D02*
X405972D01*
X404335Y159375*
X405154*
X405699Y159000*
X405972Y158625*
X406244Y157500*
Y156750*
X405972Y155625*
X405426Y154875*
X404608Y154500*
X403790*
X402972Y154875*
X402699Y155250*
X402426Y156000*
X408972Y155250D02*
X408699Y154875D01*
X408972Y154500*
X409244Y154875*
X408972Y155250*
X414972Y161250D02*
X414699Y162000D01*
X413881Y162375*
X413335*
X412517Y162000*
X411972Y160875*
X411699Y159000*
Y157125*
X411972Y155625*
X412517Y154875*
X413335Y154500*
X413608*
X414426Y154875*
X414972Y155625*
X415244Y156750*
Y157125*
X414972Y158250*
X414426Y159000*
X413608Y159375*
X413335*
X412517Y159000*
X411972Y158250*
X411699Y157125*
X417972Y160500D02*
Y160875D01*
X418244Y161625*
X418517Y162000*
X419063Y162375*
X420154*
X420699Y162000*
X420972Y161625*
X421244Y160875*
Y160125*
X420972Y159375*
X420426Y158250*
X417699Y154500*
X421517*
X489472Y160500D02*
Y160875D01*
X489744Y161625*
X490017Y162000*
X490563Y162375*
X491654*
X492199Y162000*
X492472Y161625*
X492744Y160875*
Y160125*
X492472Y159375*
X491926Y158250*
X489199Y154500*
X493017*
X522154Y160500D02*
X534154D01*
X528154Y154500D02*
Y166500D01*
X531154Y169800D02*
Y163500D01*
Y169800D02*
X533117D01*
X533772Y169500*
X533990Y169200*
X534208Y168600*
Y168000*
X533990Y167400*
X533772Y167100*
X533117Y166800*
X531154D02*
X533117D01*
X533772Y166500*
X533990Y166200*
X534208Y165600*
Y164700*
X533990Y164100*
X533772Y163800*
X533117Y163500*
X531154*
X554790Y162375D02*
X556972Y158625D01*
Y154500*
X559154Y162375D02*
X556972Y158625D01*
X561608Y162375D02*
Y154500D01*
Y162375D02*
X565154D01*
X561608Y158625D02*
X563790D01*
X561608Y154500D02*
X565154D01*
X571426Y161250D02*
X570881Y162000D01*
X570063Y162375*
X568972*
X568154Y162000*
X567608Y161250*
Y160500*
X567881Y159750*
X568154Y159375*
X568699Y159000*
X570335Y158250*
X570881Y157875*
X571154Y157500*
X571426Y156750*
Y155625*
X570881Y154875*
X570063Y154500*
X568972*
X568154Y154875*
X567608Y155625*
X607972Y161250D02*
Y154500D01*
X605517Y157875D02*
X610426D01*
X617790Y163875D02*
X612881Y151875D01*
X620244Y157875D02*
X625154D01*
X629244Y162375D02*
X628426Y162000D01*
X627881Y160875*
X627608Y159000*
Y157875*
X627881Y156000*
X628426Y154875*
X629244Y154500*
X629790*
X630608Y154875*
X631154Y156000*
X631426Y157875*
Y159000*
X631154Y160875*
X630608Y162000*
X629790Y162375*
X629244*
X634154Y155250D02*
X633881Y154875D01*
X634154Y154500*
X634426Y154875*
X634154Y155250*
X638517Y162375D02*
X637699Y162000D01*
X637154Y160875*
X636881Y159000*
Y157875*
X637154Y156000*
X637699Y154875*
X638517Y154500*
X639063*
X639881Y154875*
X640426Y156000*
X640699Y157875*
Y159000*
X640426Y160875*
X639881Y162000*
X639063Y162375*
X638517*
X396154Y136875D02*
X396699Y137250D01*
X397517Y138375*
Y130500*
X403517Y135750D02*
X403244Y134625D01*
X402699Y133875*
X401881Y133500*
X401608*
X400790Y133875*
X400244Y134625*
X399972Y135750*
Y136125*
X400244Y137250*
X400790Y138000*
X401608Y138375*
X401881*
X402699Y138000*
X403244Y137250*
X403517Y135750*
Y133875*
X403244Y132000*
X402699Y130875*
X401881Y130500*
X401335*
X400517Y130875*
X400244Y131625*
X406244Y131250D02*
X405972Y130875D01*
X406244Y130500*
X406517Y130875*
X406244Y131250*
X412244Y137250D02*
X411972Y138000D01*
X411154Y138375*
X410608*
X409790Y138000*
X409244Y136875*
X408972Y135000*
Y133125*
X409244Y131625*
X409790Y130875*
X410608Y130500*
X410881*
X411699Y130875*
X412244Y131625*
X412517Y132750*
Y133125*
X412244Y134250*
X411699Y135000*
X410881Y135375*
X410608*
X409790Y135000*
X409244Y134250*
X408972Y133125*
X416335Y138375D02*
X415517Y138000D01*
X415244Y137250*
Y136500*
X415517Y135750*
X416063Y135375*
X417154Y135000*
X417972Y134625*
X418517Y133875*
X418790Y133125*
Y132000*
X418517Y131250*
X418244Y130875*
X417426Y130500*
X416335*
X415517Y130875*
X415244Y131250*
X414972Y132000*
Y133125*
X415244Y133875*
X415790Y134625*
X416608Y135000*
X417699Y135375*
X418244Y135750*
X418517Y136500*
Y137250*
X418244Y138000*
X417426Y138375*
X416335*
X489472Y136500D02*
Y136875D01*
X489744Y137625*
X490017Y138000*
X490563Y138375*
X491654*
X492199Y138000*
X492472Y137625*
X492744Y136875*
Y136125*
X492472Y135375*
X491926Y134250*
X489199Y130500*
X493017*
X522154Y136500D02*
X534154D01*
X528154Y130500D02*
Y142500D01*
X534426Y144300D02*
X534208Y144900D01*
X533772Y145500*
X533335Y145800*
X532463*
X532026Y145500*
X531590Y144900*
X531372Y144300*
X531154Y143400*
Y141900*
X531372Y141000*
X531590Y140400*
X532026Y139800*
X532463Y139500*
X533335*
X533772Y139800*
X534208Y140400*
X534426Y141000*
X554790Y138375D02*
X556972Y134625D01*
Y130500*
X559154Y138375D02*
X556972Y134625D01*
X561608Y138375D02*
Y130500D01*
Y138375D02*
X565154D01*
X561608Y134625D02*
X563790D01*
X561608Y130500D02*
X565154D01*
X571426Y137250D02*
X570881Y138000D01*
X570063Y138375*
X568972*
X568154Y138000*
X567608Y137250*
Y136500*
X567881Y135750*
X568154Y135375*
X568699Y135000*
X570335Y134250*
X570881Y133875*
X571154Y133500*
X571426Y132750*
Y131625*
X570881Y130875*
X570063Y130500*
X568972*
X568154Y130875*
X567608Y131625*
X607972Y137250D02*
Y130500D01*
X605517Y133875D02*
X610426D01*
X617790Y139875D02*
X612881Y127875D01*
X620244Y133875D02*
X625154D01*
X629244Y138375D02*
X628426Y138000D01*
X627881Y136875*
X627608Y135000*
Y133875*
X627881Y132000*
X628426Y130875*
X629244Y130500*
X629790*
X630608Y130875*
X631154Y132000*
X631426Y133875*
Y135000*
X631154Y136875*
X630608Y138000*
X629790Y138375*
X629244*
X634154Y131250D02*
X633881Y130875D01*
X634154Y130500*
X634426Y130875*
X634154Y131250*
X638517Y138375D02*
X637699Y138000D01*
X637154Y136875*
X636881Y135000*
Y133875*
X637154Y132000*
X637699Y130875*
X638517Y130500*
X639063*
X639881Y130875*
X640426Y132000*
X640699Y133875*
Y135000*
X640426Y136875*
X639881Y138000*
X639063Y138375*
X638517*
X396699Y114375D02*
X399699D01*
X398063Y111375*
X398881*
X399426Y111000*
X399699Y110625*
X399972Y109500*
Y108750*
X399699Y107625*
X399154Y106875*
X398335Y106500*
X397517*
X396699Y106875*
X396426Y107250*
X396154Y108000*
X405972Y111750D02*
X405699Y110625D01*
X405154Y109875*
X404335Y109500*
X404063*
X403244Y109875*
X402699Y110625*
X402426Y111750*
Y112125*
X402699Y113250*
X403244Y114000*
X404063Y114375*
X404335*
X405154Y114000*
X405699Y113250*
X405972Y111750*
Y109875*
X405699Y108000*
X405154Y106875*
X404335Y106500*
X403790*
X402972Y106875*
X402699Y107625*
X408699Y107250D02*
X408426Y106875D01*
X408699Y106500*
X408972Y106875*
X408699Y107250*
X411972Y114375D02*
X414972D01*
X413335Y111375*
X414154*
X414699Y111000*
X414972Y110625*
X415244Y109500*
Y108750*
X414972Y107625*
X414426Y106875*
X413608Y106500*
X412790*
X411972Y106875*
X411699Y107250*
X411426Y108000*
X421517Y114375D02*
X418790Y106500D01*
X417699Y114375D02*
X421517D01*
X491790D02*
X489063Y109125D01*
X493154*
X491790Y114375D02*
Y106500D01*
X522154Y112500D02*
X534154D01*
X528154Y106500D02*
Y118500D01*
X531154Y121800D02*
Y115500D01*
Y121800D02*
X532681D01*
X533335Y121500*
X533772Y120900*
X533990Y120300*
X534208Y119400*
Y117900*
X533990Y117000*
X533772Y116400*
X533335Y115800*
X532681Y115500*
X531154*
X554790Y114375D02*
X556972Y110625D01*
Y106500*
X559154Y114375D02*
X556972Y110625D01*
X561608Y114375D02*
Y106500D01*
Y114375D02*
X565154D01*
X561608Y110625D02*
X563790D01*
X561608Y106500D02*
X565154D01*
X571426Y113250D02*
X570881Y114000D01*
X570063Y114375*
X568972*
X568154Y114000*
X567608Y113250*
Y112500*
X567881Y111750*
X568154Y111375*
X568699Y111000*
X570335Y110250*
X570881Y109875*
X571154Y109500*
X571426Y108750*
Y107625*
X570881Y106875*
X570063Y106500*
X568972*
X568154Y106875*
X567608Y107625*
X607972Y113250D02*
Y106500D01*
X605517Y109875D02*
X610426D01*
X617790Y115875D02*
X612881Y103875D01*
X620244Y109875D02*
X625154D01*
X629244Y114375D02*
X628426Y114000D01*
X627881Y112875*
X627608Y111000*
Y109875*
X627881Y108000*
X628426Y106875*
X629244Y106500*
X629790*
X630608Y106875*
X631154Y108000*
X631426Y109875*
Y111000*
X631154Y112875*
X630608Y114000*
X629790Y114375*
X629244*
X634154Y107250D02*
X633881Y106875D01*
X634154Y106500*
X634426Y106875*
X634154Y107250*
X638517Y114375D02*
X637699Y114000D01*
X637154Y112875*
X636881Y111000*
Y109875*
X637154Y108000*
X637699Y106875*
X638517Y106500*
X639063*
X639881Y106875*
X640426Y108000*
X640699Y109875*
Y111000*
X640426Y112875*
X639881Y114000*
X639063Y114375*
X638517*
G74*
X0Y0D02*
M02*
