M48
;FILE_FORMAT=2:4
INCH,LZ
FMAT,2
ICI,OFF
;TYPE=PLATED
T1C.01968
T2C.02362
T3C.02953
T4C.035
T5C.03543
T6C.03937
T7C.04331
T8C.04724
T9C.07874
%
M72
G90
G93X0Y0
T1C.01968F095S3
X009015Y010156
X009802Y010156
X-002232Y009134G85X-001917Y009134
X-002232Y011653G85X-001917Y011653
T2C.02362F197S55
X-001228Y009606
X-001228Y011181
T3C.02953F197S55
X000217Y000748
X000886Y000748
X004941Y000748
X00561Y000748
X00128Y019055
X00061Y019055
X-00128Y019055
X-001949Y019055
T4C.035F197S55
X000323Y008622
X001323Y008622
X002323Y008622
X018071Y004323
X018071Y003323
X018071Y002323
X010197Y012953
X010197Y013953
X010197Y014953
X010197Y016299
X010197Y017299
X010197Y018299
T5C.03543F197S55
X007992Y000551
X008992Y000551
X009992Y000551
X010992Y000551
X011992Y000551
X012992Y000551
X013992Y000551
X014992Y000551
X016992Y000567
X017992Y000567
X018992Y000567
X019992Y000567
X020992Y000567
X021992Y000567
X008819Y015268
X008819Y014268
X008819Y013268
X007441Y015512
X007441Y014512
X006441Y015512
X006441Y014512
X005441Y015512
X005441Y014512
X004441Y015512
X004441Y014512
X-001417Y012756
X-001417Y013756
X-001417Y014756
X-002417Y013756
X-002417Y012756
X-002417Y014756
X-002417Y015756
X-001417Y015756
X004492Y019433
X005492Y019433
X006492Y019433
X007492Y019433
X008492Y019433
X008819Y018268
X008819Y017268
X008819Y016268
X009492Y019433
X010492Y019433
X011492Y019433
X012492Y019433
X013492Y019433
X014992Y019433
X015992Y019433
X016992Y019433
X017992Y019433
X018992Y019433
X019992Y019433
X020992Y019433
X021992Y019433
T6C.03937F197S55
X001079Y017283
X002079Y017283
X003079Y017283
X004079Y017283
T7C.04331F139S55
X012717Y007047
X012717Y011772
X012717Y013346
X012717Y018071
T8C.04724F139S55
X-002037Y002756
X-002037Y005433
X00252Y004882
X005472Y004882
X021024Y004488
X021024Y00252
X021024Y007441
X021024Y009409
X021024Y011378
X01752Y007047
X01752Y011772
X011929Y009409
X011929Y015709
X01752Y013346
X021024Y017677
X021024Y01374
X021024Y015709
X01752Y018071
T9C.07874F081S55
X-002008Y007717
X007165Y007717
X007165Y017087
X-002008Y017087
M30
