*
*
G04 PADS VX.2.4 Build Number: 11282995 generated Gerber (RS-274-X) file*
G04 PC Version=2.1*
*
%IN "HT66F2360_TuYa_WIFI_Pet"*%
*
%MOIN*%
*
%FSLAX35Y35*%
*
*
*
*
G04 PC Standard Apertures*
*
*
G04 Thermal Relief Aperture macro.*
%AMTER*
1,1,$1,0,0*
1,0,$1-$2,0,0*
21,0,$3,$4,0,0,45*
21,0,$3,$4,0,0,135*
%
*
*
G04 Annular Aperture macro.*
%AMANN*
1,1,$1,0,0*
1,0,$2,0,0*
%
*
*
G04 Odd Aperture macro.*
%AMODD*
1,1,$1,0,0*
1,0,$1-0.005,0,0*
%
*
*
G04 PC Custom Aperture Macros*
*
*
*
*
*
*
G04 PC Aperture Table*
*
%ADD010C,0.001*%
%ADD011C,0.01*%
%ADD013R,0.1X0.04*%
%ADD014R,0.05118X0.02638*%
%ADD015R,0.045X0.05*%
%ADD019R,0.05315X0.01575*%
%ADD020R,0.0748X0.0748*%
%ADD022R,0.03661X0.03858*%
%ADD023R,0.03543X0.03937*%
%ADD028R,0.02756X0.04921*%
%ADD031R,0.04921X0.07874*%
%ADD032O,0.02559X0.07874*%
%ADD034R,0.07874X0.00906*%
%ADD035R,0.00906X0.07874*%
%ADD036R,0.03937X0.03543*%
%ADD038R,0.02362X0.04724*%
%ADD039R,0.05118X0.08268*%
*
*
*
*
G04 PC Circuitry*
G04 Layer Name HT66F2360_TuYa_WIFI_Pet - circuitry*
%LPD*%
*
*
G04 PC Custom Flashes*
G04 Layer Name HT66F2360_TuYa_WIFI_Pet - flashes*
%LPD*%
*
*
G04 PC Circuitry*
G04 Layer Name HT66F2360_TuYa_WIFI_Pet - circuitry*
%LPD*%
*
G54D10*
G54D11*
G01X100500Y104437D02*
Y305224D01*
X104437Y309161*
X352469*
X360343Y301287*
Y257980*
X370185Y248138*
Y120185*
X360343Y110343*
Y102469*
X358374Y100500*
X104437*
X100500Y104437*
X165461Y299319D02*
G75*
G03X165461I-5906J0D01*
G01Y110343D02*
G03X165461I-5906J0D01*
G01X366248Y131996D02*
G03X366248I-5905J0D01*
G01Y238295D02*
G03X366248I-5905J0D01*
G54D13*
G01X122154Y135776D03*
Y145776D03*
Y155776D03*
G54D14*
X139083Y214476D03*
Y210736D03*
Y206996D03*
X148531D03*
Y214476D03*
G54D15*
X106393Y118217D03*
X114293D03*
X106393Y108374D03*
X114293D03*
G54D19*
X120209Y213886D03*
Y211327D03*
Y208768D03*
Y206209D03*
Y203650D03*
G54D20*
X109677Y213492D03*
Y204043D03*
G54D22*
X182114Y271760D03*
X188177D03*
X294004Y133965D03*
X300067D03*
X262823Y124122D03*
X268886D03*
X203768Y120185D03*
X209831D03*
Y128059D03*
X203768D03*
X166366Y289476D03*
X172429D03*
X182114D03*
X188177D03*
X215579Y216642D03*
X221642D03*
X229358D03*
X235421D03*
X219516Y124122D03*
X225579D03*
X262823Y131996D03*
X268886D03*
X219516D03*
X225579D03*
X219516Y139870D03*
X225579D03*
X262823D03*
X268886D03*
X262823Y147744D03*
X268886D03*
X235421Y224516D03*
X229358D03*
X219516Y147744D03*
X225579D03*
X220776Y224516D03*
X214713D03*
G54D23*
X182146Y279634D03*
X188146D03*
X294350Y124122D03*
X300350D03*
X162461Y275697D03*
X168461D03*
X262854Y155618D03*
X268854D03*
X241295Y124122D03*
X235295D03*
X219547Y155618D03*
X225547D03*
X284602Y124122D03*
X278602D03*
X128996Y230421D03*
X134996D03*
X150744D03*
X144744D03*
G54D28*
X277862Y132980D03*
X285343D03*
X281602Y142823D03*
X234555Y132980D03*
X242035D03*
X238295Y142823D03*
G54D31*
X293221Y153650D03*
X277857D03*
X249914D03*
X234550D03*
G54D32*
X232009Y192645D03*
X227009D03*
X222009D03*
X217009D03*
Y169760D03*
X222009D03*
X227009D03*
X232009D03*
X126307Y242601D03*
X131307D03*
X136307D03*
X141307D03*
X146307D03*
X151307D03*
X156307D03*
X161307D03*
Y265486D03*
X156307D03*
X151307D03*
X146307D03*
X141307D03*
X136307D03*
X131307D03*
X126307D03*
G54D34*
X198946Y203673D03*
Y205673D03*
Y207673D03*
Y209673D03*
Y211673D03*
Y213673D03*
Y215673D03*
Y217673D03*
Y219673D03*
Y221673D03*
Y223673D03*
Y225673D03*
X163472D03*
Y223673D03*
Y221673D03*
Y219673D03*
Y217673D03*
Y215673D03*
Y213673D03*
Y211673D03*
Y209673D03*
Y207673D03*
Y205673D03*
Y203673D03*
G54D35*
X192209Y232410D03*
X190209D03*
X188209D03*
X186209D03*
X184209D03*
X182209D03*
X180209D03*
X178209D03*
X176209D03*
X174209D03*
X172209D03*
X170209D03*
Y196936D03*
X172209D03*
X174209D03*
X176209D03*
X178209D03*
X180209D03*
X182209D03*
X184209D03*
X186209D03*
X188209D03*
X190209D03*
X192209D03*
G54D36*
X236320Y201824D03*
Y207824D03*
X212705Y201831D03*
Y207831D03*
G54D38*
X189870Y117429D03*
X176484D03*
X142626D03*
X129240D03*
X107587Y290264D03*
X120972D03*
X133177D03*
X146563D03*
G54D39*
X191248Y107193D03*
X175106D03*
X144004D03*
X127862D03*
X106209Y300500D03*
X122350D03*
X131799D03*
X147941D03*
G74*
X0Y0D02*
M02*
