*
*
G04 PADS VX.2.4 Build Number: 11282995 generated Gerber (RS-274-X) file*
G04 PC Version=2.1*
*
%IN "HT66F2360_TuYa_WIFI_Pet"*%
*
%MOIN*%
*
%FSLAX35Y35*%
*
*
*
*
G04 PC Standard Apertures*
*
*
G04 Thermal Relief Aperture macro.*
%AMTER*
1,1,$1,0,0*
1,0,$1-$2,0,0*
21,0,$3,$4,0,0,45*
21,0,$3,$4,0,0,135*
%
*
*
G04 Annular Aperture macro.*
%AMANN*
1,1,$1,0,0*
1,0,$2,0,0*
%
*
*
G04 Odd Aperture macro.*
%AMODD*
1,1,$1,0,0*
1,0,$1-0.005,0,0*
%
*
*
G04 PC Custom Aperture Macros*
*
*
*
*
*
*
G04 PC Aperture Table*
*
%ADD010C,0.001*%
%ADD011C,0.01*%
%ADD075C,0.00787*%
%ADD079C,0.005*%
%ADD083C,0.00984*%
%ADD084C,0.009*%
*
*
*
*
G04 PC Circuitry*
G04 Layer Name HT66F2360_TuYa_WIFI_Pet - circuitry*
%LPD*%
*
*
G04 PC Custom Flashes*
G04 Layer Name HT66F2360_TuYa_WIFI_Pet - flashes*
%LPD*%
*
*
G04 PC Circuitry*
G04 Layer Name HT66F2360_TuYa_WIFI_Pet - circuitry*
%LPD*%
*
G54D10*
G54D11*
G01X100500Y104437D02*
Y305224D01*
X104437Y309161*
X352469*
X360343Y301287*
Y257980*
X370185Y248138*
Y120185*
X360343Y110343*
Y102469*
X358374Y100500*
X104437*
X100500Y104437*
X165461Y299319D02*
G75*
G03X165461I-5906J0D01*
G01Y110343D02*
G03X165461I-5906J0D01*
G01X366248Y131996D02*
G03X366248I-5905J0D01*
G01Y238295D02*
G03X366248I-5905J0D01*
G54D75*
G01X223610Y232508D02*
X213610D01*
Y292508*
X223610*
Y232508*
G54D79*
X187465Y292902D02*
X189809D01*
X190278Y292788*
X190590Y292561*
X190747Y292220*
Y291992*
X190590Y291652*
X190278Y291424*
X189809Y291311*
X187465*
Y289152D02*
X189653Y290288D01*
Y288583*
X187465Y289152D02*
X190747D01*
X208302Y192751D02*
Y190407D01*
X208188Y189938*
X207961Y189626*
X207620Y189469*
X207392*
X207052Y189626*
X206824Y189938*
X206711Y190407*
Y192751*
X205574Y191969D02*
Y192126D01*
X205461Y192438*
X205347Y192594*
X205120Y192751*
X204665*
X204438Y192594*
X204324Y192438*
X204211Y192126*
Y191813*
X204324Y191501*
X204552Y191032*
X205688Y189469*
X204097*
X202961Y191969D02*
Y192126D01*
X202847Y192438*
X202733Y192594*
X202506Y192751*
X202052*
X201824Y192594*
X201711Y192438*
X201597Y192126*
Y191813*
X201711Y191501*
X201938Y191032*
X203074Y189469*
X201483*
G54D83*
X151724Y131603D02*
G03X200029Y146556I19642J22047D01*
G01Y160743D02*
G03X151724Y175696I-28663J-7093D01*
G01X139870Y147154D02*
Y125303D01*
X151681*
Y181996*
X139870*
Y160146*
G54D84*
X211110Y287461D02*
X210292Y284508D01*
X209474Y287461D02*
X210292Y284508D01*
X208553Y287461D02*
Y284508D01*
Y287461D02*
X207838D01*
X207531Y287320*
X207326Y287039*
X207224Y286758*
X207122Y286336*
Y285633*
X207224Y285211*
X207326Y284930*
X207531Y284648*
X207531D02*
X207838Y284508D01*
X208553*
X206201Y287461D02*
Y284508D01*
Y287461D02*
X205485D01*
X205178Y287320*
X204974Y287039*
X204872Y286758*
X204769Y286336*
Y285633*
X204872Y285211*
X204974Y284930*
X205178Y284648*
X205178D02*
X205485Y284508D01*
X206201*
X211110Y277961D02*
Y275008D01*
Y277961D02*
X209678Y275008D01*
Y277961D02*
Y275008D01*
X207224Y277258D02*
X207326Y277539D01*
X207531Y277820*
X207735Y277961*
X208144*
X208349Y277820*
X208553Y277539*
X208656Y277258*
X208758Y276836*
Y276133*
X208656Y275711*
X208553Y275430*
X208349Y275148*
X208349D02*
X208144Y275008D01*
X207735*
X207531Y275148*
X207531D02*
X207326Y275430D01*
X207224Y275711*
X211110Y257961D02*
Y255008D01*
Y257961D02*
X209678Y255008D01*
Y257961D02*
Y255008D01*
X207224Y257258D02*
X207326Y257539D01*
X207531Y257820*
X207735Y257961*
X208144*
X208349Y257820*
X208553Y257539*
X208656Y257258*
X208758Y256836*
Y256133*
X208656Y255711*
X208553Y255430*
X208349Y255148*
X208349D02*
X208144Y255008D01*
X207735*
X207531Y255148*
X207531D02*
X207326Y255430D01*
X207224Y255711*
X210497Y267961D02*
X210701Y267820D01*
X210906Y267539*
X211008Y267258*
X211110Y266836*
Y266133*
X211008Y265711*
X210906Y265430*
X210701Y265148*
X210701D02*
X210497Y265008D01*
X210088*
X209883Y265148*
X209883D02*
X209678Y265430D01*
X209576Y265711*
X209474Y266133*
Y266836*
X209576Y267258*
X209678Y267539*
X209883Y267820*
X210088Y267961*
X210497*
X207019Y267258D02*
X207122Y267539D01*
X207326Y267820*
X207531Y267961*
X207940*
X208144Y267820*
X208349Y267539*
X208451Y267258*
X208553Y266836*
Y266133*
X208451Y265711*
X208349Y265430*
X208144Y265148*
X208144D02*
X207940Y265008D01*
X207531*
X207326Y265148*
X207326D02*
X207122Y265430D01*
X207019Y265711*
X206099Y267961D02*
Y265008D01*
Y267961D02*
X205383D01*
X205076Y267820*
X204872Y267539*
X204769Y267258*
X204667Y266836*
Y266133*
X204769Y265711*
X204872Y265430*
X205076Y265148*
X205076D02*
X205383Y265008D01*
X206099*
X202315Y267539D02*
X202519Y267820D01*
X202826Y267961*
X203235*
X203542Y267820*
X203747Y267539*
Y267258*
X203644Y266977*
X203542Y266836*
X203338Y266695*
X202724Y266414*
X202519Y266273*
X202519D02*
X202417Y266133D01*
X202315Y265852*
Y265430*
X202519Y265148*
X202519D02*
X202826Y265008D01*
X203235*
X203542Y265148*
X203542D02*
X203747Y265430D01*
X199860Y267258D02*
X199963Y267539D01*
X200167Y267820*
X200372Y267961*
X200781*
X200985Y267820*
X201190Y267539*
X201292Y267258*
X201394Y266836*
Y266133*
X201292Y265711*
X201190Y265430*
X200985Y265148*
X200985D02*
X200781Y265008D01*
X200372*
X200167Y265148*
X200167D02*
X199963Y265430D01*
X199860Y265711*
X198940Y267961D02*
Y265008D01*
X197508Y267961D02*
X198940Y265992D01*
X198428Y266695D02*
X197508Y265008D01*
X210497Y247961D02*
X210701Y247820D01*
X210906Y247539*
X211008Y247258*
X211110Y246836*
Y246133*
X211008Y245711*
X210906Y245430*
X210701Y245148*
X210701D02*
X210497Y245008D01*
X210088*
X209883Y245148*
X209883D02*
X209678Y245430D01*
X209576Y245711*
X209474Y246133*
Y246836*
X209576Y247258*
X209678Y247539*
X209883Y247820*
X210088Y247961*
X210497*
X207019Y247258D02*
X207122Y247539D01*
X207326Y247820*
X207531Y247961*
X207940*
X208144Y247820*
X208349Y247539*
X208451Y247258*
X208553Y246836*
Y246133*
X208451Y245711*
X208349Y245430*
X208144Y245148*
X208144D02*
X207940Y245008D01*
X207531*
X207326Y245148*
X207326D02*
X207122Y245430D01*
X207019Y245711*
X206099Y247961D02*
Y245008D01*
Y247961D02*
X205383D01*
X205076Y247820*
X204872Y247539*
X204769Y247258*
X204667Y246836*
Y246133*
X204769Y245711*
X204872Y245430*
X205076Y245148*
X205076D02*
X205383Y245008D01*
X206099*
X202315Y247539D02*
X202519Y247820D01*
X202826Y247961*
X203235*
X203542Y247820*
X203747Y247539*
Y247258*
X203644Y246977*
X203542Y246836*
X203338Y246695*
X202724Y246414*
X202519Y246273*
X202519D02*
X202417Y246133D01*
X202315Y245852*
Y245430*
X202519Y245148*
X202519D02*
X202826Y245008D01*
X203235*
X203542Y245148*
X203542D02*
X203747Y245430D01*
X201394Y247961D02*
Y245008D01*
Y247961D02*
X200678D01*
X200372Y247820*
X200167Y247539*
X200065Y247258*
X199963Y246836*
Y246133*
X200065Y245711*
X200167Y245430*
X200372Y245148*
X200372D02*
X200678Y245008D01*
X201394*
X198224Y247961D02*
X199042Y245008D01*
X198224Y247961D02*
X197406Y245008D01*
X198735Y245992D02*
X197713D01*
X209576Y237258D02*
X209678Y237539D01*
X209883Y237820*
X210088Y237961*
X210497*
X210701Y237820*
X210906Y237539*
X211008Y237258*
X211110Y236836*
Y236133*
X211008Y235711*
X210906Y235430*
X210701Y235148*
X210701D02*
X210497Y235008D01*
X210088*
X209883Y235148*
X209883D02*
X209678Y235430D01*
X209576Y235711*
Y236133*
X210088D02*
X209576D01*
X208656Y237961D02*
Y235008D01*
Y237961D02*
X207224Y235008D01*
Y237961D02*
Y235008D01*
X206303Y237961D02*
Y235008D01*
Y237961D02*
X205588D01*
X205281Y237820*
X205076Y237539*
X204974Y237258*
X204872Y236836*
Y236133*
X204974Y235711*
X205076Y235430*
X205281Y235148*
X205281D02*
X205588Y235008D01*
X206303*
G74*
X0Y0D02*
M02*
