*
*
G04 PADS VX.2.4 Build Number: 11282995 generated Gerber (RS-274-X) file*
G04 PC Version=2.1*
*
%IN "HT66F2360_TuYa_WIFI_Pet"*%
*
%MOIN*%
*
%FSLAX35Y35*%
*
*
*
*
G04 PC Standard Apertures*
*
*
G04 Thermal Relief Aperture macro.*
%AMTER*
1,1,$1,0,0*
1,0,$1-$2,0,0*
21,0,$3,$4,0,0,45*
21,0,$3,$4,0,0,135*
%
*
*
G04 Annular Aperture macro.*
%AMANN*
1,1,$1,0,0*
1,0,$2,0,0*
%
*
*
G04 Odd Aperture macro.*
%AMODD*
1,1,$1,0,0*
1,0,$1-0.005,0,0*
%
*
*
G04 PC Custom Aperture Macros*
*
*
*
*
*
*
G04 PC Aperture Table*
*
%ADD010C,0.001*%
%ADD011C,0.01*%
%ADD033C,0.01968*%
%ADD070C,0.008*%
%ADD071C,0.00984*%
%ADD072C,0.00787*%
%ADD073C,0.00394*%
%ADD074C,0.00787*%
%ADD075C,0.00787*%
%ADD076C,0.00984*%
%ADD077C,0.02362*%
%ADD078C,0.006*%
%ADD079C,0.005*%
%ADD080C,0.0015*%
*
*
*
*
G04 PC Circuitry*
G04 Layer Name HT66F2360_TuYa_WIFI_Pet - circuitry*
%LPD*%
*
*
G04 PC Custom Flashes*
G04 Layer Name HT66F2360_TuYa_WIFI_Pet - flashes*
%LPD*%
*
*
G04 PC Circuitry*
G04 Layer Name HT66F2360_TuYa_WIFI_Pet - circuitry*
%LPD*%
*
G54D10*
G01X106994Y130850D02*
X207944D01*
Y130950*
X107644*
X102944Y100050D02*
X202944D01*
X203844Y100150D02*
X102944D01*
Y100250*
X204294*
X204594Y100350D02*
X102944D01*
Y100450*
X204894*
X102944Y100550D02*
X205144D01*
X205294Y100650D02*
X102944D01*
Y100750*
X205444*
X205644Y100850D02*
X102944D01*
Y100950*
X205794*
X205944Y101050D02*
X102944D01*
Y101150*
X206044*
X206194Y101250D02*
X102944D01*
Y101350*
X206294*
X206394Y101450D02*
X102944D01*
Y101550*
X206494*
X206594Y101650D02*
X102944D01*
Y101750*
X206694*
X206794Y101850D02*
X102944D01*
Y101950*
X206844*
X206944Y102050D02*
X102944D01*
Y102150*
X206994*
X139144Y102250D02*
X207094D01*
X122044D02*
X137644D01*
X102944D02*
X120544D01*
X139444Y102350D02*
X207144D01*
X122344D02*
X137344D01*
X120244D02*
X102944D01*
Y102450*
X120144*
X139544D02*
X207194D01*
X122444D02*
X137244D01*
X139644Y102550D02*
X207244D01*
X137944D02*
X138944D01*
X122544D02*
X137144D01*
X120844D02*
X121844D01*
X120044D02*
X102944D01*
Y102650*
X119944*
Y102750*
X102944*
Y102850*
X119844*
X154244Y102650D02*
X207294D01*
X139744D02*
X153944D01*
X137744D02*
X139044D01*
X122644D02*
X137044D01*
Y102750*
X122744*
Y102850*
X136944*
X120644Y102650D02*
X121944D01*
X154344Y102750D02*
X207344D01*
X139844D02*
X153844D01*
Y102850*
X139844*
X137644Y102750D02*
X139244D01*
Y102850*
X137644*
X122144Y102750D02*
X120544D01*
Y102850*
X122144*
X154444D02*
X207394D01*
X154544Y102950D02*
X207444D01*
X153944D02*
X139944D01*
Y103050*
X154044*
X139344Y102950D02*
X137644D01*
Y103050*
X139344*
Y103150*
X137644*
Y103250*
X139244*
Y103350*
X137744*
X122844Y102950D02*
X136944D01*
Y103050*
X122844*
Y103150*
X137044*
Y103250*
X122844*
Y103350*
X137144*
X122244Y102950D02*
X120544D01*
Y103050*
X122244*
Y103150*
X120544*
Y103250*
X122144*
Y103350*
X120644*
X102944Y102950D02*
X119844D01*
Y103050*
X102944*
Y103150*
X119944*
Y103250*
X102944*
Y103350*
X120044*
X154644Y103050D02*
X207494D01*
X154744Y103150D02*
X207544D01*
X154144D02*
X139944D01*
Y103250*
X154144*
Y103350*
X139944*
Y103450*
X141144*
X207594Y103250D02*
X154844D01*
Y103350*
X207644*
Y103450*
X197344*
X196344D02*
X193844D01*
Y103550*
X196044*
X190844Y103450D02*
X193244D01*
X181644D02*
X189744D01*
X170644D02*
X180844D01*
X166844D02*
X169644D01*
X163344D02*
X165944D01*
X154844D02*
X162444D01*
X148544D02*
X154244D01*
X142144D02*
X147744D01*
X137844D02*
X138944D01*
X129844D02*
X137244D01*
X128944D02*
X122844D01*
Y103550*
X123144*
Y103650*
X122744*
X120744Y103450D02*
X121844D01*
X117044D02*
X120144D01*
X114144D02*
X115644D01*
X110344D02*
X113144D01*
X102944D02*
X109444D01*
X197644Y103550D02*
X207694D01*
X191144D02*
X193244D01*
Y103650*
X191244*
X189544Y103550D02*
X188444D01*
Y103650*
X189344*
X187144Y103550D02*
X185444D01*
Y103650*
X187144*
X183644Y103550D02*
X184044D01*
Y103650*
X183644*
X181844Y103550D02*
X182244D01*
Y103650*
X181944*
X180644Y103550D02*
X179644D01*
Y103650*
X180544*
Y103750*
X179444*
X176744Y103550D02*
X178244D01*
Y103650*
X176844*
X176144Y103550D02*
X174844D01*
Y103650*
X176144*
Y103750*
X174944*
Y103850*
X176044*
Y103950*
X174944*
X170944Y103550D02*
X174244D01*
X169344D02*
X168344D01*
Y103650*
X169244*
X167044Y103550D02*
X167344D01*
X165744D02*
X164844D01*
Y103650*
X165644*
X163544Y103550D02*
X163844D01*
Y103650*
X163644*
X162244Y103550D02*
X161744D01*
Y103650*
X162144*
Y103750*
X161544*
X160344Y103550D02*
X159944D01*
Y103650*
X160344*
X158544Y103550D02*
X158144D01*
Y103650*
X158544*
X154944Y103550D02*
X156744D01*
Y103650*
X154944*
X152244Y103550D02*
X154244D01*
Y103650*
X152244*
X150944Y103550D02*
X150544D01*
Y103650*
X150944*
X148744Y103550D02*
X149144D01*
Y103650*
X148844*
X147544Y103550D02*
X146544D01*
Y103650*
X147444*
Y103750*
X146344*
X145244Y103550D02*
X144744D01*
Y103650*
X145244*
X142444Y103550D02*
X143344D01*
Y103650*
X142544*
X139944Y103550D02*
X140844D01*
X137444D02*
X136644D01*
Y103650*
X137344*
X135244Y103550D02*
X134844D01*
Y103650*
X135244*
X133544Y103550D02*
X133144D01*
Y103650*
X133544*
X131744Y103550D02*
X131344D01*
Y103650*
X131744*
X130044Y103550D02*
X130344D01*
X128744D02*
X126344D01*
Y103650*
X128644*
X125044Y103550D02*
X124544D01*
Y103650*
X125044*
X120344Y103550D02*
X119544D01*
Y103650*
X120244*
X117344Y103550D02*
X118144D01*
Y103650*
X117444*
X114444Y103550D02*
X115344D01*
Y103650*
X114544*
X112844Y103550D02*
X111844D01*
Y103650*
X112744*
X110544Y103550D02*
X110844D01*
X109244D02*
X102944D01*
Y103650*
X109144*
X197744D02*
X207744D01*
Y103750*
X197944*
X195944Y103650D02*
X193944D01*
Y103750*
X195844*
X171044Y103650D02*
X174144D01*
X167144D02*
X167344D01*
Y103750*
X167244*
X139844Y103650D02*
X140744D01*
X130144D02*
X130344D01*
Y103750*
X130244*
X110644Y103650D02*
X110844D01*
Y103750*
X110744*
X191344D02*
X193144D01*
Y103850*
X191444*
X190144Y103750D02*
X190644D01*
X188244D02*
X189244D01*
Y103850*
X188144*
Y103950*
X189144*
X185244Y103750D02*
X187344D01*
X183444D02*
X184244D01*
X182044D02*
X182444D01*
X178444D02*
X176844D01*
Y103850*
X178544*
X171244Y103750D02*
X174144D01*
Y103850*
X171344*
Y103950*
X174044*
X168144Y103750D02*
X169144D01*
X164644D02*
X165544D01*
X159744D02*
X160544D01*
X157944D02*
X158744D01*
X156944D02*
X154944D01*
Y103850*
X157044*
Y103950*
X154944*
X152044Y103750D02*
X154244D01*
Y103850*
X151944*
Y103950*
X154244*
Y104050*
X151944*
X150344Y103750D02*
X151144D01*
X148944D02*
X149344D01*
X144544D02*
X145444D01*
X142744D02*
X143544D01*
X139744D02*
X140644D01*
X136444D02*
X137244D01*
X134644D02*
X135444D01*
X132944D02*
X133744D01*
X131144D02*
X131944D01*
X126144D02*
X128544D01*
X124344D02*
X125244D01*
X122644D02*
X123344D01*
X119344D02*
X120144D01*
X118344D02*
X117544D01*
Y103850*
X118444*
X116144Y103750D02*
X116744D01*
X114744D02*
X115344D01*
Y103850*
X114844*
Y103950*
X115344*
X111644Y103750D02*
X112644D01*
X109044D02*
X102944D01*
Y103850*
X108944*
Y103950*
X102944*
Y104050*
X108844*
Y104150*
X102944*
Y104250*
X108744*
Y104350*
X102944*
Y104450*
X108744*
Y104550*
X102944*
Y104650*
X108744*
Y104750*
X102944*
Y104850*
X108744*
Y104950*
X102944*
Y105050*
X108744*
Y105150*
X102944*
Y105250*
X108744*
Y105350*
X102944*
Y105450*
X108744*
Y105550*
X102944*
Y105650*
X108844*
Y105750*
X102944*
Y105850*
X108844*
X207794Y103850D02*
X198044D01*
Y103950*
X207794*
X196844Y103850D02*
X197144D01*
X195744D02*
X194044D01*
Y103950*
X195744*
X189944Y103850D02*
X190744D01*
X185144D02*
X187444D01*
Y103950*
X185044*
X183344Y103850D02*
X184344D01*
Y103950*
X183244*
Y104050*
X184344*
Y104150*
X183244*
Y104250*
X184344*
Y104350*
X183244*
Y104450*
X184344*
Y104550*
X183244*
Y104650*
X184344*
Y104750*
X183244*
Y104850*
X184344*
Y104950*
X183244*
Y105050*
X184344*
Y105150*
X183244*
Y105250*
X184344*
Y105350*
X183244*
Y105450*
X184344*
Y105550*
X183244*
Y105650*
X184344*
Y105750*
X183244*
X182144Y103850D02*
X182544D01*
Y103950*
X182044*
X181344Y103850D02*
X181544D01*
X180444D02*
X179344D01*
Y103950*
X180444*
Y104050*
X179344*
X170144Y103850D02*
X170444D01*
X169044D02*
X168044D01*
Y103950*
X169044*
X166344Y103850D02*
X166844D01*
X164544D02*
X165444D01*
Y103950*
X164544*
Y104050*
X165344*
Y104150*
X164544*
X162844Y103850D02*
X163444D01*
X161444D02*
X162044D01*
Y103950*
X161344*
Y104050*
X162044*
Y104150*
X161344*
Y104250*
X162044*
Y104350*
X161344*
Y104450*
X162044*
X160644Y103850D02*
X159644D01*
Y103950*
X160644*
X158844Y103850D02*
X157844D01*
Y103950*
X158844*
X151244Y103850D02*
X150244D01*
Y103950*
X151244*
X149044Y103850D02*
X149444D01*
X148244D02*
X148444D01*
X147344D02*
X146244D01*
Y103950*
X147344*
Y104050*
X146244*
X145544Y103850D02*
X144444D01*
Y103950*
X145544*
X143644Y103850D02*
X142844D01*
Y103950*
X143744*
X141644Y103850D02*
X141944D01*
X139644D02*
X140544D01*
Y103950*
X139544*
X137144Y103850D02*
X136344D01*
Y103950*
X137144*
X135544Y103850D02*
X134544D01*
Y103950*
X135644*
X133844Y103850D02*
X132844D01*
Y103950*
X133844*
X132044Y103850D02*
X131044D01*
Y103950*
X132144*
X129344Y103850D02*
X129844D01*
X126044D02*
X128444D01*
Y103950*
X126044*
X125344Y103850D02*
X124244D01*
Y103950*
X125344*
X122544Y103850D02*
X123444D01*
X119244D02*
X120044D01*
Y103950*
X119244*
Y104050*
X120044*
Y104150*
X119244*
Y104250*
X120144*
Y104350*
X119244*
Y104450*
X120244*
X116044Y103850D02*
X116944D01*
Y103950*
X115944*
X113644Y103850D02*
X113944D01*
X112544D02*
X111544D01*
Y103950*
X112544*
X109844Y103850D02*
X110344D01*
X196544Y103950D02*
X197444D01*
X193144D02*
X191544D01*
Y104050*
X193044*
Y104150*
X191644*
Y104250*
X193044*
X190844Y103950D02*
X189844D01*
Y104050*
X190844*
X181244Y103950D02*
X181744D01*
X178644D02*
X176944D01*
Y104050*
X178644*
X169844Y103950D02*
X170744D01*
X166244D02*
X167044D01*
X163544D02*
X162744D01*
Y104050*
X163644*
X148944Y103950D02*
X149544D01*
X148144D02*
X148644D01*
X141344D02*
X142244D01*
X129244D02*
X130044D01*
X122444D02*
X123544D01*
Y104050*
X120844*
X117644Y103950D02*
X118544D01*
Y104050*
X117644*
Y104150*
X118544*
Y104250*
X117744*
Y104350*
X118544*
Y104450*
X117644*
Y104550*
X118544*
Y104650*
X117644*
X113344Y103950D02*
X114244D01*
X109744D02*
X110544D01*
X198044Y104050D02*
X207844D01*
Y104150*
X197944*
X196444Y104050D02*
X197544D01*
X194044D02*
X195644D01*
Y104150*
X194144*
Y104250*
X195544*
X188144Y104050D02*
X189044D01*
Y104150*
X188144*
Y104250*
X189044*
X187444Y104050D02*
X185044D01*
Y104150*
X187444*
Y104250*
X185044*
Y104350*
X187444*
Y104450*
X185044*
Y104550*
X187444*
Y104650*
X185044*
Y104750*
X187444*
Y104850*
X185044*
Y104950*
X187444*
Y105050*
X185044*
Y105150*
X187444*
Y105250*
X185044*
Y105350*
X187444*
Y105450*
X185044*
Y105550*
X187444*
Y105650*
X185044*
Y105750*
X187444*
Y105850*
X185044*
Y105950*
X187444*
Y106050*
X185044*
X182544Y104050D02*
X181144D01*
Y104150*
X182544*
X175044Y104050D02*
X176044D01*
X171344D02*
X174044D01*
Y104150*
X171244*
X169744Y104050D02*
X170844D01*
X168044D02*
X168944D01*
Y104150*
X168044*
X166144Y104050D02*
X167144D01*
X159544D02*
X160644D01*
Y104150*
X159544*
Y104250*
X160644*
Y104350*
X159544*
Y104450*
X160644*
Y104550*
X159544*
Y104650*
X160644*
Y104750*
X159544*
Y104850*
X160644*
Y104950*
X159544*
Y105050*
X160644*
Y105150*
X159544*
Y105250*
X160644*
Y105350*
X159544*
Y105450*
X160644*
Y105550*
X159544*
Y105650*
X160644*
Y105750*
X159644*
Y105850*
X160644*
X157844Y104050D02*
X158844D01*
Y104150*
X157844*
Y104250*
X158844*
Y104350*
X157844*
Y104450*
X158844*
Y104550*
X157844*
Y104650*
X158844*
Y104750*
X157844*
Y104850*
X158844*
Y104950*
X157844*
Y105050*
X158844*
Y105150*
X157844*
Y105250*
X158844*
Y105350*
X157844*
Y105450*
X158844*
Y105550*
X157844*
Y105650*
X158844*
Y105750*
X157844*
Y105850*
X158844*
Y105950*
X157944*
X157144Y104050D02*
X154944D01*
Y104150*
X157144*
X150244Y104050D02*
X151244D01*
Y104150*
X150244*
Y104250*
X151244*
Y104350*
X150244*
Y104450*
X151244*
Y104550*
X150244*
Y104650*
X151244*
Y104750*
X150244*
Y104850*
X151244*
Y104950*
X150244*
Y105050*
X151244*
Y105150*
X150244*
Y105250*
X151244*
Y105350*
X150244*
Y105450*
X151244*
Y105550*
X150244*
Y105650*
X151244*
Y105750*
X150244*
Y105850*
X151244*
Y105950*
X150244*
Y106050*
X151244*
Y106150*
X150244*
Y106250*
X151244*
Y106350*
X150244*
Y106450*
X151244*
Y106550*
X147944*
Y106650*
X151244*
Y106750*
X147944*
Y106850*
X151244*
Y106950*
X147944*
Y107050*
X151244*
X148044Y104050D02*
X149544D01*
Y104150*
X148044*
X144444Y104050D02*
X145544D01*
Y104150*
X144444*
Y104250*
X145544*
Y104350*
X144444*
Y104450*
X145544*
Y104550*
X144444*
Y104650*
X145544*
Y104750*
X144444*
Y104850*
X145544*
Y104950*
X144444*
Y105050*
X145544*
Y105150*
X144444*
Y105250*
X145544*
Y105350*
X144444*
Y105450*
X145544*
Y105550*
X144444*
Y105650*
X145544*
Y105750*
X144444*
X142844Y104050D02*
X143744D01*
Y104150*
X142744*
X141244Y104050D02*
X142344D01*
X137944D02*
X140444D01*
Y104150*
X137744*
X136344Y104050D02*
X137144D01*
Y104150*
X136344*
Y104250*
X137244*
Y104350*
X136344*
Y104450*
X137344*
X134544Y104050D02*
X135644D01*
Y104150*
X134544*
Y104250*
X135644*
Y104350*
X134544*
Y104450*
X135644*
Y104550*
X134544*
Y104650*
X135644*
Y104750*
X134544*
Y104850*
X135644*
Y104950*
X134544*
Y105050*
X135644*
Y105150*
X134544*
Y105250*
X135644*
Y105350*
X134544*
Y105450*
X135644*
Y105550*
X134544*
Y105650*
X135644*
Y105750*
X134544*
Y105850*
X135644*
Y105950*
X134544*
Y106050*
X135644*
X132844Y104050D02*
X133844D01*
Y104150*
X132844*
Y104250*
X133844*
Y104350*
X132844*
Y104450*
X133844*
Y104550*
X132844*
Y104650*
X133844*
Y104750*
X132844*
Y104850*
X133844*
Y104950*
X132844*
Y105050*
X133844*
Y105150*
X132844*
Y105250*
X133844*
Y105350*
X132844*
Y105450*
X133844*
Y105550*
X132844*
Y105650*
X133844*
Y105750*
X132844*
Y105850*
X133844*
Y105950*
X132844*
Y106050*
X133844*
Y106150*
X132844*
Y106250*
X133844*
Y106350*
X132844*
Y106450*
X133844*
Y106550*
X131044*
Y106650*
X133844*
Y106750*
X131044*
Y106850*
X133844*
Y106950*
X131044*
Y104050D02*
X132144D01*
Y104150*
X131044*
Y104250*
X132144*
Y104350*
X131044*
Y104450*
X132144*
Y104550*
X131044*
Y104650*
X132144*
Y104750*
X131044*
Y104850*
X132144*
Y104950*
X131044*
Y105050*
X132144*
Y105150*
X131044*
Y105250*
X132144*
Y105350*
X131044*
Y105450*
X132144*
Y105550*
X131044*
Y105650*
X132144*
Y105750*
X131044*
Y105850*
X132144*
Y105950*
X131044*
Y106050*
X132144*
X129144Y104050D02*
X130144D01*
X128344D02*
X126044D01*
Y104150*
X128344*
X124244Y104050D02*
X125344D01*
Y104150*
X124244*
Y104250*
X125344*
Y104350*
X124244*
Y104450*
X125344*
Y104550*
X124244*
Y104650*
X125344*
Y104750*
X124244*
Y104850*
X125344*
Y104950*
X124244*
Y105050*
X125344*
Y105150*
X124244*
Y105250*
X125344*
Y105350*
X124244*
Y105450*
X125344*
Y105550*
X124244*
Y105650*
X125344*
Y105750*
X124244*
X117044Y104050D02*
X115844D01*
Y104150*
X117044*
Y104250*
X113144*
Y104150*
X114544*
X114844Y104050D02*
X115344D01*
Y104150*
X114744*
X113244Y104050D02*
X114344D01*
X111544D02*
X112444D01*
Y104150*
X111544*
X109644Y104050D02*
X110644D01*
X197744Y104150D02*
X196344D01*
Y104250*
X207894*
Y104350*
X196244*
Y104450*
X207894*
Y104550*
X196244*
X190944Y104150D02*
X189744D01*
Y104250*
X190944*
Y104350*
X189744*
X180344Y104150D02*
X179344D01*
Y104250*
X180344*
Y104350*
X179344*
Y104450*
X180344*
Y104550*
X179344*
Y104650*
X180344*
Y104750*
X179344*
Y104850*
X180344*
Y104950*
X179344*
Y105050*
X180344*
Y105150*
X179344*
Y105250*
X180344*
Y105350*
X179344*
Y105450*
X180344*
Y105550*
X179344*
Y105650*
X180344*
Y105750*
X179344*
Y105850*
X180344*
Y105950*
X179344*
Y106050*
X180344*
Y106150*
X179344*
Y106250*
X179944*
Y106350*
X179344*
Y106450*
X180144*
X177044Y104150D02*
X178644D01*
Y104250*
X177044*
Y104350*
X178644*
Y104450*
X177144*
Y104550*
X178644*
Y104650*
X177244*
Y104750*
X178644*
Y104850*
X177244*
X175944Y104150D02*
X175044D01*
Y104250*
X175944*
Y104350*
X175144*
Y104450*
X175844*
Y104550*
X175144*
X171044Y104150D02*
X169644D01*
Y104250*
X173944*
Y104350*
X169544*
Y104450*
X173944*
X167244Y104150D02*
X166044D01*
Y104250*
X167244*
X163744Y104150D02*
X162744D01*
Y104250*
X163744*
X154144Y104150D02*
X151944D01*
Y104250*
X157144*
Y104350*
X151944*
Y104450*
X157144*
Y104550*
X151944*
Y104650*
X157144*
Y104750*
X151944*
Y104850*
X157144*
Y104950*
X151944*
Y105050*
X157144*
Y105150*
X151944*
Y105250*
X157144*
Y105350*
X151944*
Y105450*
X157144*
Y105550*
X151944*
Y105650*
X157144*
Y105750*
X151944*
Y105850*
X157144*
Y105950*
X151944*
Y106050*
X157044*
Y106150*
X151944*
Y106250*
X156944*
X147244Y104150D02*
X146244D01*
Y104250*
X147244*
Y104350*
X146244*
Y104450*
X147244*
Y104550*
X146244*
Y104650*
X147244*
Y104750*
X146244*
Y104850*
X147244*
Y104950*
X146244*
Y105050*
X147244*
Y105150*
X146244*
Y105250*
X147244*
Y105350*
X146244*
Y105450*
X147244*
Y105550*
X146244*
Y105650*
X147244*
Y105750*
X146244*
X142544Y104150D02*
X141144D01*
Y104250*
X143744*
Y104350*
X141044*
Y104450*
X143744*
Y104550*
X141044*
X129044Y104150D02*
X130244D01*
Y104250*
X129044*
Y104350*
X130344*
Y104450*
X129044*
X120644Y104150D02*
X123544D01*
Y104250*
X120644*
Y104350*
X123544*
Y104450*
X120744*
X109544Y104150D02*
X110744D01*
Y104250*
X109544*
X181044D02*
X182544D01*
Y104350*
X181044*
Y104450*
X182544*
Y104550*
X181044*
Y104650*
X182544*
Y104750*
X181044*
Y104850*
X182544*
Y104950*
X181044*
Y105050*
X182544*
Y105150*
X181044*
Y105250*
X182544*
Y105350*
X181044*
Y105450*
X182544*
Y105550*
X181044*
Y105650*
X182544*
Y105750*
X181044*
X168844Y104250D02*
X168044D01*
Y104350*
X168844*
Y104450*
X168044*
Y104550*
X168844*
X165244Y104250D02*
X164544D01*
Y104350*
X165244*
Y104450*
X164544*
Y104550*
X165244*
Y104650*
X164544*
Y104750*
X165244*
Y104850*
X164544*
Y104950*
X165244*
Y105050*
X164544*
Y105150*
X165244*
X147944Y104250D02*
X149544D01*
Y104350*
X147944*
Y104450*
X149544*
Y104550*
X147944*
Y104650*
X149544*
Y104750*
X147944*
Y104850*
X149544*
Y104950*
X147944*
Y105050*
X149544*
Y105150*
X147944*
Y105250*
X149544*
Y105350*
X147944*
Y105450*
X149544*
Y105550*
X147944*
Y105650*
X149544*
Y105750*
X147944*
X140344Y104250D02*
X137744D01*
Y104350*
X140344*
Y104450*
X137844*
X128244Y104250D02*
X126044D01*
Y104350*
X128244*
Y104450*
X126044*
Y104550*
X128244*
Y104650*
X126044*
Y104750*
X128244*
Y104850*
X126044*
Y104950*
X128244*
Y105050*
X126044*
Y105150*
X128244*
X112344Y104250D02*
X111544D01*
Y104350*
X112344*
Y104450*
X111544*
Y104550*
X112344*
X194244Y104350D02*
X195544D01*
Y104450*
X194244*
X193644Y104350D02*
X193744D01*
Y104450*
X193644*
X191744Y104350D02*
X192944D01*
Y104450*
X191744*
Y104550*
X192844*
X188944Y104350D02*
X188144D01*
Y104450*
X188944*
Y104550*
X188144*
Y104650*
X188944*
Y104750*
X188144*
Y104850*
X188944*
Y104950*
X188144*
Y105050*
X188944*
Y105150*
X188144*
Y105250*
X188944*
Y105350*
X188144*
Y105450*
X188944*
Y105550*
X188144*
Y105650*
X188944*
X176544Y104350D02*
X176644D01*
Y104450*
X176544*
Y104550*
X176644*
X167344Y104350D02*
X166044D01*
Y104450*
X167344*
Y104550*
X165944*
Y104650*
X167344*
Y104750*
X165944*
Y104850*
X167344*
Y104950*
X165944*
Y105050*
X167344*
Y105150*
X165944*
X163844Y104350D02*
X162744D01*
Y104450*
X163844*
Y104550*
X162744*
X116944Y104350D02*
X113044D01*
Y104450*
X116944*
X110844Y104350D02*
X109544D01*
Y104450*
X110844*
Y104550*
X109444*
Y104650*
X110844*
Y104750*
X109444*
Y104850*
X110844*
Y104950*
X109444*
Y105050*
X110844*
Y105150*
X109444*
X189644Y104450D02*
X191044D01*
Y104550*
X189644*
X195544D02*
X194344D01*
Y104650*
X195544*
Y104750*
X194444*
X193844Y104550D02*
X193544D01*
Y104650*
X193844*
Y104750*
X193544*
X174744Y104550D02*
X174544D01*
Y104650*
X174744*
Y104750*
X174544*
X169544Y104550D02*
X173844D01*
Y104650*
X169544*
Y104750*
X173844*
X162144Y104550D02*
X161344D01*
Y104650*
X162144*
X138944Y104550D02*
X140344D01*
X137444D02*
X136344D01*
Y104650*
X137544*
X128944Y104550D02*
X130344D01*
Y104650*
X128944*
Y104750*
X130344*
Y104850*
X128944*
Y104950*
X130344*
Y105050*
X128944*
Y105150*
X130344*
Y105250*
X128944*
Y105350*
X130344*
Y105450*
X128944*
Y105550*
X130344*
Y105650*
X129044*
Y105750*
X130344*
X121844Y104550D02*
X123544D01*
Y104650*
X122144*
X120344Y104550D02*
X119244D01*
Y104650*
X120444*
X113044Y104550D02*
X116844D01*
X207944Y104650D02*
X196244D01*
Y104750*
X207944*
Y104850*
X196244*
Y104950*
X207944*
Y105050*
X198144*
Y105150*
X207944*
Y105250*
X198144*
Y105350*
X207944*
Y105450*
X198144*
Y105550*
X207944*
Y105650*
X198144*
X191744Y104650D02*
X192844D01*
Y104750*
X191744*
Y104850*
X192744*
X191044Y104650D02*
X189644D01*
Y104750*
X191044*
Y104850*
X189644*
Y104950*
X191044*
Y105050*
X189644*
Y105150*
X191044*
X176744Y104650D02*
X176444D01*
Y104750*
X176744*
Y104850*
X176444*
Y104950*
X176844*
Y105050*
X176344*
Y105150*
X176844*
X175244Y104650D02*
X175844D01*
Y104750*
X175244*
Y104850*
X175744*
Y104950*
X175344*
Y105050*
X175744*
X168044Y104650D02*
X168844D01*
Y104750*
X168044*
X162844Y104650D02*
X163844D01*
X143744D02*
X141044D01*
Y104750*
X143744*
Y104850*
X141044*
Y104950*
X143744*
Y105050*
X142944*
Y105150*
X143744*
Y105250*
X142944*
Y105350*
X143744*
Y105450*
X142944*
Y105550*
X143744*
Y105650*
X142944*
X139244Y104650D02*
X140344D01*
Y104750*
X139344*
X116644Y104650D02*
X113044D01*
Y104750*
X116444*
X111544Y104650D02*
X112344D01*
Y104750*
X111544*
X163044D02*
X163844D01*
Y104850*
X163344*
X162244Y104750D02*
X161344D01*
Y104850*
X162344*
X137444Y104750D02*
X136344D01*
Y104850*
X137344*
Y104950*
X136344*
Y105050*
X137244*
Y105150*
X136344*
Y105250*
X137144*
Y105350*
X136344*
Y105450*
X137144*
Y105550*
X136344*
Y105650*
X137144*
Y105750*
X136344*
Y105850*
X137244*
Y105950*
X136344*
Y106050*
X137244*
X122244Y104750D02*
X123544D01*
Y104850*
X122344*
X120344Y104750D02*
X119244D01*
Y104850*
X120244*
Y104950*
X119244*
Y105050*
X120144*
Y105150*
X119244*
X117544Y104750D02*
X118544D01*
Y104850*
X117444*
X195444D02*
X194444D01*
Y104950*
X195444*
Y105050*
X194544*
Y105150*
X195544*
Y105250*
X194644*
Y105350*
X195544*
Y105450*
X194744*
Y105550*
X195544*
Y105650*
X194744*
X193444Y104850D02*
X193944D01*
Y104950*
X193444*
Y105050*
X194044*
Y105150*
X193344*
X174444Y104850D02*
X174844D01*
Y104950*
X174444*
Y105050*
X174844*
X173744Y104850D02*
X169544D01*
Y104950*
X173744*
Y105050*
X171444*
Y105150*
X173644*
Y105250*
X171444*
Y105350*
X173644*
X168744Y104850D02*
X168044D01*
Y104950*
X168744*
Y105050*
X168044*
Y105150*
X168844*
Y105250*
X168044*
Y105350*
X168844*
Y105450*
X168044*
Y105550*
X168844*
Y105650*
X168044*
Y105750*
X168944*
Y105850*
X168044*
X139444Y104850D02*
X140244D01*
X138144D02*
X138644D01*
X121044D02*
X121544D01*
X116244D02*
X113044D01*
Y104950*
X116044*
X112244Y104850D02*
X111544D01*
Y104950*
X112244*
Y105050*
X111544*
Y105150*
X112344*
Y105250*
X111544*
Y105350*
X112344*
Y105450*
X111544*
Y105550*
X112344*
Y105650*
X111544*
Y105750*
X112444*
Y105850*
X111544*
X191844Y104950D02*
X192744D01*
Y105050*
X191844*
X177344Y104950D02*
X178644D01*
Y105050*
X177344*
X162544Y104950D02*
X161344D01*
Y105050*
X162744*
X139544Y104950D02*
X140244D01*
Y105050*
X139544*
X138044Y104950D02*
X138744D01*
X122444D02*
X123544D01*
Y105050*
X122444*
X120944Y104950D02*
X121644D01*
X117344D02*
X118544D01*
Y105050*
X117244*
X138844D02*
X137944D01*
Y105150*
X138844*
X120844Y105050D02*
X121744D01*
Y105150*
X120844*
Y105250*
X121844*
X115844Y105050D02*
X114944D01*
Y105150*
X115744*
X192644D02*
X191744D01*
Y105250*
X192644*
Y105350*
X191744*
X177444Y105150D02*
X178644D01*
Y105250*
X177444*
Y105350*
X178644*
Y105450*
X177544*
Y105550*
X178644*
Y105650*
X177644*
Y105750*
X178644*
Y105850*
X177644*
X175344Y105150D02*
X175644D01*
Y105250*
X175444*
Y105350*
X175644*
Y105450*
X175544*
X174944Y105150D02*
X174344D01*
Y105250*
X174944*
Y105350*
X174344*
X163144Y105150D02*
X161344D01*
Y105250*
X163844*
Y105350*
X161344*
Y105450*
X163844*
Y105550*
X161344*
Y105650*
X163844*
X139644Y105150D02*
X140344D01*
Y105250*
X139644*
Y105350*
X140344*
Y105450*
X139644*
Y105550*
X140344*
Y105650*
X139644*
Y105750*
X140444*
Y105850*
X139644*
Y105950*
X140544*
Y106050*
X139544*
X122544Y105150D02*
X123544D01*
Y105250*
X122544*
Y105350*
X123544*
Y105450*
X122544*
Y105550*
X123544*
Y105650*
X122544*
Y105750*
X123544*
Y105850*
X122544*
Y105950*
X123544*
Y106050*
X122444*
X117044Y105150D02*
X118544D01*
Y105250*
X116844*
X194044D02*
X193344D01*
Y105350*
X194144*
Y105450*
X193244*
X189644Y105250D02*
X191044D01*
Y105350*
X189644*
Y105450*
X191044*
Y105550*
X189644*
X176344Y105250D02*
X176944D01*
Y105350*
X176244*
X167344Y105250D02*
X165944D01*
Y105350*
X167344*
Y105450*
X165944*
Y105550*
X167344*
Y105650*
X166044*
Y105750*
X167344*
X164544Y105250D02*
X165244D01*
Y105350*
X164544*
Y105450*
X165244*
Y105550*
X164544*
Y105650*
X165344*
Y105750*
X164444*
X137944Y105250D02*
X138944D01*
Y105350*
X137844*
Y105450*
X138944*
Y105550*
X137844*
Y105650*
X138944*
Y105750*
X137844*
Y105850*
X138944*
X126044Y105250D02*
X128244D01*
Y105350*
X126044*
Y105450*
X128244*
Y105550*
X126044*
Y105650*
X128344*
Y105750*
X126044*
X120044Y105250D02*
X119244D01*
Y105350*
X120044*
Y105450*
X119244*
Y105550*
X120044*
Y105650*
X119244*
Y105750*
X120044*
X115644Y105250D02*
X114944D01*
Y105350*
X115544*
Y105450*
X114944*
Y105550*
X115444*
Y105650*
X114944*
X110844Y105250D02*
X109444D01*
Y105350*
X110844*
Y105450*
X109444*
Y105550*
X110844*
Y105650*
X109544*
Y105750*
X110844*
X196244Y105350D02*
X197444D01*
Y105450*
X196244*
Y105550*
X197444*
Y105650*
X196244*
X170744Y105350D02*
X169544D01*
Y105450*
X170744*
Y105550*
X169544*
Y105650*
X170744*
X142244Y105350D02*
X141044D01*
Y105450*
X142244*
Y105550*
X141044*
Y105650*
X142244*
X120744Y105350D02*
X121844D01*
Y105450*
X120744*
Y105550*
X121844*
Y105650*
X120744*
Y105750*
X121844*
Y105850*
X120744*
X116644Y105350D02*
X118544D01*
Y105450*
X116444*
X113044Y105350D02*
X114244D01*
Y105450*
X113044*
Y105550*
X114244*
Y105650*
X113044*
X192544Y105450D02*
X191744D01*
Y105550*
X192544*
Y105650*
X191744*
Y105750*
X192444*
Y105850*
X191644*
Y105950*
X192444*
X177044Y105450D02*
X176244D01*
Y105550*
X177044*
Y105650*
X176244*
X175044Y105450D02*
X174244D01*
Y105550*
X175044*
Y105650*
X174244*
Y105750*
X175144*
Y105850*
X174144*
Y105950*
X175144*
X173544Y105450D02*
X171444D01*
Y105550*
X173544*
Y105650*
X171444*
X194244Y105550D02*
X193244D01*
Y105650*
X194244*
Y105750*
X193144*
Y105850*
X194344*
Y105950*
X193144*
Y106050*
X194344*
Y106150*
X193144*
X116244Y105550D02*
X118544D01*
Y105650*
X116144*
Y105750*
X118544*
X189744Y105650D02*
X190944D01*
Y105750*
X189744*
Y105850*
X190944*
X198044Y105750D02*
X207944D01*
Y105850*
X198044*
Y105950*
X207944*
Y106050*
X197944*
Y106150*
X207944*
Y106250*
X197844*
X197344Y105750D02*
X196344D01*
Y105850*
X197344*
Y105950*
X196344*
X194844Y105750D02*
X195644D01*
Y105850*
X194844*
X189044Y105750D02*
X188144D01*
Y105850*
X189044*
X176144Y105750D02*
X177144D01*
Y105850*
X176144*
Y105950*
X177144*
X173444Y105750D02*
X171344D01*
Y105850*
X173444*
Y105950*
X171344*
X170644Y105750D02*
X169644D01*
Y105850*
X170644*
Y105950*
X169644*
X163744Y105750D02*
X161344D01*
Y105850*
X162144*
Y105950*
X161344*
Y106050*
X162144*
Y106150*
X161244*
Y106250*
X162244*
X142844Y105750D02*
X143744D01*
Y105850*
X142844*
Y105950*
X143744*
Y106050*
X142744*
Y106150*
X143644*
X142144Y105750D02*
X141144D01*
Y105850*
X142144*
Y105950*
X141144*
X115444Y105750D02*
X114844D01*
Y105850*
X115444*
Y105950*
X114844*
X114144Y105750D02*
X113144D01*
Y105850*
X114144*
Y105950*
X113144*
X183344Y105850D02*
X184344D01*
X182544D02*
X181044D01*
Y105950*
X182544*
Y106050*
X181044*
Y106150*
X182544*
Y106250*
X182044*
Y106350*
X182544*
X166044Y105850D02*
X167244D01*
Y105950*
X166144*
Y106050*
X167244*
X165344Y105850D02*
X164444D01*
Y105950*
X165444*
X162744Y105850D02*
X163744D01*
Y105950*
X162844*
Y106050*
X163744*
X149544Y105850D02*
X147944D01*
Y105950*
X149544*
Y106050*
X147944*
Y106150*
X149444*
X147244Y105850D02*
X146244D01*
Y105950*
X147244*
X145544Y105850D02*
X144544D01*
Y105950*
X145444*
Y106050*
X144744*
X129044Y105850D02*
X130244D01*
Y105950*
X129144*
Y106050*
X130244*
X128344Y105850D02*
X126044D01*
Y105950*
X128444*
X125344Y105850D02*
X124344D01*
Y105950*
X125244*
Y106050*
X124544*
X119244Y105850D02*
X120144D01*
Y105950*
X119244*
Y106050*
X120144*
X117644Y105850D02*
X118544D01*
Y105950*
X117644*
Y106050*
X118544*
X117244Y105850D02*
X116144D01*
Y105950*
X117144*
Y106050*
X116144*
X109544Y105850D02*
X110744D01*
X195744Y105950D02*
X194944D01*
Y106050*
X195744*
X190844Y105950D02*
X189844D01*
Y106050*
X190844*
X189144Y105950D02*
X188144D01*
Y106050*
X189144*
X183444Y105950D02*
X184244D01*
Y106050*
X183544*
X177744Y105950D02*
X178644D01*
Y106050*
X177744*
X169044Y105950D02*
X168044D01*
Y106050*
X169044*
X159744Y105950D02*
X160544D01*
Y106050*
X159844*
X138844Y105950D02*
X137944D01*
Y106050*
X138844*
X120844Y105950D02*
X121744D01*
Y106050*
X120844*
X112544Y105950D02*
X111544D01*
Y106050*
X112544*
X109644Y105950D02*
X110744D01*
Y106050*
X109644*
X108944Y105950D02*
X102944D01*
Y106050*
X109044*
Y106150*
X102944*
Y106250*
X109144*
X196444Y106050D02*
X197244D01*
Y106150*
X196544*
X191544Y106050D02*
X192344D01*
Y106150*
X191444*
Y106250*
X192244*
X176044Y106050D02*
X177144D01*
Y106150*
X176044*
Y106250*
X177044*
X175244Y106050D02*
X174144D01*
Y106150*
X175244*
Y106250*
X174244*
X173344Y106050D02*
X171244D01*
Y106150*
X173344*
X169744Y106050D02*
X170544D01*
Y106150*
X169844*
X165544Y106050D02*
X164444D01*
Y106150*
X165544*
X158044Y106050D02*
X158744D01*
X146144D02*
X147244D01*
Y106150*
X146144*
Y106250*
X146844*
Y106350*
X146044*
X141244Y106050D02*
X142044D01*
Y106150*
X141344*
X125944Y106050D02*
X128544D01*
Y106150*
X125944*
Y106250*
X128644*
X115544Y106050D02*
X114744D01*
Y106150*
X115544*
X113244Y106050D02*
X114044D01*
Y106150*
X113344*
X195044D02*
X195844D01*
X189944D02*
X190744D01*
X189244D02*
X188144D01*
Y106250*
X189344*
X184944Y106150D02*
X187444D01*
Y106250*
X184944*
X183644Y106150D02*
X184144D01*
X177844D02*
X178544D01*
X169144D02*
X168044D01*
Y106250*
X169244*
X166244Y106150D02*
X167144D01*
X162944D02*
X163644D01*
X160044D02*
X160444D01*
X158244D02*
X158644D01*
X144844D02*
X145244D01*
X139444D02*
X140644D01*
X138044D02*
X138744D01*
X137344D02*
X136344D01*
Y106250*
X137444*
X135544Y106150D02*
X134544D01*
Y106250*
X135444*
X132044Y106150D02*
X131044D01*
Y106250*
X131944*
X129244Y106150D02*
X130144D01*
X124644D02*
X125044D01*
X122344D02*
X123444D01*
X120944D02*
X121644D01*
X120244D02*
X119244D01*
Y106250*
X120344*
X118444Y106150D02*
X117644D01*
Y106250*
X118344*
X116244Y106150D02*
X117044D01*
X112644D02*
X111544D01*
Y106250*
X112744*
X109744Y106150D02*
X110644D01*
X196644Y106250D02*
X197044D01*
X195144D02*
X195944D01*
X193244D02*
X194244D01*
X190144D02*
X190544D01*
X177944D02*
X178444D01*
X171144D02*
X173244D01*
X169944D02*
X170344D01*
X166444D02*
X166944D01*
X165644D02*
X164344D01*
Y106350*
X165744*
X163144Y106250D02*
X163444D01*
X159444D02*
X159644D01*
X157844D02*
X157744D01*
Y106350*
X157944*
X149344Y106250D02*
X148944D01*
Y106350*
X149144*
Y106450*
X148944*
X144344Y106250D02*
X144444D01*
Y106350*
X144544*
X142644Y106250D02*
X143544D01*
X141444D02*
X141844D01*
X140744D02*
X140044D01*
Y106350*
X140844*
X138144Y106250D02*
X138644D01*
X129444D02*
X129944D01*
X124144D02*
X124244D01*
Y106350*
X124344*
X123344Y106250D02*
X122944D01*
Y106350*
X123144*
Y106450*
X122944*
X121044Y106250D02*
X121544D01*
X116344D02*
X116844D01*
X114644D02*
X115644D01*
X113444D02*
X113844D01*
X109944D02*
X110444D01*
X197744Y106350D02*
X207944D01*
Y106450*
X197644*
X196044Y106350D02*
X195344D01*
Y106450*
X196144*
X193444Y106350D02*
X194044D01*
Y106450*
X193444*
X191344Y106350D02*
X192044D01*
Y106450*
X191144*
X188144Y106350D02*
X189444D01*
X184844D02*
X187444D01*
Y106450*
X184744*
X183244Y106350D02*
X183444D01*
X178144D02*
X178244D01*
Y106450*
X178144*
X176044Y106350D02*
X176844D01*
Y106450*
X175944*
X174444Y106350D02*
X175344D01*
Y106450*
X174444*
X171044Y106350D02*
X173044D01*
Y106450*
X170944*
X168044Y106350D02*
X169344D01*
X161144D02*
X162444D01*
X159344D02*
X159744D01*
X151944D02*
X156744D01*
Y106450*
X151944*
X142544Y106350D02*
X143344D01*
Y106450*
X142444*
X137544Y106350D02*
X136344D01*
Y106450*
X137644*
X135244Y106350D02*
X134544D01*
Y106450*
X135244*
X131744Y106350D02*
X131044D01*
Y106450*
X131744*
X125844Y106350D02*
X128744D01*
X120444D02*
X119244D01*
Y106450*
X120544*
X118144Y106350D02*
X117644D01*
Y106450*
X118144*
X114544Y106350D02*
X115744D01*
X111544D02*
X112844D01*
X109244D02*
X102944D01*
Y106450*
X109444*
X189544D02*
X188144D01*
Y106550*
X189844*
X183544Y106450D02*
X183244D01*
Y106550*
X183744*
X182044Y106450D02*
X182544D01*
Y106550*
X181044*
Y106650*
X182544*
Y106750*
X181044*
Y106850*
X182544*
Y106950*
X181044*
Y107050*
X182544*
Y107150*
X181044*
Y107250*
X182544*
Y107350*
X179344*
Y107250*
X180444*
Y107150*
X179344*
X169444Y106450D02*
X168044D01*
Y106550*
X169744*
X164244Y106450D02*
X165944D01*
X161044D02*
X162644D01*
X159244D02*
X159844D01*
X157844D02*
X158044D01*
X145944D02*
X147044D01*
X144444D02*
X144744D01*
X140044D02*
X140944D01*
X125744D02*
X128944D01*
X124244D02*
X124544D01*
X114444D02*
X115844D01*
X112944D02*
X111544D01*
Y106550*
X113244*
X197444D02*
X207944D01*
Y106650*
X188144*
Y106750*
X207944*
Y106850*
X188144*
Y106950*
X207944*
X190944Y106550D02*
X196444D01*
X184644D02*
X187444D01*
Y106650*
X183244*
Y106750*
X187444*
Y106850*
X183244*
Y106950*
X187444*
X170744Y106550D02*
X180244D01*
X167244D02*
X167344D01*
X164044D02*
X166144D01*
X160944D02*
X162944D01*
X159144D02*
X160044D01*
X158244D02*
X151944D01*
Y106650*
X167344*
Y106750*
X151944*
Y106850*
X167344*
Y106950*
X151944*
X145744Y106550D02*
X147144D01*
X142244D02*
X144844D01*
X138844D02*
X141244D01*
X137844D02*
X134544D01*
Y106650*
X147244*
Y106750*
X134544*
Y106850*
X147244*
X130244Y106550D02*
X130344D01*
Y106650*
X111544*
Y106750*
X130344*
Y106850*
X111544*
Y106950*
X130344*
X125544Y106550D02*
X129144D01*
X121744D02*
X124644D01*
X117544D02*
X120744D01*
X114244D02*
X116044D01*
X110744D02*
X110844D01*
X109644D02*
X102944D01*
Y106650*
X110844*
Y106750*
X102944*
Y106850*
X110844*
Y106950*
X102944*
X180344Y106650D02*
X168044D01*
Y106750*
X180344*
Y106850*
X168044*
Y106950*
X180444*
Y107050*
X168044*
X134544Y106950D02*
X147344D01*
Y107050*
X134544*
Y107150*
X135644*
Y107250*
X134544*
Y107350*
X135644*
Y107450*
X134544*
X188144Y107050D02*
X207944D01*
Y107150*
X188144*
Y107250*
X207944*
Y107350*
X188144*
Y107450*
X207944*
Y107550*
X188144*
Y107650*
X207944*
Y107750*
X188144*
Y107850*
X207944*
Y107950*
X188144*
X183244Y107050D02*
X187444D01*
Y107150*
X183244*
Y107250*
X187444*
Y107350*
X183244*
Y107450*
X187444*
X167344Y107050D02*
X151944D01*
Y107150*
X167344*
Y107250*
X151944*
Y107350*
X167344*
Y107450*
X151944*
Y107550*
X167244*
Y107650*
X151944*
Y107750*
X167144*
X133844Y107050D02*
X131044D01*
Y107150*
X132144*
Y107250*
X131044*
Y107350*
X132144*
Y107450*
X131044*
X111544Y107050D02*
X130344D01*
Y107150*
X119244*
Y107250*
X130344*
Y107350*
X119244*
Y107450*
X130344*
X110844Y107050D02*
X102944D01*
Y107150*
X110844*
Y107250*
X102944*
Y107350*
X110844*
Y107450*
X102944*
Y107550*
X110744*
Y107650*
X102944*
Y107750*
X110644*
X178644Y107150D02*
X168044D01*
Y107250*
X178644*
Y107350*
X168044*
Y107450*
X178644*
X150244Y107150D02*
X151244D01*
Y107250*
X150244*
Y107350*
X151244*
Y107450*
X150244*
X149544Y107150D02*
X147944D01*
Y107250*
X149544*
Y107350*
X136344*
Y107250*
X147344*
Y107150*
X136344*
X132844D02*
X133844D01*
Y107250*
X132844*
Y107350*
X133844*
Y107450*
X132844*
X118544Y107150D02*
X111544D01*
Y107250*
X118544*
Y107350*
X111544*
Y107450*
X118544*
X179344D02*
X182544D01*
Y107550*
X179344*
Y107650*
X182544*
X136344Y107450D02*
X149544D01*
Y107550*
X136344*
Y107650*
X149544*
X183244Y107550D02*
X187444D01*
Y107650*
X183244*
Y107750*
X187244*
X168044Y107550D02*
X178644D01*
Y107650*
X168044*
X151244Y107550D02*
X150244D01*
Y107650*
X151244*
X135644Y107550D02*
X134544D01*
Y107650*
X135644*
X133844Y107550D02*
X132844D01*
Y107650*
X133844*
X132144Y107550D02*
X131044D01*
Y107650*
X132144*
X130244Y107550D02*
X119244D01*
Y107650*
X130244*
X111544Y107550D02*
X118544D01*
Y107650*
X111544*
X182444Y107750D02*
X168044D01*
Y107850*
X182144*
Y107950*
X168044*
X151044Y107750D02*
X134544D01*
Y107850*
X150844*
Y107950*
X134544*
X133644Y107750D02*
X131044D01*
Y107850*
X133444*
Y107950*
X131044*
X130144Y107750D02*
X111544D01*
Y107850*
X129944*
Y107950*
X111544*
X187044Y107850D02*
X183244D01*
Y107950*
X187044*
X166944Y107850D02*
X151944D01*
Y107950*
X166944*
X110444Y107850D02*
X102944D01*
Y107950*
X110444*
X102944Y108050D02*
X207944D01*
Y108150*
X102944*
Y108250*
X207944*
Y108350*
X102944*
Y108450*
X207944*
Y108550*
X102944*
Y108650*
X207944*
Y108750*
X102944*
Y108850*
X207944*
Y108950*
X102944*
Y109050*
X207944*
Y109150*
X102944*
Y109250*
X207944*
Y109350*
X102944*
Y109450*
X207944*
Y109550*
X102944*
Y109650*
X207944*
Y109750*
X102944*
Y109850*
X207944*
X102944Y109950D02*
X207944D01*
Y110050*
X102944*
X188144Y110150D02*
X207944D01*
Y110250*
X188744*
X112744Y110150D02*
X184744D01*
X111044D02*
X102944D01*
Y110250*
X111044*
Y110350*
X102944*
Y110450*
X111044*
Y110550*
X102944*
Y110650*
X111044*
Y110750*
X102944*
Y110850*
X111044*
Y110950*
X102944*
Y111050*
X111044*
X112844Y110250D02*
X184144D01*
X189344Y110350D02*
X207944D01*
Y110450*
X189744*
X183644Y110350D02*
X112944D01*
Y110450*
X183344*
X190244Y110550D02*
X207944D01*
Y110650*
X190544*
X174544Y110550D02*
X183044D01*
X164344D02*
X172044D01*
Y110650*
X164444*
X157944Y110550D02*
X158644D01*
Y110650*
X157944*
X139844Y110550D02*
X140144D01*
X129844D02*
X130544D01*
Y110650*
X129844*
X113044Y110550D02*
X120244D01*
Y110650*
X113144*
X174644D02*
X182744D01*
X140244D02*
X139844D01*
Y110750*
X140244*
Y110850*
X139944*
Y110950*
X140344*
X190944Y110750D02*
X207944D01*
Y110850*
X191244*
X182544Y110750D02*
X174644D01*
Y110850*
X182344*
X171944Y110750D02*
X164444D01*
Y110850*
X171944*
Y110950*
X164544*
Y111050*
X171844*
Y111150*
X164544*
X158044Y110750D02*
X158744D01*
Y110850*
X158044*
Y110950*
X158744*
X130644Y110750D02*
X129944D01*
Y110850*
X130644*
Y110950*
X129944*
X113244Y110750D02*
X120344D01*
Y110850*
X113244*
X191644Y110950D02*
X207944D01*
Y111050*
X191944*
X174744Y110950D02*
X182144D01*
X113344D02*
X120344D01*
X181944Y111050D02*
X174744D01*
Y111150*
X181844*
X158144Y111050D02*
X158844D01*
Y111150*
X158144*
X139944Y111050D02*
X140344D01*
Y111150*
X140044*
X130044Y111050D02*
X130744D01*
Y111150*
X130044*
X113444Y111050D02*
X120444D01*
Y111150*
X113544*
Y111250*
X120844*
X192244Y111150D02*
X207944D01*
Y111250*
X192544*
X110944Y111150D02*
X102944D01*
Y111250*
X110944*
Y111350*
X102944*
Y111450*
X110944*
Y111550*
X102944*
Y111650*
X110944*
Y111750*
X102944*
Y111850*
X110944*
Y111950*
X102944*
Y112050*
X110944*
Y112150*
X102944*
Y112250*
X110944*
Y112350*
X102944*
Y112450*
X110944*
Y112550*
X102944*
Y112650*
X110944*
X174844Y111250D02*
X181644D01*
X164144D02*
X171744D01*
Y111350*
X163744*
X157744Y111250D02*
X159244D01*
X139644D02*
X140944D01*
X129644D02*
X131144D01*
X192844Y111350D02*
X207944D01*
Y111450*
X193044*
X186944Y111350D02*
X187344D01*
X181544D02*
X174844D01*
Y111450*
X181444*
X157344Y111350D02*
X159744D01*
X148644D02*
X149444D01*
X139344D02*
X141544D01*
X129244D02*
X131644D01*
X113644D02*
X121344D01*
X186544Y111450D02*
X187844D01*
X163444D02*
X171644D01*
Y111550*
X163344*
X157044Y111450D02*
X160044D01*
X148544D02*
X149744D01*
X139144D02*
X141844D01*
X128944D02*
X131944D01*
X113744D02*
X121644D01*
X193344Y111550D02*
X207944D01*
Y111650*
X193644*
X186244Y111550D02*
X188244D01*
X174944D02*
X181344D01*
X156944D02*
X160244D01*
X148444D02*
X149944D01*
X139044D02*
X142044D01*
Y111650*
X138944*
Y111750*
X142144*
Y111850*
X138844*
Y111950*
X142144*
Y112050*
X138844*
Y112150*
X142144*
Y112250*
X138844*
Y112350*
X142144*
Y112450*
X138844*
Y112550*
X142044*
Y112650*
X138944*
Y112750*
X142044*
Y112850*
X138944*
Y112950*
X141944*
X128844Y111550D02*
X132144D01*
X113844D02*
X121844D01*
X186044Y111650D02*
X188544D01*
X181244D02*
X174944D01*
Y111750*
X181144*
X163244Y111650D02*
X171544D01*
Y111750*
X163144*
X156844Y111650D02*
X160444D01*
X148344D02*
X150144D01*
X128744D02*
X132344D01*
X122044D02*
X113944D01*
Y111750*
X122144*
X193844D02*
X207944D01*
Y111850*
X193844*
Y111950*
X207944*
Y112050*
X193944*
Y112150*
X207944*
Y112250*
X193944*
X185944Y111750D02*
X188644D01*
X160544D02*
X156744D01*
Y111850*
X160744*
X150244Y111750D02*
X148244D01*
Y111850*
X150444*
X132444Y111750D02*
X128644D01*
Y111850*
X132644*
X185844D02*
X188644D01*
Y111950*
X185744*
X175044Y111850D02*
X181044D01*
X171444D02*
X163144D01*
Y111950*
X171444*
X114044Y111850D02*
X122344D01*
X180944Y111950D02*
X175044D01*
Y112050*
X180844*
X160844Y111950D02*
X156644D01*
Y112050*
X160844*
X148144Y111950D02*
X150544D01*
Y112050*
X148144*
X128544Y111950D02*
X132744D01*
Y112050*
X128544*
Y112150*
X132844*
X114144Y111950D02*
X122444D01*
Y112050*
X114244*
Y112150*
X122544*
X185644Y112050D02*
X188744D01*
Y112150*
X185544*
Y112250*
X188744*
X171344Y112050D02*
X163044D01*
Y112150*
X171344*
X180744D02*
X175144D01*
Y112250*
X180644*
Y112350*
X175244*
X160944Y112150D02*
X156644D01*
Y112250*
X161044*
X150644Y112150D02*
X148044D01*
Y112250*
X150744*
X163044D02*
X171244D01*
Y112350*
X163044*
X128544Y112250D02*
X132944D01*
X114344D02*
X122644D01*
X194044Y112350D02*
X207944D01*
Y112450*
X194044*
Y112550*
X207944*
Y112650*
X194144*
Y112750*
X207944*
Y112850*
X194144*
X188844Y112350D02*
X185444D01*
Y112450*
X188844*
Y112550*
X185344*
Y112650*
X188944*
Y112750*
X185344*
X161144Y112350D02*
X156644D01*
Y112450*
X161144*
X147944Y112350D02*
X150844D01*
Y112450*
X147944*
Y112550*
X150944*
Y112650*
X147844*
Y112750*
X151044*
Y112850*
X147844*
Y112950*
X151144*
Y113050*
X147744*
Y113150*
X151244*
Y113250*
X147744*
X133044Y112350D02*
X128544D01*
Y112450*
X133044*
X114444Y112350D02*
X122744D01*
Y112450*
X114544*
Y112550*
X122844*
Y112650*
X114644*
X180544Y112450D02*
X175244D01*
Y112550*
X180444*
Y112650*
X175344*
Y112750*
X180344*
Y112850*
X175344*
X163144Y112450D02*
X171144D01*
Y112550*
X163144*
Y112650*
X171044*
Y112750*
X163144*
X161244Y112550D02*
X156744D01*
Y112650*
X161244*
X133144Y112550D02*
X128644D01*
Y112650*
X133144*
X156744Y112750D02*
X161344D01*
Y112850*
X156744*
Y112950*
X161444*
Y113050*
X156844*
Y113150*
X161544*
Y113250*
X156844*
X128644Y112750D02*
X133244D01*
Y112850*
X128644*
Y112950*
X133344*
Y113050*
X128744*
Y113150*
X133444*
Y113250*
X128744*
X114744Y112750D02*
X122944D01*
Y112850*
X114844*
Y112950*
X123044*
Y113050*
X114944*
X110844Y112750D02*
X102944D01*
Y112850*
X110844*
Y112950*
X102944*
Y113050*
X110844*
Y113150*
X102944*
Y113250*
X110844*
Y113350*
X102944*
X185244Y112850D02*
X188944D01*
X170944D02*
X163144D01*
Y112950*
X170944*
X194244D02*
X207944D01*
Y113050*
X194244*
Y113150*
X207944*
Y113250*
X194344*
Y113350*
X207944*
X189044Y112950D02*
X185244D01*
Y113050*
X189044*
Y113150*
X185244*
Y113250*
X189144*
Y113350*
X185144*
Y113450*
X189144*
X175444Y112950D02*
X180244D01*
Y113050*
X175444*
Y113150*
X180144*
Y113250*
X175544*
Y113350*
X180044*
X163244Y113050D02*
X170844D01*
Y113150*
X163244*
Y113250*
X170744*
Y113350*
X163344*
Y113450*
X170644*
Y113550*
X163344*
X139044Y113050D02*
X141944D01*
Y113150*
X139044*
Y113250*
X141944*
X115044Y113150D02*
X123144D01*
Y113250*
X115144*
Y113350*
X123144*
X156944D02*
X161544D01*
X147644D02*
X151244D01*
X139144D02*
X141844D01*
Y113450*
X139144*
Y113550*
X141844*
Y113650*
X139244*
Y113750*
X141744*
Y113850*
X139244*
X128844Y113350D02*
X133444D01*
X194344Y113450D02*
X207944D01*
Y113550*
X194444*
Y113650*
X207944*
Y113750*
X194444*
X175544Y113450D02*
X180044D01*
Y113550*
X175644*
Y113650*
X179944*
Y113750*
X175644*
X161644Y113450D02*
X156944D01*
Y113550*
X161644*
Y113650*
X157044*
Y113750*
X161744*
Y113850*
X157044*
X151344Y113450D02*
X147644D01*
Y113550*
X151344*
Y113650*
X147644*
X133544Y113450D02*
X128844D01*
Y113550*
X133544*
Y113650*
X128944*
Y113750*
X133644*
Y113850*
X128944*
X115244Y113450D02*
X123244D01*
X110844D02*
X102944D01*
Y113550*
X110844*
Y113650*
X102944*
Y113750*
X110844*
Y113850*
X102944*
Y113950*
X110844*
Y114050*
X102944*
Y114150*
X110844*
Y114250*
X102944*
Y114350*
X110744*
Y114450*
X102944*
X189244Y113550D02*
X185144D01*
Y113650*
X189244*
Y113750*
X185144*
Y113850*
X189344*
X115344Y113550D02*
X123244D01*
Y113650*
X115444*
Y113750*
X123344*
Y113850*
X115544*
X163444Y113650D02*
X170544D01*
Y113750*
X163444*
Y113850*
X170544*
X147544Y113750D02*
X151444D01*
Y113850*
X147544*
X194544D02*
X207944D01*
Y113950*
X194544*
Y114050*
X207944*
Y114150*
X194644*
Y114250*
X207944*
Y114350*
X194644*
X175744Y113850D02*
X179944D01*
Y113950*
X175744*
Y114050*
X179844*
X185144Y113950D02*
X189344D01*
Y114050*
X185144*
Y114150*
X189444*
Y114250*
X185144*
Y114350*
X189544*
Y114450*
X185144*
X163544Y113950D02*
X170444D01*
Y114050*
X163544*
Y114150*
X170344*
Y114250*
X163644*
Y114350*
X170244*
Y114450*
X163644*
X161844Y113950D02*
X157144D01*
Y114050*
X161844*
Y114150*
X157144*
X151544Y113950D02*
X147544D01*
Y114050*
X151544*
Y114150*
X147444*
X139344Y113950D02*
X141744D01*
Y114050*
X139344*
Y114150*
X141644*
Y114250*
X139444*
Y114350*
X141644*
Y114450*
X139444*
X133744Y113950D02*
X129044D01*
Y114050*
X133744*
Y114150*
X129044*
X115644Y113950D02*
X123444D01*
X115744Y114050D02*
X123444D01*
Y114150*
X115744*
X175844D02*
X179844D01*
Y114250*
X175844*
Y114350*
X179844*
Y114450*
X175944*
X157244Y114250D02*
X161944D01*
Y114350*
X157244*
Y114450*
X161944*
X151644Y114250D02*
X147444D01*
Y114350*
X151644*
Y114450*
X147444*
X129144Y114250D02*
X133844D01*
Y114350*
X129144*
Y114450*
X133844*
X115844Y114250D02*
X123544D01*
Y114350*
X115944*
X194744Y114450D02*
X207944D01*
Y114550*
X194744*
Y114650*
X207944*
Y114750*
X194844*
Y114850*
X207944*
Y114950*
X194844*
X116044Y114450D02*
X123544D01*
X185244Y114550D02*
X189544D01*
X179744D02*
X175944D01*
Y114650*
X179744*
Y114750*
X176044*
Y114850*
X179744*
Y114950*
X176044*
X163744Y114550D02*
X170144D01*
Y114650*
X163744*
Y114750*
X170044*
Y114850*
X163844*
Y114950*
X169944*
Y115050*
X163844*
X162044Y114550D02*
X157344D01*
Y114650*
X162044*
Y114750*
X157344*
X151744Y114550D02*
X147344D01*
Y114650*
X151744*
Y114750*
X147344*
Y114850*
X151844*
Y114950*
X147244*
Y115050*
X151844*
X139544Y114550D02*
X141544D01*
Y114650*
X139544*
Y114750*
X141544*
Y114850*
X139644*
Y114950*
X141444*
Y115050*
X139644*
X133944Y114550D02*
X129244D01*
Y114650*
X133944*
Y114750*
X129244*
X123644Y114550D02*
X116144D01*
Y114650*
X123644*
Y114750*
X116244*
X110744Y114550D02*
X102944D01*
Y114650*
X110744*
Y114750*
X102944*
Y114850*
X110744*
Y114950*
X102944*
Y115050*
X110744*
Y115150*
X102944*
Y115250*
X110744*
Y115350*
X102944*
Y115450*
X110744*
Y115550*
X102944*
Y115650*
X110744*
X189644Y114650D02*
X185244D01*
Y114750*
X189644*
Y114850*
X185244*
Y114950*
X189744*
Y115050*
X185244*
X157444Y114850D02*
X162144D01*
Y114950*
X157444*
Y115050*
X162144*
X129344Y114850D02*
X134044D01*
Y114950*
X129344*
Y115050*
X134044*
X116344Y114850D02*
X123744D01*
Y114950*
X116444*
Y115050*
X123744*
X194944D02*
X207944D01*
Y115150*
X194944*
Y115250*
X207944*
Y115350*
X195044*
Y115450*
X207944*
Y115550*
X195144*
Y115650*
X207944*
Y115750*
X195144*
X176144Y115050D02*
X179744D01*
Y115150*
X176144*
Y115250*
X179744*
Y115350*
X176244*
Y115450*
X179744*
Y115550*
X176244*
X189744Y115150D02*
X185244D01*
Y115250*
X189844*
X163944Y115150D02*
X169844D01*
Y115250*
X163944*
Y115350*
X169744*
Y115450*
X164044*
Y115550*
X169644*
Y115650*
X164144*
Y115750*
X169544*
Y115850*
X164144*
X162244Y115150D02*
X157544D01*
Y115250*
X162244*
Y115350*
X157544*
X151944Y115150D02*
X147244D01*
Y115250*
X151944*
Y115350*
X147144*
Y115450*
X152044*
Y115550*
X147144*
Y115650*
X152044*
X139744Y115150D02*
X141444D01*
Y115250*
X139744*
Y115350*
X141344*
Y115450*
X139844*
Y115550*
X141344*
Y115650*
X139844*
X129444Y115150D02*
X134144D01*
X116544D02*
X123844D01*
X129244Y115250D02*
X134144D01*
Y115350*
X129144*
X116644Y115250D02*
X123844D01*
Y115350*
X116744*
Y115450*
X123944*
Y115550*
X116844*
X185344Y115350D02*
X189844D01*
Y115450*
X185344*
Y115550*
X189944*
Y115650*
X185344*
Y115750*
X189944*
Y115850*
X185444*
Y115950*
X190044*
Y116050*
X185444*
Y116150*
X190044*
Y116250*
X185444*
X157644Y115450D02*
X162344D01*
Y115550*
X157644*
Y115650*
X162344*
X129044Y115450D02*
X134244D01*
Y115550*
X128944*
Y115650*
X134244*
X176344D02*
X179744D01*
Y115750*
X176344*
Y115850*
X179744*
X116944Y115650D02*
X123944D01*
X162444Y115750D02*
X157744D01*
Y115850*
X162444*
Y115950*
X157744*
X152144Y115750D02*
X147044D01*
Y115850*
X152144*
Y115950*
X147044*
Y116050*
X152244*
Y116150*
X146944*
Y116250*
X152244*
X139944Y115750D02*
X141244D01*
Y115850*
X139944*
Y115950*
X141244*
Y116050*
X140044*
Y116150*
X141144*
Y116250*
X140144*
X128944Y115750D02*
X134344D01*
X124044D02*
X117044D01*
Y115850*
X124044*
Y115950*
X117144*
X102944Y115750D02*
X110744D01*
Y115850*
X102944*
X195244D02*
X207944D01*
Y115950*
X195244*
X129044Y115850D02*
X134344D01*
Y115950*
X129644*
X129544*
X129144*
Y116050*
X129444*
X176444Y115950D02*
X179744D01*
Y116050*
X176444*
Y116150*
X179744*
Y116250*
X176544*
Y116350*
X179844*
Y116450*
X176644*
Y116550*
X179844*
Y116650*
X176644*
X164244Y115950D02*
X169444D01*
Y116050*
X164244*
Y116150*
X169344*
Y116250*
X164344*
X110644Y115950D02*
X102944D01*
Y116050*
X110644*
Y116150*
X102944*
Y116250*
X110644*
X195344Y116050D02*
X207944D01*
Y116150*
X195344*
X157844Y116050D02*
X162544D01*
Y116150*
X157844*
X129744Y116050D02*
X134444D01*
Y116150*
X129744*
X117244Y116050D02*
X124144D01*
Y116150*
X117344*
Y116250*
X124144*
X207944D02*
X195444D01*
Y116350*
X207944*
Y116450*
X195544*
X157944Y116250D02*
X162544D01*
X129844D02*
X134444D01*
X190044Y116350D02*
X185544D01*
Y116450*
X190044*
Y116550*
X185544*
Y116650*
X190044*
Y116750*
X185644*
X169244Y116350D02*
X164344D01*
Y116450*
X169244*
Y116550*
X164444*
Y116650*
X169144*
Y116750*
X164444*
X162644Y116350D02*
X157944D01*
Y116450*
X162644*
Y116550*
X158044*
Y116650*
X162744*
Y116750*
X158044*
X152344Y116350D02*
X146944D01*
Y116450*
X152344*
Y116550*
X146844*
Y116650*
X152444*
Y116750*
X146844*
Y116850*
X152444*
X141144Y116350D02*
X140144D01*
Y116450*
X141144*
Y116550*
X140244*
Y116650*
X141044*
Y116750*
X140244*
X134544Y116350D02*
X129844D01*
Y116450*
X134544*
Y116550*
X129944*
Y116650*
X134644*
Y116750*
X129944*
X117444Y116350D02*
X124244D01*
X102944D02*
X110644D01*
Y116450*
X102944*
Y116550*
X110644*
Y116650*
X102944*
Y116750*
X110644*
Y116850*
X102944*
Y116950*
X110644*
Y117050*
X102944*
Y117150*
X110644*
Y117250*
X102944*
Y117350*
X110644*
Y117450*
X102944*
Y117550*
X110544*
Y117650*
X102944*
Y117750*
X110544*
Y117850*
X102944*
Y117950*
X110544*
Y118050*
X102944*
Y118150*
X110544*
Y118250*
X102944*
Y118350*
X110544*
Y118450*
X102944*
Y118550*
X110544*
X117544Y116450D02*
X124244D01*
Y116550*
X117644*
Y116650*
X124344*
Y116750*
X117744*
X195644Y116550D02*
X207944D01*
Y116650*
X195744*
Y116750*
X207944*
Y116850*
X195844*
X179844Y116750D02*
X176744D01*
Y116850*
X179844*
Y116950*
X176744*
X190044Y116850D02*
X185644D01*
Y116950*
X190044*
X164544Y116850D02*
X169044D01*
Y116950*
X164544*
Y117050*
X168944*
Y117150*
X164644*
Y117250*
X168844*
Y117350*
X164644*
X158144Y116850D02*
X162744D01*
X140344D02*
X141044D01*
Y116950*
X140344*
Y117050*
X140944*
X130044Y116850D02*
X134644D01*
X117844D02*
X124344D01*
X196044Y116950D02*
X207944D01*
Y117050*
X196144*
X162844Y116950D02*
X158144D01*
Y117050*
X162844*
Y117150*
X158244*
Y117250*
X162944*
Y117350*
X158244*
X146744Y116950D02*
X152544D01*
Y117050*
X146744*
Y117150*
X152544*
X134744Y116950D02*
X130044D01*
Y117050*
X134744*
Y117150*
X130144*
Y117250*
X134844*
Y117350*
X130144*
X124444Y116950D02*
X117944D01*
Y117050*
X124444*
Y117150*
X118044*
X185744Y117050D02*
X189944D01*
X179944D02*
X176844D01*
Y117150*
X179944*
Y117250*
X176844*
X196344Y117150D02*
X207944D01*
Y117250*
X196544*
X189844Y117150D02*
X185744D01*
Y117250*
X189644*
X140444Y117150D02*
X140944D01*
Y117250*
X140544*
X146644D02*
X152644D01*
Y117350*
X146644*
X118144Y117250D02*
X124544D01*
Y117350*
X118244*
Y117450*
X124544*
X196744Y117350D02*
X207944D01*
Y117450*
X197244*
X185744Y117350D02*
X189444D01*
X176944D02*
X179944D01*
X140644D02*
X140944D01*
X185844Y117450D02*
X188844D01*
X180044D02*
X176944D01*
Y117550*
X180044*
X164744Y117450D02*
X168744D01*
Y117550*
X164744*
Y117650*
X168644*
Y117750*
X164844*
Y117850*
X168544*
Y117950*
X164844*
X158344Y117450D02*
X162944D01*
X152644D02*
X146644D01*
Y117550*
X152744*
X130244Y117450D02*
X134844D01*
X116444D02*
X116344D01*
Y117550*
X116544*
Y117650*
X116344*
X197444Y117550D02*
X207944D01*
Y117650*
X197444*
X188644Y117550D02*
X185844D01*
Y117650*
X188644*
X163044Y117550D02*
X158344D01*
Y117650*
X163044*
Y117750*
X158444*
Y117850*
X163144*
Y117950*
X158444*
X134944Y117550D02*
X130244D01*
Y117650*
X134944*
Y117750*
X130344*
Y117850*
X135044*
Y117950*
X130344*
X118344Y117550D02*
X124644D01*
X177044Y117650D02*
X180044D01*
Y117750*
X177044*
Y117850*
X180144*
Y117950*
X177144*
Y118050*
X180144*
Y118150*
X177144*
X146544Y117650D02*
X152744D01*
Y117750*
X146544*
Y117850*
X152844*
Y117950*
X146544*
X118444Y117650D02*
X124644D01*
Y117750*
X118544*
X197544D02*
X207944D01*
Y117850*
X197544*
Y117950*
X207944*
Y118050*
X197644*
Y118150*
X207944*
Y118250*
X186044*
Y118150*
X188844*
Y118050*
X186044*
X185944Y117750D02*
X188744D01*
Y117850*
X185944*
Y117950*
X188744*
X116644Y117750D02*
X116244D01*
Y117850*
X116744*
X118644D02*
X124744D01*
Y117950*
X118644*
X116244D02*
X116844D01*
Y118050*
X116244*
Y118150*
X116944*
X164944Y118050D02*
X168444D01*
Y118150*
X164944*
Y118250*
X168344*
Y118350*
X165044*
Y118450*
X168244*
Y118550*
X165044*
X163244Y118050D02*
X158544D01*
Y118150*
X163244*
Y118250*
X158544*
X152944Y118050D02*
X146444D01*
Y118150*
X152944*
Y118250*
X146444*
Y118350*
X153044*
Y118450*
X146344*
Y118550*
X153044*
X135144Y118050D02*
X130444D01*
Y118150*
X135144*
Y118250*
X130444*
X118744Y118050D02*
X124844D01*
X175444Y118150D02*
X175344D01*
Y118250*
X175444*
X118844Y118150D02*
X124844D01*
Y118250*
X118944*
Y118350*
X124944*
Y118450*
X119044*
X180244Y118250D02*
X177244D01*
Y118350*
X180244*
Y118450*
X177244*
X117044Y118250D02*
X116244D01*
Y118350*
X117144*
Y118450*
X116244*
Y118550*
X117244*
X186144Y118350D02*
X207944D01*
Y118450*
X186144*
Y118550*
X207944*
Y118650*
X186244*
Y118750*
X207944*
Y118850*
X186244*
X175544Y118350D02*
X175244D01*
Y118450*
X175544*
Y118550*
X175144*
Y118650*
X175644*
X158644Y118350D02*
X163344D01*
Y118450*
X158644*
Y118550*
X163344*
X135244Y118350D02*
X130544D01*
Y118450*
X135244*
Y118550*
X130544*
X180344D02*
X177344D01*
Y118650*
X180344*
Y118750*
X177344*
X119144Y118550D02*
X124944D01*
X165144Y118650D02*
X168144D01*
Y118750*
X165144*
Y118850*
X168044*
Y118950*
X165244*
Y119050*
X167944*
Y119150*
X165244*
X163444Y118650D02*
X158744D01*
Y118750*
X163444*
Y118850*
X158744*
X153144Y118650D02*
X146344D01*
Y118750*
X153144*
Y118850*
X146244*
Y118950*
X153244*
Y119050*
X146244*
Y119150*
X153244*
X135344Y118650D02*
X130644D01*
Y118750*
X135344*
Y118850*
X130644*
X125044Y118650D02*
X119244D01*
Y118750*
X125044*
Y118850*
X119344*
X116244Y118650D02*
X117344D01*
X102944D02*
X110544D01*
Y118750*
X102944*
Y118850*
X110544*
Y118950*
X102944*
Y119050*
X110444*
Y119150*
X102944*
Y119250*
X110444*
Y119350*
X102944*
Y119450*
X110444*
Y119550*
X102944*
Y119650*
X110444*
Y119750*
X102944*
X175044Y118750D02*
X175644D01*
Y118850*
X175044*
X117444Y118750D02*
X116244D01*
Y118850*
X117544*
Y118950*
X116244*
Y119050*
X117644*
X180444Y118850D02*
X177444D01*
Y118950*
X180444*
Y119050*
X177444*
X186344Y118950D02*
X207944D01*
Y119050*
X186344*
Y119150*
X207944*
Y119250*
X186444*
Y119350*
X207944*
Y119450*
X186544*
Y119550*
X207944*
Y119650*
X186544*
X174944Y118950D02*
X175744D01*
Y119050*
X174944*
X158844Y118950D02*
X163544D01*
Y119050*
X158844*
Y119150*
X163544*
X130744Y118950D02*
X135444D01*
Y119050*
X130744*
Y119150*
X135444*
X119444Y118950D02*
X125144D01*
Y119050*
X119544*
Y119150*
X125144*
X177544D02*
X180544D01*
Y119250*
X177544*
Y119350*
X180644*
X175844Y119150D02*
X174844D01*
Y119250*
X175844*
Y119350*
X174744*
Y119450*
X175944*
X116244Y119150D02*
X117744D01*
X165344Y119250D02*
X167944D01*
X163644D02*
X158944D01*
Y119350*
X163644*
Y119450*
X158944*
X153344Y119250D02*
X146144D01*
Y119350*
X153344*
Y119450*
X146144*
Y119550*
X153444*
Y119650*
X146044*
Y119750*
X153444*
X135544Y119250D02*
X130844D01*
Y119350*
X135544*
Y119450*
X130844*
X119644Y119250D02*
X125244D01*
X117844D02*
X116244D01*
Y119350*
X117844*
X167844D02*
X165344D01*
Y119450*
X167844*
X119744Y119350D02*
X125244D01*
Y119450*
X119844*
Y119550*
X125344*
Y119650*
X119944*
X177644Y119450D02*
X180644D01*
Y119550*
X177644*
Y119650*
X180744*
Y119750*
X177744*
Y119850*
X180844*
Y119950*
X177744*
X116144Y119450D02*
X117944D01*
X174644Y119550D02*
X175944D01*
Y119650*
X174644*
Y119750*
X176044*
Y119850*
X174544*
Y119950*
X176044*
X167744Y119550D02*
X165444D01*
Y119650*
X167744*
X163744Y119550D02*
X159044D01*
Y119650*
X163744*
Y119750*
X159044*
X130944Y119550D02*
X135644D01*
Y119650*
X130944*
Y119750*
X135644*
X118044Y119550D02*
X116144D01*
Y119650*
X118144*
Y119750*
X116144*
X141344Y119650D02*
X141244D01*
Y119750*
X141544*
X207944D02*
X186644D01*
Y119850*
X207944*
Y119950*
X186744*
Y120050*
X207944*
Y120150*
X186844*
Y120250*
X207944*
Y120350*
X186844*
X165544Y119750D02*
X167644D01*
Y119850*
X165544*
Y119950*
X167544*
Y120050*
X165644*
Y120150*
X167444*
Y120250*
X165644*
X120044Y119750D02*
X125344D01*
X163844Y119850D02*
X159144D01*
Y119950*
X163844*
Y120050*
X159144*
X153544Y119850D02*
X146044D01*
Y119950*
X153544*
Y120050*
X145944*
Y120150*
X153644*
Y120250*
X145944*
Y120350*
X153644*
X141344Y119850D02*
X141644D01*
X135744D02*
X131044D01*
Y119950*
X135744*
Y120050*
X131044*
X125444Y119850D02*
X120144D01*
Y119950*
X125444*
Y120050*
X120244*
X118244Y119850D02*
X116144D01*
Y119950*
X118344*
X110444Y119850D02*
X102944D01*
Y119950*
X110444*
Y120050*
X102944*
Y120150*
X110444*
Y120250*
X102944*
Y120350*
X110444*
Y120450*
X102944*
Y120550*
X110444*
X141744Y119950D02*
X141344D01*
Y120050*
X141844*
X177844D02*
X180944D01*
Y120150*
X177844*
Y120250*
X181044*
Y120350*
X177944*
Y120450*
X181144*
Y120550*
X177944*
X176144Y120050D02*
X174444D01*
Y120150*
X176144*
Y120250*
X174344*
Y120350*
X176244*
X118444Y120050D02*
X116144D01*
Y120150*
X118444*
X159244D02*
X163944D01*
Y120250*
X159244*
X141944Y120150D02*
X141444D01*
Y120250*
X142044*
X135844Y120150D02*
X131144D01*
Y120250*
X135844*
Y120350*
X131244*
X120344Y120150D02*
X125544D01*
Y120250*
X120444*
Y120350*
X125544*
X116144Y120250D02*
X118544D01*
X165744Y120350D02*
X167344D01*
Y120450*
X165744*
Y120550*
X167244*
Y120650*
X165844*
Y120750*
X167144*
Y120850*
X165844*
X159344Y120350D02*
X163944D01*
X141544D02*
X142144D01*
X118644D02*
X116144D01*
Y120450*
X118744*
Y120550*
X116144*
X186944Y120450D02*
X207944D01*
Y120550*
X186944*
X174244Y120450D02*
X176244D01*
Y120550*
X174244*
X164044Y120450D02*
X159344D01*
Y120550*
X164044*
Y120650*
X159444*
Y120750*
X164144*
Y120850*
X159444*
X153744Y120450D02*
X145844D01*
Y120550*
X153744*
Y120650*
X145844*
X142344Y120450D02*
X141544D01*
Y120550*
X142444*
X135944Y120450D02*
X131244D01*
Y120550*
X135944*
Y120650*
X131344*
Y120750*
X136044*
Y120850*
X131344*
X120544Y120450D02*
X125644D01*
X120644Y120550D02*
X125644D01*
Y120650*
X120744*
X187044D02*
X207944D01*
Y120750*
X187044*
X181244Y120650D02*
X178044D01*
Y120750*
X181244*
X176344Y120650D02*
X174144D01*
Y120750*
X176344*
Y120850*
X174044*
Y120950*
X176444*
X142544Y120650D02*
X141644D01*
Y120750*
X142644*
X118844Y120650D02*
X116144D01*
Y120750*
X118944*
X110344Y120650D02*
X102944D01*
Y120750*
X110344*
Y120850*
X102944*
Y120950*
X110344*
Y121050*
X102944*
Y121150*
X110344*
Y121250*
X102944*
Y121350*
X110344*
Y121450*
X102944*
Y121550*
X110344*
Y121650*
X102944*
Y121750*
X110344*
Y121850*
X102944*
Y121950*
X110344*
Y122050*
X102944*
Y122150*
X110344*
X145744Y120750D02*
X153844D01*
Y120850*
X145744*
X120844Y120750D02*
X125744D01*
Y120850*
X120844*
X187144D02*
X207944D01*
Y120950*
X187144*
X178144Y120850D02*
X181344D01*
Y120950*
X178144*
Y121050*
X181444*
X141644Y120850D02*
X142744D01*
X119044D02*
X116144D01*
Y120950*
X119044*
X165944D02*
X167044D01*
Y121050*
X165944*
Y121150*
X166944*
Y121250*
X166044*
Y121350*
X166844*
Y121450*
X166044*
X159544Y120950D02*
X164144D01*
X153844D02*
X145744D01*
Y121050*
X153944*
X141744Y120950D02*
X142844D01*
X131444D02*
X136044D01*
X120944D02*
X125744D01*
X187244Y121050D02*
X207944D01*
Y121150*
X187244*
X173944Y121050D02*
X176444D01*
Y121150*
X173944*
X164244Y121050D02*
X159544D01*
Y121150*
X164244*
Y121250*
X159644*
Y121350*
X164344*
Y121450*
X159644*
X142944Y121050D02*
X141744D01*
Y121150*
X143144*
X136144Y121050D02*
X131444D01*
Y121150*
X136144*
Y121250*
X131544*
Y121350*
X136244*
Y121450*
X131544*
X121044Y121050D02*
X125844D01*
X116044D02*
X119144D01*
X178244Y121150D02*
X181544D01*
Y121250*
X178244*
Y121350*
X181644*
Y121450*
X178344*
X145644Y121150D02*
X153944D01*
Y121250*
X145644*
Y121350*
X154044*
Y121450*
X145644*
Y121550*
X154044*
X121144Y121150D02*
X125844D01*
Y121250*
X121144*
X119244Y121150D02*
X116044D01*
Y121250*
X119344*
Y121350*
X116044*
Y121450*
X119444*
X187344Y121250D02*
X207944D01*
Y121350*
X187344*
X176544Y121250D02*
X173844D01*
Y121350*
X176544*
Y121450*
X173744*
X143244Y121250D02*
X141844D01*
Y121350*
X143344*
X121244D02*
X125944D01*
Y121450*
X121344*
X187444D02*
X207944D01*
Y121550*
X187544*
Y121650*
X195644*
Y121750*
X187644*
Y121850*
X195644*
Y121950*
X187744*
X141844Y121450D02*
X143444D01*
X181744Y121550D02*
X178344D01*
Y121650*
X181844*
Y121750*
X178444*
X176644Y121550D02*
X173744D01*
Y121650*
X176644*
Y121750*
X173644*
Y121850*
X176744*
Y121950*
X173544*
Y122050*
X176744*
X166144Y121550D02*
X166744D01*
Y121650*
X166144*
Y121750*
X166644*
Y121850*
X166244*
Y121950*
X166544*
Y122050*
X166244*
X159744Y121550D02*
X164344D01*
X141944D02*
X143544D01*
X131644D02*
X136244D01*
X125944D02*
X121444D01*
Y121650*
X126044*
X119544Y121550D02*
X116044D01*
Y121650*
X119644*
Y121750*
X116044*
X196844Y121650D02*
X207944D01*
Y121750*
X196944*
Y121850*
X207944*
Y121950*
X196944*
X164444Y121650D02*
X159744D01*
Y121750*
X164444*
Y121850*
X159844*
Y121950*
X164544*
Y122050*
X159844*
X145744Y121650D02*
X154144D01*
X143644D02*
X141944D01*
Y121750*
X143744*
X136344Y121650D02*
X131644D01*
Y121750*
X136344*
Y121850*
X131744*
Y121950*
X136444*
Y122050*
X131744*
X145844Y121750D02*
X154144D01*
Y121850*
X145944*
X121544Y121750D02*
X126044D01*
Y121850*
X121644*
X181944D02*
X178444D01*
Y121950*
X182044*
X143944Y121850D02*
X142044D01*
Y121950*
X144044*
X119744Y121850D02*
X116044D01*
Y121950*
X119844*
X146044D02*
X154244D01*
Y122050*
X146244*
X126144Y121950D02*
X121744D01*
Y122050*
X126144*
X197044D02*
X207944D01*
Y122150*
X197044*
Y122250*
X207944*
Y122350*
X197144*
Y122450*
X207944*
Y122550*
X197144*
X187844Y122050D02*
X195644D01*
Y122150*
X187844*
X178544Y122050D02*
X182144D01*
Y122150*
X178544*
Y122250*
X182244*
X142044Y122050D02*
X144144D01*
X116044D02*
X119944D01*
Y122150*
X116044*
Y122250*
X120044*
X176844Y122150D02*
X173444D01*
Y122250*
X176844*
Y122350*
X173344*
Y122450*
X176944*
Y122550*
X173244*
Y122650*
X176944*
X166544Y122150D02*
X166344D01*
Y122250*
X166444*
Y122350*
X166344*
X164644Y122150D02*
X159944D01*
Y122250*
X164644*
Y122350*
X159944*
X146344Y122150D02*
X154344D01*
X142144D02*
X144244D01*
X136544D02*
X131844D01*
Y122250*
X136544*
Y122350*
X131844*
X121844Y122150D02*
X126244D01*
X187944Y122250D02*
X195644D01*
Y122350*
X187944*
X146444Y122250D02*
X154344D01*
Y122350*
X146544*
X144344Y122250D02*
X142144D01*
Y122350*
X144444*
X121944Y122250D02*
X126244D01*
Y122350*
X122044*
Y122450*
X126344*
Y122550*
X122144*
X110244Y122250D02*
X102944D01*
Y122350*
X110244*
Y122450*
X102944*
Y122550*
X110244*
Y122650*
X102944*
X178644Y122350D02*
X182344D01*
X120144D02*
X116044D01*
Y122450*
X120244*
Y122550*
X116044*
X188044Y122450D02*
X195644D01*
Y122550*
X188144*
X182444Y122450D02*
X178644D01*
Y122550*
X182444*
X160044Y122450D02*
X164744D01*
Y122550*
X160044*
Y122650*
X164744*
X146644Y122450D02*
X154444D01*
Y122550*
X146744*
X144544Y122450D02*
X142244D01*
Y122550*
X144744*
X131944Y122450D02*
X136644D01*
Y122550*
X131944*
Y122650*
X136644*
X207944D02*
X197244D01*
Y122750*
X207944*
Y122850*
X197244*
X195644Y122650D02*
X188244D01*
Y122750*
X195644*
Y122850*
X188344*
X178744Y122650D02*
X182544D01*
X146844D02*
X154444D01*
X142244D02*
X144844D01*
X122244D02*
X126344D01*
X115944D02*
X120344D01*
X182644Y122750D02*
X178744D01*
Y122850*
X182744*
X177044Y122750D02*
X173144D01*
Y122850*
X177044*
Y122950*
X173044*
Y123050*
X177144*
Y123150*
X172944*
Y123250*
X177244*
Y123350*
X172844*
Y123450*
X177244*
X164844Y122750D02*
X160144D01*
Y122850*
X164844*
Y122950*
X160144*
X147044Y122750D02*
X154544D01*
X142344D02*
X144944D01*
X136744D02*
X132044D01*
Y122850*
X136744*
Y122950*
X132044*
X126444Y122750D02*
X122344D01*
Y122850*
X126444*
Y122950*
X122444*
X120444Y122750D02*
X115944D01*
Y122850*
X120544*
Y122950*
X115944*
Y123050*
X120644*
X110244Y122750D02*
X102944D01*
Y122850*
X110244*
Y122950*
X102944*
Y123050*
X110244*
Y123150*
X102944*
Y123250*
X110244*
Y123350*
X102944*
Y123450*
X110244*
Y123550*
X102944*
Y123650*
X110244*
Y123750*
X102944*
X147144Y122850D02*
X154544D01*
Y122950*
X147244*
X145044Y122850D02*
X142344D01*
Y122950*
X145144*
X197344D02*
X207944D01*
Y123050*
X197344*
Y123150*
X207944*
Y123250*
X197444*
Y123350*
X207944*
Y123450*
X197444*
X188444Y122950D02*
X195644D01*
Y123050*
X188444*
X182844Y122950D02*
X178844D01*
Y123050*
X182944*
X164944D02*
X160244D01*
Y123150*
X164944*
Y123250*
X160244*
X147344Y123050D02*
X154644D01*
Y123150*
X147444*
X145244Y123050D02*
X142444D01*
Y123150*
X145344*
X132144Y123050D02*
X136844D01*
Y123150*
X132144*
Y123250*
X136844*
X122544Y123050D02*
X126544D01*
Y123150*
X122644*
Y123250*
X126544*
X188544Y123150D02*
X195644D01*
X178844D02*
X183044D01*
X120744D02*
X115944D01*
Y123250*
X120844*
Y123350*
X115944*
Y123450*
X120944*
X188644Y123250D02*
X195544D01*
Y123350*
X188744*
X178944Y123250D02*
X183144D01*
X147544D02*
X154644D01*
X142444D02*
X145544D01*
X183244Y123350D02*
X178944D01*
Y123450*
X183344*
X165044Y123350D02*
X160344D01*
Y123450*
X165044*
Y123550*
X160344*
X147644Y123350D02*
X154744D01*
X142544D02*
X145644D01*
X136944D02*
X132244D01*
Y123450*
X136944*
Y123550*
X132244*
X122744Y123350D02*
X126644D01*
X188844Y123450D02*
X195544D01*
Y123550*
X188944*
X147844Y123450D02*
X154744D01*
Y123550*
X147944*
X145744Y123450D02*
X142544D01*
Y123550*
X145844*
X122844Y123450D02*
X126644D01*
Y123550*
X122944*
Y123650*
X126744*
Y123750*
X123044*
X197544Y123550D02*
X207944D01*
Y123650*
X197544*
Y123750*
X207944*
Y123850*
X197644*
Y123950*
X207944*
Y124050*
X197744*
Y124150*
X207944*
Y124250*
X197744*
X183444Y123550D02*
X179044D01*
Y123650*
X183544*
X177344Y123550D02*
X172744D01*
Y123650*
X177344*
Y123750*
X172744*
X121044Y123550D02*
X115944D01*
Y123650*
X121144*
Y123750*
X115944*
X189044Y123650D02*
X195444D01*
Y123750*
X189144*
Y123850*
X195444*
X160444Y123650D02*
X165144D01*
Y123750*
X160444*
X148044Y123650D02*
X154844D01*
Y123750*
X148144*
X145944Y123650D02*
X142644D01*
Y123750*
X146044*
X132344Y123650D02*
X137044D01*
Y123750*
X132344*
X179044D02*
X183644D01*
X183744Y123850D02*
X179144D01*
Y123950*
X183844*
X172644Y123850D02*
X177444D01*
Y123950*
X172644*
X160544Y123850D02*
X165144D01*
X148244D02*
X154844D01*
X142644D02*
X146144D01*
X132444D02*
X137044D01*
X123144D02*
X126744D01*
X121244D02*
X115944D01*
Y123950*
X121344*
X110144Y123850D02*
X102944D01*
Y123950*
X110144*
Y124050*
X102944*
Y124150*
X110144*
Y124250*
X102944*
Y124350*
X110144*
X189244Y123950D02*
X195344D01*
Y124050*
X189444*
X165244Y123950D02*
X160544D01*
Y124050*
X165244*
Y124150*
X160644*
Y124250*
X165244*
X148344Y123950D02*
X154944D01*
Y124050*
X148444*
X146344Y123950D02*
X142744D01*
Y124050*
X146444*
X137144Y123950D02*
X132444D01*
Y124050*
X137144*
Y124150*
X132544*
Y124250*
X137144*
X123244Y123950D02*
X126844D01*
Y124050*
X123344*
Y124150*
X126844*
Y124250*
X123444*
X183944Y124050D02*
X179244D01*
Y124150*
X184044*
X172544Y124050D02*
X177444D01*
Y124150*
X172544*
X121444Y124050D02*
X115944D01*
Y124150*
X121444*
X189544D02*
X195244D01*
Y124250*
X189644*
X148644Y124150D02*
X154944D01*
Y124250*
X148744*
X146544Y124150D02*
X142844D01*
Y124250*
X146644*
X184244D02*
X179344D01*
Y124350*
X184344*
X177544Y124250D02*
X172444D01*
Y124350*
X177544*
Y124450*
X172344*
Y124550*
X177544*
Y124650*
X172244*
Y124750*
X177544*
Y124850*
X172144*
Y124950*
X177544*
Y125050*
X172044*
Y125150*
X177544*
Y125250*
X171944*
Y125350*
X177444*
X121544Y124250D02*
X115844D01*
Y124350*
X121644*
Y124450*
X115844*
Y124550*
X121744*
Y124650*
X115844*
X197844Y124350D02*
X207944D01*
Y124450*
X197844*
Y124550*
X207944*
Y124650*
X197944*
Y124750*
X207944*
Y124850*
X197944*
X189744Y124350D02*
X195144D01*
Y124450*
X189844*
X165344Y124350D02*
X160744D01*
Y124450*
X165344*
X148844Y124350D02*
X155044D01*
Y124450*
X148944*
X146744Y124350D02*
X142944D01*
Y124450*
X146844*
X137244Y124350D02*
X132644D01*
Y124450*
X137244*
Y124550*
X132744*
Y124650*
X137244*
X123544Y124350D02*
X126944D01*
Y124450*
X123644*
X184444D02*
X179444D01*
Y124550*
X184544*
X102944Y124450D02*
X110144D01*
Y124550*
X102944*
Y124650*
X110144*
Y124750*
X102944*
Y124850*
X110044*
Y124950*
X102944*
Y125050*
X110044*
Y125150*
X102944*
Y125250*
X109944*
Y125350*
X102944*
Y125450*
X109844*
X189944Y124550D02*
X195044D01*
X160844D02*
X165344D01*
Y124650*
X160844*
X149044Y124550D02*
X155044D01*
Y124650*
X149144*
X146944Y124550D02*
X143044D01*
Y124650*
X147044*
X123744Y124550D02*
X126944D01*
Y124650*
X123744*
X190144D02*
X194944D01*
X184744D02*
X179544D01*
Y124750*
X184844*
X190244D02*
X194844D01*
X160944D02*
X165344D01*
Y124850*
X161044*
Y124950*
X165344*
X149344Y124750D02*
X155044D01*
Y124850*
X149444*
X147144Y124750D02*
X143144D01*
Y124850*
X147244*
X132844Y124750D02*
X137244D01*
Y124850*
X132944*
Y124950*
X137244*
X123844Y124750D02*
X126944D01*
Y124850*
X123944*
X115944Y124750D02*
X121844D01*
Y124850*
X115944*
Y124950*
X121944*
X190444Y124850D02*
X194744D01*
X179644D02*
X185044D01*
X198044Y124950D02*
X207944D01*
Y125050*
X198044*
Y125150*
X207944*
Y125250*
X198144*
Y125350*
X207944*
Y125450*
X198144*
X190544Y124950D02*
X194644D01*
X179744D02*
X185144D01*
X149544D02*
X155044D01*
X143244D02*
X147344D01*
X124044D02*
X126944D01*
X190744Y125050D02*
X194544D01*
X185344D02*
X179844D01*
Y125150*
X185444*
X161144Y125050D02*
X165344D01*
Y125150*
X161244*
X149644Y125050D02*
X155044D01*
Y125150*
X149844*
X143344Y125050D02*
X147444D01*
X133044D02*
X137244D01*
Y125150*
X133144*
X124244Y125050D02*
X126944D01*
Y125150*
X124344*
X115944Y125050D02*
X121944D01*
Y125150*
X116044*
Y125250*
X121944*
Y125350*
X116144*
Y125450*
X121844*
X190944Y125150D02*
X194344D01*
X143444D02*
X147544D01*
Y125250*
X143544*
X191144D02*
X194244D01*
X180044D02*
X185644D01*
X161344D02*
X165244D01*
Y125350*
X161444*
X149944Y125250D02*
X154944D01*
Y125350*
X150144*
X133244Y125250D02*
X137144D01*
Y125350*
X133344*
X124444Y125250D02*
X126844D01*
Y125350*
X124544*
X191344D02*
X194044D01*
X180144D02*
X185844D01*
X143644D02*
X147644D01*
Y125450*
X143744*
X191644D02*
X193844D01*
X180244D02*
X185944D01*
X177344D02*
X171844D01*
Y125550*
X177244*
X161644Y125450D02*
X165144D01*
X150344D02*
X154844D01*
X133544D02*
X137044D01*
X124744D02*
X126744D01*
X198244Y125550D02*
X207944D01*
Y125650*
X198244*
Y125750*
X207944*
Y125850*
X198344*
Y125950*
X207944*
Y126050*
X198344*
X192044Y125550D02*
X193444D01*
X180444D02*
X186144D01*
X161844D02*
X165044D01*
X150544D02*
X154744D01*
X143944D02*
X147644D01*
X133744D02*
X136944D01*
X124944D02*
X126644D01*
X116344D02*
X121744D01*
X102944D02*
X109744D01*
X192744Y125650D02*
X192844D01*
X180644D02*
X186344D01*
X171744D02*
X177044D01*
X162044D02*
X164844D01*
X150844D02*
X154544D01*
X144144D02*
X147544D01*
X133944D02*
X136744D01*
X125144D02*
X126444D01*
X116444D02*
X121644D01*
X109644D02*
X102944D01*
Y125750*
X109444*
X180944D02*
X186644D01*
X176844D02*
X171744D01*
Y125850*
X176144*
Y125950*
X171644*
Y126050*
X176144*
Y126150*
X171544*
Y126250*
X176244*
X162344Y125750D02*
X164644D01*
X151144D02*
X154344D01*
X144344D02*
X147344D01*
X134244D02*
X136544D01*
X125344D02*
X126244D01*
X116644D02*
X121344D01*
X181544Y125850D02*
X186844D01*
X163144D02*
X164144D01*
X152144D02*
X153844D01*
X145044D02*
X146344D01*
X135044D02*
X136044D01*
X117744D02*
X120744D01*
X109044D02*
X102944D01*
Y125950*
X108844*
Y126050*
X102944*
Y126150*
X108944*
X196244Y125950D02*
X196744D01*
X187044D02*
X181844D01*
Y126050*
X187244*
X163844Y125950D02*
X163244D01*
Y126050*
X163944*
Y126150*
X163244*
X152244Y125950D02*
X153544D01*
X145144D02*
X146344D01*
Y126050*
X145144*
X135744Y125950D02*
X135144D01*
Y126050*
X135844*
Y126150*
X135144*
X117844Y125950D02*
X120544D01*
Y126050*
X117844*
Y126150*
X120644*
X195944Y126050D02*
X196944D01*
X152344D02*
X153644D01*
Y126150*
X152344*
Y126250*
X153644*
X207944Y126150D02*
X198444D01*
Y126250*
X207944*
Y126350*
X198444*
X195744Y126150D02*
X197044D01*
X181944D02*
X187544D01*
X145244D02*
X146344D01*
X195544Y126250D02*
X197144D01*
Y126350*
X195244*
X187844Y126250D02*
X181944D01*
Y126350*
X188144*
X163344Y126250D02*
X163944D01*
X146444D02*
X145244D01*
Y126350*
X146444*
Y126450*
X145344*
Y126550*
X146544*
X135244Y126250D02*
X135844D01*
X117944D02*
X120644D01*
Y126350*
X117944*
X102944Y126250D02*
X108944D01*
Y126350*
X102994*
Y126450*
X109044*
Y126550*
X102994*
Y126650*
X189244*
X171444Y126350D02*
X176244D01*
Y126450*
X171444*
X164044Y126350D02*
X163344D01*
Y126450*
X164044*
Y126550*
X163444*
X153744Y126350D02*
X152444D01*
Y126450*
X153744*
Y126550*
X152444*
X135944Y126350D02*
X135244D01*
Y126450*
X135944*
Y126550*
X135344*
X198544Y126450D02*
X207944D01*
Y126550*
X198544*
Y126650*
X207944*
Y126750*
X193944*
X195044Y126450D02*
X197244D01*
X188444D02*
X182044D01*
Y126550*
X188844*
X120744Y126450D02*
X117944D01*
Y126550*
X120744*
X194644D02*
X197344D01*
Y126650*
X194344*
X171344Y126550D02*
X176344D01*
X102994Y126750D02*
X189744D01*
X193344Y126850D02*
X207944D01*
Y126950*
X103044*
Y126850*
X190444*
X103094Y127050D02*
X207944D01*
Y127150*
X103094*
X103144Y127250D02*
X207944D01*
Y127350*
X103144*
X103194Y127450D02*
X207944D01*
Y127550*
X202044*
X201144D02*
X103244D01*
Y127650*
X200944*
X202244D02*
X207944D01*
Y127750*
X202344*
X201444Y127650D02*
X201844D01*
X201344Y127750D02*
X202044D01*
X103294D02*
X200844D01*
X202544Y127850D02*
X207944D01*
Y127950*
X202444*
X202144Y127850D02*
X201244D01*
Y127950*
X202244*
X103344Y127850D02*
X200744D01*
X103394Y127950D02*
X200644D01*
X201144Y128050D02*
X207944D01*
Y128150*
X201144*
Y128250*
X207944*
Y128350*
X201144*
Y128450*
X207944*
Y128550*
X201144*
Y128650*
X202044*
Y128750*
X201144*
Y128850*
X202044*
Y128950*
X201244*
Y129050*
X202144*
X103444Y128050D02*
X200644D01*
Y128150*
X103494*
X103544Y128250D02*
X200544D01*
Y128350*
X103594*
X103644Y128450D02*
X200544D01*
X103694Y128550D02*
X200544D01*
Y128650*
X103744*
X202544D02*
X207944D01*
Y128750*
X202544*
Y128850*
X207944*
Y128950*
X202544*
Y129050*
X207944*
X103794Y128750D02*
X200644D01*
X103894Y128850D02*
X200644D01*
Y128950*
X103944*
X104044Y129050D02*
X200744D01*
X202444Y129150D02*
X207944D01*
Y129250*
X202344*
X201344Y129150D02*
X202044D01*
X104094D02*
X200844D01*
X201444Y129250D02*
X201844D01*
X104194D02*
X200944D01*
X202144Y129350D02*
X207944D01*
Y129450*
X104394*
X104294Y129350D02*
X201144D01*
X104494Y129550D02*
X207944D01*
Y129650*
X104594*
X104694Y129750D02*
X207944D01*
Y129850*
X104844*
X104994Y129950D02*
X207944D01*
Y130050*
X105094*
X105244Y130150D02*
X207944D01*
Y130250*
X105394*
X105594Y130350D02*
X207944D01*
Y130450*
X105794*
X105994Y130550D02*
X207944D01*
Y130650*
X106244*
X106594Y130750D02*
X207944D01*
G54D11*
X407762Y739268D02*
Y755016D01*
X499494*
X515242*
Y739268*
X491620Y645567D02*
X515242D01*
Y661315*
X423510Y645567D02*
X407762D01*
Y661315*
X532683Y734268D02*
Y764268D01*
X542683*
Y734268*
X532683*
Y700803D02*
Y730803D01*
X542683*
Y700803*
X532683*
X463943Y657496D02*
X433943D01*
Y667496*
X463943*
Y657496*
X590045Y611906D02*
X592644D01*
X590045*
X592644*
Y608697*
X581148D02*
Y611906D01*
X583746*
X546738D02*
X549337D01*
X546738*
X549337*
Y608697*
X537841D02*
Y611906D01*
X540439*
X591833Y622094D02*
Y628094D01*
X588833Y625094*
X591833Y622094*
X592333Y625094D02*
X594333D01*
X588833D02*
X586833D01*
X548526Y622094D02*
Y628094D01*
X545526Y625094*
X548526Y622094*
X549026Y625094D02*
X551026D01*
X545526D02*
X543526D01*
X611423Y594504D02*
Y624504D01*
X621423*
Y594504*
X611423*
X405793Y575882D02*
Y776669D01*
X409730Y780606*
X657762*
X665636Y772732*
Y729425*
X675478Y719583*
Y591630*
X665636Y581787*
Y573913*
X663667Y571945*
X409730*
X405793Y575882*
X470754Y770764D02*
G75*
G03X470754I-5906J0D01*
G01Y581787D02*
G03X470754I-5906J0D01*
G01X671541Y603441D02*
G03X671541I-5905J0D01*
G01Y709740D02*
G03X671541I-5905J0D01*
G54D33*
G01X629219Y704819D02*
Y761906D01*
X657171*
Y704819*
X629219*
X635851D02*
Y761906D01*
X657151Y592614D02*
X629219D01*
Y630016*
X657151Y630015*
X657151D02*
Y592614D01*
X635851D02*
Y630016D01*
X629219Y641827D02*
Y698913D01*
X657171*
Y641827*
X629219*
X635851D02*
Y698913D01*
G54D70*
X407368Y598520D02*
Y635921D01*
X421148*
Y598520*
X407368*
Y609346D02*
X399888D01*
Y617220*
X407368*
X500281Y573126D02*
X476659D01*
Y592811*
X500281*
Y573126*
X453037D02*
X429415D01*
Y592811*
X453037*
Y573126*
X407762Y777457D02*
X431384D01*
Y757772*
X407762*
Y777457*
X433352D02*
X456974D01*
Y757772*
X433352*
Y777457*
G54D71*
X444376Y688972D02*
X444354Y688973D01*
G54D72*
X449691Y676079D02*
Y688283D01*
X448509*
Y676079*
X449691*
X414636Y591661D02*
Y587661D01*
X416636Y589661*
X414636Y591661*
X580636Y765606D02*
Y775606D01*
X660636*
Y765606*
X580636*
X600636Y586945D02*
X660636D01*
Y576945*
X600636*
Y586945*
X510636Y576788D02*
Y586788D01*
X590636*
Y576788*
X510636*
X601833Y630094D02*
Y620094D01*
X579833*
Y630094*
X601833*
X558526D02*
Y620094D01*
X536526*
Y630094*
X558526*
X568136Y765606D02*
X475636D01*
Y775606*
X575636*
Y765606*
X568136*
G54D73*
X439848Y674110D02*
X458352D01*
Y690252*
X439848*
Y674110*
G54D74*
X406295Y590424D02*
Y592865D01*
X405074Y591644D02*
X407515D01*
X417586Y593061D02*
X422736D01*
Y586261*
X417586*
X413686Y593061D02*
X408536D01*
Y586261*
X413686*
Y576419D02*
X408536D01*
Y583219*
X413686*
X417586Y576419D02*
X422736D01*
Y583219*
X417586*
X475124Y736394D02*
Y716394D01*
X515124*
Y736394*
X475124*
X426191Y687004D02*
Y695961D01*
X419596*
X410344D02*
X406506D01*
Y664465*
X410344*
X409262*
Y695961*
X419596Y664465D02*
X426191D01*
Y673421*
X426541Y738835D02*
X406541D01*
Y698835*
X426541*
Y738835*
X441502Y755016D02*
Y744110D01*
X481502*
Y755016*
X585715Y605803D02*
X588077D01*
X542407D02*
X544770D01*
X633577Y713677D02*
G03X633577I-1969J0D01*
G01Y733362D02*
G03X633577I-1969J0D01*
G03X633577I-1969J0*
G01Y753047D02*
G03X633577I-1969J0D01*
G01X549297Y763874D02*
X624494D01*
Y702850*
X549297*
Y763874*
X603452Y622575D02*
Y620134D01*
X604673Y621354D02*
X602232D01*
X633577Y621157D02*
G03X633577I-1969J0D01*
G01Y601472D02*
G03X633577I-1969J0D01*
G01X549297Y700882D02*
X624494D01*
Y639858*
X549297*
Y700882*
X560145Y622575D02*
Y620134D01*
X561366Y621354D02*
X558925D01*
X539645Y659047D02*
Y646247D01*
X519960*
Y659047*
X539645*
X534527Y658615D02*
Y667837D01*
X525078*
Y658615*
X532755Y673837D02*
Y667838D01*
X526844Y673837D02*
Y667840D01*
X525078Y650615D02*
Y641393D01*
X534527*
Y650615*
X468785Y719088D02*
Y731888D01*
X429415*
Y719088*
X468785*
X495545Y674424D02*
X498196Y677075D01*
Y697812*
X474808*
Y674424*
X495545*
X572722Y616079D02*
X576266D01*
X577053Y616839*
Y621539*
X576266Y622299*
X572722*
X569573D02*
X565104D01*
Y616079*
X569573*
X536108Y699071D02*
X532565D01*
X531778Y698311*
Y693610*
X532565Y692850*
X536108*
X539258D02*
X543726D01*
Y699071*
X539258*
X529415Y616079D02*
X532959D01*
X533746Y616839*
Y621539*
X532959Y622299*
X529415*
X526266D02*
X521797D01*
Y616079*
X526266*
X521463Y699071D02*
X517919D01*
X517132Y698311*
Y693610*
X517919Y692850*
X521463*
X524612D02*
X529081D01*
Y699071*
X524612*
X633577Y650685D02*
G03X633577I-1969J0D01*
G01Y670370D02*
G03X633577I-1969J0D01*
G03X633577I-1969J0*
G01Y690055D02*
G03X633577I-1969J0D01*
G54D75*
G01X492014Y740094D02*
X496482D01*
Y746315*
X492014*
X488864Y740094D02*
X484396D01*
Y746315*
X488864*
X488939Y754189D02*
X485239D01*
G03Y747969I3165J-3110*
G01X488939*
X491939D02*
X495639D01*
G03Y754079I-3077J3055*
G01X491939*
X601144Y598677D02*
X597444D01*
G03Y592457I3165J-3110*
G01X601144*
X604144D02*
X607844D01*
G03Y598567I-3077J3055*
G01X604144*
X603904Y602299D02*
X608372D01*
Y608520*
X603904*
X600754Y602299D02*
X596285D01*
Y608520*
X600754*
X469254Y750252D02*
X465554D01*
G03Y744031I3165J-3110*
G01X469254*
X472254D02*
X475954D01*
G03Y750142I-3077J3056*
G01X472254*
X569648Y630173D02*
X565948D01*
G03Y623953I3165J-3110*
G01X569648*
X572648D02*
X576348D01*
G03Y630063I-3077J3055*
G01X572648*
X545089Y592457D02*
X548789D01*
G03Y598677I-3165J3110*
G01X545089*
X542089D02*
X538389D01*
G03Y592567I3076J-3055*
G01X542089*
X572722Y592457D02*
X577191D01*
Y598677*
X572722*
X569573Y592457D02*
X565104D01*
Y598677*
X569573*
X513667Y588520D02*
X518136D01*
Y594740*
X513667*
X510518Y588520D02*
X506049D01*
Y594740*
X510518*
Y602614D02*
X506049D01*
Y596394*
X510518*
X513667Y602614D02*
X518136D01*
Y596394*
X513667*
X476266Y757811D02*
X480734D01*
Y764031*
X480734D02*
X476266D01*
X473116Y757811D02*
X468648D01*
Y764031*
X468648D02*
X473116D01*
X492014Y757811D02*
X496482D01*
Y764031*
X496482D02*
X492014D01*
X488864Y757811D02*
X484396D01*
Y764031*
X484396D02*
X488864D01*
X525478Y684976D02*
X529947D01*
Y691197*
X525478*
X522329Y684976D02*
X517860D01*
Y691197*
X522329*
X539258Y684976D02*
X543726D01*
Y691197*
X539258*
X536108Y684976D02*
X531640D01*
Y691197*
X536108*
X529415Y592457D02*
X533884D01*
Y598677*
X529415*
X526266Y592457D02*
X521797D01*
Y598677*
X526266*
X572722Y600331D02*
X577191D01*
Y606551*
X572722*
X569573Y600331D02*
X565104D01*
Y606551*
X569573*
X529415Y600331D02*
X533884D01*
Y606551*
X529415*
X526266Y600331D02*
X521797D01*
Y606551*
X526266*
X526341Y630173D02*
X522641D01*
G03Y623953I3165J-3110*
G01X526341*
X529341D02*
X533041D01*
G03Y630063I-3077J3055*
G01X529341*
X588396Y592457D02*
X592096D01*
G03Y598677I-3165J3110*
G01X588396*
X585396D02*
X581696D01*
G03Y592567I3076J-3055*
G01X585396*
X435789Y704976D02*
X432089D01*
G03Y698756I3165J-3110*
G01X435789*
X438789D02*
X442489D01*
G03Y704866I-3076J3055*
G01X438789*
X454537Y698756D02*
X458237D01*
G03Y704976I-3165J3110*
G01X454537*
X451537D02*
X447837D01*
G03Y698866I3077J-3055*
G01X451537*
X538503Y674769D02*
Y671069D01*
G03X544724I3110J3165*
G01Y674769*
Y677769D02*
Y681469D01*
G03X538613I-3055J-3077*
G01Y677769*
X514888Y674776D02*
Y671076D01*
G03X521108I3110J3165*
G01Y674776*
Y677776D02*
Y681476D01*
G03X514998I-3055J-3077*
G01Y677776*
X529415Y608205D02*
X533884D01*
Y614425*
X529415*
X526266Y608205D02*
X521797D01*
Y614425*
X526266*
X572722Y608205D02*
X577191D01*
Y614425*
X572722*
X569573Y608205D02*
X565104D01*
Y614425*
X569573*
G54D76*
X541141Y663696D02*
G03X541141I-492J0D01*
G01X428746Y715939D02*
G03X428746I-492J0D01*
G01X495239Y677618D02*
G03X495239I-500J0D01*
G54D77*
G01X536889Y655541D02*
G03X536889I-1181J0D01*
G01X434533Y722594D02*
G03X434533I-1181J0D01*
G54D78*
G01X510739Y675785D02*
X511239Y675118D01*
X510739Y674451*
X509739Y675118D02*
X511239D01*
X509739D02*
X511239Y676118D01*
Y674118*
X509739Y675118*
G54D79*
X388513Y599711D02*
X388201Y599483D01*
X388044Y599142*
Y598688*
X388201Y598347*
X388513Y598120*
X388826*
X389138Y598233*
X389294Y598347*
X389451Y598574*
X389763Y599256*
X389919Y599483*
X390076Y599597*
X390388Y599711*
X390857*
X391169Y599483*
X391326Y599142*
Y598688*
X391169Y598347*
X390857Y598120*
X388826Y600847D02*
X388669D01*
X388357Y600961*
X388201Y601074*
X388044Y601302*
Y601756*
X388201Y601983*
X388357Y602097*
X388669Y602211*
X388982*
X389294Y602097*
X389763Y601870*
X391326Y600733*
Y602324*
X439651Y699530D02*
Y696249D01*
X441015*
X442038Y699530D02*
Y696249D01*
Y699530D02*
X442833D01*
X443174Y699374*
X443401Y699062*
X443515Y698749*
X443629Y698280*
Y697499*
X443515Y697030*
X443401Y696718*
X443174Y696405*
X442833Y696249*
X442038*
X445333Y699530D02*
X445106Y699374D01*
X444879Y699062*
X444765Y698749*
X444651Y698280*
Y697499*
X444765Y697030*
X444879Y696718*
X445106Y696405*
X445333Y696249*
X445788*
X446015Y696405*
X446242Y696718*
X446356Y697030*
X446470Y697499*
Y698280*
X446356Y698749*
X446242Y699062*
X446015Y699374*
X445788Y699530*
X445333*
X447492Y698905D02*
X447720Y699062D01*
X448060Y699530*
Y696249*
X404681Y603040D02*
Y599758D01*
X406044*
X407067Y602415D02*
X407294Y602571D01*
X407635Y603040*
Y599758*
X408772Y602258D02*
Y602415D01*
X408885Y602727*
X408999Y602883*
X409226Y603040*
X409681*
X409908Y602883*
X410022Y602727*
X410135Y602415*
Y602102*
X410022Y601790*
X409794Y601321*
X408658Y599758*
X410249*
X407639Y593197D02*
Y589916D01*
Y593197D02*
X408662D01*
X409003Y593041*
X409116Y592884*
X409230Y592572*
Y592259*
X409116Y591947*
X409003Y591791*
X408662Y591634*
X407639*
X408434D02*
X409230Y589916D01*
X410480Y593197D02*
X411730D01*
X411048Y591947*
X411389*
X411616Y591791*
X411730Y591634*
X411844Y591166*
Y590853*
X411730Y590384*
X411503Y590072*
X411162Y589916*
X410821*
X410480Y590072*
X410366Y590228*
X410253Y590541*
X414457Y593197D02*
X413321Y589916D01*
X412866Y593197D02*
X414457D01*
X520524Y706919D02*
Y710200D01*
Y706919D02*
X519501D01*
X519160Y707075*
X519047Y707231*
X518933Y707544*
Y708013*
X518933D02*
X519047Y708325D01*
X519160Y708481*
X519501Y708638*
X519501D02*
X520524D01*
X517910Y707544D02*
X517683Y707388D01*
X517683D02*
X517342Y706919D01*
Y710200*
X437241Y696354D02*
X434897D01*
X434428Y696241*
X434116Y696013*
X433959Y695673*
Y695445*
X434116Y695104*
X434428Y694877*
X434897Y694763*
X437241*
Y692263D02*
Y693400D01*
X435834Y693513*
X435991Y693400*
X436147Y693059*
Y692718*
X435991Y692377*
X435678Y692150*
X435209Y692036*
X434897Y692150*
X434428Y692263*
X434116Y692491*
X433959Y692832*
Y693173*
X434116Y693513*
X434272Y693627*
X434584Y693741*
X397066Y693435D02*
X400348D01*
X397066D02*
Y694457D01*
X397223Y694798*
X397379Y694912*
X397691Y695026*
X398160*
X398473Y694912*
X398629Y694798*
X398785Y694457*
Y693435*
X397848Y696162D02*
X397691D01*
X397379Y696276*
X397223Y696389*
X397066Y696616*
Y697071*
X397223Y697298*
X397379Y697412*
X397691Y697526*
X398004*
X398316Y697412*
X398785Y697185*
X400348Y696048*
Y697639*
X484002Y755790D02*
Y752509D01*
Y755790D02*
X485025D01*
X485366Y755634*
X485479Y755477*
X485593Y755165*
Y754852*
X485479Y754540*
X485366Y754384*
X485025Y754227*
X484002*
X484797D02*
X485593Y752509D01*
X487752Y755790D02*
X486616Y753602D01*
X488320*
X487752Y755790D02*
Y752509D01*
X499725Y752350D02*
X499611Y752662D01*
X499384Y752975*
X499156Y753131*
X498702*
X498475Y752975*
X498247Y752662*
X498134Y752350*
X498020Y751881*
Y751100*
X498134Y750631*
X498247Y750318*
X498475Y750006*
X498702Y749850*
X499156*
X499384Y750006*
X499611Y750318*
X499725Y750631*
X500747Y752506D02*
X500975Y752662D01*
X501315Y753131*
Y749850*
X503702Y752662D02*
X503588Y752975D01*
X503247Y753131*
X503020*
X502679Y752975*
X502452Y752506*
X502338Y751725*
Y750943*
X502452Y750318*
X502679Y750006*
X503020Y749850*
X503134*
X503475Y750006*
X503702Y750318*
X503815Y750787*
Y750943*
X503702Y751412*
X503475Y751725*
X503134Y751881*
X503020*
X502679Y751725*
X502452Y751412*
X502338Y750943*
X611929Y596838D02*
X611816Y597150D01*
X611588Y597463*
X611361Y597619*
X610907*
X610679Y597463*
X610452Y597150*
X610338Y596838*
X610225Y596369*
Y595588*
X610338Y595119*
X610452Y594807*
X610679Y594494*
X610907Y594338*
X611361*
X611588Y594494*
X611816Y594807*
X611929Y595119*
X613066Y596838D02*
Y596994D01*
X613179Y597307*
X613293Y597463*
X613520Y597619*
X613975*
X614202Y597463*
X614316Y597307*
X614429Y596994*
Y596682*
X614316Y596369*
X614088Y595900*
X612952Y594338*
X614543*
X595892Y617995D02*
Y614713D01*
Y617995D02*
X596914D01*
X597255Y617838*
X597369Y617682*
X597483Y617370*
Y617057*
X597369Y616745*
X597255Y616588*
X596914Y616432*
X595892*
X596687D02*
X597483Y614713D01*
X598505Y617370D02*
X598733Y617526D01*
X599074Y617995*
Y614713*
X601460Y617526D02*
X601346Y617838D01*
X601005Y617995*
X600778*
X600437Y617838*
X600210Y617370*
X600096Y616588*
Y615807*
X600210Y615182*
X600437Y614870*
X600778Y614713*
X600892*
X601233Y614870*
X601460Y615182*
X601574Y615651*
Y615807*
X601460Y616276*
X601233Y616588*
X600892Y616745*
X600778*
X600437Y616588*
X600210Y616276*
X600096Y615807*
X407262Y764597D02*
Y762253D01*
X407375Y761784*
X407375D02*
X407603Y761472D01*
X407944Y761316*
X408171*
X408512Y761472*
X408739Y761784*
X408739D02*
X408853Y762253D01*
Y764597*
X411466D02*
X410330Y761316D01*
X409875Y764597D02*
X411466D01*
X480039Y748413D02*
X479926Y748725D01*
X479699Y749038*
X479471Y749194*
X479017*
X478789Y749038*
X478562Y748725*
X478449Y748413*
X478335Y747944*
Y747163*
X478449Y746694*
X478562Y746381*
X478789Y746069*
X479017Y745913*
X479471*
X479699Y746069*
X479926Y746381*
X480039Y746694*
X481289Y749194D02*
X482539D01*
X481858Y747944*
X482199*
X482426Y747788*
X482539Y747631*
X482653Y747163*
Y746850*
X482539Y746381*
X482312Y746069*
X481971Y745913*
X481630*
X481289Y746069*
X481176Y746225*
X481062Y746538*
X659893Y756131D02*
Y758631D01*
X660007Y759100*
X660120Y759256*
X660348Y759413*
X660575*
X660802Y759256*
X660916Y759100*
X661030Y758631*
Y758319*
X658870Y756756D02*
X658643Y756600D01*
X658302Y756131*
Y759413*
X659893Y567470D02*
Y569970D01*
X660007Y570439*
X660120Y570595*
X660348Y570751*
X660575*
X660802Y570595*
X660916Y570439*
X661030Y569970*
Y569657*
X657393Y567470D02*
X658530D01*
X658643Y568876*
X658530Y568720*
X658189Y568564*
X657848*
X657507Y568720*
X657280Y569032*
X657166Y569501*
X657280Y569814*
X657393Y570282*
X657620Y570595*
X657961Y570751*
X658302*
X658643Y570595*
X658757Y570439*
X658870Y570126*
X589893Y567313D02*
Y569813D01*
X590007Y570282*
X590120Y570438*
X590348Y570594*
X590575*
X590802Y570438*
X590916Y570282*
X591030Y569813*
Y569500*
X587734Y567313D02*
X588870Y569500D01*
X587166*
X587734Y567313D02*
Y570594D01*
X602225Y616047D02*
X602069Y616274D01*
X601756Y616501*
X601444Y616615*
X600975Y616728*
X600194*
X599725Y616615*
X599412Y616501*
X599100Y616274*
X598944Y616047*
Y615592*
X599100Y615365*
X599412Y615137*
X599725Y615024*
X600194Y614910*
X600975*
X601444Y615024*
X601756Y615137*
X602069Y615365*
X602225Y615592*
Y616047*
X599569Y615706D02*
X598631Y615024D01*
X601600Y613887D02*
X601756Y613660D01*
X602225Y613319*
X598944*
X558918Y616047D02*
X558762Y616274D01*
X558449Y616501*
X558137Y616615*
X557668Y616728*
X556887*
X556418Y616615*
X556105Y616501*
X555793Y616274*
X555637Y616047*
Y615592*
X555793Y615365*
X556105Y615137*
X556418Y615024*
X556887Y614910*
X557668*
X558137Y615024*
X558449Y615137*
X558762Y615365*
X558918Y615592*
Y616047*
X556262Y615706D02*
X555324Y615024D01*
X558137Y613774D02*
X558293D01*
X558605Y613660*
X558762Y613547*
X558918Y613319*
Y612865*
X558762Y612637*
X558605Y612524*
X558293Y612410*
X557980*
X557668Y612524*
X557199Y612751*
X555637Y613887*
Y612297*
X619153Y703835D02*
X621497D01*
X621966Y703948*
X622278Y704176*
X622434Y704517*
Y704744*
X622278Y705085*
X621966Y705312*
X621497Y705426*
X619153*
X619778Y706448D02*
X619622Y706676D01*
X619153Y707017*
X622434*
X619778Y708039D02*
X619622Y708267D01*
X619153Y708607*
X622434*
X548904Y773349D02*
Y771005D01*
X549017Y770536*
X549244Y770224*
X549585Y770068*
X549813*
X550154Y770224*
X550381Y770536*
X550494Y771005*
Y773349*
X551517Y772724D02*
X551744Y772880D01*
X552085Y773349*
Y770068*
X553335Y773349D02*
X554585D01*
X553904Y772099*
X554244*
X554472Y771943*
X554585Y771786*
X554699Y771318*
Y771005*
X554585Y770536*
X554358Y770224*
X554017Y770068*
X553676*
X553335Y770224*
X553222Y770380*
X553108Y770693*
X605067Y610620D02*
Y613901D01*
Y610620D02*
X604271D01*
X603930Y610776*
X603703Y611088*
X603589Y611401*
X603476Y611870*
Y612651*
X603589Y613120*
X603703Y613432*
X603930Y613745*
X604271Y613901*
X605067*
X601317Y610620D02*
X602453Y612807D01*
X600748*
X601317Y610620D02*
Y613901D01*
X619153Y591630D02*
X622435D01*
X619153D02*
Y592652D01*
X619310Y592993*
X619466Y593107*
X619778Y593220*
X620247*
X620560Y593107*
X620716Y592993*
X620872Y592652*
Y591630*
X619153Y595720D02*
Y594584D01*
X620560Y594470*
X620403Y594584*
X620247Y594925*
Y595266*
X620403Y595607*
X620716Y595834*
X621185Y595948*
X621497Y595834*
X621966Y595720*
X622278Y595493*
X622435Y595152*
Y594811*
X622278Y594470*
X622122Y594357*
X621810Y594243*
X548904Y710357D02*
Y708013D01*
X549017Y707544*
X549244Y707232*
X549585Y707076*
X549813*
X550154Y707232*
X550381Y707544*
X550494Y708013*
Y710357*
X551517Y709732D02*
X551744Y709888D01*
X552085Y710357*
Y707076*
X554472Y709888D02*
X554358Y710201D01*
X554017Y710357*
X553790*
X553449Y710201*
X553222Y709732*
X553108Y708951*
Y708169*
X553222Y707544*
X553449Y707232*
X553790Y707076*
X553904*
X554244Y707232*
X554472Y707544*
X554585Y708013*
Y708169*
X554472Y708638*
X554244Y708951*
X553904Y709107*
X553790*
X553449Y708951*
X553222Y708638*
X553108Y708169*
X561759Y610620D02*
Y613901D01*
Y610620D02*
X560964D01*
X560623Y610776*
X560396Y611088*
X560282Y611401*
X560169Y611870*
Y612651*
X560282Y613120*
X560396Y613432*
X560623Y613745*
X560964Y613901*
X561759*
X557669Y610620D02*
X558805D01*
X558919Y612026*
X558805Y611870*
X558464Y611713*
X558123*
X557782Y611870*
X557555Y612182*
X557441Y612651*
X557555Y612963*
X557669Y613432*
X557896Y613745*
X558237Y613901*
X558578*
X558919Y613745*
X559032Y613588*
X559146Y613276*
X550714Y669208D02*
X548371D01*
X547902Y669094*
X547589Y668867*
X547433Y668526*
Y668298*
X547589Y667958*
X547902Y667730*
X548371Y667617*
X550714*
X549933Y666480D02*
X550089D01*
X550402Y666367*
X550558Y666253*
X550714Y666026*
Y665571*
X550558Y665344*
X550402Y665230*
X550089Y665117*
X549777*
X549464Y665230*
X548996Y665458*
X547433Y666594*
Y665003*
X550089Y663980D02*
X550246Y663753D01*
X550714Y663412*
X547433*
X536692Y631918D02*
X535101Y635200D01*
Y631918D02*
X536692Y635200D01*
X533851Y631918D02*
X532601D01*
X533283Y633168*
X532942*
X532715Y633325*
X532601Y633481*
X532488Y633950*
Y634262*
X532601Y634731*
X532829Y635043*
X533169Y635200*
X533510*
X533851Y635043*
X533965Y634887*
X534079Y634575*
X418188Y708691D02*
X420532D01*
X421001Y708805*
X421313Y709032*
X421470Y709373*
Y709600*
X421313Y709941*
X421001Y710169*
X420532Y710282*
X418188*
X418970Y711419D02*
X418813D01*
X418501Y711532*
X418345Y711646*
X418188Y711873*
Y712328*
X418345Y712555*
X418501Y712669*
X418813Y712782*
X419126*
X419438Y712669*
X419907Y712441*
X421470Y711305*
Y712896*
X418188Y715055D02*
X420376Y713919D01*
Y715623*
X418188Y715055D02*
X421470D01*
X100250Y142475D02*
Y140131D01*
X100364Y139662*
X100591Y139350*
X100932Y139194*
X101159*
X101500Y139350*
X101727Y139662*
X101841Y140131*
Y142475*
X103091D02*
X104341D01*
X103659Y141225*
X104000*
X104227Y141069*
X104341Y140912*
X104455Y140444*
Y140131*
X104341Y139662*
X104114Y139350*
X103773Y139194*
X103432*
X103091Y139350*
X102977Y139506*
X102864Y139819*
X106159Y142475D02*
X105818Y142319D01*
X105591Y141850*
X105477Y141069*
Y140600*
X105591Y139819*
X105818Y139350*
X106159Y139194*
X106386*
X106727Y139350*
X106955Y139819*
X107068Y140600*
Y141069*
X106955Y141850*
X106727Y142319*
X106386Y142475*
X106159*
X574893Y756131D02*
Y758631D01*
X575007Y759100*
X575120Y759256*
X575348Y759413*
X575575*
X575802Y759256*
X575916Y759100*
X576030Y758631*
Y758319*
X572507Y756600D02*
X572620Y756288D01*
X572961Y756131*
X573189*
X573530Y756288*
X573757Y756756*
X573870Y757538*
Y758319*
X573757Y758944*
X573530Y759256*
X573189Y759413*
X573075*
X572734Y759256*
X572507Y758944*
X572393Y758475*
Y758319*
X572507Y757850*
X572734Y757538*
X573075Y757381*
X573189*
X573530Y757538*
X573757Y757850*
X573870Y758319*
X511539Y655363D02*
Y657707D01*
X511425Y658175*
X511198Y658488*
X510857Y658644*
X510630*
X510289Y658488*
X510062Y658175*
X509948Y657707*
Y655363*
X508698D02*
X507448D01*
X508130Y656613*
X507789*
X507562Y656769*
X507448Y656925*
X507334Y657394*
Y657707*
X507448Y658175*
X507675Y658488*
X508016Y658644*
X508357*
X508698Y658488*
X508812Y658332*
X508925Y658019*
X564855Y639660D02*
X564742Y639972D01*
X564514Y640285*
X564287Y640441*
X563833*
X563605Y640285*
X563378Y639972*
X563264Y639660*
X563151Y639191*
Y638410*
X563264Y637941*
X563378Y637629*
X563605Y637316*
X563833Y637160*
X564287*
X564514Y637316*
X564742Y637629*
X564855Y637941*
X567014Y640441D02*
X565878Y638254D01*
X567583*
X567014Y640441D02*
Y637160D01*
X549881Y582970D02*
X549995Y582658D01*
X550222Y582345*
X550449Y582189*
X550904*
X551131Y582345*
X551358Y582658*
X551472Y582970*
X551585Y583439*
Y584220*
X551472Y584689*
X551358Y585001*
X551131Y585314*
X550904Y585470*
X550449*
X550222Y585314*
X549995Y585001*
X549881Y584689*
X547381Y582189D02*
X548517D01*
X548631Y583595*
X548517Y583439*
X548176Y583283*
X547835*
X547495Y583439*
X547267Y583751*
X547154Y584220*
X547267Y584533*
X547381Y585001*
X547608Y585314*
X547949Y585470*
X548290*
X548631Y585314*
X548745Y585158*
X548858Y584845*
X563151Y608945D02*
Y605664D01*
Y608945D02*
X564174D01*
X564514Y608789*
X564628Y608633*
X564742Y608320*
Y608008*
X564628Y607695*
X564514Y607539*
X564174Y607383*
X563151*
X563946D02*
X564742Y605664D01*
X565764Y608320D02*
X565992Y608476D01*
X566333Y608945*
Y605664*
X567355Y608320D02*
X567583Y608476D01*
X567924Y608945*
Y605664*
X504096Y605008D02*
Y601727D01*
Y605008D02*
X505118D01*
X505459Y604852*
X505573Y604696*
X505687Y604383*
Y604071*
X505573Y603758*
X505459Y603602*
X505118Y603446*
X504096*
X504891D02*
X505687Y601727D01*
X506709Y604383D02*
X506937Y604539D01*
X507277Y605008*
Y601727*
X508414Y604227D02*
Y604383D01*
X508527Y604696*
X508641Y604852*
X508868Y605008*
X509323*
X509550Y604852*
X509664Y604696*
X509777Y604383*
Y604071*
X509664Y603758*
X509437Y603289*
X508300Y601727*
X509891*
X520089Y586126D02*
Y589407D01*
Y586126D02*
X519067D01*
X518726Y586282*
X518612Y586438*
X518498Y586751*
Y587063*
X518612Y587376*
X518726Y587532*
X519067Y587688*
X520089*
X519294D02*
X518498Y589407D01*
X517476Y586751D02*
X517248Y586595D01*
X516908Y586126*
Y589407*
X515658Y586126D02*
X514408D01*
X515089Y587376*
X514748*
X514521Y587532*
X514408Y587688*
X514294Y588157*
Y588470*
X514408Y588938*
X514635Y589251*
X514976Y589407*
X515317*
X515658Y589251*
X515771Y589095*
X515885Y588782*
X466694Y774299D02*
Y771018D01*
Y774299D02*
X467717D01*
X468058Y774143*
X468171Y773987*
X468285Y773674*
Y773362*
X468171Y773049*
X468058Y772893*
X467717Y772737*
X466694*
X467490D02*
X468285Y771018D01*
X469308Y773674D02*
X469535Y773831D01*
X469876Y774299*
Y771018*
X472035Y774299D02*
X470899Y772112D01*
X472603*
X472035Y774299D02*
Y771018D01*
X482442Y774299D02*
Y771018D01*
Y774299D02*
X483465D01*
X483806Y774143*
X483919Y773987*
X484033Y773674*
Y773362*
X483919Y773049*
X483806Y772893*
X483465Y772737*
X482442*
X483238D02*
X484033Y771018D01*
X485056Y773674D02*
X485283Y773831D01*
X485624Y774299*
Y771018*
X488124Y774299D02*
X486988D01*
X486874Y772893*
X486988Y773049*
X487328Y773206*
X487669*
X488010Y773049*
X488238Y772737*
X488351Y772268*
X488238Y771956*
X488124Y771487*
X487897Y771174*
X487556Y771018*
X487215*
X486874Y771174*
X486760Y771331*
X486647Y771643*
X515907Y701465D02*
Y698183D01*
Y701465D02*
X516929D01*
X517270Y701308*
X517384Y701152*
X517498Y700840*
Y700527*
X517384Y700215*
X517270Y700058*
X516929Y699902*
X515907*
X516702D02*
X517498Y698183D01*
X520111Y701465D02*
X518975Y698183D01*
X518520Y701465D02*
X520111D01*
X529686D02*
Y698183D01*
Y701465D02*
X530709D01*
X531050Y701308*
X531163Y701152*
X531277Y700840*
Y700527*
X531163Y700215*
X531050Y700058*
X530709Y699902*
X529686*
X530482D02*
X531277Y698183D01*
X532868Y701465D02*
X532527Y701308D01*
X532413Y700996*
Y700683*
X532527Y700371*
X532754Y700215*
X533209Y700058*
X533550Y699902*
X533777Y699590*
X533891Y699277*
Y698808*
X533777Y698496*
X533663Y698340*
X533323Y698183*
X532868*
X532527Y698340*
X532413Y698496*
X532300Y698808*
Y699277*
X532413Y699590*
X532641Y699902*
X532982Y700058*
X533436Y700215*
X533663Y700371*
X533777Y700683*
Y700996*
X533663Y701308*
X533323Y701465*
X532868*
X519844Y608945D02*
Y605664D01*
Y608945D02*
X520866D01*
X521207Y608789*
X521321Y608633*
X521435Y608320*
Y608008*
X521321Y607695*
X521207Y607539*
X520866Y607383*
X519844*
X520639D02*
X521435Y605664D01*
X522457Y608320D02*
X522685Y608476D01*
X523026Y608945*
Y605664*
X525526Y607851D02*
X525412Y607383D01*
X525185Y607070*
X524844Y606914*
X524730*
X524389Y607070*
X524162Y607383*
X524048Y607851*
Y608008*
X524162Y608476*
X524389Y608789*
X524730Y608945*
X524844*
X525185Y608789*
X525412Y608476*
X525526Y607851*
Y607070*
X525412Y606289*
X525185Y605820*
X524844Y605664*
X524616*
X524276Y605820*
X524162Y606133*
X563151Y616819D02*
Y613538D01*
Y616819D02*
X564174D01*
X564514Y616663*
X564628Y616507*
X564742Y616194*
Y615882*
X564628Y615569*
X564514Y615413*
X564174Y615257*
X563151*
X563946D02*
X564742Y613538D01*
X565764Y616194D02*
X565992Y616350D01*
X566333Y616819*
Y613538*
X568037Y616819D02*
X567696Y616663D01*
X567469Y616194*
X567355Y615413*
Y614944*
X567469Y614163*
X567696Y613694*
X568037Y613538*
X568264*
X568605Y613694*
X568833Y614163*
X568946Y614944*
Y615413*
X568833Y616194*
X568605Y616663*
X568264Y616819*
X568037*
X519844D02*
Y613538D01*
Y616819D02*
X520866D01*
X521207Y616663*
X521321Y616507*
X521435Y616194*
Y615882*
X521321Y615569*
X521207Y615413*
X520866Y615257*
X519844*
X520639D02*
X521435Y613538D01*
X522457Y616194D02*
X522685Y616350D01*
X523026Y616819*
Y613538*
X524616Y616819D02*
X524276Y616663D01*
X524162Y616350*
Y616038*
X524276Y615725*
X524503Y615569*
X524957Y615413*
X525298Y615257*
X525526Y614944*
X525639Y614632*
Y614163*
X525526Y613850*
X525412Y613694*
X525071Y613538*
X524616*
X524276Y613694*
X524162Y613850*
X524048Y614163*
Y614632*
X524162Y614944*
X524389Y615257*
X524730Y615413*
X525185Y615569*
X525412Y615725*
X525526Y616038*
Y616350*
X525412Y616663*
X525071Y616819*
X524616*
X537126Y628334D02*
X537012Y628646D01*
X536785Y628959*
X536558Y629115*
X536103*
X535876Y628959*
X535649Y628646*
X535535Y628334*
X535422Y627865*
Y627084*
X535535Y626615*
X535649Y626303*
X535876Y625990*
X536103Y625834*
X536558*
X536785Y625990*
X537012Y626303*
X537126Y626615*
X538149Y628490D02*
X538376Y628646D01*
X538717Y629115*
Y625834*
X540422Y629115D02*
X540081Y628959D01*
X539853Y628490*
X539740Y627709*
Y627240*
X539853Y626459*
X540081Y625990*
X540422Y625834*
X540649*
X540990Y625990*
X541217Y626459*
X541331Y627240*
Y627709*
X541217Y628490*
X540990Y628959*
X540649Y629115*
X540422*
X577610Y594296D02*
X577724Y593983D01*
X577951Y593671*
X578178Y593515*
X578633*
X578860Y593671*
X579087Y593983*
X579201Y594296*
X579315Y594765*
Y595546*
X579201Y596015*
X579087Y596327*
X578860Y596640*
X578633Y596796*
X578178*
X577951Y596640*
X577724Y596327*
X577610Y596015*
X576587Y594140D02*
X576360Y593983D01*
X576019Y593515*
Y596796*
X574996Y594140D02*
X574769Y593983D01*
X574428Y593515*
Y596796*
X446575Y703137D02*
X446461Y703450D01*
X446234Y703762*
X446007Y703918*
X445552*
X445325Y703762*
X445098Y703450*
X444984Y703137*
X444870Y702668*
Y701887*
X444984Y701418*
X445098Y701106*
X445325Y700793*
X445552Y700637*
X446007*
X446234Y700793*
X446461Y701106*
X446575Y701418*
X448961Y703450D02*
X448848Y703762D01*
X448507Y703918*
X448279*
X447939Y703762*
X447711Y703293*
X447598Y702512*
Y701731*
X447711Y701106*
X447939Y700793*
X448279Y700637*
X448393*
X448734Y700793*
X448961Y701106*
X449075Y701575*
Y701731*
X448961Y702200*
X448734Y702512*
X448393Y702668*
X448279*
X447939Y702512*
X447711Y702200*
X447598Y701731*
X443752Y700595D02*
X443865Y700283D01*
X444093Y699970*
X444320Y699814*
X444775*
X445002Y699970*
X445229Y700283*
X445343Y700595*
X445456Y701064*
Y701845*
X445343Y702314*
X445229Y702626*
X445002Y702939*
X444775Y703095*
X444320*
X444093Y702939*
X443865Y702626*
X443752Y702314*
X441138Y699814D02*
X442275Y703095D01*
X442729Y699814D02*
X441138D01*
X540342Y685555D02*
X540030Y685441D01*
X539717Y685214*
X539561Y684986*
Y684532*
X539717Y684305*
X540030Y684077*
X540342Y683964*
X540811Y683850*
X541592*
X542061Y683964*
X542374Y684077*
X542686Y684305*
X542842Y684532*
Y684986*
X542686Y685214*
X542374Y685441*
X542061Y685555*
X539561Y687145D02*
X539717Y686805D01*
X540030Y686691*
X540342*
X540655Y686805*
X540811Y687032*
X540967Y687486*
X541124Y687827*
X541436Y688055*
X541749Y688168*
X542217*
X542530Y688055*
X542686Y687941*
X542842Y687600*
Y687145*
X542686Y686805*
X542530Y686691*
X542217Y686577*
X541749*
X541436Y686691*
X541124Y686918*
X540967Y687259*
X540811Y687714*
X540655Y687941*
X540342Y688055*
X540030*
X539717Y687941*
X539561Y687600*
Y687145*
X516727Y685561D02*
X516415Y685447D01*
X516415D02*
X516102Y685220D01*
X515946Y684993*
Y684538*
X516102Y684311*
X516415Y684084*
X516727Y683970*
X517196Y683857*
X517977*
X518446Y683970*
X518758Y684084*
X519071Y684311*
X519227Y684538*
Y684993*
X519071Y685220*
X518758Y685447*
X518758D02*
X518446Y685561D01*
X517040Y688061D02*
X517508Y687947D01*
X517508D02*
X517821Y687720D01*
X517977Y687379*
Y687266*
X517821Y686925*
X517508Y686697*
X517508D02*
X517040Y686584D01*
X516883*
X516415Y686697*
X516415D02*
X516102Y686925D01*
X515946Y687266*
Y687379*
X516102Y687720*
X516415Y687947*
X516415D02*
X517040Y688061D01*
X517821*
X518602Y687947*
X518602D02*
X519071Y687720D01*
X519227Y687379*
Y687152*
X519071Y686811*
X518758Y686697*
X521404Y623900D02*
Y620619D01*
Y623900D02*
X522426D01*
X522767Y623744*
X522881Y623588*
X522994Y623275*
Y622963*
X522881Y622650*
X522767Y622494*
X522426Y622338*
X521404*
X522199D02*
X522994Y620619D01*
X524017Y623275D02*
X524244Y623431D01*
X524585Y623900*
Y620619*
X527199Y623900D02*
X526063Y620619D01*
X525608Y623900D02*
X527199D01*
X564711D02*
Y620619D01*
Y623900D02*
X565733D01*
X566074Y623744*
X566188Y623588*
X566302Y623275*
Y622963*
X566188Y622650*
X566074Y622494*
X565733Y622338*
X564711*
X565506D02*
X566302Y620619D01*
X568802Y622806D02*
X568688Y622338D01*
X568461Y622025*
X568120Y621869*
X568006*
X567665Y622025*
X567438Y622338*
X567324Y622806*
Y622963*
X567438Y623431*
X567665Y623744*
X568006Y623900*
X568120*
X568461Y623744*
X568688Y623431*
X568802Y622806*
Y622025*
X568688Y621244*
X568461Y620775*
X568120Y620619*
X567892*
X567552Y620775*
X567438Y621088*
X580209Y606301D02*
Y609582D01*
Y606301D02*
X579414D01*
X579073Y606457*
X578845Y606769*
X578732Y607082*
X578618Y607551*
Y608332*
X578732Y608801*
X578845Y609113*
X579073Y609426*
X579414Y609582*
X580209*
X577595Y606926D02*
X577368Y606769D01*
X577027Y606301*
Y609582*
X528622Y708849D02*
Y705568D01*
Y708849D02*
X529417D01*
X529758Y708693*
X529985Y708380*
X530099Y708068*
X530213Y707599*
Y706818*
X530099Y706349*
X529985Y706036*
X529758Y705724*
X529417Y705568*
X528622*
X531235Y708224D02*
X531463Y708380D01*
X531803Y708849*
Y705568*
X533508Y708849D02*
X533167Y708693D01*
X532940Y708224*
X532826Y707443*
Y706974*
X532940Y706193*
X533167Y705724*
X533508Y705568*
X533735*
X534076Y705724*
X534303Y706193*
X534417Y706974*
Y707443*
X534303Y708224*
X534076Y708693*
X533735Y708849*
X533508*
X536902Y606301D02*
Y609582D01*
Y606301D02*
X536107D01*
X535766Y606457*
X535538Y606769*
X535425Y607082*
X535311Y607551*
Y608332*
X535425Y608801*
X535538Y609113*
X535766Y609426*
X536107Y609582*
X536902*
X534061Y606301D02*
X532811D01*
X533493Y607551*
X533152*
X532925Y607707*
X532811Y607863*
X532697Y608332*
Y608644*
X532811Y609113*
X533038Y609426*
X533379Y609582*
X533720*
X534061Y609426*
X534175Y609269*
X534288Y608957*
X513976Y708849D02*
Y705568D01*
Y708849D02*
X514771D01*
X515112Y708693*
X515340Y708380*
X515453Y708068*
X515567Y707599*
Y706818*
X515453Y706349*
X515340Y706036*
X515112Y705724*
X514771Y705568*
X513976*
X518067Y707755D02*
X517953Y707286D01*
X517726Y706974*
X517385Y706818*
X517271*
X516931Y706974*
X516703Y707286*
X516590Y707755*
Y707911*
X516703Y708380*
X516931Y708693*
X517271Y708849*
X517385*
X517726Y708693*
X517953Y708380*
X518067Y707755*
Y706974*
X517953Y706193*
X517726Y705724*
X517385Y705568*
X517158*
X516817Y705724*
X516703Y706036*
X508156Y567431D02*
Y570712D01*
X506565Y567431D02*
X508156Y569618D01*
X507587Y568837D02*
X506565Y570712D01*
X505542Y568056D02*
X505315Y567899D01*
X504974Y567431*
Y570712*
X460911Y567431D02*
Y570712D01*
X459321Y567431D02*
X460911Y569618D01*
X460343Y568837D02*
X459321Y570712D01*
X458184Y568212D02*
Y568056D01*
X458071Y567743*
X457957Y567587*
X457730Y567431*
X457275*
X457048Y567587*
X456934Y567743*
X456821Y568056*
Y568368*
X456934Y568681*
X457161Y569149*
X458298Y570712*
X456707*
X399888Y783152D02*
Y779871D01*
X401479Y783152D02*
X399888Y780965D01*
X400456Y781746D02*
X401479Y779871D01*
X402729Y783152D02*
X403979D01*
X403297Y781902*
X403638*
X403865Y781746*
X403979Y781590*
X404092Y781121*
Y780808*
X403979Y780340*
X403751Y780027*
X403411Y779871*
X403070*
X402729Y780027*
X402615Y780183*
X402501Y780496*
X425478Y783152D02*
Y779871D01*
X427069Y783152D02*
X425478Y780965D01*
X426047Y781746D02*
X427069Y779871D01*
X429228Y783152D02*
X428092Y780965D01*
X429797*
X429228Y783152D02*
Y779871D01*
X619153Y640843D02*
X621497D01*
X621966Y640956*
X622278Y641184*
X622434Y641524*
Y641752*
X622278Y642093*
X621966Y642320*
X621497Y642434*
X619153*
X619778Y643456D02*
X619622Y643684D01*
X619153Y644024*
X622434*
G54D80*
X546699Y749268D02*
X547683D01*
X546699D02*
Y749575D01*
X546746Y749677*
X546792Y749711*
X546886Y749745*
X547027*
X547121Y749711*
X547167Y749677*
X547214Y749575*
Y749268*
X546699Y750120D02*
Y750495D01*
X547074Y750290*
Y750393*
X547121Y750461*
X547167Y750495*
X547308Y750529*
X547402*
X547542Y750495*
X547636Y750427*
X547683Y750325*
Y750222*
X547636Y750120*
X547589Y750086*
X547496Y750052*
X546699Y715803D02*
X547683D01*
X546699D02*
Y716110D01*
X546746Y716212*
X546792Y716246*
X546886Y716280*
X547027*
X547121Y716246*
X547167Y716212*
X547214Y716110*
Y715803*
X546699Y716928D02*
X547355Y716587D01*
Y717099*
X546699Y716928D02*
X547683D01*
X448943Y671512D02*
Y672496D01*
Y671512D02*
X448636D01*
X448534Y671559*
X448500Y671605*
X448466Y671699*
Y671840*
X448500Y671934*
X448534Y671980*
X448636Y672027*
X448943*
X447682Y671512D02*
X448022Y672496D01*
X448159Y671512D02*
X447682D01*
X625439Y609504D02*
X626423D01*
X625439D02*
Y609811D01*
X625486Y609913*
X625533Y609947*
X625626Y609981*
X625767*
X625861Y609947*
X625908Y609913*
X625954Y609811*
Y609504*
X625439Y610458D02*
X625486Y610356D01*
X625579Y610322*
X625673*
X625767Y610356*
X625814Y610424*
X625861Y610561*
X625908Y610663*
X626001Y610731*
X626095Y610765*
X626236*
X626329Y610731*
X626376Y610697*
X626423Y610595*
Y610458*
X626376Y610356*
X626329Y610322*
X626236Y610288*
X626095*
X626001Y610322*
X625908Y610390*
X625861Y610493*
X625814Y610629*
X625767Y610697*
X625673Y610731*
X625579*
X625486Y610697*
X625439Y610595*
Y610458*
G74*
X0Y0D02*
M02*
