*
*
G04 PADS VX.2.4 Build Number: 11282995 generated Gerber (RS-274-X) file*
G04 PC Version=2.1*
*
%IN "HT66F2350_WIFI_V1.0.pcb"*%
*
%MOIN*%
*
%FSLAX35Y35*%
*
*
*
*
G04 PC Standard Apertures*
*
*
G04 Thermal Relief Aperture macro.*
%AMTER*
1,1,$1,0,0*
1,0,$1-$2,0,0*
21,0,$3,$4,0,0,45*
21,0,$3,$4,0,0,135*
%
*
*
G04 Annular Aperture macro.*
%AMANN*
1,1,$1,0,0*
1,0,$2,0,0*
%
*
*
G04 Odd Aperture macro.*
%AMODD*
1,1,$1,0,0*
1,0,$1-0.005,0,0*
%
*
*
G04 PC Custom Aperture Macros*
*
*
*
*
*
*
G04 PC Aperture Table*
*
%ADD010C,0.001*%
%ADD012C,0.005*%
%ADD013C,0.11024*%
%ADD016C,0.07874*%
%ADD018O,0.07874X0.19685*%
%ADD019O,0.15748X0.07874*%
%ADD022R,0.06X0.06*%
%ADD023C,0.06*%
%ADD026C,0.05906*%
%ADD027C,0.01181*%
%ADD030O,0.09055X0.05118*%
%ADD035C,0.1378*%
%ADD036C,0.09843*%
%ADD039C,0.19685*%
%ADD043C,0.01968*%
%ADD048O,0.09843X0.07874*%
%ADD049O,0.09843X0.05906*%
%ADD050C,0.15748*%
%ADD051C,0.006*%
%ADD052C,0.02*%
%ADD054C,0.015*%
*
*
*
*
G04 PC Circuitry*
G04 Layer Name HT66F2350_WIFI_V1.0.pcb - circuitry*
%LPD*%
*
*
G04 PC Custom Flashes*
G04 Layer Name HT66F2350_WIFI_V1.0.pcb - flashes*
%LPD*%
*
*
G04 PC Circuitry*
G04 Layer Name HT66F2350_WIFI_V1.0.pcb - circuitry*
%LPD*%
*
G54D10*
G54D12*
G01X100000Y100000D02*
X493701D01*
Y493701*
X100000*
Y100000*
G54D13*
X476230Y291143D03*
Y271457D03*
X399213Y111811D03*
X418898D03*
X438583D03*
X332677Y225984D03*
Y273228D03*
X276771Y249606D03*
X419292Y225984D03*
Y273228D03*
X363386Y249606D03*
X476100Y232653D03*
Y212967D03*
X419292Y155118D03*
Y202362D03*
X363386Y178740D03*
X476260Y180633D03*
Y160947D03*
G54D16*
X184646Y253543D03*
X164961D03*
X181693Y214173D03*
X167913D03*
X292913Y326142D03*
Y306929D03*
X401772Y387087D03*
X411772D03*
X421772D03*
X431772D03*
X441772D03*
X451772D03*
Y427087D03*
X441772D03*
X431772D03*
X421772D03*
X411772D03*
X401772D03*
X288346Y483858D03*
X298346D03*
X308346D03*
X318346D03*
X338189Y121496D03*
Y131496D03*
Y141496D03*
X267658Y363600D03*
X287343D03*
X277500Y373443D03*
X166929Y338425D03*
Y357638D03*
X136811Y241157D03*
Y251000D03*
Y260843D03*
X113189D03*
Y251000D03*
Y241157D03*
G54D18*
X157874Y296850D03*
X133465D03*
G54D19*
X147337Y278450D03*
G54D22*
X182677Y285039D03*
X312598Y288976D03*
X446457Y269291D03*
Y210236D03*
Y159055D03*
X229500Y362000D03*
Y349000D03*
X471500Y442600D03*
G54D23*
X192677Y285039D03*
X209500Y302000D03*
X219500D03*
X229500D03*
Y312000D03*
X219500D03*
X209500D03*
X322598Y288976D03*
X332598D03*
X342598D03*
X446457Y279291D03*
Y289291D03*
Y220236D03*
Y230236D03*
Y169055D03*
Y179055D03*
X219500Y362000D03*
X209500D03*
X219500Y349000D03*
X209500D03*
Y325000D03*
X219500D03*
X229500D03*
Y335000D03*
X219500D03*
X209500D03*
X481500Y442600D03*
G54D26*
X166929Y182677D03*
X174803D03*
X119685Y210236D03*
X111811D03*
X119685Y186614D03*
X111811D03*
X166929Y159055D03*
X174803D03*
X391739Y328346D03*
Y320472D03*
X259963Y430578D03*
X267837D03*
G54D27*
X119610Y407087D03*
Y391339D03*
G54D30*
X111146Y386613D03*
Y411809D03*
G54D35*
X349212Y481890D03*
X349213Y388189D03*
X257480D03*
Y481890D03*
G54D36*
X418898Y466142D03*
X448898D03*
X284645Y273228D03*
Y225984D03*
X371260Y273228D03*
Y225984D03*
Y202362D03*
Y155118D03*
G54D39*
X375276Y131496D03*
X474016Y474016D03*
X119685D03*
X474016Y119685D03*
X119685D03*
G54D43*
X337880Y435000D03*
X308352D03*
G54D48*
X442559Y326378D03*
Y353937D03*
G54D49*
Y336220D03*
Y344094D03*
G54D50*
X453228Y312067D03*
Y368248D03*
G54D51*
X453100Y148200D02*
X454605Y147705D01*
Y148695*
X453100Y148200*
X453708Y148000D02*
X454605D01*
X454316Y148600D02*
X454605D01*
X453400Y148101D02*
Y148299D01*
X454000Y147904D02*
Y148496D01*
X454600Y147707D02*
Y148693D01*
X342100Y164300D02*
X343605Y163805D01*
Y164795*
X342100Y164300*
X342404Y164200D02*
X343605D01*
X342400Y164201D02*
Y164399D01*
X343000Y164004D02*
Y164596D01*
X343600Y163807D02*
Y164793D01*
X318914Y177086D02*
X318200Y178500D01*
X317500Y177800*
X318914Y177086*
X318292Y177400D02*
X318756D01*
X317700Y178000D02*
X318453D01*
X317800Y177648D02*
Y178100D01*
X318400Y177345D02*
Y178104D01*
X344100Y166300D02*
X343605Y164795D01*
X344595*
X344100Y166300*
X343607Y164800D02*
X344593D01*
X343804Y165400D02*
X344396D01*
X344001Y166000D02*
X344199D01*
X344200Y164795D02*
Y165996D01*
X455786Y196086D02*
X457200Y196800D01*
X456500Y197500*
X455786Y196086*
X456045Y196600D02*
X456804D01*
X456348Y197200D02*
X456800D01*
X455800Y196093D02*
Y196114D01*
X456400Y196396D02*
Y197302D01*
X457000Y196699D02*
Y197000D01*
X319400Y194400D02*
X317895Y194895D01*
Y193905*
X319400Y194400*
X317895Y194200D02*
X318792D01*
X317895Y194800D02*
X318184D01*
X318400Y194071D02*
Y194729D01*
X319000Y194268D02*
Y194532D01*
X344100Y196500D02*
X343605Y194995D01*
X344595*
X344100Y196500*
X343738Y195400D02*
X344462D01*
X343936Y196000D02*
X344264D01*
X344200Y194995D02*
Y196196D01*
X455400Y255900D02*
X456905Y255405D01*
Y256395*
X455400Y255900*
X455704Y256000D02*
X456905D01*
X455800Y255768D02*
Y256032D01*
X456400Y255571D02*
Y256229D01*
X333581Y310091D02*
G75*
G03X333100Y308955I1102J-1136D01*
G01X333581Y310091D02*
X332619D01*
X333100Y308955D02*
G03X332619Y310091I-1583J0D01*
G01X332982Y309555D02*
X333218D01*
X333100Y308955D02*
Y310091D01*
X330104Y290009D02*
G03X332300Y295314I-5310J5305D01*
G01X330104Y290009D02*
X334050Y291253D01*
X332300Y295314D02*
G03X334050Y291253I5588J0D01*
G01X332300Y295314D02*
X332300D01*
X332276Y294714D02*
X332332D01*
X332203Y294114D02*
X332430D01*
X332081Y293514D02*
X332598D01*
X331906Y292914D02*
X332842D01*
X331674Y292314D02*
X333174D01*
X331380Y291714D02*
X333614D01*
X331015Y291114D02*
X333610D01*
X330565Y290514D02*
X331707D01*
X330500Y290134D02*
Y290438D01*
X331100Y290323D02*
Y291243D01*
X331700Y290512D02*
Y292374D01*
X332300Y290701D02*
Y295314D01*
X332900Y290890D02*
Y292795D01*
X333500Y291080D02*
Y291855D01*
X350119Y285809D02*
G03X350600Y286945I-1102J1136D01*
G01X350119Y285809D02*
X351081D01*
X350600Y286945D02*
G03X351081Y285809I1583J0D01*
G01X350600Y286945D02*
X350600D01*
X350482Y286345D02*
X350718D01*
X350600Y285809D02*
Y286945D01*
X344381Y298791D02*
G03X343900Y297655I1102J-1136D01*
G01X344381Y298791D02*
X343419D01*
X343900Y297655D02*
G03X343419Y298791I-1583J0D01*
G01X343782Y298255D02*
X344018D01*
X343900Y297655D02*
Y298791D01*
X339899Y289052D02*
G03X338112Y293463I-6105J93D01*
G01X339899Y289052D02*
X342523Y291675D01*
X338112Y293463D02*
G03X342523Y291675I4317J4317D01*
G01X338112Y293463D02*
X338112D01*
X338638Y292863D02*
X338810D01*
X339044Y292263D02*
X339814D01*
X339357Y291663D02*
X342510D01*
X339591Y291063D02*
X341910D01*
X339756Y290463D02*
X341310D01*
X339858Y289863D02*
X340710D01*
X339899Y289263D02*
X340110D01*
X338112Y293463D02*
X338112D01*
X338712Y292765D02*
Y292937D01*
X339312Y291761D02*
Y292530D01*
X339912Y289064D02*
Y292218D01*
X340512Y289664D02*
Y291984D01*
X341112Y290264D02*
Y291818D01*
X341712Y290864D02*
Y291717D01*
X342312Y291464D02*
Y291676D01*
X334681Y299391D02*
G03X334200Y298255I1102J-1136D01*
G01X334681Y299391D02*
X333719D01*
X334200Y298255D02*
G03X333719Y299391I-1583J0D01*
G01X334082Y298855D02*
X334318D01*
X334200Y298255D02*
Y299391D01*
X353419Y285809D02*
G03X353900Y286945I-1102J1136D01*
G01X353419Y285809D02*
X354381D01*
X353900Y286945D02*
G03X354381Y285809I1583J0D01*
G01X353900Y286945D02*
X353900D01*
X353782Y286345D02*
X354018D01*
X353900Y285809D02*
Y286945D01*
X346600Y295780D02*
G03X347063Y294637I1583J-24D01*
G01X346600Y295780D02*
X345920Y295100D01*
X347063Y294637D02*
G03X345920Y295100I-1119J-1120D01*
G01X346056Y295237D02*
X346687D01*
X346463Y295013D02*
Y295644D01*
X368764Y313564D02*
X367966Y313280D01*
X368480Y312766*
X368764Y313564*
X368246Y313000D02*
X368563D01*
X368200Y313046D02*
Y313363D01*
X367537Y310550D02*
X366543Y310992D01*
Y310108*
X367537Y310550*
X366543Y310600D02*
X367425D01*
X367000Y310311D02*
Y310789D01*
X371400Y321600D02*
X371895Y323105D01*
X370905*
X371400Y321600*
X371268Y322000D02*
X371532D01*
X371071Y322600D02*
X371729D01*
X371200Y322208D02*
Y323105D01*
X371800Y322816D02*
Y323105D01*
X361438Y299446D02*
G03X361900Y300415I-786J969D01*
G01X361438Y299446D02*
X362362D01*
X361900Y300415D02*
G03X362362Y299446I1248J0D01*
G01X361900Y300415D02*
X361900D01*
X361746Y299815D02*
X362054D01*
X361900Y299446D02*
Y300415D01*
X375672Y327856D02*
G03X375200Y326745I1070J-1111D01*
G01X375672Y327856D02*
X374709Y327912D01*
X375200Y326745D02*
G03X374709Y327912I-1631J0D01*
G01X375086Y327345D02*
X375322D01*
X375200Y326745D02*
Y327883D01*
X228120Y327321D02*
G03X233055Y330255I-3304J11174D01*
G01X228120Y327321D02*
X232026Y325954D01*
X233055Y330255D02*
G03X232026Y325954I2990J-2989D01*
G01X233055Y330255D02*
X233055D01*
X232408Y329655D02*
X232557D01*
X231648Y329055D02*
X232214D01*
X230731Y328455D02*
X231988D01*
X229568Y327855D02*
X231858D01*
X228307Y327255D02*
X231817D01*
X230022Y326655D02*
X231861D01*
X231737Y326055D02*
X231994D01*
X228255Y327273D02*
Y327362D01*
X228855Y327064D02*
Y327565D01*
X229455Y326854D02*
Y327806D01*
X230055Y326644D02*
Y328087D01*
X230655Y326434D02*
Y328411D01*
X231255Y326224D02*
Y328783D01*
X231855Y326014D02*
Y326699D01*
Y327833D02*
Y329209D01*
X232455Y329500D02*
Y329696D01*
X335500Y326200D02*
X333995Y326695D01*
Y325705*
X335500Y326200*
X333995D02*
X335500D01*
X334000Y325707D02*
Y326693D01*
X334600Y325904D02*
Y326496D01*
X335200Y326101D02*
Y326299D01*
X229576Y337699D02*
G03X233987Y339487I93J6105D01*
G01X229576Y337699D02*
X232199Y335076D01*
X233987Y339487D02*
G03X232199Y335076I4317J-4318D01*
G01X233987Y339487D02*
X233987D01*
X233288Y338887D02*
X233460D01*
X232284Y338287D02*
X233054D01*
X229588Y337687D02*
X232741D01*
X230188Y337087D02*
X232507D01*
X230788Y336487D02*
X232342D01*
X231388Y335887D02*
X232241D01*
X231988Y335287D02*
X232199D01*
X229787Y337488D02*
Y337699D01*
X230387Y336888D02*
Y337741D01*
X230987Y336288D02*
Y337842D01*
X231587Y335688D02*
Y338007D01*
X232187Y335088D02*
Y338241D01*
X232787Y337784D02*
Y338554D01*
X233387Y338788D02*
Y338960D01*
X391500Y439100D02*
X391995Y440605D01*
X391005*
X391500Y439100*
X391336Y439600D02*
X391664D01*
X391138Y440200D02*
X391862D01*
X391600Y439404D02*
Y440605D01*
X397900Y374110D02*
X397405Y372695D01*
X398395*
X397900Y374110*
X397512Y373000D02*
X398288D01*
X397722Y373600D02*
X398078D01*
X397600Y372695D02*
Y373252D01*
X398200Y372695D02*
Y373252D01*
X397686Y378814D02*
X398400Y377400D01*
X399100Y378100*
X397686Y378814*
X398198Y377800D02*
X398800D01*
X397895Y378400D02*
X398506D01*
X398200Y377796D02*
Y378555D01*
X398800Y377800D02*
Y378252D01*
X421670Y423451D02*
G03X415728Y421043I-126J-8224D01*
G01X421670Y423451D02*
X418136Y426985D01*
X415728Y421043D02*
G03X418136Y426985I-5816J5816D01*
G01X418127Y426443D02*
X418678D01*
X418074Y425843D02*
X419278D01*
X417977Y425243D02*
X419878D01*
X417833Y424643D02*
X420478D01*
X417640Y424043D02*
X421078D01*
X417394Y423443D02*
X421159D01*
X417090Y422843D02*
X418438D01*
X416720Y422243D02*
X417251D01*
X416272Y421643D02*
X416398D01*
X415728Y421043D02*
X415728D01*
X416328Y421587D02*
Y421712D01*
X416928Y422035D02*
Y422566D01*
X417528Y422405D02*
Y423753D01*
X418128Y422709D02*
Y426474D01*
X418728Y422955D02*
Y426393D01*
X419328Y423148D02*
Y425793D01*
X419928Y423292D02*
Y425193D01*
X420528Y423389D02*
Y424593D01*
X421128Y423441D02*
Y423993D01*
X411670Y423451D02*
G03X405728Y421043I-126J-8224D01*
G01X411670Y423451D02*
X408136Y426985D01*
X405728Y421043D02*
G03X408136Y426985I-5816J5816D01*
G01X408127Y426443D02*
X408678D01*
X408074Y425843D02*
X409278D01*
X407977Y425243D02*
X409878D01*
X407833Y424643D02*
X410478D01*
X407640Y424043D02*
X411078D01*
X407394Y423443D02*
X411159D01*
X407090Y422843D02*
X408438D01*
X406720Y422243D02*
X407251D01*
X406272Y421643D02*
X406398D01*
X405728Y421043D02*
X405728D01*
X406328Y421587D02*
Y421712D01*
X406928Y422035D02*
Y422566D01*
X407528Y422405D02*
Y423753D01*
X408128Y422709D02*
Y426474D01*
X408728Y422955D02*
Y426393D01*
X409328Y423148D02*
Y425793D01*
X409928Y423292D02*
Y425193D01*
X410528Y423389D02*
Y424593D01*
X411128Y423441D02*
Y423993D01*
X478801Y442676D02*
G03X477013Y447087I-6105J93D01*
G01X478801Y442676D02*
X481424Y445299D01*
X477013Y447087D02*
G03X481424Y445299I4318J4317D01*
G01X477013Y447087D02*
X477013D01*
X477540Y446487D02*
X477712D01*
X477946Y445887D02*
X478716D01*
X478259Y445287D02*
X481412D01*
X478493Y444687D02*
X480812D01*
X478658Y444087D02*
X480212D01*
X478759Y443487D02*
X479612D01*
X478801Y442887D02*
X479012D01*
X477013Y447087D02*
X477013D01*
X477613Y446388D02*
Y446560D01*
X478213Y445384D02*
Y446154D01*
X478813Y442688D02*
Y445841D01*
X479413Y443288D02*
Y445607D01*
X480013Y443888D02*
Y445442D01*
X480613Y444488D02*
Y445341D01*
X481213Y445088D02*
Y445299D01*
X468690Y456190D02*
G03X469153Y455047I1583J-24D01*
G01X468690Y456190D02*
X468010Y455510D01*
X469153Y455047D02*
G03X468010Y455510I-1119J-1120D01*
G01X468146Y455647D02*
X468777D01*
X468553Y455423D02*
Y456054D01*
X346000Y147200D02*
X352100D01*
X365900Y161000*
X388976*
X455100Y148200D02*
X401776D01*
X388976Y161000*
X474840Y146270D02*
Y150643D01*
X344100Y164300D02*
X331700D01*
X317500Y178500*
X344100Y164300D02*
Y168522D01*
X366178Y190600*
X450300*
X457200Y197500*
X317400Y194400D02*
X344100D01*
Y194500*
Y200042*
X326266Y217877*
X480420Y198410D02*
Y201208D01*
X326266Y217877D02*
Y236467D01*
X369499Y279700*
X428600*
X477870Y253480D02*
X477953Y253563D01*
X457400Y255900D02*
X452400D01*
X428600Y279700*
X332300Y289275D02*
Y300800D01*
X333100Y301600*
Y310600*
X332598Y288976D02*
X332300Y289275D01*
X350600Y285300D02*
Y287452D01*
X343900Y294152*
Y299300*
X342598Y288976D02*
X334200Y297375D01*
Y299900*
X353900Y285300D02*
Y287800D01*
X345900Y295800*
X373300Y313716D02*
Y325300D01*
X373270Y326080*
X367800Y312600D02*
X369400Y314200D01*
Y320990*
X369440*
X366000Y310550D02*
X368437D01*
X371400Y313513*
Y323600*
X359500Y301100D02*
X360936Y302536D01*
X362121*
X373300Y313716*
X361900Y298920D02*
Y300415D01*
X375200Y313715*
Y327830*
X375220Y328390*
X229500Y325000D02*
Y326700D01*
X246690Y343890*
X341900*
X333500Y326200D02*
X338800D01*
X340200Y326300*
X341800Y326200D02*
X340200Y326300D01*
X229500Y335000D02*
X240300Y345800D01*
X342677*
X344860Y342621D02*
X344177Y344300D01*
X342677Y345800*
X341900Y343890D02*
X342009Y343654D01*
X342000Y343650*
X344660Y342540D02*
X344860Y342621D01*
X395880Y367420D02*
X391500Y371800D01*
Y441100*
X395750Y367290D02*
X395880Y367420D01*
X397900Y372200D02*
Y375010D01*
X395730Y377180*
Y411045*
X399100Y377400D02*
X396935Y379565D01*
Y402250*
X421772Y427087*
X395730Y411045D02*
X411772Y427087D01*
X481500Y442600D02*
X474038Y450062D01*
Y450162*
X467990Y456210*
G54D52*
X435021Y109042D02*
G03X430213Y111811I-4808J-2789D01*
G01X435021Y109042D02*
Y114580D01*
X430213Y111811D02*
G03X435021Y114580I0J5558D01*
G01X434483Y113811D02*
X435021D01*
X430213Y111811D02*
X435021D01*
X434483Y109811D02*
X435021D01*
X430213Y111811D02*
X430213D01*
X432213Y111439D02*
Y112183D01*
X434213Y110112D02*
Y113510D01*
X374109Y157812D02*
G03X380475Y155118I6366J6174D01*
G01X374109Y157812D02*
Y152424D01*
X380475Y155118D02*
G03X374109Y152424I-0J-8868D01*
G01Y157118D02*
X374865D01*
X374109Y155118D02*
X380475D01*
X374109Y153118D02*
X374865D01*
X374475Y152780D02*
Y157456D01*
X376475Y154165D02*
Y156072D01*
X378475Y154890D02*
Y155347D01*
X168881Y159000D02*
G03X170174Y155810I4416J-67D01*
G01X168881Y159000D02*
X166984Y157103D01*
X170174Y155810D02*
G03X166984Y157103I-3123J-3122D01*
G01X167691Y157810D02*
X169026D01*
X168174Y156959D02*
Y158293D01*
X340323Y143514D02*
G03X345091Y141496I4768J4624D01*
G01X340323Y143514D02*
Y139478D01*
X345091Y141496D02*
G03X340323Y139478I-0J-6642D01*
G01Y143496D02*
X340340D01*
X340323Y141496D02*
X345091D01*
X340323Y139496D02*
X340340D01*
X341091Y140156D02*
Y142836D01*
X343091Y141188D02*
Y141804D01*
X367832Y153214D02*
G03X365722Y155118I-2110J-217D01*
G01X367832Y153214D02*
Y157022D01*
X365722Y155118D02*
G03X367832Y157022I0J2121D01*
G01X365722Y155118D02*
X367832D01*
X365722D02*
X365722D01*
X367722Y153703D02*
Y156534D01*
X444457Y169111D02*
G03X443133Y172379I-4522J69D01*
G01X444457Y169111D02*
X446401Y171054D01*
X443133Y172379D02*
G03X446401Y171054I3198J3198D01*
G01X443133Y172379D02*
X443133D01*
X444296Y170379D02*
X445725D01*
X443133Y172379D02*
X443133D01*
X445133Y169787D02*
Y171215D01*
X366664Y181840D02*
G03X373988Y178740I7324J7103D01*
G01X366664Y181840D02*
Y175640D01*
X373988Y178740D02*
G03X366664Y175640I0J-10203D01*
G01Y180740D02*
X367921D01*
X366664Y178740D02*
X373988D01*
X366664Y176740D02*
X367921D01*
X367988Y176790D02*
Y180691D01*
X369988Y177923D02*
Y179557D01*
X371988Y178542D02*
Y178938D01*
X473160Y183911D02*
G03X476260Y191235I-7103J7324D01*
G01X473160Y183911D02*
X479360D01*
X476260Y191235D02*
G03X479360Y183911I10203J0D01*
G01X476260Y191235D02*
X476260D01*
X476062Y189235D02*
X476458D01*
X475443Y187235D02*
X477077D01*
X474309Y185235D02*
X478211D01*
X474260Y183911D02*
Y185168D01*
X476260Y183911D02*
Y191235D01*
X478260Y183911D02*
Y185168D01*
X422570Y205462D02*
G03X429894Y202362I7324J7103D01*
G01X422570Y205462D02*
Y199262D01*
X429894Y202362D02*
G03X422570Y199262I0J-10203D01*
G01Y204362D02*
X423827D01*
X422570Y202362D02*
X429894D01*
X422570Y200362D02*
X423827D01*
X423894Y200412D02*
Y204313D01*
X425894Y201545D02*
Y203179D01*
X427894Y202164D02*
Y202560D01*
X286338Y222447D02*
G03X283100Y216900I3133J-5547D01*
G01X286338Y222447D02*
X280867Y224934D01*
X283100Y216900D02*
G03X280867Y224934I-15573J-0D01*
G01X280888Y224900D02*
X280943D01*
X281898Y222900D02*
X285342D01*
X282578Y220900D02*
X284512D01*
X282971Y218900D02*
X283422D01*
X281100Y224535D02*
Y224829D01*
X283100Y216900D02*
Y223919D01*
X285100Y221535D02*
Y223010D01*
X373331Y222655D02*
G03X366250Y218250I5912J-17398D01*
G01X373331Y222655D02*
X367620Y224525D01*
X366250Y218250D02*
G03X367620Y224525I-4205J4205D01*
G01X367715Y224250D02*
X368460D01*
X367988Y222250D02*
X372252D01*
X367568Y220250D02*
X368620D01*
X366250Y218250D02*
X366250D01*
X368250Y219981D02*
Y224319D01*
X370250Y221281D02*
Y223664D01*
X372250Y222249D02*
Y223009D01*
X445003Y287917D02*
G03X441757Y289291I-3246J-3149D01*
G01X445003Y287917D02*
Y290665D01*
X441757Y289291D02*
G03X445003Y290665I-0J4523D01*
G01X441757Y289291D02*
X445003D01*
X441757D02*
X441757D01*
X443757Y288825D02*
Y289758D01*
X371150Y269309D02*
G03X364744Y266712I-136J-8867D01*
G01X371150Y269309D02*
X367340Y273118D01*
X364744Y266712D02*
G03X367340Y273118I-6271J6271D01*
G01X367337Y272712D02*
X367746D01*
X367045Y270712D02*
X369746D01*
X366245Y268712D02*
X367815D01*
X364744Y266712D02*
X364744D01*
X366744Y268214D02*
Y269783D01*
X368744Y269014D02*
Y271715D01*
X370744Y269305D02*
Y269715D01*
X444457Y220292D02*
G03X443133Y223560I-4522J69D01*
G01X444457Y220292D02*
X446401Y222235D01*
X443133Y223560D02*
G03X446401Y222235I3198J3198D01*
G01X443133Y223560D02*
X443133D01*
X444296Y221560D02*
X445725D01*
X443133Y223560D02*
X443133D01*
X445133Y220968D02*
Y222396D01*
X366664Y252706D02*
G03X373988Y249606I7324J7103D01*
G01X366664Y252706D02*
Y246507D01*
X373988Y249606D02*
G03X366664Y246507I0J-10203D01*
G01Y251606D02*
X367921D01*
X366664Y249606D02*
X373988D01*
X366664Y247606D02*
X367921D01*
X367988Y247656D02*
Y251557D01*
X369988Y248790D02*
Y250423D01*
X371988Y249408D02*
Y249804D01*
X472822Y229553D02*
G03X465497Y232653I-7325J-7104D01*
G01X472822Y229553D02*
Y235752D01*
X465497Y232653D02*
G03X472822Y235752I0J10203D01*
G01X471565Y234653D02*
X472822D01*
X465497Y232653D02*
X472822D01*
X471565Y230653D02*
X472822D01*
X465497Y232653D02*
X465497D01*
X467497Y232455D02*
Y232850D01*
X469497Y231836D02*
Y233469D01*
X471497Y230702D02*
Y234603D01*
X423802Y273102D02*
G03X426789Y265731I10202J-156D01*
G01X423802Y273102D02*
X419418Y268718D01*
X426789Y265731D02*
G03X419418Y268718I-7215J-7215D01*
G01X422431Y271731D02*
X423873D01*
X420431Y269731D02*
X424320D01*
X423955Y267731D02*
X425234D01*
X420789Y268647D02*
Y270089D01*
X422789Y268200D02*
Y272089D01*
X424789Y267286D02*
Y268565D01*
X139046Y252906D02*
G03X142851Y251000I3805J2845D01*
G01X139046Y252906D02*
Y249094D01*
X142851Y251000D02*
G03X139046Y249094I-0J-4751D01*
G01Y251000D02*
X142851D01*
X140851Y250559D02*
Y251441D01*
X280050Y252706D02*
G03X287374Y249606I7324J7103D01*
G01X280050Y252706D02*
Y246507D01*
X287374Y249606D02*
G03X280050Y246507I0J-10203D01*
G01Y251606D02*
X281307D01*
X280050Y249606D02*
X287374D01*
X280050Y247606D02*
X281307D01*
X281374Y247656D02*
Y251557D01*
X283374Y248790D02*
Y250423D01*
X285374Y249408D02*
Y249804D01*
X138945Y262860D02*
G03X143713Y260843I4768J4624D01*
G01X138945Y262860D02*
Y258825D01*
X143713Y260843D02*
G03X138945Y258825I-0J-6642D01*
G01Y262843D02*
X138962D01*
X138945Y260843D02*
X143713D01*
X138945Y258843D02*
X138962D01*
X139713Y259503D02*
Y262182D01*
X141713Y260534D02*
Y261151D01*
X229444Y310001D02*
G03X226177Y308677I-69J-4523D01*
G01X229444Y310001D02*
X227501Y311944D01*
X226177Y308677D02*
G03X227501Y311944I-3199J3198D01*
G01X227340Y310677D02*
X228768D01*
X226177Y308677D02*
X226177D01*
X228177Y309840D02*
Y311268D01*
X230874Y300547D02*
G03X229500Y297300I3149J-3247D01*
G01X230874Y300547D02*
X228126D01*
X229500Y297300D02*
G03X228126Y300547I-4523J0D01*
G01X229034Y299300D02*
X229966D01*
X229500Y297300D02*
Y300547D01*
X335956Y276328D02*
G03X343280Y273228I7324J7103D01*
G01X335956Y276328D02*
Y270129D01*
X343280Y273228D02*
G03X335956Y270129I0J-10203D01*
G01Y275228D02*
X337213D01*
X335956Y273228D02*
X343280D01*
X335956Y271228D02*
X337213D01*
X337280Y271278D02*
Y275179D01*
X339280Y272412D02*
Y274045D01*
X341280Y273030D02*
Y273426D01*
X443678Y323897D02*
G03X437003Y321806I-1338J-7429D01*
G01X443678Y323897D02*
X438781Y327285D01*
X437003Y321806D02*
G03X438781Y327285I-4484J4484D01*
G01X438841Y325806D02*
X440919D01*
X438353Y323806D02*
X440569D01*
X437003Y321806D02*
X437003D01*
X439003Y323239D02*
Y327132D01*
X441003Y323897D02*
Y325748D01*
X443003Y323987D02*
Y324364D01*
X180938Y284052D02*
G03X178000Y285500I-2938J-2257D01*
G01X180938Y284052D02*
X182008Y286924D01*
X178000Y285500D02*
G03X182008Y286924I-0J6352D01*
G01X178000Y285500D02*
X181477D01*
X178000D02*
X178000D01*
X180000Y284914D02*
Y285823D01*
X182000Y286903D02*
Y286918D01*
X158741Y295618D02*
G03X163319Y285500I15709J1013D01*
G01X158741Y295618D02*
X156746Y288233D01*
X163319Y285500D02*
G03X156746Y288233I-6598J-6598D01*
G01X158709Y295500D02*
X158749D01*
X158169Y293500D02*
X159023D01*
X157629Y291500D02*
X159568D01*
X157089Y289500D02*
X160416D01*
X160346Y287500D02*
X161627D01*
X157319Y288214D02*
Y290353D01*
X159319Y287864D02*
Y292289D01*
X161319Y287021D02*
Y287949D01*
X182733Y287039D02*
G03X186001Y288363I69J4522D01*
G01X182733Y287039D02*
X184676Y285095D01*
X186001Y288363D02*
G03X184676Y285095I3198J-3198D01*
G01X186001Y288363D02*
X186001D01*
X183409Y286363D02*
X184837D01*
X184001Y285771D02*
Y287200D01*
X220874Y300547D02*
G03X219500Y297300I3149J-3247D01*
G01X220874Y300547D02*
X218126D01*
X219500Y297300D02*
G03X218126Y300547I-4523J0D01*
G01X219034Y299300D02*
X219966D01*
X219500Y297300D02*
Y300547D01*
X310738Y289711D02*
G03X312300Y293667I-4229J3956D01*
G01X310738Y289711D02*
X313646Y290680D01*
X312300Y293667D02*
G03X313646Y290680I3987J-0D01*
G01X312300Y293667D02*
X312300D01*
X311944Y291667D02*
X312838D01*
X312300Y290232D02*
Y293667D01*
X314598Y288920D02*
G03X315922Y285653I4522J-69D01*
G01X314598Y288920D02*
X312654Y286977D01*
X315922Y285653D02*
G03X312654Y286977I-3198J-3198D01*
G01X313330Y287653D02*
X314759D01*
X313922Y286816D02*
Y288245D01*
X445003Y277917D02*
G03X441757Y279291I-3246J-3149D01*
G01X445003Y277917D02*
Y280665D01*
X441757Y279291D02*
G03X445003Y280665I-0J4523D01*
G01X441757Y279291D02*
X445003D01*
X441757D02*
X441757D01*
X443757Y278825D02*
Y279758D01*
X210372Y310200D02*
X218628D01*
Y313800*
X210372*
Y310200*
Y312000D02*
X218628D01*
X212000Y310200D02*
Y313800D01*
X214000Y310200D02*
Y313800D01*
X216000Y310200D02*
Y313800D01*
X218000Y310200D02*
Y313800D01*
X207501Y302056D02*
G03X206177Y305323I-4523J69D01*
G01X207501Y302056D02*
X209444Y303999D01*
X206177Y305323D02*
G03X209444Y303999I3198J3199D01*
G01X206177Y305323D02*
X206177D01*
X207340Y303323D02*
X208768D01*
X206177Y305323D02*
X206177D01*
X208177Y302732D02*
Y304160D01*
X220372Y310200D02*
X228628D01*
Y313800*
X220372*
Y310200*
Y312000D02*
X228628D01*
X222000Y310200D02*
Y313800D01*
X224000Y310200D02*
Y313800D01*
X226000Y310200D02*
Y313800D01*
X228000Y310200D02*
Y313800D01*
X211499Y348944D02*
G03X212823Y345677I4523J-69D01*
G01X211499Y348944D02*
X209556Y347001D01*
X212823Y345677D02*
G03X209556Y347001I-3198J-3199D01*
G01X210232Y347677D02*
X211660D01*
X210823Y346840D02*
Y348268D01*
X208126Y350453D02*
G03X209500Y353700I-3149J3247D01*
G01X208126Y350453D02*
X210874D01*
X209500Y353700D02*
G03X210874Y350453I4523J0D01*
G01X209500Y353700D02*
X209500D01*
X209034Y351700D02*
X209966D01*
X209500Y350453D02*
Y353700D01*
X210874Y360547D02*
G03X209500Y357300I3149J-3247D01*
G01X210874Y360547D02*
X208126D01*
X209500Y357300D02*
G03X208126Y360547I-4523J0D01*
G01X209034Y359300D02*
X209966D01*
X209500Y357300D02*
Y360547D01*
X287261Y360664D02*
G03X282462Y358720I-102J-6641D01*
G01X287261Y360664D02*
X284407Y363518D01*
X282462Y358720D02*
G03X284407Y363518I-4696J4696D01*
G01X284371Y362720D02*
X285205D01*
X283836Y360720D02*
X287205D01*
X282462Y358720D02*
X282462D01*
X284462Y360093D02*
Y363463D01*
X286462Y360629D02*
Y361463D01*
X285325Y365734D02*
G03X287343Y370502I-4624J4768D01*
G01X285325Y365734D02*
X289361D01*
X287343Y370502D02*
G03X289361Y365734I6642J0D01*
G01X287343Y370502D02*
X287343D01*
X287035Y368502D02*
X287651D01*
X286003Y366502D02*
X288682D01*
X285343Y365734D02*
Y365752D01*
X287343Y365734D02*
Y370502D01*
X289343Y365734D02*
Y365752D01*
X438583Y111811D02*
X430213D01*
X386906Y155118*
X371260*
X280400Y139200D02*
X186784D01*
X166929Y159055*
X329900Y147200D02*
X346000D01*
X355400Y156600*
X356100*
X338189Y141496D02*
X352100D01*
X365722Y155118*
X371260*
X479170Y149800D02*
Y153920D01*
X476260Y156830*
Y160947*
X446457Y169055D02*
X436772Y178740D01*
X363386*
X476260Y160947D02*
X483372Y168059D01*
Y194686*
X480034Y198024*
X143000Y187500D02*
X147000Y191500D01*
Y243413*
X163087Y259500*
X227500*
X261500Y293500*
X269000*
X476260Y180633D02*
Y194222D01*
X468120Y202362*
X419292*
X249300Y198300D02*
X283100D01*
Y224439*
X284645Y225984*
X283100Y198100D02*
Y198300D01*
X350300Y202300D02*
X371260Y223260D01*
Y225984*
X480034Y198024D02*
X476100Y201957D01*
Y212967*
X480034Y198024D02*
X480420Y198410D01*
X143500Y231000D02*
Y247470D01*
X158230Y262200*
X225877*
X234100Y270423*
Y313905*
X207500Y226600D02*
X238800Y257900D01*
X340433*
X367133Y284600*
X435209*
X439900Y289291*
X446457*
X331131Y233100D02*
X371260Y273228D01*
X446457Y220236D02*
X417087Y249606D01*
X363386*
X476100Y232653D02*
X459867D01*
X419292Y273228*
X136811Y251000D02*
X142851D01*
X157051Y265200*
X203800*
X224800Y286200*
X276771Y249606D02*
X336400D01*
X368394Y281600*
X435200*
X136811Y260843D02*
X147772D01*
X155429Y268500*
X201800*
X224500Y291200*
Y307000*
X229500Y312000*
X225000Y265000D02*
X229500Y269500D01*
Y302000*
X332677Y273228D02*
X351500D01*
X365872Y287600*
X402797*
X441575Y326378*
X442559*
X182677Y285039D02*
Y285500D01*
X163319*
X157874Y290945*
Y296850*
X182677Y285039D02*
X187638Y290000D01*
X216600*
X219500Y292900*
Y302000*
X312598Y288976D02*
X312300Y289275D01*
Y322500*
X356708Y282700D02*
X365508Y291500D01*
X378500*
X383700Y296700*
X356708Y282700D02*
X318875D01*
X312598Y288976*
X446457Y279291D02*
X437509D01*
X435200Y281600*
X209500Y312000D02*
X219500D01*
X209500Y302000D02*
X192500Y319000D01*
X142000*
X219500Y312000D02*
X229500D01*
X234100Y313905D02*
X229505Y318500D01*
X229495*
X224500Y323495*
Y339000*
X220826Y342674*
X215826*
X209500Y349000*
X136000Y349500D02*
Y369000D01*
X209500Y349000D02*
Y362000D01*
X250000Y351100D02*
X251500Y352600D01*
X276343*
X287343Y363600*
Y390343*
X291100Y394100*
Y397000*
X285900Y402200*
X178400Y113600D03*
X226200Y113400D03*
X319400Y111700D03*
X266000Y116700D03*
X134500Y148000D03*
X280400Y139200D03*
X300800Y151800D03*
X329900Y147200D03*
X332200Y153700D03*
X428960Y137130D03*
X455100Y148200D03*
X479170Y149800D03*
X124000Y160000D03*
X304200Y159100D03*
X344100Y164300D03*
X337800Y169700D03*
X356100Y156600D03*
X112360Y178060D03*
X143000Y187500D03*
X134500Y190500D03*
X304400Y175100D03*
X304200Y190500D03*
X317500Y178500D03*
X337400Y185500D03*
X201000Y199000D03*
X214500D03*
X249300Y198300D03*
X283100Y198100D03*
X317400Y194400D03*
X344100Y194500D03*
X350300Y202300D03*
X396470Y199320D03*
X457200Y197500D03*
X112150Y217590D03*
X143500Y231000D03*
X207500Y226600D03*
X241800Y226000D03*
X331131Y233100D03*
X394080Y232580D03*
X225000Y265000D03*
X394600Y264270D03*
X457400Y255900D03*
X224800Y286200D03*
X269000Y293500D03*
X350600Y285300D03*
X353900D03*
X393400Y293100D03*
X333100Y310600D03*
X345900Y295800D03*
X343900Y299300D03*
X334200Y299900D03*
X367800Y312600D03*
X366000Y310550D03*
X359500Y301100D03*
X361900Y298920D03*
X383700Y296700D03*
X387700Y307200D03*
X114500Y324500D03*
X142000Y319000D03*
X146500Y324500D03*
X312300Y322500D03*
X313800Y326200D03*
X333500D03*
X333300Y320400D03*
X341800Y326200D03*
X369440Y320990D03*
X371400Y323600D03*
X373270Y326080D03*
X375220Y328390D03*
X130110Y353000D03*
X136000Y349500D03*
X142939Y334469D03*
X149250Y334220D03*
X192500Y344000D03*
Y352000D03*
X250000Y351100D03*
X274380Y339230D03*
X342000Y343650D03*
X344660Y342540D03*
X392700Y335900D03*
X136000Y369000D03*
X300560Y355280D03*
X315500Y359500D03*
X336600Y360000D03*
X357800Y355600D03*
X375500Y359500D03*
X395750Y367290D03*
X397900Y372200D03*
X225000Y384000D03*
X321100Y381300D03*
X399100Y377400D03*
X222000Y396000D03*
X285900Y402200D03*
X291100Y394100D03*
X279500Y424600D03*
X353900Y425100D03*
X267300Y446200D03*
X260600Y445900D03*
X354010Y446970D03*
X391500Y441100D03*
X467990Y456210D03*
X397400Y482000D03*
X108874Y130823D02*
G03X110535Y130072I1000J-0D01*
G01X133528Y119685D02*
G03X110535Y130072I-13843J0D01*
G01X130072Y110535D02*
G03X133528Y119685I-10387J9150D01*
G01X130072Y110535D02*
G03X129823Y109874I751J-661D01*
X130823Y108874I1000J0*
G01X173697*
G03X174697Y109874I0J1000*
X174481Y110495I-1000J0*
G01X173400Y113600D02*
G03X174481Y110495I5000J0D01*
G01X183400Y113600D02*
G03X173400I-5000J0D01*
G01X182319Y110495D02*
G03X183400Y113600I-3919J3105D01*
G01X182319Y110495D02*
G03X182103Y109874I784J-621D01*
X183103Y108874I1000J0*
G01X221345*
G03X222345Y109874I0J1000*
X222154Y110462I-1000J0*
G01X221200Y113400D02*
G03X222154Y110462I5000J0D01*
G01X231200Y113400D02*
G03X221200I-5000J0D01*
G01X230246Y110462D02*
G03X231200Y113400I-4046J2938D01*
G01X230246Y110462D02*
G03X230055Y109874I809J-588D01*
X231055Y108874I1000J0*
G01X313685*
G03X314685Y109874I-0J1000*
G01X314685*
G03X314637Y110178I-1000J0*
G01X314400Y111700D02*
G03X314637Y110178I5000J0D01*
G01X324400Y111700D02*
G03X314400I-5000J0D01*
G01X324163Y110178D02*
G03X324400Y111700I-4763J1522D01*
G01X324163Y110178D02*
G03X324115Y109874I952J-304D01*
G01X324115*
G03X325115Y108874I1000J0*
G01X388881*
G03X389881Y109874I-0J1000*
G01X389881*
G03X389864Y110058I-1000J0*
G01X389701Y111811D02*
G03X389864Y110058I9512J0D01*
G01X389701Y111811D02*
X389701D01*
X408119Y115151D02*
G03X389701Y111811I-8906J-3340D01*
G01X408119Y115151D02*
G03X409991I936J351D01*
G01X415238Y120591D02*
G03X409991Y115151I3660J-8780D01*
G01X415238Y120591D02*
G03X415853Y121514I-385J923D01*
G01X415853*
G03X415561Y122221I-1000J-0*
G01X385956Y151825*
G03X385249Y152118I-707J-707*
G01X380475*
G03X380310Y152116I-0J-5868*
X379423Y151520I28J-1000*
G01X375395Y147213D02*
G03X379423Y151520I-4135J7905D01*
G01X375395Y147213D02*
G03X374858Y146327I463J-886D01*
X375819Y145328I1000J0*
G01X389118Y131496D02*
G03X375819Y145328I-13842J0D01*
G01X361433Y131496D02*
G03X389118I13843J0D01*
G01X370192Y144371D02*
G03X361433Y131496I5084J-12875D01*
G01X370192Y144371D02*
G03X370824Y145301I-368J930D01*
X369969Y146291I-1000J0*
G01X365005Y148756D02*
G03X369969Y146291I6255J6362D01*
G01X365005Y148756D02*
G03X363597Y148750I-701J-713D01*
G01X354221Y139375*
X352100Y138496D02*
G03X354221Y139375I0J3000D01*
G01X352100Y138496D02*
X346181D01*
G03X345287Y137944I-0J-1000*
G01X344768Y137056D02*
G03X345287Y137944I-6579J4440D01*
G01X344768Y137056D02*
G03X344596Y136496I828J-560D01*
X344768Y135937I1000J0*
G01X346126Y131496D02*
G03X344768Y135937I-7937J0D01*
G01Y127056D02*
G03X346126Y131496I-6579J4440D01*
G01X344768Y127056D02*
G03X344596Y126496I828J-560D01*
G01X344596*
G03X344768Y125937I1000J0*
G01X346126Y121496D02*
G03X344768Y125937I-7937J0D01*
G01X330252Y121496D02*
G03X346126I7937J0D01*
G01X331610Y125937D02*
G03X330252Y121496I6579J-4441D01*
G01X331610Y125937D02*
G03X331782Y126496I-828J559D01*
G01X331782*
G03X331610Y127056I-1000J0*
G01X330252Y131496D02*
G03X331610Y127056I7937J0D01*
G01Y135937D02*
G03X330252Y131496I6579J-4441D01*
G01X331610Y135937D02*
G03X331782Y136496I-828J559D01*
G01X331782*
G03X331610Y137056I-1000J0*
G01X330255Y141264D02*
G03X331610Y137056I7934J232D01*
G01X330255Y141264D02*
G03X329363Y142229I-999J-29D01*
G01X324900Y147200D02*
G03X329363Y142229I5000J0D01*
G01X327000Y151273D02*
G03X324900Y147200I2900J-4073D01*
G01X327000Y151273D02*
G03X327421Y152088I-579J815D01*
G01X327421*
G03X327384Y152357I-1000J0*
G01X327200Y153700D02*
G03X327384Y152357I5000J0D01*
G01X337200Y153700D02*
G03X327200I-5000J0D01*
G01X337200D02*
X337200D01*
X336745Y151617D02*
G03X337200Y153700I-4545J2083D01*
G01X336745Y151617D02*
G03X336654Y151200I909J-417D01*
G01X336654*
G03X337654Y150200I1000J0*
G01X344343*
G03X345050Y150493I0J1000*
G01X350818Y156261*
G03X351109Y156907I-707J707*
G01X359928Y159817D02*
G03X351109Y156907I-3828J-3217D01*
G01X359928Y159817D02*
G03X361400Y159753I765J643D01*
G01X364274Y162626*
X365900Y163300D02*
G03X364274Y162626I0J-2300D01*
G01X365900Y163300D02*
X367501D01*
G03X367880Y163375I0J1000*
G01X374639D02*
G03X367880I-3379J-8257D01*
G01X374639D02*
G03X375018Y163300I379J925D01*
G01X388976*
X390603Y162626D02*
G03X388976Y163300I-1627J-1626D01*
G01X390603Y162626D02*
X402436Y150793D01*
G03X403143Y150500I707J707*
G01X409422*
G03X410422Y151500I0J1000*
G01X410422*
G03X410361Y151844I-1000J0*
G01X409780Y155118D02*
G03X410361Y151844I9512J0D01*
G01X428803Y155118D02*
G03X409780I-9511J0D01*
G01X428222Y151844D02*
G03X428803Y155118I-8930J3274D01*
G01X428222Y151844D02*
G03X428161Y151500I939J-344D01*
G01X428161*
G03X429161Y150500I1000J0*
G01X441395*
G03X442395Y151500I-0J1000*
X441807Y152411I-1000J0*
G01X439457Y156055D02*
G03X441807Y152411I4000J0D01*
G01X439457Y156055D02*
Y162055D01*
X440289Y164498D02*
G03X439457Y162055I3168J-2443D01*
G01X440289Y164498D02*
G03X440498Y165109I-791J611D01*
X440368Y165602I-1000J-0*
G01X439457Y169055D02*
G03X440368Y165602I7000J0D01*
G01X439695Y170867D02*
G03X439457Y169055I6762J-1812D01*
G01X439695Y170867D02*
G03X439729Y171126I-966J259D01*
G01X439729*
G03X439436Y171833I-1000J-0*
G01X435822Y175447*
G03X435115Y175740I-707J-707*
G01X373988*
G03X372932Y175662I0J-7203*
X372157Y175060I147J-989*
G01X354970Y174307D02*
G03X372157Y175060I8416J4433D01*
G01X354970Y174307D02*
G03X353378Y174548I-885J-466D01*
G01X347852Y169022*
G03X347559Y168314I707J-708*
G01X347559*
G03X347816Y167645I1000J0*
G01X349100Y164300D02*
G03X347816Y167645I-5000J0D01*
G01X349100Y164300D02*
X349100D01*
X339924Y161550D02*
G03X349100Y164300I4176J2750D01*
G01X339924Y161550D02*
G03X339089Y162000I-835J-550D01*
G01X331700*
X330074Y162674D02*
G03X331700Y162000I1626J1626D01*
G01X330074Y162674D02*
X319417Y173330D01*
G03X318508Y173603I-707J-707*
G01X312500Y178500D02*
G03X318508Y173603I5000J0D01*
G01X322500Y178500D02*
G03X312500I-5000J0D01*
G01X322500D02*
X322500D01*
X322397Y177492D02*
G03X322500Y178500I-4897J1008D01*
G01X322397Y177492D02*
G03X322377Y177290I980J-202D01*
G01X322377*
G03X322670Y176583I1000J0*
G01X331161Y168092*
G03X332868Y168799I707J707*
X332857Y168949I-1000J-0*
G01X332800Y169700D02*
G03X332857Y168949I5000J0D01*
G01X342307Y171865D02*
G03X332800Y169700I-4507J-2165D01*
G01X342307Y171865D02*
G03X343916Y171591I902J433D01*
G01X354381Y182056*
G03X354598Y182381I-707J707*
G01X359745Y187528D02*
G03X354598Y182381I3641J-8788D01*
G01X359745Y187528D02*
G03X360070Y187745I-383J924D01*
G01X364551Y192226*
X366112Y192899D02*
G03X364551Y192226I66J-2299D01*
G01X366112Y192899D02*
G03X367083Y193899I-29J1000D01*
G01X367083*
G03X366605Y194752I-1000J-0*
G01X362338Y202362D02*
G03X366605Y194752I8922J0D01*
G01X380181Y202362D02*
G03X362338I-8921J0D01*
G01X375917Y194753D02*
G03X380181Y202362I-4657J7609D01*
G01X375917Y194753D02*
G03X375439Y193900I522J-853D01*
X376439Y192900I1000J0*
G01X393896*
G03X394896Y193900I0J1000*
X394325Y194803I-1000J0*
G01X391470Y199320D02*
G03X394325Y194803I5000J0D01*
G01X401470Y199320D02*
G03X391470I-5000J0D01*
G01X398615Y194803D02*
G03X401470Y199320I-2145J4517D01*
G01X398615Y194803D02*
G03X398044Y193900I429J-903D01*
X399044Y192900I1000J0*
G01X413055*
G03X414055Y193900I0J1000*
X413649Y194705I-1000J0*
G01X409780Y202362D02*
G03X413649Y194705I9512J0D01*
G01X428063Y206042D02*
G03X409780Y202362I-8771J-3680D01*
G01X428063Y206042D02*
G03X428838Y205440I922J387D01*
X429894Y205362I1056J7125*
G01X438534*
G03X439534Y206362I-0J1000*
X439518Y206537I-1000J0*
G01X439457Y207236D02*
G03X439518Y206537I4000J0D01*
G01X439457Y207236D02*
Y213236D01*
X440289Y215679D02*
G03X439457Y213236I3168J-2443D01*
G01X440289Y215679D02*
G03X440498Y216290I-791J611D01*
X440368Y216783I-1000J0*
G01X439457Y220236D02*
G03X440368Y216783I7000J0D01*
G01X439695Y222048D02*
G03X439457Y220236I6762J-1812D01*
G01X439695Y222048D02*
G03X439729Y222307I-966J259D01*
G01X439729*
G03X439436Y223014I-1000J-0*
G01X416137Y246313*
G03X415430Y246606I-707J-707*
G01X373988*
G03X372932Y246528I0J-7203*
X372157Y245926I147J-989*
G01X353881Y249233D02*
G03X372157Y245926I9505J373D01*
G01X353881Y249233D02*
G03X352175Y249901I-999J-39D01*
G01X337747Y235473*
G03X337454Y234766I707J-707*
G01X337454*
G03X337905Y233931I1000J0*
G01X342189Y225984D02*
G03X337905Y233931I-9512J0D01*
G01X333256Y216490D02*
G03X342189Y225984I-579J9494D01*
G01X333256Y216490D02*
G03X332317Y215492I61J-998D01*
G01X332317*
G03X332610Y214785I1000J-0*
G01X343902Y203493*
G03X345557Y203884I707J707*
G01X350578Y207292D02*
G03X345557Y203884I-278J-4992D01*
G01X350578Y207292D02*
G03X351341Y207584I56J999D01*
G01X363640Y219883*
G03X363933Y220590I-707J707*
G01X363933*
G03X363772Y221134I-1000J-0*
G01X362338Y225984D02*
G03X363772Y221134I8922J0D01*
G01X362338Y225984D02*
X362338D01*
X380181D02*
G03X362338I-8921J0D01*
G01X370015Y217150D02*
G03X380181Y225984I1245J8834D01*
G01X370015Y217150D02*
G03X369223Y216919I-140J-990D01*
X368371Y216129I10020J-11662*
G01X355584Y203341*
G03X355291Y202634I707J-707*
G01X355291*
G03X355292Y202578I1000J-0*
G01X355300Y202300D02*
G03X355292Y202578I-5000J0D01*
G01X355300Y202300D02*
X355300D01*
X349898Y197316D02*
G03X355300Y202300I402J4984D01*
G01X349898Y197316D02*
G03X348817Y196319I-81J-997D01*
G01X348817*
G03X348865Y196016I1000J0*
G01X349100Y194500D02*
G03X348865Y196016I-5000J0D01*
G01X349100Y194500D02*
X349100D01*
X342731Y189691D02*
G03X349100Y194500I1369J4809D01*
G01X342731Y189691D02*
G03X341457Y188729I-274J-962D01*
X341614Y188191I1000J0*
G01X342400Y185500D02*
G03X341614Y188191I-5000J0D01*
G01X332400Y185500D02*
G03X342400I5000J0D01*
G01X335605Y190167D02*
G03X332400Y185500I1795J-4667D01*
G01X335605Y190167D02*
G03X336246Y191100I-359J933D01*
X335246Y192100I-1000J0*
G01X322411*
G03X321576Y191650I-0J-1000*
G01X312400Y194400D02*
G03X321576Y191650I5000J0D01*
G01Y197150D02*
G03X312400Y194400I-4176J-2750D01*
G01X321576Y197150D02*
G03X322411Y196700I835J550D01*
G01X339025*
G03X339870Y197167I-0J1000*
G01X340948Y198381D02*
G03X339870Y197167I3152J-3881D01*
G01X340948Y198381D02*
G03X341318Y199158I-630J777D01*
G01X341318*
G03X341025Y199865I-1000J-0*
G01X324639Y216250*
X323966Y217877D02*
G03X324639Y216250I2300J-0D01*
G01X323966Y217877D02*
Y221962D01*
G03X323890Y222345I-1000J0*
G01X323166Y225984D02*
G03X323890Y222345I9511J0D01*
G01Y229624D02*
G03X323166Y225984I8787J-3640D01*
G01X323890Y229624D02*
G03X323966Y230007I-924J383D01*
G01Y236467*
X324639Y238093D02*
G03X323966Y236467I1627J-1626D01*
G01X324639Y238093D02*
X331445Y244899D01*
G03X331738Y245606I-707J707*
G01X331738*
G03X330738Y246606I-1000J0*
G01X287374*
G03X286318Y246528I0J-7203*
X285542Y245926I147J-989*
G01X267260Y249606D02*
G03X285542Y245926I9511J0D01*
G01X267260Y249606D02*
X267260D01*
X268089Y253492D02*
G03X267260Y249606I8682J-3886D01*
G01X268089Y253492D02*
G03X268177Y253900I-912J408D01*
X267177Y254900I-1000J0*
G01X240457*
G03X239750Y254607I-0J-1000*
G01X212784Y227641*
G03X212491Y226934I707J-707*
G01X212491*
G03X212492Y226878I1000J-0*
G01X212500Y226600D02*
G03X212492Y226878I-5000J0D01*
G01X212500Y226600D02*
X212500D01*
X202500D02*
G03X212500I5000J0D01*
G01X207778Y231592D02*
G03X202500Y226600I-278J-4992D01*
G01X207778Y231592D02*
G03X208541Y231884I56J999D01*
G01X236679Y260021*
X238800Y260900D02*
G03X236679Y260021I0J-3000D01*
G01X238800Y260900D02*
X338776D01*
G03X339483Y261193I-0J1000*
G01X346811Y268521*
G03X347104Y269228I-707J707*
G01X347104*
G03X346104Y270228I-1000J0*
G01X343280*
G03X342224Y270150I0J-7203*
X341448Y269548I147J-989*
G01X323166Y273228D02*
G03X341448Y269548I9511J0D01*
G01X324556Y278179D02*
G03X323166Y273228I8121J-4951D01*
G01X324556Y278179D02*
G03X324702Y278700I-854J521D01*
G01X324702*
G03X323702Y279700I-1000J0*
G01X318875*
X316753Y280579D02*
G03X318875Y279700I2122J2121D01*
G01X316753Y280579D02*
X315649Y281683D01*
G03X314942Y281976I-707J-707*
G01X309598*
X305598Y285976D02*
G03X309598Y281976I4000J0D01*
G01X305598Y285976D02*
Y291976D01*
X308560Y295839D02*
G03X305598Y291976I1038J-3863D01*
G01X308560Y295839D02*
G03X309300Y296805I-260J966D01*
G01Y318028*
G03X308967Y318773I-1000J-0*
G01X307300Y322500D02*
G03X308967Y318773I5000J0D01*
G01X308555Y325813D02*
G03X307300Y322500I3745J-3313D01*
G01X308555Y325813D02*
G03X308805Y326430I-749J663D01*
G01X318800Y326200D02*
G03X308805Y326430I-5000J0D01*
G01X317545Y322887D02*
G03X318800Y326200I-3745J3313D01*
G01X317545Y322887D02*
G03X317295Y322270I749J-663D01*
G01X315633Y318773D02*
G03X317295Y322270I-3333J3727D01*
G01X315633Y318773D02*
G03X315300Y318028I667J-745D01*
G01Y296927*
G03X316160Y295937I1000J-0*
G01X318042Y295144D02*
G03X316160Y295937I-2444J-3168D01*
G01X318042Y295144D02*
G03X319146Y295066I610J791D01*
G01X326973Y294441D02*
G03X319146Y295066I-4375J-5465D01*
G01X326973Y294441D02*
G03X328223I625J780D01*
G01X329450Y295228D02*
G03X328223Y294441I3148J-6252D01*
G01X329450Y295228D02*
G03X330000Y296121I-450J893D01*
G01Y296907*
G03X329867Y297406I-1000J-0*
G01X329200Y299900D02*
G03X329867Y297406I5000J0D01*
G01X330533Y303299D02*
G03X329200Y299900I3667J-3399D01*
G01X330533Y303299D02*
G03X330800Y303979I-733J680D01*
G01Y305589*
G03X330350Y306424I-1000J0*
G01X328100Y310600D02*
G03X330350Y306424I5000J0D01*
G01X330300Y314742D02*
G03X328100Y310600I2800J-4142D01*
G01X330300Y314742D02*
G03X330740Y315571I-560J829D01*
X330333Y316376I-1000J-0*
G01X328300Y320400D02*
G03X330333Y316376I5000J-0D01*
G01X328300Y320400D02*
X328300D01*
X329010Y322967D02*
G03X328300Y320400I4290J-2567D01*
G01X329010Y322967D02*
G03X329151Y323481I-859J514D01*
G01X329151*
G03X329043Y323934I-1000J-0*
G01X328500Y326200D02*
G03X329043Y323934I5000J0D01*
G01X336958Y329811D02*
G03X328500Y326200I-3458J-3611D01*
G01X336958Y329811D02*
G03X338342I692J722D01*
G01X346800Y326200D02*
G03X338342Y329811I-5000J0D01*
G01X339708Y321659D02*
G03X346800Y326200I2092J4541D01*
G01X339708Y321659D02*
G03X338290Y320750I-418J-909D01*
X338291Y320692I1000J0*
G01X338300Y320400D02*
G03X338291Y320692I-5000J0D01*
G01X338300Y320400D02*
X338300D01*
X336100Y316258D02*
G03X338300Y320400I-2800J4142D01*
G01X336100Y316258D02*
G03X335660Y315429I560J-829D01*
X336067Y314624I1000J0*
G01X338100Y310600D02*
G03X336067Y314624I-5000J0D01*
G01X338100Y310600D02*
X338100D01*
X335850Y306424D02*
G03X338100Y310600I-2750J4176D01*
G01X335850Y306424D02*
G03X335400Y305589I550J-835D01*
G01Y305482*
G03X336033Y304552I1000J0*
G01X338423Y302577D02*
G03X336033Y304552I-4223J-2677D01*
G01X338423Y302577D02*
G03X340039Y302477I844J536D01*
G01X348822Y300178D02*
G03X340039Y302477I-4922J-878D01*
G01X348822Y300178D02*
G03X349156Y299595I985J176D01*
G01X350900Y295800D02*
G03X349156Y299595I-5000J-0D01*
G01X350797Y294792D02*
G03X350900Y295800I-4897J1008D01*
G01X350797Y294792D02*
G03X350777Y294590I980J-202D01*
G01X350777*
G03X351070Y293883I1000J0*
G01X354505Y290448*
G03X354993Y290179I707J707*
G01X357330Y288938D02*
G03X354993Y290179I-3430J-3638D01*
G01X357330Y288938D02*
G03X358723Y288958I686J727D01*
G01X362008Y292243*
G03X362301Y292950I-707J707*
G01X362301*
G03X361401Y293945I-1000J-0*
G01X357663Y296265D02*
G03X361401Y293945I4237J2655D01*
G01X357663Y296265D02*
G03X357263Y296628I-847J-531D01*
G01X354500Y301100D02*
G03X357263Y296628I5000J0D01*
G01X360997Y305871D02*
G03X354500Y301100I-1497J-4771D01*
G01X360997Y305871D02*
G03X362297Y306825I300J954D01*
G01X362297*
G03X362080Y307446I-1000J-0*
G01X361000Y310550D02*
G03X362080Y307446I5000J0D01*
G01X363091Y314617D02*
G03X361000Y310550I2909J-4067D01*
G01X363091Y314617D02*
G03X363391Y314958I-582J813D01*
G01X365040Y316769D02*
G03X363391Y314958I2760J-4169D01*
G01X365040Y316769D02*
G03X365488Y317603I-552J834D01*
X365313Y318167I-1000J-0*
G01X364440Y320990D02*
G03X365313Y318167I5000J0D01*
G01X366409Y324967D02*
G03X364440Y320990I3031J-3977D01*
G01X366409Y324967D02*
G03X366736Y325402I-606J795D01*
G01X368323Y327541D02*
G03X366736Y325402I3077J-3941D01*
G01X368323Y327541D02*
G03X368635Y327954I-615J788D01*
G01X370385Y330164D02*
G03X368635Y327954I2885J-4084D01*
G01X370385Y330164D02*
G03X370710Y330549I-577J816D01*
G01X380220Y328390D02*
G03X370710Y330549I-5000J0D01*
G01X378105Y324306D02*
G03X380220Y328390I-2885J4084D01*
G01X378105Y324306D02*
G03X377780Y323921I577J-816D01*
G01X377628Y323630D02*
G03X377780Y323921I-4358J2450D01*
G01X377628Y323629D02*
G03X377500Y323139I872J-490D01*
G01Y313715*
X376826Y312089D02*
G03X377500Y313715I-1626J1626D01*
G01X376826Y312089D02*
X366714Y301977D01*
G03X366421Y301269I707J-708*
G01X366421*
G03X366501Y300878I1000J0*
G01X366900Y298920D02*
G03X366501Y300878I-5000J-0D01*
G01X366008Y296070D02*
G03X366900Y298920I-4108J2850D01*
G01X366008Y296070D02*
G03X365830Y295500I822J-570D01*
X366830Y294500I1000J0*
G01X376843*
G03X377550Y294793I0J1000*
G01X378416Y295659*
G03X378709Y296366I-707J707*
G01X378709*
G03X378708Y296422I-1000J0*
G01X378700Y296700D02*
G03X378708Y296422I5000J-0D01*
G01X378700Y296700D02*
X378700D01*
X383726Y301700D02*
G03X378700Y296700I-26J-5000D01*
G01X383726Y301700D02*
G03X384731Y302700I5J1000D01*
X384393Y303450I-1000J-0*
G01X382700Y307200D02*
G03X384393Y303450I5000J0D01*
G01X388558Y312126D02*
G03X382700Y307200I-858J-4926D01*
G01X388558Y312126D02*
G03X389236Y312249I171J985D01*
X389731Y311769I902J433*
G01X392700Y307200D02*
G03X389731Y311769I-5000J0D01*
G01X387674Y302200D02*
G03X392700Y307200I26J5000D01*
G01X387674Y302200D02*
G03X386669Y301200I-5J-1000D01*
X387007Y300450I1000J0*
G01X388623Y297575D02*
G03X387007Y300450I-4923J-875D01*
G01X388623Y297575D02*
G03X390240Y296975I985J174D01*
G01X398400Y293100D02*
G03X390240Y296975I-5000J0D01*
G01X398241Y291850D02*
G03X398400Y293100I-4841J1250D01*
G01X398241Y291850D02*
G03X398209Y291600I968J-250D01*
G01X398209*
G03X399209Y290600I1000J0*
G01X401140*
G03X401847Y290893I0J1000*
G01X433802Y322848*
G03X434095Y323555I-707J707*
G01X434095*
G03X434044Y323871I-1000J0*
G01X433638Y326378D02*
G03X434044Y323871I7937J-0D01*
G01X435045Y330889D02*
G03X433638Y326378I6530J-4511D01*
G01X435045Y330889D02*
G03X435222Y331458I-823J569D01*
X435023Y332057I-1000J-0*
G01X433638Y336220D02*
G03X435023Y332057I6953J0D01*
G01X433638Y336220D02*
X433638D01*
X434550Y339662D02*
G03X433638Y336220I6041J-3442D01*
G01X434550Y339662D02*
G03X434681Y340157I-869J495D01*
G01X434681*
G03X434550Y340653I-1000J0*
G01X433638Y344094D02*
G03X434550Y340653I6953J0D01*
G01X433638Y344094D02*
X433638D01*
X435023Y348258D02*
G03X433638Y344094I5568J-4164D01*
G01X435023Y348258D02*
G03X435222Y348857I-801J599D01*
X435045Y349426I-1000J0*
G01X433638Y353937D02*
G03X435045Y349426I7937J0D01*
G01X441535Y361874D02*
G03X433638Y353937I40J-7937D01*
G01X441535Y361874D02*
G03X442530Y362874I-5J1000D01*
X442438Y363291I-1000J-0*
G01X441354Y368248D02*
G03X442438Y363291I11874J0D01*
G01X441354Y368248D02*
X441354D01*
X447495Y378646D02*
G03X441354Y368248I5733J-10398D01*
G01X447495Y378646D02*
G03X448013Y379522I-482J876D01*
X447545Y380369I-1000J0*
G01X447331Y380508D02*
G03X447545Y380369I4441J6579D01*
G01X447331Y380508D02*
G03X446212I-559J-829D01*
G01X437331D02*
G03X446212I4441J6579D01*
G01X437331D02*
G03X436212I-559J-829D01*
G01X427331D02*
G03X436212I4441J6579D01*
G01X427331D02*
G03X426212I-559J-829D01*
G01X417331D02*
G03X426212I4441J6579D01*
G01X417331D02*
G03X416212I-559J-829D01*
G01X407331D02*
G03X416212I4441J6579D01*
G01X407331D02*
G03X406212I-559J-829D01*
G01X404594Y379668D02*
G03X406212Y380508I-2822J7419D01*
G01X404594Y379668D02*
G03X403950Y378734I356J-934D01*
G01X403950*
G03X403975Y378512I1000J-0*
G01X404100Y377400D02*
G03X403975Y378512I-5000J0D01*
G01X404100Y377400D02*
X404100D01*
X402964Y374226D02*
G03X404100Y377400I-3864J3174D01*
G01X402964Y374226D02*
G03X402736Y373592I772J-634D01*
G01X402736*
G03X402764Y373360I1000J-0*
G01X402900Y372200D02*
G03X402764Y373360I-5000J-0D01*
G01X401102Y368360D02*
G03X402900Y372200I-3202J3840D01*
G01X401102Y368360D02*
G03X400742Y367592I640J-768D01*
G01X400742*
G03X400744Y367541I1000J-0*
G01X400750Y367290D02*
G03X400744Y367541I-5000J-0D01*
G01X400750Y367290D02*
X400750D01*
X390750D02*
G03X400750I5000J0D01*
G01X390750D02*
X390750D01*
X390892Y368475D02*
G03X390750Y367290I4858J-1185D01*
G01X390892Y368475D02*
G03X390921Y368712I-971J237D01*
X390628Y369419I-1000J0*
G01X389874Y370174*
X389200Y371800D02*
G03X389874Y370174I2300J0D01*
G01X389200Y371800D02*
Y436089D01*
G03X388750Y436924I-1000J0*
G01X386500Y441100D02*
G03X388750Y436924I5000J0D01*
G01X396500Y441100D02*
G03X386500I-5000J0D01*
G01X394250Y436924D02*
G03X396500Y441100I-2750J4176D01*
G01X394250Y436924D02*
G03X393800Y436089I550J-835D01*
G01Y432678*
G03X395580Y432053I1000J0*
G01X406212Y433665D02*
G03X395580Y432053I-4440J-6578D01*
G01X406212Y433665D02*
G03X407331I560J829D01*
G01X416212D02*
G03X407331I-4440J-6578D01*
G01X416212D02*
G03X417331I560J829D01*
G01X426212D02*
G03X417331I-4440J-6578D01*
G01X426212D02*
G03X427331I560J829D01*
G01X436212D02*
G03X427331I-4440J-6578D01*
G01X436212D02*
G03X437331I560J829D01*
G01X446212D02*
G03X437331I-4440J-6578D01*
G01X446212D02*
G03X447331I560J829D01*
G01X459709Y427087D02*
G03X447331Y433665I-7937J-0D01*
G01Y420508D02*
G03X459709Y427087I4441J6579D01*
G01X447331Y420508D02*
G03X446212I-559J-829D01*
G01X437331D02*
G03X446212I4441J6579D01*
G01X437331D02*
G03X436212I-559J-829D01*
G01X427331D02*
G03X436212I4441J6579D01*
G01X427331D02*
G03X426212I-559J-829D01*
G01X418634Y419796D02*
G03X426212Y420508I3138J7291D01*
G01X418634Y419796D02*
G03X417567Y419619I-396J-918D01*
X417354Y419417I3977J-4392*
G01X399528Y401590*
G03X399235Y400883I707J-707*
G01Y395890*
G03X400407Y394905I1000J0*
G01X406212Y393665D02*
G03X400407Y394905I-4440J-6578D01*
G01X406212Y393665D02*
G03X407331I560J829D01*
G01X416212D02*
G03X407331I-4440J-6578D01*
G01X416212D02*
G03X417331I560J829D01*
G01X426212D02*
G03X417331I-4440J-6578D01*
G01X426212D02*
G03X427331I560J829D01*
G01X436212D02*
G03X427331I-4440J-6578D01*
G01X436212D02*
G03X437331I560J829D01*
G01X446212D02*
G03X437331I-4440J-6578D01*
G01X446212D02*
G03X447331I560J829D01*
G01X459709Y387087D02*
G03X447331Y393665I-7937J-0D01*
G01X456981Y381098D02*
G03X459709Y387087I-5209J5989D01*
G01X456981Y381098D02*
G03X456637Y380344I656J-754D01*
X457295Y379404I1000J-0*
G01X465102Y368248D02*
G03X457295Y379404I-11874J0D01*
G01X452427Y356401D02*
G03X465102Y368248I801J11847D01*
G01X452427Y356401D02*
G03X451359Y355403I-68J-998D01*
X451373Y355239I1000J0*
G01X451480Y353937D02*
G03X451373Y355239I-7937J0D01*
G01X451480Y353937D02*
X451480D01*
X450074Y349426D02*
G03X451480Y353937I-6531J4511D01*
G01X450074Y349426D02*
G03X449896Y348857I822J-569D01*
G01X449896*
G03X450096Y348258I1000J0*
G01X451480Y344094D02*
G03X450096Y348258I-6952J0D01*
G01X451480Y344094D02*
X451480D01*
X450569Y340653D02*
G03X451480Y344094I-6041J3441D01*
G01X450569Y340653D02*
G03X450437Y340157I868J-496D01*
G01X450437*
G03X450569Y339662I1000J0*
G01X451480Y336220D02*
G03X450569Y339662I-6952J0D01*
G01X451480Y336220D02*
X451480D01*
X450096Y332057D02*
G03X451480Y336220I-5568J4163D01*
G01X450096Y332057D02*
G03X449896Y331458I800J-599D01*
X450074Y330889I1000J-0*
G01X451480Y326378D02*
G03X450074Y330889I-7937J-0D01*
G01X451373Y325076D02*
G03X451480Y326378I-7830J1302D01*
G01X451373Y325076D02*
G03X451359Y324912I986J-164D01*
X452427Y323914I1000J-0*
G01X465102Y312067D02*
G03X452427Y323914I-11874J-0D01*
G01X441354Y312067D02*
G03X465102I11874J-0D01*
G01X441354D02*
X441354D01*
X442438Y317024D02*
G03X441354Y312067I10790J-4957D01*
G01X442438Y317024D02*
G03X442530Y317441I-908J417D01*
X441535Y318441I-1000J0*
G01X439068Y318847D02*
G03X441535Y318441I2507J7531D01*
G01X439068Y318847D02*
G03X438045Y318606I-316J-949D01*
G01X408747Y289307*
G03X408454Y288600I707J-707*
G01X408454*
G03X409454Y287600I1000J0*
G01X433552*
G03X434259Y287893I-0J1000*
G01X437779Y291413*
X439613Y292278D02*
G03X437779Y291413I287J-2987D01*
G01X439613Y292278D02*
G03X440385Y292775I-95J995D01*
G01X453457Y289291D02*
G03X440385Y292775I-7000J0D01*
G01X451921Y284916D02*
G03X453457Y289291I-5464J4375D01*
G01X451921Y284916D02*
G03X451702Y284291I781J-625D01*
X451921Y283666I1000J0*
G01X453457Y279291D02*
G03X451921Y283666I-7000J0D01*
G01X452546Y275838D02*
G03X453457Y279291I-6089J3453D01*
G01X452546Y275838D02*
G03X452416Y275345I870J-493D01*
G01X452416*
G03X452624Y274734I1000J0*
G01X453457Y272291D02*
G03X452624Y274734I-4000J0D01*
G01X453457Y272291D02*
Y266291D01*
X450945Y262578D02*
G03X453457Y266291I-1488J3713D01*
G01X450945Y262578D02*
G03X450317Y261650I372J-928D01*
G01X450317*
G03X450610Y260943I1000J0*
G01X452287Y259266*
G03X453728Y259294I707J707*
G01X462400Y255900D02*
G03X453728Y259294I-5000J0D01*
G01X453224Y253150D02*
G03X462400Y255900I4176J2750D01*
G01X453224Y253150D02*
G03X452392Y253600I-835J-550D01*
G01X450774Y254274D02*
G03X452392Y253600I1626J1626D01*
G01X450774Y254274D02*
X442882Y262166D01*
G03X442431Y262425I-707J-707*
G01X439590Y265266D02*
G03X442431Y262425I3867J1025D01*
G01X439590Y265266D02*
G03X439331Y265716I-966J-257D01*
G01X430492Y274555*
G03X428785Y273848I-707J-707*
X428787Y273789I1000J-0*
G01X428803Y273228D02*
G03X428787Y273789I-9511J0D01*
G01X428803Y273228D02*
X428803D01*
X428096Y269629D02*
G03X428803Y273228I-8804J3599D01*
G01X428096Y269629D02*
G03X428022Y269250I926J-379D01*
X428218Y268654I1000J0*
X428910Y267852I5786J4292*
G01X460817Y235945*
G03X461524Y235653I707J708*
G01X465497*
G03X466553Y235730I0J7203*
X467329Y236333I-146J990*
G01X483092Y239102D02*
G03X467329Y236333I-6992J-6449D01*
G01X483092Y239102D02*
G03X484827Y239780I735J678D01*
G01Y264192*
G03X483104Y264883I-1000J0*
G01X466718Y271457D02*
G03X483104Y264883I9512J0D01*
G01X472890Y280364D02*
G03X466718Y271457I3340J-8907D01*
G01X472890Y280364D02*
G03X473539Y281300I-351J936D01*
X472890Y282236I-1000J0*
G01X466718Y291143D02*
G03X472890Y282236I9512J-0D01*
G01X483104Y297717D02*
G03X466718Y291143I-6874J-6574D01*
G01X483104Y297717D02*
G03X484827Y298408I723J691D01*
G01Y434946*
G03X483536Y435903I-1000J-0*
G01X478047Y436511D02*
G03X483536Y435903I3453J6089D01*
G01X478047Y436511D02*
G03X476943Y436433I-493J-870D01*
G01X474500Y435600D02*
G03X476943Y436433I0J4000D01*
G01X474500Y435600D02*
X468500D01*
X464500Y439600D02*
G03X468500Y435600I4000J0D01*
G01X464500Y439600D02*
Y445600D01*
X467179Y449376D02*
G03X464500Y445600I1321J-3776D01*
G01X467179Y449376D02*
G03X467849Y450320I-330J944D01*
X467039Y451301I-1000J-0*
G01X462990Y456210D02*
G03X467039Y451301I5000J0D01*
G01X466056Y460821D02*
G03X462990Y456210I1934J-4611D01*
G01X466056Y460821D02*
G03X466669Y461743I-387J922D01*
X466231Y462570I-1000J-0*
G01X460173Y474016D02*
G03X466231Y462570I13843J-0D01*
G01X463629Y483166D02*
G03X460173Y474016I10387J-9150D01*
G01X463629Y483166D02*
G03X463878Y483827I-751J661D01*
X462878Y484827I-1000J-0*
G01X403115*
G03X402115Y483827I0J-1000*
G01X402115*
G03X402163Y483522I1000J-0*
G01X402400Y482000D02*
G03X402163Y483522I-5000J-0D01*
G01X392400Y482000D02*
G03X402400I5000J0D01*
G01X392637Y483522D02*
G03X392400Y482000I4763J-1522D01*
G01X392637Y483522D02*
G03X392685Y483827I-952J305D01*
G01X392685*
G03X391685Y484827I-1000J-0*
G01X360943*
G03X359943Y483827I0J-1000*
X359957Y483664I1000J-0*
G01X360102Y481890D02*
G03X359957Y483664I-10890J-0D01*
G01X360102Y481890D02*
X360102D01*
X338323D02*
G03X360102I10889J-0D01*
G01X338468Y483664D02*
G03X338323Y481890I10744J-1774D01*
G01X338468Y483664D02*
G03X338481Y483827I-987J163D01*
X337481Y484827I-1000J-0*
G01X327283*
G03X326283Y483830I0J-1000*
G01X313906Y477280D02*
G03X326283Y483830I4440J6578D01*
G01X313906Y477280D02*
G03X312787I-560J-829D01*
G01X303906D02*
G03X312787I4440J6578D01*
G01X303906D02*
G03X302787I-560J-829D01*
G01X293906D02*
G03X302787I4440J6578D01*
G01X293906D02*
G03X292787I-560J-829D01*
G01X280410Y483830D02*
G03X292787Y477280I7936J28D01*
G01X280410Y483830D02*
G03X279410Y484827I-1000J-3D01*
G01X269211*
G03X268211Y483827I0J-1000*
X268225Y483664I1000J-0*
G01X268370Y481890D02*
G03X268225Y483664I-10890J-0D01*
G01X246591Y481890D02*
G03X268370I10889J-0D01*
G01X246736Y483664D02*
G03X246591Y481890I10744J-1774D01*
G01X246736Y483664D02*
G03X246749Y483827I-987J163D01*
X245749Y484827I-1000J-0*
G01X130823*
G03X129823Y483827I-0J-1000*
X130072Y483166I1000J-0*
G01X133528Y474016D02*
G03X130072Y483166I-13843J-0D01*
G01X110535Y463629D02*
G03X133528Y474016I9150J10387D01*
G01X110535Y463629D02*
G03X108874Y462878I-661J-751D01*
G01Y419368*
X108874D02*
G03X109874Y418368I1000J0D01*
G01X109874D02*
X113114D01*
X119673Y411809D02*
G03X113114Y418368I-6559J0D01*
G01X119624Y411009D02*
G03X119673Y411809I-6510J800D01*
G01X119624Y411009D02*
G03X119617Y410887I993J-122D01*
G01X119617*
G03X120361Y409920I1000J-0*
G01X122541Y407087D02*
G03X120361Y409920I-2931J-0D01*
G01X117146Y405499D02*
G03X122541Y407087I2464J1588D01*
G01X117146Y405499D02*
G03X115884Y405864I-840J-542D01*
G01X113114Y405250D02*
G03X115884Y405864I0J6559D01*
G01X113114Y405250D02*
X109874D01*
G03X108874Y404250I0J-1000*
G01Y394172*
G03X109874Y393172I1000J-0*
G01X113115*
X115882Y392559D02*
G03X113115Y393172I-2767J-5946D01*
G01X115882Y392559D02*
G03X117145Y392925I422J907D01*
G01X122541Y391339D02*
G03X117145Y392925I-2931J-0D01*
G01X120361Y388505D02*
G03X122541Y391339I-751J2834D01*
G01X120361Y388505D02*
G03X119617Y387539I256J-966D01*
G01X119617*
X119617D02*
G03X119624Y387416I1000J-0D01*
G01X119674Y386613D02*
G03X119624Y387416I-6559J-0D01*
G01X113115Y380054D02*
G03X119674Y386613I-0J6559D01*
G01X113115Y380054D02*
X109874D01*
G03X108874Y379054I0J-1000*
G01Y328321*
G03X110645Y327684I1000J0*
G01X119500Y324500D02*
G03X110645Y327684I-5000J0D01*
G01Y321316D02*
G03X119500Y324500I3855J3184D01*
G01X110645Y321316D02*
G03X108874Y320679I-771J-637D01*
G01Y269142*
G03X110245Y268213I1000J-0*
G01X121126Y260843D02*
G03X110245Y268213I-7937J-0D01*
G01X119814Y256472D02*
G03X121126Y260843I-6625J4371D01*
G01X119814Y256472D02*
G03X119649Y255921I835J-551D01*
G01X119649*
G03X119814Y255371I1000J0*
G01X121126Y251000D02*
G03X119814Y255371I-7937J-0D01*
G01Y246629D02*
G03X121126Y251000I-6625J4371D01*
G01X119814Y246629D02*
G03X119649Y246079I835J-550D01*
G01X119649*
G03X119814Y245528I1000J-0*
G01X121126Y241157D02*
G03X119814Y245528I-7937J0D01*
G01X110245Y233787D02*
G03X121126Y241157I2944J7370D01*
G01X110245Y233787D02*
G03X108874Y232858I-371J-929D01*
G01Y223142*
G03X110253Y222216I1000J-0*
G01X117136Y217962D02*
G03X110253Y222216I-4986J-372D01*
G01X117136Y217962D02*
G03X118328Y217055I997J74D01*
G01X126638Y210236D02*
G03X118329Y217055I-6953J0D01*
G01X116243Y204195D02*
G03X126638Y210236I3442J6041D01*
G01X116243Y204195D02*
G03X115253I-495J-869D01*
G01X110118Y203493D02*
G03X115253Y204195I1693J6743D01*
G01X110118Y203493D02*
G03X108874Y202523I-244J-970D01*
G01Y194327*
G03X110118Y193358I1000J0*
G01X115253Y192655D02*
G03X110118Y193358I-3442J-6041D01*
G01X115253Y192655D02*
G03X116243I495J869D01*
G01X126638Y186614D02*
G03X116243Y192655I-6953J0D01*
G01X118489Y179765D02*
G03X126638Y186614I1196J6849D01*
G01X118489Y179765D02*
G03X117317Y178780I-172J-985D01*
G01X117317*
G03X117324Y178660I1000J0*
G01X117360Y178060D02*
G03X117324Y178660I-5000J0D01*
G01X117360Y178060D02*
X117360D01*
X110288Y173509D02*
G03X117360Y178060I2072J4551D01*
G01X110288Y173509D02*
G03X108874Y172599I-414J-910D01*
G01Y130823*
X156942Y272500D02*
G03X157942Y271500I1000J0D01*
G01X200143*
G03X200850Y271793I0J1000*
G01X214350Y285293*
G03X214643Y286000I-707J707*
G01X214643*
G03X213643Y287000I-1000J0*
G01X200619*
G03X199619Y286000I0J-1000*
X199627Y285880I1000J0*
G01X199677Y285039D02*
G03X199627Y285880I-7000J0D01*
G01X199677Y285039D02*
X199677D01*
X189224Y278950D02*
G03X199677Y285039I3453J6089D01*
G01X189224Y278950D02*
G03X188120Y278872I-493J-870D01*
G01X185677Y278039D02*
G03X188120Y278872I0J4000D01*
G01X185677Y278039D02*
X179677D01*
X175701Y281608D02*
G03X179677Y278039I3976J431D01*
G01X175701Y281608D02*
G03X174706Y282500I-995J-108D01*
G01X163319*
X161361Y283227D02*
G03X163319Y282500I1958J2273D01*
G01X161361Y283227D02*
G03X160391Y283418I-653J-758D01*
G01X159241Y283126D02*
G03X160391Y283418I-1367J7819D01*
G01X159241Y283126D02*
G03X158413Y282141I172J-985D01*
G01X158413*
G03X158502Y281728I1000J0*
G01X159211Y278450D02*
G03X158502Y281728I-7937J0D01*
G01X159211Y278450D02*
X159211D01*
X157196Y273166D02*
G03X159211Y278450I-5922J5284D01*
G01X157196Y273166D02*
G03X156942Y272500I746J-666D01*
G01X156942*
X272213Y356600D02*
G03X273213Y355600I1000J0D01*
G01X274686*
G03X275393Y355893I-0J1000*
G01X279570Y360071*
G03X279863Y360778I-707J707*
G01X279863*
G03X279812Y361093I-1000J-0*
G01X279406Y363600D02*
G03X279812Y361093I7937J0D01*
G01X279451Y364450D02*
G03X279406Y363600I7892J-850D01*
G01X279451Y364450D02*
G03X279457Y364557I-994J107D01*
G01X279457*
G03X278350Y365551I-1000J0*
G01X276651D02*
G03X278350I849J7892D01*
G01X276651D02*
G03X275543Y364557I-108J-994D01*
G01X275543*
G03X275549Y364450I1000J0*
G01X275595Y363600D02*
G03X275549Y364450I-7937J0D01*
G01X275595Y363600D02*
X275595D01*
X272592Y357383D02*
G03X275595Y363600I-4934J6217D01*
G01X272592Y357383D02*
G03X272213Y356600I621J-783D01*
G01X272213*
X362798Y260110D02*
G03X363759Y259111I1000J0D01*
G01X372157Y253286D02*
G03X363759Y259111I-8771J-3680D01*
G01X372157Y253286D02*
G03X372932Y252684I922J387D01*
X373988Y252606I1056J7125*
G01X417087*
X419208Y251728D02*
G03X417087Y252606I-2121J-2122D01*
G01X419208Y251728D02*
X438355Y232581D01*
G03X439986Y232907I707J707*
G01X448738Y236854D02*
G03X439986Y232907I-2281J-6618D01*
G01X448738Y236854D02*
G03X450063Y237800I325J946D01*
G01X450063*
G03X449771Y238507I-1000J-0*
G01X424668Y263610*
G03X423866Y264302I-5094J-5094*
X422891Y264424I-596J-804*
G01X409780Y273228D02*
G03X422891Y264424I9512J0D01*
G01X409780Y273228D02*
X409780D01*
X410223Y276098D02*
G03X409780Y273228I9069J-2870D01*
G01X410223Y276098D02*
G03X410270Y276400I-953J302D01*
X409270Y277400I-1000J0*
G01X380660*
G03X379660Y276400I0J-1000*
X379713Y276080I1000J0*
G01X380181Y273228D02*
G03X379713Y276080I-8921J0D01*
G01X380181Y273228D02*
X380181D01*
X368032Y264911D02*
G03X380181Y273228I3228J8317D01*
G01X368032Y264911D02*
G03X366983Y264706I-362J-932D01*
X366865Y264591I4031J-4264*
G01X363091Y260817*
G03X362798Y260110I707J-707*
G01X362798*
X368487Y187300D02*
G03X368907Y186486I1000J0D01*
G01X372157Y182420D02*
G03X368907Y186486I-8771J-3680D01*
G01X372157Y182420D02*
G03X372932Y181818I922J387D01*
X373988Y181740I1056J7125*
G01X436772*
X438468Y181214D02*
G03X436772Y181740I-1696J-2474D01*
G01X438468Y181214D02*
G03X439962Y181666I566J825D01*
G01X453457Y179055D02*
G03X439962Y181666I-7000J0D01*
G01X451921Y174680D02*
G03X453457Y179055I-5464J4375D01*
G01X451921Y174680D02*
G03X451702Y174055I781J-625D01*
X451921Y173430I1000J0*
G01X453457Y169055D02*
G03X451921Y173430I-7000J0D01*
G01X452546Y165602D02*
G03X453457Y169055I-6089J3453D01*
G01X452546Y165602D02*
G03X452416Y165109I870J-493D01*
G01X452416*
G03X452624Y164498I1000J-0*
G01X453457Y162055D02*
G03X452624Y164498I-4000J0D01*
G01X453457Y162055D02*
Y156055D01*
X453141Y154499D02*
G03X453457Y156055I-3684J1556D01*
G01X453141Y154499D02*
G03X453063Y154110I922J-389D01*
X454236Y153125I1000J-0*
G01X460100Y148200D02*
G03X454236Y153125I-5000J0D01*
G01X450924Y145450D02*
G03X460100Y148200I4176J2750D01*
G01X450924Y145450D02*
G03X450089Y145900I-835J-550D01*
G01X421759*
G03X421524Y145872I-0J-1000*
G01X417059D02*
G03X421524I2233J9246D01*
G01X417059D02*
G03X416824Y145900I-235J-972D01*
G01X402781*
G03X401781Y144900I-0J-1000*
G01X401781*
G03X402074Y144193I1000J-0*
G01X429211Y117056*
G03X430742Y117197I707J707*
G01X448094Y111811D02*
G03X430742Y117197I-9511J0D01*
G01X448094Y111811D02*
X448094D01*
X447932Y110058D02*
G03X448094Y111811I-9349J1753D01*
G01X447932Y110058D02*
G03X447914Y109874I982J-184D01*
G01X447914*
G03X448914Y108874I1000J0*
G01X462878*
G03X463878Y109874I0J1000*
X463629Y110535I-1000J0*
G01X460173Y119685D02*
G03X463629Y110535I13843J0D01*
G01X483166Y130072D02*
G03X460173Y119685I-9150J-10387D01*
G01X483166Y130072D02*
G03X484827Y130823I661J751D01*
G01Y146017*
G03X483051Y146647I-1000J-0*
G01X474170Y149800D02*
G03X483051Y146647I5000J0D01*
G01X474250Y150692D02*
G03X474170Y149800I4920J-892D01*
G01X474250Y150692D02*
G03X474266Y150871I-984J179D01*
G01X474266*
G03X473551Y151830I-1000J-0*
G01X466748Y160947D02*
G03X473551Y151830I9512J0D01*
G01X472920Y169854D02*
G03X466748Y160947I3340J-8907D01*
G01X472920Y169854D02*
G03X473569Y170790I-351J936D01*
X472920Y171726I-1000J0*
G01X466748Y180633D02*
G03X472920Y171726I9512J-0D01*
G01X472580Y189404D02*
G03X466748Y180633I3680J-8771D01*
G01X472580Y189404D02*
G03X473182Y190179I-387J922D01*
X473260Y191235I-7125J1056*
G01Y192565*
G03X472967Y193272I-1000J0*
G01X467170Y199069*
G03X466463Y199362I-707J-707*
G01X463138*
G03X462138Y198362I-0J-1000*
X462148Y198218I1000J0*
G01X462200Y197500D02*
G03X462148Y198218I-5000J0D01*
G01X462200Y197500D02*
X462200D01*
X456192Y192603D02*
G03X462200Y197500I1008J4897D01*
G01X456192Y192603D02*
G03X455283Y192330I-202J-980D01*
G01X451926Y188974*
X450300Y188300D02*
G03X451926Y188974I0J2300D01*
G01X450300Y188300D02*
X369487D01*
G03X368487Y187300I0J-1000*
G01X469118Y450600D02*
G03X470118Y449600I1000J0D01*
G01X474500*
X476943Y448767D02*
G03X474500Y449600I-2443J-3167D01*
G01X476943Y448767D02*
G03X478047Y448689I611J792D01*
G01X483536Y449297D02*
G03X478047Y448689I-2036J-6697D01*
G01X483536Y449297D02*
G03X484827Y450254I291J957D01*
G01Y462878*
G03X483166Y463629I-1000J0*
G01X473250Y460194D02*
G03X483166Y463629I766J13822D01*
G01X473250Y460194D02*
G03X472194Y459196I-56J-998D01*
X472327Y458698I1000J-0*
G01X472990Y456210D02*
G03X472327Y458698I-5000J0D01*
G01X469763Y451535D02*
G03X472990Y456210I-1773J4675D01*
G01X469763Y451535D02*
G03X469118Y450600I355J-935D01*
G01X472305Y202834D02*
G03X472598Y202127I1000J0D01*
G01X478381Y196343*
X479260Y194222D02*
G03X478381Y196343I-3000J0D01*
G01X479260Y194222D02*
Y191235D01*
G03X479338Y190179I7203J0*
X479940Y189404I989J147*
G01X483107Y187235D02*
G03X479940Y189404I-6847J-6602D01*
G01X483107Y187235D02*
G03X484827Y187929I720J694D01*
G01Y205840*
G03X483092Y206518I-1000J0*
G01X473571Y203798D02*
G03X483092Y206518I2529J9169D01*
G01X473571Y203798D02*
G03X472305Y202834I-266J-964D01*
G01X472305*
X478921Y281300D02*
G03X479570Y280364I1000J0D01*
G01X483104Y278032D02*
G03X479570Y280364I-6874J-6575D01*
G01X483104Y278032D02*
G03X484827Y278723I723J691D01*
G01Y283877*
G03X483104Y284568I-1000J0*
G01X479570Y282236D02*
G03X483104Y284568I-3340J8907D01*
G01X479570Y282236D02*
G03X478921Y281300I351J-936D01*
G01X478951Y170790D02*
G03X479600Y169854I1000J0D01*
G01X483107Y167550D02*
G03X479600Y169854I-6847J-6603D01*
G01X483107Y167550D02*
G03X484827Y168244I720J694D01*
G01Y173336*
G03X483107Y174030I-1000J-0*
G01X479600Y171726D02*
G03X483107Y174030I-3340J8907D01*
G01X479600Y171726D02*
G03X478951Y170790I351J-936D01*
G01X482797Y153620D02*
G03X483026Y152983I1000J-0D01*
G01X483051Y152953D02*
G03X483026Y152983I-3881J-3153D01*
G01X483051Y152953D02*
G03X484827Y153583I776J630D01*
G01Y153651*
G03X483107Y154345I-1000J-0*
G01X483080Y154317D02*
G03X483107Y154345I-6820J6631D01*
G01X483080Y154317D02*
G03X482797Y153620I717J-697D01*
G01X457819Y466142D02*
G03X439976I-8921J-0D01*
X457819I8922J-0*
G01X427819D02*
G03X409976I-8921J-0D01*
X427819I8922J-0*
G01X428803Y225984D02*
G03X409780I-9511J0D01*
X428803I9512J0*
G01X399080Y232580D02*
G03X389080I-5000J0D01*
X399080I5000J0*
G01X384786Y320472D02*
X384786D01*
X385698Y323914D02*
G03X384786Y320472I6041J-3442D01*
G01X385698Y323914D02*
G03X385829Y324409I-869J495D01*
G01X385829*
G03X385698Y324904I-1000J0*
G01X384786Y328346D02*
G03X385698Y324905I6953J0D01*
G01X384786Y328346D02*
X384786D01*
X387456Y333824D02*
G03X384786Y328346I4283J-5478D01*
G01X387456Y333824D02*
G03X387840Y334611I-616J787D01*
X387817Y334826I-1000J0*
G01X387700Y335900D02*
G03X387817Y334826I5000J0D01*
G01X397700Y335900D02*
G03X387700I-5000J0D01*
G01X397159Y333637D02*
G03X397700Y335900I-4459J2263D01*
G01X397159Y333637D02*
G03X397050Y333185I891J-452D01*
X397257Y332576I1000J-0*
G01X398691Y328346D02*
G03X397257Y332576I-6952J0D01*
G01X398691Y328346D02*
X398691D01*
X397780Y324904D02*
G03X398691Y328346I-6041J3442D01*
G01X397780Y324904D02*
G03X397648Y324409I868J-495D01*
G01X397648*
G03X397780Y323914I1000J0*
G01X398691Y320472D02*
G03X397780Y323914I-6952J0D01*
G01X398691Y320472D02*
X398691D01*
X390339Y313662D02*
G03X398691Y320472I1400J6810D01*
G01X390339Y313662D02*
G03X389630Y313544I-201J-980D01*
X389108Y314037I-901J-433*
G01X384786Y320472D02*
G03X389108Y314037I6953J0D01*
G01X380500Y359500D02*
G03X370500I-5000J0D01*
X380500I5000J0*
G01X362800Y355600D02*
G03X352800I-5000J0D01*
X362800I5000J0*
G01X359010Y446970D02*
G03X349010I-5000J0D01*
X359010I5000J0*
G01X358900Y425100D02*
G03X348900I-5000J0D01*
X358900I5000J0*
G01X360102Y388189D02*
G03X338323I-10889J-0D01*
X360102I10890J-0*
G01X341992Y435000D02*
G03X333767I-4112J0D01*
X341992I4113J0*
G01X341600Y360000D02*
G03X331600I-5000J0D01*
X341600I5000J0*
G01X326100Y381300D02*
G03X316100I-5000J0D01*
X326100I5000J0*
G01X320500Y359500D02*
G03X310500I-5000J0D01*
X320500I5000J0*
G01X312464Y435000D02*
G03X304240I-4112J0D01*
X312464I4112J0*
G01X309400Y175100D02*
G03X299400I-5000J0D01*
X309400I5000J0*
G01X309200Y190500D02*
G03X299200I-5000J0D01*
X309200I5000J0*
G01X298856Y156407D02*
G03X295800Y151800I1944J-4607D01*
G01X298856Y156407D02*
G03X299468Y157328I-388J921D01*
X299423Y157623I-1000J0*
G01X299200Y159100D02*
G03X299423Y157623I5000J0D01*
G01X309200Y159100D02*
G03X299200I-5000J0D01*
G01X306144Y154493D02*
G03X309200Y159100I-1944J4607D01*
G01X306144Y154493D02*
G03X305532Y153572I388J-921D01*
X305577Y153277I1000J-0*
G01X305800Y151800D02*
G03X305577Y153277I-5000J-0D01*
G01X295800Y151800D02*
G03X305800I5000J0D01*
G01X305560Y355280D02*
G03X295560I-5000J0D01*
X305560I5000J0*
G01X300850Y326142D02*
G03X284976I-7937J-0D01*
X300850I7937J-0*
G01Y306929D02*
G03X284976I-7937J0D01*
X300850I7937J0*
G01X293567Y273228D02*
G03X275724I-8922J0D01*
X293567I8921J0*
G01X271000Y116700D02*
G03X261000I-5000J0D01*
X271000I5000J0*
G01X263206Y450167D02*
G03X255600Y445900I-2606J-4267D01*
G01X263206Y450167D02*
G03X264323Y450217I521J853D01*
G01X272300Y446200D02*
G03X264323Y450217I-5000J0D01*
G01X264694Y441933D02*
G03X272300Y446200I2606J4267D01*
G01X264694Y441933D02*
G03X263577Y441883I-521J-853D01*
G01X255600Y445900D02*
G03X263577Y441883I5000J0D01*
G01X263405Y436619D02*
G03X253010Y430578I-3442J-6041D01*
G01X263405Y436619D02*
G03X264395I495J869D01*
G01X274790Y430578D02*
G03X264395Y436619I-6953J-0D01*
G01X274688Y429392D02*
G03X274790Y430578I-6851J1186D01*
G01X274688Y429392D02*
G03X274673Y429221I985J-171D01*
G01X274673*
G03X276311Y428451I1000J0*
G01X284500Y424600D02*
G03X276311Y428451I-5000J0D01*
G01X274500Y424600D02*
G03X284500I5000J0D01*
G01X274512Y424940D02*
G03X274500Y424600I4988J-340D01*
G01X274512Y424940D02*
G03X274514Y425008I-998J68D01*
X272800Y425709I-1000J0*
G01X264395Y424537D02*
G03X272800Y425709I3442J6041D01*
G01X264395Y424537D02*
G03X263405I-495J-869D01*
G01X253010Y430578D02*
G03X263405Y424537I6953J-0D01*
G01X268370Y388189D02*
G03X246591I-10890J-0D01*
X268370I10889J-0*
G01X253027Y201633D02*
G03X244300Y198300I-3727J-3333D01*
G01X253027Y201633D02*
G03X253772Y201300I745J667D01*
G01X278815*
G03X279529Y201600I0J1000*
G01X279767Y201827D02*
G03X279529Y201600I3333J-3727D01*
G01X279767Y201827D02*
G03X280100Y202572I-667J745D01*
G01Y216900*
G03X280064Y217856I-12573J-0*
X279629Y218607I-998J-76*
G01X275724Y225984D02*
G03X279629Y218607I8921J0D01*
G01X293567Y225984D02*
G03X275724I-8922J0D01*
G01X286853Y217340D02*
G03X293567Y225984I-2208J8644D01*
G01X286853Y217340D02*
G03X286100Y216371I247J-969D01*
G01Y202572*
G03X286433Y201827I1000J0*
G01X288100Y198100D02*
G03X286433Y201827I-5000J0D01*
G01X279231Y194933D02*
G03X288100Y198100I3869J3167D01*
G01X279231Y194933D02*
G03X278457Y195300I-774J-633D01*
G01X253772*
G03X253027Y194967I0J-1000*
G01X244300Y198300D02*
G03X253027Y194967I5000J0D01*
G01X246800Y226000D02*
G03X236800I-5000J0D01*
X246800I5000J0*
G01X230000Y384000D02*
G03X220000I-5000J0D01*
X230000I5000J0*
G01X227000Y396000D02*
G03X217000I-5000J0D01*
X227000I5000J0*
G01X219500Y199000D02*
G03X209500I-5000J0D01*
X219500I5000J0*
G01X206000D02*
G03X196000I-5000J0D01*
X206000I5000J0*
G01X188773Y347333D02*
G03X187500Y344000I3727J-3333D01*
G01X188773Y347333D02*
G03X189028Y348000I-745J667D01*
X188773Y348667I-1000J0*
G01X187500Y352000D02*
G03X188773Y348667I5000J0D01*
G01X197500Y352000D02*
G03X187500I-5000J0D01*
G01X196227Y348667D02*
G03X197500Y352000I-3727J3333D01*
G01X196227Y348667D02*
G03X195972Y348000I745J-667D01*
X196227Y347333I1000J0*
G01X197500Y344000D02*
G03X196227Y347333I-5000J0D01*
G01X187500Y344000D02*
G03X197500I5000J0D01*
G01X174032Y219229D02*
G03X159976Y214173I-6119J-5056D01*
G01X174032Y219229D02*
G03X175574I771J636D01*
G01X189630Y214173D02*
G03X175574Y219229I-7937J0D01*
G01Y209118D02*
G03X189630Y214173I6119J5055D01*
G01X175574Y209118D02*
G03X174032I-771J-637D01*
G01X159976Y214173D02*
G03X174032Y209118I7937J0D01*
G01X170371Y188718D02*
G03X159976Y182677I-3442J-6041D01*
G01X170371Y188718D02*
G03X171361I495J869D01*
G01X181756Y182677D02*
G03X171361Y188718I-6953J0D01*
G01Y176636D02*
G03X181756Y182677I3442J6041D01*
G01X171361Y176636D02*
G03X170371I-495J-869D01*
G01X159976Y182677D02*
G03X170371Y176636I6953J0D01*
G01Y165096D02*
G03X159976Y159055I-3442J-6041D01*
G01X170371Y165096D02*
G03X171361I495J869D01*
G01X181756Y159055D02*
G03X171361Y165096I-6953J0D01*
G01X178654Y153266D02*
G03X181756Y159055I-3851J5789D01*
G01X178654Y153266D02*
G03X178208Y152433I554J-833D01*
G01X178208*
G03X178501Y151726I1000J0*
G01X187734Y142493*
G03X188441Y142200I707J707*
G01X275928*
G03X276673Y142533I-0J1000*
G01X285400Y139200D02*
G03X276673Y142533I-5000J0D01*
G01Y135867D02*
G03X285400Y139200I3727J3333D01*
G01X276673Y135867D02*
G03X275928Y136200I-745J-667D01*
G01X186784*
X184663Y137079D02*
G03X186784Y136200I2121J2121D01*
G01X184663Y137079D02*
X169668Y152073D01*
G03X168706Y152333I-707J-707*
G01X159976Y159055D02*
G03X168706Y152333I6953J0D01*
G01X174866Y357638D02*
G03X158992I-7937J-0D01*
X174866I7937J-0*
G01Y338425D02*
G03X158992I-7937J0D01*
X174866I7937J0*
G01X139500Y148000D02*
G03X129500I-5000J0D01*
X139500I5000J0*
G01X125528Y290945D02*
Y302756D01*
X141402D02*
G03X125528I-7937J-0D01*
G01X141402D02*
Y290945D01*
X140671Y287619D02*
G03X141402Y290945I-7206J3326D01*
G01X140671Y287619D02*
G03X140579Y287200I908J-419D01*
X141783Y286221I1000J-0*
G01X143400Y286387D02*
G03X141783Y286221I0J-7937D01*
G01X143400Y286387D02*
X149676D01*
G03X150676Y287387I-0J1000*
G01X150676*
G03X150593Y287785I-1000J0*
G01X149937Y290945D02*
G03X150593Y287785I7937J-0D01*
G01X149937Y290945D02*
Y302756D01*
X165811D02*
G03X149937I-7937J-0D01*
G01X165811D02*
Y290945D01*
X165707Y289662D02*
G03X165811Y290945I-7833J1283D01*
G01X165707Y289662D02*
G03X165693Y289500I986J-162D01*
G01X165693*
G03X166693Y288500I1000J0*
G01X174895*
G03X175852Y289208I0J1000*
G01X179677Y292039D02*
G03X175852Y289208I0J-4000D01*
G01X179677Y292039D02*
X185037D01*
G03X185687Y292280I0J1000*
G01X187638Y293000D02*
G03X185687Y292280I-0J-3000D01*
G01X187638Y293000D02*
X214943D01*
G03X215650Y293293I0J1000*
G01X216207Y293850*
G03X216500Y294557I-707J707*
G01Y295072*
G03X216000Y295938I-1000J-0*
G01X215125Y296536D02*
G03X216000Y295938I4375J5464D01*
G01X215125Y296536D02*
G03X213875I-625J-781D01*
G01X202500Y302000D02*
G03X213875Y296536I7000J0D01*
G01X202739Y303812D02*
G03X202500Y302000I6761J-1812D01*
G01X202739Y303812D02*
G03X202773Y304071I-966J259D01*
G01X202773*
G03X202480Y304778I-1000J-0*
G01X191550Y315707*
G03X190843Y316000I-707J-707*
G01X146472*
G03X145727Y315667I0J-1000*
G01X137000Y319000D02*
G03X145727Y315667I5000J0D01*
G01X140757Y323843D02*
G03X137000Y319000I1243J-4843D01*
G01X140757Y323843D02*
G03X141507Y324760I-249J969D01*
G01X142798Y327861D02*
G03X141507Y324760I3702J-3361D01*
G01X142798Y327861D02*
G03X143058Y328533I-740J672D01*
X142205Y329523I-1000J0*
G01X137939Y334469D02*
G03X142205Y329523I5000J-0D01*
G01X145736Y338613D02*
G03X137939Y334469I-2797J-4144D01*
G01X145736Y338613D02*
G03X146788Y338572I559J829D01*
G01X154250Y334220D02*
G03X146788Y338572I-5000J0D01*
G01X150701Y329435D02*
G03X154250Y334220I-1451J4785D01*
G01X150701Y329435D02*
G03X149991Y328478I290J-957D01*
X150243Y327815I1000J0*
G01X151500Y324500D02*
G03X150243Y327815I-5000J0D01*
G01X151341Y323250D02*
G03X151500Y324500I-4841J1250D01*
G01X151341Y323250D02*
G03X151309Y323000I968J-250D01*
G01X151309*
G03X152309Y322000I1000J0*
G01X192500*
X194621Y321121D02*
G03X192500Y322000I-2121J-2121D01*
G01X194621Y321121D02*
X201398Y314345D01*
G03X203029Y314670I707J707*
G01X205419Y317687D02*
G03X203029Y314670I4081J-5687D01*
G01X205419Y317688D02*
G03X205836Y318500I-583J812D01*
X205419Y319312I-1000J-0*
G01X202500Y325000D02*
G03X205419Y319313I7000J0D01*
G01X204036Y329375D02*
G03X202500Y325000I5464J-4375D01*
G01X204036Y329375D02*
G03X204255Y330000I-781J625D01*
X204036Y330625I-1000J0*
G01X202500Y335000D02*
G03X204036Y330625I7000J0D01*
G01X206111Y341125D02*
G03X202500Y335000I3389J-6125D01*
G01X206111Y341125D02*
G03X206627Y342000I-484J875D01*
X206111Y342875I-1000J0*
G01X202500Y349000D02*
G03X206111Y342875I7000J0D01*
G01X205419Y354687D02*
G03X202500Y349000I4081J-5687D01*
G01X205419Y354687D02*
G03X205836Y355500I-583J813D01*
X205419Y356312I-1000J-0*
G01X202500Y362000D02*
G03X205419Y356312I7000J-0D01*
G01X202500Y362000D02*
X202500D01*
X213875Y367464D02*
G03X202500Y362000I-4375J-5464D01*
G01X213875Y367464D02*
G03X215125I625J781D01*
G01X222953Y368089D02*
G03X215125Y367464I-3453J-6089D01*
G01X222953Y368089D02*
G03X224057Y368167I493J870D01*
G01X226500Y369000D02*
G03X224057Y368167I0J-4000D01*
G01X226500Y369000D02*
X232500D01*
X236500Y365000D02*
G03X232500Y369000I-4000J0D01*
G01X236500Y365000D02*
Y359000D01*
X235357Y356200D02*
G03X236500Y359000I-2857J2800D01*
G01X235357Y356200D02*
G03X235071Y355500I714J-700D01*
X235357Y354800I1000J0*
G01X236500Y352000D02*
G03X235357Y354800I-4000J0D01*
G01X236500Y352000D02*
Y347667D01*
G03X238207Y346960I1000J-0*
G01X238674Y347426*
X240300Y348100D02*
G03X238674Y347426I0J-2300D01*
G01X240300Y348100D02*
X244343D01*
G03X245343Y349100I0J1000*
X245286Y349433I-1000J-0*
G01X245000Y351100D02*
G03X245286Y349433I5000J0D01*
G01X251998Y355683D02*
G03X245000Y351100I-1998J-4583D01*
G01X251998Y355683D02*
G03X252398Y355600I400J917D01*
G01X262102*
G03X263102Y356600I0J1000*
G01X263102*
G03X262724Y357383I-1000J0*
G01X259721Y363600D02*
G03X262724Y357383I7937J0D01*
G01X268508Y371492D02*
G03X259721Y363600I-850J-7892D01*
G01X268508Y371492D02*
G03X269615Y372486I107J994D01*
G01X269615*
G03X269609Y372593I-1000J-0*
G01X269563Y373443D02*
G03X269609Y372593I7937J-0D01*
G01X269563Y373443D02*
X269563D01*
X282689Y379449D02*
G03X269563Y373443I-5189J-6006D01*
G01X282689Y379449D02*
G03X284343Y380206I654J757D01*
G01Y390343*
X285222Y392464D02*
G03X284343Y390343I2121J-2121D01*
G01X285222Y392464D02*
X285816Y393059D01*
G03X286109Y393766I-707J707*
G01X286109*
G03X286108Y393822I-1000J0*
G01X286100Y394100D02*
G03X286108Y393822I5000J-0D01*
G01X286100Y394100D02*
X286100D01*
X286421Y395862D02*
G03X286100Y394100I4679J-1762D01*
G01X286421Y395862D02*
G03X286485Y396214I-936J352D01*
X285554Y397212I-1000J0*
G01X280900Y402200D02*
G03X285554Y397212I5000J0D01*
G01X290900Y402200D02*
G03X280900I-5000J0D01*
G01X290900D02*
X290900D01*
X290892Y401922D02*
G03X290900Y402200I-4992J278D01*
G01X290892Y401922D02*
G03X290891Y401866I999J-56D01*
G01X290891*
G03X291184Y401159I1000J0*
G01X293221Y399121*
X293699Y398499D02*
G03X293221Y399121I-2599J-1499D01*
G01X293699Y398499D02*
G03X293988Y398182I866J499D01*
G01X296100Y394100D02*
G03X293988Y398182I-5000J-0D01*
G01X291302Y389104D02*
G03X296100Y394100I-202J4996D01*
G01X291302Y389104D02*
G03X290343Y388105I41J-999D01*
G01Y371592*
G03X290895Y370698I1000J0*
G01X295280Y363600D02*
G03X290895Y370698I-7937J0D01*
G01X295280Y363600D02*
X295280D01*
X284836Y356070D02*
G03X295280Y363600I2507J7530D01*
G01X284836Y356070D02*
G03X283813Y355828I-316J-949D01*
G01X278464Y350479*
X277795Y349975D02*
G03X278464Y350479I-1452J2625D01*
G01X277795Y349975D02*
G03X277279Y349100I484J-875D01*
X278279Y348100I1000J0*
G01X339491*
G03X339909Y348192I-0J1000*
G01X344978Y347667D02*
G03X339909Y348192I-2978J-4017D01*
G01X344978Y347667D02*
G03X345421Y347482I595J803D01*
G01X349660Y342540D02*
G03X345421Y347482I-5000J0D01*
G01X341682Y338523D02*
G03X349660Y342540I2978J4017D01*
G01X341682Y338523D02*
G03X341239Y338708I-595J-803D01*
G01X337699Y341100D02*
G03X341239Y338708I4301J2550D01*
G01X337699Y341100D02*
G03X336839Y341590I-860J-510D01*
G01X280224*
G03X279224Y340590I-0J-1000*
X279250Y340363I1000J0*
G01X279380Y339230D02*
G03X279250Y340363I-5000J0D01*
G01X279380Y339230D02*
X279380D01*
X269380D02*
G03X279380I5000J0D01*
G01X269510Y340363D02*
G03X269380Y339230I4870J-1133D01*
G01X269510Y340363D02*
G03X269536Y340590I-974J227D01*
G01X269536*
G03X268536Y341590I-1000J0*
G01X248057*
G03X247350Y341297I-0J-1000*
G01X235735Y329683*
G03X235442Y328975I707J-708*
G01X235442*
G03X235575Y328478I1000J0*
G01X236500Y325000D02*
G03X235575Y328478I-7000J-0D01*
G01X234070Y319697D02*
G03X236500Y325000I-4570J5303D01*
G01X234070Y319697D02*
G03X233722Y318940I652J-757D01*
G01X233722*
G03X234015Y318233I1000J-0*
G01X236221Y316027*
X237100Y313905D02*
G03X236221Y316027I-3000J0D01*
G01X237100Y313905D02*
Y275757D01*
G03X238807Y275050I1000J-0*
G01X259379Y295621*
X261500Y296500D02*
G03X259379Y295621I0J-3000D01*
G01X261500Y296500D02*
X264528D01*
G03X265273Y296833I-0J1000*
G01X274000Y293500D02*
G03X265273Y296833I-5000J0D01*
G01Y290167D02*
G03X274000Y293500I3727J3333D01*
G01X265273Y290167D02*
G03X264528Y290500I-745J-667D01*
G01X263157*
G03X262450Y290207I-0J-1000*
G01X229621Y257379*
X227500Y256500D02*
G03X229621Y257379I0J3000D01*
G01X227500Y256500D02*
X193366D01*
G03X192366Y255500I-0J-1000*
X192390Y255281I1000J0*
G01X192583Y253543D02*
G03X192390Y255281I-7937J0D01*
G01X192583Y253543D02*
X192583D01*
X176709D02*
G03X192583I7937J0D01*
G01X176901Y255281D02*
G03X176709Y253543I7745J-1738D01*
G01X176901Y255281D02*
G03X176925Y255500I-976J219D01*
X175925Y256500I-1000J0*
G01X173681*
G03X172681Y255500I-0J-1000*
X172705Y255281I1000J0*
G01X172898Y253543D02*
G03X172705Y255281I-7937J0D01*
G01X172898Y253543D02*
X172898D01*
X158467Y248980D02*
G03X172898Y253543I6494J4563D01*
G01X158467Y248980D02*
G03X156941Y249112I-818J-575D01*
G01X150293Y242463*
G03X150000Y241756I707J-707*
G01Y191500*
X149121Y189379D02*
G03X150000Y191500I-2121J2121D01*
G01X149121Y189379D02*
X148284Y188541D01*
G03X147991Y187834I707J-707*
G01X147991*
G03X147992Y187778I1000J-0*
G01X148000Y187500D02*
G03X147992Y187778I-5000J0D01*
G01X148000Y187500D02*
X148000D01*
X138360Y185638D02*
G03X148000Y187500I4640J1862D01*
G01X138360Y185638D02*
G03X136943Y186138I-928J-373D01*
G01X129500Y190500D02*
G03X136943Y186138I5000J0D01*
G01X139140Y192362D02*
G03X129500Y190500I-4640J-1862D01*
G01X139140Y192362D02*
G03X140557Y191862I928J373D01*
G01X143000Y192500D02*
G03X140557Y191862I-0J-5000D01*
G01X143000Y192500D02*
G03X144000Y193500I0J1000D01*
G01Y225021*
G03X143083Y226017I-1000J-0*
G01X138500Y231000D02*
G03X143083Y226017I5000J0D01*
G01X138611Y232049D02*
G03X138500Y231000I4889J-1049D01*
G01X138611Y232049D02*
G03X138633Y232258I-978J209D01*
X137541Y233254I-1000J0*
G01X128874Y241157D02*
G03X137541Y233254I7937J0D01*
G01X130186Y245528D02*
G03X128874Y241157I6625J-4371D01*
G01X130186Y245528D02*
G03X130351Y246079I-835J551D01*
G01X130351*
G03X130186Y246629I-1000J-0*
G01X128874Y251000D02*
G03X130186Y246629I7937J0D01*
G01Y255371D02*
G03X128874Y251000I6625J-4371D01*
G01X130186Y255371D02*
G03X130351Y255921I-835J550D01*
G01X130351*
G03X130186Y256472I-1000J0*
G01X128874Y260843D02*
G03X130186Y256472I7937J-0D01*
G01X143909Y264395D02*
G03X128874Y260843I-7098J-3552D01*
G01X143909Y264395D02*
G03X144803Y263843I894J448D01*
G01X146115*
G03X146822Y264135I0J1000*
G01X151493Y268806*
G03X151786Y269513I-707J707*
G01X151786*
G03X150786Y270513I-1000J0*
G01X143400*
X135463Y278450D02*
G03X143400Y270513I7937J0D01*
G01X136193Y281776D02*
G03X135463Y278450I7207J-3326D01*
G01X136193Y281776D02*
G03X136285Y282195I-908J419D01*
X135082Y283174I-1000J0*
G01X125528Y290945D02*
G03X135082Y283174I7937J-0D01*
G01X131685Y357745D02*
G03X125110Y353000I-1575J-4745D01*
G01X131685Y357745D02*
G03X133000Y358695I315J950D01*
G01Y364528*
G03X132667Y365273I-1000J-0*
G01X131000Y369000D02*
G03X132667Y365273I5000J0D01*
G01X141000Y369000D02*
G03X131000I-5000J0D01*
G01X139333Y365273D02*
G03X141000Y369000I-3333J3727D01*
G01X139333Y365273D02*
G03X139000Y364528I667J-745D01*
G01Y353972*
G03X139333Y353227I1000J0*
G01X141000Y349500D02*
G03X139333Y353227I-5000J0D01*
G01X131449Y347429D02*
G03X141000Y349500I4551J2071D01*
G01X131449Y347429D02*
G03X130467Y348013I-910J-414D01*
G01X125110Y353000D02*
G03X130467Y348013I5000J0D01*
G01X129000Y160000D02*
G03X119000I-5000J0D01*
X129000I5000J0*
G01X399600Y264270D02*
G03X389600I-5000J0D01*
X399600I5000J0*
G01X433960Y137130D02*
G03X423960I-5000J0D01*
X433960I5000J0*
G01X454106Y434673D02*
X484827D01*
X457205Y432873D02*
X484827D01*
X458635Y431073D02*
X484827D01*
X459402Y429273D02*
X484827D01*
X459699Y427473D02*
X484827D01*
X459582Y425673D02*
X484827D01*
X459029Y423873D02*
X484827D01*
X457924Y422073D02*
X484827D01*
X455842Y420273D02*
X484827D01*
X416410Y418473D02*
X484827D01*
X414610Y416673D02*
X484827D01*
X412810Y414873D02*
X484827D01*
X411010Y413073D02*
X484827D01*
X409210Y411273D02*
X484827D01*
X407410Y409473D02*
X484827D01*
X405610Y407673D02*
X484827D01*
X403810Y405873D02*
X484827D01*
X402010Y404073D02*
X484827D01*
X400210Y402273D02*
X484827D01*
X399235Y400473D02*
X484827D01*
X399235Y398673D02*
X484827D01*
X399235Y396873D02*
X484827D01*
X399659Y395073D02*
X484827D01*
X456744Y393273D02*
X484827D01*
X458387Y391473D02*
X484827D01*
X459276Y389673D02*
X484827D01*
X459670Y387873D02*
X484827D01*
X459644Y386073D02*
X484827D01*
X459193Y384273D02*
X484827D01*
X458230Y382473D02*
X484827D01*
X456693Y380673D02*
X484827D01*
X458530Y378873D02*
X484827D01*
X461173Y377073D02*
X484827D01*
X462802Y375273D02*
X484827D01*
X463891Y373473D02*
X484827D01*
X464598Y371673D02*
X484827D01*
X464991Y369873D02*
X484827D01*
X465101Y368073D02*
X484827D01*
X464937Y366273D02*
X484827D01*
X464486Y364473D02*
X484827D01*
X463712Y362673D02*
X484827D01*
X462534Y360873D02*
X484827D01*
X460765Y359073D02*
X484827D01*
X457760Y357273D02*
X484827D01*
X451362Y355473D02*
X484827D01*
X451476Y353673D02*
X484827D01*
X451207Y351873D02*
X484827D01*
X450476Y350073D02*
X484827D01*
X450085Y348273D02*
X484827D01*
X451061Y346473D02*
X484827D01*
X451456Y344673D02*
X484827D01*
X451372Y342873D02*
X484827D01*
X450789Y341073D02*
X484827D01*
X450775Y339273D02*
X484827D01*
X451367Y337473D02*
X484827D01*
X451459Y335673D02*
X484827D01*
X451072Y333873D02*
X484827D01*
X450108Y332073D02*
X484827D01*
X450459Y330273D02*
X484827D01*
X451199Y328473D02*
X484827D01*
X451475Y326673D02*
X484827D01*
X451360Y324873D02*
X484827D01*
X457685Y323073D02*
X484827D01*
X460728Y321273D02*
X484827D01*
X462510Y319473D02*
X484827D01*
X463696Y317673D02*
X484827D01*
X464476Y315873D02*
X484827D01*
X464932Y314073D02*
X484827D01*
X465101Y312273D02*
X484827D01*
X464995Y310473D02*
X484827D01*
X464607Y308673D02*
X484827D01*
X463906Y306873D02*
X484827D01*
X462824Y305073D02*
X484827D01*
X461207Y303273D02*
X484827D01*
X458591Y301473D02*
X484827D01*
X480438Y299673D02*
X484827D01*
X481696Y263673D02*
X484827D01*
X450342Y261873D02*
X484827D01*
X460155Y260073D02*
X484827D01*
X461801Y258273D02*
X484827D01*
X462367Y256473D02*
X484827D01*
X462247Y254673D02*
X484827D01*
X461379Y252873D02*
X484827D01*
X458703Y251073D02*
X484827D01*
X447490Y249273D02*
X484827D01*
X449290Y247473D02*
X484827D01*
X451090Y245673D02*
X484827D01*
X452890Y243873D02*
X484827D01*
X477417Y242073D02*
X484827D01*
X481793Y240273D02*
X484827D01*
X482952Y297873D02*
X484671D01*
X476999Y436473D02*
X478115D01*
X454690Y242073D02*
X474783D01*
X453039Y281673D02*
X473467D01*
X419112Y299673D02*
X472022D01*
X453433Y279873D02*
X471796D01*
X452480Y263673D02*
X470764D01*
X452071Y283473D02*
X470604D01*
X456490Y240273D02*
X470407D01*
X417312Y297873D02*
X469508D01*
X453350Y278073D02*
X469395D01*
X453372Y265473D02*
X468837D01*
X452188Y285273D02*
X468745D01*
X458290Y238473D02*
X468577D01*
X448193Y296073D02*
X468096D01*
X452772Y276273D02*
X468027D01*
X453457Y267273D02*
X467688D01*
X357136Y450873D02*
X467682D01*
X453096Y287073D02*
X467633D01*
X460090Y236673D02*
X467480D01*
X451375Y294273D02*
X467248D01*
X452810Y274473D02*
X467209D01*
X453457Y269073D02*
X467022D01*
X453444Y288873D02*
X466993D01*
X452692Y292473D02*
X466812D01*
X453438Y272673D02*
X466796D01*
X453457Y270873D02*
X466736D01*
X453319Y290673D02*
X466730D01*
X456619Y461673D02*
X466666D01*
X358546Y449073D02*
X466515D01*
X393877Y436473D02*
X466006D01*
X457410Y463473D02*
X465046D01*
X359001Y447273D02*
X464867D01*
X395624Y438273D02*
X464727D01*
X455245Y459873D02*
X464586D01*
X393925Y445473D02*
X464500D01*
X395787Y443673D02*
X464500D01*
X396440Y441873D02*
X464500D01*
X396393Y440073D02*
X464500D01*
X108874Y452673D02*
X464456D01*
X402235Y483273D02*
X463711D01*
X452703Y458073D02*
X463350D01*
X108874Y454473D02*
X463302D01*
X457776Y465273D02*
X463284D01*
X108874Y456273D02*
X462990D01*
X402372Y481473D02*
X462353D01*
X457770Y467073D02*
X462040D01*
X401825Y479673D02*
X461382D01*
X457391Y468873D02*
X461164D01*
X400222Y477873D02*
X460721D01*
X456583Y470673D02*
X460583D01*
X358418Y476073D02*
X460327D01*
X455183Y472473D02*
X460260D01*
X452569Y474273D02*
X460176D01*
X445690Y251073D02*
X456097D01*
X451480Y260073D02*
X454645D01*
X443890Y252873D02*
X453421D01*
X442090Y254673D02*
X450375D01*
X444106Y434673D02*
X449438D01*
X440290Y256473D02*
X448575D01*
X420912Y301473D02*
X447866D01*
X403960Y378873D02*
X447773D01*
X445842Y420273D02*
X447701D01*
X446658Y380673D02*
X446885D01*
X438490Y258273D02*
X446775D01*
X404089Y377073D02*
X445284D01*
X422712Y303273D02*
X445250D01*
X422569Y474273D02*
X445227D01*
X422703Y458073D02*
X445092D01*
X436690Y260073D02*
X444975D01*
X415512Y296073D02*
X444721D01*
X403625Y375273D02*
X443655D01*
X424512Y305073D02*
X443633D01*
X434890Y261873D02*
X443175D01*
X425183Y472473D02*
X442612D01*
X402743Y373473D02*
X442566D01*
X426312Y306873D02*
X442551D01*
X425245Y459873D02*
X442550D01*
X397668Y362673D02*
X442509D01*
X437112Y317673D02*
X442502D01*
X428303Y152073D02*
X442215D01*
X435312Y315873D02*
X441981D01*
X399881Y364473D02*
X441971D01*
X402872Y371673D02*
X441859D01*
X428112Y308673D02*
X441850D01*
X413712Y294273D02*
X441539D01*
X433512Y314073D02*
X441525D01*
X400645Y366273D02*
X441520D01*
X402325Y369873D02*
X441466D01*
X429912Y310473D02*
X441462D01*
X431712Y312273D02*
X441356D01*
X400866Y368073D02*
X441356D01*
X426583Y470673D02*
X441213D01*
X426619Y461673D02*
X441176D01*
X433090Y263673D02*
X440433D01*
X427391Y468873D02*
X440405D01*
X349086Y164673D02*
X440397D01*
X427410Y463473D02*
X440385D01*
X422022Y216873D02*
X440318D01*
X411912Y292473D02*
X440117D01*
X428722Y153873D02*
X440105D01*
X427770Y467073D02*
X440025D01*
X427776Y465273D02*
X440019D01*
X348603Y166473D02*
X439950D01*
X367315Y215073D02*
X439903D01*
X428049Y222273D02*
X439729D01*
X425376Y218673D02*
X439634D01*
X424800Y162873D02*
X439541D01*
X367303Y170073D02*
X439531D01*
X431290Y265473D02*
X439510D01*
X347560Y168273D02*
X439501D01*
X428050Y206073D02*
X439491D01*
X428787Y155673D02*
X439475D01*
X427044Y220473D02*
X439461D01*
X365515Y213273D02*
X439457D01*
X422025Y211473D02*
X439457D01*
X425377Y209673D02*
X439457D01*
X427045Y207873D02*
X439457D01*
X426709Y161073D02*
X439457D01*
X427848Y159273D02*
X439457D01*
X428507Y157473D02*
X439457D01*
X434106Y434673D02*
X439438D01*
X369967Y171873D02*
X439396D01*
X428609Y224073D02*
X438378D01*
X429490Y267273D02*
X437775D01*
X380308Y360873D02*
X437716D01*
X435842Y420273D02*
X437701D01*
X371435Y173673D02*
X437596D01*
X410112Y290673D02*
X437039D01*
X436658Y380673D02*
X436885D01*
X428803Y225873D02*
X436578D01*
X428037Y269073D02*
X435975D01*
X372478Y175473D02*
X435796D01*
X380482Y359073D02*
X435523D01*
X408492Y288873D02*
X435239D01*
X343905Y348273D02*
X435033D01*
X397608Y332073D02*
X435011D01*
X428652Y227673D02*
X434778D01*
X398419Y330273D02*
X434659D01*
X277959Y350073D02*
X434642D01*
X379977Y357273D02*
X434373D01*
X396391Y339273D02*
X434344D01*
X349440Y341073D02*
X434329D01*
X428507Y270873D02*
X434175D01*
X347748Y346473D02*
X434057D01*
X397271Y333873D02*
X434046D01*
X398187Y323073D02*
X433971D01*
X398690Y328473D02*
X433919D01*
X361133Y351873D02*
X433911D01*
X378463Y355473D02*
X433788D01*
X397762Y324873D02*
X433782D01*
X397446Y337473D02*
X433751D01*
X349649Y342873D02*
X433746D01*
X349182Y344673D02*
X433662D01*
X397695Y335673D02*
X433659D01*
X398487Y326673D02*
X433643D01*
X362414Y353673D02*
X433642D01*
X428141Y229473D02*
X432978D01*
X428787Y272673D02*
X432375D01*
X398645Y321273D02*
X432227D01*
X427198Y231273D02*
X431178D01*
X429004Y274473D02*
X430575D01*
X398619Y319473D02*
X430427D01*
X424106Y434673D02*
X429438D01*
X425634Y233073D02*
X429378D01*
X398103Y317673D02*
X428627D01*
X425842Y420273D02*
X427701D01*
X422678Y234873D02*
X427578D01*
X426658Y380673D02*
X426885D01*
X396952Y315873D02*
X426827D01*
X396952Y236673D02*
X425778D01*
X394456Y314073D02*
X425027D01*
X340747Y238473D02*
X423978D01*
X376991Y312273D02*
X423227D01*
X365218Y240273D02*
X422178D01*
X391480Y310473D02*
X421427D01*
X369192Y242073D02*
X420378D01*
X392478Y308673D02*
X419627D01*
X414106Y434673D02*
X419438D01*
X370975Y243873D02*
X418578D01*
X392689Y306873D02*
X417827D01*
X416658Y380673D02*
X416885D01*
X372046Y245673D02*
X416778D01*
X369170Y216873D02*
X416562D01*
X363715Y211473D02*
X416558D01*
X392225Y305073D02*
X416027D01*
X398523Y234873D02*
X415905D01*
X384823Y121473D02*
X415853D01*
X356995Y474273D02*
X415227D01*
X108874Y458073D02*
X415092D01*
X386411Y123273D02*
X414509D01*
X390795Y303273D02*
X414227D01*
X398140Y193473D02*
X413960D01*
X390311Y162873D02*
X413783D01*
X404567Y119673D02*
X413543D01*
X376371Y218673D02*
X413208D01*
X376373Y209673D02*
X413206D01*
X399406Y195273D02*
X412950D01*
X399056Y233073D02*
X412949D01*
X387538Y125073D02*
X412709D01*
X354681Y472473D02*
X412612D01*
X108874Y459873D02*
X412550D01*
X386706Y301473D02*
X412427D01*
X392156Y161073D02*
X411874D01*
X406543Y117873D02*
X411568D01*
X378275Y220473D02*
X411539D01*
X378275Y207873D02*
X411539D01*
X400937Y197073D02*
X411386D01*
X398906Y231273D02*
X411385D01*
X133118Y470673D02*
X411213D01*
X125951Y461673D02*
X411176D01*
X388323Y126873D02*
X410909D01*
X393956Y159273D02*
X410735D01*
X387720Y299673D02*
X410627D01*
X379372Y222273D02*
X410534D01*
X379373Y206073D02*
X410533D01*
X401450Y198873D02*
X410443D01*
X397997Y229473D02*
X410443D01*
X132537Y468873D02*
X410405D01*
X407716Y116073D02*
X410394D01*
X128655Y463473D02*
X410385D01*
X401156Y152073D02*
X410281D01*
X395756Y157473D02*
X410076D01*
X131660Y467073D02*
X410025D01*
X130417Y465273D02*
X410019D01*
X379974Y224073D02*
X409974D01*
X397156Y204273D02*
X409974D01*
X401284Y200673D02*
X409931D01*
X395038Y227673D02*
X409931D01*
X399356Y153873D02*
X409862D01*
X397556Y155673D02*
X409796D01*
X380180Y225873D02*
X409780D01*
X400351Y202473D02*
X409780D01*
X404106Y434673D02*
X409438D01*
X388827Y128673D02*
X409109D01*
X394890Y297873D02*
X408827D01*
X389080Y130473D02*
X407309D01*
X397420Y296073D02*
X407027D01*
X406658Y380673D02*
X406885D01*
X389096Y132273D02*
X405509D01*
X398261Y294273D02*
X405227D01*
X388876Y134073D02*
X403709D01*
X398360Y292473D02*
X403427D01*
X388408Y135873D02*
X401909D01*
X398835Y290673D02*
X401514D01*
X387664Y137673D02*
X400109D01*
X393800Y434673D02*
X399438D01*
X386589Y139473D02*
X398309D01*
X385075Y141273D02*
X396509D01*
X393800Y432873D02*
X396339D01*
X379974Y204273D02*
X395784D01*
X375535Y193473D02*
X394800D01*
X382865Y143073D02*
X394709D01*
X359334Y477873D02*
X394578D01*
X382474Y119673D02*
X393858D01*
X379364Y362673D02*
X393832D01*
X376675Y195273D02*
X393534D01*
X380020Y227673D02*
X393122D01*
X359874Y479673D02*
X392975D01*
X378837Y144873D02*
X392909D01*
X380180Y202473D02*
X392589D01*
X360014Y483273D02*
X392565D01*
X360094Y481473D02*
X392428D01*
X378444Y197073D02*
X392003D01*
X388561Y297873D02*
X391910D01*
X377729Y117873D02*
X391882D01*
X380019Y200673D02*
X391656D01*
X376022Y364473D02*
X391619D01*
X379470Y198873D02*
X391490D01*
X338947Y236673D02*
X391208D01*
X374920Y146673D02*
X391109D01*
X294816Y366273D02*
X390855D01*
X293900Y368073D02*
X390812D01*
X343984Y116073D02*
X390709D01*
X292206Y369873D02*
X390175D01*
X379471Y229473D02*
X390163D01*
X341478Y114273D02*
X390025D01*
X324293Y110673D02*
X389769D01*
X324340Y112473D02*
X389724D01*
X372025Y234873D02*
X389637D01*
X377212Y148473D02*
X389309D01*
X378444Y231273D02*
X389254D01*
X290343Y371673D02*
X389204D01*
X341979Y434673D02*
X389200D01*
X341399Y432873D02*
X389200D01*
X339099Y431073D02*
X389200D01*
X356655Y429273D02*
X389200D01*
X358301Y427473D02*
X389200D01*
X358867Y425673D02*
X389200D01*
X358747Y423873D02*
X389200D01*
X357879Y422073D02*
X389200D01*
X355203Y420273D02*
X389200D01*
X109430Y418473D02*
X389200D01*
X117515Y416673D02*
X389200D01*
X118914Y414873D02*
X389200D01*
X119550Y413073D02*
X389200D01*
X119651Y411273D02*
X389200D01*
X121313Y409473D02*
X389200D01*
X122482Y407673D02*
X389200D01*
X289293Y405873D02*
X389200D01*
X290536Y404073D02*
X389200D01*
X290899Y402273D02*
X389200D01*
X291870Y400473D02*
X389200D01*
X352159Y398673D02*
X389200D01*
X355784Y396873D02*
X389200D01*
X357651Y395073D02*
X389200D01*
X358843Y393273D02*
X389200D01*
X359595Y391473D02*
X389200D01*
X360001Y389673D02*
X389200D01*
X360098Y387873D02*
X389200D01*
X359895Y386073D02*
X389200D01*
X359374Y384273D02*
X389200D01*
X358481Y382473D02*
X389200D01*
X357092Y380673D02*
X389200D01*
X354851Y378873D02*
X389200D01*
X323770Y377073D02*
X389200D01*
X290343Y375273D02*
X389200D01*
X290343Y373473D02*
X389200D01*
X341719Y436473D02*
X389123D01*
X376677Y233073D02*
X389104D01*
X358781Y445473D02*
X389075D01*
X377500Y314073D02*
X389021D01*
X348445Y339273D02*
X389009D01*
X279061Y337473D02*
X387954D01*
X277894Y335673D02*
X387705D01*
X294710Y333873D02*
X387514D01*
X378750Y150273D02*
X387509D01*
X340369Y438273D02*
X387376D01*
X357769Y443673D02*
X387213D01*
X108874Y440073D02*
X386607D01*
X269805Y441873D02*
X386560D01*
X377500Y315873D02*
X386525D01*
X378602Y332073D02*
X385869D01*
X378774Y324873D02*
X385715D01*
X380046Y152073D02*
X385547D01*
X377500Y317673D02*
X385374D01*
X377500Y323073D02*
X385290D01*
X379852Y330273D02*
X385058D01*
X379916Y326673D02*
X384990D01*
X377500Y319473D02*
X384858D01*
X377500Y321273D02*
X384832D01*
X380219Y328473D02*
X384787D01*
X368010Y303273D02*
X384551D01*
X375210Y310473D02*
X383920D01*
X369810Y305073D02*
X383175D01*
X373410Y308673D02*
X382922D01*
X371610Y306873D02*
X382711D01*
X366442Y301473D02*
X382210D01*
X366843Y299673D02*
X379680D01*
X366789Y297873D02*
X378839D01*
X366010Y296073D02*
X378665D01*
X338835Y364473D02*
X374978D01*
X345251Y117873D02*
X372822D01*
X362798Y355473D02*
X372537D01*
X298188Y332073D02*
X371838D01*
X340826Y362673D02*
X371636D01*
X362512Y357273D02*
X371023D01*
X359719Y144873D02*
X370728D01*
X341523Y360873D02*
X370692D01*
X361397Y359073D02*
X370518D01*
X344701Y330273D02*
X370514D01*
X337460Y234873D02*
X370495D01*
X346254Y328473D02*
X368880D01*
X361519Y146673D02*
X368385D01*
X345914Y119673D02*
X368077D01*
X357919Y143073D02*
X367686D01*
X346778Y326673D02*
X367456D01*
X348993Y193473D02*
X366987D01*
X346621Y324873D02*
X366290D01*
X361915Y209673D02*
X366146D01*
X349040Y195273D02*
X365844D01*
X339020Y233073D02*
X365843D01*
X346126Y121473D02*
X365728D01*
X337491Y317673D02*
X365485D01*
X356119Y141273D02*
X365476D01*
X363319Y148473D02*
X365308D01*
X345701Y323073D02*
X364894D01*
X338213Y319473D02*
X364676D01*
X348892Y162873D02*
X364565D01*
X342650Y321273D02*
X364448D01*
X360115Y207873D02*
X364244D01*
X345925Y123273D02*
X364140D01*
X349160Y197073D02*
X364076D01*
X340584Y231273D02*
X364075D01*
X335764Y315873D02*
X364020D01*
X348224Y191673D02*
X363998D01*
X354319Y139473D02*
X363962D01*
X340430Y220473D02*
X363926D01*
X341435Y222273D02*
X363147D01*
X358315Y206073D02*
X363147D01*
X353941Y198873D02*
X363049D01*
X341526Y229473D02*
X363049D01*
X345274Y125073D02*
X363014D01*
X345144Y137673D02*
X362888D01*
X358335Y161073D02*
X362720D01*
X341995Y224073D02*
X362546D01*
X356515Y204273D02*
X362545D01*
X355028Y200673D02*
X362500D01*
X342038Y227673D02*
X362500D01*
X336697Y314073D02*
X362452D01*
X338761Y218673D02*
X362430D01*
X342189Y225873D02*
X362339D01*
X355297Y202473D02*
X362339D01*
X336433Y306873D02*
X362295D01*
X344670Y126873D02*
X362228D01*
X345994Y189873D02*
X362198D01*
X352480Y292473D02*
X362180D01*
X344810Y135873D02*
X362143D01*
X345607Y128673D02*
X361724D01*
X345696Y134073D02*
X361675D01*
X342547Y240273D02*
X361553D01*
X346060Y130473D02*
X361471D01*
X346088Y132273D02*
X361455D01*
X337714Y308673D02*
X361366D01*
X337812Y312273D02*
X361306D01*
X338098Y310473D02*
X361001D01*
X335407Y216873D02*
X360630D01*
X354280Y290673D02*
X360438D01*
X341687Y188073D02*
X360398D01*
X350828Y294273D02*
X360055D01*
X348903Y170073D02*
X359468D01*
X332409Y215073D02*
X358830D01*
X357407Y288873D02*
X358626D01*
X350893Y296073D02*
X357790D01*
X344347Y242073D02*
X357579D01*
X342340Y186273D02*
X357577D01*
X334122Y213273D02*
X357030D01*
X350703Y171873D02*
X356804D01*
X335488Y305073D02*
X356464D01*
X346147Y243873D02*
X355796D01*
X342293Y184473D02*
X355795D01*
X350450Y297873D02*
X355681D01*
X352503Y173673D02*
X355336D01*
X335922Y211473D02*
X355230D01*
X346936Y303273D02*
X354997D01*
X347947Y245673D02*
X354725D01*
X341524Y182673D02*
X354725D01*
X349075Y299673D02*
X354708D01*
X348403Y301473D02*
X354514D01*
X304219Y351873D02*
X354467D01*
X341513Y359073D02*
X354203D01*
X349747Y247473D02*
X354116D01*
X351547Y249273D02*
X353879D01*
X347919Y161073D02*
X353865D01*
X337722Y209673D02*
X353430D01*
X339294Y180873D02*
X353198D01*
X305295Y353673D02*
X353186D01*
X340791Y357273D02*
X353088D01*
X338722Y355473D02*
X352802D01*
X282005Y420273D02*
X352597D01*
X309197Y159273D02*
X351874D01*
X339522Y207873D02*
X351630D01*
X322467Y179073D02*
X351398D01*
X335481Y157473D02*
X351177D01*
X281279Y429273D02*
X351145D01*
X269079Y450873D02*
X350884D01*
X271614Y443673D02*
X350251D01*
X336794Y155673D02*
X350230D01*
X283814Y422073D02*
X349921D01*
X322377Y177273D02*
X349598D01*
X283592Y427473D02*
X349499D01*
X271392Y449073D02*
X349474D01*
X272247Y445473D02*
X349239D01*
X284447Y423873D02*
X349053D01*
X272184Y447273D02*
X349019D01*
X284384Y425673D02*
X348933D01*
X337197Y153873D02*
X348430D01*
X323780Y175473D02*
X347798D01*
X341233Y269073D02*
X347092D01*
X341322Y206073D02*
X347019D01*
X336928Y152073D02*
X346630D01*
X293590Y398673D02*
X346267D01*
X340836Y173673D02*
X345998D01*
X343122Y204273D02*
X345706D01*
X340094Y267273D02*
X345563D01*
X337280Y150273D02*
X344717D01*
X342303Y171873D02*
X344198D01*
X338184Y265473D02*
X343763D01*
X262949Y472473D02*
X343744D01*
X325471Y378873D02*
X343574D01*
X295261Y396873D02*
X342641D01*
X235915Y263673D02*
X341963D01*
X265263Y474273D02*
X341430D01*
X326060Y380673D02*
X341333D01*
X319635Y198873D02*
X341276D01*
X338437Y321273D02*
X340950D01*
X337891Y303273D02*
X340864D01*
X296004Y395073D02*
X340775D01*
X308794Y161073D02*
X340281D01*
X287387Y200673D02*
X340217D01*
X234115Y261873D02*
X340163D01*
X277717Y348273D02*
X340095D01*
X319890Y476073D02*
X340006D01*
X325961Y382473D02*
X339944D01*
X321632Y197073D02*
X339803D01*
X279380Y339273D02*
X339584D01*
X296031Y393273D02*
X339582D01*
X323559Y477873D02*
X339091D01*
X325120Y384273D02*
X339051D01*
X336401Y330273D02*
X338899D01*
X295354Y391473D02*
X338830D01*
X325090Y479673D02*
X338551D01*
X322590Y386073D02*
X338530D01*
X293424Y389673D02*
X338424D01*
X286105Y202473D02*
X338417D01*
X326262Y483273D02*
X338411D01*
X325916Y481473D02*
X338331D01*
X290343Y387873D02*
X338327D01*
X279348Y341073D02*
X337715D01*
X309571Y431073D02*
X336660D01*
X286100Y204273D02*
X336617D01*
X321591Y191673D02*
X336066D01*
X321901Y180873D02*
X335506D01*
X310842Y438273D02*
X335390D01*
X319522Y189873D02*
X334975D01*
X323687Y114273D02*
X334900D01*
X286100Y206073D02*
X334817D01*
X325580Y173673D02*
X334764D01*
X318463Y355473D02*
X334478D01*
X316022Y364473D02*
X334365D01*
X311871Y432873D02*
X334360D01*
X312191Y436473D02*
X334040D01*
X312451Y434673D02*
X333780D01*
X327380Y171873D02*
X333297D01*
X320255Y182673D02*
X333276D01*
X308571Y188073D02*
X333113D01*
X286100Y207873D02*
X333017D01*
X329180Y170073D02*
X332814D01*
X330980Y168273D02*
X332718D01*
X181520Y184473D02*
X332507D01*
X306870Y186273D02*
X332460D01*
X319977Y357273D02*
X332409D01*
X321825Y116073D02*
X332394D01*
X319364Y362673D02*
X332374D01*
X285432Y245673D02*
X331736D01*
X131515Y126873D02*
X331708D01*
X320482Y359073D02*
X331687D01*
X320308Y360873D02*
X331677D01*
X284132Y135873D02*
X331568D01*
X285161Y137673D02*
X331234D01*
X286100Y209673D02*
X331217D01*
X270861Y117873D02*
X331127D01*
X132436Y125073D02*
X331104D01*
X315300Y305073D02*
X330800D01*
X130213Y128673D02*
X330771D01*
X315300Y315873D02*
X330693D01*
X108874Y134073D02*
X330682D01*
X316701Y330273D02*
X330599D01*
X285393Y139473D02*
X330514D01*
X315300Y303273D02*
X330509D01*
X270020Y119673D02*
X330464D01*
X133055Y123273D02*
X330453D01*
X284361Y243873D02*
X330419D01*
X128359Y130473D02*
X330318D01*
X125444Y132273D02*
X330290D01*
X284950Y141273D02*
X330255D01*
X267490Y121473D02*
X330252D01*
X315780Y296073D02*
X329999D01*
X307481Y162873D02*
X329875D01*
X315300Y306873D02*
X329767D01*
X315300Y297873D02*
X329629D01*
X315300Y314073D02*
X329503D01*
X315300Y301473D02*
X329454D01*
X286100Y211473D02*
X329417D01*
X315300Y299673D02*
X329205D01*
X315300Y317673D02*
X329109D01*
X317701Y323073D02*
X329064D01*
X318254Y328473D02*
X329046D01*
X308928Y157473D02*
X328919D01*
X318621Y324873D02*
X328679D01*
X282578Y242073D02*
X328619D01*
X318778Y326673D02*
X328522D01*
X315300Y308673D02*
X328486D01*
X315300Y312273D02*
X328388D01*
X316279Y319473D02*
X328387D01*
X317147Y321273D02*
X328377D01*
X315300Y310473D02*
X328102D01*
X178900Y164673D02*
X328075D01*
X327282Y294273D02*
X327915D01*
X286100Y213273D02*
X327617D01*
X307841Y155673D02*
X327606D01*
X305793Y152073D02*
X327420D01*
X305579Y153873D02*
X327203D01*
X289054Y265473D02*
X327171D01*
X283563Y143073D02*
X327078D01*
X278604Y240273D02*
X326819D01*
X108874Y166473D02*
X326275D01*
X305561Y150273D02*
X325956D01*
X286100Y215073D02*
X325817D01*
X185354Y144873D02*
X325475D01*
X291288Y267273D02*
X325261D01*
X304532Y148473D02*
X325065D01*
X223615Y238473D02*
X325019D01*
X183554Y146673D02*
X324928D01*
X292137Y278073D02*
X324492D01*
X108874Y168273D02*
X324475D01*
X286235Y216873D02*
X324196D01*
X292540Y269073D02*
X324121D01*
X221815Y236673D02*
X323975D01*
X285410Y234873D02*
X323966D01*
X290062Y233073D02*
X323966D01*
X291830Y231273D02*
X323966D01*
X291660Y220473D02*
X323966D01*
X289757Y218673D02*
X323966D01*
X292758Y222273D02*
X323916D01*
X292856Y229473D02*
X323828D01*
X293031Y276273D02*
X323666D01*
X293250Y270873D02*
X323462D01*
X293359Y224073D02*
X323360D01*
X293405Y227673D02*
X323317D01*
X293479Y274473D02*
X323247D01*
X293549Y272673D02*
X323182D01*
X293566Y225873D02*
X323166D01*
X108874Y170073D02*
X322675D01*
X308219Y171873D02*
X320875D01*
X290343Y386073D02*
X319610D01*
X290343Y377073D02*
X318430D01*
X290599Y279873D02*
X317872D01*
X290343Y384273D02*
X317080D01*
X270960Y116073D02*
X316975D01*
X309890Y476073D02*
X316803D01*
X290343Y378873D02*
X316729D01*
X290343Y382473D02*
X316239D01*
X309192Y173673D02*
X316197D01*
X290343Y380673D02*
X316140D01*
X287523Y281673D02*
X315659D01*
X309160Y189873D02*
X315278D01*
X288040Y198873D02*
X315165D01*
X270371Y114273D02*
X315113D01*
X295232Y364473D02*
X314978D01*
X181756Y182673D02*
X314745D01*
X230391Y110673D02*
X314507D01*
X268670Y112473D02*
X314460D01*
X309386Y175473D02*
X313521D01*
X309061Y191673D02*
X313209D01*
X287993Y197073D02*
X313174D01*
X181518Y180873D02*
X313099D01*
X308903Y177273D02*
X312653D01*
X305556Y355473D02*
X312537D01*
X307436Y179073D02*
X312533D01*
X308220Y193473D02*
X312487D01*
X305690Y195273D02*
X312477D01*
X295225Y362673D02*
X311636D01*
X305146Y357273D02*
X311023D01*
X299691Y330273D02*
X310899D01*
X294796Y360873D02*
X310692D01*
X303818Y359073D02*
X310518D01*
X300500Y328473D02*
X309346D01*
X234575Y317673D02*
X309300D01*
X236365Y315873D02*
X309300D01*
X296373Y314073D02*
X309300D01*
X298782Y312273D02*
X309300D01*
X300015Y310473D02*
X309300D01*
X300657Y308673D02*
X309300D01*
X300850Y306873D02*
X309300D01*
X300630Y305073D02*
X309300D01*
X299958Y303273D02*
X309300D01*
X298677Y301473D02*
X309300D01*
X296129Y299673D02*
X309300D01*
X271425Y297873D02*
X309300D01*
X273287Y296073D02*
X308981D01*
X300833Y326673D02*
X308822D01*
X297217Y319473D02*
X308321D01*
X300748Y324873D02*
X307899D01*
X299181Y321273D02*
X307453D01*
X300233Y323073D02*
X307333D01*
X274772Y431073D02*
X307133D01*
X299890Y476073D02*
X306803D01*
X255715Y283473D02*
X306479D01*
X273940Y294273D02*
X306323D01*
X108874Y438273D02*
X305862D01*
X257515Y285273D02*
X305661D01*
X273893Y292473D02*
X305629D01*
X273124Y290673D02*
X305598D01*
X270894Y288873D02*
X305598D01*
X259315Y287073D02*
X305598D01*
X274400Y432873D02*
X304833D01*
X271524Y436473D02*
X304513D01*
X273456Y434673D02*
X304253D01*
X287224Y195273D02*
X302710D01*
X180754Y186273D02*
X301530D01*
X180749Y179073D02*
X301364D01*
X180614Y162873D02*
X300919D01*
X108874Y171873D02*
X300581D01*
X284994Y193473D02*
X300180D01*
X179177Y177273D02*
X299897D01*
X179188Y188073D02*
X299829D01*
X114758Y173673D02*
X299608D01*
X181457Y161073D02*
X299606D01*
X181573Y157473D02*
X299457D01*
X116639Y175473D02*
X299414D01*
X150000Y191673D02*
X299339D01*
X149520Y189873D02*
X299240D01*
X181752Y159273D02*
X299203D01*
X180878Y155673D02*
X297637D01*
X293862Y359073D02*
X297302D01*
X181754Y148473D02*
X297068D01*
X279858Y351873D02*
X296901D01*
X289890Y476073D02*
X296803D01*
X179438Y153873D02*
X296250D01*
X179954Y150273D02*
X296039D01*
X292134Y357273D02*
X295974D01*
X281658Y353673D02*
X295825D01*
X178275Y152073D02*
X295807D01*
X283458Y355473D02*
X295564D01*
X239925Y333873D02*
X291117D01*
X237100Y299673D02*
X289698D01*
X237095Y314073D02*
X289454D01*
X233876Y319473D02*
X288610D01*
X238125Y332073D02*
X287639D01*
X237100Y301473D02*
X287149D01*
X237100Y312273D02*
X287045D01*
X266686Y476073D02*
X286803D01*
X235425Y321273D02*
X286645D01*
X264051Y396873D02*
X286238D01*
X265918Y395073D02*
X286196D01*
X236325Y330273D02*
X286136D01*
X267111Y393273D02*
X285979D01*
X237100Y303273D02*
X285869D01*
X237100Y310473D02*
X285811D01*
X236229Y323073D02*
X285594D01*
X235578Y328473D02*
X285326D01*
X237100Y305073D02*
X285197D01*
X237100Y308673D02*
X285170D01*
X236499Y324873D02*
X285078D01*
X236297Y326673D02*
X284994D01*
X237100Y306873D02*
X284977D01*
X267863Y391473D02*
X284564D01*
X268269Y389673D02*
X284343D01*
X268365Y387873D02*
X284343D01*
X268162Y386073D02*
X284343D01*
X267642Y384273D02*
X284343D01*
X266749Y382473D02*
X284343D01*
X280775Y380673D02*
X284343D01*
X220015Y234873D02*
X283880D01*
X267602Y477873D02*
X283134D01*
X122278Y405873D02*
X282507D01*
X260426Y398673D02*
X282356D01*
X253915Y281673D02*
X281768D01*
X268142Y479673D02*
X281603D01*
X108874Y404073D02*
X281264D01*
X224235Y400473D02*
X281208D01*
X250603Y193473D02*
X281206D01*
X108874Y402273D02*
X280901D01*
X268362Y481473D02*
X280776D01*
X268282Y483273D02*
X280431D01*
X237715Y265473D02*
X280236D01*
X189157Y216873D02*
X280100D01*
X189579Y215073D02*
X280100D01*
X189579Y213273D02*
X280100D01*
X189156Y211473D02*
X280100D01*
X188231Y209673D02*
X280100D01*
X186520Y207873D02*
X280100D01*
X150000Y206073D02*
X280100D01*
X150000Y204273D02*
X280100D01*
X252055Y202473D02*
X280095D01*
X188231Y218673D02*
X279534D01*
X218215Y233073D02*
X279228D01*
X252115Y279873D02*
X278692D01*
X253540Y195273D02*
X278689D01*
X239515Y267273D02*
X278003D01*
X274675Y429273D02*
X277721D01*
X186521Y220473D02*
X277630D01*
X216415Y231273D02*
X277461D01*
X187154Y143073D02*
X277237D01*
X250315Y278073D02*
X277154D01*
X108874Y420273D02*
X276995D01*
X241315Y269073D02*
X276751D01*
X108874Y135873D02*
X276668D01*
X245133Y222273D02*
X276533D01*
X245397Y229473D02*
X276434D01*
X248515Y276273D02*
X276260D01*
X243115Y270873D02*
X276041D01*
X246414Y224073D02*
X275931D01*
X246512Y227673D02*
X275885D01*
X246715Y274473D02*
X275811D01*
X244915Y272673D02*
X275741D01*
X246798Y225873D02*
X275725D01*
X108874Y422073D02*
X275186D01*
X225415Y240273D02*
X274939D01*
X269676Y423873D02*
X274553D01*
X272764Y425673D02*
X274261D01*
X265360Y380673D02*
X274225D01*
X263119Y378873D02*
X271711D01*
X227215Y242073D02*
X270965D01*
X241725Y335673D02*
X270866D01*
X108874Y377073D02*
X270442D01*
X108874Y375273D02*
X269777D01*
X243525Y337473D02*
X269699D01*
X138235Y373473D02*
X269563D01*
X247125Y341073D02*
X269412D01*
X245325Y339273D02*
X269380D01*
X140226Y371673D02*
X269197D01*
X229015Y243873D02*
X269182D01*
X230815Y245673D02*
X268111D01*
X238015Y252873D02*
X267838D01*
X239822Y254673D02*
X267811D01*
X232615Y247473D02*
X267502D01*
X236215Y251073D02*
X267373D01*
X234415Y249273D02*
X267265D01*
X261115Y288873D02*
X267106D01*
X237100Y297873D02*
X266575D01*
X261802Y423873D02*
X265998D01*
X261122Y450873D02*
X265521D01*
X263563Y441873D02*
X264795D01*
X133412Y121473D02*
X264510D01*
X231113Y112473D02*
X263330D01*
X236108Y357273D02*
X262842D01*
X140923Y369873D02*
X262794D01*
X133528Y119673D02*
X261980D01*
X231123Y114273D02*
X261629D01*
X228435Y117873D02*
X261139D01*
X236500Y359073D02*
X261139D01*
X235061Y368073D02*
X261101D01*
X230426Y116073D02*
X261040D01*
X236500Y360873D02*
X260204D01*
X236292Y366273D02*
X260184D01*
X108874Y450873D02*
X260078D01*
X237100Y296073D02*
X259957D01*
X236500Y362673D02*
X259775D01*
X236500Y364473D02*
X259769D01*
X108874Y423873D02*
X258124D01*
X237100Y294273D02*
X258030D01*
X108874Y441873D02*
X257637D01*
X108874Y449073D02*
X256736D01*
X108874Y436473D02*
X256276D01*
X237100Y292473D02*
X256230D01*
X108874Y443673D02*
X256123D01*
X108874Y447273D02*
X255792D01*
X108874Y445473D02*
X255618D01*
X108874Y425673D02*
X255036D01*
X226226Y398673D02*
X254534D01*
X237100Y290673D02*
X254430D01*
X108874Y434673D02*
X254344D01*
X108874Y427473D02*
X253742D01*
X108874Y432873D02*
X253400D01*
X108874Y429273D02*
X253134D01*
X108874Y431073D02*
X253028D01*
X237100Y288873D02*
X252630D01*
X133441Y472473D02*
X252012D01*
X108874Y378873D02*
X251842D01*
X226923Y396873D02*
X250909D01*
X237100Y287073D02*
X250830D01*
X133525Y474273D02*
X249698D01*
X228732Y380673D02*
X249600D01*
X226913Y395073D02*
X249042D01*
X237100Y285273D02*
X249030D01*
X133374Y476073D02*
X248274D01*
X229761Y382473D02*
X248212D01*
X150000Y193473D02*
X247997D01*
X226191Y393273D02*
X247850D01*
X235071Y355473D02*
X247575D01*
X132979Y477873D02*
X247359D01*
X229993Y384273D02*
X247319D01*
X237100Y283473D02*
X247230D01*
X224122Y391473D02*
X247097D01*
X132319Y479673D02*
X246819D01*
X229550Y386073D02*
X246798D01*
X122022Y389673D02*
X246692D01*
X129990Y483273D02*
X246679D01*
X131347Y481473D02*
X246599D01*
X228163Y387873D02*
X246595D01*
X218097Y202473D02*
X246545D01*
X236133Y353673D02*
X245713D01*
X237100Y281673D02*
X245430D01*
X217833Y195273D02*
X245321D01*
X236500Y350073D02*
X245107D01*
X236500Y351873D02*
X245060D01*
X236500Y348273D02*
X244905D01*
X219212Y200673D02*
X244899D01*
X219114Y197073D02*
X244453D01*
X219498Y198873D02*
X244333D01*
X237100Y279873D02*
X243630D01*
X237100Y278073D02*
X241830D01*
X237100Y276273D02*
X240030D01*
X210005Y222273D02*
X238467D01*
X214615Y229473D02*
X238203D01*
X211814Y224073D02*
X237186D01*
X212815Y227673D02*
X237088D01*
X212447Y225873D02*
X236802D01*
X232315Y260073D02*
X236731D01*
X230515Y258273D02*
X234930D01*
X193134Y256473D02*
X233130D01*
X192502Y254673D02*
X231330D01*
X192554Y252873D02*
X229530D01*
X192188Y251073D02*
X227730D01*
X191336Y249273D02*
X225930D01*
X189759Y247473D02*
X224130D01*
X180997Y117873D02*
X223965D01*
X222983Y368073D02*
X223909D01*
X185670Y245673D02*
X222330D01*
X182454Y110673D02*
X222009D01*
X182746Y116073D02*
X221974D01*
X119674Y387873D02*
X221837D01*
X183271Y112473D02*
X221287D01*
X183355Y114273D02*
X221277D01*
X115896Y380673D02*
X221268D01*
X151702Y243873D02*
X220530D01*
X119651Y386073D02*
X220450D01*
X118202Y382473D02*
X220239D01*
X119242Y384273D02*
X220007D01*
X122538Y391473D02*
X219878D01*
X108874Y400473D02*
X219765D01*
X150051Y242073D02*
X218730D01*
X121813Y393273D02*
X217809D01*
X108874Y398673D02*
X217774D01*
X108874Y395073D02*
X217087D01*
X108874Y396873D02*
X217077D01*
X150000Y240273D02*
X216930D01*
X165811Y294273D02*
X216459D01*
X212982Y368073D02*
X216018D01*
X213224Y296073D02*
X215776D01*
X150000Y238473D02*
X215130D01*
X150000Y236673D02*
X213330D01*
X150000Y234873D02*
X211530D01*
X204333Y195273D02*
X211167D01*
X204597Y202473D02*
X210903D01*
X205614Y197073D02*
X209886D01*
X205712Y200673D02*
X209788D01*
X150000Y233073D02*
X209730D01*
X205998Y198873D02*
X209502D01*
X197371Y342873D02*
X206115D01*
X140913Y368073D02*
X206018D01*
X196554Y341073D02*
X206018D01*
X196097Y355473D02*
X205836D01*
X165811Y296073D02*
X205776D01*
X150000Y231273D02*
X205721D01*
X198070Y317673D02*
X205399D01*
X196270Y319473D02*
X205205D01*
X150000Y222273D02*
X204995D01*
X174858Y357273D02*
X204337D01*
X197212Y353673D02*
X204288D01*
X152319Y330273D02*
X204217D01*
X197455Y344673D02*
X203998D01*
X140191Y366273D02*
X203955D01*
X194129Y339273D02*
X203955D01*
X165811Y297873D02*
X203846D01*
X199870Y315873D02*
X203669D01*
X194458Y321273D02*
X203575D01*
X149991Y328473D02*
X203422D01*
X150000Y229473D02*
X203408D01*
X150000Y224073D02*
X203186D01*
X171687Y332073D02*
X203141D01*
X174735Y359073D02*
X203141D01*
X197498Y351873D02*
X203117D01*
X196846Y346473D02*
X202972D01*
X170964Y364473D02*
X202951D01*
X174809Y337473D02*
X202951D01*
X165811Y299673D02*
X202898D01*
X151312Y323073D02*
X202771D01*
X151003Y326673D02*
X202703D01*
X165794Y303273D02*
X202617D01*
X150000Y227673D02*
X202616D01*
X174177Y360873D02*
X202591D01*
X173431Y333873D02*
X202591D01*
X197114Y350073D02*
X202583D01*
X150000Y225873D02*
X202553D01*
X196010Y348273D02*
X202538D01*
X173065Y362673D02*
X202532D01*
X174374Y335673D02*
X202532D01*
X165811Y301473D02*
X202520D01*
X151486Y324873D02*
X202501D01*
X201902Y314073D02*
X202308D01*
X165465Y305073D02*
X202185D01*
X164660Y306873D02*
X200385D01*
X163164Y308673D02*
X198585D01*
X150000Y195273D02*
X197667D01*
X150000Y202473D02*
X197403D01*
X159731Y310473D02*
X196785D01*
X150000Y197073D02*
X196386D01*
X150000Y200673D02*
X196288D01*
X150000Y198873D02*
X196002D01*
X108874Y312273D02*
X194985D01*
X142850Y314073D02*
X193185D01*
X145984Y315873D02*
X191331D01*
X174821Y339273D02*
X190871D01*
X140847Y348273D02*
X188990D01*
X174565Y355473D02*
X188903D01*
X174412Y341073D02*
X188446D01*
X139979Y346473D02*
X188154D01*
X169330Y350073D02*
X187886D01*
X173805Y353673D02*
X187788D01*
X173503Y342873D02*
X187629D01*
X171825Y344673D02*
X187545D01*
X172384Y351873D02*
X187502D01*
X165811Y292473D02*
X185939D01*
X108874Y137673D02*
X184069D01*
X165985Y245673D02*
X183621D01*
X108874Y139473D02*
X182269D01*
X108874Y141273D02*
X180469D01*
X170074Y247473D02*
X179533D01*
X135350Y143073D02*
X178669D01*
X171651Y249273D02*
X177956D01*
X172503Y251073D02*
X177103D01*
X138401Y144873D02*
X176869D01*
X172740Y207873D02*
X176866D01*
X172742Y220473D02*
X176865D01*
X172817Y254673D02*
X176789D01*
X172869Y252873D02*
X176737D01*
X165806Y290673D02*
X176666D01*
X173449Y256473D02*
X176158D01*
X133408Y117873D02*
X175803D01*
X165915Y288873D02*
X175674D01*
X139321Y146673D02*
X175069D01*
X130192Y110673D02*
X174346D01*
X133048Y116073D02*
X174054D01*
X131500Y112473D02*
X173529D01*
X132426Y114273D02*
X173445D01*
X139478Y148473D02*
X173269D01*
X138954Y150273D02*
X171469D01*
X137401Y152073D02*
X169669D01*
X140967Y350073D02*
X164528D01*
X153502Y245673D02*
X163936D01*
X150000Y207873D02*
X163086D01*
X150000Y220473D02*
X163085D01*
X139000Y364473D02*
X162894D01*
X125779Y164673D02*
X162832D01*
X117298Y177273D02*
X162555D01*
X148020Y188073D02*
X162544D01*
X108874Y153873D02*
X162294D01*
X153765Y332073D02*
X162171D01*
X137303Y344673D02*
X162034D01*
X140401Y351873D02*
X161474D01*
X150000Y209673D02*
X161376D01*
X150000Y218673D02*
X161375D01*
X128092Y162873D02*
X161118D01*
X117360Y179073D02*
X160984D01*
X147847Y186273D02*
X160978D01*
X126505Y155673D02*
X160855D01*
X139000Y362673D02*
X160794D01*
X150000Y211473D02*
X160450D01*
X150000Y216873D02*
X160450D01*
X154238Y333873D02*
X160428D01*
X108874Y342873D02*
X160355D01*
X128884Y161073D02*
X160276D01*
X123606Y180873D02*
X160215D01*
X146979Y184473D02*
X160212D01*
X128314Y157473D02*
X160159D01*
X139046Y353673D02*
X160054D01*
X150000Y213273D02*
X160028D01*
X150000Y215073D02*
X160028D01*
X128947Y159273D02*
X159980D01*
X144303Y182673D02*
X159976D01*
X155302Y247473D02*
X159848D01*
X139000Y360873D02*
X159681D01*
X154034Y335673D02*
X159485D01*
X108874Y341073D02*
X159447D01*
X139000Y355473D02*
X159293D01*
X139000Y359073D02*
X159123D01*
X153047Y337473D02*
X159049D01*
X144324Y339273D02*
X159038D01*
X139000Y357273D02*
X159001D01*
X157152Y249273D02*
X158145D01*
X135321Y310473D02*
X156017D01*
X138755Y308673D02*
X152584D01*
X108876Y269073D02*
X151684D01*
X140250Y306873D02*
X151088D01*
X140587Y287073D02*
X150625D01*
X141056Y305073D02*
X150283D01*
X141126Y288873D02*
X150212D01*
X141464Y267273D02*
X149959D01*
X141385Y303273D02*
X149954D01*
X141397Y290673D02*
X149942D01*
X141402Y301473D02*
X149937D01*
X141402Y299673D02*
X149937D01*
X141402Y297873D02*
X149937D01*
X141402Y296073D02*
X149937D01*
X141402Y294273D02*
X149937D01*
X141402Y292473D02*
X149937D01*
X143258Y265473D02*
X148159D01*
X108874Y224073D02*
X144000D01*
X113903Y222273D02*
X144000D01*
X116235Y220473D02*
X144000D01*
X117031Y218673D02*
X144000D01*
X121758Y216873D02*
X144000D01*
X124680Y215073D02*
X144000D01*
X125940Y213273D02*
X144000D01*
X126527Y211473D02*
X144000D01*
X126615Y209673D02*
X144000D01*
X126224Y207873D02*
X144000D01*
X125253Y206073D02*
X144000D01*
X123260Y204273D02*
X144000D01*
X108874Y202473D02*
X144000D01*
X108874Y200673D02*
X144000D01*
X108874Y198873D02*
X144000D01*
X108874Y197073D02*
X144000D01*
X135990Y195273D02*
X144000D01*
X138520Y193473D02*
X144000D01*
X108874Y225873D02*
X143524D01*
X117536Y328473D02*
X143056D01*
X119003Y326673D02*
X141997D01*
X125413Y182673D02*
X141697D01*
X108874Y339273D02*
X141553D01*
X119486Y324873D02*
X141514D01*
X108874Y314073D02*
X141150D01*
X108874Y270873D02*
X141039D01*
X108874Y330273D02*
X140219D01*
X108874Y227673D02*
X139768D01*
X119292Y323073D02*
X139099D01*
X126300Y184473D02*
X139021D01*
X108874Y337473D02*
X138942D01*
X108874Y229473D02*
X138739D01*
X108874Y332073D02*
X138550D01*
X108874Y231273D02*
X138507D01*
X108897Y233073D02*
X138214D01*
X108874Y315873D02*
X138099D01*
X108874Y335673D02*
X138086D01*
X108874Y333873D02*
X137974D01*
X108874Y272673D02*
X137958D01*
X118319Y321273D02*
X137546D01*
X108874Y317673D02*
X137179D01*
X108874Y319473D02*
X137022D01*
X108874Y274473D02*
X136532D01*
X108874Y281673D02*
X136147D01*
X108874Y276273D02*
X135768D01*
X108874Y279873D02*
X135591D01*
X108874Y278073D02*
X135472D01*
X108874Y344673D02*
X134697D01*
X108874Y373473D02*
X133765D01*
X108874Y143073D02*
X133650D01*
X108874Y195273D02*
X133010D01*
X108874Y364473D02*
X133000D01*
X108874Y362673D02*
X133000D01*
X108874Y360873D02*
X133000D01*
X108874Y359073D02*
X133000D01*
X117842Y267273D02*
X132158D01*
X108874Y346473D02*
X132021D01*
X118036Y234873D02*
X131964D01*
X126629Y186273D02*
X131830D01*
X108874Y366273D02*
X131809D01*
X108874Y371673D02*
X131774D01*
X108874Y310473D02*
X131608D01*
X108874Y152073D02*
X131599D01*
X108874Y368073D02*
X131087D01*
X108874Y369873D02*
X131077D01*
X108874Y283473D02*
X130788D01*
X108874Y144873D02*
X130599D01*
X120826Y193473D02*
X130480D01*
X119635Y265473D02*
X130365D01*
X119735Y245673D02*
X130265D01*
X119737Y236673D02*
X130263D01*
X119815Y256473D02*
X130185D01*
X126483Y188073D02*
X130129D01*
X108874Y150273D02*
X130046D01*
X120225Y254673D02*
X129775D01*
X120299Y247473D02*
X129701D01*
X108874Y146673D02*
X129679D01*
X124455Y191673D02*
X129639D01*
X125827Y189873D02*
X129540D01*
X108874Y148473D02*
X129522D01*
X120604Y263673D02*
X129396D01*
X120647Y243873D02*
X129353D01*
X120658Y238473D02*
X129342D01*
X120698Y258273D02*
X129302D01*
X120902Y252873D02*
X129098D01*
X120936Y249273D02*
X129064D01*
X121059Y261873D02*
X128941D01*
X121073Y242073D02*
X128927D01*
X121077Y240273D02*
X128923D01*
X121089Y260073D02*
X128911D01*
X121126Y251073D02*
X128874D01*
X108874Y348273D02*
X128481D01*
X108874Y308673D02*
X128174D01*
X108874Y285273D02*
X127913D01*
X108874Y357273D02*
X127513D01*
X108874Y306873D02*
X126679D01*
X108874Y287073D02*
X126536D01*
X108874Y350073D02*
X126056D01*
X108874Y305073D02*
X125873D01*
X108874Y288873D02*
X125803D01*
X108874Y355473D02*
X125764D01*
X108874Y303273D02*
X125544D01*
X108874Y290673D02*
X125532D01*
X108874Y301473D02*
X125528D01*
X108874Y299673D02*
X125528D01*
X108874Y297873D02*
X125528D01*
X108874Y296073D02*
X125528D01*
X108874Y294273D02*
X125528D01*
X108874Y292473D02*
X125528D01*
X108874Y351873D02*
X125239D01*
X108874Y353673D02*
X125155D01*
X108874Y164673D02*
X122221D01*
X108874Y155673D02*
X121495D01*
X108874Y162873D02*
X119908D01*
X108874Y157473D02*
X119686D01*
X108874Y161073D02*
X119116D01*
X108874Y159273D02*
X119053D01*
X112952Y193473D02*
X118544D01*
X109436Y393273D02*
X117408D01*
X115903Y405873D02*
X116708D01*
X115425Y204273D02*
X116071D01*
X108874Y132273D02*
X113926D01*
X108874Y461673D02*
X113419D01*
X108874Y328473D02*
X111464D01*
X108937Y130473D02*
X111011D01*
X109070Y463473D02*
X110715D01*
X109069Y321273D02*
X110681D01*
X109355Y193473D02*
X110670D01*
X109379Y222273D02*
X110397D01*
X199624Y285899D02*
X214638D01*
X199614Y284099D02*
X213156D01*
X199118Y282299D02*
X211356D01*
X198005Y280499D02*
X209556D01*
X195643Y278699D02*
X207756D01*
X159058Y276899D02*
X205956D01*
X158469Y275099D02*
X204156D01*
X157312Y273299D02*
X202356D01*
X187877Y278699D02*
X189711D01*
X159207D02*
X177477D01*
X158942Y280499D02*
X175986D01*
X158426Y282299D02*
X175308D01*
X275156Y360999D02*
X279839D01*
X275544Y364599D02*
X279456D01*
X275554Y362799D02*
X279446D01*
X274262Y359199D02*
X278699D01*
X272611Y357399D02*
X276899D01*
X433249Y237687D02*
X450057D01*
X431449Y239487D02*
X448790D01*
X429649Y241287D02*
X446990D01*
X427849Y243087D02*
X445190D01*
X426049Y244887D02*
X443390D01*
X435049Y235887D02*
X442325D01*
X424249Y246687D02*
X441590D01*
X436849Y234087D02*
X440611D01*
X422449Y248487D02*
X439790D01*
X420649Y250287D02*
X437990D01*
X418774Y252087D02*
X436190D01*
X371880Y253887D02*
X434390D01*
X370700Y255687D02*
X432590D01*
X368712Y257487D02*
X430790D01*
X395009Y259287D02*
X428990D01*
X398456Y261087D02*
X427190D01*
X399405Y262887D02*
X425390D01*
X399583Y264687D02*
X415106D01*
X399082Y266487D02*
X412581D01*
X397578Y268287D02*
X411164D01*
X379609Y270087D02*
X410314D01*
X379890Y275487D02*
X410052D01*
X380079Y271887D02*
X409875D01*
X380169Y273687D02*
X409791D01*
X380198Y277287D02*
X409732D01*
X363230Y259287D02*
X394191D01*
X378687Y268287D02*
X391622D01*
X363361Y261087D02*
X390744D01*
X377103Y266487D02*
X390118D01*
X365161Y262887D02*
X389795D01*
X373835Y264687D02*
X389617D01*
X366963D02*
X368684D01*
X480020Y144873D02*
X484827D01*
X403194Y143073D02*
X484827D01*
X431760Y141273D02*
X484827D01*
X433377Y139473D02*
X484827D01*
X433930Y137673D02*
X484827D01*
X433799Y135873D02*
X484827D01*
X432916Y134073D02*
X484827D01*
X479775Y132273D02*
X484827D01*
X482690Y130473D02*
X484764D01*
X483072Y146673D02*
X484581D01*
X458832Y144873D02*
X478320D01*
X459861Y146673D02*
X475269D01*
X460093Y148473D02*
X474349D01*
X459650Y150273D02*
X474192D01*
X453382Y170073D02*
X473266D01*
X454625Y191673D02*
X473260D01*
X452825Y189873D02*
X473084D01*
X458263Y152073D02*
X472838D01*
X460163Y193473D02*
X472767D01*
X452865Y171873D02*
X472553D01*
X461677Y195273D02*
X470967D01*
X368852Y188073D02*
X470334D01*
X453413Y168273D02*
X470192D01*
X453091Y153873D02*
X469902D01*
X451778Y173673D02*
X469777D01*
X462182Y197073D02*
X469167D01*
X369194Y186273D02*
X468601D01*
X452963Y166473D02*
X468517D01*
X453438Y155673D02*
X468345D01*
X452471Y175473D02*
X468269D01*
X430146Y132273D02*
X468257D01*
X450889Y184473D02*
X467558D01*
X452516Y164673D02*
X467508D01*
X453457Y157473D02*
X467406D01*
X462278Y198873D02*
X467367D01*
X453226Y177273D02*
X467361D01*
X452449Y182673D02*
X466970D01*
X453372Y162873D02*
X466945D01*
X453457Y159273D02*
X466897D01*
X453457Y179073D02*
X466877D01*
X453217Y180873D02*
X466751D01*
X453457Y161073D02*
X466749D01*
X415794Y130473D02*
X465342D01*
X448026Y110673D02*
X463509D01*
X417594Y128673D02*
X463488D01*
X448071Y112473D02*
X462201D01*
X419394Y126873D02*
X462186D01*
X447770Y114273D02*
X461275D01*
X421194Y125073D02*
X461265D01*
X447086Y116073D02*
X460653D01*
X422994Y123273D02*
X460646D01*
X445913Y117873D02*
X460292D01*
X424794Y121473D02*
X460289D01*
X443937Y119673D02*
X460173D01*
X401781Y144873D02*
X451368D01*
X370976Y184473D02*
X442024D01*
X372046Y182673D02*
X440464D01*
X426594Y119673D02*
X433228D01*
X428394Y117873D02*
X431253D01*
X413994Y132273D02*
X427774D01*
X404994Y141273D02*
X426160D01*
X412194Y134073D02*
X425004D01*
X406794Y139473D02*
X424543D01*
X410394Y135873D02*
X424121D01*
X408594Y137673D02*
X423990D01*
X479143Y461158D02*
X484827D01*
X472207Y459358D02*
X484827D01*
X472805Y457558D02*
X484827D01*
X472970Y455758D02*
X484827D01*
X472454Y453958D02*
X484827D01*
X470919Y452158D02*
X484827D01*
X469148Y450358D02*
X484827D01*
X482343Y462958D02*
X484824D01*
X481183Y204928D02*
X484827D01*
X472349Y203128D02*
X484827D01*
X473397Y201328D02*
X484827D01*
X475197Y199528D02*
X484827D01*
X476997Y197728D02*
X484827D01*
X478728Y195928D02*
X484827D01*
X479260Y194128D02*
X484827D01*
X479260Y192328D02*
X484827D01*
X479295Y190528D02*
X484827D01*
X481254Y188728D02*
X484827D01*
X483366Y206728D02*
X484288D01*
X481343Y283122D02*
X484827D01*
X478921Y281322D02*
X484827D01*
X481274Y279522D02*
X484827D01*
X481421Y172643D02*
X484827D01*
X478952Y170843D02*
X484827D01*
X481254Y169043D02*
X484827D01*
X483145Y154382D02*
X484509D01*
G54D54*
X472333Y275355D02*
X469504Y278183D01*
X472333Y267560D02*
X469504Y264732D01*
X480127Y267560D02*
X482956Y264732D01*
X167745Y250759D02*
X170573Y247931D01*
X162177Y250759D02*
X159348Y247931D01*
X170697Y216957D02*
X173526Y219786D01*
X170697Y211389D02*
X173526Y208561D01*
X165130Y216957D02*
X162301Y219786D01*
X165130Y211389D02*
X162301Y208561D01*
X136248Y305540D02*
X139077Y308368D01*
X130681Y305540D02*
X127852Y308368D01*
X130681Y288161D02*
X127852Y285333D01*
X140616Y275667D02*
X137788Y272838D01*
X176891Y184765D02*
X179719Y187594D01*
X176891Y180589D02*
X179719Y177761D01*
X176891Y161143D02*
X179719Y163971D01*
X176891Y156967D02*
X179719Y154139D01*
X285563Y481074D02*
X282734Y478246D01*
X452377Y469622D02*
X455206Y472450D01*
X452377Y462662D02*
X455206Y459833D01*
X445418Y469622D02*
X442589Y472450D01*
X445418Y462662D02*
X442589Y459833D01*
X324720Y291098D02*
X327548Y293926D01*
X340973Y118712D02*
X343801Y115884D01*
X335405Y118712D02*
X332577Y115884D01*
X403110Y115708D02*
X405938Y118537D01*
X395315Y115708D02*
X392487Y118537D01*
X264874Y366384D02*
X262045Y369213D01*
X264874Y360816D02*
X262045Y357988D01*
X231621Y351121D02*
X235328Y354828D01*
X438791Y356721D02*
X435962Y359549D01*
X154058Y275667D02*
X156886Y272838D01*
X270442Y360816D02*
X273270Y357988D01*
X472363Y164845D02*
X469534Y167673D01*
X472363Y157050D02*
X469534Y154222D01*
X480127Y275355D02*
X482956Y278183D01*
X480157Y164845D02*
X482986Y167673D01*
X480157Y157050D02*
X482986Y154222D01*
X193207Y351293D02*
X196036Y348464D01*
X191793Y351293D02*
X188964Y348464D01*
X193207Y352707D02*
X196036Y355536D01*
X191793Y352707D02*
X188964Y355536D01*
X193207Y344707D02*
X196036Y347536D01*
X191793Y344707D02*
X188964Y347536D01*
X193207Y343293D02*
X196036Y340464D01*
X191793Y343293D02*
X188964Y340464D01*
X147207Y325207D02*
X150036Y328036D01*
X145793Y325207D02*
X142964Y328036D01*
X148543Y334927D02*
X145714Y337756D01*
X149957Y334927D02*
X152786Y337756D01*
X149957Y333513D02*
X152786Y330684D01*
X115207Y325207D02*
X118036Y328036D01*
X115207Y323793D02*
X118036Y320964D01*
X113793Y325207D02*
X110964Y328036D01*
X113793Y323793D02*
X110964Y320964D01*
X135207Y148707D02*
X138036Y151536D01*
X135207Y147293D02*
X138036Y144464D01*
X133793Y148707D02*
X130964Y151536D01*
X133793Y147293D02*
X130964Y144464D01*
X124707Y160707D02*
X127536Y163536D01*
X124707Y159293D02*
X127536Y156464D01*
X123293Y160707D02*
X120464Y163536D01*
X123293Y159293D02*
X120464Y156464D01*
X135207Y189793D02*
X138036Y186964D01*
X135207Y191207D02*
X138036Y194036D01*
X133793Y191207D02*
X130964Y194036D01*
X133793Y189793D02*
X130964Y186964D01*
X201707Y199707D02*
X204536Y202536D01*
X201707Y198293D02*
X204536Y195464D01*
X200293Y199707D02*
X197464Y202536D01*
X200293Y198293D02*
X197464Y195464D01*
X215207Y199707D02*
X218036Y202536D01*
X215207Y198293D02*
X218036Y195464D01*
X213793Y199707D02*
X210964Y202536D01*
X213793Y198293D02*
X210964Y195464D01*
X242507Y226707D02*
X245336Y229536D01*
X242507Y225293D02*
X245336Y222464D01*
X241093Y226707D02*
X238264Y229536D01*
X241093Y225293D02*
X238264Y222464D01*
X143646Y335176D02*
X146474Y338004D01*
X142231Y335176D02*
X139403Y338004D01*
X142231Y333761D02*
X139403Y330933D01*
X222707Y396707D02*
X225536Y399536D01*
X222707Y395293D02*
X225536Y392464D01*
X221293Y396707D02*
X218464Y399536D01*
X221293Y395293D02*
X218464Y392464D01*
X225707Y384707D02*
X228536Y387536D01*
X225707Y383293D02*
X228536Y380464D01*
X224293Y384707D02*
X221464Y387536D01*
X224293Y383293D02*
X221464Y380464D01*
X301267Y355987D02*
X304096Y358816D01*
X301267Y354573D02*
X304096Y351744D01*
X299853Y355987D02*
X297024Y358816D01*
X299853Y354573D02*
X297024Y351744D01*
X316207Y360207D02*
X319036Y363036D01*
X316207Y358793D02*
X319036Y355964D01*
X314793Y360207D02*
X311964Y363036D01*
X314793Y358793D02*
X311964Y355964D01*
X337307Y360707D02*
X340136Y363536D01*
X337307Y359293D02*
X340136Y356464D01*
X335893Y360707D02*
X333064Y363536D01*
X335893Y359293D02*
X333064Y356464D01*
X376207Y360207D02*
X379036Y363036D01*
X376207Y358793D02*
X379036Y355964D01*
X374793Y360207D02*
X371964Y363036D01*
X374793Y358793D02*
X371964Y355964D01*
X314507Y326907D02*
X317336Y329736D01*
X358507Y356307D02*
X361336Y359136D01*
X358507Y354893D02*
X361336Y352064D01*
X357093Y356307D02*
X354264Y359136D01*
X357093Y354893D02*
X354264Y352064D01*
X393407Y336607D02*
X396236Y339436D01*
X391993Y336607D02*
X389164Y339436D01*
X388407Y307907D02*
X391236Y310736D01*
X388407Y306493D02*
X391236Y303664D01*
X386993Y307907D02*
X384164Y310736D01*
X386993Y306493D02*
X384164Y303664D01*
X392693Y293807D02*
X389864Y296636D01*
X394107Y293807D02*
X396936Y296636D01*
X261307Y446607D02*
X264136Y449436D01*
X261307Y445193D02*
X264136Y442364D01*
X259893Y446607D02*
X257064Y449436D01*
X259893Y445193D02*
X257064Y442364D01*
X266593Y446907D02*
X263764Y449736D01*
X266593Y445493D02*
X263764Y442664D01*
X268007Y446907D02*
X270836Y449736D01*
X268007Y445493D02*
X270836Y442664D01*
X278793Y425307D02*
X275964Y428136D01*
X280207Y425307D02*
X283036Y428136D01*
X280207Y423893D02*
X283036Y421064D01*
X278793Y423893D02*
X275964Y421064D01*
X354607Y425807D02*
X357436Y428636D01*
X354607Y424393D02*
X357436Y421564D01*
X353193Y425807D02*
X350364Y428636D01*
X353193Y424393D02*
X350364Y421564D01*
X334007Y319693D02*
X336836Y316864D01*
X332593Y319693D02*
X329764Y316864D01*
X321807Y382007D02*
X324636Y384836D01*
X321807Y380593D02*
X324636Y377764D01*
X320393Y382007D02*
X317564Y384836D01*
X320393Y380593D02*
X317564Y377764D01*
X398107Y481293D02*
X400936Y478464D01*
X396693Y481293D02*
X393864Y478464D01*
X304907Y191207D02*
X307736Y194036D01*
X304907Y189793D02*
X307736Y186964D01*
X303493Y191207D02*
X300664Y194036D01*
X303493Y189793D02*
X300664Y186964D01*
X305107Y175807D02*
X307936Y178636D01*
X305107Y174393D02*
X307936Y171564D01*
X303693Y175807D02*
X300864Y178636D01*
X303693Y174393D02*
X300864Y171564D01*
X304907Y159807D02*
X307736Y162636D01*
X304907Y158393D02*
X307736Y155564D01*
X303493Y159807D02*
X300664Y162636D01*
X301507Y151093D02*
X304336Y148264D01*
X300093Y152507D02*
X297264Y155336D01*
X300093Y151093D02*
X297264Y148264D01*
X320107Y112407D02*
X322936Y115236D01*
X318693Y112407D02*
X315864Y115236D01*
X332907Y154407D02*
X335736Y157236D01*
X331493Y154407D02*
X328664Y157236D01*
X338507Y170407D02*
X341336Y173236D01*
X337093Y170407D02*
X334264Y173236D01*
X338107Y186207D02*
X340936Y189036D01*
X338107Y184793D02*
X340936Y181964D01*
X336693Y186207D02*
X333864Y189036D01*
X336693Y184793D02*
X333864Y181964D01*
X266707Y117407D02*
X269536Y120236D01*
X266707Y115993D02*
X269536Y113164D01*
X265293Y117407D02*
X262464Y120236D01*
X265293Y115993D02*
X262464Y113164D01*
X179107Y112893D02*
X181936Y110064D01*
X177693Y112893D02*
X174864Y110064D01*
X179107Y114307D02*
X181936Y117136D01*
X177693Y114307D02*
X174864Y117136D01*
X226907Y112693D02*
X229736Y109864D01*
X225493Y112693D02*
X222664Y109864D01*
X226907Y114107D02*
X229736Y116936D01*
X225493Y114107D02*
X222664Y116936D01*
X129403Y353707D02*
X126574Y356536D01*
X129403Y352293D02*
X126574Y349464D01*
X112857Y218297D02*
X115686Y221126D01*
X113067Y177353D02*
X115896Y174524D01*
X354717Y447677D02*
X357546Y450506D01*
X354717Y446263D02*
X357546Y443434D01*
X353303Y447677D02*
X350474Y450506D01*
X353303Y446263D02*
X350474Y443434D01*
X275087Y338523D02*
X277916Y335694D01*
X273673Y338523D02*
X270844Y335694D01*
X467283Y456917D02*
X464454Y459746D01*
X467283Y455503D02*
X464454Y452674D01*
X397177Y200027D02*
X400006Y202856D01*
X397177Y198613D02*
X400006Y195784D01*
X395763Y200027D02*
X392934Y202856D01*
X395763Y198613D02*
X392934Y195784D01*
X394787Y233287D02*
X397616Y236116D01*
X394787Y231873D02*
X397616Y229044D01*
X393373Y233287D02*
X390544Y236116D01*
X393373Y231873D02*
X390544Y229044D01*
X395307Y264977D02*
X398136Y267806D01*
X395307Y263563D02*
X398136Y260734D01*
X393893Y264977D02*
X391064Y267806D01*
X393893Y263563D02*
X391064Y260734D01*
X429667Y137837D02*
X432496Y140666D01*
X429667Y136423D02*
X432496Y133594D01*
X428253Y137837D02*
X425424Y140666D01*
X428253Y136423D02*
X425424Y133594D01*
X479877Y149093D02*
X482706Y146264D01*
X478463Y149093D02*
X475634Y146264D01*
X468697Y456917D02*
X471526Y459746D01*
X468697Y455503D02*
X471526Y452674D01*
X479877Y150507D02*
X482706Y153336D01*
G74*
X0Y0D02*
M02*
