*
*
G04 PADS VX.2.4 Build Number: 11282995 generated Gerber (RS-274-X) file*
G04 PC Version=2.1*
*
%IN "HT66F2350_WIFI_V1.0.pcb"*%
*
%MOIN*%
*
%FSLAX35Y35*%
*
*
*
*
G04 PC Standard Apertures*
*
*
G04 Thermal Relief Aperture macro.*
%AMTER*
1,1,$1,0,0*
1,0,$1-$2,0,0*
21,0,$3,$4,0,0,45*
21,0,$3,$4,0,0,135*
%
*
*
G04 Annular Aperture macro.*
%AMANN*
1,1,$1,0,0*
1,0,$2,0,0*
%
*
*
G04 Odd Aperture macro.*
%AMODD*
1,1,$1,0,0*
1,0,$1-0.005,0,0*
%
*
*
G04 PC Custom Aperture Macros*
*
*
*
*
*
*
G04 PC Aperture Table*
*
%ADD010C,0.001*%
%ADD011C,0.01*%
%ADD012C,0.005*%
*
*
*
*
G04 PC Circuitry*
G04 Layer Name HT66F2350_WIFI_V1.0.pcb - circuitry*
%LPD*%
*
*
G04 PC Custom Flashes*
G04 Layer Name HT66F2350_WIFI_V1.0.pcb - flashes*
%LPD*%
*
*
G04 PC Circuitry*
G04 Layer Name HT66F2350_WIFI_V1.0.pcb - circuitry*
%LPD*%
*
G54D10*
G54D11*
G01X153874Y291142D02*
X161874D01*
X157874Y287142D02*
Y295142D01*
X159874Y296423D02*
Y293142D01*
Y296423D02*
X160669D01*
X161010Y296267*
X161238Y295954*
X161351Y295642*
X161465Y295173*
Y294392*
X161351Y293923*
X161238Y293610*
X161010Y293298*
X160669Y293142*
X159874*
X153874Y302559D02*
X161874D01*
X157874Y298559D02*
Y306559D01*
X159874Y307840D02*
Y304559D01*
Y307840D02*
X160669D01*
X161010Y307684*
X161238Y307372*
X161351Y307059*
X161465Y306590*
Y305809*
X161351Y305340*
X161238Y305028*
X161010Y304715*
X160669Y304559*
X159874*
X156693Y291142D02*
G75*
G03X159055I1181J-0D01*
G01Y302559*
G03X156693I-1181J0*
G01Y291142*
X129465D02*
X137465D01*
X133465Y287142D02*
Y295142D01*
X135465Y296423D02*
Y293142D01*
Y296423D02*
X136260D01*
X136601Y296267*
X136828Y295954*
X136942Y295642*
X137055Y295173*
Y294392*
X136942Y293923*
X136828Y293610*
X136601Y293298*
X136260Y293142*
X135465*
X129465Y302559D02*
X137465D01*
X133465Y298559D02*
Y306559D01*
X135465Y307840D02*
Y304559D01*
Y307840D02*
X136260D01*
X136601Y307684*
X136828Y307372*
X136942Y307059*
X137055Y306590*
Y305809*
X136942Y305340*
X136828Y305028*
X136601Y304715*
X136260Y304559*
X135465*
X132283Y291142D02*
G03X134646I1182J-0D01*
G01Y302559*
G03X132283I-1181J0*
G01Y291142*
X139597Y278450D02*
X147597D01*
X143597Y274450D02*
Y282450D01*
X147301Y282950D02*
X147188Y283263D01*
X146960Y283575*
X146733Y283732*
X146279*
X146051Y283575*
X145824Y283263*
X145710Y282950*
X145597Y282482*
Y281700*
X145710Y281232*
X145824Y280919*
X146051Y280607*
X146279Y280450*
X146733*
X146960Y280607*
X147188Y280919*
X147301Y281232*
X147077Y278450D02*
X155077D01*
X151077Y274450D02*
Y282450D01*
X154782Y282950D02*
X154668Y283263D01*
X154441Y283575*
X154214Y283732*
X153759*
X153532Y283575*
X153304Y283263*
X153191Y282950*
X153077Y282482*
Y281700*
X153191Y281232*
X153304Y280919*
X153532Y280607*
X153759Y280450*
X154214*
X154441Y280607*
X154668Y280919*
X154782Y281232*
X143597Y279631D02*
G03Y277269I-0J-1181D01*
G01X151077*
G03Y279631I0J1181*
G01X143597*
X105571Y386613D02*
X113571D01*
X109571Y382613D02*
Y390613D01*
X113276Y391113D02*
X113162Y391425D01*
X112935Y391738*
X112708Y391894*
X112253*
X112026Y391738*
X111798Y391425*
X111685Y391113*
X111571Y390644*
Y389863*
X111685Y389394*
X111798Y389081*
X112026Y388769*
X112253Y388613*
X112708*
X112935Y388769*
X113162Y389081*
X113276Y389394*
Y389863*
X112708D02*
X113276D01*
X108721Y386613D02*
X116721D01*
X112721Y382613D02*
Y390613D01*
X116425Y391113D02*
X116312Y391425D01*
X116084Y391738*
X115857Y391894*
X115403*
X115175Y391738*
X114948Y391425*
X114834Y391113*
X114721Y390644*
Y389863*
X114834Y389394*
X114948Y389081*
X115175Y388769*
X115403Y388613*
X115857*
X116084Y388769*
X116312Y389081*
X116425Y389394*
Y389863*
X115857D02*
X116425D01*
X109571Y387597D02*
G03Y385628I0J-984D01*
G01X112721*
G03Y387597I-0J985*
G01X109571*
X105571Y411809D02*
X113571D01*
X109571Y407809D02*
Y415809D01*
X113275Y416309D02*
X113162Y416622D01*
X112934Y416934*
X112934D02*
X112707Y417091D01*
X112253*
X112025Y416934*
X111798Y416622*
X111684Y416309*
X111684D02*
X111571Y415841D01*
Y415059*
X111684Y414591*
X111684D02*
X111798Y414278D01*
X112025Y413966*
X112253Y413809*
X112707*
X112934Y413966*
X112934D02*
X113162Y414278D01*
X113275Y414591*
Y415059*
X112707D02*
X113275D01*
X108720Y411809D02*
X116720D01*
X112720Y407809D02*
Y415809D01*
X116425Y416309D02*
X116311Y416622D01*
X116084Y416934*
X115857Y417091*
X115402*
X115175Y416934*
X114948Y416622*
X114834Y416309*
X114720Y415841*
Y415059*
X114834Y414591*
X114948Y414278*
X115175Y413966*
X115402Y413809*
X115857*
X116084Y413966*
X116311Y414278*
X116425Y414591*
Y415059*
X115857D02*
X116425D01*
X109571Y412794D02*
G03Y410825I-0J-985D01*
G01X112720*
G03Y412794I0J984*
G01X109571*
X472230Y287143D02*
X480230Y295143D01*
X472230D02*
X480230Y287143D01*
X472230Y267457D02*
X480230Y275457D01*
X472230D02*
X480230Y267457D01*
X180646Y253543D02*
X188646D01*
X184646Y249543D02*
Y257543D01*
X186646Y258825D02*
Y255543D01*
Y258825D02*
X187668D01*
X188009Y258668*
X188123Y258512*
X188237Y258200*
Y257887*
X188123Y257575*
X188009Y257418*
X187668Y257262*
X186646D02*
X187668D01*
X188009Y257106*
X188123Y256950*
X188237Y256637*
Y256168*
X188123Y255856*
X188009Y255700*
X187668Y255543*
X186646*
X160961Y253543D02*
X168961D01*
X164961Y249543D02*
Y257543D01*
X166961Y258825D02*
Y255543D01*
Y258825D02*
X167983D01*
X168324Y258668*
X168438Y258512*
X168552Y258200*
Y257887*
X168438Y257575*
X168324Y257418*
X167983Y257262*
X166961D02*
X167983D01*
X168324Y257106*
X168438Y256950*
X168552Y256637*
Y256168*
X168438Y255856*
X168324Y255700*
X167983Y255543*
X166961*
X177693Y214173D02*
X185693D01*
X181693Y210173D02*
Y218173D01*
X183693Y219454D02*
Y216173D01*
Y219454D02*
X184716D01*
X185057Y219298*
X185170Y219142*
X185284Y218829*
Y218517*
X185170Y218204*
X185057Y218048*
X184716Y217892*
X183693D02*
X184716D01*
X185057Y217736*
X185170Y217579*
X185284Y217267*
Y216798*
X185170Y216486*
X185057Y216329*
X184716Y216173*
X183693*
X163913Y214173D02*
X171913D01*
X167913Y210173D02*
Y218173D01*
X169913Y219454D02*
Y216173D01*
Y219454D02*
X170936D01*
X171277Y219298*
X171391Y219142*
X171504Y218829*
Y218517*
X171391Y218204*
X171277Y218048*
X170936Y217892*
X169913D02*
X170936D01*
X171277Y217736*
X171391Y217579*
X171504Y217267*
Y216798*
X171391Y216486*
X171277Y216329*
X170936Y216173*
X169913*
X178677Y285039D02*
X186677D01*
X182677Y281039D02*
Y289039D01*
X185586Y290321D02*
X184677Y287039D01*
X185586Y290321D02*
X186495Y287039D01*
X185018Y288133D02*
X186154D01*
X188677Y285039D02*
X196677D01*
X192677Y281039D02*
Y289039D01*
X195586Y290321D02*
X194677Y287039D01*
X195586Y290321D02*
X196495Y287039D01*
X195018Y288133D02*
X196154D01*
X162929Y178677D02*
X170929D01*
X162929Y186677*
X170929*
X162929Y178677*
X170803D02*
X178803D01*
X170803Y186677*
X178803*
X170803Y178677*
X115685Y206236D02*
X123685D01*
X115685Y214236*
X123685*
X115685Y206236*
X107811D02*
X115811D01*
X107811Y214236*
X115811*
X107811Y206236*
X115685Y182614D02*
X123685D01*
X115685Y190614*
X123685*
X115685Y182614*
X107811D02*
X115811D01*
X107811Y190614*
X115811*
X107811Y182614*
X162929Y155055D02*
X170929D01*
X162929Y163055*
X170929*
X162929Y155055*
X170803D02*
X178803D01*
X170803Y163055*
X178803*
X170803Y155055*
X115610Y407087D02*
X123610D01*
X119610Y403087D02*
Y411087D01*
X121610Y412368D02*
Y409087D01*
X123201Y412368D02*
Y409087D01*
X121610Y410805D02*
X123201D01*
X115610Y391339D02*
X123610D01*
X119610Y387339D02*
Y395339D01*
X121610Y396620D02*
Y393339D01*
X123201Y396620D02*
Y393339D01*
X121610Y395057D02*
X123201D01*
X205500Y302000D02*
X213500D01*
X209500Y298000D02*
Y306000D01*
X212409Y307281D02*
X211500Y304000D01*
X212409Y307281D02*
X213318Y304000D01*
X211841Y305094D02*
X212977D01*
X215500Y302000D02*
X223500D01*
X219500Y298000D02*
Y306000D01*
X222409Y307281D02*
X221500Y304000D01*
X222409Y307281D02*
X223318Y304000D01*
X221841Y305094D02*
X222977D01*
X225500Y302000D02*
X233500D01*
X229500Y298000D02*
Y306000D01*
X232409Y307281D02*
X231500Y304000D01*
X232409Y307281D02*
X233318Y304000D01*
X231841Y305094D02*
X232977D01*
X225500Y312000D02*
X233500D01*
X229500Y308000D02*
Y316000D01*
X232409Y317281D02*
X231500Y314000D01*
X232409Y317281D02*
X233318Y314000D01*
X231841Y315094D02*
X232977D01*
X215500Y312000D02*
X223500D01*
X219500Y308000D02*
Y316000D01*
X222409Y317281D02*
X221500Y314000D01*
X222409Y317281D02*
X223318Y314000D01*
X221841Y315094D02*
X222977D01*
X205500Y312000D02*
X213500D01*
X209500Y308000D02*
Y316000D01*
X212409Y317281D02*
X211500Y314000D01*
X212409Y317281D02*
X213318Y314000D01*
X211841Y315094D02*
X212977D01*
X288913Y322142D02*
X296913D01*
X288913Y330142*
X296913*
X288913Y322142*
Y302929D02*
X296913D01*
X288913Y310929*
X296913*
X288913Y302929*
X387739Y328346D02*
X395739D01*
X391739Y324346D02*
Y332346D01*
X393739Y333628D02*
Y330346D01*
Y333628D02*
X395216D01*
X393739Y332065D02*
X394648D01*
X387739Y320472D02*
X395739D01*
X391739Y316472D02*
Y324472D01*
X393739Y325754D02*
Y322472D01*
Y325754D02*
X395216D01*
X393739Y324191D02*
X394648D01*
X397772Y383087D02*
X405772D01*
X397772Y391087*
X405772*
X397772Y383087*
X407772D02*
X415772D01*
X407772Y391087*
X415772*
X407772Y383087*
X417772D02*
X425772D01*
X417772Y391087*
X425772*
X417772Y383087*
X427772D02*
X435772D01*
X427772Y391087*
X435772*
X427772Y383087*
X437772D02*
X445772D01*
X437772Y391087*
X445772*
X437772Y383087*
X447772D02*
X455772D01*
X447772Y391087*
X455772*
X447772Y383087*
Y423087D02*
X455772D01*
X447772Y431087*
X455772*
X447772Y423087*
X437772D02*
X445772D01*
X437772Y431087*
X445772*
X437772Y423087*
X427772D02*
X435772D01*
X427772Y431087*
X435772*
X427772Y423087*
X417772D02*
X425772D01*
X417772Y431087*
X425772*
X417772Y423087*
X407772D02*
X415772D01*
X407772Y431087*
X415772*
X407772Y423087*
X397772D02*
X405772D01*
X397772Y431087*
X405772*
X397772Y423087*
X345212Y481890D02*
X353212D01*
X349212Y477890D02*
Y485890D01*
X351212Y487171D02*
Y483890D01*
X345213Y388189D02*
X353213D01*
X349213Y384189D02*
Y392189D01*
X351213Y393470D02*
Y390189D01*
X253480Y388189D02*
X261480D01*
X257480Y384189D02*
Y392189D01*
X259480Y393470D02*
Y390189D01*
X253480Y481890D02*
X261480D01*
X257480Y477890D02*
Y485890D01*
X259480Y487171D02*
Y483890D01*
X288346Y479858D02*
X292346Y483858D01*
X288346Y487858*
X284346Y483858*
X288346Y479858*
Y483858D02*
Y487858D01*
X298346Y479858D02*
X302346Y483858D01*
X298346Y487858*
X294346Y483858*
X298346Y479858*
Y483858D02*
Y487858D01*
X308346Y479858D02*
X312346Y483858D01*
X308346Y487858*
X304346Y483858*
X308346Y479858*
Y483858D02*
Y487858D01*
X318346Y479858D02*
X322346Y483858D01*
X318346Y487858*
X314346Y483858*
X318346Y479858*
Y483858D02*
Y487858D01*
X418898Y462142D02*
X422898Y466142D01*
X418898Y470142*
X414898Y466142*
X418898Y462142*
Y466142D02*
Y470142D01*
X448898Y462142D02*
X452898Y466142D01*
X448898Y470142*
X444898Y466142*
X448898Y462142*
Y466142D02*
Y470142D01*
X308598Y288976D02*
X316598D01*
X312598Y284976D02*
Y292976D01*
X315508Y294258D02*
X314598Y290976D01*
X315508Y294258D02*
X316417Y290976D01*
X314939Y292070D02*
X316076D01*
X318598Y288976D02*
X326598D01*
X322598Y284976D02*
Y292976D01*
X325508Y294258D02*
X324598Y290976D01*
X325508Y294258D02*
X326417Y290976D01*
X324939Y292070D02*
X326076D01*
X328598Y288976D02*
X336598D01*
X332598Y284976D02*
Y292976D01*
X335508Y294258D02*
X334598Y290976D01*
X335508Y294258D02*
X336417Y290976D01*
X334939Y292070D02*
X336076D01*
X338598Y288976D02*
X346598D01*
X342598Y284976D02*
Y292976D01*
X345508Y294258D02*
X344598Y290976D01*
X345508Y294258D02*
X346417Y290976D01*
X344939Y292070D02*
X346076D01*
X371276Y127496D02*
X379276D01*
Y135496*
X371276*
Y127496*
X375276Y131496D02*
Y135496D01*
X338189Y117496D02*
X342189Y121496D01*
X338189Y125496*
X334189Y121496*
X338189Y117496*
Y121496D02*
Y125496D01*
Y127496D02*
X342189Y131496D01*
X338189Y135496*
X334189Y131496*
X338189Y127496*
Y131496D02*
Y135496D01*
Y137496D02*
X342189Y141496D01*
X338189Y145496*
X334189Y141496*
X338189Y137496*
Y141496D02*
Y145496D01*
X395213Y107811D02*
X403213Y115811D01*
X395213D02*
X403213Y107811D01*
X414898D02*
X422898Y115811D01*
X414898D02*
X422898Y107811D01*
X434583D02*
X442583Y115811D01*
X434583D02*
X442583Y107811D01*
X328677Y221984D02*
X336677Y229984D01*
X328677D02*
X336677Y221984D01*
X328677Y269228D02*
X336677Y277228D01*
X328677D02*
X336677Y269228D01*
X280645D02*
X288645Y277228D01*
Y269228*
X280645Y277228*
Y269228*
X272771Y245606D02*
X280771Y253606D01*
X272771D02*
X280771Y245606D01*
X280645Y221984D02*
X288645Y229984D01*
Y221984*
X280645Y229984*
Y221984*
X442457Y269291D02*
X450457D01*
X446457Y265291D02*
Y273291D01*
X449366Y274573D02*
X448457Y271291D01*
X449366Y274573D02*
X450275Y271291D01*
X448798Y272385D02*
X449934D01*
X442457Y279291D02*
X450457D01*
X446457Y275291D02*
Y283291D01*
X449366Y284573D02*
X448457Y281291D01*
X449366Y284573D02*
X450275Y281291D01*
X448798Y282385D02*
X449934D01*
X442457Y289291D02*
X450457D01*
X446457Y285291D02*
Y293291D01*
X449366Y294573D02*
X448457Y291291D01*
X449366Y294573D02*
X450275Y291291D01*
X448798Y292385D02*
X449934D01*
X415292Y221984D02*
X423292Y229984D01*
X415292D02*
X423292Y221984D01*
X415292Y269228D02*
X423292Y277228D01*
X415292D02*
X423292Y269228D01*
X367260D02*
X375260Y277228D01*
Y269228*
X367260Y277228*
Y269228*
X359386Y245606D02*
X367386Y253606D01*
X359386D02*
X367386Y245606D01*
X367260Y221984D02*
X375260Y229984D01*
Y221984*
X367260Y229984*
Y221984*
X442457Y210236D02*
X450457D01*
X446457Y206236D02*
Y214236D01*
X449366Y215517D02*
X448457Y212236D01*
X449366Y215517D02*
X450275Y212236D01*
X448798Y213330D02*
X449934D01*
X442457Y220236D02*
X450457D01*
X446457Y216236D02*
Y224236D01*
X449366Y225517D02*
X448457Y222236D01*
X449366Y225517D02*
X450275Y222236D01*
X448798Y223330D02*
X449934D01*
X442457Y230236D02*
X450457D01*
X446457Y226236D02*
Y234236D01*
X449366Y235517D02*
X448457Y232236D01*
X449366Y235517D02*
X450275Y232236D01*
X448798Y233330D02*
X449934D01*
X472100Y228653D02*
X480100Y236653D01*
X472100D02*
X480100Y228653D01*
X472100Y208967D02*
X480100Y216967D01*
X472100D02*
X480100Y208967D01*
X415292Y151118D02*
X423292Y159118D01*
X415292D02*
X423292Y151118D01*
X415292Y198362D02*
X423292Y206362D01*
X415292D02*
X423292Y198362D01*
X367260D02*
X375260Y206362D01*
Y198362*
X367260Y206362*
Y198362*
X359386Y174740D02*
X367386Y182740D01*
X359386D02*
X367386Y174740D01*
X367260Y151118D02*
X375260Y159118D01*
Y151118*
X367260Y159118*
Y151118*
X442457Y159055D02*
X450457D01*
X446457Y155055D02*
Y163055D01*
X449366Y164336D02*
X448457Y161055D01*
X449366Y164336D02*
X450275Y161055D01*
X448798Y162149D02*
X449934D01*
X442457Y169055D02*
X450457D01*
X446457Y165055D02*
Y173055D01*
X449366Y174336D02*
X448457Y171055D01*
X449366Y174336D02*
X450275Y171055D01*
X448798Y172149D02*
X449934D01*
X442457Y179055D02*
X450457D01*
X446457Y175055D02*
Y183055D01*
X449366Y184336D02*
X448457Y181055D01*
X449366Y184336D02*
X450275Y181055D01*
X448798Y182149D02*
X449934D01*
X472260Y176633D02*
X480260Y184633D01*
X472260D02*
X480260Y176633D01*
X472260Y156947D02*
X480260Y164947D01*
X472260D02*
X480260Y156947D01*
X333880Y431000D02*
X341880Y439000D01*
X333880D02*
X341880Y431000D01*
X304352D02*
X312352Y439000D01*
X304352D02*
X312352Y431000D01*
X255963Y430578D02*
X263963D01*
X259963Y426578D02*
Y434578D01*
X261963Y435859D02*
Y432578D01*
Y435859D02*
X263440D01*
X261963Y434297D02*
X262872D01*
X263837Y430578D02*
X271837D01*
X267837Y426578D02*
Y434578D01*
X269837Y435859D02*
Y432578D01*
Y435859D02*
X271314D01*
X269837Y434297D02*
X270746D01*
X267658Y359600D02*
X271658Y363600D01*
X267658Y367600*
X263658Y363600*
X267658Y359600*
Y363600D02*
Y367600D01*
X287343Y359600D02*
X291343Y363600D01*
X287343Y367600*
X283343Y363600*
X287343Y359600*
Y363600D02*
Y367600D01*
X277500Y369443D02*
X281500Y373443D01*
X277500Y377443*
X273500Y373443*
X277500Y369443*
Y373443D02*
Y377443D01*
X225500Y362000D02*
X233500D01*
X229500Y358000D02*
Y366000D01*
X232409Y367281D02*
X231500Y364000D01*
X232409Y367281D02*
X233318Y364000D01*
X231841Y365094D02*
X232977D01*
X215500Y362000D02*
X223500D01*
X219500Y358000D02*
Y366000D01*
X222409Y367281D02*
X221500Y364000D01*
X222409Y367281D02*
X223318Y364000D01*
X221841Y365094D02*
X222977D01*
X205500Y362000D02*
X213500D01*
X209500Y358000D02*
Y366000D01*
X212409Y367281D02*
X211500Y364000D01*
X212409Y367281D02*
X213318Y364000D01*
X211841Y365094D02*
X212977D01*
X225500Y349000D02*
X233500D01*
X229500Y345000D02*
Y353000D01*
X232409Y354281D02*
X231500Y351000D01*
X232409Y354281D02*
X233318Y351000D01*
X231841Y352094D02*
X232977D01*
X215500Y349000D02*
X223500D01*
X219500Y345000D02*
Y353000D01*
X222409Y354281D02*
X221500Y351000D01*
X222409Y354281D02*
X223318Y351000D01*
X221841Y352094D02*
X222977D01*
X205500Y349000D02*
X213500D01*
X209500Y345000D02*
Y353000D01*
X212409Y354281D02*
X211500Y351000D01*
X212409Y354281D02*
X213318Y351000D01*
X211841Y352094D02*
X212977D01*
X162929Y334425D02*
X170929D01*
X162929Y342425*
X170929*
X162929Y334425*
Y353638D02*
X170929D01*
X162929Y361638*
X170929*
X162929Y353638*
X205500Y325000D02*
X213500D01*
X209500Y321000D02*
Y329000D01*
X212409Y330281D02*
X211500Y327000D01*
X212409Y330281D02*
X213318Y327000D01*
X211841Y328094D02*
X212977D01*
X215500Y325000D02*
X223500D01*
X219500Y321000D02*
Y329000D01*
X222409Y330281D02*
X221500Y327000D01*
X222409Y330281D02*
X223318Y327000D01*
X221841Y328094D02*
X222977D01*
X225500Y325000D02*
X233500D01*
X229500Y321000D02*
Y329000D01*
X232409Y330281D02*
X231500Y327000D01*
X232409Y330281D02*
X233318Y327000D01*
X231841Y328094D02*
X232977D01*
X225500Y335000D02*
X233500D01*
X229500Y331000D02*
Y339000D01*
X232409Y340281D02*
X231500Y337000D01*
X232409Y340281D02*
X233318Y337000D01*
X231841Y338094D02*
X232977D01*
X215500Y335000D02*
X223500D01*
X219500Y331000D02*
Y339000D01*
X222409Y340281D02*
X221500Y337000D01*
X222409Y340281D02*
X223318Y337000D01*
X221841Y338094D02*
X222977D01*
X205500Y335000D02*
X213500D01*
X209500Y331000D02*
Y339000D01*
X212409Y340281D02*
X211500Y337000D01*
X212409Y340281D02*
X213318Y337000D01*
X211841Y338094D02*
X212977D01*
X132811Y237157D02*
X140811D01*
X132811Y245157*
X140811*
X132811Y237157*
Y247000D02*
X140811D01*
X132811Y255000*
X140811*
X132811Y247000*
Y256843D02*
X140811D01*
X132811Y264843*
X140811*
X132811Y256843*
X109189D02*
X117189D01*
X109189Y264843*
X117189*
X109189Y256843*
Y247000D02*
X117189D01*
X109189Y255000*
X117189*
X109189Y247000*
Y237157D02*
X117189D01*
X109189Y245157*
X117189*
X109189Y237157*
X470016Y470016D02*
X478016D01*
Y478016*
X470016*
Y470016*
X474016Y474016D02*
Y478016D01*
X115685Y470016D02*
X123685D01*
Y478016*
X115685*
Y470016*
X119685Y474016D02*
Y478016D01*
X470016Y115685D02*
X478016D01*
Y123685*
X470016*
Y115685*
X474016Y119685D02*
Y123685D01*
X115685Y115685D02*
X123685D01*
Y123685*
X115685*
Y115685*
X119685Y119685D02*
Y123685D01*
X438559Y322378D02*
X446559D01*
X438559Y330378*
X446559*
X438559Y322378*
Y332220D02*
X446559D01*
X438559Y340220*
X446559*
X438559Y332220*
Y340094D02*
X446559D01*
X438559Y348094*
X446559*
X438559Y340094*
Y349937D02*
X446559D01*
X438559Y357937*
X446559*
X438559Y349937*
X449228Y312067D02*
X457228D01*
X453228Y308067D02*
Y316067D01*
X455228Y317348D02*
Y314067D01*
Y317348D02*
X456706D01*
X455228Y315786D02*
X456137D01*
X455228Y314067D02*
X456706D01*
X449228Y368248D02*
X457228D01*
X453228Y364248D02*
Y372248D01*
X455228Y373529D02*
Y370248D01*
Y373529D02*
X456706D01*
X455228Y371967D02*
X456137D01*
X455228Y370248D02*
X456706D01*
X467500Y442600D02*
X475500D01*
X471500Y438600D02*
Y446600D01*
X474409Y447881D02*
X473500Y444600D01*
X474409Y447881D02*
X475318Y444600D01*
X473841Y445694D02*
X474977D01*
X477500Y442600D02*
X485500D01*
X481500Y438600D02*
Y446600D01*
X484409Y447881D02*
X483500Y444600D01*
X484409Y447881D02*
X485318Y444600D01*
X483841Y445694D02*
X484977D01*
X174400Y113600D02*
X182400D01*
X178400Y109600D02*
Y117600D01*
X222200Y113400D02*
X230200D01*
X226200Y109400D02*
Y117400D01*
X315400Y111700D02*
X323400D01*
X319400Y107700D02*
Y115700D01*
X262000Y116700D02*
X270000D01*
X266000Y112700D02*
Y120700D01*
X130500Y148000D02*
X138500D01*
X134500Y144000D02*
Y152000D01*
X276400Y139200D02*
X284400D01*
X280400Y135200D02*
Y143200D01*
X296800Y151800D02*
X304800D01*
X300800Y147800D02*
Y155800D01*
X325900Y147200D02*
X333900D01*
X329900Y143200D02*
Y151200D01*
X328200Y153700D02*
X336200D01*
X332200Y149700D02*
Y157700D01*
X424960Y137130D02*
X432960D01*
X428960Y133130D02*
Y141130D01*
X451100Y148200D02*
X459100D01*
X455100Y144200D02*
Y152200D01*
X475170Y149800D02*
X483170D01*
X479170Y145800D02*
Y153800D01*
X120000Y160000D02*
X128000D01*
X124000Y156000D02*
Y164000D01*
X300200Y159100D02*
X308200D01*
X304200Y155100D02*
Y163100D01*
X340100Y164300D02*
X348100D01*
X344100Y160300D02*
Y168300D01*
X333800Y169700D02*
X341800D01*
X337800Y165700D02*
Y173700D01*
X352100Y156600D02*
X360100D01*
X356100Y152600D02*
Y160600D01*
X108360Y178060D02*
X116360D01*
X112360Y174060D02*
Y182060D01*
X139000Y187500D02*
X147000D01*
X143000Y183500D02*
Y191500D01*
X130500Y190500D02*
X138500D01*
X134500Y186500D02*
Y194500D01*
X300400Y175100D02*
X308400D01*
X304400Y171100D02*
Y179100D01*
X300200Y190500D02*
X308200D01*
X304200Y186500D02*
Y194500D01*
X313500Y178500D02*
X321500D01*
X317500Y174500D02*
Y182500D01*
X333400Y185500D02*
X341400D01*
X337400Y181500D02*
Y189500D01*
X197000Y199000D02*
X205000D01*
X201000Y195000D02*
Y203000D01*
X210500Y199000D02*
X218500D01*
X214500Y195000D02*
Y203000D01*
X245300Y198300D02*
X253300D01*
X249300Y194300D02*
Y202300D01*
X279100Y198100D02*
X287100D01*
X283100Y194100D02*
Y202100D01*
X313400Y194400D02*
X321400D01*
X317400Y190400D02*
Y198400D01*
X340100Y194500D02*
X348100D01*
X344100Y190500D02*
Y198500D01*
X346300Y202300D02*
X354300D01*
X350300Y198300D02*
Y206300D01*
X392470Y199320D02*
X400470D01*
X396470Y195320D02*
Y203320D01*
X453200Y197500D02*
X461200D01*
X457200Y193500D02*
Y201500D01*
X108150Y217590D02*
X116150D01*
X112150Y213590D02*
Y221590D01*
X139500Y231000D02*
X147500D01*
X143500Y227000D02*
Y235000D01*
X203500Y226600D02*
X211500D01*
X207500Y222600D02*
Y230600D01*
X237800Y226000D02*
X245800D01*
X241800Y222000D02*
Y230000D01*
X327131Y233100D02*
X335131D01*
X331131Y229100D02*
Y237100D01*
X390080Y232580D02*
X398080D01*
X394080Y228580D02*
Y236580D01*
X221000Y265000D02*
X229000D01*
X225000Y261000D02*
Y269000D01*
X390600Y264270D02*
X398600D01*
X394600Y260270D02*
Y268270D01*
X453400Y255900D02*
X461400D01*
X457400Y251900D02*
Y259900D01*
X220800Y286200D02*
X228800D01*
X224800Y282200D02*
Y290200D01*
X265000Y293500D02*
X273000D01*
X269000Y289500D02*
Y297500D01*
X346600Y285300D02*
X354600D01*
X350600Y281300D02*
Y289300D01*
X349900Y285300D02*
X357900D01*
X353900Y281300D02*
Y289300D01*
X389400Y293100D02*
X397400D01*
X393400Y289100D02*
Y297100D01*
X329100Y310600D02*
X337100D01*
X333100Y306600D02*
Y314600D01*
X341900Y295800D02*
X349900D01*
X345900Y291800D02*
Y299800D01*
X339900Y299300D02*
X347900D01*
X343900Y295300D02*
Y303300D01*
X330200Y299900D02*
X338200D01*
X334200Y295900D02*
Y303900D01*
X363800Y312600D02*
X371800D01*
X367800Y308600D02*
Y316600D01*
X362000Y310550D02*
X370000D01*
X366000Y306550D02*
Y314550D01*
X355500Y301100D02*
X363500D01*
X359500Y297100D02*
Y305100D01*
X357900Y298920D02*
X365900D01*
X361900Y294920D02*
Y302920D01*
X379700Y296700D02*
X387700D01*
X383700Y292700D02*
Y300700D01*
Y307200D02*
X391700D01*
X387700Y303200D02*
Y311200D01*
X110500Y324500D02*
X118500D01*
X114500Y320500D02*
Y328500D01*
X138000Y319000D02*
X146000D01*
X142000Y315000D02*
Y323000D01*
X142500Y324500D02*
X150500D01*
X146500Y320500D02*
Y328500D01*
X308300Y322500D02*
X316300D01*
X312300Y318500D02*
Y326500D01*
X309800Y326200D02*
X317800D01*
X313800Y322200D02*
Y330200D01*
X329500Y326200D02*
X337500D01*
X333500Y322200D02*
Y330200D01*
X329300Y320400D02*
X337300D01*
X333300Y316400D02*
Y324400D01*
X337800Y326200D02*
X345800D01*
X341800Y322200D02*
Y330200D01*
X365440Y320990D02*
X373440D01*
X369440Y316990D02*
Y324990D01*
X367400Y323600D02*
X375400D01*
X371400Y319600D02*
Y327600D01*
X369270Y326080D02*
X377270D01*
X373270Y322080D02*
Y330080D01*
X371220Y328390D02*
X379220D01*
X375220Y324390D02*
Y332390D01*
X126110Y353000D02*
X134110D01*
X130110Y349000D02*
Y357000D01*
X132000Y349500D02*
X140000D01*
X136000Y345500D02*
Y353500D01*
X138939Y334469D02*
X146939D01*
X142939Y330469D02*
Y338469D01*
X145250Y334220D02*
X153250D01*
X149250Y330220D02*
Y338220D01*
X188500Y344000D02*
X196500D01*
X192500Y340000D02*
Y348000D01*
X188500Y352000D02*
X196500D01*
X192500Y348000D02*
Y356000D01*
X246000Y351100D02*
X254000D01*
X250000Y347100D02*
Y355100D01*
X270380Y339230D02*
X278380D01*
X274380Y335230D02*
Y343230D01*
X338000Y343650D02*
X346000D01*
X342000Y339650D02*
Y347650D01*
X340660Y342540D02*
X348660D01*
X344660Y338540D02*
Y346540D01*
X388700Y335900D02*
X396700D01*
X392700Y331900D02*
Y339900D01*
X132000Y369000D02*
X140000D01*
X136000Y365000D02*
Y373000D01*
X296560Y355280D02*
X304560D01*
X300560Y351280D02*
Y359280D01*
X311500Y359500D02*
X319500D01*
X315500Y355500D02*
Y363500D01*
X332600Y360000D02*
X340600D01*
X336600Y356000D02*
Y364000D01*
X353800Y355600D02*
X361800D01*
X357800Y351600D02*
Y359600D01*
X371500Y359500D02*
X379500D01*
X375500Y355500D02*
Y363500D01*
X391750Y367290D02*
X399750D01*
X395750Y363290D02*
Y371290D01*
X393900Y372200D02*
X401900D01*
X397900Y368200D02*
Y376200D01*
X221000Y384000D02*
X229000D01*
X225000Y380000D02*
Y388000D01*
X317100Y381300D02*
X325100D01*
X321100Y377300D02*
Y385300D01*
X395100Y377400D02*
X403100D01*
X399100Y373400D02*
Y381400D01*
X218000Y396000D02*
X226000D01*
X222000Y392000D02*
Y400000D01*
X281900Y402200D02*
X289900D01*
X285900Y398200D02*
Y406200D01*
X287100Y394100D02*
X295100D01*
X291100Y390100D02*
Y398100D01*
X275500Y424600D02*
X283500D01*
X279500Y420600D02*
Y428600D01*
X349900Y425100D02*
X357900D01*
X353900Y421100D02*
Y429100D01*
X263300Y446200D02*
X271300D01*
X267300Y442200D02*
Y450200D01*
X256600Y445900D02*
X264600D01*
X260600Y441900D02*
Y449900D01*
X350010Y446970D02*
X358010D01*
X354010Y442970D02*
Y450970D01*
X387500Y441100D02*
X395500D01*
X391500Y437100D02*
Y445100D01*
X463990Y456210D02*
X471990D01*
X467990Y452210D02*
Y460210D01*
X393400Y482000D02*
X401400D01*
X397400Y478000D02*
Y486000D01*
X550000Y483750D02*
X808000D01*
X550000Y459750D02*
X808000D01*
X550000Y435750D02*
X808000D01*
X550000Y411750D02*
X808000D01*
X550000Y387750D02*
X808000D01*
X550000Y363750D02*
X808000D01*
X550000Y339750D02*
X808000D01*
X550000Y315750D02*
X808000D01*
X550000Y291750D02*
X808000D01*
X550000Y267750D02*
X808000D01*
X550000Y243750D02*
X808000D01*
X550000Y219750D02*
X808000D01*
X550000Y195750D02*
X808000D01*
X550000Y171750D02*
X808000D01*
X550000Y147750D02*
X808000D01*
X550000Y123750D02*
X808000D01*
X550000Y99750D02*
X808000D01*
X550000Y483750D02*
Y99750D01*
X634000Y483750D02*
Y99750D01*
X670000Y483750D02*
Y99750D01*
X706000Y483750D02*
Y99750D01*
X760000Y483750D02*
Y99750D01*
X808000Y483750D02*
Y99750D01*
X585500Y472500D02*
X584955Y473250D01*
X584136Y473625*
X583045*
X582227Y473250*
X581682Y472500*
Y471750*
X581955Y471000*
X582227Y470625*
X582773Y470250*
X584409Y469500*
X584955Y469125*
X585227Y468750*
X585500Y468000*
Y466875*
X584955Y466125*
X584136Y465750*
X583045*
X582227Y466125*
X581682Y466875*
X587955Y473625D02*
Y465750D01*
X594227Y473625D02*
X590409Y465750D01*
Y473625D02*
X594227D01*
X590409Y465750D02*
X594227D01*
X596682Y473625D02*
Y465750D01*
Y473625D02*
X600227D01*
X596682Y469875D02*
X598864D01*
X596682Y465750D02*
X600227D01*
X643864Y473625D02*
X643318Y473250D01*
X642773Y472500*
X642500Y471750*
X642227Y470625*
Y468750*
X642500Y467625*
X642773Y466875*
X643318Y466125*
X643864Y465750*
X644955*
X645500Y466125*
X646045Y466875*
X646318Y467625*
X646591Y468750*
Y470625*
X646318Y471750*
X646045Y472500*
X645500Y473250*
X644955Y473625*
X643864*
X644682Y467250D02*
X646318Y465000D01*
X650955Y473625D02*
Y465750D01*
X649045Y473625D02*
X652864D01*
X655318D02*
X657500Y469875D01*
Y465750*
X659682Y473625D02*
X657500Y469875D01*
X682045Y472500D02*
X681500Y473250D01*
X680682Y473625*
X679591*
X678773Y473250*
X678227Y472500*
Y471750*
X678500Y471000*
X678773Y470625*
X679318Y470250*
X680955Y469500*
X681500Y469125*
X681773Y468750*
X682045Y468000*
Y466875*
X681500Y466125*
X680682Y465750*
X679591*
X678773Y466125*
X678227Y466875*
X684500Y473625D02*
X686682Y469875D01*
Y465750*
X688864Y473625D02*
X686682Y469875D01*
X691318Y473625D02*
Y465750D01*
Y473625D02*
X693500Y465750D01*
X695682Y473625D02*
X693500Y465750D01*
X695682Y473625D02*
Y465750D01*
X717500Y473625D02*
Y465750D01*
Y473625D02*
X719955D01*
X720773Y473250*
X721045Y472875*
X721318Y472125*
Y471000*
X721045Y470250*
X720773Y469875*
X719955Y469500*
X717500*
X723773Y473625D02*
Y465750D01*
X727045*
X731682Y473625D02*
X729500Y465750D01*
X731682Y473625D02*
X733864Y465750D01*
X730318Y468375D02*
X733045D01*
X738227Y473625D02*
Y465750D01*
X736318Y473625D02*
X740136D01*
X742591D02*
Y465750D01*
Y473625D02*
X746136D01*
X742591Y469875D02*
X744773D01*
X742591Y465750D02*
X746136D01*
X748591Y473625D02*
Y465750D01*
Y473625D02*
X750500D01*
X751318Y473250*
X751864Y472500*
X752136Y471750*
X752409Y470625*
Y468750*
X752136Y467625*
X751864Y466875*
X751318Y466125*
X750500Y465750*
X748591*
X776682Y473625D02*
Y465750D01*
X774773Y473625D02*
X778591D01*
X782682D02*
X782136Y473250D01*
X781591Y472500*
X781318Y471750*
X781045Y470625*
Y468750*
X781318Y467625*
X781591Y466875*
X782136Y466125*
X782682Y465750*
X783773*
X784318Y466125*
X784864Y466875*
X785136Y467625*
X785409Y468750*
Y470625*
X785136Y471750*
X784864Y472500*
X784318Y473250*
X783773Y473625*
X782682*
X787864D02*
Y465750D01*
X791136*
X557364Y449625D02*
X556545Y449250D01*
X556273Y448500*
Y447750*
X556545Y447000*
X557091Y446625*
X558182Y446250*
X559000Y445875*
X559545Y445125*
X559818Y444375*
Y443250*
X559545Y442500*
X559273Y442125*
X558455Y441750*
X557364*
X556545Y442125*
X556273Y442500*
X556000Y443250*
Y444375*
X556273Y445125*
X556818Y445875*
X557636Y446250*
X558727Y446625*
X559273Y447000*
X559545Y447750*
Y448500*
X559273Y449250*
X558455Y449625*
X557364*
X644000Y448125D02*
X644545Y448500D01*
X645364Y449625*
Y441750*
X649455Y449625D02*
X648636Y449250D01*
X648091Y448125*
X647818Y446250*
Y445125*
X648091Y443250*
X648636Y442125*
X649455Y441750*
X650000*
X650818Y442125*
X651364Y443250*
X651636Y445125*
Y446250*
X651364Y448125*
X650818Y449250*
X650000Y449625*
X649455*
X654364Y447750D02*
Y448125D01*
X654636Y448875*
X654909Y449250*
X655455Y449625*
X656545*
X657091Y449250*
X657364Y448875*
X657636Y448125*
Y447375*
X657364Y446625*
X656818Y445500*
X654091Y441750*
X657909*
X682000Y447750D02*
X694000D01*
X688000Y441750D02*
Y453750D01*
X714636Y449625D02*
X716818Y445875D01*
Y441750*
X719000Y449625D02*
X716818Y445875D01*
X721455Y449625D02*
Y441750D01*
Y449625D02*
X725000D01*
X721455Y445875D02*
X723636D01*
X721455Y441750D02*
X725000D01*
X731273Y448500D02*
X730727Y449250D01*
X729909Y449625*
X728818*
X728000Y449250*
X727455Y448500*
Y447750*
X727727Y447000*
X728000Y446625*
X728545Y446250*
X730182Y445500*
X730727Y445125*
X731000Y444750*
X731273Y444000*
Y442875*
X730727Y442125*
X729909Y441750*
X728818*
X728000Y442125*
X727455Y442875*
X767818Y448500D02*
Y441750D01*
X765364Y445125D02*
X770273D01*
X777636Y451125D02*
X772727Y439125D01*
X780091Y445125D02*
X785000D01*
X789091Y449625D02*
X788273Y449250D01*
X787727Y448125*
X787455Y446250*
Y445125*
X787727Y443250*
X788273Y442125*
X789091Y441750*
X789636*
X790455Y442125*
X791000Y443250*
X791273Y445125*
Y446250*
X791000Y448125*
X790455Y449250*
X789636Y449625*
X789091*
X794000Y442500D02*
X793727Y442125D01*
X794000Y441750*
X794273Y442125*
X794000Y442500*
X798364Y449625D02*
X797545Y449250D01*
X797000Y448125*
X796727Y446250*
Y445125*
X797000Y443250*
X797545Y442125*
X798364Y441750*
X798909*
X799727Y442125*
X800273Y443250*
X800545Y445125*
Y446250*
X800273Y448125*
X799727Y449250*
X798909Y449625*
X798364*
X558727Y425625D02*
X556000Y420375D01*
X560091*
X558727Y425625D02*
Y417750D01*
X566364Y425625D02*
X563636Y417750D01*
X562545Y425625D02*
X566364D01*
X569091Y418500D02*
X568818Y418125D01*
X569091Y417750*
X569364Y418125*
X569091Y418500*
X572091Y423750D02*
Y424125D01*
X572364Y424875*
X572636Y425250*
X573182Y425625*
X574273*
X574818Y425250*
X575091Y424875*
X575364Y424125*
Y423375*
X575091Y422625*
X574545Y421500*
X571818Y417750*
X575636*
X580818Y425625D02*
X578091Y420375D01*
X582182*
X580818Y425625D02*
Y417750D01*
X646182Y423750D02*
Y424125D01*
X646455Y424875*
X646727Y425250*
X647273Y425625*
X648364*
X648909Y425250*
X649182Y424875*
X649455Y424125*
Y423375*
X649182Y422625*
X648636Y421500*
X645909Y417750*
X649727*
X653818Y425625D02*
X653000Y425250D01*
X652455Y424125*
X652182Y422250*
Y421125*
X652455Y419250*
X653000Y418125*
X653818Y417750*
X654364*
X655182Y418125*
X655727Y419250*
X656000Y421125*
Y422250*
X655727Y424125*
X655182Y425250*
X654364Y425625*
X653818*
X682000Y417750D02*
X694000Y429750D01*
X682000D02*
X694000Y417750D01*
X714636Y425625D02*
X716818Y421875D01*
Y417750*
X719000Y425625D02*
X716818Y421875D01*
X721455Y425625D02*
Y417750D01*
Y425625D02*
X725000D01*
X721455Y421875D02*
X723636D01*
X721455Y417750D02*
X725000D01*
X731273Y424500D02*
X730727Y425250D01*
X729909Y425625*
X728818*
X728000Y425250*
X727455Y424500*
Y423750*
X727727Y423000*
X728000Y422625*
X728545Y422250*
X730182Y421500*
X730727Y421125*
X731000Y420750*
X731273Y420000*
Y418875*
X730727Y418125*
X729909Y417750*
X728818*
X728000Y418125*
X727455Y418875*
X767818Y424500D02*
Y417750D01*
X765364Y421125D02*
X770273D01*
X777636Y427125D02*
X772727Y415125D01*
X780091Y421125D02*
X785000D01*
X789091Y425625D02*
X788273Y425250D01*
X787727Y424125*
X787455Y422250*
Y421125*
X787727Y419250*
X788273Y418125*
X789091Y417750*
X789636*
X790455Y418125*
X791000Y419250*
X791273Y421125*
Y422250*
X791000Y424125*
X790455Y425250*
X789636Y425625*
X789091*
X794000Y418500D02*
X793727Y418125D01*
X794000Y417750*
X794273Y418125*
X794000Y418500*
X798364Y425625D02*
X797545Y425250D01*
X797000Y424125*
X796727Y422250*
Y421125*
X797000Y419250*
X797545Y418125*
X798364Y417750*
X798909*
X799727Y418125*
X800273Y419250*
X800545Y421125*
Y422250*
X800273Y424125*
X799727Y425250*
X798909Y425625*
X798364*
X556000Y400125D02*
X556545Y400500D01*
X557364Y401625*
Y393750*
X559818Y400125D02*
X560364Y400500D01*
X561182Y401625*
Y393750*
X565000Y401625D02*
X564182Y401250D01*
X563909Y400500*
Y399750*
X564182Y399000*
X564727Y398625*
X565818Y398250*
X566636Y397875*
X567182Y397125*
X567455Y396375*
Y395250*
X567182Y394500*
X566909Y394125*
X566091Y393750*
X565000*
X564182Y394125*
X563909Y394500*
X563636Y395250*
Y396375*
X563909Y397125*
X564455Y397875*
X565273Y398250*
X566364Y398625*
X566909Y399000*
X567182Y399750*
Y400500*
X566909Y401250*
X566091Y401625*
X565000*
X570182Y394500D02*
X569909Y394125D01*
X570182Y393750*
X570455Y394125*
X570182Y394500*
X572909Y400125D02*
X573455Y400500D01*
X574273Y401625*
Y393750*
X576727Y400125D02*
X577273Y400500D01*
X578091Y401625*
Y393750*
X652455Y401625D02*
X649727D01*
X649455Y398250*
X649727Y398625*
X650545Y399000*
X651364*
X652182Y398625*
X652727Y397875*
X653000Y396750*
X652727Y396000*
X652455Y394875*
X651909Y394125*
X651091Y393750*
X650273*
X649455Y394125*
X649182Y394500*
X648909Y395250*
X682000Y393750D02*
X694000D01*
Y405750*
X682000*
Y393750*
X688000Y399750D02*
Y405750D01*
X714636Y401625D02*
X716818Y397875D01*
Y393750*
X719000Y401625D02*
X716818Y397875D01*
X721455Y401625D02*
Y393750D01*
Y401625D02*
X725000D01*
X721455Y397875D02*
X723636D01*
X721455Y393750D02*
X725000D01*
X731273Y400500D02*
X730727Y401250D01*
X729909Y401625*
X728818*
X728000Y401250*
X727455Y400500*
Y399750*
X727727Y399000*
X728000Y398625*
X728545Y398250*
X730182Y397500*
X730727Y397125*
X731000Y396750*
X731273Y396000*
Y394875*
X730727Y394125*
X729909Y393750*
X728818*
X728000Y394125*
X727455Y394875*
X767818Y400500D02*
Y393750D01*
X765364Y397125D02*
X770273D01*
X777636Y403125D02*
X772727Y391125D01*
X780091Y397125D02*
X785000D01*
X789091Y401625D02*
X788273Y401250D01*
X787727Y400125*
X787455Y398250*
Y397125*
X787727Y395250*
X788273Y394125*
X789091Y393750*
X789636*
X790455Y394125*
X791000Y395250*
X791273Y397125*
Y398250*
X791000Y400125*
X790455Y401250*
X789636Y401625*
X789091*
X794000Y394500D02*
X793727Y394125D01*
X794000Y393750*
X794273Y394125*
X794000Y394500*
X798364Y401625D02*
X797545Y401250D01*
X797000Y400125*
X796727Y398250*
Y397125*
X797000Y395250*
X797545Y394125*
X798364Y393750*
X798909*
X799727Y394125*
X800273Y395250*
X800545Y397125*
Y398250*
X800273Y400125*
X799727Y401250*
X798909Y401625*
X798364*
X556545Y377625D02*
X559545D01*
X557909Y374625*
X558727*
X559273Y374250*
X559545Y373875*
X559818Y372750*
Y372000*
X559545Y370875*
X559000Y370125*
X558182Y369750*
X557364*
X556545Y370125*
X556273Y370500*
X556000Y371250*
X565818Y375000D02*
X565545Y373875D01*
X565000Y373125*
X564182Y372750*
X563909*
X563091Y373125*
X562545Y373875*
X562273Y375000*
Y375375*
X562545Y376500*
X563091Y377250*
X563909Y377625*
X564182*
X565000Y377250*
X565545Y376500*
X565818Y375000*
Y373125*
X565545Y371250*
X565000Y370125*
X564182Y369750*
X563636*
X562818Y370125*
X562545Y370875*
X568545Y370500D02*
X568273Y370125D01*
X568545Y369750*
X568818Y370125*
X568545Y370500*
X571818Y377625D02*
X574818D01*
X573182Y374625*
X574000*
X574545Y374250*
X574818Y373875*
X575091Y372750*
Y372000*
X574818Y370875*
X574273Y370125*
X573455Y369750*
X572636*
X571818Y370125*
X571545Y370500*
X571273Y371250*
X581364Y377625D02*
X578636Y369750D01*
X577545Y377625D02*
X581364D01*
X647136Y376125D02*
X647682Y376500D01*
X648500Y377625*
Y369750*
X651227Y375750D02*
Y376125D01*
X651500Y376875*
X651773Y377250*
X652318Y377625*
X653409*
X653955Y377250*
X654227Y376875*
X654500Y376125*
Y375375*
X654227Y374625*
X653682Y373500*
X650955Y369750*
X654773*
X688000D02*
X694000Y375750D01*
X688000Y381750*
X682000Y375750*
X688000Y369750*
Y375750D02*
Y381750D01*
X714636Y377625D02*
X716818Y373875D01*
Y369750*
X719000Y377625D02*
X716818Y373875D01*
X721455Y377625D02*
Y369750D01*
Y377625D02*
X725000D01*
X721455Y373875D02*
X723636D01*
X721455Y369750D02*
X725000D01*
X731273Y376500D02*
X730727Y377250D01*
X729909Y377625*
X728818*
X728000Y377250*
X727455Y376500*
Y375750*
X727727Y375000*
X728000Y374625*
X728545Y374250*
X730182Y373500*
X730727Y373125*
X731000Y372750*
X731273Y372000*
Y370875*
X730727Y370125*
X729909Y369750*
X728818*
X728000Y370125*
X727455Y370875*
X767818Y376500D02*
Y369750D01*
X765364Y373125D02*
X770273D01*
X777636Y379125D02*
X772727Y367125D01*
X780091Y373125D02*
X785000D01*
X789091Y377625D02*
X788273Y377250D01*
X787727Y376125*
X787455Y374250*
Y373125*
X787727Y371250*
X788273Y370125*
X789091Y369750*
X789636*
X790455Y370125*
X791000Y371250*
X791273Y373125*
Y374250*
X791000Y376125*
X790455Y377250*
X789636Y377625*
X789091*
X794000Y370500D02*
X793727Y370125D01*
X794000Y369750*
X794273Y370125*
X794000Y370500*
X798364Y377625D02*
X797545Y377250D01*
X797000Y376125*
X796727Y374250*
Y373125*
X797000Y371250*
X797545Y370125*
X798364Y369750*
X798909*
X799727Y370125*
X800273Y371250*
X800545Y373125*
Y374250*
X800273Y376125*
X799727Y377250*
X798909Y377625*
X798364*
X556545Y353625D02*
X559545D01*
X557909Y350625*
X558727*
X559273Y350250*
X559545Y349875*
X559818Y348750*
Y348000*
X559545Y346875*
X559000Y346125*
X558182Y345750*
X557364*
X556545Y346125*
X556273Y346500*
X556000Y347250*
X562273Y352125D02*
X562818Y352500D01*
X563636Y353625*
Y345750*
X566364Y346500D02*
X566091Y346125D01*
X566364Y345750*
X566636Y346125*
X566364Y346500*
X572636Y353625D02*
X569909D01*
X569636Y350250*
X569909Y350625*
X570727Y351000*
X571545*
X572364Y350625*
X572909Y349875*
X573182Y348750*
X572909Y348000*
X572636Y346875*
X572091Y346125*
X571273Y345750*
X570455*
X569636Y346125*
X569364Y346500*
X569091Y347250*
X646318Y353625D02*
X649318D01*
X647682Y350625*
X648500*
X649045Y350250*
X649318Y349875*
X649591Y348750*
Y348000*
X649318Y346875*
X648773Y346125*
X647955Y345750*
X647136*
X646318Y346125*
X646045Y346500*
X645773Y347250*
X654773Y353625D02*
X652045Y348375D01*
X656136*
X654773Y353625D02*
Y345750D01*
X682000D02*
X694000D01*
X682000Y357750*
X694000*
X682000Y345750*
X714636Y353625D02*
X716818Y349875D01*
Y345750*
X719000Y353625D02*
X716818Y349875D01*
X721455Y353625D02*
Y345750D01*
Y353625D02*
X725000D01*
X721455Y349875D02*
X723636D01*
X721455Y345750D02*
X725000D01*
X731273Y352500D02*
X730727Y353250D01*
X729909Y353625*
X728818*
X728000Y353250*
X727455Y352500*
Y351750*
X727727Y351000*
X728000Y350625*
X728545Y350250*
X730182Y349500*
X730727Y349125*
X731000Y348750*
X731273Y348000*
Y346875*
X730727Y346125*
X729909Y345750*
X728818*
X728000Y346125*
X727455Y346875*
X767818Y352500D02*
Y345750D01*
X765364Y349125D02*
X770273D01*
X777636Y355125D02*
X772727Y343125D01*
X780091Y349125D02*
X785000D01*
X789091Y353625D02*
X788273Y353250D01*
X787727Y352125*
X787455Y350250*
Y349125*
X787727Y347250*
X788273Y346125*
X789091Y345750*
X789636*
X790455Y346125*
X791000Y347250*
X791273Y349125*
Y350250*
X791000Y352125*
X790455Y353250*
X789636Y353625*
X789091*
X794000Y346500D02*
X793727Y346125D01*
X794000Y345750*
X794273Y346125*
X794000Y346500*
X798364Y353625D02*
X797545Y353250D01*
X797000Y352125*
X796727Y350250*
Y349125*
X797000Y347250*
X797545Y346125*
X798364Y345750*
X798909*
X799727Y346125*
X800273Y347250*
X800545Y349125*
Y350250*
X800273Y352125*
X799727Y353250*
X798909Y353625*
X798364*
X558727Y329625D02*
X556000Y324375D01*
X560091*
X558727Y329625D02*
Y321750D01*
X563091Y329625D02*
X566091D01*
X564455Y326625*
X565273*
X565818Y326250*
X566091Y325875*
X566364Y324750*
Y324000*
X566091Y322875*
X565545Y322125*
X564727Y321750*
X563909*
X563091Y322125*
X562818Y322500*
X562545Y323250*
X569091Y322500D02*
X568818Y322125D01*
X569091Y321750*
X569364Y322125*
X569091Y322500*
X572364Y329625D02*
X575364D01*
X573727Y326625*
X574545*
X575091Y326250*
X575364Y325875*
X575636Y324750*
Y324000*
X575364Y322875*
X574818Y322125*
X574000Y321750*
X573182*
X572364Y322125*
X572091Y322500*
X571818Y323250*
X578091Y328125D02*
X578636Y328500D01*
X579455Y329625*
Y321750*
X652455Y328500D02*
X652182Y329250D01*
X651364Y329625*
X650818*
X650000Y329250*
X649455Y328125*
X649182Y326250*
Y324375*
X649455Y322875*
X650000Y322125*
X650818Y321750*
X651091*
X651909Y322125*
X652455Y322875*
X652727Y324000*
Y324375*
X652455Y325500*
X651909Y326250*
X651091Y326625*
X650818*
X650000Y326250*
X649455Y325500*
X649182Y324375*
X682000Y321750D02*
X694000Y333750D01*
Y321750*
X682000Y333750*
Y321750*
X714636Y329625D02*
X716818Y325875D01*
Y321750*
X719000Y329625D02*
X716818Y325875D01*
X721455Y329625D02*
Y321750D01*
Y329625D02*
X725000D01*
X721455Y325875D02*
X723636D01*
X721455Y321750D02*
X725000D01*
X731273Y328500D02*
X730727Y329250D01*
X729909Y329625*
X728818*
X728000Y329250*
X727455Y328500*
Y327750*
X727727Y327000*
X728000Y326625*
X728545Y326250*
X730182Y325500*
X730727Y325125*
X731000Y324750*
X731273Y324000*
Y322875*
X730727Y322125*
X729909Y321750*
X728818*
X728000Y322125*
X727455Y322875*
X767818Y328500D02*
Y321750D01*
X765364Y325125D02*
X770273D01*
X777636Y331125D02*
X772727Y319125D01*
X780091Y325125D02*
X785000D01*
X789091Y329625D02*
X788273Y329250D01*
X787727Y328125*
X787455Y326250*
Y325125*
X787727Y323250*
X788273Y322125*
X789091Y321750*
X789636*
X790455Y322125*
X791000Y323250*
X791273Y325125*
Y326250*
X791000Y328125*
X790455Y329250*
X789636Y329625*
X789091*
X794000Y322500D02*
X793727Y322125D01*
X794000Y321750*
X794273Y322125*
X794000Y322500*
X798364Y329625D02*
X797545Y329250D01*
X797000Y328125*
X796727Y326250*
Y325125*
X797000Y323250*
X797545Y322125*
X798364Y321750*
X798909*
X799727Y322125*
X800273Y323250*
X800545Y325125*
Y326250*
X800273Y328125*
X799727Y329250*
X798909Y329625*
X798364*
X556545Y305625D02*
X559545D01*
X557909Y302625*
X558727*
X559273Y302250*
X559545Y301875*
X559818Y300750*
Y300000*
X559545Y298875*
X559000Y298125*
X558182Y297750*
X557364*
X556545Y298125*
X556273Y298500*
X556000Y299250*
X565818Y305625D02*
X563091D01*
X562818Y302250*
X563091Y302625*
X563909Y303000*
X564727*
X565545Y302625*
X566091Y301875*
X566364Y300750*
X566091Y300000*
X565818Y298875*
X565273Y298125*
X564455Y297750*
X563636*
X562818Y298125*
X562545Y298500*
X562273Y299250*
X646318Y305625D02*
X649318D01*
X647682Y302625*
X648500*
X649045Y302250*
X649318Y301875*
X649591Y300750*
Y300000*
X649318Y298875*
X648773Y298125*
X647955Y297750*
X647136*
X646318Y298125*
X646045Y298500*
X645773Y299250*
X655591Y305625D02*
X652864D01*
X652591Y302250*
X652864Y302625*
X653682Y303000*
X654500*
X655318Y302625*
X655864Y301875*
X656136Y300750*
X655864Y300000*
X655591Y298875*
X655045Y298125*
X654227Y297750*
X653409*
X652591Y298125*
X652318Y298500*
X652045Y299250*
X682000Y303750D02*
X694000D01*
X688000Y297750D02*
Y309750D01*
X692745Y313050D02*
X691000Y306750D01*
X692745Y313050D02*
X694491Y306750D01*
X691655Y308850D02*
X693836D01*
X714636Y305625D02*
X716818Y301875D01*
Y297750*
X719000Y305625D02*
X716818Y301875D01*
X721455Y305625D02*
Y297750D01*
Y305625D02*
X725000D01*
X721455Y301875D02*
X723636D01*
X721455Y297750D02*
X725000D01*
X731273Y304500D02*
X730727Y305250D01*
X729909Y305625*
X728818*
X728000Y305250*
X727455Y304500*
Y303750*
X727727Y303000*
X728000Y302625*
X728545Y302250*
X730182Y301500*
X730727Y301125*
X731000Y300750*
X731273Y300000*
Y298875*
X730727Y298125*
X729909Y297750*
X728818*
X728000Y298125*
X727455Y298875*
X767818Y304500D02*
Y297750D01*
X765364Y301125D02*
X770273D01*
X777636Y307125D02*
X772727Y295125D01*
X780091Y301125D02*
X785000D01*
X789091Y305625D02*
X788273Y305250D01*
X787727Y304125*
X787455Y302250*
Y301125*
X787727Y299250*
X788273Y298125*
X789091Y297750*
X789636*
X790455Y298125*
X791000Y299250*
X791273Y301125*
Y302250*
X791000Y304125*
X790455Y305250*
X789636Y305625*
X789091*
X794000Y298500D02*
X793727Y298125D01*
X794000Y297750*
X794273Y298125*
X794000Y298500*
X798364Y305625D02*
X797545Y305250D01*
X797000Y304125*
X796727Y302250*
Y301125*
X797000Y299250*
X797545Y298125*
X798364Y297750*
X798909*
X799727Y298125*
X800273Y299250*
X800545Y301125*
Y302250*
X800273Y304125*
X799727Y305250*
X798909Y305625*
X798364*
X556545Y281625D02*
X559545D01*
X557909Y278625*
X558727*
X559273Y278250*
X559545Y277875*
X559818Y276750*
Y276000*
X559545Y274875*
X559000Y274125*
X558182Y273750*
X557364*
X556545Y274125*
X556273Y274500*
X556000Y275250*
X565818Y281625D02*
X563091D01*
X562818Y278250*
X563091Y278625*
X563909Y279000*
X564727*
X565545Y278625*
X566091Y277875*
X566364Y276750*
X566091Y276000*
X565818Y274875*
X565273Y274125*
X564455Y273750*
X563636*
X562818Y274125*
X562545Y274500*
X562273Y275250*
X569091Y274500D02*
X568818Y274125D01*
X569091Y273750*
X569364Y274125*
X569091Y274500*
X574545Y281625D02*
X571818Y276375D01*
X575909*
X574545Y281625D02*
Y273750D01*
X578909Y281625D02*
X581909D01*
X580273Y278625*
X581091*
X581636Y278250*
X581909Y277875*
X582182Y276750*
Y276000*
X581909Y274875*
X581364Y274125*
X580545Y273750*
X579727*
X578909Y274125*
X578636Y274500*
X578364Y275250*
X651636Y281625D02*
X648909Y276375D01*
X653000*
X651636Y281625D02*
Y273750D01*
X682000Y279750D02*
X694000D01*
X688000Y273750D02*
Y285750D01*
X691000Y289050D02*
Y282750D01*
Y289050D02*
X692964D01*
X693618Y288750*
X693836Y288450*
X694055Y287850*
Y287250*
X693836Y286650*
X693618Y286350*
X692964Y286050*
X691000D02*
X692964D01*
X693618Y285750*
X693836Y285450*
X694055Y284850*
Y283950*
X693836Y283350*
X693618Y283050*
X692964Y282750*
X691000*
X714636Y281625D02*
X716818Y277875D01*
Y273750*
X719000Y281625D02*
X716818Y277875D01*
X721455Y281625D02*
Y273750D01*
Y281625D02*
X725000D01*
X721455Y277875D02*
X723636D01*
X721455Y273750D02*
X725000D01*
X731273Y280500D02*
X730727Y281250D01*
X729909Y281625*
X728818*
X728000Y281250*
X727455Y280500*
Y279750*
X727727Y279000*
X728000Y278625*
X728545Y278250*
X730182Y277500*
X730727Y277125*
X731000Y276750*
X731273Y276000*
Y274875*
X730727Y274125*
X729909Y273750*
X728818*
X728000Y274125*
X727455Y274875*
X767818Y280500D02*
Y273750D01*
X765364Y277125D02*
X770273D01*
X777636Y283125D02*
X772727Y271125D01*
X780091Y277125D02*
X785000D01*
X789091Y281625D02*
X788273Y281250D01*
X787727Y280125*
X787455Y278250*
Y277125*
X787727Y275250*
X788273Y274125*
X789091Y273750*
X789636*
X790455Y274125*
X791000Y275250*
X791273Y277125*
Y278250*
X791000Y280125*
X790455Y281250*
X789636Y281625*
X789091*
X794000Y274500D02*
X793727Y274125D01*
X794000Y273750*
X794273Y274125*
X794000Y274500*
X798364Y281625D02*
X797545Y281250D01*
X797000Y280125*
X796727Y278250*
Y277125*
X797000Y275250*
X797545Y274125*
X798364Y273750*
X798909*
X799727Y274125*
X800273Y275250*
X800545Y277125*
Y278250*
X800273Y280125*
X799727Y281250*
X798909Y281625*
X798364*
X556273Y255750D02*
Y256125D01*
X556545Y256875*
X556818Y257250*
X557364Y257625*
X558455*
X559000Y257250*
X559273Y256875*
X559545Y256125*
Y255375*
X559273Y254625*
X558727Y253500*
X556000Y249750*
X559818*
X562818Y257625D02*
X565818D01*
X564182Y254625*
X565000*
X565545Y254250*
X565818Y253875*
X566091Y252750*
Y252000*
X565818Y250875*
X565273Y250125*
X564455Y249750*
X563636*
X562818Y250125*
X562545Y250500*
X562273Y251250*
X568818Y250500D02*
X568545Y250125D01*
X568818Y249750*
X569091Y250125*
X568818Y250500*
X574818Y256500D02*
X574545Y257250D01*
X573727Y257625*
X573182*
X572364Y257250*
X571818Y256125*
X571545Y254250*
Y252375*
X571818Y250875*
X572364Y250125*
X573182Y249750*
X573455*
X574273Y250125*
X574818Y250875*
X575091Y252000*
Y252375*
X574818Y253500*
X574273Y254250*
X573455Y254625*
X573182*
X572364Y254250*
X571818Y253500*
X571545Y252375*
X577818Y255750D02*
Y256125D01*
X578091Y256875*
X578364Y257250*
X578909Y257625*
X580000*
X580545Y257250*
X580818Y256875*
X581091Y256125*
Y255375*
X580818Y254625*
X580273Y253500*
X577545Y249750*
X581364*
X590091Y255000D02*
X593091Y249750D01*
Y255000D02*
X590091Y249750D01*
X605364Y255000D02*
X605091Y253875D01*
X604545Y253125*
X603727Y252750*
X603455*
X602636Y253125*
X602091Y253875*
X601818Y255000*
Y255375*
X602091Y256500*
X602636Y257250*
X603455Y257625*
X603727*
X604545Y257250*
X605091Y256500*
X605364Y255000*
Y253125*
X605091Y251250*
X604545Y250125*
X603727Y249750*
X603182*
X602364Y250125*
X602091Y250875*
X609182Y257625D02*
X608364Y257250D01*
X608091Y256500*
Y255750*
X608364Y255000*
X608909Y254625*
X610000Y254250*
X610818Y253875*
X611364Y253125*
X611636Y252375*
Y251250*
X611364Y250500*
X611091Y250125*
X610273Y249750*
X609182*
X608364Y250125*
X608091Y250500*
X607818Y251250*
Y252375*
X608091Y253125*
X608636Y253875*
X609455Y254250*
X610545Y254625*
X611091Y255000*
X611364Y255750*
Y256500*
X611091Y257250*
X610273Y257625*
X609182*
X614364Y250500D02*
X614091Y250125D01*
X614364Y249750*
X614636Y250125*
X614364Y250500*
X619818Y257625D02*
X617091Y252375D01*
X621182*
X619818Y257625D02*
Y249750D01*
X624182Y257625D02*
X627182D01*
X625545Y254625*
X626364*
X626909Y254250*
X627182Y253875*
X627455Y252750*
Y252000*
X627182Y250875*
X626636Y250125*
X625818Y249750*
X625000*
X624182Y250125*
X623909Y250500*
X623636Y251250*
X650273Y256125D02*
X650818Y256500D01*
X651636Y257625*
Y249750*
X682000Y255750D02*
X694000D01*
X688000Y249750D02*
Y261750D01*
X694273Y263550D02*
X694055Y264150D01*
X693618Y264750*
X693182Y265050*
X692309*
X691873Y264750*
X691436Y264150*
X691218Y263550*
X691000Y262650*
Y261150*
X691218Y260250*
X691436Y259650*
X691873Y259050*
X692309Y258750*
X693182*
X693618Y259050*
X694055Y259650*
X694273Y260250*
X714636Y257625D02*
X716818Y253875D01*
Y249750*
X719000Y257625D02*
X716818Y253875D01*
X721455Y257625D02*
Y249750D01*
Y257625D02*
X725000D01*
X721455Y253875D02*
X723636D01*
X721455Y249750D02*
X725000D01*
X731273Y256500D02*
X730727Y257250D01*
X729909Y257625*
X728818*
X728000Y257250*
X727455Y256500*
Y255750*
X727727Y255000*
X728000Y254625*
X728545Y254250*
X730182Y253500*
X730727Y253125*
X731000Y252750*
X731273Y252000*
Y250875*
X730727Y250125*
X729909Y249750*
X728818*
X728000Y250125*
X727455Y250875*
X767818Y256500D02*
Y249750D01*
X765364Y253125D02*
X770273D01*
X777636Y259125D02*
X772727Y247125D01*
X780091Y253125D02*
X785000D01*
X789091Y257625D02*
X788273Y257250D01*
X787727Y256125*
X787455Y254250*
Y253125*
X787727Y251250*
X788273Y250125*
X789091Y249750*
X789636*
X790455Y250125*
X791000Y251250*
X791273Y253125*
Y254250*
X791000Y256125*
X790455Y257250*
X789636Y257625*
X789091*
X794000Y250500D02*
X793727Y250125D01*
X794000Y249750*
X794273Y250125*
X794000Y250500*
X798364Y257625D02*
X797545Y257250D01*
X797000Y256125*
X796727Y254250*
Y253125*
X797000Y251250*
X797545Y250125*
X798364Y249750*
X798909*
X799727Y250125*
X800273Y251250*
X800545Y253125*
Y254250*
X800273Y256125*
X799727Y257250*
X798909Y257625*
X798364*
X556273Y231750D02*
Y232125D01*
X556545Y232875*
X556818Y233250*
X557364Y233625*
X558455*
X559000Y233250*
X559273Y232875*
X559545Y232125*
Y231375*
X559273Y230625*
X558727Y229500*
X556000Y225750*
X559818*
X562818Y233625D02*
X565818D01*
X564182Y230625*
X565000*
X565545Y230250*
X565818Y229875*
X566091Y228750*
Y228000*
X565818Y226875*
X565273Y226125*
X564455Y225750*
X563636*
X562818Y226125*
X562545Y226500*
X562273Y227250*
X568818Y226500D02*
X568545Y226125D01*
X568818Y225750*
X569091Y226125*
X568818Y226500*
X574818Y232500D02*
X574545Y233250D01*
X573727Y233625*
X573182*
X572364Y233250*
X571818Y232125*
X571545Y230250*
Y228375*
X571818Y226875*
X572364Y226125*
X573182Y225750*
X573455*
X574273Y226125*
X574818Y226875*
X575091Y228000*
Y228375*
X574818Y229500*
X574273Y230250*
X573455Y230625*
X573182*
X572364Y230250*
X571818Y229500*
X571545Y228375*
X577818Y231750D02*
Y232125D01*
X578091Y232875*
X578364Y233250*
X578909Y233625*
X580000*
X580545Y233250*
X580818Y232875*
X581091Y232125*
Y231375*
X580818Y230625*
X580273Y229500*
X577545Y225750*
X581364*
X590091Y231000D02*
X593091Y225750D01*
Y231000D02*
X590091Y225750D01*
X601818Y232125D02*
X602364Y232500D01*
X603182Y233625*
Y225750*
X606182Y233625D02*
X609182D01*
X607545Y230625*
X608364*
X608909Y230250*
X609182Y229875*
X609455Y228750*
Y228000*
X609182Y226875*
X608636Y226125*
X607818Y225750*
X607000*
X606182Y226125*
X605909Y226500*
X605636Y227250*
X615727Y233625D02*
X613000Y225750D01*
X611909Y233625D02*
X615727D01*
X618455Y226500D02*
X618182Y226125D01*
X618455Y225750*
X618727Y226125*
X618455Y226500*
X622545Y233625D02*
X621727Y233250D01*
X621455Y232500*
Y231750*
X621727Y231000*
X622273Y230625*
X623364Y230250*
X624182Y229875*
X624727Y229125*
X625000Y228375*
Y227250*
X624727Y226500*
X624455Y226125*
X623636Y225750*
X622545*
X621727Y226125*
X621455Y226500*
X621182Y227250*
Y228375*
X621455Y229125*
X622000Y229875*
X622818Y230250*
X623909Y230625*
X624455Y231000*
X624727Y231750*
Y232500*
X624455Y233250*
X623636Y233625*
X622545*
X649318Y231750D02*
Y232125D01*
X649591Y232875*
X649864Y233250*
X650409Y233625*
X651500*
X652045Y233250*
X652318Y232875*
X652591Y232125*
Y231375*
X652318Y230625*
X651773Y229500*
X649045Y225750*
X652864*
X682000Y231750D02*
X694000D01*
X688000Y225750D02*
Y237750D01*
X691000Y241050D02*
Y234750D01*
Y241050D02*
X692527D01*
X693182Y240750*
X693618Y240150*
X693836Y239550*
X694055Y238650*
Y237150*
X693836Y236250*
X693618Y235650*
X693182Y235050*
X692527Y234750*
X691000*
X714636Y233625D02*
X716818Y229875D01*
Y225750*
X719000Y233625D02*
X716818Y229875D01*
X721455Y233625D02*
Y225750D01*
Y233625D02*
X725000D01*
X721455Y229875D02*
X723636D01*
X721455Y225750D02*
X725000D01*
X731273Y232500D02*
X730727Y233250D01*
X729909Y233625*
X728818*
X728000Y233250*
X727455Y232500*
Y231750*
X727727Y231000*
X728000Y230625*
X728545Y230250*
X730182Y229500*
X730727Y229125*
X731000Y228750*
X731273Y228000*
Y226875*
X730727Y226125*
X729909Y225750*
X728818*
X728000Y226125*
X727455Y226875*
X767818Y232500D02*
Y225750D01*
X765364Y229125D02*
X770273D01*
X777636Y235125D02*
X772727Y223125D01*
X780091Y229125D02*
X785000D01*
X789091Y233625D02*
X788273Y233250D01*
X787727Y232125*
X787455Y230250*
Y229125*
X787727Y227250*
X788273Y226125*
X789091Y225750*
X789636*
X790455Y226125*
X791000Y227250*
X791273Y229125*
Y230250*
X791000Y232125*
X790455Y233250*
X789636Y233625*
X789091*
X794000Y226500D02*
X793727Y226125D01*
X794000Y225750*
X794273Y226125*
X794000Y226500*
X798364Y233625D02*
X797545Y233250D01*
X797000Y232125*
X796727Y230250*
Y229125*
X797000Y227250*
X797545Y226125*
X798364Y225750*
X798909*
X799727Y226125*
X800273Y227250*
X800545Y229125*
Y230250*
X800273Y232125*
X799727Y233250*
X798909Y233625*
X798364*
X559545Y207000D02*
X559273Y205875D01*
X558727Y205125*
X557909Y204750*
X557636*
X556818Y205125*
X556273Y205875*
X556000Y207000*
Y207375*
X556273Y208500*
X556818Y209250*
X557636Y209625*
X557909*
X558727Y209250*
X559273Y208500*
X559545Y207000*
Y205125*
X559273Y203250*
X558727Y202125*
X557909Y201750*
X557364*
X556545Y202125*
X556273Y202875*
X563364Y209625D02*
X562545Y209250D01*
X562273Y208500*
Y207750*
X562545Y207000*
X563091Y206625*
X564182Y206250*
X565000Y205875*
X565545Y205125*
X565818Y204375*
Y203250*
X565545Y202500*
X565273Y202125*
X564455Y201750*
X563364*
X562545Y202125*
X562273Y202500*
X562000Y203250*
Y204375*
X562273Y205125*
X562818Y205875*
X563636Y206250*
X564727Y206625*
X565273Y207000*
X565545Y207750*
Y208500*
X565273Y209250*
X564455Y209625*
X563364*
X568545Y202500D02*
X568273Y202125D01*
X568545Y201750*
X568818Y202125*
X568545Y202500*
X574000Y209625D02*
X571273Y204375D01*
X575364*
X574000Y209625D02*
Y201750D01*
X578364Y209625D02*
X581364D01*
X579727Y206625*
X580545*
X581091Y206250*
X581364Y205875*
X581636Y204750*
Y204000*
X581364Y202875*
X580818Y202125*
X580000Y201750*
X579182*
X578364Y202125*
X578091Y202500*
X577818Y203250*
X649318Y207750D02*
Y208125D01*
X649591Y208875*
X649864Y209250*
X650409Y209625*
X651500*
X652045Y209250*
X652318Y208875*
X652591Y208125*
Y207375*
X652318Y206625*
X651773Y205500*
X649045Y201750*
X652864*
X682000Y207750D02*
X694000D01*
X688000Y201750D02*
Y213750D01*
X691000Y217050D02*
Y210750D01*
Y217050D02*
X693836D01*
X691000Y214050D02*
X692745D01*
X691000Y210750D02*
X693836D01*
X714636Y209625D02*
X716818Y205875D01*
Y201750*
X719000Y209625D02*
X716818Y205875D01*
X721455Y209625D02*
Y201750D01*
Y209625D02*
X725000D01*
X721455Y205875D02*
X723636D01*
X721455Y201750D02*
X725000D01*
X731273Y208500D02*
X730727Y209250D01*
X729909Y209625*
X728818*
X728000Y209250*
X727455Y208500*
Y207750*
X727727Y207000*
X728000Y206625*
X728545Y206250*
X730182Y205500*
X730727Y205125*
X731000Y204750*
X731273Y204000*
Y202875*
X730727Y202125*
X729909Y201750*
X728818*
X728000Y202125*
X727455Y202875*
X767818Y208500D02*
Y201750D01*
X765364Y205125D02*
X770273D01*
X777636Y211125D02*
X772727Y199125D01*
X780091Y205125D02*
X785000D01*
X789091Y209625D02*
X788273Y209250D01*
X787727Y208125*
X787455Y206250*
Y205125*
X787727Y203250*
X788273Y202125*
X789091Y201750*
X789636*
X790455Y202125*
X791000Y203250*
X791273Y205125*
Y206250*
X791000Y208125*
X790455Y209250*
X789636Y209625*
X789091*
X794000Y202500D02*
X793727Y202125D01*
X794000Y201750*
X794273Y202125*
X794000Y202500*
X798364Y209625D02*
X797545Y209250D01*
X797000Y208125*
X796727Y206250*
Y205125*
X797000Y203250*
X797545Y202125*
X798364Y201750*
X798909*
X799727Y202125*
X800273Y203250*
X800545Y205125*
Y206250*
X800273Y208125*
X799727Y209250*
X798909Y209625*
X798364*
X556000Y184125D02*
X556545Y184500D01*
X557364Y185625*
Y177750*
X563364Y183000D02*
X563091Y181875D01*
X562545Y181125*
X561727Y180750*
X561455*
X560636Y181125*
X560091Y181875*
X559818Y183000*
Y183375*
X560091Y184500*
X560636Y185250*
X561455Y185625*
X561727*
X562545Y185250*
X563091Y184500*
X563364Y183000*
Y181125*
X563091Y179250*
X562545Y178125*
X561727Y177750*
X561182*
X560364Y178125*
X560091Y178875*
X566091Y178500D02*
X565818Y178125D01*
X566091Y177750*
X566364Y178125*
X566091Y178500*
X572091Y184500D02*
X571818Y185250D01*
X571000Y185625*
X570455*
X569636Y185250*
X569091Y184125*
X568818Y182250*
Y180375*
X569091Y178875*
X569636Y178125*
X570455Y177750*
X570727*
X571545Y178125*
X572091Y178875*
X572364Y180000*
Y180375*
X572091Y181500*
X571545Y182250*
X570727Y182625*
X570455*
X569636Y182250*
X569091Y181500*
X568818Y180375*
X576182Y185625D02*
X575364Y185250D01*
X575091Y184500*
Y183750*
X575364Y183000*
X575909Y182625*
X577000Y182250*
X577818Y181875*
X578364Y181125*
X578636Y180375*
Y179250*
X578364Y178500*
X578091Y178125*
X577273Y177750*
X576182*
X575364Y178125*
X575091Y178500*
X574818Y179250*
Y180375*
X575091Y181125*
X575636Y181875*
X576455Y182250*
X577545Y182625*
X578091Y183000*
X578364Y183750*
Y184500*
X578091Y185250*
X577273Y185625*
X576182*
X651636D02*
X648909Y180375D01*
X653000*
X651636Y185625D02*
Y177750D01*
X682000Y183750D02*
X694000D01*
X688000Y177750D02*
Y189750D01*
X691000Y193050D02*
Y186750D01*
Y193050D02*
X693836D01*
X691000Y190050D02*
X692745D01*
X714636Y185625D02*
X716818Y181875D01*
Y177750*
X719000Y185625D02*
X716818Y181875D01*
X721455Y185625D02*
Y177750D01*
Y185625D02*
X725000D01*
X721455Y181875D02*
X723636D01*
X721455Y177750D02*
X725000D01*
X731273Y184500D02*
X730727Y185250D01*
X729909Y185625*
X728818*
X728000Y185250*
X727455Y184500*
Y183750*
X727727Y183000*
X728000Y182625*
X728545Y182250*
X730182Y181500*
X730727Y181125*
X731000Y180750*
X731273Y180000*
Y178875*
X730727Y178125*
X729909Y177750*
X728818*
X728000Y178125*
X727455Y178875*
X767818Y184500D02*
Y177750D01*
X765364Y181125D02*
X770273D01*
X777636Y187125D02*
X772727Y175125D01*
X780091Y181125D02*
X785000D01*
X789091Y185625D02*
X788273Y185250D01*
X787727Y184125*
X787455Y182250*
Y181125*
X787727Y179250*
X788273Y178125*
X789091Y177750*
X789636*
X790455Y178125*
X791000Y179250*
X791273Y181125*
Y182250*
X791000Y184125*
X790455Y185250*
X789636Y185625*
X789091*
X794000Y178500D02*
X793727Y178125D01*
X794000Y177750*
X794273Y178125*
X794000Y178500*
X798364Y185625D02*
X797545Y185250D01*
X797000Y184125*
X796727Y182250*
Y181125*
X797000Y179250*
X797545Y178125*
X798364Y177750*
X798909*
X799727Y178125*
X800273Y179250*
X800545Y181125*
Y182250*
X800273Y184125*
X799727Y185250*
X798909Y185625*
X798364*
X556000Y160125D02*
X556545Y160500D01*
X557364Y161625*
Y153750*
X563364Y159000D02*
X563091Y157875D01*
X562545Y157125*
X561727Y156750*
X561455*
X560636Y157125*
X560091Y157875*
X559818Y159000*
Y159375*
X560091Y160500*
X560636Y161250*
X561455Y161625*
X561727*
X562545Y161250*
X563091Y160500*
X563364Y159000*
Y157125*
X563091Y155250*
X562545Y154125*
X561727Y153750*
X561182*
X560364Y154125*
X560091Y154875*
X566091Y154500D02*
X565818Y154125D01*
X566091Y153750*
X566364Y154125*
X566091Y154500*
X572091Y160500D02*
X571818Y161250D01*
X571000Y161625*
X570455*
X569636Y161250*
X569091Y160125*
X568818Y158250*
Y156375*
X569091Y154875*
X569636Y154125*
X570455Y153750*
X570727*
X571545Y154125*
X572091Y154875*
X572364Y156000*
Y156375*
X572091Y157500*
X571545Y158250*
X570727Y158625*
X570455*
X569636Y158250*
X569091Y157500*
X568818Y156375*
X576182Y161625D02*
X575364Y161250D01*
X575091Y160500*
Y159750*
X575364Y159000*
X575909Y158625*
X577000Y158250*
X577818Y157875*
X578364Y157125*
X578636Y156375*
Y155250*
X578364Y154500*
X578091Y154125*
X577273Y153750*
X576182*
X575364Y154125*
X575091Y154500*
X574818Y155250*
Y156375*
X575091Y157125*
X575636Y157875*
X576455Y158250*
X577545Y158625*
X578091Y159000*
X578364Y159750*
Y160500*
X578091Y161250*
X577273Y161625*
X576182*
X587364Y159000D02*
X590364Y153750D01*
Y159000D02*
X587364Y153750D01*
X602636Y161625D02*
X599909D01*
X599636Y158250*
X599909Y158625*
X600727Y159000*
X601545*
X602364Y158625*
X602909Y157875*
X603182Y156750*
X602909Y156000*
X602636Y154875*
X602091Y154125*
X601273Y153750*
X600455*
X599636Y154125*
X599364Y154500*
X599091Y155250*
X605636Y160125D02*
X606182Y160500D01*
X607000Y161625*
Y153750*
X609727Y154500D02*
X609455Y154125D01*
X609727Y153750*
X610000Y154125*
X609727Y154500*
X612455Y160125D02*
X613000Y160500D01*
X613818Y161625*
Y153750*
X617636Y161625D02*
X616818Y161250D01*
X616545Y160500*
Y159750*
X616818Y159000*
X617364Y158625*
X618455Y158250*
X619273Y157875*
X619818Y157125*
X620091Y156375*
Y155250*
X619818Y154500*
X619545Y154125*
X618727Y153750*
X617636*
X616818Y154125*
X616545Y154500*
X616273Y155250*
Y156375*
X616545Y157125*
X617091Y157875*
X617909Y158250*
X619000Y158625*
X619545Y159000*
X619818Y159750*
Y160500*
X619545Y161250*
X618727Y161625*
X617636*
X649318Y159750D02*
Y160125D01*
X649591Y160875*
X649864Y161250*
X650409Y161625*
X651500*
X652045Y161250*
X652318Y160875*
X652591Y160125*
Y159375*
X652318Y158625*
X651773Y157500*
X649045Y153750*
X652864*
X682000Y159750D02*
X694000D01*
X688000Y153750D02*
Y165750D01*
X694273Y167550D02*
X694055Y168150D01*
X693618Y168750*
X693182Y169050*
X692309*
X691873Y168750*
X691436Y168150*
X691218Y167550*
X691000Y166650*
Y165150*
X691218Y164250*
X691436Y163650*
X691873Y163050*
X692309Y162750*
X693182*
X693618Y163050*
X694055Y163650*
X694273Y164250*
Y165150*
X693182D02*
X694273D01*
X714636Y161625D02*
X716818Y157875D01*
Y153750*
X719000Y161625D02*
X716818Y157875D01*
X721455Y161625D02*
Y153750D01*
Y161625D02*
X725000D01*
X721455Y157875D02*
X723636D01*
X721455Y153750D02*
X725000D01*
X731273Y160500D02*
X730727Y161250D01*
X729909Y161625*
X728818*
X728000Y161250*
X727455Y160500*
Y159750*
X727727Y159000*
X728000Y158625*
X728545Y158250*
X730182Y157500*
X730727Y157125*
X731000Y156750*
X731273Y156000*
Y154875*
X730727Y154125*
X729909Y153750*
X728818*
X728000Y154125*
X727455Y154875*
X767818Y160500D02*
Y153750D01*
X765364Y157125D02*
X770273D01*
X777636Y163125D02*
X772727Y151125D01*
X780091Y157125D02*
X785000D01*
X789091Y161625D02*
X788273Y161250D01*
X787727Y160125*
X787455Y158250*
Y157125*
X787727Y155250*
X788273Y154125*
X789091Y153750*
X789636*
X790455Y154125*
X791000Y155250*
X791273Y157125*
Y158250*
X791000Y160125*
X790455Y161250*
X789636Y161625*
X789091*
X794000Y154500D02*
X793727Y154125D01*
X794000Y153750*
X794273Y154125*
X794000Y154500*
X798364Y161625D02*
X797545Y161250D01*
X797000Y160125*
X796727Y158250*
Y157125*
X797000Y155250*
X797545Y154125*
X798364Y153750*
X798909*
X799727Y154125*
X800273Y155250*
X800545Y157125*
Y158250*
X800273Y160125*
X799727Y161250*
X798909Y161625*
X798364*
X556273Y135750D02*
Y136125D01*
X556545Y136875*
X556818Y137250*
X557364Y137625*
X558455*
X559000Y137250*
X559273Y136875*
X559545Y136125*
Y135375*
X559273Y134625*
X558727Y133500*
X556000Y129750*
X559818*
X562818Y137625D02*
X565818D01*
X564182Y134625*
X565000*
X565545Y134250*
X565818Y133875*
X566091Y132750*
Y132000*
X565818Y130875*
X565273Y130125*
X564455Y129750*
X563636*
X562818Y130125*
X562545Y130500*
X562273Y131250*
X568818Y130500D02*
X568545Y130125D01*
X568818Y129750*
X569091Y130125*
X568818Y130500*
X574818Y136500D02*
X574545Y137250D01*
X573727Y137625*
X573182*
X572364Y137250*
X571818Y136125*
X571545Y134250*
Y132375*
X571818Y130875*
X572364Y130125*
X573182Y129750*
X573455*
X574273Y130125*
X574818Y130875*
X575091Y132000*
Y132375*
X574818Y133500*
X574273Y134250*
X573455Y134625*
X573182*
X572364Y134250*
X571818Y133500*
X571545Y132375*
X577818Y135750D02*
Y136125D01*
X578091Y136875*
X578364Y137250*
X578909Y137625*
X580000*
X580545Y137250*
X580818Y136875*
X581091Y136125*
Y135375*
X580818Y134625*
X580273Y133500*
X577545Y129750*
X581364*
X649318Y135750D02*
Y136125D01*
X649591Y136875*
X649864Y137250*
X650409Y137625*
X651500*
X652045Y137250*
X652318Y136875*
X652591Y136125*
Y135375*
X652318Y134625*
X651773Y133500*
X649045Y129750*
X652864*
X682000Y135750D02*
X694000D01*
X688000Y129750D02*
Y141750D01*
X691000Y145050D02*
Y138750D01*
X694055Y145050D02*
Y138750D01*
X691000Y142050D02*
X694055D01*
X714636Y137625D02*
X716818Y133875D01*
Y129750*
X719000Y137625D02*
X716818Y133875D01*
X721455Y137625D02*
Y129750D01*
Y137625D02*
X725000D01*
X721455Y133875D02*
X723636D01*
X721455Y129750D02*
X725000D01*
X731273Y136500D02*
X730727Y137250D01*
X729909Y137625*
X728818*
X728000Y137250*
X727455Y136500*
Y135750*
X727727Y135000*
X728000Y134625*
X728545Y134250*
X730182Y133500*
X730727Y133125*
X731000Y132750*
X731273Y132000*
Y130875*
X730727Y130125*
X729909Y129750*
X728818*
X728000Y130125*
X727455Y130875*
X767818Y136500D02*
Y129750D01*
X765364Y133125D02*
X770273D01*
X777636Y139125D02*
X772727Y127125D01*
X780091Y133125D02*
X785000D01*
X789091Y137625D02*
X788273Y137250D01*
X787727Y136125*
X787455Y134250*
Y133125*
X787727Y131250*
X788273Y130125*
X789091Y129750*
X789636*
X790455Y130125*
X791000Y131250*
X791273Y133125*
Y134250*
X791000Y136125*
X790455Y137250*
X789636Y137625*
X789091*
X794000Y130500D02*
X793727Y130125D01*
X794000Y129750*
X794273Y130125*
X794000Y130500*
X798364Y137625D02*
X797545Y137250D01*
X797000Y136125*
X796727Y134250*
Y133125*
X797000Y131250*
X797545Y130125*
X798364Y129750*
X798909*
X799727Y130125*
X800273Y131250*
X800545Y133125*
Y134250*
X800273Y136125*
X799727Y137250*
X798909Y137625*
X798364*
X559818Y113625D02*
X557091Y105750D01*
X556000Y113625D02*
X559818D01*
X563636D02*
X562818Y113250D01*
X562545Y112500*
Y111750*
X562818Y111000*
X563364Y110625*
X564455Y110250*
X565273Y109875*
X565818Y109125*
X566091Y108375*
Y107250*
X565818Y106500*
X565545Y106125*
X564727Y105750*
X563636*
X562818Y106125*
X562545Y106500*
X562273Y107250*
Y108375*
X562545Y109125*
X563091Y109875*
X563909Y110250*
X565000Y110625*
X565545Y111000*
X565818Y111750*
Y112500*
X565545Y113250*
X564727Y113625*
X563636*
X568818Y106500D02*
X568545Y106125D01*
X568818Y105750*
X569091Y106125*
X568818Y106500*
X575364Y113625D02*
X572636Y105750D01*
X571545Y113625D02*
X575364D01*
X580545D02*
X577818Y108375D01*
X581909*
X580545Y113625D02*
Y105750D01*
X651636Y113625D02*
X648909Y108375D01*
X653000*
X651636Y113625D02*
Y105750D01*
X682000Y111750D02*
X694000D01*
X688000Y105750D02*
Y117750D01*
X691000Y121050D02*
Y114750D01*
X714636Y113625D02*
X716818Y109875D01*
Y105750*
X719000Y113625D02*
X716818Y109875D01*
X721455Y113625D02*
Y105750D01*
Y113625D02*
X725000D01*
X721455Y109875D02*
X723636D01*
X721455Y105750D02*
X725000D01*
X731273Y112500D02*
X730727Y113250D01*
X729909Y113625*
X728818*
X728000Y113250*
X727455Y112500*
Y111750*
X727727Y111000*
X728000Y110625*
X728545Y110250*
X730182Y109500*
X730727Y109125*
X731000Y108750*
X731273Y108000*
Y106875*
X730727Y106125*
X729909Y105750*
X728818*
X728000Y106125*
X727455Y106875*
X767818Y112500D02*
Y105750D01*
X765364Y109125D02*
X770273D01*
X777636Y115125D02*
X772727Y103125D01*
X780091Y109125D02*
X785000D01*
X789091Y113625D02*
X788273Y113250D01*
X787727Y112125*
X787455Y110250*
Y109125*
X787727Y107250*
X788273Y106125*
X789091Y105750*
X789636*
X790455Y106125*
X791000Y107250*
X791273Y109125*
Y110250*
X791000Y112125*
X790455Y113250*
X789636Y113625*
X789091*
X794000Y106500D02*
X793727Y106125D01*
X794000Y105750*
X794273Y106125*
X794000Y106500*
X798364Y113625D02*
X797545Y113250D01*
X797000Y112125*
X796727Y110250*
Y109125*
X797000Y107250*
X797545Y106125*
X798364Y105750*
X798909*
X799727Y106125*
X800273Y107250*
X800545Y109125*
Y110250*
X800273Y112125*
X799727Y113250*
X798909Y113625*
X798364*
G54D12*
X100000Y100000D02*
X493701D01*
Y493701*
X100000*
Y100000*
G74*
X0Y0D02*
M02*
