M48
;FILE_FORMAT=2:4
INCH,LZ
FMAT,2
ICI,OFF
;TYPE=PLATED
T1C.008
T2C.01968
T3C.02362
T4C.0315
T5C.035
T6C.03543
T7C.03937
T8C.04331
T9C.04724
T10C.07874
T11C.09843
T12C.11811
%
M72
G90
G93X0Y0
T1C.008F0S0
X0124Y016
X01345Y0148
X01784Y01136
X02262Y01134
X0266Y01167
X02804Y01392
X03008Y01518
X03042Y01591
X03194Y01117
X03299Y01472
X03322Y01537
X03561Y01566
X042896Y013713
X04551Y01482
X047917Y01498
X04572Y01975
X039647Y019932
X03503Y02023
X03441Y01945
X03441Y01643
X03378Y01697
X03374Y01855
X03175Y01785
X03174Y01944
X03044Y01751
X03042Y01905
X02831Y01981
X02493Y01983
X02145Y0199
X0201Y0199
X0143Y01875
X01345Y01905
X011236Y017806
X011215Y021759
X01435Y0231
X02075Y02266
X02248Y02862
X0225Y0265
X02418Y0226
X033113Y02331
X03506Y02853
X03539Y02853
X039408Y023258
X03946Y026427
X04574Y02559
X03934Y02931
X03927Y03359
X03877Y03072
X03837Y02967
X037522Y032839
X037327Y032608
X03714Y03236
X036944Y032099
X03678Y03126
X0366Y031055
X03619Y029892
X03595Y03011
X03459Y02958
X03439Y02993
X03418Y03262
X03342Y02999
X03335Y03262
X03333Y03204
X03331Y03106
X03138Y03262
X03123Y03225
X0269Y02935
X014925Y033422
X01465Y03245
X014294Y033447
X0142Y0319
X01145Y03245
X013011Y0353
X0136Y03495
X0136Y0369
X01925Y0344
X01925Y0352
X0225Y0384
X025Y03511
X027438Y033923
X030056Y035528
X03155Y03595
X03211Y03813
X03366Y036
X0342Y034365
X034466Y034254
X03578Y03556
X03755Y03595
X039575Y036729
X03979Y03722
X03991Y03774
X046799Y045621
X03915Y04411
X035401Y044697
X03539Y04251
X02911Y03941
X02859Y04022
X02795Y04246
X02673Y04462
X02606Y04459
X0222Y0396
X03974Y0482
T2C.01968F095S3
X039174Y032835
X039174Y032047
X026784Y043058
X025996Y043058
X010957Y038661G85X011272Y038661
X010957Y041181G85X011272Y041181
T3C.02362F197S55
X011961Y040709
X011961Y039134
X015787Y029114G85X015787Y030256
X013346Y029114G85X013346Y030256
X01436Y027845G85X015108Y027845
T4C.0315F197S55
X011181Y018661
X011969Y018661
X016693Y015906
X016693Y018268
X01748Y015906
X01748Y018268
X013681Y024116
X013681Y0251
X013681Y026084
X011969Y021024
X011319Y026084
X011319Y0251
X011319Y024116
X011181Y021024
X016693Y033843
X016693Y035764
X029291Y030693
X029291Y032614
X044256Y032638
X044256Y033622
X044256Y034409
X044256Y035394
X045177Y038709
X045177Y042709
X044177Y038709
X044177Y042709
X043177Y038709
X043177Y042709
X042177Y038709
X042177Y042709
X041177Y038709
X041177Y042709
X040177Y038709
X040177Y042709
T5C.035F197S55
X044646Y015906
X044646Y016906
X044646Y017906
X044646Y021024
X044646Y022024
X044646Y023024
X044646Y026929
X044646Y027929
X019268Y028504
X018268Y028504
X02095Y0302
X02095Y0312
X02095Y0325
X02095Y0335
X02195Y0312
X02195Y0325
X02195Y0335
X02195Y0302
X02295Y0302
X02295Y0312
X02295Y0325
X02295Y0335
X03126Y028898
X03226Y028898
X03326Y028898
X03426Y028898
X044646Y028929
X02295Y0349
X02295Y0362
X02195Y0349
X02195Y0362
X02095Y0349
X02095Y0362
X04715Y04426
X04815Y04426
T6C.03543F197S55
X016496Y025354
X016791Y021417
X018169Y021417
X018465Y025354
T7C.03937F197S55
X033819Y01215
X033819Y01315
X033819Y01415
X028734Y03636
X02775Y037344
X026766Y03636
X028835Y048386
X029835Y048386
X030835Y048386
X031835Y048386
X04189Y046614
X04489Y046614
T8C.04331F139S55
X028465Y022598
X037126Y020236
X037126Y022598
X037126Y015512
X037126Y027323
X028465Y027323
T9C.04724F139S55
X036339Y017874
X039921Y011181
X04189Y011181
X041929Y015512
X043858Y011181
X047626Y016095
X047626Y018063
X04761Y023265
X04761Y021297
X041929Y020236
X041929Y022598
X036339Y024961
X033268Y022598
X027677Y024961
X033268Y027323
X041929Y027323
X047623Y027146
X047623Y029114
X033788Y0435
X030835Y0435
T10C.07874F081S55
X025748Y038819
X034921Y038819
X034921Y048189
X025748Y048189
T11C.09843F066S55
X045323Y031207
X045323Y036825
T12C.11811F069S658
X011969Y011969
X037528Y01315
X047402Y011969
X047402Y047402
X011969Y047402
M30
