*
*
G04 PADS VX.2.4 Build Number: 11282995 generated Gerber (RS-274-X) file*
G04 PC Version=2.1*
*
%IN "HT66F2350_WIFI_V1.0.pcb"*%
*
%MOIN*%
*
%FSLAX35Y35*%
*
*
*
*
G04 PC Standard Apertures*
*
*
G04 Thermal Relief Aperture macro.*
%AMTER*
1,1,$1,0,0*
1,0,$1-$2,0,0*
21,0,$3,$4,0,0,45*
21,0,$3,$4,0,0,135*
%
*
*
G04 Annular Aperture macro.*
%AMANN*
1,1,$1,0,0*
1,0,$2,0,0*
%
*
*
G04 Odd Aperture macro.*
%AMODD*
1,1,$1,0,0*
1,0,$1-0.005,0,0*
%
*
*
G04 PC Custom Aperture Macros*
*
*
*
*
*
*
G04 PC Aperture Table*
*
%ADD010C,0.001*%
%ADD012C,0.005*%
%ADD055C,0.11524*%
%ADD056R,0.055X0.05*%
%ADD057R,0.05421X0.08374*%
%ADD058C,0.08374*%
%ADD059R,0.24122X0.20185*%
%ADD060O,0.08374X0.20185*%
%ADD061O,0.16248X0.08374*%
%ADD062R,0.04831X0.16248*%
%ADD063R,0.32783X0.37902*%
%ADD064R,0.065X0.065*%
%ADD065C,0.065*%
%ADD066R,0.04437X0.07193*%
%ADD067R,0.13492X0.08374*%
%ADD068C,0.06406*%
%ADD069C,0.01681*%
%ADD070R,0.05815X0.02075*%
%ADD071R,0.0798X0.0798*%
%ADD072O,0.09555X0.05618*%
%ADD073R,0.06406X0.01681*%
%ADD074O,0.06406X0.01681*%
%ADD075O,0.01681X0.06406*%
%ADD076R,0.05X0.055*%
%ADD077C,0.1428*%
%ADD078C,0.10343*%
%ADD079R,0.04437X0.0365*%
%ADD080R,0.07193X0.05618*%
%ADD081C,0.20185*%
%ADD082R,0.0365X0.04437*%
%ADD083R,0.08374X0.05421*%
%ADD084O,0.08374X0.03059*%
%ADD085C,0.02468*%
%ADD086R,0.14437X0.10736*%
%ADD087R,0.14909X0.10736*%
%ADD088R,0.12311X0.06012*%
%ADD089R,0.06012X0.12311*%
%ADD090O,0.10343X0.08374*%
%ADD091O,0.10343X0.06406*%
%ADD092C,0.16248*%
*
*
*
*
G04 PC Circuitry*
G04 Layer Name HT66F2350_WIFI_V1.0.pcb - circuitry*
%LPD*%
*
*
G04 PC Custom Flashes*
G04 Layer Name HT66F2350_WIFI_V1.0.pcb - flashes*
%LPD*%
*
*
G04 PC Circuitry*
G04 Layer Name HT66F2350_WIFI_V1.0.pcb - circuitry*
%LPD*%
*
G54D10*
G54D12*
G01X100000Y100000D02*
X493701D01*
Y493701*
X100000*
Y100000*
G54D55*
X476230Y291143D03*
Y271457D03*
X399213Y111811D03*
X418898D03*
X438583D03*
X332677Y225984D03*
Y273228D03*
X276771Y249606D03*
X419292Y225984D03*
Y273228D03*
X363386Y249606D03*
X476100Y232653D03*
Y212967D03*
X419292Y155118D03*
Y202362D03*
X363386Y178740D03*
X476260Y180633D03*
Y160947D03*
G54D56*
X313226Y394150D03*
Y386250D03*
X305352D03*
Y394150D03*
X379528Y320459D03*
Y328359D03*
X391339Y446444D03*
Y454344D03*
X383465D03*
Y446444D03*
X391339Y462192D03*
Y470092D03*
X458268Y273241D03*
Y265341D03*
Y288963D03*
Y296863D03*
X332283Y190538D03*
Y198438D03*
X458268Y214186D03*
Y206286D03*
Y229908D03*
Y237808D03*
X332283Y174790D03*
Y182690D03*
X458268Y163005D03*
Y155105D03*
Y178727D03*
Y186627D03*
X332283Y159042D03*
Y166942D03*
X328974Y394150D03*
Y386250D03*
X321100Y394150D03*
Y386250D03*
X297478D03*
Y394150D03*
X252600Y445950D03*
Y438050D03*
X274600Y446450D03*
Y438550D03*
X135433Y450407D03*
Y442507D03*
X186614Y336207D03*
Y344107D03*
Y351956D03*
Y359856D03*
X308661Y336233D03*
Y328333D03*
G54D57*
X241818Y220200D03*
X257182D03*
X391146Y481890D03*
X375783D03*
X253735Y300787D03*
X269099D03*
G54D58*
X184646Y253543D03*
X164961D03*
X181693Y214173D03*
X167913D03*
X292913Y326142D03*
Y306929D03*
X401772Y387087D03*
X411772D03*
X421772D03*
X431772D03*
X441772D03*
X451772D03*
Y427087D03*
X441772D03*
X431772D03*
X421772D03*
X411772D03*
X401772D03*
X288346Y483858D03*
X298346D03*
X308346D03*
X318346D03*
X338189Y121496D03*
Y131496D03*
Y141496D03*
X267658Y363600D03*
X287343D03*
X277500Y373443D03*
X166929Y338425D03*
Y357638D03*
X136811Y241157D03*
Y251000D03*
Y260843D03*
X113189D03*
Y251000D03*
Y241157D03*
G54D59*
X249606Y257480D03*
X210236D03*
G54D60*
X157874Y296850D03*
X133465D03*
G54D61*
X147337Y278450D03*
G54D62*
X227575Y211041D03*
X220874D03*
X214173D03*
X207472D03*
X200772D03*
G54D63*
X214173Y165697D03*
G54D64*
X182677Y285039D03*
X312598Y288976D03*
X446457Y269291D03*
Y210236D03*
Y159055D03*
X229500Y362000D03*
Y349000D03*
X471500Y442600D03*
G54D65*
X192677Y285039D03*
X209500Y302000D03*
X219500D03*
X229500D03*
Y312000D03*
X219500D03*
X209500D03*
X322598Y288976D03*
X332598D03*
X342598D03*
X446457Y279291D03*
Y289291D03*
Y220236D03*
Y230236D03*
Y169055D03*
Y179055D03*
X219500Y362000D03*
X209500D03*
X219500Y349000D03*
X209500D03*
Y325000D03*
X219500D03*
X229500D03*
Y335000D03*
X219500D03*
X209500D03*
X481500Y442600D03*
G54D66*
X134252Y197441D03*
X143307D03*
X152362D03*
X134252Y154134D03*
X143307D03*
X152362D03*
G54D67*
X143307Y223420D03*
Y180113D03*
G54D68*
X166929Y182677D03*
X174803D03*
X119685Y210236D03*
X111811D03*
X119685Y186614D03*
X111811D03*
X166929Y159055D03*
X174803D03*
X391739Y328346D03*
Y320472D03*
X259963Y430578D03*
X267837D03*
G54D69*
X119610Y407087D03*
Y391339D03*
G54D70*
X121677Y404331D03*
Y401772D03*
Y399213D03*
Y396654D03*
Y394094D03*
G54D71*
X111146Y403937D03*
Y394489D03*
G54D72*
Y386613D03*
Y411809D03*
G54D73*
X328346Y332283D03*
G54D74*
Y330315D03*
Y328346D03*
Y326378D03*
Y324409D03*
Y322441D03*
Y320472D03*
Y318504D03*
Y316535D03*
Y314567D03*
Y312598D03*
Y310630D03*
X361417D03*
Y312598D03*
Y314567D03*
Y316535D03*
Y318504D03*
Y320472D03*
Y322441D03*
Y324409D03*
Y326378D03*
Y328346D03*
Y330315D03*
Y332283D03*
G54D75*
X334055Y304921D03*
X336024D03*
X337992D03*
X339961D03*
X341929D03*
X343898D03*
X345866D03*
X347835D03*
X349803D03*
X351772D03*
X353740D03*
X355709D03*
Y337992D03*
X353740D03*
X351772D03*
X349803D03*
X347835D03*
X345866D03*
X343898D03*
X341929D03*
X339961D03*
X337992D03*
X336024D03*
X334055D03*
G54D76*
X379515Y336220D03*
X387415D03*
X379515Y312598D03*
X387415D03*
X403163D03*
X395263D03*
X379515Y292913D03*
X387415D03*
X379515Y300787D03*
X387415D03*
X379515Y367717D03*
X387415D03*
X359830D03*
X367730D03*
X340144D03*
X348044D03*
X320459D03*
X328359D03*
X300774D03*
X308674D03*
X300774Y359843D03*
X308674D03*
X320459D03*
X328359D03*
X340144D03*
X348044D03*
X359830D03*
X367730D03*
X379515D03*
X387415D03*
X245656Y159055D03*
X253556D03*
X245656Y151181D03*
X253556D03*
X245656Y174803D03*
X253556D03*
X245656Y166929D03*
X253556D03*
X261550Y328500D03*
X269450D03*
X261550Y321000D03*
X269450D03*
Y313500D03*
X261550D03*
Y336000D03*
X269450D03*
X245656Y202362D03*
X253556D03*
X300774Y198425D03*
X308674D03*
X300774Y190551D03*
X308674D03*
X245656Y194488D03*
X253556D03*
X300774Y182677D03*
X308674D03*
X300774Y174803D03*
X308674D03*
X245656Y186614D03*
X253556D03*
X300774Y166929D03*
X308674D03*
X300774Y159055D03*
X308674D03*
X300850Y375500D03*
X308750D03*
X232450Y377000D03*
X224550D03*
X119550Y324500D03*
X127450D03*
X134550D03*
X142450D03*
X300774Y147244D03*
X308674D03*
X300774Y139370D03*
X308674D03*
X117950Y160000D03*
X110050D03*
Y168000D03*
X117950D03*
Y152000D03*
X110050D03*
Y144000D03*
X117950D03*
G54D77*
X349212Y481890D03*
X349213Y388189D03*
X257480D03*
Y481890D03*
G54D78*
X418898Y466142D03*
X448898D03*
X284645Y273228D03*
Y225984D03*
X371260Y273228D03*
Y225984D03*
Y202362D03*
Y155118D03*
G54D79*
X370728Y466142D03*
X380453Y462402D03*
Y469882D03*
G54D80*
X233268Y111811D03*
X265945D03*
X280512D03*
X313189D03*
X138780D03*
X171457D03*
X186024D03*
X218701D03*
G54D81*
X375276Y131496D03*
X474016Y474016D03*
X119685D03*
X474016Y119685D03*
X119685D03*
G54D82*
X320472Y199350D03*
X316732Y189626D03*
X324213D03*
X320472Y183602D03*
X316732Y173878D03*
X324213D03*
X320472Y167854D03*
X316732Y158130D03*
X324213D03*
G54D83*
X344094Y186806D03*
Y202170D03*
Y159247D03*
Y174611D03*
X320472Y147052D03*
Y131688D03*
G54D84*
X265723Y199488D03*
Y189488D03*
X288608D03*
Y199488D03*
X265723Y179803D03*
Y169803D03*
X288608D03*
Y179803D03*
X265723Y160118D03*
Y150118D03*
X288608D03*
Y160118D03*
X279443Y406000D03*
Y411000D03*
Y416000D03*
Y421000D03*
X256557D03*
Y416000D03*
Y411000D03*
Y406000D03*
X142939Y334469D03*
Y339469D03*
Y344469D03*
Y349469D03*
Y354469D03*
Y359469D03*
Y364469D03*
Y369468D03*
X120054D03*
Y364468D03*
Y359468D03*
Y354468D03*
Y349468D03*
Y344468D03*
Y339469D03*
Y334469D03*
G54D85*
X337880Y435000D03*
X308352D03*
G54D86*
X291771D03*
G54D87*
X353831D03*
G54D88*
X159646Y457480D03*
Y449606D03*
Y441732D03*
Y433858D03*
Y425984D03*
Y418110D03*
Y410236D03*
Y402362D03*
X221457D03*
Y410236D03*
Y418110D03*
Y425984D03*
Y433858D03*
Y441732D03*
Y449606D03*
Y457480D03*
G54D89*
X170866Y395276D03*
X178740D03*
X186614D03*
X194488D03*
X202362D03*
X210236D03*
G54D90*
X442559Y326378D03*
Y353937D03*
G54D91*
Y336220D03*
Y344094D03*
G54D92*
X453228Y312067D03*
Y368248D03*
X0Y0D02*
M02*
