*
*
G04 PADS VX.2.4 Build Number: 11282995 generated Gerber (RS-274-X) file*
G04 PC Version=2.1*
*
%IN "HT66F2350_WIFI_V1.0.pcb"*%
*
%MOIN*%
*
%FSLAX35Y35*%
*
*
*
*
G04 PC Standard Apertures*
*
*
G04 Thermal Relief Aperture macro.*
%AMTER*
1,1,$1,0,0*
1,0,$1-$2,0,0*
21,0,$3,$4,0,0,45*
21,0,$3,$4,0,0,135*
%
*
*
G04 Annular Aperture macro.*
%AMANN*
1,1,$1,0,0*
1,0,$2,0,0*
%
*
*
G04 Odd Aperture macro.*
%AMODD*
1,1,$1,0,0*
1,0,$1-0.005,0,0*
%
*
*
G04 PC Custom Aperture Macros*
*
*
*
*
*
*
G04 PC Aperture Table*
*
%ADD010C,0.001*%
%ADD012C,0.005*%
%ADD055C,0.11524*%
%ADD058C,0.08374*%
%ADD060O,0.08374X0.20185*%
%ADD061O,0.16248X0.08374*%
%ADD064R,0.065X0.065*%
%ADD065C,0.065*%
%ADD068C,0.06406*%
%ADD069C,0.01681*%
%ADD072O,0.09555X0.05618*%
%ADD077C,0.1428*%
%ADD078C,0.10343*%
%ADD081C,0.20185*%
%ADD085C,0.02468*%
%ADD090O,0.10343X0.08374*%
%ADD091O,0.10343X0.06406*%
%ADD092C,0.16248*%
*
*
*
*
G04 PC Circuitry*
G04 Layer Name HT66F2350_WIFI_V1.0.pcb - circuitry*
%LPD*%
*
*
G04 PC Custom Flashes*
G04 Layer Name HT66F2350_WIFI_V1.0.pcb - flashes*
%LPD*%
*
*
G04 PC Circuitry*
G04 Layer Name HT66F2350_WIFI_V1.0.pcb - circuitry*
%LPD*%
*
G54D10*
G54D12*
G01X100000Y100000D02*
X493701D01*
Y493701*
X100000*
Y100000*
G54D55*
X476230Y291143D03*
Y271457D03*
X399213Y111811D03*
X418898D03*
X438583D03*
X332677Y225984D03*
Y273228D03*
X276771Y249606D03*
X419292Y225984D03*
Y273228D03*
X363386Y249606D03*
X476100Y232653D03*
Y212967D03*
X419292Y155118D03*
Y202362D03*
X363386Y178740D03*
X476260Y180633D03*
Y160947D03*
G54D58*
X184646Y253543D03*
X164961D03*
X181693Y214173D03*
X167913D03*
X292913Y326142D03*
Y306929D03*
X401772Y387087D03*
X411772D03*
X421772D03*
X431772D03*
X441772D03*
X451772D03*
Y427087D03*
X441772D03*
X431772D03*
X421772D03*
X411772D03*
X401772D03*
X288346Y483858D03*
X298346D03*
X308346D03*
X318346D03*
X338189Y121496D03*
Y131496D03*
Y141496D03*
X267658Y363600D03*
X287343D03*
X277500Y373443D03*
X166929Y338425D03*
Y357638D03*
X136811Y241157D03*
Y251000D03*
Y260843D03*
X113189D03*
Y251000D03*
Y241157D03*
G54D60*
X157874Y296850D03*
X133465D03*
G54D61*
X147337Y278450D03*
G54D64*
X182677Y285039D03*
X312598Y288976D03*
X446457Y269291D03*
Y210236D03*
Y159055D03*
X229500Y362000D03*
Y349000D03*
X471500Y442600D03*
G54D65*
X192677Y285039D03*
X209500Y302000D03*
X219500D03*
X229500D03*
Y312000D03*
X219500D03*
X209500D03*
X322598Y288976D03*
X332598D03*
X342598D03*
X446457Y279291D03*
Y289291D03*
Y220236D03*
Y230236D03*
Y169055D03*
Y179055D03*
X219500Y362000D03*
X209500D03*
X219500Y349000D03*
X209500D03*
Y325000D03*
X219500D03*
X229500D03*
Y335000D03*
X219500D03*
X209500D03*
X481500Y442600D03*
G54D68*
X166929Y182677D03*
X174803D03*
X119685Y210236D03*
X111811D03*
X119685Y186614D03*
X111811D03*
X166929Y159055D03*
X174803D03*
X391739Y328346D03*
Y320472D03*
X259963Y430578D03*
X267837D03*
G54D69*
X119610Y407087D03*
Y391339D03*
G54D72*
X111146Y386613D03*
Y411809D03*
G54D77*
X349212Y481890D03*
X349213Y388189D03*
X257480D03*
Y481890D03*
G54D78*
X418898Y466142D03*
X448898D03*
X284645Y273228D03*
Y225984D03*
X371260Y273228D03*
Y225984D03*
Y202362D03*
Y155118D03*
G54D81*
X375276Y131496D03*
X474016Y474016D03*
X119685D03*
X474016Y119685D03*
X119685D03*
G54D85*
X337880Y435000D03*
X308352D03*
G54D90*
X442559Y326378D03*
Y353937D03*
G54D91*
Y336220D03*
Y344094D03*
G54D92*
X453228Y312067D03*
Y368248D03*
X0Y0D02*
M02*
