*
*
G04 PADS VX.2.4 Build Number: 11282995 generated Gerber (RS-274-X) file*
G04 PC Version=2.1*
*
%IN "HT66F2360_TuYa_WIFI_Pet"*%
*
%MOIN*%
*
%FSLAX35Y35*%
*
*
*
*
G04 PC Standard Apertures*
*
*
G04 Thermal Relief Aperture macro.*
%AMTER*
1,1,$1,0,0*
1,0,$1-$2,0,0*
21,0,$3,$4,0,0,45*
21,0,$3,$4,0,0,135*
%
*
*
G04 Annular Aperture macro.*
%AMANN*
1,1,$1,0,0*
1,0,$2,0,0*
%
*
*
G04 Odd Aperture macro.*
%AMODD*
1,1,$1,0,0*
1,0,$1-0.005,0,0*
%
*
*
G04 PC Custom Aperture Macros*
*
*
*
*
*
*
G04 PC Aperture Table*
*
%ADD010C,0.001*%
%ADD011C,0.01*%
%ADD012C,0.04724*%
%ADD013R,0.1X0.04*%
%ADD014R,0.05118X0.02638*%
%ADD015R,0.045X0.05*%
%ADD016R,0.05906X0.05906*%
%ADD017C,0.05906*%
%ADD018C,0.01181*%
%ADD019R,0.05315X0.01575*%
%ADD020R,0.0748X0.0748*%
%ADD021O,0.09055X0.05118*%
%ADD022R,0.03661X0.03858*%
%ADD023R,0.03543X0.03937*%
%ADD024C,0.1378*%
%ADD025C,0.07874*%
%ADD026R,0.06X0.06*%
%ADD027C,0.06*%
%ADD028R,0.02756X0.04921*%
%ADD029C,0.11024*%
%ADD030C,0.09843*%
%ADD031R,0.04921X0.07874*%
%ADD032O,0.02559X0.07874*%
%ADD033C,0.01968*%
%ADD034R,0.07874X0.00906*%
%ADD035R,0.00906X0.07874*%
%ADD036R,0.03937X0.03543*%
%ADD037C,0.02953*%
%ADD038R,0.02362X0.04724*%
%ADD039R,0.05118X0.08268*%
%ADD040R,0.13937X0.10236*%
%ADD041R,0.14409X0.10236*%
%ADD078C,0.006*%
%ADD085C,0.03*%
%ADD086C,0.015*%
%ADD087C,0.02*%
%ADD088C,0.02953*%
%ADD089C,0.025*%
*
*
*
*
G04 PC Circuitry*
G04 Layer Name HT66F2360_TuYa_WIFI_Pet - circuitry*
%LPD*%
*
*
G04 PC Custom Flashes*
G04 Layer Name HT66F2360_TuYa_WIFI_Pet - flashes*
%LPD*%
*
*
G04 PC Circuitry*
G04 Layer Name HT66F2360_TuYa_WIFI_Pet - circuitry*
%LPD*%
*
G54D10*
G54D11*
G01X194039Y120720D02*
G75*
G03X195157Y122007I-180J1287D01*
G01X194039Y120720D02*
X196276D01*
X195157Y122007D02*
G03X196276Y120720I1299J-0D01*
G01X195157Y122007D02*
X195157D01*
X194687Y121007D02*
X195628D01*
X194157Y120720D02*
Y120743D01*
X195157Y120720D02*
Y122007D01*
X196157Y120720D02*
Y120743D01*
X196276Y125736D02*
G03X195157Y124450I180J-1286D01*
G01X196276Y125736D02*
X194039D01*
X195157Y124450D02*
G03X194039Y125736I-1298J0D01*
G01X194687Y125450D02*
X195628D01*
X194157Y125714D02*
Y125736D01*
X195157Y124450D02*
Y125736D01*
X196157Y125714D02*
Y125736D01*
X196488Y120333D02*
G03X197774Y119291I1286J273D01*
G01X196488Y120333D02*
Y118249D01*
X197774Y119291D02*
G03X196488Y118249I0J-1315D01*
G01Y120291D02*
X196498D01*
X196488Y119291D02*
X197774D01*
X196488Y118291D02*
X196498D01*
X196774Y118830D02*
Y119752D01*
X203602Y118221D02*
G03X202281Y119291I-1321J-281D01*
G01X203602Y118221D02*
Y120362D01*
X202281Y119291D02*
G03X203602Y120362I-0J1351D01*
G01X203585Y120291D02*
X203602D01*
X202281Y119291D02*
X203602D01*
X203585Y118291D02*
X203602D01*
X202281Y119291D02*
X202281D01*
X203281Y118849D02*
Y119734D01*
X209730Y120760D02*
G03X210874Y122081I-191J1321D01*
G01X209730Y120760D02*
X212019D01*
X210874Y122081D02*
G03X212019Y120760I1335J0D01*
G01X210874Y122081D02*
X210874D01*
X210424Y121081D02*
X211324D01*
X209874Y120760D02*
Y120789D01*
X210874Y120760D02*
Y122081D01*
X211874Y120760D02*
Y120789D01*
X212404Y126189D02*
G03X211614Y124424I1576J-1765D01*
G01X212404Y126189D02*
X210824D01*
X211614Y124424D02*
G03X210824Y126189I-2365J0D01*
G01X211392Y125424D02*
X211836D01*
X211614Y124424D02*
Y126189D01*
X239795Y120333D02*
G03X241082Y119291I1287J273D01*
G01X239795Y120333D02*
Y118249D01*
X241082Y119291D02*
G03X239795Y118249I-0J-1315D01*
G01Y120291D02*
X239805D01*
X239795Y119291D02*
X241082D01*
X239795Y118291D02*
X239805D01*
X240082Y118830D02*
Y119752D01*
X246909Y118221D02*
G03X245588Y119291I-1321J-281D01*
G01X246909Y118221D02*
Y120362D01*
X245588Y119291D02*
G03X246909Y120362I-0J1351D01*
G01X246892Y120291D02*
X246909D01*
X245588Y119291D02*
X246909D01*
X246892Y118291D02*
X246909D01*
X245588Y119291D02*
X245588D01*
X246588Y118849D02*
Y119734D01*
X237346Y120720D02*
G03X238465Y122007I-180J1287D01*
G01X237346Y120720D02*
X239583D01*
X238465Y122007D02*
G03X239583Y120720I1298J-0D01*
G01X238465Y122007D02*
X238465D01*
X237995Y121007D02*
X238935D01*
X237465Y120720D02*
Y120743D01*
X238465Y120720D02*
Y122007D01*
X239465Y120720D02*
Y120743D01*
X239583Y125736D02*
G03X238465Y124450I180J-1286D01*
G01X239583Y125736D02*
X237346D01*
X238465Y124450D02*
G03X237346Y125736I-1299J0D01*
G01X237995Y125450D02*
X238935D01*
X237465Y125714D02*
Y125736D01*
X238465Y124450D02*
Y125736D01*
X239465Y125714D02*
Y125736D01*
X253037Y120760D02*
G03X254181Y122081I-191J1321D01*
G01X253037Y120760D02*
X255326D01*
X254181Y122081D02*
G03X255326Y120760I1335J0D01*
G01X254181Y122081D02*
X254181D01*
X253731Y121081D02*
X254631D01*
X253181Y120760D02*
Y120789D01*
X254181Y120760D02*
Y122081D01*
X255181Y120760D02*
Y120789D01*
X255711Y126189D02*
G03X254921Y124424I1576J-1765D01*
G01X255711Y126189D02*
X254131D01*
X254921Y124424D02*
G03X254131Y126189I-2365J0D01*
G01X254699Y125424D02*
X255143D01*
X254921Y124424D02*
Y126189D01*
X196488Y136081D02*
G03X197774Y135039I1286J273D01*
G01X196488Y136081D02*
Y133998D01*
X197774Y135039D02*
G03X196488Y133998I0J-1315D01*
G01Y136039D02*
X196498D01*
X196488Y135039D02*
X197774D01*
X196488Y134039D02*
X196498D01*
X196774Y134578D02*
Y135500D01*
X206996Y136563D02*
G03X205232Y137992I-1764J-375D01*
G01X206996Y136563D02*
Y139421D01*
X205232Y137992D02*
G03X206996Y139421I-0J1804D01*
G01X206846Y138992D02*
X206996D01*
X205232Y137992D02*
X206996D01*
X206846Y136992D02*
X206996D01*
X205232Y137992D02*
X205232D01*
X206232Y137690D02*
Y138295D01*
X205012Y126189D02*
G03X204874Y124424I11229J-1765D01*
G01X205012Y126189D02*
X203432D01*
X204874Y124424D02*
G03X203432Y126189I-1801J0D01*
G01X204571Y125424D02*
X204918D01*
X203874Y126037D02*
Y126189D01*
X204874Y124424D02*
Y126189D01*
X203730Y120760D02*
G03X204874Y122081I-191J1321D01*
G01X203730Y120760D02*
X206019D01*
X204874Y122081D02*
G03X206019Y120760I1335J0D01*
G01X204874Y122081D02*
X204874D01*
X204424Y121081D02*
X205324D01*
X203874Y120760D02*
Y120789D01*
X204874Y120760D02*
Y122081D01*
X205874Y120760D02*
Y120789D01*
X239795Y136081D02*
G03X241082Y135039I1287J273D01*
G01X239795Y136081D02*
Y133998D01*
X241082Y135039D02*
G03X239795Y133998I-0J-1315D01*
G01Y136039D02*
X239805D01*
X239795Y135039D02*
X241082D01*
X239795Y134039D02*
X239805D01*
X240082Y134578D02*
Y135500D01*
X250303Y136563D02*
G03X248539Y137992I-1764J-375D01*
G01X250303Y136563D02*
Y139421D01*
X248539Y137992D02*
G03X250303Y139421I-0J1804D01*
G01X250153Y138992D02*
X250303D01*
X248539Y137992D02*
X250303D01*
X250153Y136992D02*
X250303D01*
X248539Y137992D02*
X248539D01*
X249539Y137690D02*
Y138295D01*
X248231Y126189D02*
G03X247441Y124424I1575J-1765D01*
G01X248231Y126189D02*
X246651D01*
X247441Y124424D02*
G03X246651Y126189I-2365J0D01*
G01X247219Y125424D02*
X247663D01*
X247441Y124424D02*
Y126189D01*
X247037Y120760D02*
G03X248181Y122081I-191J1321D01*
G01X247037Y120760D02*
X249326D01*
X248181Y122081D02*
G03X249326Y120760I1335J0D01*
G01X248181Y122081D02*
X248181D01*
X247731Y121081D02*
X248631D01*
X247181Y120760D02*
Y120789D01*
X248181Y120760D02*
Y122081D01*
X249181Y120760D02*
Y120789D01*
X271972Y130039D02*
X269731Y127794D01*
Y127705*
X271972Y130039*
X271972*
X270974Y129039D02*
X271012D01*
X269976Y128039D02*
X270052D01*
X269972Y127955D02*
Y128034D01*
X270972Y128997D02*
Y129036D01*
X278856Y131550D02*
G03X275161Y133228I-3695J-3227D01*
G01X278856Y131550D02*
Y134907D01*
X275161Y133228D02*
G03X278856Y134907I0J4906D01*
G01X278130Y134228D02*
X278856D01*
X275161Y133228D02*
X278856D01*
X278130Y132228D02*
X278856D01*
X275161Y133228D02*
X275161D01*
X276161Y133125D02*
Y133331D01*
X277161Y132802D02*
Y133655D01*
X278161Y132204D02*
Y134253D01*
X283208Y133158D02*
G03X284863Y129074I5653J-86D01*
G01X283208Y133158D02*
X280779Y130729D01*
X284863Y129074D02*
G03X280779Y130729I-3998J-3998D01*
G01X283123Y133074D02*
X283207D01*
X282123Y132074D02*
X283296D01*
X281123Y131074D02*
X283572D01*
X283508Y130074D02*
X284067D01*
X280863Y130730D02*
Y130814D01*
X281863Y130641D02*
Y131814D01*
X282863Y130365D02*
Y132814D01*
X283863Y129870D02*
Y130429D01*
X190213Y141484D02*
G03X189094Y140198I180J-1286D01*
G01X190213Y141484D02*
X187976D01*
X189094Y140198D02*
G03X187976Y141484I-1298J0D01*
G01X188624Y141198D02*
X189565D01*
X188094Y141462D02*
Y141484D01*
X189094Y140198D02*
Y141484D01*
X190094Y141462D02*
Y141484D01*
X187976Y136469D02*
G03X189094Y137755I-180J1286D01*
G01X187976Y136469D02*
X190213D01*
X189094Y137755D02*
G03X190213Y136469I1299J-0D01*
G01X189094Y137755D02*
X189094D01*
X188624Y136755D02*
X189565D01*
X188094Y136469D02*
Y136491D01*
X189094Y136469D02*
Y137755D01*
X190094Y136469D02*
Y136491D01*
X233520Y141484D02*
G03X232402Y140198I180J-1286D01*
G01X233520Y141484D02*
X231283D01*
X232402Y140198D02*
G03X231283Y141484I-1299J0D01*
G01X231932Y141198D02*
X232872D01*
X231402Y141462D02*
Y141484D01*
X232402Y140198D02*
Y141484D01*
X233402Y141462D02*
Y141484D01*
X231283Y136469D02*
G03X232402Y137755I-180J1286D01*
G01X231283Y136469D02*
X233520D01*
X232402Y137755D02*
G03X233520Y136469I1298J-0D01*
G01X232402Y137755D02*
X232402D01*
X231932Y136755D02*
X232872D01*
X231402Y136469D02*
Y136491D01*
X232402Y136469D02*
Y137755D01*
X233402Y136469D02*
Y136491D01*
X197017Y161620D02*
G03X193849Y159533I3496J-8751D01*
G01X197017Y161620D02*
X196122Y166257D01*
X193849Y159533D02*
G03X196122Y166257I-5658J5658D01*
G01X196186Y165533D02*
X196262D01*
X196166Y164533D02*
X196455D01*
X196019Y163533D02*
X196648D01*
X195739Y162533D02*
X196841D01*
X195308Y161533D02*
X196805D01*
X194697Y160533D02*
X195029D01*
X193849Y159533D02*
X193849D01*
X194849Y160401D02*
Y160753D01*
X195849Y161058D02*
Y162871D01*
X196849Y161552D02*
Y162488D01*
X192017Y161620D02*
G03X188849Y159533I3496J-8751D01*
G01X192017Y161620D02*
X191122Y166257D01*
X188849Y159533D02*
G03X191122Y166257I-5658J5658D01*
G01X191186Y165533D02*
X191262D01*
X191166Y164533D02*
X191455D01*
X191019Y163533D02*
X191648D01*
X190739Y162533D02*
X191841D01*
X190308Y161533D02*
X191805D01*
X189697Y160533D02*
X190029D01*
X188849Y159533D02*
X188849D01*
X189849Y160401D02*
Y160753D01*
X190849Y161058D02*
Y162871D01*
X191849Y161552D02*
Y162488D01*
X184687Y194794D02*
X182470Y197000D01*
X182293*
X184687Y194794*
X182517Y196794D02*
X182678D01*
X183602Y195794D02*
X183682D01*
X182687Y196638D02*
Y196785D01*
X183687Y195716D02*
Y195789D01*
X185924Y190722D02*
G03X186588Y192892I-3213J2170D01*
G01X185924Y190722D02*
X187252D01*
X186588Y192892D02*
G03X187252Y190722I3877J0D01*
G01X186588Y192892D02*
X186588D01*
X186457Y191892D02*
X186719D01*
X186032Y190892D02*
X187144D01*
X186588Y190722D02*
Y192892D01*
X195901Y190628D02*
G03X196588Y194344I-9703J3716D01*
G01X195901Y190628D02*
X197275D01*
X196588Y194344D02*
G03X197275Y190628I10390J0D01*
G01X196588Y194344D02*
X196588D01*
X196540Y193344D02*
X196636D01*
X196394Y192344D02*
X196782D01*
X196145Y191344D02*
X197030D01*
X196588Y190628D02*
Y194344D01*
X199699Y199769D02*
G03X198025Y195899I3638J-3870D01*
G01X199699Y199769D02*
X196351D01*
X198025Y195899D02*
G03X196351Y199769I-5312J-0D01*
G01X197097Y198899D02*
X198953D01*
X197634Y197899D02*
X198416D01*
X197930Y196899D02*
X198120D01*
X197025Y199001D02*
Y199769D01*
X198025Y195899D02*
Y199769D01*
X199025Y199001D02*
Y199769D01*
X310715Y199083D02*
G03X317248Y201106I1348J7209D01*
G01X310715Y199083D02*
X315225Y194573D01*
X317248Y201106D02*
G03X315225Y194573I5185J-5185D01*
G01X317248Y201106D02*
X317248D01*
X316002Y200106D02*
X316412D01*
X313528Y199106D02*
X315828D01*
X311692Y198106D02*
X315433D01*
X312692Y197106D02*
X315197D01*
X313692Y196106D02*
X315103D01*
X314692Y195106D02*
X315146D01*
X311248Y198550D02*
Y199004D01*
X312248Y197550D02*
Y198961D01*
X313248Y196550D02*
Y199055D01*
X314248Y195550D02*
Y199292D01*
X315248Y197386D02*
Y199686D01*
X316248Y199860D02*
Y200270D01*
X127469Y211175D02*
G03X128136Y210700I667J232D01*
G01X127469Y211175D02*
X127090Y210508D01*
X128136Y210700D02*
G03X127090Y210508I0J-2947D01*
G01X127199Y210700D02*
X128136D01*
X127136Y210525D02*
Y210589D01*
X117506Y215797D02*
X116572Y216731D01*
X115954*
X117506Y215797D02*
G03X115954Y216731I-2656J-2657D01*
G01X116506Y216512D02*
Y216731D01*
X144341Y252666D02*
G03X140334Y251042I-85J-5546D01*
G01X144341Y252666D02*
X141958Y255049D01*
X140334Y251042D02*
G03X141958Y255049I-3922J3923D01*
G01Y255042D02*
X141965D01*
X141881Y254042D02*
X142965D01*
X141615Y253042D02*
X143965D01*
X141126Y252042D02*
X141699D01*
X140334Y251042D02*
X140334D01*
X141334Y251835D02*
Y252407D01*
X142334Y252323D02*
Y254673D01*
X143334Y252590D02*
Y253673D01*
X144334Y252666D02*
Y252673D01*
X188389Y240324D02*
G03X188189Y239952I245J-372D01*
G01X188389Y240324D02*
X187989D01*
X188189Y239952D02*
G03X187989Y240324I-446J-0D01*
G01X188189Y239952D02*
Y240324D01*
X191062Y218999D02*
G03X191972Y217560I3646J1297D01*
G01X191062Y218999D02*
Y218371D01*
X191972Y217560D02*
G03X191062Y218371I-7544J-7544D01*
G01Y218560D02*
X191250D01*
X183752Y203468D02*
G03X185074Y202603I1322J578D01*
G01X183752Y203468D02*
Y201738D01*
X185074Y202603D02*
G03X183752Y201738I-0J-1442D01*
G01Y202603D02*
X185074D01*
X184074Y202200D02*
Y203006D01*
X187910Y200566D02*
G03X186098Y201857I-1812J-625D01*
G01X187910Y200566D02*
X188681Y203525D01*
X186098Y201857D02*
G03X188681Y203525I0J2834D01*
G01X188258Y202857D02*
X188507D01*
X186098Y201857D02*
X188246D01*
X187781Y200857D02*
X187986D01*
X186098Y201857D02*
X186098D01*
X187098Y201576D02*
Y202040D01*
X188098Y201289D02*
Y202684D01*
X184787Y218371D02*
G03X183669Y217085I180J-1286D01*
G01X184787Y218371D02*
X182550D01*
X183669Y217085D02*
G03X182550Y218371I-1299J-0D01*
G01X183198Y218085D02*
X184139D01*
X182669Y218349D02*
Y218371D01*
X183669Y217085D02*
Y218371D01*
X184669Y218349D02*
Y218371D01*
X191825Y199769D02*
G03X190151Y195899I3638J-3870D01*
G01X191825Y199769D02*
X188477D01*
X190151Y195899D02*
G03X188477Y199769I-5312J-0D01*
G01X189223Y198899D02*
X191079D01*
X189760Y197899D02*
X190542D01*
X190056Y196899D02*
X190246D01*
X189151Y199001D02*
Y199769D01*
X190151Y195899D02*
Y199769D01*
X191151Y199001D02*
Y199769D01*
X190901Y190628D02*
G03X191588Y194344I-9703J3716D01*
G01X190901Y190628D02*
X192275D01*
X191588Y194344D02*
G03X192275Y190628I10390J0D01*
G01X191588Y194344D02*
X191588D01*
X191540Y193344D02*
X191636D01*
X191394Y192344D02*
X191782D01*
X191145Y191344D02*
X192030D01*
X191588Y190628D02*
Y194344D01*
X206372Y217561D02*
X205462Y218471D01*
X204903*
X206372Y217561D02*
G03X204903Y218471I-2668J-2667D01*
G01X205372Y218278D02*
Y218471D01*
X196950Y213929D02*
G03X198069Y215215I-180J1286D01*
G01X196950Y213929D02*
X199187D01*
X198069Y215215D02*
G03X199187Y213929I1298J0D01*
G01X198069Y215215D02*
X198069D01*
X197598Y214215D02*
X198539D01*
X197069Y213929D02*
Y213951D01*
X198069Y213929D02*
Y215215D01*
X199069Y213929D02*
Y213951D01*
X199187Y218471D02*
G03X198069Y217185I180J-1286D01*
G01X199187Y218471D02*
X196950D01*
X198069Y217185D02*
G03X196950Y218471I-1299J-0D01*
G01X197598Y218185D02*
X198539D01*
X197069Y218449D02*
Y218471D01*
X198069Y217185D02*
Y218471D01*
X199069Y218449D02*
Y218471D01*
X199526Y203502D02*
G03X202078Y201852I2552J1147D01*
G01X199526Y203502D02*
X200263Y200559D01*
X202078Y201852D02*
G03X200263Y200559I-0J-1920D01*
G01X199689Y202852D02*
X199934D01*
X199939Y201852D02*
X202078D01*
X200190Y200852D02*
X200393D01*
X200078Y201299D02*
Y202693D01*
X201078Y201571D02*
Y202036D01*
X204430Y201734D02*
G03X203109Y202604I-1321J-568D01*
G01X204430Y201734D02*
Y203475D01*
X203109Y202604D02*
G03X204430Y203475I-0J1439D01*
G01X203109Y202604D02*
X204430D01*
X203109D02*
X203109D01*
X204109Y202200D02*
Y203009D01*
X99396Y238138D02*
G03X95950Y240157I-3446J-1930D01*
G01X99396Y238138D02*
X99614Y241178D01*
X95950Y240157D02*
G03X99614Y241178I-0J7084D01*
G01X99579Y241157D02*
X99612D01*
X95950Y240157D02*
X99540D01*
X98577Y239157D02*
X99469D01*
X99385Y238157D02*
X99397D01*
X95950Y240157D02*
X95950D01*
X96950Y240029D02*
Y240228D01*
X97950Y239614D02*
Y240446D01*
X98950Y238777D02*
Y240824D01*
X146066Y243309D02*
G03X144409Y239602I3321J-3707D01*
G01X146066Y243309D02*
X142753D01*
X144409Y239602D02*
G03X142753Y243309I-4977J-0D01*
G01X143404Y242602D02*
X145415D01*
X143990Y241602D02*
X144829D01*
X144308Y240602D02*
X144511D01*
X143409Y242594D02*
Y243309D01*
X144409Y239602D02*
Y243309D01*
X145409Y242594D02*
Y243309D01*
X188120Y260225D02*
G03X184113Y258601I-85J-5546D01*
G01X188120Y260225D02*
X185737Y262608D01*
X184113Y258601D02*
G03X185737Y262608I-3922J3923D01*
G01Y262601D02*
X185744D01*
X185661Y261601D02*
X186744D01*
X185394Y260601D02*
X187744D01*
X184906Y259601D02*
X185478D01*
X184113Y258601D02*
X184113D01*
X185113Y259394D02*
Y259966D01*
X186113Y259882D02*
Y262232D01*
X187113Y260149D02*
Y261232D01*
X188113Y260225D02*
Y260232D01*
X91945Y245534D02*
G03X93887Y245276I1942J7159D01*
G01X91945Y245534D02*
Y245017D01*
X93887Y245276D02*
G03X91945Y245017I-0J-7418D01*
G01Y245276D02*
X93887D01*
X92887Y245208D02*
Y245343D01*
X119522Y237299D02*
G03X117084Y243166I-8323J-19D01*
G01X119522Y237299D02*
X120252Y241078D01*
X117084Y243166D02*
G03X120252Y241078I6664J6664D01*
G01X117084Y243166D02*
X117084D01*
X117938Y242166D02*
X118264D01*
X118560Y241166D02*
X120040D01*
X119006Y240166D02*
X120076D01*
X119306Y239166D02*
X119883D01*
X119475Y238166D02*
X119690D01*
X117084Y243166D02*
X117084D01*
X118084Y241957D02*
Y242298D01*
X119084Y239945D02*
Y241641D01*
X120084Y240211D02*
Y241147D01*
X91945Y248093D02*
G03X93887Y247835I1942J7159D01*
G01X91945Y248093D02*
Y247576D01*
X93887Y247835D02*
G03X91945Y247576I-0J-7418D01*
G01Y247835D02*
X93887D01*
X92887Y247767D02*
Y247902D01*
X124522Y237299D02*
G03X122084Y243166I-8323J-19D01*
G01X124522Y237299D02*
X125252Y241078D01*
X122084Y243166D02*
G03X125252Y241078I6664J6664D01*
G01X122084Y243166D02*
X122084D01*
X122938Y242166D02*
X123264D01*
X123560Y241166D02*
X125040D01*
X124006Y240166D02*
X125076D01*
X124306Y239166D02*
X124883D01*
X124475Y238166D02*
X124690D01*
X122084Y243166D02*
X122084D01*
X123084Y241957D02*
Y242298D01*
X124084Y239945D02*
Y241641D01*
X125084Y240211D02*
Y241147D01*
X310715Y262076D02*
G03X317248Y264098I1348J7208D01*
G01X310715Y262076D02*
X315225Y257565D01*
X317248Y264098D02*
G03X315225Y257565I5185J-5185D01*
G01X317248Y264098D02*
X317248D01*
X316002Y263098D02*
X316412D01*
X313528Y262098D02*
X315828D01*
X311692Y261098D02*
X315433D01*
X312692Y260098D02*
X315197D01*
X313692Y259098D02*
X315103D01*
X314692Y258098D02*
X315146D01*
X311248Y261542D02*
Y261996D01*
X312248Y260542D02*
Y261953D01*
X313248Y259542D02*
Y262047D01*
X314248Y258542D02*
Y262284D01*
X315248Y260378D02*
Y262679D01*
X316248Y262852D02*
Y263262D01*
X133816Y274460D02*
G03X137273Y268021I12413J2517D01*
G01X133816Y274460D02*
X131861Y269569D01*
X137273Y268021D02*
G03X131861Y269569I-4102J-4102D01*
G01X133640Y274021D02*
X133913D01*
X133240Y273021D02*
X134197D01*
X132840Y272021D02*
X134573D01*
X132441Y271021D02*
X135051D01*
X132041Y270021D02*
X135644D01*
X135932Y269021D02*
X136374D01*
X132273Y269650D02*
Y270601D01*
X133273Y269719D02*
Y273103D01*
X134273Y269614D02*
Y272796D01*
X135273Y269325D02*
Y270622D01*
X136273Y268821D02*
Y269147D01*
X143736Y274601D02*
G03X147493Y268332I14389J4364D01*
G01X143736Y274601D02*
X142013Y269624D01*
X147493Y268332D02*
G03X142013Y269624I-3784J-3784D01*
G01X143642Y274332D02*
X143820D01*
X143296Y273332D02*
X144183D01*
X142950Y272332D02*
X144630D01*
X142604Y271332D02*
X145170D01*
X142258Y270332D02*
X145814D01*
X146107Y269332D02*
X146579D01*
X142493Y269759D02*
Y271009D01*
X143493Y269895D02*
Y273900D01*
X144493Y269842D02*
Y272620D01*
X145493Y269593D02*
Y270808D01*
X146493Y269118D02*
Y269436D01*
X146109Y280861D02*
X145199Y281771D01*
X144640*
X146109Y280861D02*
G03X144640Y281771I-2668J-2667D01*
G01X145109Y281578D02*
Y281771D01*
X156050Y284629D02*
G03X157169Y285915I-180J1286D01*
G01X156050Y284629D02*
X158287D01*
X157169Y285915D02*
G03X158287Y284629I1298J0D01*
G01X157169Y285915D02*
X157169D01*
X156698Y284915D02*
X157639D01*
X156169Y284629D02*
Y284651D01*
X157169Y284629D02*
Y285915D01*
X158169Y284629D02*
Y284651D01*
X176131Y115900D02*
Y116426D01*
X180262Y119229*
X195157Y127165D02*
Y119291D01*
X204874*
X210874D02*
Y123104D01*
X211614Y123844*
Y128150*
X248181Y119291D02*
X238465D01*
Y127165*
X254181Y119291D02*
Y123104D01*
X254921Y123844*
Y128150*
X175931Y123700D02*
X176231D01*
X195157Y135039D02*
X200266D01*
X203219Y137992*
X207874*
X204134Y128150D02*
X204874Y127409D01*
Y119291*
X238465Y135039D02*
X243573D01*
X246526Y137992*
X251181*
X247441Y128150D02*
Y123859D01*
X248181Y123119*
Y119291*
X269731Y127700D02*
Y127798D01*
X275161Y133228*
X280709*
X285209Y128728*
Y119607*
X189094Y142913D02*
Y135039D01*
X232402Y142913D02*
Y135039D01*
X153500Y189963D02*
Y164343D01*
X159843Y158000*
X180631*
X181631Y157000*
X191317*
X196588Y162271*
Y164929*
X151500Y189963D02*
Y158000D01*
X160000Y149500*
Y145051*
X165051Y140000*
X176358*
X189094Y127264*
Y127165*
X149500Y189963D02*
Y148369D01*
X160869Y137000*
X174770*
X185000Y126770*
Y117505*
X187505Y115000*
X220335*
X232402Y127067*
Y127165*
X147500Y189963D02*
Y147541D01*
X161041Y134000*
X174941*
X183000Y125941*
Y116676*
X186676Y113000*
X278602*
X285209Y119607*
X145500Y189963D02*
Y146713D01*
X160213Y132000*
X174113*
X180262Y125850*
Y119229*
X143500Y189963D02*
Y145884D01*
X159384Y130000*
X170330*
X176231Y124098*
Y123700*
X157500Y189963D02*
Y166000D01*
X161500Y162000*
X186388*
X186588Y162200*
Y164929*
X155500Y189963D02*
Y165172D01*
X160672Y160000*
X183194*
X184194Y159000*
X188317*
X191588Y162271*
Y164929*
X182283Y197000D02*
X182480D01*
X186588Y192892*
Y187814*
X196588D02*
Y194462D01*
X198025Y195899*
Y201562*
X310236Y194094D02*
X317248Y201106D01*
X127000Y211000D02*
Y210700D01*
X134763*
X115300Y218200D02*
Y218003D01*
X119303Y214000*
X125000*
X127700Y216700*
X134763*
Y218700D02*
X138247D01*
X139489Y219942*
Y250198*
X144409Y255118*
X170237Y218700D02*
X173000D01*
X183000Y228700*
Y234763*
X188189Y239952*
Y242677*
X170237Y216700D02*
X175274D01*
X178000Y219426*
Y220013*
X183987Y226000*
X187809*
X195000Y233191*
Y281364*
X200636Y287000*
X275554*
X292000Y270554*
Y243827*
X317248Y218579*
Y201106*
X170237Y206700D02*
X176126D01*
X178426Y209000*
X192013*
X192962Y209950*
X170237Y204700D02*
X177112D01*
X179312Y206900*
X204413*
X207462Y209950*
X189732Y219800D02*
X192962Y216569D01*
Y209950*
X182283Y203000D02*
Y202603D01*
X185352*
X186098Y201857*
X190151*
Y201562*
X183569Y212500D02*
Y213800D01*
X183669Y213900*
Y219800*
X190151Y201562D02*
Y195899D01*
X191588Y194462*
Y187814*
X204132Y219900D02*
Y219802D01*
X207462Y216471*
Y209950*
X198069Y212500D02*
Y219900D01*
X198025Y201562D02*
Y201852D01*
X202078*
X202830Y202604*
X205899*
Y202993*
X99823Y237770D02*
Y240157D01*
X141500Y225437D02*
Y236692D01*
X144409Y239602*
Y245118*
X143500Y225437D02*
Y235838D01*
X149900Y242238*
X145500Y225437D02*
Y234785D01*
X151315Y240600*
X156188*
X159600Y244012*
X147500Y225437D02*
Y233957D01*
X152143Y238600*
X157462*
X159462Y240600*
X166188*
X169200Y243612*
X149500Y225437D02*
Y233128D01*
X152972Y236600*
X158736*
X160736Y238600*
X174188*
X179700Y244112*
Y264639*
X181000Y265939*
Y275800*
X151500Y225437D02*
Y232300D01*
X153800Y234600*
X159900*
X161900Y236600*
X175017*
X181700Y243283*
Y261402*
X183000Y262702*
X161500Y225437D02*
Y233000D01*
X163100Y234600*
X175845*
X183700Y242455*
Y258188*
X188189Y262677*
X89787Y245276D02*
X114975D01*
X119823Y240428*
Y237770*
X89787Y247835D02*
X117416D01*
X124823Y240428*
Y237770*
X310236Y257087D02*
X317248Y264098D01*
X130787Y272835D02*
X132459D01*
X137994Y267300*
X144300*
X149900Y261700*
Y242238*
X140787Y272835D02*
X141889Y273936D01*
X159600Y256225*
Y244012*
X78407Y287782D02*
Y286601D01*
X85608Y279400*
X126668*
X130568Y283300*
X103107Y287782D02*
Y286601D01*
X108708Y281000*
X124700*
X126700Y283000*
Y285313*
X128187Y286800*
X146430*
X149932Y283298*
Y283200*
X143869D02*
Y283102D01*
X147470Y279500*
X177300*
X181000Y275800*
X136631Y283300D02*
Y283202D01*
X141233Y278600*
X142800*
X161800Y259600*
X166225*
X169200Y256625*
Y243612*
X157169Y283200D02*
Y286369D01*
X158900Y288100*
X182800*
Y282177*
X183000Y281977*
Y262702*
X182800Y288100D02*
X191100D01*
X192500Y289500*
X307424*
X317248Y279676*
Y264098*
X158974Y294331D02*
G03X158974I-4053J0D01*
G01X148974D02*
G03X148974I-4053J0D01*
G01X313974Y105669D02*
G03X313974I-4053J0D01*
G01X303974D02*
G03X303974I-4053J0D01*
G01X257100Y245000D02*
G03X257100I-2100J0D01*
G01Y255000D02*
G03X257100I-2100J0D01*
G01Y265000D02*
G03X257100I-2100J0D01*
G01Y275000D02*
G03X257100I-2100J0D01*
G01X280628Y166378D02*
G03X280628I-6612J0D01*
G01Y231378D02*
G03X280628I-6612J0D01*
G01X293974Y105669D02*
G03X293974I-4053J0D01*
G01X316848Y144882D02*
G03X316848I-6612J0D01*
G01Y174409D02*
G03X316848I-6612J0D01*
G01X283974Y105669D02*
G03X283974I-4053J0D01*
G01X273974D02*
G03X273974I-4053J0D01*
G01X262100Y105000D02*
G03X262100I-2100J0D01*
G01X243974Y105512D02*
G03X243974I-4053J0D01*
G01X233974D02*
G03X233974I-4053J0D01*
G01X223974D02*
G03X223974I-4053J0D01*
G01X213974D02*
G03X213974I-4053J0D01*
G01X203974D02*
G03X203974I-4053J0D01*
G01X193974D02*
G03X193974I-4053J0D01*
G01X183974D02*
G03X183974I-4053J0D01*
G01X287200Y254800D02*
G03X287200I-2100J0D01*
G01Y264700D02*
G03X287200I-2100J0D01*
G01X220500Y175800D02*
G03X220500I-2100J0D01*
G01X206100Y251000D02*
G03X206100I-4100J0D01*
G01X179643Y177165D02*
G03X179643I-7989J0D01*
G01X178100Y190000D02*
G03X178100I-2100J0D01*
G01X175100Y228100D02*
G03X175100I-2100J0D01*
G01X118100Y135000D02*
G03X118100I-2100J0D01*
G01X138100Y180000D02*
G03X138100I-2100J0D01*
G01X118100Y174000D02*
G03X118100I-2100J0D01*
G01X83638Y127559D02*
G03X83638I-4012J0D01*
G01Y154331D02*
G03X83638I-4012J0D01*
G01X82100Y165000D02*
G03X82100I-2100J0D01*
G01X89880Y212126D02*
G03X89880I-4053J0D01*
G01Y222126D02*
G03X89880I-4053J0D01*
G01X337764Y242272D02*
G03X337617Y242625I-500J-0D01*
G01X328507Y251735*
X327921Y253150D02*
G03X328507Y251735I2000J-0D01*
G01X327921Y253150D02*
Y295421D01*
G03X327775Y295775I-500J0*
G01X321365Y302184*
G03X321012Y302331I-353J-353*
G01X133225*
G03X132982Y301394I0J-500*
G01X135039Y289232D02*
G03X132982Y301394I-5905J5256D01*
G01X135039Y289232D02*
G03X135413Y288400I374J-332D01*
G01X146430*
X147561Y287931D02*
G03X146430Y288400I-1131J-1131D01*
G01X147561Y287931D02*
X149117Y286376D01*
G03X149471Y286229I354J353*
G01X151762*
X152862Y285129D02*
G03X151762Y286229I-1100J0D01*
G01X152862Y285129D02*
Y281600D01*
G03X153362Y281100I500J0*
G01X153738*
G03X154238Y281600I-0J500*
G01Y285129*
X155172Y286217D02*
G03X154238Y285129I166J-1088D01*
G01X155172Y286217D02*
G03X155590Y286629I-75J494D01*
G01X156037Y287500D02*
G03X155590Y286629I1132J-1131D01*
G01X156037Y287500D02*
X157769Y289231D01*
X158900Y289700D02*
G03X157769Y289231I0J-1600D01*
G01X158900Y289700D02*
X163007D01*
G03X163217Y290654I-0J500*
G01X166625D02*
G03X163217I-1704J3677D01*
G01X166625D02*
G03X166836Y289700I211J-454D01*
G01X173007*
G03X173217Y290654I-0J500*
G01X176625D02*
G03X173217I-1704J3677D01*
G01X176625D02*
G03X176836Y289700I211J-454D01*
G01X183007*
G03X183217Y290654I-0J500*
G01X186625D02*
G03X183217I-1704J3677D01*
G01X186625D02*
G03X186836Y289700I211J-454D01*
G01X190230*
G03X190584Y289846I0J500*
G01X191369Y290631*
X191729Y290902D02*
G03X191369Y290631I771J-1402D01*
G01X191729Y290902D02*
G03X191988Y291340I-241J438D01*
X191865Y291669I-500J0*
G01X198164Y291900D02*
G03X191865Y291669I-3243J2431D01*
G01X198164Y291900D02*
G03X198064Y291600I400J-300D01*
X198564Y291100I500J0*
G01X201278*
G03X201778Y291600I0J500*
X201678Y291900I-500J0*
G01X208164D02*
G03X201678I-3243J2431D01*
G01X208164D02*
G03X208064Y291600I400J-300D01*
X208564Y291100I500J0*
G01X211278*
G03X211778Y291600I0J500*
X211678Y291900I-500J0*
G01X218164D02*
G03X211678I-3243J2431D01*
G01X218164D02*
G03X218064Y291600I400J-300D01*
X218564Y291100I500J0*
G01X221278*
G03X221778Y291600I0J500*
X221678Y291900I-500J0*
G01X228164D02*
G03X221678I-3243J2431D01*
G01X228164D02*
G03X228064Y291600I400J-300D01*
X228564Y291100I500J0*
G01X230368*
G03X230868Y291600I0J500*
G01Y297283*
X231969Y298383D02*
G03X230868Y297283I-0J-1100D01*
G01X231969Y298383D02*
X237874D01*
X238974Y297283D02*
G03X237874Y298383I-1100J0D01*
G01X238974Y297283D02*
Y291600D01*
G03X239474Y291100I500J0*
G01X246278*
G03X246778Y291600I0J500*
X246678Y291900I-500J0*
G01X253164D02*
G03X246678I-3243J2431D01*
G01X253164D02*
G03X253064Y291600I400J-300D01*
X253564Y291100I500J0*
G01X256278*
G03X256778Y291600I0J500*
X256678Y291900I-500J0*
G01X263164D02*
G03X256678I-3243J2431D01*
G01X263164D02*
G03X263064Y291600I400J-300D01*
X263564Y291100I500J0*
G01X266278*
G03X266778Y291600I0J500*
X266678Y291900I-500J0*
G01X273164D02*
G03X266678I-3243J2431D01*
G01X273164D02*
G03X273064Y291600I400J-300D01*
X273564Y291100I500J0*
G01X276278*
G03X276778Y291600I0J500*
X276678Y291900I-500J0*
G01X283164D02*
G03X276678I-3243J2431D01*
G01X283164D02*
G03X283064Y291600I400J-300D01*
X283564Y291100I500J0*
G01X286278*
G03X286778Y291600I0J500*
X286678Y291900I-500J0*
G01X293164D02*
G03X286678I-3243J2431D01*
G01X293164D02*
G03X293064Y291600I400J-300D01*
X293564Y291100I500J0*
G01X296278*
G03X296778Y291600I0J500*
X296678Y291900I-500J0*
G01X303164D02*
G03X296678I-3243J2431D01*
G01X303164D02*
G03X303064Y291600I400J-300D01*
X303564Y291100I500J0*
G01X306278*
G03X306778Y291600I0J500*
X306678Y291900I-500J0*
G01X310091Y290281D02*
G03X306678Y291900I-170J4050D01*
G01X310091Y290281D02*
G03X309612Y289782I21J-499D01*
X309758Y289428I500J-0*
G01X318379Y280807*
X318848Y279676D02*
G03X318379Y280807I-1600J0D01*
G01X318848Y279676D02*
Y264098D01*
X318379Y262967D02*
G03X318848Y264098I-1131J1131D01*
G01X318379Y262967D02*
G03X316700Y258913I4054J-4054D01*
X316727Y258355I5733J0*
X316734Y258311I498J49*
G01X311461Y263584D02*
G03X316734Y258311I-1225J-6497D01*
G01X311461Y263584D02*
G03X311505Y263578I92J491D01*
X315443Y264653I558J5706*
X315648Y265057I-295J404*
G01Y271628*
G03X314803Y271990I-500J0*
G01X310084Y283382D02*
G03X314803Y271990I152J-6610D01*
G01X310084Y283382D02*
G03X310573Y283882I-11J500D01*
X310426Y284235I-500J-0*
G01X306908Y287754*
G03X306554Y287900I-354J-354*
G01X278124*
G03X277624Y287400I0J-500*
X277771Y287046I500J-0*
G01X293131Y271686*
X293600Y270554D02*
G03X293131Y271686I-1600J0D01*
G01X293600Y270554D02*
Y244697D01*
G03X293746Y244343I500J-0*
G01X303065Y235025*
G03X303898Y235521I353J353*
G01X303624Y237402D02*
G03X303898Y235521I6612J-0D01*
G01X308355Y231063D02*
G03X303624Y237402I1881J6339D01*
G01X308355Y231063D02*
G03X307713Y230584I-142J-479D01*
X307860Y230230I500J-0*
G01X318379Y219710*
X318848Y218579D02*
G03X318379Y219710I-1600J-0D01*
G01X318848Y218579D02*
Y201106D01*
X318379Y199975D02*
G03X318848Y201106I-1131J1131D01*
G01X318379Y199975D02*
G03X316700Y195921I4054J-4054D01*
X316727Y195363I5733J-0*
X316734Y195319I498J48*
G01X311461Y200592D02*
G03X316734Y195319I-1225J-6498D01*
G01X311461Y200592D02*
G03X311505Y200586I92J491D01*
X315443Y201661I558J5706*
X315648Y202065I-295J404*
G01Y208636*
G03X314803Y208998I-500J0*
G01X303624Y213780D02*
G03X314803Y208998I6612J-0D01*
G01X303624Y213780D02*
X303624D01*
X303626Y213942D02*
G03X303624Y213780I6610J-162D01*
G01X303626Y213942D02*
G03Y213948I-499J12D01*
X303627Y214031I-6471J83*
X301731Y218607I-6472J-0*
G01X272178Y248161*
X271416Y250000D02*
G03X272178Y248161I2600J-0D01*
G01X271416Y250000D02*
Y269194D01*
G03X269461Y273829I-6472J0*
X269457Y273833I-349J-358*
G01X267404Y278622D02*
G03X269457Y273833I6612J0D01*
G01X270909Y284459D02*
G03X267404Y278622I3107J-5837D01*
G01X270909Y284459D02*
G03X270675Y285400I-234J441D01*
G01X227749*
G03X227249Y284900I-0J-500*
X227613Y284419I500J-0*
G01X231714Y276772D02*
G03X227613Y284419I-5730J1850D01*
G01X231714Y276772D02*
X231712Y276765D01*
X230563Y274712D02*
G03X231712Y276765I-4579J3910D01*
G01X230563Y274712D02*
G03X230491Y274601I380J-325D01*
X229600Y270646I8329J-3955*
G01Y247724*
X228838Y245886D02*
G03X229600Y247724I-1838J1838D01*
G01X228838Y245886D02*
X221309Y238357D01*
G03X221163Y238003I354J-354*
G01Y236262*
G03X221994Y235888I500J0*
G01Y226868D02*
G03Y235888I3990J4510D01*
G01Y226868D02*
G03X221163Y226494I-331J-374D01*
G01Y218506*
G03X221994Y218132I500J0*
G01X232005Y213622D02*
G03X221994Y218132I-6021J0D01*
G01X230138Y209263D02*
G03X232005Y213622I-4154J4359D01*
G01X230138Y209263D02*
G03X230133Y209259I344J-362D01*
X228584Y205582I3588J-3677*
G01Y203284*
G03X228730Y202931I500J0*
G01X239838Y191822*
X240600Y189984D02*
G03X239838Y191822I-2600J-0D01*
G01X240600Y189984D02*
Y174903D01*
G03X240746Y174549I500J-0*
G01X261294Y154002*
G03X261647Y153856I353J354*
G01X265261*
X266361Y152756D02*
G03X265261Y153856I-1100J-0D01*
G01X266361Y152756D02*
Y144882D01*
X265261Y143782D02*
G03X266361Y144882I-0J1100D01*
G01X265261Y143782D02*
X263123D01*
G03X262770Y143635I0J-500*
G01X259963Y140829*
X258125Y140067D02*
G03X259963Y140829I-0J2600D01*
G01X258125Y140067D02*
X256058D01*
G03X255704Y139921I-0J-500*
G01X253921Y138137*
G03X253775Y137817I353J-353*
G01X253679Y137270D02*
G03X253775Y137817I-2498J722D01*
G01X253679Y137270D02*
G03X253659Y137131I480J-139D01*
G01Y135531*
X252559Y134431D02*
G03X253659Y135531I0J1100D01*
G01X252559Y134431D02*
X249803D01*
X248703Y135531D02*
G03X249803Y134431I1100J0D01*
G01X248703Y135531D02*
Y135892D01*
G03X248203Y136392I-500J0*
G01X247395*
G03X247042Y136246I0J-500*
G01X244704Y133908*
X243573Y133439D02*
G03X244704Y133908I-0J1600D01*
G01X243573Y133439D02*
X241886D01*
G03X241389Y132993I0J-500*
G01X240295Y132010D02*
G03X241389Y132993I0J1100D01*
G01X240295Y132010D02*
X236634D01*
X235808Y132383D02*
G03X236634Y132010I826J727D01*
G01X235808Y132383D02*
G03X235058I-375J-330D01*
G01X234232Y132010D02*
G03X235058Y132383I0J1100D01*
G01X234232Y132010D02*
X230571D01*
X229471Y133110D02*
G03X230571Y132010I1100J0D01*
G01X229471Y133110D02*
Y136969D01*
X230386Y138053D02*
G03X229471Y136969I185J-1084D01*
G01X230386Y138053D02*
G03X230802Y138546I-84J493D01*
G01Y139407*
G03X230386Y139900I-500J0*
G01X229471Y140984D02*
G03X230386Y139900I1100J0D01*
G01X229471Y140984D02*
Y144843D01*
X230571Y145943D02*
G03X229471Y144843I-0J-1100D01*
G01X230571Y145943D02*
X234232D01*
X234989Y145641D02*
G03X234232Y145943I-757J-798D01*
G01X234989Y145641D02*
G03X235833Y146004I344J363D01*
G01Y147684*
G03X234980Y148039I-500J0*
G01X234205Y147719D02*
G03X234980Y148039I-0J1100D01*
G01X234205Y147719D02*
X230661D01*
X229561Y148819D02*
G03X230661Y147719I1100J-0D01*
G01X229561Y148819D02*
Y152756D01*
X230661Y153856D02*
G03X229561Y152756I0J-1100D01*
G01X230661Y153856D02*
X234205D01*
X235049Y153461D02*
G03X234205Y153856I-844J-705D01*
G01X235049Y153461D02*
G03X235817I384J320D01*
G01X236661Y153856D02*
G03X235817Y153461I0J-1100D01*
G01X236661Y153856D02*
X249897D01*
X250997Y152756D02*
G03X249897Y153856I-1100J-0D01*
G01X250997Y152756D02*
Y144882D01*
X249897Y143782D02*
G03X250997Y144882I-0J1100D01*
G01X249897Y143782D02*
X244976D01*
X243876Y144882D02*
G03X244976Y143782I1100J-0D01*
G01X243876Y144882D02*
Y148156D01*
G03X243376Y148656I-500J-0*
G01X241661*
G03X241206Y148363I-0J-500*
G01X241118Y148206D02*
G03X241206Y148363I-913J613D01*
G01X241118Y148206D02*
G03X241033Y147927I415J-279D01*
G01Y145856*
G03X241146Y145540I500J0*
G01X241395Y144843D02*
G03X241146Y145540I-1100J-0D01*
G01X241395Y144843D02*
Y140984D01*
X240295Y139884D02*
G03X241395Y140984I0J1100D01*
G01X240295Y139884D02*
X236634D01*
X235808Y140257D02*
G03X236634Y139884I826J727D01*
G01X235808Y140257D02*
G03X235058I-375J-330D01*
G01X234417Y139900D02*
G03X235058Y140257I-185J1084D01*
G01X234417Y139900D02*
G03X234002Y139407I85J-493D01*
G01Y138546*
G03X234417Y138053I500J-0*
G01X235058Y137695D02*
G03X234417Y138053I-826J-726D01*
G01X235058Y137695D02*
G03X235808I375J331D01*
G01X236634Y138069D02*
G03X235808Y137695I-0J-1100D01*
G01X236634Y138069D02*
X240295D01*
X241389Y137086D02*
G03X240295Y138069I-1094J-117D01*
G01X241389Y137086D02*
G03X241886Y136639I497J53D01*
G01X242703*
G03X243057Y136786I-0J500*
G01X245394Y139124*
X246526Y139592D02*
G03X245394Y139124I-0J-1600D01*
G01X246526Y139592D02*
X248203D01*
G03X248703Y140092I0J500*
G01Y140453*
X249784Y141553D02*
G03X248703Y140453I19J-1100D01*
G01X249784Y141553D02*
G03X250128Y141699I-9J500D01*
G01X252935Y144506*
X254774Y145267D02*
G03X252935Y144506I-0J-2600D01*
G01X254774Y145267D02*
X256841D01*
G03X257194Y145414I-0J500*
G01X258450Y146669*
G03X259183Y147672I-2864J2865*
X259239Y147902I-444J230*
G01Y148086*
G03X259215Y148240I-500J0*
X258450Y149492I-2976J-959*
G01X236859Y171083*
G03X236005Y170730I-354J-353*
G01Y162731*
X235244Y160893D02*
G03X236005Y162731I-1839J1838D01*
G01X235244Y160893D02*
X223843Y149492D01*
G03X223078Y148240I2211J-2211*
X223054Y148086I476J-154*
G01Y144882*
X221954Y143782D02*
G03X223054Y144882I-0J1100D01*
G01X221954Y143782D02*
X219816D01*
G03X219463Y143635I0J-500*
G01X216656Y140829*
X214818Y140067D02*
G03X216656Y140829I-0J2600D01*
G01X214818Y140067D02*
X212751D01*
G03X212397Y139921I-0J-500*
G01X210613Y138137*
G03X210468Y137817I354J-353*
G01X210372Y137270D02*
G03X210468Y137817I-2498J722D01*
G01X210372Y137270D02*
G03X210352Y137131I480J-139D01*
G01Y135531*
X209252Y134431D02*
G03X210352Y135531I-0J1100D01*
G01X209252Y134431D02*
X206496D01*
X205396Y135531D02*
G03X206496Y134431I1100J0D01*
G01X205396Y135531D02*
Y135892D01*
G03X204896Y136392I-500J0*
G01X204088*
G03X203735Y136246I0J-500*
G01X201397Y133908*
X200266Y133439D02*
G03X201397Y133908I-0J1600D01*
G01X200266Y133439D02*
X198579D01*
G03X198082Y132993I0J-500*
G01X196988Y132010D02*
G03X198082Y132993I0J1100D01*
G01X196988Y132010D02*
X193327D01*
X192501Y132383D02*
G03X193327Y132010I826J727D01*
G01X192501Y132383D02*
G03X191751I-375J-330D01*
G01X190925Y132010D02*
G03X191751Y132383I0J1100D01*
G01X190925Y132010D02*
X187818D01*
G03X187318Y131510I-0J-500*
X187464Y131157I500J0*
G01X188280Y130341*
G03X188634Y130195I354J354*
G01X190925*
X191751Y129821D02*
G03X190925Y130195I-826J-727D01*
G01X191751Y129821D02*
G03X192501I375J331D01*
G01X193327Y130195D02*
G03X192501Y129821I-0J-1101D01*
G01X193327Y130195D02*
X196988D01*
X198088Y129094D02*
G03X196988Y130195I-1100J0D01*
G01X198088Y129094D02*
Y125236D01*
X197173Y124152D02*
G03X198088Y125236I-185J1084D01*
G01X197173Y124152D02*
G03X196758Y123659I85J-493D01*
G01Y122798*
G03X197173Y122305I500J-0*
G01X198082Y121338D02*
G03X197173Y122305I-1094J-118D01*
G01X198082Y121338D02*
G03X198579Y120891I497J53D01*
G01X201508*
G03X202006Y121350I-0J500*
G01X202877Y122336D02*
G03X202006Y121350I225J-1076D01*
G01X202877Y122336D02*
G03X203274Y122826I-103J490D01*
G01Y124089*
G03X202774Y124589I-500J-0*
G01X202756*
X201656Y125689D02*
G03X202756Y124589I1100J-0D01*
G01X201656Y125689D02*
Y130610D01*
X202756Y131710D02*
G03X201656Y130610I-0J-1100D01*
G01X202756Y131710D02*
X205512D01*
X206612Y130610D02*
G03X205512Y131710I-1100J0D01*
G01X206612Y130610D02*
Y125689D01*
X206534Y125282D02*
G03X206612Y125689I-1022J407D01*
G01X206534Y125282D02*
G03X206500Y125134I465J-184D01*
X206474Y124424I9741J-710*
G01Y122826*
G03X206871Y122336I500J-0*
G01X207490Y121965D02*
G03X206871Y122336I-844J-705D01*
G01X207490Y121965D02*
G03X208258I384J320D01*
G01X209102Y122360D02*
G03X208258Y121965I0J-1100D01*
G01X209102Y122360D02*
X212646D01*
X213746Y121260D02*
G03X212646Y122360I-1100J-0D01*
G01X213746Y121260D02*
Y117323D01*
X213735Y117170D02*
G03X213746Y117323I-1089J153D01*
G01X213735Y117170D02*
G03X213730Y117100I495J-70D01*
G01X213730*
G03X214230Y116600I500J0*
G01X219465*
G03X219818Y116746I-0J500*
G01X229324Y126253*
G03X229471Y126606I-353J353*
G01Y129094*
X230571Y130195D02*
G03X229471Y129094I-0J-1101D01*
G01X230571Y130195D02*
X234232D01*
X235058Y129821D02*
G03X234232Y130195I-826J-727D01*
G01X235058Y129821D02*
G03X235808I375J331D01*
G01X236634Y130195D02*
G03X235808Y129821I-0J-1101D01*
G01X236634Y130195D02*
X240295D01*
X241395Y129094D02*
G03X240295Y130195I-1100J0D01*
G01X241395Y129094D02*
Y125236D01*
X240480Y124152D02*
G03X241395Y125236I-185J1084D01*
G01X240480Y124152D02*
G03X240065Y123659I85J-493D01*
G01Y122798*
G03X240480Y122305I500J-0*
G01X241389Y121338D02*
G03X240480Y122305I-1094J-118D01*
G01X241389Y121338D02*
G03X241886Y120891I497J53D01*
G01X244815*
G03X245313Y121350I-0J500*
G01X245918Y122244D02*
G03X245313Y121350I491J-984D01*
G01X245918Y122244D02*
G03X246111Y122970I-223J448D01*
G01X245841Y123859D02*
G03X246111Y122970I1600J0D01*
G01X245841Y123859D02*
Y124261D01*
G03X245567Y124707I-500J0*
G01X244963Y125689D02*
G03X245567Y124707I1100J-0D01*
G01X244963Y125689D02*
Y130610D01*
X246063Y131710D02*
G03X244963Y130610I0J-1100D01*
G01X246063Y131710D02*
X248819D01*
X249919Y130610D02*
G03X248819Y131710I-1100J0D01*
G01X249919Y130610D02*
Y125689D01*
X249504Y124828D02*
G03X249919Y125689I-685J861D01*
G01X249504Y124828D02*
G03X249426Y124123I312J-391D01*
G01X249781Y123119D02*
G03X249426Y124123I-1600J-0D01*
G01X249781Y123119D02*
Y122826D01*
G03X250179Y122336I500J-0*
G01X250797Y121965D02*
G03X250179Y122336I-844J-705D01*
G01X250797Y121965D02*
G03X251565I384J320D01*
G01X252409Y122360D02*
G03X251565Y121965I0J-1100D01*
G01X252409Y122360D02*
X255953D01*
X257053Y121260D02*
G03X255953Y122360I-1100J-0D01*
G01X257053Y121260D02*
Y117323D01*
X255953Y116223D02*
G03X257053Y117323I-0J1100D01*
G01X255953Y116223D02*
X252409D01*
X251565Y116618D02*
G03X252409Y116223I844J705D01*
G01X251565Y116618D02*
G03X250797I-384J-320D01*
G01X249953Y116223D02*
G03X250797Y116618I-0J1100D01*
G01X249953Y116223D02*
X246409D01*
X245313Y117232D02*
G03X246409Y116223I1096J91D01*
G01X245313Y117232D02*
G03X244815Y117691I-498J-41D01*
G01X241886*
G03X241389Y117245I0J-500*
G01X240295Y116262D02*
G03X241389Y117245I0J1100D01*
G01X240295Y116262D02*
X236634D01*
X235808Y116635D02*
G03X236634Y116262I826J727D01*
G01X235808Y116635D02*
G03X235058I-375J-330D01*
G01X234232Y116262D02*
G03X235058Y116635I0J1100D01*
G01X234232Y116262D02*
X230571D01*
X229471Y117362D02*
G03X230571Y116262I1100J0D01*
G01X229471Y117362D02*
Y120666D01*
G03X228617Y121020I-500J0*
G01X223051Y115454*
G03X222905Y115100I354J-354*
X223405Y114600I500J0*
G01X277732*
G03X278085Y114746I-0J500*
G01X281614Y118275*
G03X281760Y118628I-354J353*
X281260Y119128I-500J0*
G01X277709*
X276609Y120228D02*
G03X277709Y119128I1100J0D01*
G01X276609Y120228D02*
Y126228D01*
X277709Y127328D02*
G03X276609Y126228I-0J-1100D01*
G01X277709Y127328D02*
X283109D01*
G03X283609Y127828I-0J500*
G01Y127832*
G03X283424Y128220I-500J0*
X280814Y129130I-2559J-3144*
X280808I6J-500*
G01X277619Y130533D02*
G03X280808Y129130I3090J2695D01*
G01X277619Y130533D02*
G03X277613Y130540I-377J-328D01*
X276061Y131503I-2452J-2217*
X275572Y131376I-136J-481*
G01X273118Y128922*
G03X273111Y128915I354J-353*
G01X272802Y128593*
G03X272662Y128246I360J-347*
G01Y125771*
X271562Y124671D02*
G03X272662Y125771I0J1100D01*
G01X271562Y124671D02*
X267901D01*
X267075Y125044D02*
G03X267901Y124671I826J727D01*
G01X267075Y125044D02*
G03X266325I-375J-331D01*
G01X266187Y124913D02*
G03X266325Y125044I-688J858D01*
G01X266187Y124913D02*
G03X266000Y124522I313J-391D01*
G01Y122503*
G03X266853Y122148I500J-0*
G01X267628Y122469D02*
G03X266853Y122148I0J-1100D01*
G01X267628Y122469D02*
X271172D01*
X272272Y121369D02*
G03X271172Y122469I-1100J-0D01*
G01X272272Y121369D02*
Y117431D01*
X271172Y116331D02*
G03X272272Y117431I-0J1100D01*
G01X271172Y116331D02*
X267628D01*
X266784Y116727D02*
G03X267628Y116331I844J704D01*
G01X266784Y116727D02*
G03X266016I-384J-321D01*
G01X265172Y116331D02*
G03X266016Y116727I-0J1100D01*
G01X265172Y116331D02*
X261628D01*
X260528Y117431D02*
G03X261628Y116331I1100J0D01*
G01X260528Y117431D02*
Y121369D01*
X260715Y121982D02*
G03X260528Y121369I913J-613D01*
G01X260715Y121982D02*
G03X260800Y122260I-415J278D01*
G01Y125329*
G03X260781Y125467I-500J0*
G01X260738Y125771D02*
G03X260781Y125467I1100J-0D01*
G01X260738Y125771D02*
Y129629D01*
X260965Y130299D02*
G03X260738Y129629I873J-670D01*
G01X260965Y130299D02*
G03X261068Y130603I-397J304D01*
G01Y131729*
X261830Y133568D02*
G03X261068Y131729I1838J-1839D01*
G01X261830Y133568D02*
X273329Y145067D01*
X275168Y145828D02*
G03X273329Y145067I-0J-2600D01*
G01X275168Y145828D02*
X277184D01*
G03X277741Y146058I-0J792*
X277750Y146067I-352J355*
G01Y140390D02*
G03Y146067I2959J2838D01*
G01Y140390D02*
G03X277741Y140399I-361J-346D01*
X277184Y140628I-557J-563*
G01X276452*
G03X276098Y140482I-0J-500*
G01X267149Y131532*
G03X267002Y131179I353J-353*
X267627Y130694I500J-0*
G01X267901Y130729D02*
G03X267627Y130694I-0J-1100D01*
G01X267901Y130729D02*
X270192D01*
G03X270546Y130876I0J500*
G01X274030Y134360*
X275161Y134828D02*
G03X274030Y134360I0J-1600D01*
G01X275161Y134828D02*
G03X277613Y135917I0J3306D01*
X277619Y135923I-371J335*
G01X284809Y133228D02*
G03X277619Y135923I-4100J0D01*
G01X284809Y133228D02*
X284809D01*
X284807Y133129D02*
G03X284809Y133228I-4098J99D01*
G01X284807Y133129D02*
G03Y133123I500J-12D01*
Y133072I4054J-51*
G01X284807*
G03X285994Y130205I4054J-0*
G01X286340Y129860*
X286809Y128728D02*
G03X286340Y129860I-1600J0D01*
G01X286809Y128728D02*
Y119607D01*
X286340Y118476D02*
G03X286809Y119607I-1131J1131D01*
G01X286340Y118476D02*
X279733Y111869D01*
X278602Y111400D02*
G03X279733Y111869I-0J1600D01*
G01X278602Y111400D02*
X186676D01*
X185545Y111869D02*
G03X186676Y111400I1131J1131D01*
G01X185545Y111869D02*
X181869Y115545D01*
X181400Y116676D02*
G03X181869Y115545I1600J0D01*
G01X181400Y116676D02*
Y117124D01*
G03X180619Y117538I-500J0*
G01X179281Y116630*
G03X179062Y116216I281J-414*
G01Y113971*
X177962Y112871D02*
G03X179062Y113971I0J1100D01*
G01X177962Y112871D02*
X174301D01*
X173475Y113244D02*
G03X174301Y112871I826J727D01*
G01X173475Y113244D02*
G03X172725I-375J-331D01*
G01X171899Y112871D02*
G03X172725Y113244I0J1100D01*
G01X171899Y112871D02*
X168238D01*
X167239Y113510D02*
G03X168238Y112871I999J461D01*
G01X167239Y113510D02*
G03X166785Y113800I-454J-210D01*
G01X166277*
G03X165923Y113654I-0J-500*
G01X163103Y110833*
X161618Y110218D02*
G03X163103Y110833I0J2100D01*
G01X161618Y110218D02*
X159956D01*
G03X159462Y109792I0J-500*
G01X158374Y108856D02*
G03X159462Y109792I0J1100D01*
G01X158374Y108856D02*
X157284D01*
G03X156784Y108356I-0J-500*
X156810Y108197I500J-0*
G01X156927Y107731D02*
G03X156810Y108197I-3081J-531D01*
G01X156927Y107731D02*
G03X157420Y107316I493J85D01*
G01X161130*
X162230Y106216D02*
G03X161130Y107316I-1100J-0D01*
G01X162230Y106216D02*
Y98169D01*
G03X162730Y97669I500J0*
G01X326917*
G03X327271Y97816I0J500*
G01X327775Y98320*
G03X327921Y98673I-354J353*
G01Y105512*
X328507Y106926D02*
G03X327921Y105512I1414J-1414D01*
G01X328507Y106926D02*
X337617Y116036D01*
G03X337764Y116390I-353J354*
G01Y123074*
G03X336827Y123317I-500J-0*
G01Y131014D02*
G03Y123317I-6906J-3849D01*
G01Y131014D02*
G03X337764Y131257I437J243D01*
G01Y229373*
G03X336827Y229616I-500J0*
G01Y237313D02*
G03Y229616I-6906J-3848D01*
G01Y237313D02*
G03X337764Y237556I437J243D01*
G01Y242272*
X312613Y220951D02*
X290869Y242695D01*
X290400Y243827D02*
G03X290869Y242695I1600J-0D01*
G01X290400Y243827D02*
Y269684D01*
G03X290254Y270038I-500J0*
G01X281480Y278812*
G03X280626Y278470I-354J-354*
G01X278575Y273833D02*
G03X280626Y278470I-4559J4789D01*
G01X278575Y273833D02*
G03X278571Y273829I345J-362D01*
X276616Y269194I4517J-4635*
G01Y251284*
G03X276762Y250930I500J-0*
G01X305408Y222284*
G03X310068Y220389I4577J4577*
X310074I-7J500*
G01X312117Y220118D02*
G03X310074Y220389I-1881J-6338D01*
G01X312117Y220118D02*
G03X312613Y220951I142J480D01*
G01X230805Y185873D02*
G03X230659Y186227I-500J0D01*
G01X225500Y191386*
G03X224652Y190960I-353J-354*
G01X224722Y190000D02*
G03X224652Y190960I-6612J0D01*
G01X211498Y190000D02*
G03X224722I6612J0D01*
G01X211561Y190912D02*
G03X211498Y190000I6549J-912D01*
G01X211561Y190912D02*
X211562Y190914D01*
X211717Y191688D02*
G03X211562Y190914I6393J-1688D01*
G01X211717Y191688D02*
G03X211733Y191791I-483J127D01*
X211735Y191886I-1957J95*
G01X211735*
G03X211162Y193272I-1959J-0*
G01X210400Y195110D02*
G03X211162Y193272I2600J0D01*
G01X210400Y195110D02*
Y235716D01*
G03X210254Y236069I-500J-0*
G01X208069Y238254*
G03X207716Y238400I-353J-354*
G01X205525*
G03X204967Y238170I0J-792*
X204958Y238161I352J-355*
G01Y243839D02*
G03Y238161I-2958J-2839D01*
G01Y243839D02*
G03X204967Y243830I361J346D01*
X205525Y243600I558J562*
G01X209000*
X210838Y242838D02*
G03X209000Y243600I-1838J-1838D01*
G01X210838Y242838D02*
X214838Y238838D01*
X215066Y238579D02*
G03X214838Y238838I-2066J-1579D01*
G01X215066Y238579D02*
G03X215963Y238883I397J304D01*
G01Y239287*
X216726Y241128D02*
G03X215963Y239287I1837J-1841D01*
G01X216726Y241128D02*
X224254Y248655D01*
G03X224400Y249008I-354J353*
G01Y250870*
G03X223493Y251161I-500J0*
G01X211498Y255000D02*
G03X223493Y251161I6612J0D01*
G01X211498Y255000D02*
X211498D01*
X211500Y255162D02*
G03X211498Y255000I6610J-162D01*
G01X211500Y255162D02*
G03Y255168I-500J13D01*
X211501Y255251I-6472J83*
X209605Y259828I-6473J0*
G01X208275Y261158*
X207514Y262996D02*
G03X208275Y261158I2600J0D01*
G01X207514Y262996D02*
Y266716D01*
G03X207367Y267069I-500J-0*
G01X205468Y268969*
G03X204776Y268983I-353J-354*
G01X204958Y274839D02*
G03X204776Y268983I-2958J-2839D01*
G01X204958Y274839D02*
G03X204967Y274830I361J346D01*
X205525Y274600I558J562*
G01X206114*
X207952Y273838D02*
G03X206114Y274600I-1838J-1838D01*
G01X207952Y273838D02*
X211952Y269838D01*
X212714Y268000D02*
G03X211952Y269838I-2600J-0D01*
G01X212714Y268000D02*
Y264280D01*
G03X212860Y263927I500J0*
G01X213282Y263505*
G03X217941Y261610I4577J4577*
X217947I-6J500*
G01X223493Y258839D02*
G03X217947Y261610I-5383J-3839D01*
G01X223493Y258839D02*
G03X224400Y259130I407J291D01*
G01Y270646*
G03X223026Y273373I-3393J0*
X222978Y273405I-298J-401*
G01X224355Y284419D02*
G03X222978Y273405I1629J-5797D01*
G01X224355Y284419D02*
G03X224719Y284900I-136J481D01*
X224219Y285400I-500J-0*
G01X205571*
G03X205183Y284585I-0J-500*
G01X198014Y281039D02*
G03X205183Y284585I3986J961D01*
G01X198014Y281039D02*
G03X197174Y281276I-486J-117D01*
G01X196746Y280848*
G03X196600Y280494I354J-354*
G01Y233191*
X196131Y232060D02*
G03X196600Y233191I-1131J1131D01*
G01X196131Y232060D02*
X188940Y224869D01*
X187809Y224400D02*
G03X188940Y224869I-0J1600D01*
G01X187809Y224400D02*
X184857D01*
G03X184504Y224254I0J-500*
G01X183933Y223683*
G03X183786Y223329I353J-354*
X184286Y222829I500J0*
G01X185499*
X186325Y222456D02*
G03X185499Y222829I-826J-727D01*
G01X186325Y222456D02*
G03X187075I375J331D01*
G01X187901Y222829D02*
G03X187075Y222456I-0J-1100D01*
G01X187901Y222829D02*
X191562D01*
X192662Y221729D02*
G03X191562Y222829I-1100J0D01*
G01X192662Y221729D02*
Y219434D01*
Y219435D02*
G03X192725Y219191I500J-0D01*
X193103Y218691I1983J1105*
G01X194094Y217701*
X194244Y217527D02*
G03X194094Y217701I-1282J-958D01*
G01X194244Y217527D02*
G03X194769Y217342I400J300D01*
X194540Y216835I264J-424*
G01X194562Y216569D02*
G03X194540Y216835I-1600J0D01*
G01X194562Y216569D02*
Y215515D01*
G03X195430Y215175I500J-0*
G01X196053Y215513D02*
G03X195430Y215175I185J-1084D01*
G01X196053Y215513D02*
G03X196468Y216006I-85J493D01*
G01Y216394*
G03X196053Y216887I-500J-0*
G01X195410Y217247D02*
G03X196053Y216887I828J724D01*
G01X195410Y217247D02*
G03X194909Y217402I-377J-329D01*
X195144Y217827I-265J425*
X195142Y217872I-500J-0*
G01X195138Y217971D02*
G03X195142Y217872I1100J-0D01*
G01X195138Y217971D02*
Y221829D01*
X196238Y222929D02*
G03X195138Y221829I-0J-1100D01*
G01X196238Y222929D02*
X199899D01*
X200725Y222556D02*
G03X199899Y222929I-826J-727D01*
G01X200725Y222556D02*
G03X201475I375J331D01*
G01X202301Y222929D02*
G03X201475Y222556I-0J-1100D01*
G01X202301Y222929D02*
X205962D01*
X207062Y221829D02*
G03X205962Y222929I-1100J0D01*
G01X207062Y221829D02*
Y219341D01*
G03X207209Y218987I500J-0*
G01X208594Y217602*
X209062Y216471D02*
G03X208594Y217602I-1600J-0D01*
G01X209062Y216471D02*
Y209950D01*
X208594Y208818D02*
G03X209062Y209950I-1132J1132D01*
G01X208594Y208818D02*
X206494Y206719D01*
G03X206348Y206365I354J-354*
X206848Y205865I500J0*
G01X207867*
X208967Y204765D02*
G03X207867Y205865I-1100J0D01*
G01X208967Y204765D02*
Y201222D01*
X208572Y200377D02*
G03X208967Y201222I-705J845D01*
G01X208572Y200377D02*
G03Y199610I321J-384D01*
G01X208967Y198765D02*
G03X208572Y199610I-1100J0D01*
G01X208967Y198765D02*
Y195222D01*
X207867Y194122D02*
G03X208967Y195222I0J1100D01*
G01X207867Y194122D02*
X203930D01*
X202830Y195222D02*
G03X203930Y194122I1100J-0D01*
G01X202830Y195222D02*
Y198765D01*
X203135Y199525D02*
G03X202830Y198765I795J-760D01*
G01X203135Y199525D02*
G03X202608Y200342I-362J345D01*
G01X202174Y200254D02*
G03X202608Y200342I-96J1598D01*
G01X202174Y200254D02*
G03X201745Y199954I30J-499D01*
G01X200793Y198602D02*
G03X201745Y199954I-2768J2960D01*
G01X200793Y198602D02*
X200792Y198601D01*
G03X199625Y195899I2545J-2702*
G01X199156Y194767D02*
G03X199625Y195899I-1131J1132D01*
G01X199156Y194767D02*
X198366Y193977D01*
G03X198219Y193623I353J-354*
X198221Y193580I500J0*
X198545Y191865I8757J764*
X198601Y191739I480J141*
G01X198654Y191652D02*
G03X198601Y191739I-2066J-1181D01*
G01X198654Y191652D02*
G03X199522I434J248D01*
G01X203967Y190471D02*
G03X199522Y191652I-2379J0D01*
G01X203967Y190471D02*
Y188962D01*
G03X204003Y188777I500J0*
G01X204188Y187814D02*
G03X204003Y188777I-2600J-0D01*
G01X204188Y187814D02*
Y178638D01*
G03X204334Y178285I500J0*
G01X207206Y175413*
X207967Y173575D02*
G03X207206Y175413I-2600J-0D01*
G01X207967Y173575D02*
Y158400D01*
X207204Y156560D02*
G03X207967Y158400I-1837J1840D01*
G01X207204Y156560D02*
X206876Y156231D01*
G03X206729Y155878I353J-353*
G01Y154223*
G03X207029Y153764I500J-0*
G01X207690Y152756D02*
G03X207029Y153764I-1100J-0D01*
G01X207690Y152756D02*
Y144882D01*
X206590Y143782D02*
G03X207690Y144882I-0J1100D01*
G01X206590Y143782D02*
X201669D01*
X200568Y144882D02*
G03X201669Y143782I1101J-0D01*
G01X200568Y144882D02*
Y148156D01*
G03X200068Y148656I-500J-0*
G01X198354*
G03X197899Y148363I-0J-500*
G01X197811Y148206D02*
G03X197899Y148363I-913J613D01*
G01X197811Y148206D02*
G03X197726Y147927I415J-279D01*
G01Y145856*
G03X197839Y145540I500J0*
G01X198088Y144843D02*
G03X197839Y145540I-1100J-0D01*
G01X198088Y144843D02*
Y140984D01*
X196988Y139884D02*
G03X198088Y140984I0J1100D01*
G01X196988Y139884D02*
X193327D01*
X192501Y140257D02*
G03X193327Y139884I826J727D01*
G01X192501Y140257D02*
G03X191751I-375J-330D01*
G01X191110Y139900D02*
G03X191751Y140257I-185J1084D01*
G01X191110Y139900D02*
G03X190695Y139407I85J-493D01*
G01Y138546*
G03X191110Y138053I500J-0*
G01X191751Y137695D02*
G03X191110Y138053I-826J-726D01*
G01X191751Y137695D02*
G03X192501I375J331D01*
G01X193327Y138069D02*
G03X192501Y137695I-0J-1100D01*
G01X193327Y138069D02*
X196988D01*
X198082Y137086D02*
G03X196988Y138069I-1094J-117D01*
G01X198082Y137086D02*
G03X198579Y136639I497J53D01*
G01X199396*
G03X199749Y136786I-0J500*
G01X202087Y139124*
X203219Y139592D02*
G03X202087Y139124I-0J-1600D01*
G01X203219Y139592D02*
X204896D01*
G03X205396Y140092I0J500*
G01Y140453*
X206477Y141553D02*
G03X205396Y140453I19J-1100D01*
G01X206477Y141553D02*
G03X206821Y141699I-9J500D01*
G01X209628Y144506*
X211467Y145267D02*
G03X209628Y144506I-0J-2600D01*
G01X211467Y145267D02*
X213534D01*
G03X213887Y145414I-0J500*
G01X215143Y146669*
G03X215876Y147672I-2864J2865*
X215932Y147902I-444J230*
G01Y152756*
X217032Y153856D02*
G03X215932Y152756I0J-1100D01*
G01X217032Y153856D02*
X220646D01*
G03X220999Y154002I-0J500*
G01X226502Y159505*
G03X226649Y159859I-353J354*
X226136Y160359I-500J-0*
G01X229974Y170888D02*
G03X226136Y160359I-3990J-4510D01*
G01X229974Y170888D02*
G03X230805Y171262I331J374D01*
G01Y185873*
X202767Y172291D02*
G03X202621Y172644I-500J-0D01*
G01X199749Y175516*
X198988Y177354D02*
G03X199749Y175516I2600J0D01*
G01X198988Y177354D02*
Y182993D01*
G03X198158Y183368I-500J-0*
G01X194522Y183976D02*
G03X198158Y183368I2066J1180D01*
G01X194522Y183976D02*
G03X193654I-434J-249D01*
G01X189522D02*
G03X193654I2066J1180D01*
G01X189522D02*
G03X188654I-434J-249D01*
G01X184208Y185156D02*
G03X188654Y183976I2380J0D01*
G01X184208Y185156D02*
Y190471D01*
X188654Y191652D02*
G03X184208Y190471I-2066J-1181D01*
G01X188654Y191652D02*
G03X189522I434J248D01*
G01X189574Y191739D02*
G03X189522Y191652I2014J-1268D01*
G01X189574Y191739D02*
G03X189631Y191865I-423J267D01*
X189955Y193580I-8433J2479*
X189956Y193623I-499J43*
X189810Y193977I-500J0*
G01X189019Y194767*
X188551Y195899D02*
G03X189019Y194767I1600J-0D01*
G01X188551Y195899D02*
G03X187383Y198601I-3712J-0D01*
G01X187382Y198602*
X186449Y199913D02*
G03X187382Y198602I3702J1649D01*
G01X186449Y199913D02*
X186446Y199918D01*
X186429Y199959D02*
G03X186446Y199918I3722J1603D01*
G01X186429Y199959D02*
G03X186000Y200260I-460J-198D01*
G01X185577Y200345D02*
G03X186000Y200260I521J1512D01*
G01X185577Y200345D02*
G03X184914Y199872I-163J-473D01*
X185051Y199528I500J-0*
G01X185352Y198772D02*
G03X185051Y199528I-1100J-0D01*
G01X185352Y198772D02*
Y195228D01*
X184252Y194128D02*
G03X185352Y195228I-0J1100D01*
G01X184252Y194128D02*
X180315D01*
X179215Y195228D02*
G03X180315Y194128I1100J0D01*
G01X179215Y195228D02*
Y198772D01*
X179610Y199616D02*
G03X179215Y198772I705J-844D01*
G01X179610Y199616D02*
G03Y200384I-320J384D01*
G01X179215Y201228D02*
G03X179610Y200384I1100J0D01*
G01X179215Y201228D02*
Y203333D01*
G03X178361Y203686I-500J-0*
G01X178244Y203569*
X177112Y203100D02*
G03X178244Y203569I0J1600D01*
G01X177112Y203100D02*
X175774D01*
G03X175274Y202600I0J-500*
G01Y202247*
X175208Y201871D02*
G03X175274Y202247I-1034J376D01*
G01X175208Y201871D02*
G03Y201529I470J-171D01*
G01X175274Y201153D02*
G03X175208Y201529I-1100J-0D01*
G01X175274Y201153D02*
Y200247D01*
X175208Y199871D02*
G03X175274Y200247I-1034J376D01*
G01X175208Y199871D02*
G03Y199529I470J-171D01*
G01X175274Y199153D02*
G03X175208Y199529I-1100J-0D01*
G01X175274Y199153D02*
Y198247D01*
X175208Y197871D02*
G03X175274Y198247I-1034J376D01*
G01X175208Y197871D02*
G03Y197529I470J-171D01*
G01X175274Y197153D02*
G03X175208Y197529I-1100J-0D01*
G01X175274Y197153D02*
Y196247D01*
X174174Y195147D02*
G03X175274Y196247I0J1100D01*
G01X174174Y195147D02*
X166300D01*
X165200Y196247D02*
G03X166300Y195147I1100J0D01*
G01X165200Y196247D02*
Y197153D01*
X165266Y197529D02*
G03X165200Y197153I1034J-376D01*
G01X165266Y197529D02*
G03Y197871I-470J171D01*
G01X165200Y198247D02*
G03X165266Y197871I1100J0D01*
G01X165200Y198247D02*
Y199153D01*
X165266Y199529D02*
G03X165200Y199153I1034J-376D01*
G01X165266Y199529D02*
G03Y199871I-470J171D01*
G01X165200Y200247D02*
G03X165266Y199871I1100J0D01*
G01X165200Y200247D02*
Y201153D01*
X165266Y201529D02*
G03X165200Y201153I1034J-376D01*
G01X165266Y201529D02*
G03Y201871I-470J171D01*
G01X165200Y202247D02*
G03X165266Y201871I1100J0D01*
G01X165200Y202247D02*
Y203153D01*
X165266Y203529D02*
G03X165200Y203153I1034J-376D01*
G01X165266Y203529D02*
G03Y203871I-470J171D01*
G01X165200Y204247D02*
G03X165266Y203871I1100J0D01*
G01X165200Y204247D02*
Y205153D01*
X165266Y205529D02*
G03X165200Y205153I1034J-376D01*
G01X165266Y205529D02*
G03Y205871I-470J171D01*
G01X165200Y206247D02*
G03X165266Y205871I1100J0D01*
G01X165200Y206247D02*
Y207153D01*
X165266Y207529D02*
G03X165200Y207153I1034J-376D01*
G01X165266Y207529D02*
G03Y207871I-470J171D01*
G01X165200Y208247D02*
G03X165266Y207871I1100J0D01*
G01X165200Y208247D02*
Y209153D01*
X165266Y209529D02*
G03X165200Y209153I1034J-376D01*
G01X165266Y209529D02*
G03Y209871I-470J171D01*
G01X165200Y210247D02*
G03X165266Y209871I1100J0D01*
G01X165200Y210247D02*
Y211153D01*
X165266Y211529D02*
G03X165200Y211153I1034J-376D01*
G01X165266Y211529D02*
G03Y211871I-470J171D01*
G01X165200Y212247D02*
G03X165266Y211871I1100J0D01*
G01X165200Y212247D02*
Y213153D01*
X165266Y213529D02*
G03X165200Y213153I1034J-376D01*
G01X165266Y213529D02*
G03Y213871I-470J171D01*
G01X165200Y214247D02*
G03X165266Y213871I1100J0D01*
G01X165200Y214247D02*
Y215153D01*
X165266Y215529D02*
G03X165200Y215153I1034J-376D01*
G01X165266Y215529D02*
G03Y215871I-470J171D01*
G01X165200Y216247D02*
G03X165266Y215871I1100J0D01*
G01X165200Y216247D02*
Y217153D01*
X165266Y217529D02*
G03X165200Y217153I1034J-376D01*
G01X165266Y217529D02*
G03Y217871I-470J171D01*
G01X165200Y218247D02*
G03X165266Y217871I1100J0D01*
G01X165200Y218247D02*
Y219153D01*
X166300Y220253D02*
G03X165200Y219153I-0J-1100D01*
G01X166300Y220253D02*
X169794D01*
G03X169900Y220264I0J500*
G01X170237Y220300D02*
G03X169900Y220264I-0J-1600D01*
G01X170237Y220300D02*
X172130D01*
G03X172484Y220446I0J500*
G01X181254Y229216*
G03X181400Y229570I-354J354*
G01Y234763*
X181869Y235894D02*
G03X181400Y234763I1131J-1131D01*
G01X181869Y235894D02*
X185203Y239229D01*
G03X185350Y239583I-353J354*
X185216Y239922I-500J-0*
G01X184805Y240447D02*
G03X185216Y239922I3384J2230D01*
G01X184805Y240447D02*
G03X184034Y240526I-418J-275D01*
G01X176977Y233469*
X175845Y233000D02*
G03X176977Y233469I0J1600D01*
G01X175845Y233000D02*
X163970D01*
G03X163616Y232854I-0J-500*
G01X163246Y232484*
G03X163100Y232130I354J-354*
G01Y230974*
G03X163600Y230474I500J0*
G01X163953*
X165053Y229374D02*
G03X163953Y230474I-1100J0D01*
G01X165053Y229374D02*
Y221500D01*
X163953Y220400D02*
G03X165053Y221500I-0J1100D01*
G01X163953Y220400D02*
X163047D01*
X162671Y220466D02*
G03X163047Y220400I376J1034D01*
G01X162671Y220466D02*
G03X162329I-171J-470D01*
G01X161953Y220400D02*
G03X162329Y220466I-0J1100D01*
G01X161953Y220400D02*
X161047D01*
X160671Y220466D02*
G03X161047Y220400I376J1034D01*
G01X160671Y220466D02*
G03X160329I-171J-470D01*
G01X159953Y220400D02*
G03X160329Y220466I-0J1100D01*
G01X159953Y220400D02*
X159047D01*
X158671Y220466D02*
G03X159047Y220400I376J1034D01*
G01X158671Y220466D02*
G03X158329I-171J-470D01*
G01X157953Y220400D02*
G03X158329Y220466I-0J1100D01*
G01X157953Y220400D02*
X157047D01*
X156671Y220466D02*
G03X157047Y220400I376J1034D01*
G01X156671Y220466D02*
G03X156329I-171J-470D01*
G01X155953Y220400D02*
G03X156329Y220466I-0J1100D01*
G01X155953Y220400D02*
X155047D01*
X154671Y220466D02*
G03X155047Y220400I376J1034D01*
G01X154671Y220466D02*
G03X154329I-171J-470D01*
G01X153953Y220400D02*
G03X154329Y220466I-0J1100D01*
G01X153953Y220400D02*
X153047D01*
X152671Y220466D02*
G03X153047Y220400I376J1034D01*
G01X152671Y220466D02*
G03X152329I-171J-470D01*
G01X151953Y220400D02*
G03X152329Y220466I-0J1100D01*
G01X151953Y220400D02*
X151047D01*
X150671Y220466D02*
G03X151047Y220400I376J1034D01*
G01X150671Y220466D02*
G03X150329I-171J-470D01*
G01X149953Y220400D02*
G03X150329Y220466I-0J1100D01*
G01X149953Y220400D02*
X149047D01*
X148671Y220466D02*
G03X149047Y220400I376J1034D01*
G01X148671Y220466D02*
G03X148329I-171J-470D01*
G01X147953Y220400D02*
G03X148329Y220466I-0J1100D01*
G01X147953Y220400D02*
X147047D01*
X146671Y220466D02*
G03X147047Y220400I376J1034D01*
G01X146671Y220466D02*
G03X146329I-171J-470D01*
G01X145953Y220400D02*
G03X146329Y220466I-0J1100D01*
G01X145953Y220400D02*
X145047D01*
X144671Y220466D02*
G03X145047Y220400I376J1034D01*
G01X144671Y220466D02*
G03X144329I-171J-470D01*
G01X143953Y220400D02*
G03X144329Y220466I-0J1100D01*
G01X143953Y220400D02*
X143047D01*
X142671Y220466D02*
G03X143047Y220400I376J1034D01*
G01X142671Y220466D02*
G03X142329I-171J-470D01*
G01X141953Y220400D02*
G03X142329Y220466I-0J1100D01*
G01X141953Y220400D02*
X141589D01*
G03X141089Y219910I-0J-500*
G01X140620Y218810D02*
G03X141089Y219910I-1131J1132D01*
G01X140620Y218810D02*
X139854Y218044D01*
G03X139707Y217690I353J-354*
X139736Y217522I500J-0*
G01X139800Y217153D02*
G03X139736Y217522I-1100J-0D01*
G01X139800Y217153D02*
Y216247D01*
X139734Y215871D02*
G03X139800Y216247I-1034J376D01*
G01X139734Y215871D02*
G03Y215529I470J-171D01*
G01X139800Y215153D02*
G03X139734Y215529I-1100J-0D01*
G01X139800Y215153D02*
Y214247D01*
X139734Y213871D02*
G03X139800Y214247I-1034J376D01*
G01X139734Y213871D02*
G03Y213529I470J-171D01*
G01X139800Y213153D02*
G03X139734Y213529I-1100J-0D01*
G01X139800Y213153D02*
Y212247D01*
X139734Y211871D02*
G03X139800Y212247I-1034J376D01*
G01X139734Y211871D02*
G03Y211529I470J-171D01*
G01X139800Y211153D02*
G03X139734Y211529I-1100J-0D01*
G01X139800Y211153D02*
Y210247D01*
X139734Y209871D02*
G03X139800Y210247I-1034J376D01*
G01X139734Y209871D02*
G03Y209529I470J-171D01*
G01X139800Y209153D02*
G03X139734Y209529I-1100J-0D01*
G01X139800Y209153D02*
Y208247D01*
X139734Y207871D02*
G03X139800Y208247I-1034J376D01*
G01X139734Y207871D02*
G03Y207529I470J-171D01*
G01X139800Y207153D02*
G03X139734Y207529I-1100J-0D01*
G01X139800Y207153D02*
Y206247D01*
X139734Y205871D02*
G03X139800Y206247I-1034J376D01*
G01X139734Y205871D02*
G03Y205529I470J-171D01*
G01X139800Y205153D02*
G03X139734Y205529I-1100J-0D01*
G01X139800Y205153D02*
Y204247D01*
X139734Y203871D02*
G03X139800Y204247I-1034J376D01*
G01X139734Y203871D02*
G03Y203529I470J-171D01*
G01X139800Y203153D02*
G03X139734Y203529I-1100J-0D01*
G01X139800Y203153D02*
Y202247D01*
X139734Y201871D02*
G03X139800Y202247I-1034J376D01*
G01X139734Y201871D02*
G03Y201529I470J-171D01*
G01X139800Y201153D02*
G03X139734Y201529I-1100J-0D01*
G01X139800Y201153D02*
Y200247D01*
X139734Y199871D02*
G03X139800Y200247I-1034J376D01*
G01X139734Y199871D02*
G03Y199529I470J-171D01*
G01X139800Y199153D02*
G03X139734Y199529I-1100J-0D01*
G01X139800Y199153D02*
Y198247D01*
X139734Y197871D02*
G03X139800Y198247I-1034J376D01*
G01X139734Y197871D02*
G03Y197529I470J-171D01*
G01X139800Y197153D02*
G03X139734Y197529I-1100J-0D01*
G01X139800Y197153D02*
Y196247D01*
X138700Y195147D02*
G03X139800Y196247I-0J1100D01*
G01X138700Y195147D02*
X130826D01*
X129726Y196247D02*
G03X130826Y195147I1100J0D01*
G01X129726Y196247D02*
Y197153D01*
X129792Y197529D02*
G03X129726Y197153I1034J-376D01*
G01X129792Y197529D02*
G03Y197871I-470J171D01*
G01X129726Y198247D02*
G03X129792Y197871I1100J0D01*
G01X129726Y198247D02*
Y199153D01*
X129792Y199529D02*
G03X129726Y199153I1034J-376D01*
G01X129792Y199529D02*
G03Y199871I-470J171D01*
G01X129726Y200247D02*
G03X129792Y199871I1100J0D01*
G01X129726Y200247D02*
Y201153D01*
X129792Y201529D02*
G03X129726Y201153I1034J-376D01*
G01X129792Y201529D02*
G03Y201871I-470J171D01*
G01X129726Y202247D02*
G03X129792Y201871I1100J0D01*
G01X129726Y202247D02*
Y203153D01*
X129792Y203529D02*
G03X129726Y203153I1034J-376D01*
G01X129792Y203529D02*
G03Y203871I-470J171D01*
G01X129726Y204247D02*
G03X129792Y203871I1100J0D01*
G01X129726Y204247D02*
Y205153D01*
X129792Y205529D02*
G03X129726Y205153I1034J-376D01*
G01X129792Y205529D02*
G03Y205871I-470J171D01*
G01X129726Y206247D02*
G03X129792Y205871I1100J0D01*
G01X129726Y206247D02*
Y207153D01*
X129792Y207529D02*
G03X129726Y207153I1034J-376D01*
G01X129792Y207529D02*
G03Y207871I-470J171D01*
G01X129726Y208247D02*
G03X129792Y207871I1100J0D01*
G01X129726Y208247D02*
Y209153D01*
X129792Y209529D02*
G03X129726Y209153I1034J-376D01*
G01X129792Y209529D02*
G03X129822Y209700I-470J171D01*
X129792Y209871I-500J0*
G01X129774Y209926D02*
G03X129792Y209871I1052J321D01*
G01X129774Y209926D02*
G03X128854Y210014I-478J-146D01*
G01X125030Y211727D02*
G03X128854Y210014I1970J-727D01*
G01X125030Y211727D02*
G03X124561Y212400I-469J173D01*
G01X121967*
G03X121467Y211900I-0J-500*
X121561Y211608I500J-0*
G01X121769Y210964D02*
G03X121561Y211608I-1100J0D01*
G01X121769Y210964D02*
Y208327D01*
X120669Y207227D02*
G03X121769Y208327I-0J1100D01*
G01X120669Y207227D02*
X115551D01*
X114451Y208327D02*
G03X115551Y207227I1100J-0D01*
G01X114451Y208327D02*
Y210964D01*
X115551Y212064D02*
G03X114451Y210964I-0J-1100D01*
G01X115551Y212064D02*
X117769D01*
G03X118269Y212564I-0J500*
X118122Y212918I-500J0*
G01X116375Y214666*
G03X115790Y215081I-1525J-1526*
X115572Y215131I-218J-450*
G01X113528*
X112751Y215454D02*
G03X113528Y215131I777J777D01*
G01X112751Y215454D02*
G03X112397Y215600I-354J-354D01*
G01X111087*
G03X110733Y215454I-0J-500*
G01X108198Y212918*
G03X108051Y212564I353J-354*
X108551Y212064I500J0*
G01X111221*
X112321Y210964D02*
G03X111221Y212064I-1100J0D01*
G01X112321Y210964D02*
Y208327D01*
X112254Y207948D02*
G03X112321Y208327I-1033J379D01*
G01X112254Y207948D02*
G03Y207603I469J-172D01*
G01X112321Y207224D02*
G03X112254Y207603I-1100J0D01*
G01X112321Y207224D02*
Y204587D01*
X112254Y204208D02*
G03X112321Y204587I-1033J379D01*
G01X112254Y204208D02*
G03Y203863I469J-172D01*
G01X112321Y203484D02*
G03X112254Y203863I-1100J0D01*
G01X112321Y203484D02*
Y202924D01*
G03X112467Y202570I500J-0*
G01X113597Y201440*
G03X114451Y201794I354J354*
G01Y203484*
X115551Y204584D02*
G03X114451Y203484I-0J-1100D01*
G01X115551Y204584D02*
X120669D01*
X121769Y203484D02*
G03X120669Y204584I-1100J0D01*
G01X121769Y203484D02*
Y200847D01*
X120669Y199747D02*
G03X121769Y200847I-0J1100D01*
G01X120669Y199747D02*
X115796D01*
G03X115302Y199168I0J-500*
G01X115328Y198839D02*
G03X115302Y199168I-2100J0D01*
G01X115328Y198839D02*
Y190920D01*
G03X116055Y189190I2423J0*
X116060Y189186I350J357*
G01X110397D02*
G03X116060I2831J-2966D01*
G01X110397D02*
G03X110401Y189190I-346J361D01*
X111128Y190920I-1696J1730*
G01Y197762*
G03X110982Y198116I-500J0*
G01X109497Y199600*
G03X109144Y199747I-353J-353*
G01X106100*
G03X105600Y199247I0J-500*
G01Y193770*
X104838Y191932D02*
G03X105600Y193770I-1838J1838D01*
G01X104838Y191932D02*
X103953Y191046D01*
G03X103806Y190692I353J-354*
X104189Y190206I500J0*
G01X101089Y182723D02*
G03X104189Y190206I2139J3497D01*
G01X101089Y182723D02*
G03X100328Y182296I-261J-427D01*
G01Y159269*
G03X100372Y159064I500J0*
G01X96162Y156162D02*
G03X100372Y159064I1838J1838D01*
G01X96162Y156162D02*
X95890Y156433D01*
X95299Y157344D02*
G03X95890Y156433I2429J928D01*
G01X95299Y157344D02*
G03X94332Y157166I-467J-178D01*
G01Y154545*
G03X94832Y154045I500J-0*
G01X96732*
X97832Y152945D02*
G03X96732Y154045I-1100J-0D01*
G01X97832Y152945D02*
Y148945D01*
X96732Y147845D02*
G03X97832Y148945I0J1100D01*
G01X96732Y147845D02*
X86732D01*
X85632Y148945D02*
G03X86732Y147845I1100J-0D01*
G01X85632Y148945D02*
Y152945D01*
X86732Y154045D02*
G03X85632Y152945I0J-1100D01*
G01X86732Y154045D02*
X88632D01*
G03X89132Y154545I0J500*
G01Y177349*
G03X88986Y177703I-500J0*
G01X88754Y177934*
G03X87901Y177581I-353J-353*
G01X87901*
G03Y177556I500J-0*
G01X87911Y177165D02*
G03X87901Y177556I-7990J0D01*
G01X73011Y173154D02*
G03X87911Y177165I6910J4011D01*
G01X73011Y173154D02*
G03X72079Y172903I-432J-251D01*
G01Y117006*
G03X72936Y116656I500J-0*
G01X73721Y116986D02*
G03X72936Y116656I0J-1100D01*
G01X73721Y116986D02*
X78221D01*
X79321Y115886D02*
G03X78221Y116986I-1100J-0D01*
G01X79321Y115886D02*
Y112749D01*
G03X80175Y112395I500J-0*
G01X80375Y112595*
G03X80521Y112949I-354J354*
G01Y115886*
X81621Y116986D02*
G03X80521Y115886I0J-1100D01*
G01X81621Y116986D02*
X86121D01*
X87221Y115886D02*
G03X86121Y116986I-1100J-0D01*
G01X87221Y115886D02*
Y112027D01*
G03X88075Y111674I500J0*
G01X88254Y111853*
G03X88400Y112206I-354J353*
G01Y115768*
X89162Y117606D02*
G03X88400Y115768I1838J-1838D01*
G01X89162Y117606D02*
X96486Y124931D01*
G03X96632Y125284I-354J353*
G01Y127345*
G03X96132Y127845I-500J-0*
G01X86732*
X85632Y128945D02*
G03X86732Y127845I1100J-0D01*
G01X85632Y128945D02*
Y132945D01*
X86732Y134045D02*
G03X85632Y132945I0J-1100D01*
G01X86732Y134045D02*
X96132D01*
G03X96632Y134545I0J500*
G01Y135161*
G03X96486Y135514I-500J-0*
G01X94302Y137698*
G03X93948Y137845I-354J-353*
G01X86732*
X85632Y138945D02*
G03X86732Y137845I1100J-0D01*
G01X85632Y138945D02*
Y142945D01*
X86732Y144045D02*
G03X85632Y142945I0J-1100D01*
G01X86732Y144045D02*
X96732D01*
X97832Y142945D02*
G03X96732Y144045I-1100J-0D01*
G01X97832Y142945D02*
Y141729D01*
G03X97979Y141375I500J-0*
G01X101069Y138285*
X101832Y136445D02*
G03X101069Y138285I-2600J-0D01*
G01X101832Y136445D02*
Y124000D01*
X101071Y122162D02*
G03X101832Y124000I-1839J1838D01*
G01X101071Y122162D02*
X93746Y114837D01*
G03X93600Y114484I354J-353*
G01Y110922*
X92838Y109084D02*
G03X93600Y110922I-1838J1838D01*
G01X92838Y109084D02*
X87368Y103613D01*
G03X87221Y103259I353J-354*
G01Y101043*
X86121Y99943D02*
G03X87221Y101043I0J1100D01*
G01X86121Y99943D02*
X81621D01*
X80521Y101043D02*
G03X81621Y99943I1100J0D01*
G01X80521Y101043D02*
Y104180D01*
G03X79668Y104534I-500J0*
G01X79468Y104334*
G03X79321Y103980I353J-354*
G01X79321D02*
Y101043D01*
X78221Y99943D02*
G03X79321Y101043I0J1100D01*
G01X78221Y99943D02*
X73777D01*
G03X73277Y99443I0J-500*
X73424Y99090I500J0*
G01X74698Y97816*
G03X75051Y97669I353J353*
G01X94170*
G03X94670Y98169I0J500*
G01Y106016*
X95770Y107116D02*
G03X94670Y106016I0J-1100D01*
G01X95770Y107116D02*
X99480D01*
G03X99973Y107531I-0J500*
G01X100090Y107997D02*
G03X99973Y107531I2964J-997D01*
G01X100090Y107997D02*
G03X100116Y108156I-474J159D01*
X99616Y108656I-500J-0*
G01X98526*
X97426Y109756D02*
G03X98526Y108656I1100J-0D01*
G01X97426Y109756D02*
Y114480D01*
X98526Y115580D02*
G03X97426Y114480I-0J-1100D01*
G01X98526Y115580D02*
X100888D01*
X101988Y114480D02*
G03X100888Y115580I-1100J0D01*
G01X101988Y114480D02*
Y110582D01*
G03X102566Y110088I500J0*
G01X105939Y108205D02*
G03X102566Y110088I-2885J-1205D01*
G01X105939Y108205D02*
G03X106861I461J192D01*
G01X110234Y110088D02*
G03X106861Y108205I-488J-3088D01*
G01X110234Y110088D02*
G03X110812Y110582I78J494D01*
G01Y114480*
X111912Y115580D02*
G03X110812Y114480I-0J-1100D01*
G01X111912Y115580D02*
X112197D01*
G03X112551Y115727I0J500*
G01X117045Y120222*
X117609Y120624D02*
G03X117045Y120222I921J-1887D01*
G01X117609Y120624D02*
G03X117743Y120720I-219J449D01*
G01X122209Y125185*
X123694Y125800D02*
G03X122209Y125185I-0J-2100D01*
G01X123694Y125800D02*
X166585D01*
G03X167039Y126090I0J500*
G01X168038Y126729D02*
G03X167039Y126090I-0J-1100D01*
G01X168038Y126729D02*
X170131D01*
G03X170631Y127229I-0J500*
X170484Y127583I-500J0*
G01X169814Y128254*
G03X169460Y128400I-354J-354*
G01X159384*
X158253Y128869D02*
G03X159384Y128400I1131J1131D01*
G01X158253Y128869D02*
X142369Y144753D01*
X141900Y145884D02*
G03X142369Y144753I1600J0D01*
G01X141900Y145884D02*
Y184426D01*
G03X141400Y184926I-500J-0*
G01X141047*
X139947Y186026D02*
G03X141047Y184926I1100J-0D01*
G01X139947Y186026D02*
Y193900D01*
X141047Y195000D02*
G03X139947Y193900I0J-1100D01*
G01X141047Y195000D02*
X141953D01*
X142329Y194934D02*
G03X141953Y195000I-376J-1034D01*
G01X142329Y194934D02*
G03X142671I171J470D01*
G01X143047Y195000D02*
G03X142671Y194934I0J-1100D01*
G01X143047Y195000D02*
X143953D01*
X144329Y194934D02*
G03X143953Y195000I-376J-1034D01*
G01X144329Y194934D02*
G03X144671I171J470D01*
G01X145047Y195000D02*
G03X144671Y194934I0J-1100D01*
G01X145047Y195000D02*
X145953D01*
X146329Y194934D02*
G03X145953Y195000I-376J-1034D01*
G01X146329Y194934D02*
G03X146671I171J470D01*
G01X147047Y195000D02*
G03X146671Y194934I0J-1100D01*
G01X147047Y195000D02*
X147953D01*
X148329Y194934D02*
G03X147953Y195000I-376J-1034D01*
G01X148329Y194934D02*
G03X148671I171J470D01*
G01X149047Y195000D02*
G03X148671Y194934I0J-1100D01*
G01X149047Y195000D02*
X149953D01*
X150329Y194934D02*
G03X149953Y195000I-376J-1034D01*
G01X150329Y194934D02*
G03X150671I171J470D01*
G01X151047Y195000D02*
G03X150671Y194934I0J-1100D01*
G01X151047Y195000D02*
X151953D01*
X152329Y194934D02*
G03X151953Y195000I-376J-1034D01*
G01X152329Y194934D02*
G03X152671I171J470D01*
G01X153047Y195000D02*
G03X152671Y194934I0J-1100D01*
G01X153047Y195000D02*
X153953D01*
X154329Y194934D02*
G03X153953Y195000I-376J-1034D01*
G01X154329Y194934D02*
G03X154671I171J470D01*
G01X155047Y195000D02*
G03X154671Y194934I0J-1100D01*
G01X155047Y195000D02*
X155953D01*
X156329Y194934D02*
G03X155953Y195000I-376J-1034D01*
G01X156329Y194934D02*
G03X156671I171J470D01*
G01X157047Y195000D02*
G03X156671Y194934I0J-1100D01*
G01X157047Y195000D02*
X157953D01*
X158329Y194934D02*
G03X157953Y195000I-376J-1034D01*
G01X158329Y194934D02*
G03X158671I171J470D01*
G01X159047Y195000D02*
G03X158671Y194934I0J-1100D01*
G01X159047Y195000D02*
X159953D01*
X160329Y194934D02*
G03X159953Y195000I-376J-1034D01*
G01X160329Y194934D02*
G03X160671I171J470D01*
G01X161047Y195000D02*
G03X160671Y194934I0J-1100D01*
G01X161047Y195000D02*
X161953D01*
X162329Y194934D02*
G03X161953Y195000I-376J-1034D01*
G01X162329Y194934D02*
G03X162671I171J470D01*
G01X163047Y195000D02*
G03X162671Y194934I0J-1100D01*
G01X163047Y195000D02*
X163953D01*
X165053Y193900D02*
G03X163953Y195000I-1100J0D01*
G01X165053Y193900D02*
Y186026D01*
X163953Y184926D02*
G03X165053Y186026I-0J1100D01*
G01X163953Y184926D02*
X163047D01*
X162671Y184992D02*
G03X163047Y184926I376J1034D01*
G01X162671Y184992D02*
G03X162329I-171J-470D01*
G01X161953Y184926D02*
G03X162329Y184992I-0J1100D01*
G01X161953Y184926D02*
X161047D01*
X160671Y184992D02*
G03X161047Y184926I376J1034D01*
G01X160671Y184992D02*
G03X160329I-171J-470D01*
G01X159953Y184926D02*
G03X160329Y184992I-0J1100D01*
G01X159953Y184926D02*
X159600D01*
G03X159100Y184426I0J-500*
G01Y166870*
G03X159246Y166516I500J-0*
G01X162016Y163746*
G03X162370Y163600I354J354*
G01X183708*
G03X184208Y164100I0J500*
G01Y167586*
X188654Y168767D02*
G03X184208Y167586I-2066J-1181D01*
G01X188654Y168767D02*
G03X189522I434J248D01*
G01X193654D02*
G03X189522I-2066J-1181D01*
G01X193654D02*
G03X194522I434J248D01*
G01X198654D02*
G03X194522I-2066J-1181D01*
G01X198654D02*
G03X199522I434J248D01*
G01X202149Y169899D02*
G03X199522Y168767I-561J-2313D01*
G01X202149Y169899D02*
G03X202767Y170385I118J486D01*
G01Y172291*
X129726Y214247D02*
G03X129792Y213871I1100J0D01*
G01X129726Y214247D02*
Y214600D01*
G03X129226Y215100I-500J-0*
G01X128570*
G03X128216Y214954I-0J-500*
G01X127164Y213901*
G03X127018Y213548I354J-353*
X127418Y213058I500J-0*
G01X128798Y212085D02*
G03X127418Y213058I-1798J-1085D01*
G01X128798Y212085D02*
G03X129726Y212344I428J259D01*
G01Y213153*
X129792Y213529D02*
G03X129726Y213153I1034J-376D01*
G01X129792Y213529D02*
G03Y213871I-470J171D01*
G01X137889Y233806D02*
G03X136943Y234033I-500J0D01*
G01X132757Y233932D02*
G03X136943Y234033I2066J1181D01*
G01X132757Y233932D02*
G03X131889I-434J-248D01*
G01X127757D02*
G03X131889I2066J1181D01*
G01X127757D02*
G03X126889I-434J-248D01*
G01X122757D02*
G03X126889I2066J1181D01*
G01X122757D02*
G03X121889I-434J-248D01*
G01X118253Y233325D02*
G03X121889Y233932I1570J1788D01*
G01X118253Y233325D02*
G03X117423Y232949I-330J-376D01*
G01Y228955*
G03X117626Y228553I500J0*
G01X117816Y228373D02*
G03X117626Y228553I-844J-704D01*
G01X117816Y228373D02*
G03X118584I384J321D01*
G01X119428Y228769D02*
G03X118584Y228373I0J-1100D01*
G01X119428Y228769D02*
X122972D01*
X124072Y227669D02*
G03X122972Y228769I-1100J-0D01*
G01X124072Y227669D02*
Y223731D01*
X122972Y222631D02*
G03X124072Y223731I-0J1100D01*
G01X122972Y222631D02*
X119428D01*
X118584Y223027D02*
G03X119428Y222631I844J704D01*
G01X118584Y223027D02*
G03X117816I-384J-321D01*
G01X116972Y222631D02*
G03X117816Y223027I-0J1100D01*
G01X116972Y222631D02*
X113428D01*
X112391Y223366D02*
G03X113428Y222631I1037J365D01*
G01X112391Y223366D02*
G03X111919Y223700I-472J-166D01*
G01X110042*
G03X109582Y223397I-0J-500*
G01X109485Y223218D02*
G03X109582Y223397I-913J613D01*
G01X109485Y223218D02*
G03X109400Y222940I415J-278D01*
G01Y221300*
G03X109900Y220800I500J0*
G01X112397*
G03X112751Y220946I0J500*
G01X113528Y221269D02*
G03X112751Y220946I0J-1100D01*
G01X113528Y221269D02*
X117072D01*
X117916Y220873D02*
G03X117072Y221269I-844J-704D01*
G01X117916Y220873D02*
G03X118684I384J321D01*
G01X119528Y221269D02*
G03X118684Y220873I0J-1100D01*
G01X119528Y221269D02*
X123072D01*
X124172Y220169D02*
G03X123072Y221269I-1100J-0D01*
G01X124172Y220169D02*
Y216642D01*
G03X125025Y216288I500J-0*
G01X126569Y217831*
X127700Y218300D02*
G03X126569Y217831I0J-1600D01*
G01X127700Y218300D02*
X129226D01*
G03X129726Y218800I-0J500*
G01Y219153*
X130826Y220253D02*
G03X129726Y219153I-0J-1100D01*
G01X130826Y220253D02*
X134320D01*
G03X134426Y220264I0J500*
G01X134763Y220300D02*
G03X134426Y220264I-0J-1600D01*
G01X134763Y220300D02*
X137377D01*
G03X137731Y220446I0J500*
G01X137742Y220458*
G03X137889Y220812I-353J354*
G01Y223974*
G03X136929Y224171I-500J-0*
G01Y225829D02*
G03Y224171I-1929J-829D01*
G01Y225829D02*
G03X137889Y226026I460J197D01*
G01Y233806*
X117513Y277800D02*
X114061D01*
G03X113766Y276897I0J-500*
G01X115336Y274999D02*
G03X113766Y276897I-4549J-2164D01*
G01X115336Y274999D02*
G03X116239I451J214D01*
G01X117809Y276897D02*
G03X116239Y274999I2978J-4062D01*
G01X117809Y276897D02*
G03X117513Y277800I-296J403D01*
G01X113962Y243676D02*
X110683D01*
G03X110534Y242698I0J-500*
G01X111889Y241608D02*
G03X110534Y242698I-2066J-1180D01*
G01X111889Y241608D02*
G03X112757I434J248D01*
G01X114112Y242698D02*
G03X112757Y241608I711J-2270D01*
G01X114112Y242698D02*
G03X113962Y243676I-150J478D01*
G01X108962D02*
X105683D01*
G03X105534Y242698I0J-500*
G01X106889Y241608D02*
G03X105534Y242698I-2066J-1180D01*
G01X106889Y241608D02*
G03X107757I434J248D01*
G01X109112Y242698D02*
G03X107757Y241608I711J-2270D01*
G01X109112Y242698D02*
G03X108962Y243676I-150J478D01*
G01X103962D02*
X100683D01*
G03X100534Y242698I0J-500*
G01X101889Y241608D02*
G03X100534Y242698I-2066J-1180D01*
G01X101889Y241608D02*
G03X102757I434J248D01*
G01X104112Y242698D02*
G03X102757Y241608I711J-2270D01*
G01X104112Y242698D02*
G03X103962Y243676I-150J478D01*
G01X148300Y260830D02*
G03X148154Y261184I-500J0D01*
G01X143784Y265554*
G03X143430Y265700I-354J-354*
G01X137994*
X136862Y266169D02*
G03X137994Y265700I1132J1131D01*
G01X136862Y266169D02*
X136142Y266889D01*
G03X132303Y268029I-2971J-2970*
X132260Y268018I103J-489*
G01X126239Y270671D02*
G03X132260Y268018I4548J2164D01*
G01X126239Y270671D02*
G03X125336I-452J-215D01*
G01X116239D02*
G03X125336I4548J2164D01*
G01X116239D02*
G03X115336I-452J-215D01*
G01X107809Y276897D02*
G03X115336Y270671I2978J-4062D01*
G01X107809Y276897D02*
G03X107513Y277800I-296J403D01*
G01X85608*
X85491Y277804D02*
G03X85608Y277800I117J1596D01*
G01X85491Y277804D02*
G03X85128Y276926I-37J-498D01*
G01X86546Y275333D02*
G03X85128Y276926I-6625J-4467D01*
G01X86546Y275333D02*
G03X87353Y275302I414J279D01*
G01X88507Y271959D02*
G03X87353Y275302I493J2041D01*
G01X88507Y271959D02*
G03X87891Y271437I-118J-486D01*
G01X87911Y270866D02*
G03X87891Y271437I-7990J0D01*
G01X87911Y270866D02*
X87911D01*
X73011Y266855D02*
G03X87911Y270866I6910J4011D01*
G01X73011Y266855D02*
G03X72079Y266604I-432J-251D01*
G01Y225316*
G03X72935Y224966I500J0*
G01X79748Y221102D02*
G03X72935Y224966I-3921J1024D01*
G01X79748Y221102D02*
G03X79732Y220976I484J-126D01*
G01Y213276*
G03X79748Y213150I500J0*
G01X79880Y212126D02*
G03X79748Y213150I-4053J-0D01*
G01X79880Y212126D02*
X79880D01*
X79748Y211102D02*
G03X79880Y212126I-3921J1024D01*
G01X79748Y211102D02*
G03X79732Y210976I484J-126D01*
G01Y203276*
G03X79748Y203150I500J0*
G01X79880Y202126D02*
G03X79748Y203150I-4053J-0D01*
G01X79880Y202126D02*
X79880D01*
X79748Y201102D02*
G03X79880Y202126I-3921J1024D01*
G01X79748Y201102D02*
G03X79732Y200976I484J-126D01*
G01Y193276*
G03X79748Y193150I500J0*
G01X79880Y192126D02*
G03X79748Y193150I-4053J-0D01*
G01X79880Y192126D02*
X79880D01*
X79879Y192043D02*
G03X79880Y192126I-4052J83D01*
G01X79879Y192043D02*
G03Y192033I500J-10D01*
G01X79879*
G03Y192028I500J-0*
X80079Y191550I685J7*
G01X80920Y190709*
G03X81774Y191063I354J354*
G01Y195079*
X82874Y196179D02*
G03X81774Y195079I0J-1100D01*
G01X82874Y196179D02*
X85937D01*
G03X85987Y196181I-0J500*
X86402Y196379I-69J682*
G01X87414Y197390*
G03X87560Y197743I-354J353*
X86925Y198225I-500J0*
G01X89880Y202126D02*
G03X86925Y198225I-4053J-0D01*
G01X89880Y202126D02*
X89880D01*
X89728Y201028D02*
G03X89880Y202126I-3901J1098D01*
G01X89728Y201028D02*
G03X90563Y200539I481J-135D01*
G01X92254Y202230*
G03X92400Y202583I-354J353*
G01Y209493*
X93162Y211331D02*
G03X92400Y209493I1838J-1838D01*
G01X93162Y211331D02*
X104054Y222223D01*
G03X104200Y222577I-354J354*
G01Y222697*
G03X103347Y223052I-500J0*
G01X102572Y222731D02*
G03X103347Y223052I-0J1100D01*
G01X102572Y222731D02*
X99028D01*
X97928Y223831D02*
G03X99028Y222731I1100J0D01*
G01X97928Y223831D02*
Y227769D01*
X99028Y228869D02*
G03X97928Y227769I0J-1100D01*
G01X99028Y228869D02*
X102572D01*
X103416Y228473D02*
G03X102572Y228869I-844J-704D01*
G01X103416Y228473D02*
G03X104184I384J321D01*
G01X105028Y228869D02*
G03X104184Y228473I0J-1100D01*
G01X105028Y228869D02*
X108572D01*
X109582Y228203D02*
G03X108572Y228869I-1010J-434D01*
G01X109582Y228203D02*
G03X110042Y227900I460J197D01*
G01X111723*
G03X112223Y228400I-0J500*
G01Y232949*
G03X111393Y233325I-500J-0*
G01X107757Y233932D02*
G03X111393Y233325I2066J1181D01*
G01X107757Y233932D02*
G03X106889I-434J-248D01*
G01X102757D02*
G03X106889I2066J1181D01*
G01X102757D02*
G03X101889I-434J-248D01*
G01X97443Y235113D02*
G03X101889Y233932I2380J-0D01*
G01X97443Y235113D02*
Y240428D01*
X99112Y242698D02*
G03X97443Y240428I711J-2270D01*
G01X99112Y242698D02*
G03X98962Y243676I-150J478D01*
G01X94045*
G03X93545Y243176I-0J-500*
G01Y241929*
X93492Y241591D02*
G03X93545Y241929I-1047J338D01*
G01X93492Y241591D02*
G03Y241283I475J-154D01*
G01X93545Y240945D02*
G03X93492Y241283I-1100J-0D01*
G01X93545Y240945D02*
Y239370D01*
X92445Y238270D02*
G03X93545Y239370I-0J1100D01*
G01X92445Y238270D02*
X91031D01*
G03X90531Y237770I0J-500*
X90534Y237715I500J0*
G01X85020Y236552D02*
G03X90534Y237715I2700J850D01*
G01X85020Y236552D02*
G03X84060Y236530I-477J-150D01*
G01X83765Y236024D02*
G03X84060Y236530I-769J787D01*
G01X83765Y236024D02*
G03X83614Y235667I349J-357D01*
X83767Y235307I500J-0*
G01X81224Y229017D02*
G03X83767Y235307I0J3659D01*
G01X81224Y229017D02*
X77287D01*
X74745Y235307D02*
G03X77287Y229017I2542J-2631D01*
G01X74745Y235307D02*
G03X74747Y236024I-347J360D01*
G01X74416Y236811D02*
G03X74747Y236024I1100J0D01*
G01X74416Y236811D02*
Y244291D01*
X74648Y244968D02*
G03X74416Y244291I868J-677D01*
G01X74648Y244968D02*
G03Y245583I-394J308D01*
G01X74416Y246260D02*
G03X74648Y245583I1100J-0D01*
G01X74416Y246260D02*
Y253740D01*
X74746Y254526D02*
G03X74416Y253740I770J-786D01*
G01X74746Y254526D02*
G03X74743Y255242I-350J357D01*
G01X77287Y261532D02*
G03X74744Y255242I0J-3660D01*
G01X77287Y261532D02*
X81224D01*
X83768Y255242D02*
G03X81224Y261532I-2544J2630D01*
G01X83768Y255242D02*
G03X83766Y254526I348J-359D01*
G01X84060Y254021D02*
G03X83766Y254526I-1064J-281D01*
G01X84060Y254021D02*
G03X85020Y253999I483J128D01*
G01X90552Y253150D02*
G03X85020Y253999I-2832J-0D01*
G01X90552Y253150D02*
X90552D01*
X90534Y252836D02*
G03X90552Y253150I-2814J314D01*
G01X90534Y252836D02*
G03X90531Y252781I497J-55D01*
X91031Y252281I500J0*
G01X92445*
X92681Y252255D02*
G03X92445Y252281I-236J-1074D01*
G01X92681Y252255D02*
G03X92789Y252244I108J489D01*
G01X94327*
G03X94680Y252390I-0J500*
G01X97769Y255479*
G03X97916Y255833I-353J354*
X97912Y255895I-500J0*
X97743Y256810I-7846J-978*
X97703Y256917I-486J-120*
G01X97443Y257998D02*
G03X97703Y256917I2380J-0D01*
G01X97443Y257998D02*
Y263313D01*
X101889Y264493D02*
G03X97443Y263313I-2066J-1180D01*
G01X101889Y264493D02*
G03X102757I434J249D01*
G01X106889D02*
G03X102757I-2066J-1180D01*
G01X106889D02*
G03X107757I434J249D01*
G01X111889D02*
G03X107757I-2066J-1180D01*
G01X111889D02*
G03X112757I434J249D01*
G01X116889D02*
G03X112757I-2066J-1180D01*
G01X116889D02*
G03X117757I434J249D01*
G01X121889D02*
G03X117757I-2066J-1180D01*
G01X121889D02*
G03X122757I434J249D01*
G01X126889D02*
G03X122757I-2066J-1180D01*
G01X126889D02*
G03X127757I434J249D01*
G01X131889D02*
G03X127757I-2066J-1180D01*
G01X131889D02*
G03X132757I434J249D01*
G01X137202Y263313D02*
G03X132757Y264493I-2379J-0D01*
G01X137202Y263313D02*
Y257998D01*
X132757Y256817D02*
G03X137202Y257998I2066J1181D01*
G01X132757Y256817D02*
G03X131889I-434J-248D01*
G01X127757D02*
G03X131889I2066J1181D01*
G01X127757D02*
G03X126889I-434J-248D01*
G01X122757D02*
G03X126889I2066J1181D01*
G01X122757D02*
G03X121889I-434J-248D01*
G01X117757D02*
G03X121889I2066J1181D01*
G01X117757D02*
G03X116889I-434J-248D01*
G01X112757D02*
G03X116889I2066J1181D01*
G01X112757D02*
G03X111889I-434J-248D01*
G01X107757D02*
G03X111889I2066J1181D01*
G01X107757D02*
G03X106889I-434J-248D01*
G01X102779Y256779D02*
G03X106889Y256817I2044J1219D01*
G01X102779Y256779D02*
G03X101861Y256632I-430J-256D01*
X101673Y254917I7718J-1715*
G01X101131Y253608D02*
G03X101673Y254917I-1308J1309D01*
G01X101131Y253608D02*
X97811Y250288D01*
G03X97664Y249935I353J-353*
X98164Y249435I500J-0*
G01X117416*
X118547Y248966D02*
G03X117416Y249435I-1131J-1131D01*
G01X118547Y248966D02*
X123216Y244297D01*
G03X125492Y242715I5532J5533*
X125548Y242694I208J455*
G01X126889Y241608D02*
G03X125548Y242694I-2066J-1180D01*
G01X126889Y241608D02*
G03X127757I434J248D01*
G01X131889D02*
G03X127757I-2066J-1180D01*
G01X131889D02*
G03X132757I434J248D01*
G01X136943Y241507D02*
G03X132757Y241608I-2120J-1079D01*
G01X136943Y241507D02*
G03X137889Y241734I446J227D01*
G01Y248974*
G03X136929Y249171I-500J-0*
G01X132981Y249423D02*
G03X136929Y249171I2019J577D01*
G01X132981Y249423D02*
G03X132019I-481J-137D01*
G01X127981D02*
G03X132019I2019J577D01*
G01X127981D02*
G03X127019I-481J-137D01*
G01Y250577D02*
G03Y249423I-2019J-577D01*
G01Y250577D02*
G03X127981I481J137D01*
G01X132019D02*
G03X127981I-2019J-577D01*
G01X132019D02*
G03X132981I481J137D01*
G01X137000Y250642D02*
G03X132981Y250577I-2000J-642D01*
G01X137000Y250642D02*
G03X137955Y250653I476J153D01*
G01X138358Y251329D02*
G03X137955Y250653I1131J-1131D01*
G01X138358Y251329D02*
X139202Y252174D01*
G03X140358Y254965I-2790J2791*
G01X140358*
G03Y255014I-3946J-1*
Y255020I-500J-6*
G01X140357Y255118D02*
G03X140358Y255020I4052J0D01*
G01X147428Y257823D02*
G03X140357Y255118I-3019J-2705D01*
G01X147428Y257823D02*
G03X148300Y258157I372J334D01*
G01Y260830*
X105592Y281854D02*
X103272Y284173D01*
G03X102918Y284320I-354J-353*
G01X101926*
X100826Y285420D02*
G03X101926Y284320I1100J-0D01*
G01X100826Y285420D02*
Y290144D01*
X101926Y291244D02*
G03X100826Y290144I-0J-1100D01*
G01X101926Y291244D02*
X103016D01*
G03X103516Y291744I0J500*
X103490Y291903I-500J0*
G01X103373Y292369D02*
G03X103490Y291903I3081J531D01*
G01X103373Y292369D02*
G03X102880Y292784I-493J-85D01*
G01X99170*
X98070Y293884D02*
G03X99170Y292784I1100J0D01*
G01X98070Y293884D02*
Y301831D01*
G03X97570Y302331I-500J-0*
G01X97330*
G03X96830Y301831I-0J-500*
G01Y293884*
X95730Y292784D02*
G03X96830Y293884I-0J1100D01*
G01X95730Y292784D02*
X92020D01*
G03X91527Y292369I0J-500*
G01X91410Y291903D02*
G03X91527Y292369I-2964J997D01*
G01X91410Y291903D02*
G03X91384Y291744I474J-159D01*
X91884Y291244I500J0*
G01X92974*
X94074Y290144D02*
G03X92974Y291244I-1100J0D01*
G01X94074Y290144D02*
Y285420D01*
X92974Y284320D02*
G03X94074Y285420I0J1100D01*
G01X92974Y284320D02*
X90612D01*
X89512Y285420D02*
G03X90612Y284320I1100J-0D01*
G01X89512Y285420D02*
Y289318D01*
G03X88934Y289812I-500J-0*
G01X87718Y289860D02*
G03X88934Y289812I728J3040D01*
G01X87718Y289860D02*
G03X87101Y289373I-117J-487D01*
X87236Y289032I500J0*
G01X85985Y289681D02*
G03X87236Y289032I-285J-2081D01*
G01X85985Y289681D02*
G03X86383Y290552I68J495D01*
G01X85561Y291695D02*
G03X86383Y290552I2885J1205D01*
G01X85561Y291695D02*
G03X84639I-461J-192D01*
G01X81266Y289812D02*
G03X84639Y291695I488J3088D01*
G01X81266Y289812D02*
G03X80688Y289318I-78J-494D01*
G01Y286790*
G03X80835Y286436I500J-0*
G01X86124Y281146*
G03X86478Y281000I354J354*
G01X105238*
G03X105592Y281854I-0J500*
G01X124758Y287904D02*
G03X125606Y287413I4376J6584D01*
G01X124758Y287904D02*
G03X123985Y287548I-277J-416D01*
G01X121812Y289898D02*
G03X123985Y287548I88J-2098D01*
G01X121812Y289898D02*
G03X122228Y290641I-21J500D01*
G01X121479Y292512D02*
G03X122228Y290641I7655J1976D01*
G01X121479Y292512D02*
G03X120818Y292855I-484J-125D01*
G01X120430Y292784D02*
G03X120818Y292855I-0J1100D01*
G01X120430Y292784D02*
X116720D01*
G03X116227Y292369I0J-500*
G01X116110Y291903D02*
G03X116227Y292369I-2964J997D01*
G01X116110Y291903D02*
G03X116084Y291744I474J-159D01*
X116584Y291244I500J0*
G01X117674*
X118774Y290144D02*
G03X117674Y291244I-1100J0D01*
G01X118774Y290144D02*
Y285420D01*
X117674Y284320D02*
G03X118774Y285420I0J1100D01*
G01X117674Y284320D02*
X115312D01*
X114212Y285420D02*
G03X115312Y284320I1100J-0D01*
G01X114212Y285420D02*
Y289318D01*
G03X113634Y289812I-500J-0*
G01X112629Y289817D02*
G03X113634Y289812I517J3083D01*
G01X112629Y289817D02*
G03X112172Y288992I-82J-493D01*
G01X110704Y289697D02*
G03X112172Y288992I-104J-2097D01*
G01X110704Y289697D02*
G03X111062Y290570I25J500D01*
G01X110261Y291695D02*
G03X111062Y290570I2885J1205D01*
G01X110261Y291695D02*
G03X109339I-461J-192D01*
G01X105966Y289812D02*
G03X109339Y291695I488J3088D01*
G01X105966Y289812D02*
G03X105388Y289318I-78J-494D01*
G01Y286790*
G03X105535Y286436I500J-0*
G01X109224Y282746*
G03X109578Y282600I354J354*
G01X123830*
G03X124184Y282746I0J500*
G01X124954Y283516*
G03X125100Y283870I-354J354*
G01Y285313*
X125569Y286444D02*
G03X125100Y285313I1131J-1131D01*
G01X125569Y286444D02*
X125737Y286612D01*
G03X125606Y287413I-354J354*
G01X323974Y297283D02*
Y291378D01*
X322874Y290278D02*
G03X323974Y291378I0J1100D01*
G01X322874Y290278D02*
X316969D01*
X315868Y291378D02*
G03X316969Y290278I1101J-0D01*
G01X315868Y291378D02*
Y297283D01*
X316969Y298383D02*
G03X315868Y297283I-0J-1100D01*
G01X316969Y298383D02*
X322874D01*
X323974Y297283D02*
G03X322874Y298383I-1100J0D01*
G01X158974Y294331D02*
G03X158974I-4053J0D01*
G01X148974D02*
G03X148974I-4053J0D01*
G01X323974Y108622D02*
Y102717D01*
X322874Y101617D02*
G03X323974Y102717I0J1100D01*
G01X322874Y101617D02*
X316969D01*
X315868Y102717D02*
G03X316969Y101617I1101J-0D01*
G01X315868Y102717D02*
Y108622D01*
X316969Y109722D02*
G03X315868Y108622I-0J-1100D01*
G01X316969Y109722D02*
X322874D01*
X323974Y108622D02*
G03X322874Y109722I-1100J0D01*
G01X313974Y105669D02*
G03X313974I-4053J0D01*
G01X303974D02*
G03X303974I-4053J0D01*
G01X303624Y125197D02*
X303624D01*
X303626Y125359D02*
G03X303624Y125197I6610J-162D01*
G01X303626Y125359D02*
G03Y125365I-499J13D01*
X303627Y125448I-6471J83*
X301731Y130025I-6472J0*
G01X290162Y141595*
X289400Y143433D02*
G03X290162Y141595I2600J0D01*
G01X289400Y143433D02*
Y172591D01*
G03X289254Y172945I-500J0*
G01X272178Y190021*
X271416Y191859D02*
G03X272178Y190021I2600J0D01*
G01X271416Y191859D02*
Y204194D01*
G03X269461Y208829I-6472J0*
X269457Y208833I-349J-358*
G01X267404Y213622D02*
G03X269457Y208833I6612J0D01*
G01X280628Y213622D02*
G03X267404I-6612J0D01*
G01X278575Y208833D02*
G03X280628Y213622I-4559J4789D01*
G01X278575Y208833D02*
G03X278571Y208829I345J-362D01*
X276616Y204194I4517J-4635*
G01Y193143*
G03X276762Y192790I500J0*
G01X293838Y175714*
X294600Y173875D02*
G03X293838Y175714I-2600J0D01*
G01X294600Y173875D02*
Y144717D01*
G03X294746Y144364I500J0*
G01X305408Y133702*
G03X310068Y131807I4577J4576*
X310074I-7J500*
G01X303624Y125197D02*
G03X310074Y131807I6612J-0D01*
G01X257100Y245000D02*
G03X257100I-2100J0D01*
G01Y255000D02*
G03X257100I-2100J0D01*
G01Y265000D02*
G03X257100I-2100J0D01*
G01Y275000D02*
G03X257100I-2100J0D01*
G01X280628Y166378D02*
G03X280628I-6612J0D01*
G01Y231378D02*
G03X280628I-6612J0D01*
G01X257399Y130610D02*
Y125689D01*
X256299Y124589D02*
G03X257399Y125689I0J1100D01*
G01X256299Y124589D02*
X253543D01*
X252443Y125689D02*
G03X253543Y124589I1100J-0D01*
G01X252443Y125689D02*
Y130610D01*
X253543Y131710D02*
G03X252443Y130610I0J-1100D01*
G01X253543Y131710D02*
X256299D01*
X257399Y130610D02*
G03X256299Y131710I-1100J0D01*
G01X225342Y135385D02*
G03Y134615I319J-385D01*
G01X226100Y133000D02*
G03X225342Y134615I-2100J0D01*
G01X224577Y130981D02*
G03X226100Y133000I-577J2019D01*
G01X224577Y130981D02*
G03Y130019I137J-481D01*
G01X223423D02*
G03X224577I577J-2019D01*
G01X223423D02*
G03Y130981I-137J481D01*
G01X221900Y133000D02*
G03X223423Y130981I2100J0D01*
G01X222658Y134615D02*
G03X221900Y133000I1342J-1615D01*
G01X222658Y134615D02*
G03Y135385I-319J385D01*
G01X221900Y137000D02*
G03X222658Y135385I2100J0D01*
G01X225342D02*
G03X221900Y137000I-1342J1615D01*
G01X214092Y130610D02*
Y125689D01*
X212992Y124589D02*
G03X214092Y125689I0J1100D01*
G01X212992Y124589D02*
X210236D01*
X209136Y125689D02*
G03X210236Y124589I1100J-0D01*
G01X209136Y125689D02*
Y130610D01*
X210236Y131710D02*
G03X209136Y130610I0J-1100D01*
G01X210236Y131710D02*
X212992D01*
X214092Y130610D02*
G03X212992Y131710I-1100J0D01*
G01X293974Y105669D02*
G03X293974I-4053J0D01*
G01X316848Y144882D02*
G03X316848I-6612J0D01*
G01Y174409D02*
G03X316848I-6612J0D01*
G01X283974Y105669D02*
G03X283974I-4053J0D01*
G01X273974D02*
G03X273974I-4053J0D01*
G01X262100Y105000D02*
G03X262100I-2100J0D01*
G01X253974Y108465D02*
Y102560D01*
X252874Y101460D02*
G03X253974Y102560I0J1100D01*
G01X252874Y101460D02*
X246969D01*
X245868Y102560D02*
G03X246969Y101460I1101J-0D01*
G01X245868Y102560D02*
Y108465D01*
X246969Y109565D02*
G03X245868Y108465I-0J-1100D01*
G01X246969Y109565D02*
X252874D01*
X253974Y108465D02*
G03X252874Y109565I-1100J0D01*
G01X243974Y105512D02*
G03X243974I-4053J0D01*
G01X233974D02*
G03X233974I-4053J0D01*
G01X223974D02*
G03X223974I-4053J0D01*
G01X213974D02*
G03X213974I-4053J0D01*
G01X203974D02*
G03X203974I-4053J0D01*
G01X193974D02*
G03X193974I-4053J0D01*
G01X183974D02*
G03X183974I-4053J0D01*
G01X287200Y254800D02*
G03X287200I-2100J0D01*
G01Y264700D02*
G03X287200I-2100J0D01*
G01X220500Y175800D02*
G03X220500I-2100J0D01*
G01X206100Y234000D02*
Y228000D01*
X205000Y226900D02*
G03X206100Y228000I0J1100D01*
G01X205000Y226900D02*
X199000D01*
X197900Y228000D02*
G03X199000Y226900I1100J0D01*
G01X197900Y228000D02*
Y234000D01*
X199000Y235100D02*
G03X197900Y234000I0J-1100D01*
G01X199000Y235100D02*
X205000D01*
X206100Y234000D02*
G03X205000Y235100I-1100J0D01*
G01X206100Y251000D02*
G03X206100I-4100J0D01*
G01Y265000D02*
Y259000D01*
X205000Y257900D02*
G03X206100Y259000I0J1100D01*
G01X205000Y257900D02*
X199000D01*
X197900Y259000D02*
G03X199000Y257900I1100J0D01*
G01X197900Y259000D02*
Y265000D01*
X199000Y266100D02*
G03X197900Y265000I0J-1100D01*
G01X199000Y266100D02*
X205000D01*
X206100Y265000D02*
G03X205000Y266100I-1100J0D01*
G01X179643Y177165D02*
G03X179643I-7989J0D01*
G01X178100Y190000D02*
G03X178100I-2100J0D01*
G01X175100Y228100D02*
G03X175100I-2100J0D01*
G01X160577Y212981D02*
G03Y212019I137J-481D01*
G01Y207981D02*
G03Y212019I-577J2019D01*
G01Y207981D02*
G03Y207019I137J-481D01*
G01X159423D02*
G03X160577I577J-2019D01*
G01X159423D02*
G03Y207981I-137J481D01*
G01Y212019D02*
G03Y207981I577J-2019D01*
G01Y212019D02*
G03Y212981I-137J481D01*
G01X160577D02*
G03X159423I-577J2019D01*
G01X150577D02*
G03Y212019I137J-481D01*
G01Y207981D02*
G03Y212019I-577J2019D01*
G01Y207981D02*
G03Y207019I137J-481D01*
G01X149423D02*
G03X150577I577J-2019D01*
G01X149423D02*
G03Y207981I-137J481D01*
G01Y212019D02*
G03Y207981I577J-2019D01*
G01Y212019D02*
G03Y212981I-137J481D01*
G01X150577D02*
G03X149423I-577J2019D01*
G01X118100Y135000D02*
G03X118100I-2100J0D01*
G01X138000Y153400D02*
X127122D01*
G03X126909Y152448I0J-500*
G01X121377Y147592D02*
G03X126909Y152448I3820J1227D01*
G01X121377Y147592D02*
G03X120547Y147793I-476J-153D01*
G01X119737Y146982*
X117897Y146219D02*
G03X119737Y146982I-0J2600D01*
G01X117897Y146219D02*
G03X116716Y145398I-0J-1260D01*
X116684Y145224I468J-174*
G01Y143701*
X115584Y142601D02*
G03X116684Y143701I0J1100D01*
G01X115584Y142601D02*
X101647D01*
X100547Y143701D02*
G03X101647Y142601I1100J-0D01*
G01X100547Y143701D02*
Y153937D01*
X101647Y155037D02*
G03X100547Y153937I0J-1100D01*
G01X101647Y155037D02*
X115584D01*
X116684Y153937D02*
G03X115584Y155037I-1100J0D01*
G01X116684Y153937D02*
Y152491D01*
G03X117538Y152137I500J-0*
G01X123239Y157838*
X125078Y158600D02*
G03X123239Y157838I-0J-2600D01*
G01X125078Y158600D02*
X138000D01*
Y153400D02*
G03Y158600I0J2600D01*
G01X138100Y180000D02*
G03X138100I-2100J0D01*
G01X127328Y189220D02*
Y183220D01*
X126228Y182120D02*
G03X127328Y183220I0J1100D01*
G01X126228Y182120D02*
X120228D01*
X119128Y183220D02*
G03X120228Y182120I1100J0D01*
G01X119128Y183220D02*
Y189220D01*
X120228Y190320D02*
G03X119128Y189220I0J-1100D01*
G01X120228Y190320D02*
X126228D01*
X127328Y189220D02*
G03X126228Y190320I-1100J0D01*
G01X118100Y174000D02*
G03X118100I-2100J0D01*
G01X83638Y127559D02*
G03X83638I-4012J0D01*
G01Y154331D02*
G03X83638I-4012J0D01*
G01X82100Y165000D02*
G03X82100I-2100J0D01*
G01X89880Y212126D02*
G03X89880I-4053J0D01*
G01Y222126D02*
G03X89880I-4053J0D01*
G01X315287Y241668D02*
X337764D01*
X332947Y240768D02*
X337764D01*
X334557Y239868D02*
X337764D01*
X335597Y238968D02*
X337764D01*
X336348Y238068D02*
X337764D01*
X336491Y229068D02*
X337764D01*
X335790Y228168D02*
X337764D01*
X334830Y227268D02*
X337764D01*
X333405Y226368D02*
X337764D01*
X312622Y225468D02*
X337764D01*
X313522Y224568D02*
X337764D01*
X314422Y223668D02*
X337764D01*
X315322Y222768D02*
X337764D01*
X316222Y221868D02*
X337764D01*
X317122Y220968D02*
X337764D01*
X318022Y220068D02*
X337764D01*
X318736Y219168D02*
X337764D01*
X318848Y218268D02*
X337764D01*
X318848Y217368D02*
X337764D01*
X318848Y216468D02*
X337764D01*
X318848Y215568D02*
X337764D01*
X318848Y214668D02*
X337764D01*
X318848Y213768D02*
X337764D01*
X318848Y212868D02*
X337764D01*
X318848Y211968D02*
X337764D01*
X318848Y211068D02*
X337764D01*
X318848Y210168D02*
X337764D01*
X318848Y209268D02*
X337764D01*
X318848Y208368D02*
X337764D01*
X318848Y207468D02*
X337764D01*
X318848Y206568D02*
X337764D01*
X318848Y205668D02*
X337764D01*
X318848Y204768D02*
X337764D01*
X318848Y203868D02*
X337764D01*
X318848Y202968D02*
X337764D01*
X318848Y202068D02*
X337764D01*
X318848Y201168D02*
X337764D01*
X318611Y200268D02*
X337764D01*
X317852Y199368D02*
X337764D01*
X317297Y198468D02*
X337764D01*
X316942Y197568D02*
X337764D01*
X316749Y196668D02*
X337764D01*
X316702Y195768D02*
X337764D01*
X316803Y194868D02*
X337764D01*
X316847Y193968D02*
X337764D01*
X316768Y193068D02*
X337764D01*
X316561Y192168D02*
X337764D01*
X316213Y191268D02*
X337764D01*
X315698Y190368D02*
X337764D01*
X314960Y189468D02*
X337764D01*
X313866Y188568D02*
X337764D01*
X311791Y187668D02*
X337764D01*
X282784Y186768D02*
X337764D01*
X283684Y185868D02*
X337764D01*
X284584Y184968D02*
X337764D01*
X285484Y184068D02*
X337764D01*
X286384Y183168D02*
X337764D01*
X287284Y182268D02*
X337764D01*
X288184Y181368D02*
X337764D01*
X312884Y180468D02*
X337764D01*
X314372Y179568D02*
X337764D01*
X315294Y178668D02*
X337764D01*
X315932Y177768D02*
X337764D01*
X316374Y176868D02*
X337764D01*
X316662Y175968D02*
X337764D01*
X316815Y175068D02*
X337764D01*
X316844Y174168D02*
X337764D01*
X316749Y173268D02*
X337764D01*
X316525Y172368D02*
X337764D01*
X316158Y171468D02*
X337764D01*
X315618Y170568D02*
X337764D01*
X314844Y169668D02*
X337764D01*
X313684Y168768D02*
X337764D01*
X311198Y167868D02*
X337764D01*
X294600Y166968D02*
X337764D01*
X294600Y166068D02*
X337764D01*
X294600Y165168D02*
X337764D01*
X294600Y164268D02*
X337764D01*
X294600Y163368D02*
X337764D01*
X294600Y162468D02*
X337764D01*
X294600Y161568D02*
X337764D01*
X294600Y160668D02*
X337764D01*
X294600Y159768D02*
X337764D01*
X294600Y158868D02*
X337764D01*
X294600Y157968D02*
X337764D01*
X294600Y157068D02*
X337764D01*
X294600Y156168D02*
X337764D01*
X294600Y155268D02*
X337764D01*
X294600Y154368D02*
X337764D01*
X294600Y153468D02*
X337764D01*
X294600Y152568D02*
X337764D01*
X294600Y151668D02*
X337764D01*
X313248Y150768D02*
X337764D01*
X314578Y149868D02*
X337764D01*
X315434Y148968D02*
X337764D01*
X316030Y148068D02*
X337764D01*
X316440Y147168D02*
X337764D01*
X316701Y146268D02*
X337764D01*
X316830Y145368D02*
X337764D01*
X316835Y144468D02*
X337764D01*
X316716Y143568D02*
X337764D01*
X316466Y142668D02*
X337764D01*
X316069Y141768D02*
X337764D01*
X315490Y140868D02*
X337764D01*
X314660Y139968D02*
X337764D01*
X313385Y139068D02*
X337764D01*
X300942Y138168D02*
X337764D01*
X301842Y137268D02*
X337764D01*
X302742Y136368D02*
X337764D01*
X303642Y135468D02*
X337764D01*
X332696Y134568D02*
X337764D01*
X334417Y133668D02*
X337764D01*
X335499Y132768D02*
X337764D01*
X336276Y131868D02*
X337764D01*
X336557Y122868D02*
X337764D01*
X335878Y121968D02*
X337764D01*
X334953Y121068D02*
X337764D01*
X333600Y120168D02*
X337764D01*
X330281Y119268D02*
X337764D01*
X286232Y118368D02*
X337764D01*
X285332Y117468D02*
X337764D01*
X284432Y116568D02*
X337764D01*
X336856Y130968D02*
X337672D01*
X314362Y242568D02*
X337666D01*
X336949Y237168D02*
X337579D01*
X283532Y115668D02*
X337249D01*
X312866Y243468D02*
X336774D01*
X282632Y114768D02*
X336349D01*
X293723Y244368D02*
X335874D01*
X281732Y113868D02*
X335449D01*
X293600Y245268D02*
X334974D01*
X280832Y112968D02*
X334549D01*
X293600Y246168D02*
X334074D01*
X279932Y112068D02*
X333649D01*
X293600Y247068D02*
X333174D01*
X163438Y111168D02*
X332749D01*
X293600Y247968D02*
X332274D01*
X162073Y110268D02*
X331849D01*
X293600Y248868D02*
X331374D01*
X323682Y109368D02*
X330949D01*
X293600Y249768D02*
X330474D01*
X323974Y108468D02*
X330049D01*
X311823Y250668D02*
X329574D01*
X313163Y119268D02*
X329562D01*
X323974Y107568D02*
X329149D01*
X313878Y251568D02*
X328674D01*
X323974Y106668D02*
X328289D01*
X314967Y252468D02*
X328041D01*
X323974Y105768D02*
X327938D01*
X323974Y294768D02*
X327921D01*
X323974Y293868D02*
X327921D01*
X323974Y292968D02*
X327921D01*
X323974Y292068D02*
X327921D01*
X323954Y291168D02*
X327921D01*
X309995Y290268D02*
X327921D01*
X309819Y289368D02*
X327921D01*
X310719Y288468D02*
X327921D01*
X311619Y287568D02*
X327921D01*
X312519Y286668D02*
X327921D01*
X313419Y285768D02*
X327921D01*
X314319Y284868D02*
X327921D01*
X315219Y283968D02*
X327921D01*
X316119Y283068D02*
X327921D01*
X317019Y282168D02*
X327921D01*
X317919Y281268D02*
X327921D01*
X318691Y280368D02*
X327921D01*
X318848Y279468D02*
X327921D01*
X318848Y278568D02*
X327921D01*
X318848Y277668D02*
X327921D01*
X318848Y276768D02*
X327921D01*
X318848Y275868D02*
X327921D01*
X318848Y274968D02*
X327921D01*
X318848Y274068D02*
X327921D01*
X318848Y273168D02*
X327921D01*
X318848Y272268D02*
X327921D01*
X318848Y271368D02*
X327921D01*
X318848Y270468D02*
X327921D01*
X318848Y269568D02*
X327921D01*
X318848Y268668D02*
X327921D01*
X318848Y267768D02*
X327921D01*
X318848Y266868D02*
X327921D01*
X318848Y265968D02*
X327921D01*
X318848Y265068D02*
X327921D01*
X318848Y264168D02*
X327921D01*
X318616Y263268D02*
X327921D01*
X317858Y262368D02*
X327921D01*
X317301Y261468D02*
X327921D01*
X316944Y260568D02*
X327921D01*
X316750Y259668D02*
X327921D01*
X316702Y258768D02*
X327921D01*
X316802Y257868D02*
X327921D01*
X316847Y256968D02*
X327921D01*
X316769Y256068D02*
X327921D01*
X316564Y255168D02*
X327921D01*
X316217Y254268D02*
X327921D01*
X315703Y253368D02*
X327921D01*
X323974Y104868D02*
X327921D01*
X323974Y103968D02*
X327921D01*
X323974Y103068D02*
X327921D01*
X323828Y102168D02*
X327921D01*
X162230Y101268D02*
X327921D01*
X162230Y100368D02*
X327921D01*
X162230Y99468D02*
X327921D01*
X162230Y98568D02*
X327910D01*
X323974Y295668D02*
X327856D01*
X304542Y134568D02*
X327147D01*
X323974Y296568D02*
X326981D01*
X315927Y240768D02*
X326895D01*
X311722Y226368D02*
X326438D01*
X314529Y120168D02*
X326242D01*
X323958Y297468D02*
X326081D01*
X305442Y133668D02*
X325425D01*
X316371Y239868D02*
X325285D01*
X323058Y298368D02*
X325181D01*
X310822Y227268D02*
X325012D01*
X315400Y121068D02*
X324889D01*
X306590Y132768D02*
X324344D01*
X135431Y299268D02*
X324281D01*
X316660Y238968D02*
X324246D01*
X309922Y228168D02*
X324052D01*
X316006Y121968D02*
X323964D01*
X309092Y131868D02*
X323567D01*
X316814Y238068D02*
X323494D01*
X134633Y300168D02*
X323381D01*
X309022Y229068D02*
X323351D01*
X316424Y122868D02*
X323286D01*
X313463Y130968D02*
X322990D01*
X316844Y237168D02*
X322937D01*
X308122Y229968D02*
X322831D01*
X316692Y123768D02*
X322783D01*
X314707Y130068D02*
X322568D01*
X316750Y236268D02*
X322529D01*
X133516Y301068D02*
X322481D01*
X311251Y230868D02*
X322454D01*
X316827Y124668D02*
X322421D01*
X315523Y129168D02*
X322274D01*
X316528Y235368D02*
X322248D01*
X313697Y231768D02*
X322200D01*
X316838Y125568D02*
X322179D01*
X316092Y128268D02*
X322093D01*
X316162Y234468D02*
X322080D01*
X314852Y232668D02*
X322056D01*
X316725Y126468D02*
X322047D01*
X316481Y127368D02*
X322018D01*
X315623Y233568D02*
X322016D01*
X132745Y301968D02*
X321581D01*
X310275Y298368D02*
X316785D01*
X311578Y109368D02*
X316160D01*
X311962Y102168D02*
X316015D01*
X312455Y291168D02*
X315889D01*
X312487Y297468D02*
X315884D01*
X313301Y296568D02*
X315868D01*
X313747Y295668D02*
X315868D01*
X313950Y294768D02*
X315868D01*
X313948Y293868D02*
X315868D01*
X313738Y292968D02*
X315868D01*
X313284Y292068D02*
X315868D01*
X312853Y108468D02*
X315868D01*
X313502Y107568D02*
X315868D01*
X313849Y106668D02*
X315868D01*
X313973Y105768D02*
X315868D01*
X313894Y104868D02*
X315868D01*
X313600Y103968D02*
X315868D01*
X313029Y103068D02*
X315868D01*
X314046Y271368D02*
X315648D01*
X312231Y270468D02*
X315648D01*
X293600Y269568D02*
X315648D01*
X293600Y268668D02*
X315648D01*
X293600Y267768D02*
X315648D01*
X293600Y266868D02*
X315648D01*
X293600Y265968D02*
X315648D01*
X293600Y265068D02*
X315648D01*
X314035Y208368D02*
X315648D01*
X312206Y207468D02*
X315648D01*
X277067Y206568D02*
X315648D01*
X276786Y205668D02*
X315648D01*
X276642Y204768D02*
X315648D01*
X276616Y203868D02*
X315648D01*
X276616Y202968D02*
X315648D01*
X276616Y202068D02*
X315648D01*
X293600Y264168D02*
X314651D01*
X276616Y201168D02*
X314635D01*
X280849Y283968D02*
X310565D01*
X279949Y284868D02*
X309793D01*
X300275Y298368D02*
X309567D01*
X294600Y167868D02*
X309274D01*
X307802Y230868D02*
X309222D01*
X279049Y285768D02*
X308893D01*
X281884Y187668D02*
X308682D01*
X293600Y250668D02*
X308649D01*
X277505Y207468D02*
X308266D01*
X301578Y109368D02*
X308265D01*
X293600Y270468D02*
X308241D01*
X281749Y283068D02*
X308218D01*
X278149Y286668D02*
X307993D01*
X293600Y263268D02*
X307890D01*
X301962Y102168D02*
X307880D01*
X276616Y200268D02*
X307869D01*
X294622Y243468D02*
X307607D01*
X289084Y180468D02*
X307589D01*
X302487Y297468D02*
X307356D01*
X286772Y119268D02*
X307310D01*
X294600Y150768D02*
X307225D01*
X277653Y287568D02*
X307093D01*
X300042Y139068D02*
X307087D01*
X302853Y108468D02*
X306990D01*
X303029Y103068D02*
X306813D01*
X294600Y168768D02*
X306788D01*
X280984Y188568D02*
X306607D01*
X293600Y251568D02*
X306595D01*
X303284Y292068D02*
X306559D01*
X303301Y296568D02*
X306542D01*
X303313Y291168D02*
X306530D01*
X278142Y208368D02*
X306437D01*
X293378Y271368D02*
X306426D01*
X282649Y282168D02*
X306416D01*
X303502Y107568D02*
X306341D01*
X293600Y262368D02*
X306258D01*
X276616Y199368D02*
X306248D01*
X303600Y103968D02*
X306243D01*
X295522Y242568D02*
X306110D01*
X303738Y292968D02*
X306104D01*
X289984Y179568D02*
X306100D01*
X303747Y295668D02*
X306095D01*
X303849Y106668D02*
X305993D01*
X303894Y104868D02*
X305948D01*
X286809Y120168D02*
X305944D01*
X303948Y293868D02*
X305895D01*
X294600Y149868D02*
X305894D01*
X303950Y294768D02*
X305892D01*
X303973Y105768D02*
X305870D01*
X299142Y139968D02*
X305812D01*
X294600Y169668D02*
X305628D01*
X280084Y189468D02*
X305513D01*
X293600Y252468D02*
X305505D01*
X278992Y209268D02*
X305403D01*
X292549Y272268D02*
X305395D01*
X283549Y281268D02*
X305389D01*
X293600Y261468D02*
X305284D01*
X276616Y198468D02*
X305278D01*
X296422Y241668D02*
X305185D01*
X290884Y178668D02*
X305178D01*
X286809Y121068D02*
X305072D01*
X294600Y148968D02*
X305038D01*
X298242Y140868D02*
X304982D01*
X294600Y170568D02*
X304855D01*
X279184Y190368D02*
X304775D01*
X293600Y253368D02*
X304769D01*
X279654Y210168D02*
X304698D01*
X291649Y273168D02*
X304693D01*
X284449Y280368D02*
X304688D01*
X293600Y260568D02*
X304615D01*
X276616Y197568D02*
X304610D01*
X297322Y240768D02*
X304546D01*
X291784Y177768D02*
X304541D01*
X286809Y121968D02*
X304466D01*
X294600Y148068D02*
X304443D01*
X297342Y141768D02*
X304404D01*
X294600Y171468D02*
X304315D01*
X278284Y191268D02*
X304259D01*
X293600Y254268D02*
X304255D01*
X280115Y211068D02*
X304206D01*
X290749Y274068D02*
X304202D01*
X285349Y279468D02*
X304199D01*
X293600Y259668D02*
X304149D01*
X276616Y196668D02*
X304146D01*
X298222Y239868D02*
X304102D01*
X292684Y176868D02*
X304098D01*
X286809Y122868D02*
X304048D01*
X294600Y147168D02*
X304032D01*
X296442Y142668D02*
X304006D01*
X294600Y172368D02*
X303947D01*
X302722Y235368D02*
X303918D01*
X277384Y192168D02*
X303911D01*
X293600Y255168D02*
X303909D01*
X280418Y211968D02*
X303877D01*
X289849Y274968D02*
X303875D01*
X286249Y278568D02*
X303873D01*
X293600Y258768D02*
X303842D01*
X276616Y195768D02*
X303840D01*
X299122Y238968D02*
X303813D01*
X293584Y175968D02*
X303811D01*
X286809Y123768D02*
X303781D01*
X294600Y146268D02*
X303771D01*
X295542Y143568D02*
X303756D01*
X294600Y173268D02*
X303724D01*
X301822Y236268D02*
X303722D01*
X276622Y193068D02*
X303705D01*
X293600Y256068D02*
X303703D01*
X280585Y212868D02*
X303688D01*
X288949Y275868D02*
X303686D01*
X287149Y277668D02*
X303685D01*
X293600Y257868D02*
X303671D01*
X276616Y194868D02*
X303670D01*
X300022Y238068D02*
X303658D01*
X294310Y175068D02*
X303657D01*
X286809Y124668D02*
X303646D01*
X294600Y145368D02*
X303642D01*
X294667Y144468D02*
X303637D01*
X294583Y174168D02*
X303629D01*
X300922Y237168D02*
X303629D01*
X286809Y125568D02*
X303626D01*
X276616Y193968D02*
X303626D01*
X293600Y256968D02*
X303625D01*
X280626Y213768D02*
X303624D01*
X288049Y276768D02*
X303624D01*
X280545Y214668D02*
X303596D01*
X286809Y126468D02*
X303546D01*
X280335Y215568D02*
X303442D01*
X286809Y127368D02*
X303336D01*
X279984Y216468D02*
X303151D01*
X286809Y128268D02*
X302980D01*
X279464Y217368D02*
X302700D01*
X286747Y129168D02*
X302451D01*
X278720Y218268D02*
X302047D01*
X286132Y130068D02*
X301688D01*
X277616Y219168D02*
X301171D01*
X285396Y130968D02*
X300788D01*
X275488Y220068D02*
X300271D01*
X284990Y131868D02*
X299888D01*
X290275Y298368D02*
X299567D01*
X221163Y220968D02*
X299371D01*
X284818Y132768D02*
X298988D01*
X221163Y221868D02*
X298471D01*
X291578Y109368D02*
X298265D01*
X284785Y133668D02*
X298088D01*
X291962Y102168D02*
X297880D01*
X221163Y222768D02*
X297571D01*
X292487Y297468D02*
X297356D01*
X284584Y134568D02*
X297188D01*
X292853Y108468D02*
X296990D01*
X293029Y103068D02*
X296813D01*
X221163Y223668D02*
X296671D01*
X293284Y292068D02*
X296559D01*
X293301Y296568D02*
X296542D01*
X293313Y291168D02*
X296530D01*
X293502Y107568D02*
X296341D01*
X284143Y135468D02*
X296288D01*
X293600Y103968D02*
X296243D01*
X293738Y292968D02*
X296104D01*
X293747Y295668D02*
X296095D01*
X293849Y106668D02*
X295993D01*
X293894Y104868D02*
X295948D01*
X293948Y293868D02*
X295895D01*
X293950Y294768D02*
X295892D01*
X293973Y105768D02*
X295870D01*
X221163Y224568D02*
X295771D01*
X283345Y136368D02*
X295388D01*
X276980Y225468D02*
X294871D01*
X281410Y137268D02*
X294488D01*
X278331Y226368D02*
X293971D01*
X273784Y138168D02*
X293588D01*
X279195Y227268D02*
X293071D01*
X274684Y139068D02*
X292688D01*
X279796Y228168D02*
X292171D01*
X283195Y139968D02*
X291788D01*
X280211Y229068D02*
X291271D01*
X284061Y140868D02*
X290888D01*
X280476Y229968D02*
X290371D01*
X284540Y141768D02*
X290003D01*
X280275Y298368D02*
X289567D01*
X284770Y142668D02*
X289515D01*
X280608Y230868D02*
X289471D01*
X276815Y172368D02*
X289400D01*
X278236Y171468D02*
X289400D01*
X279131Y170568D02*
X289400D01*
X279751Y169668D02*
X289400D01*
X280181Y168768D02*
X289400D01*
X280458Y167868D02*
X289400D01*
X280601Y166968D02*
X289400D01*
X280621Y166068D02*
X289400D01*
X280516Y165168D02*
X289400D01*
X280282Y164268D02*
X289400D01*
X279903Y163368D02*
X289400D01*
X279348Y162468D02*
X289400D01*
X278553Y161568D02*
X289400D01*
X277349Y160668D02*
X289400D01*
X274172Y159768D02*
X289400D01*
X256428Y158868D02*
X289400D01*
X257328Y157968D02*
X289400D01*
X258228Y157068D02*
X289400D01*
X259128Y156168D02*
X289400D01*
X260028Y155268D02*
X289400D01*
X260928Y154368D02*
X289400D01*
X266099Y153468D02*
X289400D01*
X266361Y152568D02*
X289400D01*
X266361Y151668D02*
X289400D01*
X266361Y150768D02*
X289400D01*
X266361Y149868D02*
X289400D01*
X266361Y148968D02*
X289400D01*
X266361Y148068D02*
X289400D01*
X281844Y147168D02*
X289400D01*
X283460Y146268D02*
X289400D01*
X284206Y145368D02*
X289400D01*
X284617Y144468D02*
X289400D01*
X284795Y143568D02*
X289400D01*
X242028Y173268D02*
X288930D01*
X280616Y231768D02*
X288571D01*
X281578Y109368D02*
X288265D01*
X241128Y174168D02*
X288030D01*
X281962Y102168D02*
X287880D01*
X280501Y232668D02*
X287671D01*
X282487Y297468D02*
X287356D01*
X240600Y175068D02*
X287130D01*
X282853Y108468D02*
X286990D01*
X283029Y103068D02*
X286813D01*
X280255Y233568D02*
X286771D01*
X283284Y292068D02*
X286559D01*
X283301Y296568D02*
X286542D01*
X283313Y291168D02*
X286530D01*
X283502Y107568D02*
X286341D01*
X283600Y103968D02*
X286243D01*
X240600Y175968D02*
X286230D01*
X283738Y292968D02*
X286104D01*
X283747Y295668D02*
X286095D01*
X283849Y106668D02*
X285993D01*
X283894Y104868D02*
X285948D01*
X283948Y293868D02*
X285895D01*
X283950Y294768D02*
X285892D01*
X279861Y234468D02*
X285871D01*
X283973Y105768D02*
X285870D01*
X240600Y176868D02*
X285330D01*
X279288Y235368D02*
X284971D01*
X240600Y177768D02*
X284430D01*
X278466Y236268D02*
X284071D01*
X240600Y178668D02*
X283530D01*
X272663Y128268D02*
X283364D01*
X272662Y127368D02*
X283304D01*
X277209Y237168D02*
X283171D01*
X240600Y179568D02*
X282630D01*
X221167Y238068D02*
X282271D01*
X240600Y180468D02*
X281730D01*
X272272Y118368D02*
X281687D01*
X221921Y238968D02*
X281371D01*
X240600Y181368D02*
X280830D01*
X272272Y117468D02*
X280807D01*
X222821Y239868D02*
X280471D01*
X273364Y129168D02*
X280140D01*
X272884Y137268D02*
X280008D01*
X240600Y182268D02*
X279930D01*
X271853Y116568D02*
X279907D01*
X266361Y147168D02*
X279573D01*
X223721Y240768D02*
X279571D01*
X270275Y298368D02*
X279567D01*
X240600Y183168D02*
X279030D01*
X223265Y115668D02*
X279007D01*
X224621Y241668D02*
X278671D01*
X271578Y109368D02*
X278265D01*
X275584Y139968D02*
X278223D01*
X240600Y184068D02*
X278130D01*
X223031Y114768D02*
X278107D01*
X274264Y130068D02*
X278097D01*
X271984Y136368D02*
X278072D01*
X266361Y146268D02*
X277957D01*
X271962Y102168D02*
X277880D01*
X225521Y242568D02*
X277771D01*
X272487Y297468D02*
X277356D01*
X240600Y184968D02*
X277230D01*
X272272Y119268D02*
X277172D01*
X275164Y130968D02*
X277144D01*
X271084Y135468D02*
X277116D01*
X272853Y108468D02*
X276990D01*
X256436Y243468D02*
X276871D01*
X273029Y103068D02*
X276813D01*
X272662Y126468D02*
X276635D01*
X272272Y120168D02*
X276610D01*
X272643Y125568D02*
X276609D01*
X266022Y124668D02*
X276609D01*
X266000Y123768D02*
X276609D01*
X266000Y122868D02*
X276609D01*
X272094Y121968D02*
X276609D01*
X272272Y121068D02*
X276609D01*
X273284Y292068D02*
X276559D01*
X273301Y296568D02*
X276542D01*
X273313Y291168D02*
X276530D01*
X273502Y107568D02*
X276341D01*
X240600Y185868D02*
X276330D01*
X273600Y103968D02*
X276243D01*
X273738Y292968D02*
X276104D01*
X273747Y295668D02*
X276095D01*
X273849Y106668D02*
X275993D01*
X257003Y244368D02*
X275971D01*
X273894Y104868D02*
X275948D01*
X273948Y293868D02*
X275895D01*
X273950Y294768D02*
X275892D01*
X273973Y105768D02*
X275870D01*
X240600Y186768D02*
X275430D01*
X257083Y245268D02*
X275071D01*
X240600Y187668D02*
X274530D01*
X270184Y134568D02*
X274287D01*
X256745Y246168D02*
X274171D01*
X255528Y159768D02*
X273860D01*
X266361Y145368D02*
X273691D01*
X240600Y188568D02*
X273630D01*
X269284Y133668D02*
X273338D01*
X255365Y247068D02*
X273271D01*
X266280Y144468D02*
X272730D01*
X240600Y189468D02*
X272730D01*
X221163Y220068D02*
X272544D01*
X268384Y132768D02*
X272438D01*
X229600Y247968D02*
X272371D01*
X240572Y190368D02*
X271886D01*
X262702Y143568D02*
X271830D01*
X229600Y248868D02*
X271675D01*
X267484Y131868D02*
X271538D01*
X240261Y191268D02*
X271484D01*
X229600Y249768D02*
X271426D01*
X229600Y268668D02*
X271416D01*
X229600Y267768D02*
X271416D01*
X255960Y266868D02*
X271416D01*
X256864Y265968D02*
X271416D01*
X257099Y265068D02*
X271416D01*
X256928Y264168D02*
X271416D01*
X256188Y263268D02*
X271416D01*
X229600Y262368D02*
X271416D01*
X229600Y261468D02*
X271416D01*
X229600Y260568D02*
X271416D01*
X229600Y259668D02*
X271416D01*
X229600Y258768D02*
X271416D01*
X229600Y257868D02*
X271416D01*
X255733Y256968D02*
X271416D01*
X256808Y256068D02*
X271416D01*
X257093Y255168D02*
X271416D01*
X256968Y254268D02*
X271416D01*
X256322Y253368D02*
X271416D01*
X229600Y252468D02*
X271416D01*
X229600Y251568D02*
X271416D01*
X229600Y250668D02*
X271416D01*
X228584Y203868D02*
X271416D01*
X228697Y202968D02*
X271416D01*
X229593Y202068D02*
X271416D01*
X230493Y201168D02*
X271416D01*
X231393Y200268D02*
X271416D01*
X232293Y199368D02*
X271416D01*
X233193Y198468D02*
X271416D01*
X234093Y197568D02*
X271416D01*
X234993Y196668D02*
X271416D01*
X235893Y195768D02*
X271416D01*
X236793Y194868D02*
X271416D01*
X237693Y193968D02*
X271416D01*
X238593Y193068D02*
X271416D01*
X239493Y192168D02*
X271416D01*
X229600Y269568D02*
X271405D01*
X228584Y204768D02*
X271390D01*
X229600Y270468D02*
X271289D01*
X228585Y205668D02*
X271246D01*
X242928Y172368D02*
X271217D01*
X227250Y284868D02*
X271174D01*
X227136Y225468D02*
X271052D01*
X229628Y271368D02*
X271040D01*
X228680Y206568D02*
X270965D01*
X261802Y142668D02*
X270930D01*
X227637Y237168D02*
X270823D01*
X254628Y160668D02*
X270683D01*
X229744Y272268D02*
X270640D01*
X267049Y130968D02*
X270638D01*
X228943Y207468D02*
X270527D01*
X228329Y219168D02*
X270416D01*
X228755Y283968D02*
X270125D01*
X256027Y273168D02*
X270053D01*
X260902Y141768D02*
X270030D01*
X229405Y208368D02*
X269890D01*
X243828Y171468D02*
X269796D01*
X229324Y226368D02*
X269701D01*
X260275Y298368D02*
X269567D01*
X229497Y236268D02*
X269566D01*
X253728Y161568D02*
X269479D01*
X229814Y218268D02*
X269312D01*
X256882Y274068D02*
X269223D01*
X260002Y140868D02*
X269130D01*
X230045Y283068D02*
X269122D01*
X230143Y209268D02*
X269040D01*
X244728Y170568D02*
X268901D01*
X230384Y227268D02*
X268837D01*
X230494Y235368D02*
X268744D01*
X252828Y162468D02*
X268684D01*
X230698Y217368D02*
X268568D01*
X257100Y274968D02*
X268506D01*
X230850Y282168D02*
X268435D01*
X230916Y210168D02*
X268378D01*
X245628Y169668D02*
X268281D01*
X253502Y109368D02*
X268265D01*
X231078Y228168D02*
X268236D01*
X255759Y139968D02*
X268230D01*
X231152Y234468D02*
X268171D01*
X251928Y163368D02*
X268129D01*
X231290Y216468D02*
X268048D01*
X256912Y275868D02*
X268005D01*
X231393Y281268D02*
X267957D01*
X231437Y211068D02*
X267917D01*
X253902Y102168D02*
X267880D01*
X246528Y168768D02*
X267851D01*
X231545Y229068D02*
X267821D01*
X231593Y233568D02*
X267777D01*
X251028Y164268D02*
X267750D01*
X231682Y215568D02*
X267697D01*
X256133Y276768D02*
X267669D01*
X231747Y280368D02*
X267639D01*
X231774Y211968D02*
X267614D01*
X247428Y167868D02*
X267574D01*
X231838Y229968D02*
X267556D01*
X231865Y232668D02*
X267531D01*
X250128Y165168D02*
X267516D01*
X231914Y214668D02*
X267487D01*
X231929Y277668D02*
X267473D01*
X231946Y279468D02*
X267459D01*
X231958Y212868D02*
X267447D01*
X248328Y166968D02*
X267431D01*
X231984Y230868D02*
X267424D01*
X231993Y231768D02*
X267416D01*
X249228Y166068D02*
X267411D01*
X232004Y213768D02*
X267406D01*
X232005Y278568D02*
X267404D01*
X262487Y297468D02*
X267356D01*
X254851Y139068D02*
X267330D01*
X253974Y108468D02*
X266990D01*
X265853Y116568D02*
X266947D01*
X260823Y103068D02*
X266813D01*
X263284Y292068D02*
X266559D01*
X263301Y296568D02*
X266542D01*
X263313Y291168D02*
X266530D01*
X253951Y138168D02*
X266430D01*
X253974Y107568D02*
X266341D01*
X261829Y103968D02*
X266243D01*
X263738Y292968D02*
X266104D01*
X263747Y295668D02*
X266095D01*
X261276Y106668D02*
X265993D01*
X262096Y104868D02*
X265948D01*
X263948Y293868D02*
X265895D01*
X263950Y294768D02*
X265892D01*
X261955Y105768D02*
X265870D01*
X253678Y137268D02*
X265530D01*
X253659Y136368D02*
X264630D01*
X253657Y135468D02*
X263730D01*
X253090Y134568D02*
X262830D01*
X244397Y133668D02*
X261930D01*
X241341Y132768D02*
X261285D01*
X225769Y131868D02*
X261072D01*
X257339Y130968D02*
X261068D01*
X256753Y116568D02*
X260947D01*
X257399Y130068D02*
X260829D01*
X256709Y124668D02*
X260800D01*
X249644Y123768D02*
X260800D01*
X249781Y122868D02*
X260800D01*
X257393Y125568D02*
X260757D01*
X257399Y129168D02*
X260738D01*
X257399Y128268D02*
X260738D01*
X257399Y127368D02*
X260738D01*
X257399Y126468D02*
X260738D01*
X256795Y121968D02*
X260706D01*
X257053Y121068D02*
X260528D01*
X257053Y120168D02*
X260528D01*
X257053Y119268D02*
X260528D01*
X257053Y118368D02*
X260528D01*
X257053Y117468D02*
X260528D01*
X250275Y298368D02*
X259567D01*
X250997Y148068D02*
X259239D01*
X253974Y103068D02*
X259177D01*
X250997Y147168D02*
X258874D01*
X250997Y148968D02*
X258872D01*
X253974Y106668D02*
X258724D01*
X253974Y103968D02*
X258171D01*
X250997Y149868D02*
X258074D01*
X250997Y146268D02*
X258048D01*
X253974Y105768D02*
X258045D01*
X253974Y104868D02*
X257904D01*
X252487Y297468D02*
X257356D01*
X250997Y150768D02*
X257174D01*
X250997Y145368D02*
X257142D01*
X253284Y292068D02*
X256559D01*
X253301Y296568D02*
X256542D01*
X253313Y291168D02*
X256530D01*
X250997Y151668D02*
X256274D01*
X253738Y292968D02*
X256104D01*
X253747Y295668D02*
X256095D01*
X253948Y293868D02*
X255895D01*
X253950Y294768D02*
X255892D01*
X250997Y152568D02*
X255374D01*
X229516Y247068D02*
X254635D01*
X250735Y153468D02*
X254474D01*
X229600Y256968D02*
X254267D01*
X229600Y266868D02*
X254040D01*
X229952Y273168D02*
X253973D01*
X231713Y276768D02*
X253867D01*
X229600Y263268D02*
X253812D01*
X229600Y253368D02*
X253678D01*
X228719Y154368D02*
X253574D01*
X226421Y243468D02*
X253564D01*
X229083Y246168D02*
X253255D01*
X229600Y256068D02*
X253192D01*
X229600Y265968D02*
X253136D01*
X249372Y124668D02*
X253134D01*
X230258Y274068D02*
X253118D01*
X231339Y275868D02*
X253088D01*
X229600Y264168D02*
X253072D01*
X229600Y254268D02*
X253032D01*
X227321Y244368D02*
X252997D01*
X228221Y245268D02*
X252917D01*
X229600Y255168D02*
X252907D01*
X229600Y265068D02*
X252901D01*
X230770Y274968D02*
X252900D01*
X250916Y144468D02*
X252897D01*
X229619Y155268D02*
X252674D01*
X249859Y130968D02*
X252503D01*
X249912Y125568D02*
X252450D01*
X249919Y130068D02*
X252443D01*
X249919Y129168D02*
X252443D01*
X249919Y128268D02*
X252443D01*
X249919Y127368D02*
X252443D01*
X249919Y126468D02*
X252443D01*
X241395Y143568D02*
X251997D01*
X230519Y156168D02*
X251774D01*
X250753Y116568D02*
X251609D01*
X250795Y121968D02*
X251568D01*
X241395Y142668D02*
X251097D01*
X231419Y157068D02*
X250874D01*
X241395Y141768D02*
X250197D01*
X232319Y157968D02*
X249974D01*
X238058Y298368D02*
X249567D01*
X245364Y134568D02*
X249272D01*
X233219Y158868D02*
X249074D01*
X241389Y140868D02*
X248785D01*
X246264Y135468D02*
X248705D01*
X240716Y139968D02*
X248687D01*
X247242Y136368D02*
X248357D01*
X234119Y159768D02*
X248174D01*
X238958Y297468D02*
X247356D01*
X235019Y160668D02*
X247274D01*
X238974Y292068D02*
X246559D01*
X238974Y296568D02*
X246542D01*
X239222Y291168D02*
X246530D01*
X235731Y161568D02*
X246374D01*
X241170Y109368D02*
X246340D01*
X240065Y122868D02*
X246163D01*
X238974Y292968D02*
X246104D01*
X238974Y295668D02*
X246095D01*
X242211Y102168D02*
X245941D01*
X238974Y293868D02*
X245895D01*
X238974Y294768D02*
X245892D01*
X242694Y108468D02*
X245868D01*
X243414Y107568D02*
X245868D01*
X243806Y106668D02*
X245868D01*
X243966Y105768D02*
X245868D01*
X243922Y104868D02*
X245868D01*
X243668Y103968D02*
X245868D01*
X243154Y103068D02*
X245868D01*
X240077Y123768D02*
X245844D01*
X241237Y124668D02*
X245632D01*
X241056Y116568D02*
X245609D01*
X241102Y121968D02*
X245568D01*
X235992Y162468D02*
X245474D01*
X234002Y139068D02*
X245339D01*
X241470Y117468D02*
X245231D01*
X241505Y121068D02*
X245196D01*
X224538Y130968D02*
X245023D01*
X241395Y125568D02*
X244970D01*
X240807Y130068D02*
X244963D01*
X241393Y129168D02*
X244963D01*
X241395Y128268D02*
X244963D01*
X241395Y127368D02*
X244963D01*
X241395Y126468D02*
X244963D01*
X236005Y163368D02*
X244574D01*
X234174Y138168D02*
X244439D01*
X241395Y144468D02*
X243956D01*
X241053Y148068D02*
X243876D01*
X241033Y147168D02*
X243876D01*
X241033Y146268D02*
X243876D01*
X241262Y145368D02*
X243876D01*
X236005Y164268D02*
X243674D01*
X241354Y137268D02*
X243539D01*
X236005Y165168D02*
X242774D01*
X236005Y166068D02*
X241874D01*
X236005Y166968D02*
X240974D01*
X236005Y167868D02*
X240074D01*
X236005Y168768D02*
X239174D01*
X231170Y109368D02*
X238673D01*
X236005Y169668D02*
X238274D01*
X232211Y102168D02*
X237632D01*
X236005Y170568D02*
X237374D01*
X232694Y108468D02*
X237148D01*
X233154Y103068D02*
X236689D01*
X233414Y107568D02*
X236429D01*
X234653Y139968D02*
X236213D01*
X233668Y103968D02*
X236174D01*
X234744Y130068D02*
X236122D01*
X233806Y106668D02*
X236037D01*
X233922Y104868D02*
X235920D01*
X233966Y105768D02*
X235877D01*
X234993Y116568D02*
X235873D01*
X223054Y147168D02*
X235833D01*
X223054Y146268D02*
X235833D01*
X235043Y153468D02*
X235823D01*
X235012Y148068D02*
X235654D01*
X225275Y298368D02*
X231785D01*
X227487Y297468D02*
X230884D01*
X228301Y296568D02*
X230868D01*
X228747Y295668D02*
X230868D01*
X228950Y294768D02*
X230868D01*
X228948Y293868D02*
X230868D01*
X228738Y292968D02*
X230868D01*
X228284Y292068D02*
X230868D01*
X224365Y139068D02*
X230802D01*
X225745Y138168D02*
X230629D01*
X228313Y291168D02*
X230620D01*
X212452Y139968D02*
X230150D01*
X224462Y130068D02*
X230059D01*
X223054Y148068D02*
X229858D01*
X227819Y153468D02*
X229823D01*
X224165Y116568D02*
X229810D01*
X223054Y145368D02*
X229604D01*
X226919Y152568D02*
X229561D01*
X226019Y151668D02*
X229561D01*
X225119Y150768D02*
X229561D01*
X224219Y149868D02*
X229561D01*
X223421Y148968D02*
X229561D01*
X226087Y132768D02*
X229525D01*
X226083Y137268D02*
X229512D01*
X216695Y140868D02*
X229477D01*
X225745Y129168D02*
X229473D01*
X226003Y136368D02*
X229471D01*
X225436Y135468D02*
X229471D01*
X225397Y134568D02*
X229471D01*
X225991Y133668D02*
X229471D01*
X226083Y128268D02*
X229471D01*
X226003Y127368D02*
X229471D01*
X227765Y120168D02*
X229471D01*
X226865Y119268D02*
X229471D01*
X225965Y118368D02*
X229471D01*
X225065Y117468D02*
X229471D01*
X222973Y144468D02*
X229471D01*
X219395Y143568D02*
X229471D01*
X218495Y142668D02*
X229471D01*
X217595Y141768D02*
X229471D01*
X225436Y126468D02*
X229451D01*
X228673Y121068D02*
X229269D01*
X221170Y109368D02*
X228673D01*
X214085Y125568D02*
X228640D01*
X213402Y124668D02*
X227740D01*
X222211Y102168D02*
X227632D01*
X222694Y108468D02*
X227148D01*
X206474Y123768D02*
X226840D01*
X223154Y103068D02*
X226689D01*
X223414Y107568D02*
X226429D01*
X223668Y103968D02*
X226174D01*
X223806Y106668D02*
X226037D01*
X206474Y122868D02*
X225940D01*
X223922Y104868D02*
X225920D01*
X223966Y105768D02*
X225877D01*
X213487Y121968D02*
X225040D01*
X221163Y225468D02*
X224832D01*
X215275Y298368D02*
X224567D01*
X221163Y237168D02*
X224331D01*
X213746Y121068D02*
X224140D01*
X221163Y219168D02*
X223639D01*
X211544Y139068D02*
X223635D01*
X214092Y130068D02*
X223538D01*
X214032Y130968D02*
X223462D01*
X213746Y120168D02*
X223240D01*
X221163Y226368D02*
X222644D01*
X209783Y134568D02*
X222603D01*
X214092Y126468D02*
X222564D01*
X210350Y135468D02*
X222564D01*
X221163Y236268D02*
X222471D01*
X217487Y297468D02*
X222356D01*
X213746Y119268D02*
X222340D01*
X210644Y138168D02*
X222255D01*
X214092Y129168D02*
X222255D01*
X187469Y131868D02*
X222231D01*
X221223Y218268D02*
X222154D01*
X201090Y133668D02*
X222009D01*
X210352Y136368D02*
X221997D01*
X214092Y127368D02*
X221997D01*
X210371Y137268D02*
X221917D01*
X214092Y128268D02*
X221917D01*
X198034Y132768D02*
X221913D01*
X218284Y292068D02*
X221559D01*
X218301Y296568D02*
X221542D01*
X218313Y291168D02*
X221530D01*
X213746Y118368D02*
X221440D01*
X218738Y292968D02*
X221104D01*
X218747Y295668D02*
X221095D01*
X218948Y293868D02*
X220895D01*
X218950Y294768D02*
X220892D01*
X213746Y117468D02*
X220540D01*
X211170Y109368D02*
X218673D01*
X212211Y102168D02*
X217632D01*
X212694Y108468D02*
X217148D01*
X213154Y103068D02*
X216689D01*
X213414Y107568D02*
X216429D01*
X213668Y103968D02*
X216174D01*
X213806Y106668D02*
X216037D01*
X213922Y104868D02*
X215920D01*
X213966Y105768D02*
X215877D01*
X205275Y298368D02*
X214567D01*
X207487Y297468D02*
X212356D01*
X208284Y292068D02*
X211559D01*
X208301Y296568D02*
X211542D01*
X208313Y291168D02*
X211530D01*
X208738Y292968D02*
X211104D01*
X208747Y295668D02*
X211095D01*
X208948Y293868D02*
X210895D01*
X208950Y294768D02*
X210892D01*
X206477Y124668D02*
X209827D01*
X206552Y130968D02*
X209196D01*
X206605Y125568D02*
X209143D01*
X206612Y130068D02*
X209136D01*
X206612Y129168D02*
X209136D01*
X206612Y128268D02*
X209136D01*
X206612Y127368D02*
X209136D01*
X206612Y126468D02*
X209136D01*
X201170Y109368D02*
X208673D01*
X207487Y121968D02*
X208261D01*
X202211Y102168D02*
X207632D01*
X202694Y108468D02*
X207148D01*
X203154Y103068D02*
X206689D01*
X203414Y107568D02*
X206429D01*
X203668Y103968D02*
X206174D01*
X203806Y106668D02*
X206037D01*
X202057Y134568D02*
X205965D01*
X203922Y104868D02*
X205920D01*
X203966Y105768D02*
X205877D01*
X202957Y135468D02*
X205398D01*
X203935Y136368D02*
X205049D01*
X195275Y298368D02*
X204567D01*
X196770Y123768D02*
X203274D01*
X196758Y122868D02*
X203274D01*
X197487Y297468D02*
X202356D01*
X197930Y124668D02*
X202346D01*
X197795Y121968D02*
X202261D01*
X198198Y121068D02*
X201889D01*
X187653Y130968D02*
X201716D01*
X198088Y125568D02*
X201663D01*
X197500Y130068D02*
X201656D01*
X198086Y129168D02*
X201656D01*
X198088Y128268D02*
X201656D01*
X198088Y127368D02*
X201656D01*
X198088Y126468D02*
X201656D01*
X198284Y292068D02*
X201559D01*
X198301Y296568D02*
X201542D01*
X198313Y291168D02*
X201530D01*
X198738Y292968D02*
X201104D01*
X198747Y295668D02*
X201095D01*
X198948Y293868D02*
X200895D01*
X198950Y294768D02*
X200892D01*
X191170Y109368D02*
X198673D01*
X192211Y102168D02*
X197632D01*
X192694Y108468D02*
X197148D01*
X193154Y103068D02*
X196689D01*
X193414Y107568D02*
X196429D01*
X193668Y103968D02*
X196174D01*
X193806Y106668D02*
X196037D01*
X193922Y104868D02*
X195920D01*
X193966Y105768D02*
X195877D01*
X185275Y298368D02*
X194567D01*
X191437Y130068D02*
X192815D01*
X187487Y297468D02*
X192356D01*
X187455Y291168D02*
X191958D01*
X188284Y292068D02*
X191559D01*
X188301Y296568D02*
X191542D01*
X188738Y292968D02*
X191104D01*
X188747Y295668D02*
X191095D01*
X186340Y290268D02*
X191005D01*
X188948Y293868D02*
X190895D01*
X188950Y294768D02*
X190892D01*
X181170Y109368D02*
X188673D01*
X182211Y102168D02*
X187632D01*
X182694Y108468D02*
X187148D01*
X183154Y103068D02*
X186689D01*
X183414Y107568D02*
X186429D01*
X183668Y103968D02*
X186174D01*
X183806Y106668D02*
X186037D01*
X183922Y104868D02*
X185920D01*
X183966Y105768D02*
X185877D01*
X164338Y112068D02*
X185345D01*
X175275Y298368D02*
X184567D01*
X178414Y112968D02*
X184445D01*
X179057Y113868D02*
X183545D01*
X176340Y290268D02*
X183502D01*
X179062Y114768D02*
X182645D01*
X177455Y291168D02*
X182387D01*
X177487Y297468D02*
X182356D01*
X179062Y115668D02*
X181758D01*
X178284Y292068D02*
X181559D01*
X178301Y296568D02*
X181542D01*
X179207Y116568D02*
X181404D01*
X180516Y117468D02*
X181263D01*
X178738Y292968D02*
X181104D01*
X178747Y295668D02*
X181095D01*
X178948Y293868D02*
X180895D01*
X178950Y294768D02*
X180892D01*
X159304Y109368D02*
X178673D01*
X162230Y102168D02*
X177632D01*
X156796Y108468D02*
X177148D01*
X162230Y103068D02*
X176689D01*
X156986Y107568D02*
X176429D01*
X162230Y103968D02*
X176174D01*
X162133Y106668D02*
X176037D01*
X162230Y104868D02*
X175920D01*
X162230Y105768D02*
X175877D01*
X165275Y298368D02*
X174567D01*
X172351Y112968D02*
X173849D01*
X166340Y290268D02*
X173502D01*
X167455Y291168D02*
X172387D01*
X167487Y297468D02*
X172356D01*
X168284Y292068D02*
X171559D01*
X168301Y296568D02*
X171542D01*
X168738Y292968D02*
X171104D01*
X168747Y295668D02*
X171095D01*
X168948Y293868D02*
X170895D01*
X168950Y294768D02*
X170892D01*
X165238Y112968D02*
X167786D01*
X155275Y298368D02*
X164567D01*
X135819Y290268D02*
X163502D01*
X157455Y291168D02*
X162387D01*
X157487Y297468D02*
X162356D01*
X158284Y292068D02*
X161559D01*
X158301Y296568D02*
X161542D01*
X158738Y292968D02*
X161104D01*
X158747Y295668D02*
X161095D01*
X158948Y293868D02*
X160895D01*
X158950Y294768D02*
X160892D01*
X135157Y289368D02*
X157924D01*
X135161Y288468D02*
X157005D01*
X147925Y287568D02*
X156105D01*
X148825Y286668D02*
X155597D01*
X145275Y298368D02*
X154567D01*
X152658Y285768D02*
X154442D01*
X152862Y284868D02*
X154238D01*
X152862Y283968D02*
X154238D01*
X152862Y283068D02*
X154238D01*
X152862Y282168D02*
X154238D01*
X152988Y281268D02*
X154112D01*
X147455Y291168D02*
X152387D01*
X147487Y297468D02*
X152356D01*
X148284Y292068D02*
X151559D01*
X148301Y296568D02*
X151542D01*
X148738Y292968D02*
X151104D01*
X148747Y295668D02*
X151095D01*
X148948Y293868D02*
X150895D01*
X148950Y294768D02*
X150892D01*
X136022Y298368D02*
X144567D01*
X136308Y291168D02*
X142387D01*
X136456Y297468D02*
X142356D01*
X136660Y292068D02*
X141559D01*
X136761Y296568D02*
X141542D01*
X136892Y292968D02*
X141104D01*
X136951Y295668D02*
X141095D01*
X137015Y293868D02*
X140895D01*
X137034Y294768D02*
X140892D01*
X307309Y220968D02*
X312596D01*
X305867Y221868D02*
X311696D01*
X304925Y222768D02*
X310796D01*
X304025Y223668D02*
X309896D01*
X303125Y224568D02*
X308996D01*
X302225Y225468D02*
X308096D01*
X301325Y226368D02*
X307196D01*
X300425Y227268D02*
X306296D01*
X299525Y228168D02*
X305396D01*
X298625Y229068D02*
X304496D01*
X297725Y229968D02*
X303596D01*
X296825Y230868D02*
X302696D01*
X295925Y231768D02*
X301796D01*
X295025Y232668D02*
X300896D01*
X294125Y233568D02*
X299996D01*
X293225Y234468D02*
X299096D01*
X292325Y235368D02*
X298196D01*
X291425Y236268D02*
X297296D01*
X290525Y237168D02*
X296396D01*
X289625Y238068D02*
X295496D01*
X288725Y238968D02*
X294596D01*
X287825Y239868D02*
X293696D01*
X286925Y240768D02*
X292796D01*
X286025Y241668D02*
X291896D01*
X285125Y242568D02*
X290996D01*
X284225Y243468D02*
X290441D01*
X276627Y269568D02*
X290400D01*
X276616Y268668D02*
X290400D01*
X276616Y267768D02*
X290400D01*
X276616Y266868D02*
X290400D01*
X286774Y265968D02*
X290400D01*
X287168Y265068D02*
X290400D01*
X287132Y264168D02*
X290400D01*
X286636Y263268D02*
X290400D01*
X276616Y262368D02*
X290400D01*
X276616Y261468D02*
X290400D01*
X276616Y260568D02*
X290400D01*
X276616Y259668D02*
X290400D01*
X276616Y258768D02*
X290400D01*
X276616Y257868D02*
X290400D01*
X276616Y256968D02*
X290400D01*
X286774Y256068D02*
X290400D01*
X287168Y255168D02*
X290400D01*
X287132Y254268D02*
X290400D01*
X286636Y253368D02*
X290400D01*
X276616Y252468D02*
X290400D01*
X276616Y251568D02*
X290400D01*
X277025Y250668D02*
X290400D01*
X277925Y249768D02*
X290400D01*
X278825Y248868D02*
X290400D01*
X279725Y247968D02*
X290400D01*
X280625Y247068D02*
X290400D01*
X281525Y246168D02*
X290400D01*
X282425Y245268D02*
X290400D01*
X283325Y244368D02*
X290400D01*
X276743Y270468D02*
X289823D01*
X276992Y271368D02*
X288923D01*
X277392Y272268D02*
X288023D01*
X277979Y273168D02*
X287123D01*
X278809Y274068D02*
X286223D01*
X279526Y274968D02*
X285323D01*
X280027Y275868D02*
X284423D01*
X276616Y263268D02*
X283564D01*
X276616Y253368D02*
X283564D01*
X280363Y276768D02*
X283523D01*
X276616Y265968D02*
X283426D01*
X276616Y256068D02*
X283426D01*
X276616Y264168D02*
X283068D01*
X276616Y254268D02*
X283068D01*
X276616Y265068D02*
X283032D01*
X276616Y255168D02*
X283032D01*
X280559Y277668D02*
X282623D01*
X280638Y278568D02*
X281723D01*
X223272Y185868D02*
X230805D01*
X222399Y184968D02*
X230805D01*
X221030Y184068D02*
X230805D01*
X204188Y183168D02*
X230805D01*
X204188Y182268D02*
X230805D01*
X204188Y181368D02*
X230805D01*
X204188Y180468D02*
X230805D01*
X204188Y179568D02*
X230805D01*
X204188Y178668D02*
X230805D01*
X219133Y177768D02*
X230805D01*
X220208Y176868D02*
X230805D01*
X220493Y175968D02*
X230805D01*
X220368Y175068D02*
X230805D01*
X219722Y174168D02*
X230805D01*
X207967Y173268D02*
X230805D01*
X226597Y172368D02*
X230805D01*
X229201Y171468D02*
X230805D01*
X223878Y186768D02*
X230118D01*
X224297Y187668D02*
X229218D01*
X224565Y188568D02*
X228318D01*
X224700Y189468D02*
X227418D01*
X207967Y159768D02*
X226640D01*
X224712Y190368D02*
X226518D01*
X207967Y158868D02*
X225865D01*
X224706Y191268D02*
X225618D01*
X207967Y172368D02*
X225371D01*
X207931Y157968D02*
X224965D01*
X205072Y284868D02*
X224718D01*
X211323Y270468D02*
X224400D01*
X212188Y269568D02*
X224400D01*
X212627Y268668D02*
X224400D01*
X212714Y267768D02*
X224400D01*
X212714Y266868D02*
X224400D01*
X212714Y265968D02*
X224400D01*
X212714Y265068D02*
X224400D01*
X212727Y264168D02*
X224400D01*
X213532Y263268D02*
X224400D01*
X214818Y262368D02*
X224400D01*
X219482Y261468D02*
X224400D01*
X221676Y260568D02*
X224400D01*
X222793Y259668D02*
X224400D01*
X223105Y250668D02*
X224400D01*
X222153Y249768D02*
X224400D01*
X220583Y248868D02*
X224380D01*
X210423Y271368D02*
X224322D01*
X223555Y258768D02*
X224245D01*
X207967Y160668D02*
X224073D01*
X207600Y157068D02*
X224065D01*
X209523Y272268D02*
X223987D01*
X204760Y247968D02*
X223567D01*
X208623Y273168D02*
X223277D01*
X205597Y283968D02*
X223213D01*
X206822Y156168D02*
X223165D01*
X207967Y171468D02*
X222767D01*
X203162Y247068D02*
X222667D01*
X207967Y161568D02*
X222362D01*
X206729Y155268D02*
X222265D01*
X207690Y274068D02*
X222045D01*
X205958Y283068D02*
X221923D01*
X196600Y246168D02*
X221767D01*
X207967Y170568D02*
X221660D01*
X207967Y162468D02*
X221405D01*
X206729Y154368D02*
X221365D01*
X204829Y274968D02*
X221198D01*
X206097Y282168D02*
X221118D01*
X207967Y169668D02*
X220941D01*
X196600Y245268D02*
X220867D01*
X207967Y163368D02*
X220769D01*
X203360Y275868D02*
X220629D01*
X206034Y281268D02*
X220575D01*
X207967Y168768D02*
X220457D01*
X207967Y164268D02*
X220345D01*
X196600Y276768D02*
X220255D01*
X205761Y280368D02*
X220221D01*
X207967Y167868D02*
X220150D01*
X207967Y165168D02*
X220086D01*
X196600Y277668D02*
X220039D01*
X205225Y279468D02*
X220022D01*
X207967Y166968D02*
X219992D01*
X207967Y166068D02*
X219971D01*
X204338Y244368D02*
X219967D01*
X204243Y278568D02*
X219963D01*
X209818Y243468D02*
X219067D01*
X211109Y242568D02*
X218167D01*
X204851Y177768D02*
X217667D01*
X212009Y241668D02*
X217267D01*
X207899Y174168D02*
X217078D01*
X205751Y176868D02*
X216592D01*
X207496Y175068D02*
X216432D01*
X212909Y240768D02*
X216426D01*
X206651Y175968D02*
X216307D01*
X207428Y153468D02*
X216194D01*
X213809Y239868D02*
X216028D01*
X214709Y238968D02*
X215963D01*
X207690Y152568D02*
X215932D01*
X207690Y151668D02*
X215932D01*
X207690Y150768D02*
X215932D01*
X207690Y149868D02*
X215932D01*
X207690Y148968D02*
X215932D01*
X207690Y148068D02*
X215932D01*
X205502Y248868D02*
X215637D01*
X207690Y147168D02*
X215567D01*
X204188Y184068D02*
X215190D01*
X207690Y146268D02*
X214741D01*
X205911Y249768D02*
X214067D01*
X207690Y145368D02*
X213835D01*
X204188Y184968D02*
X213821D01*
X206087Y250668D02*
X213115D01*
X204188Y185868D02*
X212948D01*
X206060Y251568D02*
X212459D01*
X204188Y186768D02*
X212342D01*
X205828Y252468D02*
X212002D01*
X204188Y187668D02*
X211923D01*
X203256Y192168D02*
X211715D01*
X205347Y253368D02*
X211703D01*
X204076Y188568D02*
X211655D01*
X203830Y191268D02*
X211621D01*
X204476Y254268D02*
X211539D01*
X203967Y189468D02*
X211520D01*
X203967Y190368D02*
X211508D01*
X196600Y255168D02*
X211500D01*
X196600Y256068D02*
X211449D01*
X198281Y193068D02*
X211339D01*
X196600Y256968D02*
X211269D01*
X196600Y257868D02*
X210948D01*
X198357Y193968D02*
X210664D01*
X206075Y258768D02*
X210462D01*
X208909Y194868D02*
X210411D01*
X196600Y235368D02*
X210400D01*
X205996Y234468D02*
X210400D01*
X206100Y233568D02*
X210400D01*
X206100Y232668D02*
X210400D01*
X206100Y231768D02*
X210400D01*
X206100Y230868D02*
X210400D01*
X206100Y229968D02*
X210400D01*
X206100Y229068D02*
X210400D01*
X206100Y228168D02*
X210400D01*
X205821Y227268D02*
X210400D01*
X190440Y226368D02*
X210400D01*
X189540Y225468D02*
X210400D01*
X188523Y224568D02*
X210400D01*
X183919Y223668D02*
X210400D01*
X206535Y222768D02*
X210400D01*
X207062Y221868D02*
X210400D01*
X207062Y220968D02*
X210400D01*
X207062Y220068D02*
X210400D01*
X207093Y219168D02*
X210400D01*
X207928Y218268D02*
X210400D01*
X208787Y217368D02*
X210400D01*
X209062Y216468D02*
X210400D01*
X209062Y215568D02*
X210400D01*
X209062Y214668D02*
X210400D01*
X209062Y213768D02*
X210400D01*
X209062Y212868D02*
X210400D01*
X209062Y211968D02*
X210400D01*
X209062Y211068D02*
X210400D01*
X209062Y210168D02*
X210400D01*
X208910Y209268D02*
X210400D01*
X208143Y208368D02*
X210400D01*
X207243Y207468D02*
X210400D01*
X206391Y206568D02*
X210400D01*
X208496Y205668D02*
X210400D01*
X208967Y204768D02*
X210400D01*
X208967Y203868D02*
X210400D01*
X208967Y202968D02*
X210400D01*
X208967Y202068D02*
X210400D01*
X208966Y201168D02*
X210400D01*
X208475Y200268D02*
X210400D01*
X208787Y199368D02*
X210400D01*
X208967Y198468D02*
X210400D01*
X208967Y197568D02*
X210400D01*
X208967Y196668D02*
X210400D01*
X208967Y195768D02*
X210400D01*
X196600Y236268D02*
X210055D01*
X206100Y259668D02*
X209760D01*
X207609Y144468D02*
X209590D01*
X203458Y237168D02*
X209155D01*
X206100Y260568D02*
X208865D01*
X198088Y143568D02*
X208690D01*
X204866Y238068D02*
X208255D01*
X206100Y261468D02*
X208010D01*
X198088Y142668D02*
X207790D01*
X206100Y262368D02*
X207591D01*
X205523Y265968D02*
X207514D01*
X206098Y265068D02*
X207514D01*
X206100Y264168D02*
X207514D01*
X206100Y263268D02*
X207514D01*
X196600Y266868D02*
X207490D01*
X198088Y141768D02*
X206890D01*
X196600Y267768D02*
X206669D01*
X204389Y268668D02*
X205769D01*
X198082Y140868D02*
X205477D01*
X197409Y139968D02*
X205380D01*
X202307Y200268D02*
X203076D01*
X201433Y199368D02*
X203010D01*
X199249Y194868D02*
X202889D01*
X200658Y198468D02*
X202830D01*
X200022Y197568D02*
X202830D01*
X199706Y196668D02*
X202830D01*
X199620Y195768D02*
X202830D01*
X190695Y139068D02*
X202032D01*
X200472Y222768D02*
X201728D01*
X190867Y138168D02*
X201132D01*
X196600Y247068D02*
X200838D01*
X198088Y144468D02*
X200649D01*
X196600Y275868D02*
X200640D01*
X197746Y148068D02*
X200568D01*
X197726Y147168D02*
X200568D01*
X197726Y146268D02*
X200568D01*
X197955Y145368D02*
X200568D01*
X196600Y237168D02*
X200542D01*
X198047Y137268D02*
X200232D01*
X198462Y192168D02*
X199919D01*
X196600Y278568D02*
X199757D01*
X196600Y244368D02*
X199662D01*
X196600Y268668D02*
X199611D01*
X196600Y254268D02*
X199524D01*
X196600Y247968D02*
X199240D01*
X196600Y274968D02*
X199171D01*
X196600Y238068D02*
X199134D01*
X196600Y279468D02*
X198775D01*
X196600Y243468D02*
X198726D01*
X196600Y269568D02*
X198699D01*
X196600Y253368D02*
X198653D01*
X196600Y248868D02*
X198498D01*
X196600Y265968D02*
X198477D01*
X196600Y274068D02*
X198460D01*
X196600Y238968D02*
X198439D01*
X196600Y280368D02*
X198239D01*
X196600Y242568D02*
X198212D01*
X196600Y270468D02*
X198197D01*
X191340Y227268D02*
X198179D01*
X196600Y252468D02*
X198172D01*
X196600Y249768D02*
X198089D01*
X196600Y273168D02*
X198070D01*
X196600Y239868D02*
X198059D01*
X196600Y234468D02*
X198004D01*
X196600Y241668D02*
X197955D01*
X196600Y271368D02*
X197949D01*
X196600Y251568D02*
X197940D01*
X196600Y258768D02*
X197925D01*
X196600Y250668D02*
X197913D01*
X196600Y272268D02*
X197909D01*
X196600Y240768D02*
X197907D01*
X196600Y265068D02*
X197902D01*
X196600Y264168D02*
X197900D01*
X196600Y263268D02*
X197900D01*
X196600Y262368D02*
X197900D01*
X196600Y261468D02*
X197900D01*
X196600Y260568D02*
X197900D01*
X196600Y259668D02*
X197900D01*
X196600Y233568D02*
X197900D01*
X196512Y232668D02*
X197900D01*
X195840Y231768D02*
X197900D01*
X194940Y230868D02*
X197900D01*
X194040Y229968D02*
X197900D01*
X193140Y229068D02*
X197900D01*
X192240Y228168D02*
X197900D01*
X197167Y281268D02*
X197889D01*
X194562Y216468D02*
X196463D01*
X194562Y215568D02*
X196209D01*
X191924Y222768D02*
X195665D01*
X194445Y217368D02*
X195251D01*
X192653Y221868D02*
X195138D01*
X192662Y220968D02*
X195138D01*
X192662Y220068D02*
X195138D01*
X192739Y219168D02*
X195138D01*
X193526Y218268D02*
X195138D01*
X191346Y139968D02*
X192906D01*
X185861Y222768D02*
X187539D01*
X177255Y171468D02*
X202767D01*
X176160Y170568D02*
X202767D01*
X178043Y172368D02*
X202761D01*
X178628Y173268D02*
X201997D01*
X179060Y174168D02*
X201097D01*
X197741Y169668D02*
X200435D01*
X179363Y175068D02*
X200197D01*
X198653Y168768D02*
X199522D01*
X179553Y175968D02*
X199388D01*
X179638Y176868D02*
X199034D01*
X177802Y182268D02*
X198988D01*
X178449Y181368D02*
X198988D01*
X178929Y180468D02*
X198988D01*
X179274Y179568D02*
X198988D01*
X179501Y178668D02*
X198988D01*
X179621Y177768D02*
X198988D01*
X197895Y183168D02*
X198956D01*
X192741Y169668D02*
X195435D01*
X192895Y183168D02*
X195281D01*
X193653Y168768D02*
X194522D01*
X193722Y184068D02*
X194454D01*
X187741Y169668D02*
X190435D01*
X187895Y183168D02*
X190281D01*
X165053Y193068D02*
X189895D01*
X165051Y193968D02*
X189818D01*
X188256Y192168D02*
X189714D01*
X188653Y168768D02*
X189522D01*
X188722Y184068D02*
X189454D01*
X185291Y194868D02*
X188927D01*
X185352Y195768D02*
X188556D01*
X185352Y196668D02*
X188470D01*
X185352Y197568D02*
X188154D01*
X185352Y198468D02*
X187518D01*
X185176Y199368D02*
X186743D01*
X185109Y200268D02*
X185912D01*
X174415Y169668D02*
X185435D01*
X176927Y183168D02*
X185281D01*
X183376Y239868D02*
X185260D01*
X182476Y238968D02*
X184942D01*
X165053Y192168D02*
X184919D01*
X159100Y168768D02*
X184522D01*
X175677Y184068D02*
X184472D01*
X177674Y191268D02*
X184346D01*
X159100Y167868D02*
X184225D01*
X173373Y184968D02*
X184216D01*
X178068Y190368D02*
X184208D01*
X178032Y189468D02*
X184208D01*
X177536Y188568D02*
X184208D01*
X165053Y187668D02*
X184208D01*
X165053Y186768D02*
X184208D01*
X165041Y185868D02*
X184208D01*
X159100Y166968D02*
X184208D01*
X159695Y166068D02*
X184208D01*
X160595Y165168D02*
X184208D01*
X161495Y164268D02*
X184208D01*
X181576Y238068D02*
X184042D01*
X180676Y237168D02*
X183142D01*
X179776Y236268D02*
X182242D01*
X178876Y235368D02*
X181519D01*
X177976Y234468D02*
X181400D01*
X177076Y233568D02*
X181400D01*
X163431Y232668D02*
X181400D01*
X163100Y231768D02*
X181400D01*
X163111Y230868D02*
X181400D01*
X173960Y229968D02*
X181400D01*
X174864Y229068D02*
X181105D01*
X175099Y228168D02*
X180205D01*
X175274Y200268D02*
X179712D01*
X175253Y199368D02*
X179391D01*
X174928Y227268D02*
X179305D01*
X164475Y194868D02*
X179276D01*
X175274Y201168D02*
X179217D01*
X175436Y202968D02*
X179215D01*
X175259Y202068D02*
X179215D01*
X175274Y198468D02*
X179215D01*
X175195Y197568D02*
X179215D01*
X175274Y196668D02*
X179215D01*
X175164Y195768D02*
X179215D01*
X174188Y226368D02*
X178405D01*
X165053Y225468D02*
X177505D01*
X165053Y224568D02*
X176605D01*
X165053Y223668D02*
X175705D01*
X165053Y222768D02*
X174805D01*
X165053Y188568D02*
X174464D01*
X165053Y191268D02*
X174326D01*
X165053Y189468D02*
X173968D01*
X165053Y190368D02*
X173932D01*
X165053Y221868D02*
X173905D01*
X164916Y220968D02*
X173005D01*
X164879Y229968D02*
X172040D01*
X165053Y226368D02*
X171812D01*
X165053Y229068D02*
X171136D01*
X165053Y227268D02*
X171072D01*
X165053Y228168D02*
X170901D01*
X101832Y127368D02*
X170611D01*
X164254Y184968D02*
X169934D01*
X101832Y128268D02*
X169799D01*
X159100Y169668D02*
X168892D01*
X159100Y184068D02*
X167630D01*
X101832Y126468D02*
X167326D01*
X159100Y170568D02*
X167147D01*
X159100Y183168D02*
X166381D01*
X159100Y171468D02*
X166052D01*
X141118Y220068D02*
X165690D01*
X159100Y182268D02*
X165505D01*
X139690Y195768D02*
X165310D01*
X161991Y205668D02*
X165295D01*
X161701Y213768D02*
X165292D01*
X139721Y197568D02*
X165279D01*
X162022Y215568D02*
X165279D01*
X161769Y203868D02*
X165267D01*
X159100Y172368D02*
X165264D01*
X160215Y207468D02*
X165246D01*
X160733Y211968D02*
X165236D01*
X139779Y217368D02*
X165221D01*
X139779Y199368D02*
X165221D01*
X139785Y202068D02*
X165215D01*
X161968Y209268D02*
X165206D01*
X162093Y210168D02*
X165203D01*
X140889Y219168D02*
X165200D01*
X139800Y201168D02*
X165200D01*
X140078Y218268D02*
X165200D01*
X161502Y216468D02*
X165200D01*
X162074Y214668D02*
X165200D01*
X160376Y212868D02*
X165200D01*
X161808Y211068D02*
X165200D01*
X161322Y208368D02*
X165200D01*
X161397Y206568D02*
X165200D01*
X162087Y204768D02*
X165200D01*
X160530Y202968D02*
X165200D01*
X139800Y200268D02*
X165200D01*
X139800Y198468D02*
X165200D01*
X139800Y196668D02*
X165200D01*
X159100Y181368D02*
X164858D01*
X159100Y173268D02*
X164679D01*
X159100Y180468D02*
X164378D01*
X159100Y174168D02*
X164247D01*
X159100Y179568D02*
X164034D01*
X159100Y175068D02*
X163944D01*
X159100Y178668D02*
X163806D01*
X159100Y175968D02*
X163754D01*
X159100Y177768D02*
X163687D01*
X159100Y176868D02*
X163669D01*
X162254Y184968D02*
X162746D01*
X160254D02*
X160746D01*
X150215Y207468D02*
X159785D01*
X150376Y212868D02*
X159624D01*
X150530Y202968D02*
X159470D01*
X150733Y211968D02*
X159267D01*
X151322Y208368D02*
X158678D01*
X151397Y206568D02*
X158603D01*
X151502Y216468D02*
X158498D01*
X151701Y213768D02*
X158299D01*
X151769Y203868D02*
X158231D01*
X151808Y211068D02*
X158192D01*
X151968Y209268D02*
X158032D01*
X151991Y205668D02*
X158009D01*
X152022Y215568D02*
X157978D01*
X101832Y129168D02*
X157953D01*
X152074Y214668D02*
X157926D01*
X152087Y204768D02*
X157913D01*
X152093Y210168D02*
X157907D01*
X101832Y130068D02*
X157053D01*
X101832Y130968D02*
X156153D01*
X101832Y131868D02*
X155253D01*
X101832Y132768D02*
X154353D01*
X117624Y133668D02*
X153453D01*
X118055Y134568D02*
X152553D01*
X118047Y135468D02*
X151653D01*
X117593Y136368D02*
X150753D01*
X101699Y137268D02*
X149853D01*
X139754Y207468D02*
X149785D01*
X139800Y212868D02*
X149624D01*
X139800Y202968D02*
X149470D01*
X139764Y211968D02*
X149267D01*
X101179Y138168D02*
X148953D01*
X139800Y208368D02*
X148678D01*
X139800Y206568D02*
X148603D01*
X139800Y216468D02*
X148498D01*
X139708Y213768D02*
X148299D01*
X139733Y203868D02*
X148231D01*
X139800Y211068D02*
X148192D01*
X100286Y139068D02*
X148053D01*
X139794Y209268D02*
X148032D01*
X139705Y205668D02*
X148009D01*
X139721Y215568D02*
X147978D01*
X139800Y214668D02*
X147926D01*
X139800Y204768D02*
X147913D01*
X139797Y210168D02*
X147907D01*
X99386Y139968D02*
X147153D01*
X98486Y140868D02*
X146253D01*
X97832Y141768D02*
X145353D01*
X115963Y142668D02*
X144453D01*
X116676Y143568D02*
X143553D01*
X116684Y144468D02*
X142653D01*
X127244Y145368D02*
X141986D01*
X127328Y184068D02*
X141900D01*
X127327Y183168D02*
X141900D01*
X126779Y182268D02*
X141900D01*
X137593Y181368D02*
X141900D01*
X138047Y180468D02*
X141900D01*
X138055Y179568D02*
X141900D01*
X137624Y178668D02*
X141900D01*
X100328Y177768D02*
X141900D01*
X100328Y176868D02*
X141900D01*
X116733Y175968D02*
X141900D01*
X117808Y175068D02*
X141900D01*
X118093Y174168D02*
X141900D01*
X117968Y173268D02*
X141900D01*
X117322Y172368D02*
X141900D01*
X100328Y171468D02*
X141900D01*
X100328Y170568D02*
X141900D01*
X100328Y169668D02*
X141900D01*
X100328Y168768D02*
X141900D01*
X100328Y167868D02*
X141900D01*
X100328Y166968D02*
X141900D01*
X100328Y166068D02*
X141900D01*
X100328Y165168D02*
X141900D01*
X100328Y164268D02*
X141900D01*
X100328Y163368D02*
X141900D01*
X100328Y162468D02*
X141900D01*
X100328Y161568D02*
X141900D01*
X100328Y160668D02*
X141900D01*
X100328Y159768D02*
X141900D01*
X100451Y158868D02*
X141900D01*
X139699Y157968D02*
X141900D01*
X140371Y157068D02*
X141900D01*
X140595Y156168D02*
X141900D01*
X140495Y155268D02*
X141900D01*
X140024Y154368D02*
X141900D01*
X138591Y153468D02*
X141900D01*
X126748Y152568D02*
X141900D01*
X128022Y151668D02*
X141900D01*
X128704Y150768D02*
X141900D01*
X129070Y149868D02*
X141900D01*
X129206Y148968D02*
X141900D01*
X129138Y148068D02*
X141900D01*
X128854Y147168D02*
X141900D01*
X128294Y146268D02*
X141900D01*
X127328Y184968D02*
X140746D01*
X115328Y194868D02*
X140525D01*
X127328Y185868D02*
X139959D01*
X115328Y193968D02*
X139949D01*
X115328Y193068D02*
X139947D01*
X115328Y192168D02*
X139947D01*
X115328Y191268D02*
X139947D01*
X115392Y190368D02*
X139947D01*
X127300Y189468D02*
X139947D01*
X127328Y188568D02*
X139947D01*
X127328Y187668D02*
X139947D01*
X127328Y186768D02*
X139947D01*
X100328Y181368D02*
X134407D01*
X100328Y178668D02*
X134376D01*
X100328Y180468D02*
X133953D01*
X100328Y179568D02*
X133945D01*
X115328Y195768D02*
X129836D01*
X112321Y205668D02*
X129821D01*
X115328Y197568D02*
X129805D01*
X121700Y203868D02*
X129793D01*
X121357Y207468D02*
X129772D01*
X115311Y199368D02*
X129747D01*
X121769Y202068D02*
X129741D01*
X128188Y209268D02*
X129732D01*
X121769Y201168D02*
X129726D01*
X121769Y208368D02*
X129726D01*
X112321Y206568D02*
X129726D01*
X112321Y204768D02*
X129726D01*
X121769Y202968D02*
X129726D01*
X121604Y200268D02*
X129726D01*
X115328Y198468D02*
X129726D01*
X115328Y196668D02*
X129726D01*
X128981Y210168D02*
X129611D01*
X121769Y209268D02*
X125812D01*
X121769Y210168D02*
X125072D01*
X121472Y211968D02*
X125056D01*
X121764Y211068D02*
X124901D01*
X100600Y157968D02*
X123378D01*
X116706Y145368D02*
X123150D01*
X101832Y125568D02*
X122734D01*
X100427Y157068D02*
X122469D01*
X118399Y146268D02*
X122100D01*
X101832Y124668D02*
X121692D01*
X99845Y156168D02*
X121569D01*
X119922Y147168D02*
X121540D01*
X101822Y123768D02*
X120792D01*
X94332Y155268D02*
X120669D01*
X101573Y122868D02*
X119892D01*
X116597Y154368D02*
X119769D01*
X114318Y182268D02*
X119678D01*
X115812Y189468D02*
X119157D01*
X115966Y183168D02*
X119130D01*
X116590Y188568D02*
X119128D01*
X117064Y187668D02*
X119128D01*
X117292Y186768D02*
X119128D01*
X117313Y185868D02*
X119128D01*
X117132Y184968D02*
X119128D01*
X116718Y184068D02*
X119128D01*
X100877Y121968D02*
X118992D01*
X116684Y153468D02*
X118869D01*
X108154Y212868D02*
X118166D01*
X99977Y121068D02*
X118092D01*
X116684Y152568D02*
X117969D01*
X109048Y213768D02*
X117272D01*
X99077Y120168D02*
X116992D01*
X109948Y214668D02*
X116372D01*
X98177Y119268D02*
X116092D01*
X100328Y175968D02*
X115267D01*
X97277Y118368D02*
X115192D01*
X111671Y211968D02*
X115100D01*
X112294Y207468D02*
X114863D01*
X100328Y172368D02*
X114678D01*
X112252Y203868D02*
X114520D01*
X112316Y211068D02*
X114456D01*
X112321Y210168D02*
X114451D01*
X112321Y209268D02*
X114451D01*
X112321Y208368D02*
X114451D01*
X112321Y202968D02*
X114451D01*
X112969Y202068D02*
X114451D01*
X101832Y136368D02*
X114407D01*
X101832Y133668D02*
X114376D01*
X96377Y117468D02*
X114292D01*
X100328Y175068D02*
X114192D01*
X100328Y173268D02*
X114032D01*
X101832Y135468D02*
X113953D01*
X101832Y134568D02*
X113945D01*
X100328Y174168D02*
X113907D01*
X95477Y116568D02*
X113392D01*
X110911Y215568D02*
X112573D01*
X94577Y115668D02*
X112480D01*
X104318Y182268D02*
X112138D01*
X105600Y197568D02*
X111128D01*
X105600Y196668D02*
X111128D01*
X105600Y195768D02*
X111128D01*
X105600Y194868D02*
X111128D01*
X105600Y193968D02*
X111128D01*
X105503Y193068D02*
X111128D01*
X105048Y192168D02*
X111128D01*
X104175Y191268D02*
X111128D01*
X103926Y190368D02*
X111064D01*
X101950Y114768D02*
X110850D01*
X101988Y113868D02*
X110812D01*
X101988Y112968D02*
X110812D01*
X101988Y112068D02*
X110812D01*
X101988Y111168D02*
X110812D01*
X102099Y110268D02*
X110701D01*
X105731Y189468D02*
X110645D01*
X105600Y198468D02*
X110630D01*
X105966Y183168D02*
X110491D01*
X106590Y188568D02*
X109867D01*
X106718Y184068D02*
X109739D01*
X105615Y199368D02*
X109730D01*
X107064Y187668D02*
X109392D01*
X107132Y184968D02*
X109324D01*
X107292Y186768D02*
X109165D01*
X107313Y185868D02*
X109144D01*
X105095Y109368D02*
X107705D01*
X105814Y108468D02*
X106986D01*
X100328Y182268D02*
X102138D01*
X97832Y142668D02*
X101269D01*
X94365Y154368D02*
X100635D01*
X97639Y143568D02*
X100555D01*
X97700Y153468D02*
X100547D01*
X97832Y152568D02*
X100547D01*
X97832Y151668D02*
X100547D01*
X97832Y150768D02*
X100547D01*
X97832Y149868D02*
X100547D01*
X97832Y148968D02*
X100547D01*
X97396Y148068D02*
X100547D01*
X72079Y147168D02*
X100547D01*
X72079Y146268D02*
X100547D01*
X72079Y145368D02*
X100547D01*
X72079Y144468D02*
X100547D01*
X92223Y108468D02*
X100007D01*
X91323Y107568D02*
X99979D01*
X93084Y109368D02*
X97497D01*
X93689Y114768D02*
X97464D01*
X93600Y113868D02*
X97426D01*
X93600Y112968D02*
X97426D01*
X93600Y112068D02*
X97426D01*
X93600Y111168D02*
X97426D01*
X93516Y110268D02*
X97426D01*
X72079Y134568D02*
X96632D01*
X83487Y126468D02*
X96632D01*
X83109Y125568D02*
X96632D01*
X83634Y127368D02*
X96632D01*
X72079Y135468D02*
X96527D01*
X82408Y124668D02*
X96223D01*
X94332Y156168D02*
X96155D01*
X72079Y136368D02*
X95632D01*
X94332Y157068D02*
X95424D01*
X80940Y123768D02*
X95323D01*
X90423Y106668D02*
X94884D01*
X72079Y137268D02*
X94732D01*
X89523Y105768D02*
X94670D01*
X88623Y104868D02*
X94670D01*
X87723Y103968D02*
X94670D01*
X87221Y103068D02*
X94670D01*
X87221Y102168D02*
X94670D01*
X87221Y101268D02*
X94670D01*
X86990Y100368D02*
X94670D01*
X73278Y99468D02*
X94670D01*
X73945Y98568D02*
X94670D01*
X72079Y122868D02*
X94423D01*
X72079Y121968D02*
X93523D01*
X72079Y121068D02*
X92623D01*
X72079Y120168D02*
X91723D01*
X72079Y119268D02*
X90823D01*
X72079Y118368D02*
X89923D01*
X87906Y176868D02*
X89132D01*
X87821Y175968D02*
X89132D01*
X87631Y175068D02*
X89132D01*
X87328Y174168D02*
X89132D01*
X86896Y173268D02*
X89132D01*
X86310Y172368D02*
X89132D01*
X85523Y171468D02*
X89132D01*
X84428Y170568D02*
X89132D01*
X82683Y169668D02*
X89132D01*
X72079Y168768D02*
X89132D01*
X72079Y167868D02*
X89132D01*
X80733Y166968D02*
X89132D01*
X81808Y166068D02*
X89132D01*
X82093Y165168D02*
X89132D01*
X81968Y164268D02*
X89132D01*
X81322Y163368D02*
X89132D01*
X72079Y162468D02*
X89132D01*
X72079Y161568D02*
X89132D01*
X72079Y160668D02*
X89132D01*
X72079Y159768D02*
X89132D01*
X72079Y158868D02*
X89132D01*
X81320Y157968D02*
X89132D01*
X82559Y157068D02*
X89132D01*
X83193Y156168D02*
X89132D01*
X83527Y155268D02*
X89132D01*
X83638Y154368D02*
X89100D01*
X72079Y117468D02*
X89033D01*
X87937Y177768D02*
X88921D01*
X86984Y116568D02*
X88526D01*
X87221Y115668D02*
X88400D01*
X87221Y114768D02*
X88400D01*
X87221Y113868D02*
X88400D01*
X87221Y112968D02*
X88400D01*
X87221Y112068D02*
X88381D01*
X72079Y148068D02*
X86068D01*
X72079Y138168D02*
X85954D01*
X72079Y133668D02*
X85903D01*
X83575Y128268D02*
X85865D01*
X72079Y143568D02*
X85826D01*
X83544Y153468D02*
X85765D01*
X83230Y152568D02*
X85632D01*
X82627Y151668D02*
X85632D01*
X81471Y150768D02*
X85632D01*
X72079Y149868D02*
X85632D01*
X72079Y148968D02*
X85632D01*
X72079Y142668D02*
X85632D01*
X72079Y141768D02*
X85632D01*
X72079Y140868D02*
X85632D01*
X72079Y139968D02*
X85632D01*
X72079Y139068D02*
X85632D01*
X72079Y132768D02*
X85632D01*
X72079Y131868D02*
X85632D01*
X81742Y130968D02*
X85632D01*
X82757Y130068D02*
X85632D01*
X83301Y129168D02*
X85632D01*
X79084Y116568D02*
X80758D01*
X79090Y100368D02*
X80753D01*
X79321Y115668D02*
X80521D01*
X79321Y114768D02*
X80521D01*
X79321Y113868D02*
X80521D01*
X79321Y112968D02*
X80521D01*
X79321Y103968D02*
X80521D01*
X79321Y103068D02*
X80521D01*
X79321Y102168D02*
X80521D01*
X79321Y101268D02*
X80521D01*
X72079Y166968D02*
X79267D01*
X72079Y163368D02*
X78678D01*
X72079Y123768D02*
X78312D01*
X72079Y166068D02*
X78192D01*
X72079Y164268D02*
X78032D01*
X72079Y157968D02*
X77932D01*
X72079Y165168D02*
X77907D01*
X72079Y150768D02*
X77781D01*
X72079Y130968D02*
X77510D01*
X72079Y169668D02*
X77160D01*
X72079Y124668D02*
X76844D01*
X72079Y157068D02*
X76693D01*
X72079Y151668D02*
X76625D01*
X72079Y130068D02*
X76495D01*
X72079Y125568D02*
X76143D01*
X72079Y156168D02*
X76059D01*
X72079Y152568D02*
X76022D01*
X72079Y129168D02*
X75950D01*
X72079Y126468D02*
X75765D01*
X72079Y155268D02*
X75725D01*
X72079Y153468D02*
X75708D01*
X72079Y128268D02*
X75677D01*
X72079Y127368D02*
X75618D01*
X72079Y154368D02*
X75614D01*
X72079Y170568D02*
X75414D01*
X72079Y171468D02*
X74320D01*
X72079Y172368D02*
X73532D01*
X72237Y173268D02*
X72921D01*
X72338Y116568D02*
X72820D01*
X127069Y213768D02*
X129818D01*
X127960Y212868D02*
X129726D01*
X127931Y214668D02*
X129721D01*
X128896Y211968D02*
X129556D01*
X136633Y233568D02*
X137889D01*
X117423Y232668D02*
X137889D01*
X117423Y231768D02*
X137889D01*
X117423Y230868D02*
X137889D01*
X117423Y229968D02*
X137889D01*
X117423Y229068D02*
X137889D01*
X123952Y228168D02*
X137889D01*
X124072Y227268D02*
X137889D01*
X136593Y226368D02*
X137889D01*
X136624Y223668D02*
X137889D01*
X123502Y222768D02*
X137889D01*
X109400Y221868D02*
X137889D01*
X123827Y220968D02*
X137889D01*
X124072Y226368D02*
X133407D01*
X124070Y223668D02*
X133376D01*
X131633Y233568D02*
X133013D01*
X124072Y225468D02*
X132953D01*
X124072Y224568D02*
X132945D01*
X124172Y220068D02*
X130216D01*
X124172Y219168D02*
X129726D01*
X126633Y233568D02*
X128013D01*
X124172Y218268D02*
X127381D01*
X124172Y217368D02*
X126105D01*
X124203Y216468D02*
X125205D01*
X121633Y233568D02*
X123013D01*
X117502Y222768D02*
X118898D01*
X117827Y220968D02*
X118773D01*
X109400Y222768D02*
X112898D01*
X109526Y220968D02*
X112773D01*
X109866Y223668D02*
X112095D01*
X113723Y277668D02*
X117852D01*
X113934Y276768D02*
X117641D01*
X114809Y275868D02*
X116766D01*
X115352Y274968D02*
X116223D01*
X110278Y243468D02*
X114368D01*
X110862Y242568D02*
X113783D01*
X111853Y241668D02*
X112792D01*
X105278Y243468D02*
X109368D01*
X105862Y242568D02*
X108783D01*
X106853Y241668D02*
X107792D01*
X100278Y243468D02*
X104368D01*
X100862Y242568D02*
X103783D01*
X101853Y241668D02*
X102792D01*
X137202Y260568D02*
X148300D01*
X137202Y259668D02*
X148300D01*
X146171Y258768D02*
X148300D01*
X147387Y257868D02*
X148208D01*
X137202Y261468D02*
X147869D01*
X137202Y262368D02*
X146969D01*
X137202Y263268D02*
X146069D01*
X137043Y264168D02*
X145169D01*
X136429Y265068D02*
X144269D01*
X137202Y258768D02*
X142648D01*
X137199Y257868D02*
X141432D01*
X136968Y256968D02*
X140803D01*
X136215Y256068D02*
X140470D01*
X101677Y255168D02*
X140357D01*
X101555Y254268D02*
X140296D01*
X100891Y253368D02*
X140021D01*
X99991Y252468D02*
X139468D01*
X136397Y251568D02*
X138597D01*
X136991Y250668D02*
X137960D01*
X136769Y248868D02*
X137889D01*
X135530Y247968D02*
X137889D01*
X120445Y247068D02*
X137889D01*
X121345Y246168D02*
X137889D01*
X122245Y245268D02*
X137889D01*
X123145Y244368D02*
X137889D01*
X124194Y243468D02*
X137889D01*
X135862Y242568D02*
X137889D01*
X136853Y241668D02*
X137884D01*
X86234Y265968D02*
X137107D01*
X86839Y266868D02*
X136163D01*
X87286Y267768D02*
X134853D01*
X130530Y247968D02*
X134470D01*
X130862Y242568D02*
X133783D01*
X131397Y251568D02*
X133603D01*
X131215Y256068D02*
X133430D01*
X131769Y248868D02*
X133231D01*
X131429Y265068D02*
X133216D01*
X131991Y250668D02*
X133009D01*
X131853Y241668D02*
X132792D01*
X132368Y249768D02*
X132632D01*
X132022Y256968D02*
X132624D01*
X125530Y247968D02*
X129470D01*
X125862Y242568D02*
X128783D01*
X126397Y251568D02*
X128603D01*
X126215Y256068D02*
X128430D01*
X126769Y248868D02*
X128231D01*
X126429Y265068D02*
X128216D01*
X126991Y250668D02*
X128009D01*
X123618Y268668D02*
X127957D01*
X126853Y241668D02*
X127792D01*
X127368Y249768D02*
X127632D01*
X127022Y256968D02*
X127624D01*
X124622Y269568D02*
X126953D01*
X125234Y270468D02*
X126341D01*
X119545Y247968D02*
X124470D01*
X99091Y251568D02*
X123603D01*
X121215Y256068D02*
X123430D01*
X118645Y248868D02*
X123231D01*
X121429Y265068D02*
X123216D01*
X98191Y250668D02*
X123009D01*
X97693Y249768D02*
X122913D01*
X122022Y256968D02*
X122624D01*
X116215Y256068D02*
X118430D01*
X116429Y265068D02*
X118216D01*
X113618Y268668D02*
X117957D01*
X117022Y256968D02*
X117624D01*
X114622Y269568D02*
X116953D01*
X115234Y270468D02*
X116341D01*
X111215Y256068D02*
X113430D01*
X111429Y265068D02*
X113216D01*
X112022Y256968D02*
X112624D01*
X84883Y232668D02*
X112223D01*
X84769Y231768D02*
X112223D01*
X84406Y230868D02*
X112223D01*
X83686Y229968D02*
X112223D01*
X81836Y229068D02*
X112223D01*
X109599Y228168D02*
X112166D01*
X106215Y256068D02*
X108430D01*
X106429Y265068D02*
X108216D01*
X106633Y233568D02*
X108013D01*
X87603Y268668D02*
X107957D01*
X85109Y277668D02*
X107852D01*
X85307Y276768D02*
X107641D01*
X107022Y256968D02*
X107624D01*
X87805Y269568D02*
X106953D01*
X89960Y275868D02*
X106766D01*
X87901Y270468D02*
X106341D01*
X90864Y274968D02*
X106224D01*
X87895Y271368D02*
X105969D01*
X91099Y274068D02*
X105904D01*
X90188Y272268D02*
X105782D01*
X90928Y273168D02*
X105761D01*
X102853Y222768D02*
X104195D01*
X89871Y221868D02*
X103698D01*
X101757Y256068D02*
X103430D01*
X101429Y265068D02*
X103216D01*
X101633Y233568D02*
X103013D01*
X89711Y220968D02*
X102798D01*
X102120Y256968D02*
X102578D01*
X89318Y220068D02*
X101898D01*
X88597Y219168D02*
X100998D01*
X87068Y218268D02*
X100098D01*
X93639Y243468D02*
X99368D01*
X79732Y217368D02*
X99198D01*
X93545Y242568D02*
X98783D01*
X89828Y222768D02*
X98747D01*
X79732Y216468D02*
X98298D01*
X85418Y265068D02*
X98216D01*
X84773Y233568D02*
X98013D01*
X72079Y228168D02*
X98003D01*
X89575Y223668D02*
X97941D01*
X72079Y227268D02*
X97928D01*
X72079Y226368D02*
X97928D01*
X88119Y225468D02*
X97928D01*
X89061Y224568D02*
X97928D01*
X84408Y256068D02*
X97889D01*
X93513Y241668D02*
X97792D01*
X84770Y256968D02*
X97678D01*
X84277Y264168D02*
X97602D01*
X84414Y234468D02*
X97532D01*
X93545Y240768D02*
X97468D01*
X89706Y255168D02*
X97458D01*
X84883Y257868D02*
X97447D01*
X82392Y263268D02*
X97443D01*
X72079Y262368D02*
X97443D01*
X81903Y261468D02*
X97443D01*
X83699Y260568D02*
X97443D01*
X84413Y259668D02*
X97443D01*
X84772Y258768D02*
X97443D01*
X93545Y239868D02*
X97443D01*
X93469Y238968D02*
X97443D01*
X90630Y238068D02*
X97443D01*
X90542Y237168D02*
X97443D01*
X90315Y236268D02*
X97443D01*
X89690Y235368D02*
X97443D01*
X87966Y215568D02*
X97398D01*
X90321Y254268D02*
X96558D01*
X88983Y214668D02*
X96498D01*
X90543Y253368D02*
X95658D01*
X89532Y213768D02*
X95598D01*
X90641Y252468D02*
X94758D01*
X89811Y212868D02*
X94698D01*
X89876Y211968D02*
X93798D01*
X89739Y211068D02*
X92931D01*
X89375Y210168D02*
X92489D01*
X88700Y209268D02*
X92400D01*
X87344Y208368D02*
X92400D01*
X79732Y207468D02*
X92400D01*
X79732Y206568D02*
X92400D01*
X87796Y205668D02*
X92400D01*
X88900Y204768D02*
X92400D01*
X89486Y203868D02*
X92400D01*
X89791Y202968D02*
X92400D01*
X89879Y202068D02*
X92092D01*
X89765Y201168D02*
X91192D01*
X86152Y275868D02*
X88040D01*
X79732Y197568D02*
X87528D01*
X79732Y196668D02*
X86692D01*
X83713Y235368D02*
X85751D01*
X83705Y255168D02*
X85735D01*
X83953Y236268D02*
X85126D01*
X83961Y254268D02*
X85120D01*
X79732Y218268D02*
X84585D01*
X79732Y208368D02*
X84309D01*
X79732Y198468D02*
X84082D01*
X79732Y205668D02*
X83857D01*
X79732Y215568D02*
X83687D01*
X78119Y225468D02*
X83534D01*
X79732Y219168D02*
X83056D01*
X79732Y209268D02*
X82953D01*
X79732Y199368D02*
X82857D01*
X79732Y204768D02*
X82754D01*
X79732Y214668D02*
X82670D01*
X79061Y224568D02*
X82592D01*
X79732Y220068D02*
X82335D01*
X79732Y210168D02*
X82278D01*
X79732Y200268D02*
X82225D01*
X79732Y203868D02*
X82167D01*
X79732Y213768D02*
X82122D01*
X79575Y223668D02*
X82079D01*
X79732Y195768D02*
X82017D01*
X79732Y220968D02*
X81943D01*
X79740Y211068D02*
X81915D01*
X79765Y201168D02*
X81889D01*
X79791Y202968D02*
X81862D01*
X79811Y212868D02*
X81843D01*
X79828Y222768D02*
X81825D01*
X79871Y221868D02*
X81782D01*
X79876Y211968D02*
X81777D01*
X79879Y202068D02*
X81774D01*
X79732Y194868D02*
X81774D01*
X79732Y193968D02*
X81774D01*
X79769Y193068D02*
X81774D01*
X79879Y192168D02*
X81774D01*
X80362Y191268D02*
X81774D01*
X72079Y263268D02*
X77450D01*
X72079Y229068D02*
X76676D01*
X72079Y261468D02*
X76609D01*
X72079Y264168D02*
X75566D01*
X72079Y229968D02*
X74826D01*
X72079Y260568D02*
X74813D01*
X72079Y255168D02*
X74807D01*
X72079Y235368D02*
X74799D01*
X72079Y245268D02*
X74754D01*
X72079Y236268D02*
X74559D01*
X72079Y254268D02*
X74551D01*
X72079Y265068D02*
X74424D01*
X72079Y246168D02*
X74420D01*
X72079Y244368D02*
X74418D01*
X72079Y253368D02*
X74416D01*
X72079Y252468D02*
X74416D01*
X72079Y251568D02*
X74416D01*
X72079Y250668D02*
X74416D01*
X72079Y249768D02*
X74416D01*
X72079Y248868D02*
X74416D01*
X72079Y247968D02*
X74416D01*
X72079Y247068D02*
X74416D01*
X72079Y243468D02*
X74416D01*
X72079Y242568D02*
X74416D01*
X72079Y241668D02*
X74416D01*
X72079Y240768D02*
X74416D01*
X72079Y239868D02*
X74416D01*
X72079Y238968D02*
X74416D01*
X72079Y238068D02*
X74416D01*
X72079Y237168D02*
X74416D01*
X72079Y230868D02*
X74106D01*
X72079Y256068D02*
X74104D01*
X72079Y259668D02*
X74099D01*
X72079Y234468D02*
X74097D01*
X72079Y231768D02*
X73743D01*
X72079Y256968D02*
X73742D01*
X72079Y258768D02*
X73740D01*
X72079Y233568D02*
X73739D01*
X72079Y232668D02*
X73628D01*
X72079Y257868D02*
X73628D01*
X72079Y265968D02*
X73609D01*
X72079Y225468D02*
X73534D01*
X72154Y266868D02*
X73004D01*
X86003Y281268D02*
X105681D01*
X85103Y282168D02*
X105277D01*
X84203Y283068D02*
X104377D01*
X83303Y283968D02*
X103477D01*
X91460Y292068D02*
X103440D01*
X93376Y291168D02*
X101524D01*
X93926Y284868D02*
X100974D01*
X94067Y290268D02*
X100833D01*
X94074Y289368D02*
X100826D01*
X94074Y288468D02*
X100826D01*
X94074Y287568D02*
X100826D01*
X94074Y286668D02*
X100826D01*
X94074Y285768D02*
X100826D01*
X96339Y292968D02*
X98561D01*
X96830Y293868D02*
X98070D01*
X96830Y301068D02*
X98070D01*
X96830Y300168D02*
X98070D01*
X96830Y299268D02*
X98070D01*
X96830Y298368D02*
X98070D01*
X96830Y297468D02*
X98070D01*
X96830Y296568D02*
X98070D01*
X96830Y295668D02*
X98070D01*
X96830Y294768D02*
X98070D01*
X96849Y301968D02*
X98051D01*
X82403Y284868D02*
X89660D01*
X87612Y288468D02*
X89512D01*
X87800Y287568D02*
X89512D01*
X87582Y286668D02*
X89512D01*
X86727Y285768D02*
X89512D01*
X87101Y289368D02*
X89509D01*
X83441Y290268D02*
X86544D01*
X84356Y291168D02*
X85844D01*
X81503Y285768D02*
X84673D01*
X80691Y289368D02*
X84567D01*
X80703Y286668D02*
X83818D01*
X80688Y288468D02*
X83788D01*
X80688Y287568D02*
X83600D01*
X123669Y286668D02*
X125785D01*
X123988Y287568D02*
X125312D01*
X122430Y285768D02*
X125166D01*
X118626Y284868D02*
X125100D01*
X108003Y283968D02*
X125100D01*
X108903Y283068D02*
X124505D01*
X118767Y290268D02*
X122274D01*
X118076Y291168D02*
X121959D01*
X116160Y292068D02*
X121608D01*
X118774Y285768D02*
X121370D01*
X118774Y289368D02*
X120503D01*
X118774Y286668D02*
X120131D01*
X118774Y288468D02*
X119909D01*
X118774Y287568D02*
X119813D01*
X107103Y284868D02*
X114360D01*
X112512Y288468D02*
X114212D01*
X112700Y287568D02*
X114212D01*
X112482Y286668D02*
X114212D01*
X111627Y285768D02*
X114212D01*
X112049Y289368D02*
X114209D01*
X108141Y290268D02*
X111224D01*
X109056Y291168D02*
X110544D01*
X106203Y285768D02*
X109573D01*
X105391Y289368D02*
X109467D01*
X105403Y286668D02*
X108718D01*
X105388Y288468D02*
X108688D01*
X105388Y287568D02*
X108500D01*
X229884Y153534D02*
X231180Y152237D01*
X234983Y153534D02*
X233686Y152237D01*
X234983Y148041D02*
X233686Y149338D01*
X229884Y148041D02*
X231180Y149338D01*
X70079Y99606D02*
Y300394D01*
X74016Y304331*
X322047*
X329921Y296457*
Y253150*
X339764Y243307*
Y115354*
X329921Y105512*
Y97638*
X327953Y95669*
X74016*
X70079Y99606*
X135039Y294488D02*
G03X135039I-5905J0D01*
G01Y105512D02*
G03X135039I-5905J0D01*
G01X335827Y127165D02*
G03X335827I-5906J0D01*
G01Y233465D02*
G03X335827I-5906J0D01*
G01X190000Y200000D02*
X210000D01*
X200000Y210000D02*
Y190000D01*
G54D12*
X79626Y127559D03*
Y154331D03*
G54D13*
X91732Y130945D03*
Y140945D03*
Y150945D03*
G54D14*
X108662Y209646D03*
Y205906D03*
Y202166D03*
X118110D03*
Y209646D03*
G54D15*
X75971Y113386D03*
X83871D03*
X75971Y103543D03*
X83871D03*
G54D16*
X174409Y255118D03*
X85827Y192126D03*
X188189Y282677D03*
X319921Y294331D03*
Y105669D03*
X249921Y105512D03*
X234921Y294331D03*
G54D17*
X174409Y245118D03*
X164409Y255118D03*
Y245118D03*
X154409Y255118D03*
Y245118D03*
X144409Y255118D03*
Y245118D03*
X75827Y192126D03*
X85827Y202126D03*
X75827D03*
X85827Y212126D03*
X75827D03*
X85827Y222126D03*
X75827D03*
X188189Y272677D03*
Y262677D03*
Y252677D03*
Y242677D03*
Y232677D03*
X309921Y294331D03*
X299921D03*
X289921D03*
X279921D03*
X269921D03*
X259921D03*
X249921D03*
X309921Y105669D03*
X299921D03*
X289921D03*
X279921D03*
X269921D03*
X239921Y105512D03*
X229921D03*
X219921D03*
X209921D03*
X199921D03*
X189921D03*
X179921D03*
X198025Y201562D03*
X190151D03*
X224921Y294331D03*
X214921D03*
X204921D03*
X194921D03*
X184921D03*
X174921D03*
X164921D03*
X154921D03*
X144921D03*
G54D18*
X87720Y253150D03*
Y237402D03*
G54D19*
X89787Y250394D03*
Y247835D03*
Y245276D03*
Y242717D03*
Y240157D03*
G54D20*
X79256Y250000D03*
Y240551D03*
G54D21*
Y232676D03*
Y257872D03*
G54D22*
X157169Y283200D03*
X163232D03*
X269731Y127700D03*
X263668D03*
X232402Y119291D03*
X238465D03*
X176131Y115900D03*
X170068D03*
X175931Y123700D03*
X169868D03*
X136631Y283300D03*
X130568D03*
X143869Y283200D03*
X149932D03*
X198069Y212500D03*
X204132D03*
X183569D03*
X189632D03*
X189094Y119291D03*
X195157D03*
X232402Y127165D03*
X238465D03*
X189094D03*
X195157D03*
X189094Y135039D03*
X195157D03*
X232402D03*
X238465D03*
X232402Y142913D03*
X238465D03*
X189732Y219800D03*
X183669D03*
X189094Y142913D03*
X195157D03*
X204132Y219900D03*
X198069D03*
G54D23*
X155000Y274000D03*
X161000D03*
X269400Y119400D03*
X263400D03*
X115300Y218200D03*
X121300D03*
X232433Y150787D03*
X238433D03*
X210874Y119291D03*
X204874D03*
X189126Y150787D03*
X195126D03*
X254181Y119291D03*
X248181D03*
X100800Y225800D03*
X106800D03*
X115200Y225700D03*
X121200D03*
G54D24*
X171653Y270866D03*
X171654Y177165D03*
X79921D03*
Y270866D03*
G54D25*
X110787Y272835D03*
X120787D03*
X130787D03*
X140787D03*
G54D26*
X202000Y231000D03*
Y262000D03*
X123228Y186220D03*
X280709Y123228D03*
G54D27*
X202000Y241000D03*
Y251000D03*
Y272000D03*
Y282000D03*
X113228Y186220D03*
X103228D03*
X280709Y133228D03*
Y143228D03*
G54D28*
X247441Y128150D03*
X254921D03*
X251181Y137992D03*
X204134Y128150D03*
X211614D03*
X207874Y137992D03*
G54D29*
X310236Y237402D03*
Y257087D03*
Y276772D03*
X274016Y166378D03*
Y213622D03*
X218110Y190000D03*
X310236Y125197D03*
Y144882D03*
X274016Y231378D03*
Y278622D03*
X218110Y255000D03*
X310236Y174409D03*
Y194094D03*
Y213780D03*
G54D30*
X225984Y213622D03*
Y166378D03*
Y278622D03*
Y231378D03*
G54D31*
X262800Y148819D03*
X247436D03*
X219493D03*
X204129D03*
G54D32*
X201588Y187814D03*
X196588D03*
X191588D03*
X186588D03*
Y164929D03*
X191588D03*
X196588D03*
X201588D03*
X99823Y237770D03*
X104823D03*
X109823D03*
X114823D03*
X119823D03*
X124823D03*
X129823D03*
X134823D03*
Y260655D03*
X129823D03*
X124823D03*
X119823D03*
X114823D03*
X109823D03*
X104823D03*
X99823D03*
G54D33*
X154725Y148819D03*
X125197D03*
G54D34*
X170237Y196700D03*
Y198700D03*
Y200700D03*
Y202700D03*
Y204700D03*
Y206700D03*
Y208700D03*
Y210700D03*
Y212700D03*
Y214700D03*
Y216700D03*
Y218700D03*
X134763D03*
Y216700D03*
Y214700D03*
Y212700D03*
Y210700D03*
Y208700D03*
Y206700D03*
Y204700D03*
Y202700D03*
Y200700D03*
Y198700D03*
Y196700D03*
G54D35*
X163500Y225437D03*
X161500D03*
X159500D03*
X157500D03*
X155500D03*
X153500D03*
X151500D03*
X149500D03*
X147500D03*
X145500D03*
X143500D03*
X141500D03*
Y189963D03*
X143500D03*
X145500D03*
X147500D03*
X149500D03*
X151500D03*
X153500D03*
X155500D03*
X157500D03*
X159500D03*
X161500D03*
X163500D03*
G54D36*
X205899Y196993D03*
Y202993D03*
X182283Y197000D03*
Y203000D03*
G54D37*
X153846Y107200D03*
X147154D03*
X109746Y107000D03*
X103054D03*
X81754Y292900D03*
X88446D03*
X106454D03*
X113146D03*
G54D38*
X157193Y112318D03*
X143807D03*
X113093Y112118D03*
X99707D03*
X78407Y287782D03*
X91793D03*
X103107D03*
X116493D03*
G54D39*
X158571Y102082D03*
X142429D03*
X114471Y101882D03*
X98329D03*
X77029Y298018D03*
X93171D03*
X101729D03*
X117871D03*
G54D40*
X108616Y148819D03*
G54D41*
X170676D03*
G54D78*
X205899Y196993D02*
Y196999D01*
X205900Y197000*
G54D85*
X216981Y144831D02*
X218532Y146382D01*
Y147270*
X216981Y144831D02*
G03X218532Y147270I-4702J4703D01*
G01X216981Y144831D02*
X216981D01*
X260288D02*
X261839Y146382D01*
Y147270*
X260288Y144831D02*
G03X261839Y147270I-4702J4703D01*
G01X260288Y144831D02*
X260288D01*
X279619Y142198D02*
G03X277184Y143228I-2435J-2362D01*
G01X279619Y142198D02*
Y144259D01*
X277184Y143228D02*
G03X279619Y144259I-0J3392D01*
G01X277184Y143228D02*
X279619D01*
X277184D02*
X277184D01*
X114084Y152075D02*
G03X117897Y148819I3813J604D01*
G01X114084Y152075D02*
Y145563D01*
X117897Y148819D02*
G03X114084Y145563I-0J-3860D01*
G01Y151819D02*
X114134D01*
X114084Y148819D02*
X117897D01*
X114084Y145819D02*
X114134D01*
X114897Y147388D02*
Y150250D01*
X220454Y151081D02*
G03X222004Y151330I603J1197D01*
G01X220454Y151081D02*
Y148478D01*
X222004Y151330D02*
G03X220454Y148478I4050J-4049D01*
G01X222004Y151330D02*
X222004D01*
X77279Y192085D02*
G03X78241Y189712I3285J-50D01*
G01X77279Y192085D02*
X75867Y190674D01*
X78241Y189712D02*
G03X75867Y190674I-2323J-2323D01*
G01X85867Y193578D02*
G03X88241Y194540I51J3285D01*
G01X85867Y193578D02*
X87279Y192167D01*
X88241Y194540D02*
G03X87279Y192167I2323J-2323D01*
G01X88241Y194540D02*
X88241D01*
X228334Y211136D02*
G03X225984Y205582I5387J-5554D01*
G01X228334Y211136D02*
X223634D01*
X225984Y205582D02*
G03X223634Y211136I-7737J0D01*
G01X225379Y208582D02*
X226589D01*
X225984Y205582D02*
Y211136D01*
X261839Y148478D02*
G03X260288Y151330I-5600J-1197D01*
G01X261839Y148478D02*
Y151081D01*
X260288Y151330D02*
G03X261839Y151081I948J948D01*
G01X260288Y151330D02*
X260288D01*
X260288*
X276772Y210707D02*
G03X274016Y204194I6316J-6513D01*
G01X276772Y210707D02*
X271260D01*
X274016Y204194D02*
G03X271260Y210707I-9072J0D01*
G01X271749Y210194D02*
X276283D01*
X273506Y207194D02*
X274526D01*
X274016Y204194D02*
Y210707D01*
X306226Y125309D02*
G03X303570Y131863I-9071J139D01*
G01X306226Y125309D02*
X310124Y129207D01*
X303570Y131863D02*
G03X310124Y129207I6415J6415D01*
G01X303570Y131863D02*
X303570D01*
X305560Y128863D02*
X309780D01*
X306218Y125863D02*
X306780D01*
X303570Y131863D02*
X303570D01*
X306570Y125653D02*
Y129873D01*
X309570Y128653D02*
Y129216D01*
X203090Y242031D02*
G03X205525Y241000I2435J2361D01*
G01X203090Y242031D02*
Y239969D01*
X205525Y241000D02*
G03X203090Y239969I0J-3392D01*
G01Y241000D02*
X205525D01*
X214137Y190554D02*
G03X213000Y195110I-4361J1332D01*
G01X214137Y190554D02*
X217556Y193973D01*
X213000Y195110D02*
G03X217556Y193973I3224J3224D01*
G01X213000Y195110D02*
X213000D01*
X214330Y192110D02*
X215693D01*
X213000Y195110D02*
X213000D01*
X216000Y192417D02*
Y193780D01*
X203090Y273031D02*
G03X205525Y272000I2435J2361D01*
G01X203090Y273031D02*
Y270969D01*
X205525Y272000D02*
G03X203090Y270969I0J-3392D01*
G01Y272000D02*
X205525D01*
X214100Y255112D02*
G03X211444Y261666I-9072J139D01*
G01X214100Y255112D02*
X217998Y259010D01*
X211444Y261666D02*
G03X217998Y259010I6415J6416D01*
G01X211444Y261666D02*
X211444D01*
X213433Y258666D02*
X217654D01*
X214091Y255666D02*
X214654D01*
X211444Y261666D02*
X211444D01*
X214444Y255456D02*
Y259677D01*
X217444Y258456D02*
Y259019D01*
X229239Y277569D02*
G03X227000Y270646I9581J-6923D01*
G01X229239Y277569D02*
X224380Y275600D01*
X227000Y270646D02*
G03X224380Y275600I-5993J0D01*
G01X226962Y276646D02*
X228636D01*
X226195Y273646D02*
X227387D01*
X227000Y270646D02*
Y276662D01*
X276772Y275707D02*
G03X274016Y269194I6316J-6513D01*
G01X276772Y275707D02*
X271260D01*
X274016Y269194D02*
G03X271260Y275707I-9072J0D01*
G01X271749Y275194D02*
X276283D01*
X273506Y272194D02*
X274526D01*
X274016Y269194D02*
Y275707D01*
X306226Y213892D02*
G03X303570Y220446I-9071J139D01*
G01X306226Y213892D02*
X310124Y217790D01*
X303570Y220446D02*
G03X310124Y217790I6415J6415D01*
G01X303570Y220446D02*
X303570D01*
X305560Y217446D02*
X309780D01*
X306218Y214446D02*
X306780D01*
X303570Y220446D02*
X303570D01*
X306570Y214236D02*
Y218456D01*
X309570Y217236D02*
Y217798D01*
X75971Y103543D02*
X75611D01*
Y104154*
X84232Y112775*
X83871Y103543D02*
Y103793D01*
X91000Y110922*
Y115768*
X99232Y124000*
Y136445*
X83871Y113386D02*
X84232D01*
Y112775*
X263400Y119400D02*
Y127700D01*
X263668*
X91732Y140945D02*
X94732D01*
X99232Y136445*
X207874Y137992D02*
Y139075D01*
X211467Y142667*
X214818*
X219493Y147343*
Y148819*
X251181Y137992D02*
Y139075D01*
X254774Y142667*
X258125*
X262800Y147343*
Y148819*
X263668Y127700D02*
Y131729D01*
X275168Y143228*
X280709*
X108616Y148819D02*
X117897D01*
X125078Y156000*
X138000*
X195126Y150787D02*
Y142913D01*
X195157*
X195126Y150787D02*
Y151256D01*
X204129*
Y148819*
Y157162*
X205367Y158400*
X219493Y148819D02*
X233405Y162731D01*
Y187157*
X238433Y150787D02*
Y151256D01*
X247436*
Y148819*
X238433Y150787D02*
Y142913D01*
X238465*
X75827Y192126D02*
X81339Y186614D01*
X83752*
X91732Y178633*
Y150945*
X75827Y192126D02*
Y202126D01*
X85827Y192126D02*
X95000Y201299D01*
Y209493*
X106800Y221293*
Y225800*
X97728Y188499D02*
Y158272D01*
X98000Y158000*
X97728Y188499D02*
X103000Y193770D01*
Y204850*
X201588Y187814D02*
Y177354D01*
X205367Y173575*
Y158400*
X75827Y222126D02*
Y212126D01*
Y202126*
X103000Y204850D02*
Y211397D01*
X109803Y218200*
X115300*
X225984Y213622D02*
Y202000D01*
X238000Y189984*
Y173619*
X262800Y148819*
X274016Y213622D02*
Y191859D01*
X292000Y173875*
Y143433*
X310236Y125197*
X114823Y237770D02*
Y226077D01*
X115200Y225700*
X202000Y241000D02*
X209000D01*
X213000Y237000*
Y195110*
X218110Y190000*
X218563Y239287D02*
Y202000D01*
X233405Y187157*
X218563Y239287D02*
X227000Y247724D01*
Y277606*
X202000Y272000D02*
X206114D01*
X210114Y268000*
Y262996*
X218110Y255000*
X225984Y278622D02*
X227000Y277606D01*
X274016Y278622D02*
Y250000D01*
X310236Y213780*
G54D86*
X201899Y161843D02*
G03X199185Y159869I4901J-9589D01*
G01X201899Y161843D02*
X201398Y165404D01*
X199185Y159869D02*
G03X201398Y165404I-5347J5347D01*
G01X201353Y164369D02*
X201544D01*
X201027Y162869D02*
X201755D01*
X200348Y161369D02*
X201065D01*
X199185Y159869D02*
X199185D01*
X200685Y161118D02*
Y162006D01*
X100292Y257907D02*
G03X99823Y254917I9287J-2990D01*
G01X100292Y257907D02*
X99353D01*
X99823Y254917D02*
G03X99353Y257907I-9757J-0D01*
G01X99707Y256417D02*
X99939D01*
X99823Y254917D02*
Y257907D01*
X158000Y156000D02*
Y155750D01*
X179121*
X180121Y154750*
X194067*
X201588Y162271*
Y164929*
X89787Y240157D02*
X99823D01*
X89787Y250394D02*
X95300D01*
X99823Y254917*
Y260655*
X114349Y276396D02*
X113571Y275619D01*
X107226Y276396D02*
X108004Y275619D01*
X107226Y269273D02*
X108004Y270051D01*
X114349Y269273D02*
X113571Y270051D01*
X227056Y102647D02*
X227833Y103424D01*
X232787Y102647D02*
X232009Y103424D01*
X232787Y108378D02*
X232009Y107600D01*
X227056Y108378D02*
X227833Y107600D01*
X237056Y102647D02*
X237833Y103424D01*
X242787Y102647D02*
X242009Y103424D01*
X242787Y108378D02*
X242009Y107600D01*
X237056Y108378D02*
X237833Y107600D01*
X256485Y256485D02*
X255707Y255707D01*
X253515Y256485D02*
X254293Y255707D01*
X253515Y253515D02*
X254293Y254293D01*
X256485Y253515D02*
X255707Y254293D01*
X117485Y175485D02*
X116707Y174707D01*
X114515Y175485D02*
X115293Y174707D01*
X114515Y172515D02*
X115293Y173293D01*
X117485Y172515D02*
X116707Y173293D01*
X261485Y106485D02*
X260707Y105707D01*
X258515Y106485D02*
X259293Y105707D01*
X258515Y103515D02*
X259293Y104293D01*
X261485Y103515D02*
X260707Y104293D01*
X90485Y275485D02*
X89707Y274707D01*
X87515Y275485D02*
X88293Y274707D01*
X90485Y272515D02*
X89707Y273293D01*
X136485Y226485D02*
X135707Y225707D01*
X133515Y226485D02*
X134293Y225707D01*
X133515Y223515D02*
X134293Y224293D01*
X136485Y223515D02*
X135707Y224293D01*
X81485Y166485D02*
X80707Y165707D01*
X78515Y166485D02*
X79293Y165707D01*
X78515Y163515D02*
X79293Y164293D01*
X81485Y163515D02*
X80707Y164293D01*
X117485Y136485D02*
X116707Y135707D01*
X114515Y136485D02*
X115293Y135707D01*
X114515Y133515D02*
X115293Y134293D01*
X117485Y133515D02*
X116707Y134293D01*
X177485Y191485D02*
X176707Y190707D01*
X174515Y191485D02*
X175293Y190707D01*
X174515Y188515D02*
X175293Y189293D01*
X177485Y188515D02*
X176707Y189293D01*
X137485Y181485D02*
X136707Y180707D01*
X134515Y181485D02*
X135293Y180707D01*
X134515Y178515D02*
X135293Y179293D01*
X137485Y178515D02*
X136707Y179293D01*
X225485Y129485D02*
X224707Y128707D01*
X222515Y129485D02*
X223293Y128707D01*
X222515Y126515D02*
X223293Y127293D01*
X225485Y126515D02*
X224707Y127293D01*
X225485Y134485D02*
X224707Y133707D01*
X222515Y134485D02*
X223293Y133707D01*
X222515Y131515D02*
X223293Y132293D01*
X225485Y131515D02*
X224707Y132293D01*
X225485Y138485D02*
X224707Y137707D01*
X222515Y138485D02*
X223293Y137707D01*
X222515Y135515D02*
X223293Y136293D01*
X225485Y135515D02*
X224707Y136293D01*
X256485Y246485D02*
X255707Y245707D01*
X253515Y246485D02*
X254293Y245707D01*
X253515Y243515D02*
X254293Y244293D01*
X256485Y243515D02*
X255707Y244293D01*
X256485Y266485D02*
X255707Y265707D01*
X253515Y266485D02*
X254293Y265707D01*
X253515Y263515D02*
X254293Y264293D01*
X256485Y263515D02*
X255707Y264293D01*
X256485Y276485D02*
X255707Y275707D01*
X253515Y276485D02*
X254293Y275707D01*
X253515Y273515D02*
X254293Y274293D01*
X256485Y273515D02*
X255707Y274293D01*
X286585Y256285D02*
X285807Y255507D01*
X283615Y256285D02*
X284393Y255507D01*
X283615Y253315D02*
X284393Y254093D01*
X286585Y253315D02*
X285807Y254093D01*
X286585Y266185D02*
X285807Y265407D01*
X283615Y266185D02*
X284393Y265407D01*
X283615Y263215D02*
X284393Y263993D01*
X286585Y263215D02*
X285807Y263993D01*
X219885Y177285D02*
X219107Y176507D01*
X216915Y177285D02*
X217693Y176507D01*
X216915Y174315D02*
X217693Y175093D01*
X219885Y174315D02*
X219107Y175093D01*
X136485Y251485D02*
X135707Y250707D01*
X133515Y251485D02*
X134293Y250707D01*
X133515Y248515D02*
X134293Y249293D01*
X136485Y248515D02*
X135707Y249293D01*
X131485Y251485D02*
X130707Y250707D01*
X128515Y251485D02*
X129293Y250707D01*
X128515Y248515D02*
X129293Y249293D01*
X131485Y248515D02*
X130707Y249293D01*
X126485Y251485D02*
X125707Y250707D01*
X123515Y251485D02*
X124293Y250707D01*
X123515Y248515D02*
X124293Y249293D01*
X126485Y248515D02*
X125707Y249293D01*
X161485Y206485D02*
X160707Y205707D01*
X158515Y206485D02*
X159293Y205707D01*
X158515Y203515D02*
X159293Y204293D01*
X161485Y203515D02*
X160707Y204293D01*
X151485Y206485D02*
X150707Y205707D01*
X148515Y206485D02*
X149293Y205707D01*
X148515Y203515D02*
X149293Y204293D01*
X151485Y203515D02*
X150707Y204293D01*
X151485Y211485D02*
X150707Y210707D01*
X148515Y211485D02*
X149293Y210707D01*
X148515Y208515D02*
X149293Y209293D01*
X151485Y208515D02*
X150707Y209293D01*
X161485Y211485D02*
X160707Y210707D01*
X158515Y211485D02*
X159293Y210707D01*
X158515Y208515D02*
X159293Y209293D01*
X161485Y208515D02*
X160707Y209293D01*
X161485Y216485D02*
X160707Y215707D01*
X158515Y216485D02*
X159293Y215707D01*
X158515Y213515D02*
X159293Y214293D01*
X161485Y213515D02*
X160707Y214293D01*
X151485Y216485D02*
X150707Y215707D01*
X148515Y216485D02*
X149293Y215707D01*
X148515Y213515D02*
X149293Y214293D01*
X151485Y213515D02*
X150707Y214293D01*
X120415Y289285D02*
X121193Y288507D01*
X120415Y286315D02*
X121193Y287093D01*
X123385Y286315D02*
X122607Y287093D01*
X112085Y289085D02*
X111307Y288307D01*
X109115Y289085D02*
X109893Y288307D01*
X109115Y286115D02*
X109893Y286893D01*
X112085Y286115D02*
X111307Y286893D01*
X87185Y289085D02*
X86407Y288307D01*
X84215Y289085D02*
X84993Y288307D01*
X84215Y286115D02*
X84993Y286893D01*
X87185Y286115D02*
X86407Y286893D01*
X128485Y212485D02*
X127707Y211707D01*
X125515Y209515D02*
X126293Y210293D01*
X128485Y209515D02*
X127707Y210293D01*
X174485Y229585D02*
X173707Y228807D01*
X171515Y229585D02*
X172293Y228807D01*
X171515Y226615D02*
X172293Y227393D01*
X174485Y226615D02*
X173707Y227393D01*
G54D87*
X310236Y155906D02*
X307046Y148072D01*
X313427*
X310236Y155906*
X307046Y148072D02*
X313427D01*
X307860Y150072D02*
X312612D01*
X308675Y152072D02*
X311797D01*
X309490Y154072D02*
X310983D01*
X308000Y148072D02*
Y150415D01*
X310000Y148072D02*
Y155326D01*
X312000Y148072D02*
Y151575D01*
X310236Y163386D02*
X313427Y171219D01*
X307046*
X310236Y163386*
X310236*
X309422Y165386D02*
X311051D01*
X308607Y167386D02*
X311865D01*
X307793Y169386D02*
X312680D01*
X308000Y168876D02*
Y171219D01*
X310000Y163966D02*
Y171219D01*
X312000Y167716D02*
Y171219D01*
X111854Y187674D02*
G03X113228Y190920I-3149J3246D01*
G01X111854Y187674D02*
X114602D01*
X113228Y190920D02*
G03X114602Y187674I4523J0D01*
G01X113228Y190920D02*
X113228D01*
X112762Y188920D02*
X113695D01*
X113228Y187674D02*
Y190920D01*
X107572Y226506D02*
G03X108443Y225800I871J185D01*
G01X107572Y226506D02*
Y225094D01*
X108443Y225800D02*
G03X107572Y225094I0J-891D01*
G01Y225800D02*
X108443D01*
X114512Y225089D02*
G03X113640Y225800I-872J-179D01*
G01X114512Y225089D02*
Y226511D01*
X113640Y225800D02*
G03X114512Y226511I0J890D01*
G01X113640Y225800D02*
X114512D01*
X113640D02*
X113640D01*
X113093Y112118D02*
Y113299D01*
X118530Y118737*
X118730*
X123694Y123700*
X169868*
X157193Y112318D02*
X161618D01*
X165200Y115900*
X170068*
X269400Y119400D02*
Y119597D01*
X273031Y123228*
X280709*
X310236Y144882D02*
Y174409D01*
Y182496*
X319748Y192008*
X108662Y202166D02*
X109902D01*
X113228Y198839*
Y186220*
X108662Y209646D02*
X112821D01*
X113386Y209081*
Y207663*
X114722Y206327*
X122327*
X127000Y211000*
X106800Y225800D02*
X115200D01*
Y225700*
X99823Y237770D02*
X100028D01*
Y225800*
X100800*
X121200Y225700D02*
X121300D01*
Y218200*
X310236Y237402D02*
Y229708D01*
X319748Y220196*
Y192008*
X85700Y287600D02*
X91793D01*
Y287782*
X110600Y287600D02*
X116493D01*
Y287782*
Y287800*
X121900*
X75971Y113386D03*
X99707Y112118D03*
X143807Y112318D03*
X189094Y119291D03*
X210874D03*
X232402D03*
X260000Y105000D03*
X269400Y119400D03*
X254181Y119291D03*
X91732Y140945D03*
X116000Y135000D03*
X211614Y128150D03*
X224000Y128000D03*
Y133000D03*
Y137000D03*
X98000Y158000D03*
X138000Y156000D03*
X158000D03*
X170676Y148819D03*
X189126Y150787D03*
X204129Y148819D03*
X238433Y150787D03*
X80000Y165000D03*
X116000Y174000D03*
X136000Y180000D03*
X218400Y175800D03*
X176000Y190000D03*
X186588Y187814D03*
X205900Y197000D03*
X108662Y205906D03*
Y209646D03*
X115300Y218200D03*
X127000Y211000D03*
X121300Y218200D03*
X150000Y205000D03*
Y210000D03*
Y215000D03*
X160000Y205000D03*
Y210000D03*
Y215000D03*
X189632Y212500D03*
X204132D03*
X109823Y237770D03*
X104823D03*
X100800Y225800D03*
X114823Y237770D03*
X121200Y225700D03*
X135000Y225000D03*
X173000Y228100D03*
X99823Y260655D03*
X130000Y250000D03*
X125000D03*
X135000D03*
X255000Y245000D03*
Y255000D03*
X285100Y254800D03*
X89000Y274000D03*
X161000D03*
X155000D03*
X255000Y265000D03*
Y275000D03*
X285100Y264700D03*
X85700Y287600D03*
X110600D03*
X121900Y287800D03*
X163232Y283200D03*
G54D88*
X77156Y192770D02*
Y201482D01*
X74498*
Y192770*
X77156*
X74498D02*
X77156D01*
X74498Y195722D02*
X77156D01*
X74498Y198675D02*
X77156D01*
X74498Y192770D02*
Y201482D01*
X77156Y212770D02*
Y221482D01*
X74498*
Y212770*
X77156*
X74498Y214764D02*
X77156D01*
X74498Y217717D02*
X77156D01*
X74498Y220669D02*
X77156D01*
X74498Y212770D02*
Y221482D01*
X77156Y202770D02*
Y211482D01*
X74498*
Y202770*
X77156*
X74498Y202953D02*
X77156D01*
X74498Y205906D02*
X77156D01*
X74498Y208858D02*
X77156D01*
X74498Y202770D02*
Y211482D01*
G54D89*
X103000Y204850D02*
X104056Y205906D01*
X108662*
G74*
X0Y0D02*
M02*
