M48
;FILE_FORMAT=2:4
INCH,LZ
FMAT,2
ICI,OFF
;TYPE=PLATED
T1C.012
T2C.01968
T3C.02362
T4C.02953
T5C.035
T6C.03543
T7C.03937
T8C.04331
T9C.04724
T10C.07874
%
M72
G90
G93X0Y0
T1C.012F095S3
X007597Y011339
X009971Y011212
X014381Y011232
X018909Y011929
X021087Y011929
X021161Y012815
X0224Y0128
X02324Y011929
X025418Y011929
X026Y0105
X02694Y01194
X023843Y015079
X0224Y0133
X0224Y0137
X02184Y01758
X020413Y014882
X018913Y015079
X017068Y014882
X0158Y0156
X0138Y0156
X0116Y0174
X0116Y0135
X0098Y0158
X009173Y014094
X008Y0165
X01008Y02258
X010866Y020591
X010866Y020965
X01153Y02182
X01212Y02257
X01213Y02182
X0127Y0211
X0135Y0225
X0136Y018
X015Y0205
X015Y021
X015Y0215
X016Y0205
X016Y021
X016Y0215
X0173Y02281
X0176Y019
X018659Y018781
X018963Y02125
X020413Y02125
X02059Y0197
X02851Y02548
X02851Y02647
X0255Y0245
X0255Y0255
X0255Y0265
X0255Y0275
X0161Y0274
X0155Y0274
X0135Y025
X013Y025
X0125Y025
X011482Y023777
X010982Y023777
X010482Y023777
X009982Y026066
X0089Y0274
X00857Y02876
X01106Y02876
X01219Y02878
X016323Y02832
T2C.01968F095S3
X019015Y020156
X019802Y020156
X007768Y023268G85X008083Y023268
X007768Y025787G85X008083Y025787
T3C.02362F197S55
X008772Y025315
X008772Y02374
T4C.02953F197S55
X010305Y0107
X010975Y0107
X014715Y01072
X015385Y01072
X011315Y02929
X010645Y02929
X008845Y02929
X008175Y02929
T5C.035F197S55
X010323Y018622
X011323Y018622
X012323Y018622
X028071Y014323
X028071Y013323
X028071Y012323
X0202Y0231
X0202Y0241
X0202Y0251
X0202Y0262
X0202Y0272
X0202Y0282
T6C.03543F197S55
X017992Y010551
X018992Y010551
X019992Y010551
X020992Y010551
X021992Y010551
X022992Y010551
X023992Y010551
X024992Y010551
X026992Y010567
X027992Y010567
X028992Y010567
X029992Y010567
X030992Y010567
X031992Y010567
X008583Y019213
X008583Y020213
X007583Y019213
X007583Y020213
X007583Y022213
X007583Y021213
X008583Y021213
X008583Y022213
X014441Y024512
X015441Y024512
X016441Y024512
X017441Y024512
X018819Y025268
X018819Y024268
X018819Y023268
X031992Y029433
X030992Y029433
X029992Y029433
X028992Y029433
X027992Y029433
X026992Y029433
X025992Y029433
X024992Y029433
X023492Y029433
X022492Y029433
X021492Y029433
X020492Y029433
X019492Y029433
X018819Y027268
X018819Y026268
X018819Y028268
X018492Y029433
X017492Y029433
X017441Y025512
X016492Y029433
X016441Y025512
X015492Y029433
X015441Y025512
X014492Y029433
X014441Y025512
T7C.03937F197S55
X011079Y027283
X012079Y027283
X013079Y027283
X014079Y027283
T8C.04331F139S55
X022598Y016638
X022598Y021362
X022598Y023138
X022598Y027862
T9C.04724F139S55
X007963Y012756
X007963Y015433
X01252Y014882
X015472Y014882
X031024Y014488
X031024Y01252
X031024Y017441
X031024Y019409
X031024Y021378
X027402Y016638
X027402Y021362
X021811Y019
X021811Y0255
X027402Y023138
X027402Y027862
X031024Y027677
X031024Y025709
X031024Y02374
T10C.07874F081S55
X007992Y017717
X017165Y017717
X017165Y027087
X007992Y027087
M30
