*
*
G04 PADS VX.2.4 Build Number: 11282995 generated Gerber (RS-274-X) file*
G04 PC Version=2.1*
*
%IN "HT66F2360_TuYa_WIFI_Pet"*%
*
%MOIN*%
*
%FSLAX35Y35*%
*
*
*
*
G04 PC Standard Apertures*
*
*
G04 Thermal Relief Aperture macro.*
%AMTER*
1,1,$1,0,0*
1,0,$1-$2,0,0*
21,0,$3,$4,0,0,45*
21,0,$3,$4,0,0,135*
%
*
*
G04 Annular Aperture macro.*
%AMANN*
1,1,$1,0,0*
1,0,$2,0,0*
%
*
*
G04 Odd Aperture macro.*
%AMODD*
1,1,$1,0,0*
1,0,$1-0.005,0,0*
%
*
*
G04 PC Custom Aperture Macros*
*
*
*
*
*
*
G04 PC Aperture Table*
*
%ADD010C,0.001*%
%ADD011C,0.01*%
%ADD042C,0.05724*%
%ADD043R,0.11X0.05*%
%ADD044R,0.06118X0.03638*%
%ADD045R,0.055X0.06*%
%ADD046R,0.06906X0.06906*%
%ADD047C,0.06906*%
%ADD048C,0.02181*%
%ADD049R,0.06315X0.02575*%
%ADD050R,0.0848X0.0848*%
%ADD051O,0.10055X0.06118*%
%ADD052R,0.04661X0.04858*%
%ADD053R,0.04543X0.04937*%
%ADD054C,0.1478*%
%ADD055C,0.08874*%
%ADD056R,0.07X0.07*%
%ADD057C,0.07*%
%ADD058R,0.03756X0.05921*%
%ADD059C,0.12024*%
%ADD060C,0.10843*%
%ADD061R,0.05921X0.08874*%
%ADD062O,0.03559X0.08874*%
%ADD063C,0.02968*%
%ADD064R,0.08874X0.01906*%
%ADD065R,0.01906X0.08874*%
%ADD066R,0.04937X0.04543*%
%ADD067C,0.03953*%
%ADD068R,0.03362X0.05724*%
%ADD069R,0.06118X0.09268*%
%ADD081R,0.14937X0.11236*%
%ADD082R,0.15409X0.11236*%
*
*
*
*
G04 PC Circuitry*
G04 Layer Name HT66F2360_TuYa_WIFI_Pet - circuitry*
%LPD*%
*
*
G04 PC Custom Flashes*
G04 Layer Name HT66F2360_TuYa_WIFI_Pet - flashes*
%LPD*%
*
*
G04 PC Circuitry*
G04 Layer Name HT66F2360_TuYa_WIFI_Pet - circuitry*
%LPD*%
*
G54D10*
G54D11*
G01X70079Y99606D02*
Y300394D01*
X74016Y304331*
X322047*
X329921Y296457*
Y253150*
X339764Y243307*
Y115354*
X329921Y105512*
Y97638*
X327953Y95669*
X74016*
X70079Y99606*
X135039Y294488D02*
G75*
G03X135039I-5905J0D01*
G01Y105512D02*
G03X135039I-5905J0D01*
G01X335827Y127165D02*
G03X335827I-5906J0D01*
G01Y233465D02*
G03X335827I-5906J0D01*
G54D42*
G01X79626Y127559D03*
Y154331D03*
G54D43*
X91732Y130945D03*
Y140945D03*
Y150945D03*
G54D44*
X108662Y209646D03*
Y205906D03*
Y202166D03*
X118110D03*
Y209646D03*
G54D45*
X75971Y113386D03*
X83871D03*
X75971Y103543D03*
X83871D03*
G54D46*
X174409Y255118D03*
X85827Y192126D03*
X188189Y282677D03*
X319921Y294331D03*
Y105669D03*
X249921Y105512D03*
X234921Y294331D03*
G54D47*
X174409Y245118D03*
X164409Y255118D03*
Y245118D03*
X154409Y255118D03*
Y245118D03*
X144409Y255118D03*
Y245118D03*
X75827Y192126D03*
X85827Y202126D03*
X75827D03*
X85827Y212126D03*
X75827D03*
X85827Y222126D03*
X75827D03*
X188189Y272677D03*
Y262677D03*
Y252677D03*
Y242677D03*
Y232677D03*
X309921Y294331D03*
X299921D03*
X289921D03*
X279921D03*
X269921D03*
X259921D03*
X249921D03*
X309921Y105669D03*
X299921D03*
X289921D03*
X279921D03*
X269921D03*
X239921Y105512D03*
X229921D03*
X219921D03*
X209921D03*
X199921D03*
X189921D03*
X179921D03*
X198025Y201562D03*
X190151D03*
X224921Y294331D03*
X214921D03*
X204921D03*
X194921D03*
X184921D03*
X174921D03*
X164921D03*
X154921D03*
X144921D03*
G54D48*
X87720Y253150D03*
Y237402D03*
G54D49*
X89787Y250394D03*
Y247835D03*
Y245276D03*
Y242717D03*
Y240157D03*
G54D50*
X79256Y250000D03*
Y240551D03*
G54D51*
Y232676D03*
Y257872D03*
G54D52*
X157169Y283200D03*
X163232D03*
X269731Y127700D03*
X263668D03*
X232402Y119291D03*
X238465D03*
X176131Y115900D03*
X170068D03*
X175931Y123700D03*
X169868D03*
X136631Y283300D03*
X130568D03*
X143869Y283200D03*
X149932D03*
X198069Y212500D03*
X204132D03*
X183569D03*
X189632D03*
X189094Y119291D03*
X195157D03*
X232402Y127165D03*
X238465D03*
X189094D03*
X195157D03*
X189094Y135039D03*
X195157D03*
X232402D03*
X238465D03*
X232402Y142913D03*
X238465D03*
X189732Y219800D03*
X183669D03*
X189094Y142913D03*
X195157D03*
X204132Y219900D03*
X198069D03*
G54D53*
X155000Y274000D03*
X161000D03*
X269400Y119400D03*
X263400D03*
X115300Y218200D03*
X121300D03*
X232433Y150787D03*
X238433D03*
X210874Y119291D03*
X204874D03*
X189126Y150787D03*
X195126D03*
X254181Y119291D03*
X248181D03*
X100800Y225800D03*
X106800D03*
X115200Y225700D03*
X121200D03*
G54D54*
X171653Y270866D03*
X171654Y177165D03*
X79921D03*
Y270866D03*
G54D55*
X110787Y272835D03*
X120787D03*
X130787D03*
X140787D03*
G54D56*
X202000Y231000D03*
Y262000D03*
X123228Y186220D03*
X280709Y123228D03*
G54D57*
X202000Y241000D03*
Y251000D03*
Y272000D03*
Y282000D03*
X113228Y186220D03*
X103228D03*
X280709Y133228D03*
Y143228D03*
G54D58*
X247441Y128150D03*
X254921D03*
X251181Y137992D03*
X204134Y128150D03*
X211614D03*
X207874Y137992D03*
G54D59*
X310236Y237402D03*
Y257087D03*
Y276772D03*
X274016Y166378D03*
Y213622D03*
X218110Y190000D03*
X310236Y125197D03*
Y144882D03*
X274016Y231378D03*
Y278622D03*
X218110Y255000D03*
X310236Y174409D03*
Y194094D03*
Y213780D03*
G54D60*
X225984Y213622D03*
Y166378D03*
Y278622D03*
Y231378D03*
G54D61*
X262800Y148819D03*
X247436D03*
X219493D03*
X204129D03*
G54D62*
X201588Y187814D03*
X196588D03*
X191588D03*
X186588D03*
Y164929D03*
X191588D03*
X196588D03*
X201588D03*
X99823Y237770D03*
X104823D03*
X109823D03*
X114823D03*
X119823D03*
X124823D03*
X129823D03*
X134823D03*
Y260655D03*
X129823D03*
X124823D03*
X119823D03*
X114823D03*
X109823D03*
X104823D03*
X99823D03*
G54D63*
X154725Y148819D03*
X125197D03*
G54D64*
X170237Y196700D03*
Y198700D03*
Y200700D03*
Y202700D03*
Y204700D03*
Y206700D03*
Y208700D03*
Y210700D03*
Y212700D03*
Y214700D03*
Y216700D03*
Y218700D03*
X134763D03*
Y216700D03*
Y214700D03*
Y212700D03*
Y210700D03*
Y208700D03*
Y206700D03*
Y204700D03*
Y202700D03*
Y200700D03*
Y198700D03*
Y196700D03*
G54D65*
X163500Y225437D03*
X161500D03*
X159500D03*
X157500D03*
X155500D03*
X153500D03*
X151500D03*
X149500D03*
X147500D03*
X145500D03*
X143500D03*
X141500D03*
Y189963D03*
X143500D03*
X145500D03*
X147500D03*
X149500D03*
X151500D03*
X153500D03*
X155500D03*
X157500D03*
X159500D03*
X161500D03*
X163500D03*
G54D66*
X205899Y196993D03*
Y202993D03*
X182283Y197000D03*
Y203000D03*
G54D67*
X153846Y107200D03*
X147154D03*
X109746Y107000D03*
X103054D03*
X81754Y292900D03*
X88446D03*
X106454D03*
X113146D03*
G54D68*
X157193Y112318D03*
X143807D03*
X113093Y112118D03*
X99707D03*
X78407Y287782D03*
X91793D03*
X103107D03*
X116493D03*
G54D69*
X158571Y102082D03*
X142429D03*
X114471Y101882D03*
X98329D03*
X77029Y298018D03*
X93171D03*
X101729D03*
X117871D03*
G54D81*
X108616Y148819D03*
G54D82*
X170676D03*
G74*
X0Y0D02*
M02*
