*
*
G04 PADS VX.2.4 Build Number: 11282995 generated Gerber (RS-274-X) file*
G04 PC Version=2.1*
*
%IN "HT66F2360_TuYa_WIFI_Pet"*%
*
%MOIN*%
*
%FSLAX35Y35*%
*
*
*
*
G04 PC Standard Apertures*
*
*
G04 Thermal Relief Aperture macro.*
%AMTER*
1,1,$1,0,0*
1,0,$1-$2,0,0*
21,0,$3,$4,0,0,45*
21,0,$3,$4,0,0,135*
%
*
*
G04 Annular Aperture macro.*
%AMANN*
1,1,$1,0,0*
1,0,$2,0,0*
%
*
*
G04 Odd Aperture macro.*
%AMODD*
1,1,$1,0,0*
1,0,$1-0.005,0,0*
%
*
*
G04 PC Custom Aperture Macros*
*
*
*
*
*
*
G04 PC Aperture Table*
*
%ADD010C,0.001*%
%ADD011C,0.01*%
%ADD042C,0.05724*%
%ADD046R,0.06906X0.06906*%
%ADD047C,0.06906*%
%ADD048C,0.02181*%
%ADD051O,0.10055X0.06118*%
%ADD054C,0.1478*%
%ADD055C,0.08874*%
%ADD056R,0.07X0.07*%
%ADD057C,0.07*%
%ADD059C,0.12024*%
%ADD060C,0.10843*%
%ADD063C,0.02968*%
%ADD067C,0.03953*%
*
*
*
*
G04 PC Circuitry*
G04 Layer Name HT66F2360_TuYa_WIFI_Pet - circuitry*
%LPD*%
*
*
G04 PC Custom Flashes*
G04 Layer Name HT66F2360_TuYa_WIFI_Pet - flashes*
%LPD*%
*
*
G04 PC Circuitry*
G04 Layer Name HT66F2360_TuYa_WIFI_Pet - circuitry*
%LPD*%
*
G54D10*
G54D11*
G01X70079Y99606D02*
Y300394D01*
X74016Y304331*
X322047*
X329921Y296457*
Y253150*
X339764Y243307*
Y115354*
X329921Y105512*
Y97638*
X327953Y95669*
X74016*
X70079Y99606*
X135039Y294488D02*
G75*
G03X135039I-5905J0D01*
G01Y105512D02*
G03X135039I-5905J0D01*
G01X335827Y127165D02*
G03X335827I-5906J0D01*
G01Y233465D02*
G03X335827I-5906J0D01*
G54D42*
G01X79626Y127559D03*
Y154331D03*
G54D46*
X174409Y255118D03*
X85827Y192126D03*
X188189Y282677D03*
X319921Y294331D03*
Y105669D03*
X249921Y105512D03*
X234921Y294331D03*
G54D47*
X174409Y245118D03*
X164409Y255118D03*
Y245118D03*
X154409Y255118D03*
Y245118D03*
X144409Y255118D03*
Y245118D03*
X75827Y192126D03*
X85827Y202126D03*
X75827D03*
X85827Y212126D03*
X75827D03*
X85827Y222126D03*
X75827D03*
X188189Y272677D03*
Y262677D03*
Y252677D03*
Y242677D03*
Y232677D03*
X309921Y294331D03*
X299921D03*
X289921D03*
X279921D03*
X269921D03*
X259921D03*
X249921D03*
X309921Y105669D03*
X299921D03*
X289921D03*
X279921D03*
X269921D03*
X239921Y105512D03*
X229921D03*
X219921D03*
X209921D03*
X199921D03*
X189921D03*
X179921D03*
X198025Y201562D03*
X190151D03*
X224921Y294331D03*
X214921D03*
X204921D03*
X194921D03*
X184921D03*
X174921D03*
X164921D03*
X154921D03*
X144921D03*
G54D48*
X87720Y253150D03*
Y237402D03*
G54D51*
X79256Y232676D03*
Y257872D03*
G54D54*
X171653Y270866D03*
X171654Y177165D03*
X79921D03*
Y270866D03*
G54D55*
X110787Y272835D03*
X120787D03*
X130787D03*
X140787D03*
G54D56*
X202000Y231000D03*
Y262000D03*
X123228Y186220D03*
X280709Y123228D03*
G54D57*
X202000Y241000D03*
Y251000D03*
Y272000D03*
Y282000D03*
X113228Y186220D03*
X103228D03*
X280709Y133228D03*
Y143228D03*
G54D59*
X310236Y237402D03*
Y257087D03*
Y276772D03*
X274016Y166378D03*
Y213622D03*
X218110Y190000D03*
X310236Y125197D03*
Y144882D03*
X274016Y231378D03*
Y278622D03*
X218110Y255000D03*
X310236Y174409D03*
Y194094D03*
Y213780D03*
G54D60*
X225984Y213622D03*
Y166378D03*
Y278622D03*
Y231378D03*
G54D63*
X154725Y148819D03*
X125197D03*
G54D67*
X153846Y107200D03*
X147154D03*
X109746Y107000D03*
X103054D03*
X81754Y292900D03*
X88446D03*
X106454D03*
X113146D03*
G74*
X0Y0D02*
M02*
