*
*
G04 PADS VX.2.4 Build Number: 11282995 generated Gerber (RS-274-X) file*
G04 PC Version=2.1*
*
%IN "HT66F2360_TuYa_WIFI_Pet"*%
*
%MOIN*%
*
%FSLAX35Y35*%
*
*
*
*
G04 PC Standard Apertures*
*
*
G04 Thermal Relief Aperture macro.*
%AMTER*
1,1,$1,0,0*
1,0,$1-$2,0,0*
21,0,$3,$4,0,0,45*
21,0,$3,$4,0,0,135*
%
*
*
G04 Annular Aperture macro.*
%AMANN*
1,1,$1,0,0*
1,0,$2,0,0*
%
*
*
G04 Odd Aperture macro.*
%AMODD*
1,1,$1,0,0*
1,0,$1-0.005,0,0*
%
*
*
G04 PC Custom Aperture Macros*
*
*
*
*
*
*
G04 PC Aperture Table*
*
%ADD010C,0.001*%
%ADD011C,0.01*%
%ADD013R,0.1X0.04*%
%ADD014R,0.05118X0.02638*%
%ADD015R,0.045X0.05*%
%ADD019R,0.05315X0.01575*%
%ADD020R,0.0748X0.0748*%
%ADD022R,0.03661X0.03858*%
%ADD023R,0.03543X0.03937*%
%ADD028R,0.02756X0.04921*%
%ADD031R,0.04921X0.07874*%
%ADD032O,0.02559X0.07874*%
%ADD034R,0.07874X0.00906*%
%ADD035R,0.00906X0.07874*%
%ADD036R,0.03937X0.03543*%
%ADD038R,0.02362X0.04724*%
%ADD039R,0.05118X0.08268*%
%ADD040R,0.13937X0.10236*%
%ADD041R,0.14409X0.10236*%
*
*
*
*
G04 PC Circuitry*
G04 Layer Name HT66F2360_TuYa_WIFI_Pet - circuitry*
%LPD*%
*
*
G04 PC Custom Flashes*
G04 Layer Name HT66F2360_TuYa_WIFI_Pet - flashes*
%LPD*%
*
*
G04 PC Circuitry*
G04 Layer Name HT66F2360_TuYa_WIFI_Pet - circuitry*
%LPD*%
*
G54D10*
G54D11*
G01X70079Y99606D02*
Y300394D01*
X74016Y304331*
X322047*
X329921Y296457*
Y253150*
X339764Y243307*
Y115354*
X329921Y105512*
Y97638*
X327953Y95669*
X74016*
X70079Y99606*
X135039Y294488D02*
G75*
G03X135039I-5905J0D01*
G01Y105512D02*
G03X135039I-5905J0D01*
G01X335827Y127165D02*
G03X335827I-5906J0D01*
G01Y233465D02*
G03X335827I-5906J0D01*
G54D13*
G01X91732Y130945D03*
Y140945D03*
Y150945D03*
G54D14*
X108662Y209646D03*
Y205906D03*
Y202166D03*
X118110D03*
Y209646D03*
G54D15*
X75971Y113386D03*
X83871D03*
X75971Y103543D03*
X83871D03*
G54D19*
X89787Y250394D03*
Y247835D03*
Y245276D03*
Y242717D03*
Y240157D03*
G54D20*
X79256Y250000D03*
Y240551D03*
G54D22*
X157169Y283200D03*
X163232D03*
X269731Y127700D03*
X263668D03*
X232402Y119291D03*
X238465D03*
X176131Y115900D03*
X170068D03*
X175931Y123700D03*
X169868D03*
X136631Y283300D03*
X130568D03*
X143869Y283200D03*
X149932D03*
X198069Y212500D03*
X204132D03*
X183569D03*
X189632D03*
X189094Y119291D03*
X195157D03*
X232402Y127165D03*
X238465D03*
X189094D03*
X195157D03*
X189094Y135039D03*
X195157D03*
X232402D03*
X238465D03*
X232402Y142913D03*
X238465D03*
X189732Y219800D03*
X183669D03*
X189094Y142913D03*
X195157D03*
X204132Y219900D03*
X198069D03*
G54D23*
X155000Y274000D03*
X161000D03*
X269400Y119400D03*
X263400D03*
X115300Y218200D03*
X121300D03*
X232433Y150787D03*
X238433D03*
X210874Y119291D03*
X204874D03*
X189126Y150787D03*
X195126D03*
X254181Y119291D03*
X248181D03*
X100800Y225800D03*
X106800D03*
X115200Y225700D03*
X121200D03*
G54D28*
X247441Y128150D03*
X254921D03*
X251181Y137992D03*
X204134Y128150D03*
X211614D03*
X207874Y137992D03*
G54D31*
X262800Y148819D03*
X247436D03*
X219493D03*
X204129D03*
G54D32*
X201588Y187814D03*
X196588D03*
X191588D03*
X186588D03*
Y164929D03*
X191588D03*
X196588D03*
X201588D03*
X99823Y237770D03*
X104823D03*
X109823D03*
X114823D03*
X119823D03*
X124823D03*
X129823D03*
X134823D03*
Y260655D03*
X129823D03*
X124823D03*
X119823D03*
X114823D03*
X109823D03*
X104823D03*
X99823D03*
G54D34*
X170237Y196700D03*
Y198700D03*
Y200700D03*
Y202700D03*
Y204700D03*
Y206700D03*
Y208700D03*
Y210700D03*
Y212700D03*
Y214700D03*
Y216700D03*
Y218700D03*
X134763D03*
Y216700D03*
Y214700D03*
Y212700D03*
Y210700D03*
Y208700D03*
Y206700D03*
Y204700D03*
Y202700D03*
Y200700D03*
Y198700D03*
Y196700D03*
G54D35*
X163500Y225437D03*
X161500D03*
X159500D03*
X157500D03*
X155500D03*
X153500D03*
X151500D03*
X149500D03*
X147500D03*
X145500D03*
X143500D03*
X141500D03*
Y189963D03*
X143500D03*
X145500D03*
X147500D03*
X149500D03*
X151500D03*
X153500D03*
X155500D03*
X157500D03*
X159500D03*
X161500D03*
X163500D03*
G54D36*
X205899Y196993D03*
Y202993D03*
X182283Y197000D03*
Y203000D03*
G54D38*
X157193Y112318D03*
X143807D03*
X113093Y112118D03*
X99707D03*
X78407Y287782D03*
X91793D03*
X103107D03*
X116493D03*
G54D39*
X158571Y102082D03*
X142429D03*
X114471Y101882D03*
X98329D03*
X77029Y298018D03*
X93171D03*
X101729D03*
X117871D03*
G54D40*
X108616Y148819D03*
G54D41*
X170676D03*
G74*
X0Y0D02*
M02*
